<svg width="300" height="220"><g transform="translate(40,10)"><g class="x axis" transform="translate(0,170)"><g class="tick" transform="translate(69.52741517536299,0)" style="opacity: 1;"><line y2="6" x2="0"></line><text y="9" x="0" dy=".71em" style="text-anchor: middle;">467</text></g><g class="tick" transform="translate(147.51626626503125,0)" style="opacity: 1;"><line y2="6" x2="0"></line><text y="9" x="0" dy=".71em" style="text-anchor: middle;">468</text></g><g class="tick" transform="translate(225.50511735469956,0)" style="opacity: 1;"><line y2="6" x2="0"></line><text y="9" x="0" dy=".71em" style="text-anchor: middle;">469</text></g><path class="domain" d="M0,-170V0H250V-170"></path><text y="20" x="125" dy=".71em" style="text-anchor: middle;">m/z</text></g><g class="y axis" transform="translate(0,0)"><g class="tick" transform="translate(0,170)" style="opacity: 1;"><line x2="-6" y2="0"></line><text x="-9" y="0" dy=".32em" style="text-anchor: end;">0.0</text></g><g class="tick" transform="translate(0,139.0909090909091)" style="opacity: 1;"><line x2="-6" y2="0"></line><text x="-9" y="0" dy=".32em" style="text-anchor: end;">0.2</text></g><g class="tick" transform="translate(0,108.18181818181819)" style="opacity: 1;"><line x2="-6" y2="0"></line><text x="-9" y="0" dy=".32em" style="text-anchor: end;">0.4</text></g><g class="tick" transform="translate(0,77.27272727272728)" style="opacity: 1;"><line x2="-6" y2="0"></line><text x="-9" y="0" dy=".32em" style="text-anchor: end;">0.6</text></g><g class="tick" transform="translate(0,46.36363636363636)" style="opacity: 1;"><line x2="-6" y2="0"></line><text x="-9" y="0" dy=".32em" style="text-anchor: end;">0.8</text></g><g class="tick" transform="translate(0,15.454545454545467)" style="opacity: 1;"><line x2="-6" y2="0"></line><text x="-9" y="0" dy=".32em" style="text-anchor: end;">1.0</text></g><path class="domain" d="M250,0H0V170H250"></path><text transform="rotate(-90)" x="-85" y="-30" style="text-anchor: middle;">Normalized Intensity</text></g><g class="filename"><path class="profile line" d="M0,169.99981214209134L0.0641284726824389,169.9999999908247L0.16946281677899108,170L0.27479607524515565,170L0.3801289971153178,170L0.48546153698955835,170L0.5907946844983383,170L0.6961289798435077,170L0.8014637330225458,170L0.9067989440310196,170L1.0121346128777953,170L1.117470739562873,170L1.2228073240906856,169.9974611430669L1.3281443664700994,169.99455593063186L1.433481866687815,169.98274682599825L1.5388198247615656,169.96594621931047L1.6441585266696126,169.95061411198097L1.6731934445107266,169.95070097103567L1.7494974004465658,169.95008900751967L1.8548367320884196,169.9601213933742L1.9601765215818745,169.98185219815616L2.0655171729644892,169.99216979850496L2.170857878183313,169.99784797913395L2.2761990412759037,169.99940239586778L2.3815406622466946,169.99999997710654L2.4868827410823866,170L2.592225513852806,170L2.6975691122092953,170L2.802912564684021,170L2.90825647504138,170L3.013600843285806,170L3.1189461324556884,170L3.224291416483114,170L3.329637158406472,170L3.4349833582257627,170L3.5403303155600607,170L3.6456774311800837,170L3.751025004709339,170L3.856373217729771,170L3.9617224651865404,170L4.067071412447926,170L4.17242081762741,170L4.277770680724993,170L4.383121001740674,170L4.488471780683321,170L4.593823017552933,170L4.699175311574358,170L4.804527464297898,170L4.90988007497057,170L5.015233143570207,170L5.120586670114542,170L5.225941031381675,170L5.331295473810971,170L5.436650374189399,170L5.542005777916875,170L5.647362043613309,170L5.752718317852427,170L5.8580750500495435,170L5.963432240209089,170L6.068790355909004,170L6.174148461997843,170L6.279507026053547,170L6.384866048084979,170L6.488687456393935,170L6.592638668032426,170L6.697999063999913,170L6.803359917943132,170L6.9087212298709435,169.68656509917244L7.014082999787787,168.7982497427269L7.1194452276936575,167.12618806674197L7.224807913597425,166.65744793852613L7.3301710574946535,162.61673844865632L7.435534659389779,146.44534870316846L7.540898719287231,103.57253781326648L7.646263237187013,54.71672185571329L7.751628213093556,16.117384933917037L7.757406459239998,15.454545454545467L7.856993647006861,40.56433092939125L7.962359538935794,90.65464644226714L8.067725888880355,137.43131422617233L8.173092696836111,161.50450662757174L8.278459962816362,169.61198286648568L8.383827686816673,169.9992092637932L8.492145958052387,170L8.59751459810612,170L8.70288369618878,170L8.808253252309235,170L8.91362326646305,170L9.018993738650225,170L9.124364668879629,170L9.22973605715569,170L9.335107903478413,170L9.440480207852229,170L9.545852970272705,170L9.651226622001392,170L9.756600300537352,170L9.861974437128842,170L9.967349063561562,170L10.072724520297228,170L10.178100031081895,170L10.28347599993982,170L10.388852485885137,170L10.494229774909405,170L10.59960711799154,170L10.7049849191558,170L10.810363232876771,170L10.915742009223846,170L11.02112119372688,170L11.126501113228937,170L11.231881354644393,170L11.337261927047914,170L11.442642934849117,170L11.548024400754608,170L11.653406687928282,170L11.758789178991524,169.9964519091957L11.75878941504805,169.996451901248L11.864172019218756,169.99747915504062L11.969555585392513,169.9999999733961L12.074939341850493,170L12.180323660831249,170L12.285708782939723,170L12.39109391375934,170L12.496479502700982,170L12.601865599704116,170L12.707252104907537,170L12.812639068246282,170L12.918026871038002,170L13.023414868675657,170L13.12880349696478,170L13.23419229286255,170L13.339581701253596,170L13.44497147245831,170L13.550361642806381,170L13.655752516447567,169.9926941836382L13.761143603106182,169.98519082012962L13.86653543845783,169.96698502981042L13.971927441435858,169.9567459766104L14.077319902589105,169.95449333488L14.077320075091952,169.95449333119265L14.18271282190871,169.9735521255833L14.288106371897516,169.98595884027367L14.393500380065975,169.99935473710448L14.498894850944772,169.99999998877266L14.604290034222378,170L14.709685244418091,170L14.815080912802323,170L14.920477039370644,170L15.025874745400422,170L15.131271788354649,170L15.236669289501831,170L15.342067248846401,170L15.447465666392793,169.99781830354996L15.55286454213657,169.9898671867129L15.658263876095466,169.97378206807372L15.763663668256184,169.95994706660372L15.86906391862759,169.95517464864986L15.869064086590885,169.95517464184195L15.974464627214115,169.96457245527665L16.07986588026718,169.9753431325016L16.185267587000254,169.98842244905765L16.29066986090648,169.9910450981481L16.290670500982827,169.99104511794468L16.39607257941361,169.98796323941937L16.396073228569062,169.98796324375135L16.5014757970051,169.9843432591725L16.60687925492667,169.97349535515536L16.712283416216724,169.97132034014646L16.712283783920164,169.9713203420115L16.81768779060844,169.96447605914054L16.817688158311874,169.96447603765205L16.923092623237437,169.96740749204488L17.028498100225217,169.97628479599322L17.133903849337653,169.98930245535578L17.239310238273752,169.99778881114312L17.34472789412122,170L17.450135017976542,170L17.555542600086888,170L17.660950640447815,170L26.622309278678138,170L26.727756738998426,170L26.833204657808697,170L26.938653035104505,170L27.044101870890287,169.99921696547432L27.14955116517935,169.99735719942137L27.255000917962818,169.9964891006547L27.360451129240694,169.99724097310968L27.46590179903071,169.99860740088548L27.57135371266591,169.99999973681227L27.676805299466913,170L27.782257344775623,169.9978099272073L27.887709848600906,169.99557131233493L27.99316281093833,169.99443389936908L28.098616231805625,169.9955176989525L28.204070111185064,169.9978581995981L28.309525388776507,169.99999952233443L28.41498018521126,170L28.520435440175884,170L28.62589115367482,169.99845460120997L28.731347325703627,169.99617347482766L28.836803956271176,169.9942103259403L28.942261045381898,169.99454106355842L29.04771859303579,169.99695347631317L29.153208280742533,170L29.258666745487204,170L29.364125668783917,170L29.469554717373367,170L29.57501455777859,170L29.680474856744723,170L29.78593561427176,170L29.891396830364137,169.99853213129367L29.99685850502185,169.9967617386494L30.10232063824934,169.9953608586465L30.207783230055462,169.99571209991393L30.31324628042693,169.99756650870756L30.418729609050647,170L30.524193576583823,170L30.62965800270007,170L30.73512288739939,170L46.032384502068496,170L46.13791636880042,170L46.243448694509965,170L46.348981479197136,170L46.45451472286636,169.99839517809556L46.560048425522076,169.99666261867486L46.66558258716428,169.99615469565165L46.7711172077974,169.9971820352433L46.87665228742145,169.99858424881455L46.98219868009712,170L47.087734677716305,170L47.19327113433528,170L47.29880804995405,170L48.037570631999465,170L48.143111219745094,170L48.24865226651268,170L48.35419377231108,170L48.459735737140306,169.99840731975786L48.56527816101365,169.99496716376487L48.67082104391338,169.9910791958299L48.776364385861655,169.9900823241843L48.88190818684963,169.99184054841731L48.9874526420823,169.99464780084227L49.09299736116738,169.996478265112L49.1985717285985,170L49.30411736578512,170L49.40966346202915,170L49.515210017335036,170L50.25402172985984,170L50.359571957731475,170L50.46512264468713,170L50.570673790726794,170L50.67622539585934,169.9970381186974L50.781777460075915,169.99489235434876L50.8873299833898,169.99404266084073L50.992882965800995,169.99492797362814L51.098436407313955,169.9965608927955L51.20399030791979,169.99806851681052L51.3095725359251,170L51.41512735474774,170L51.520682632680995,170L51.62623836972487,170L56.16554787599895,170L56.27112381662305,170L56.37670021648189,170L56.482277075571055,170L56.58785439389939,169.99901528363281L56.6934321714669,169.99738919949513L56.79901040827803,169.99661853174038L56.9045891043372,169.99737296614376L57.01016825964441,169.99871157037649L57.11577385857585,170L57.22135393238359,170L57.326934465452666,170L57.43251545777422,170L57.85481986931525,170L57.96040315797456,170L58.06598690590851,170L58.1715711131171,170L58.27715577960922,169.9984593175983L58.38274090538483,169.9963873175744L58.48832649043952,169.99510477820567L58.59391253478659,169.995547701409L58.69949903842603,169.99685067206212L58.80510854021665,170L58.91069596244085,170L59.016283843970726,170L59.121872184797404,170L74.12007604781158,170L74.2257300961793,170L74.33138460423838,170L74.43703957197997,170L74.54269499941732,169.9985028053628L74.64835088654162,169.99691663450815L74.75400723336614,169.99544083090223L74.85966403989089,169.9952643787438L74.96532130611585,169.99680677995624L75.07097903204107,169.99885451729008L75.17664289665065,170L75.28230154199403,170L75.3879606470465,170L75.4936159854972,170L75.59927600998115,170L75.70493649419194,170L75.81059743811625,170L75.91625884177182,169.9983659604241L76.02192070515422,169.99462458212903L76.12758302826788,169.99105893214096L76.2332458111172,169.98892847811086L76.3389090536978,169.9887050360733L76.33890930337299,169.98870503553792L76.44457275601854,169.9897221339541L76.55023716775457,169.99364738882656L76.65590178955998,169.99605416177792L76.65590237970129,169.99605417448672L76.76156687111437,169.99590166752202L76.7615674612557,169.99590166328986L76.86723300255909,169.99607244698356L76.8672361530058,169.99607247909233L76.97289900360703,169.99547914898994L77.07856546441727,169.99642613165932L77.18423238498535,169.99814409169778L77.28990050071376,169.9999999985648L77.39556834080642,169.99787142203144L77.50123664065696,169.99409294974228L77.60690540027865,169.99188561413604L77.71257461966707,169.99093527827415L77.71257470137894,169.99093527804996L77.8182442988355,169.99242178322012L77.92391451948697,169.99735481924827L78.02959143725822,170L78.13526249575786,170L78.2409340140464,170L78.34660599211495,170L78.980643208181,170L79.0863184048294,170L79.19199406128887,170L79.29767017755937,170L79.40334675364538,170L79.50902378954687,170L79.61470128526385,169.99827264297323L79.72037924080075,169.99433202734198L79.82605765616643,169.98916393635062L79.93173685366443,169.98675550325996L80.03741618868327,169.99211835099166L80.1430959835353,169.9975256457549L80.24877647427711,169.99999989127323L80.35445718880004,170L80.45647218058615,170L80.56215381479325,170L80.66783590884687,170L80.77351846274699,170L80.88286871224341,170L80.9885521858499,170L81.09423611930733,170L81.19992051262457,170L81.30560536580164,170L81.41129429686764,170L81.51698006977765,170L81.62266630255635,170L81.72835299520817,170L82.99662825646935,170L83.10232092769336,170L83.20801405883041,170L83.31370764988489,170L83.41940170084797,170L83.52509621173293,170L83.63079118253533,170L83.73648661325963,170L83.84218250391024,170L83.94787974877823,170L84.05357655928591,170L84.15927382972878,170L84.26497156010682,170L84.37066975042447,170L84.47636840068175,170L84.58206751088306,170L84.68776708103289,170L84.78979628459848,169.87609683110085L84.79346743797868,169.8716386213056L84.89549677464525,169.9826411244287L85.00014115152665,169.99951298146306L85.00486889165265,169.99996861948873L85.10281929021426,169.96647997033722L85.20852116013751,169.64921683113835L85.31422349002254,169.29414237028334L85.41992627986936,169.02843448712008L85.52562952969126,168.58531380232884L85.63133323947937,165.29692414890766L85.73703740924257,154.41896314490901L85.84274203897641,135.75193283575447L85.9484471286942,115.45577933996753L86.0541526783915,109.18109425583106L86.05657342672868,109.12729985914311L86.1598586880772,126.22731288653776L86.26556515774683,145.53246898424533L86.37127208740485,161.55376904925197L86.47697947705126,168.16873736367182L86.58268732669933,169.9361697408861L86.69614961660487,170L86.80185838624745,170L86.90756761589171,170L87.01327730554651,170L87.11898745520298,170L87.22469806487001,170L87.33040913455645,170L87.43612066425344,170L87.54183265396983,170L87.64754510371009,170L87.75325801347418,170L87.85897141049941,170L87.96468563072123,170L88.07039992057018,170L88.17611467046069,170L88.28182996209578,170L88.3875459725223,169.98829899589663L88.49326210252869,169.999874043942L88.59897869258107,169.9999999993131L88.70469585163309,170L88.81041368862944,169.99660549377043L88.91613165883317,169.99824687848144L89.02185017080363,169.99999995799533L89.1275691201357,170L89.23328878828576,170L89.33900859873116,170L89.44472886924032,170L89.55044965883621,170L89.65617129890147,170L89.76189294963288,170L89.86761506043692,170L89.97333764040152,170L90.0790606804476,170L90.18478443479874,170L90.29050900331616,170L90.39623341454976,170L90.50195828587367,170L90.6076836172968,170L90.71340940881471,170L90.8191363731454,169.99521842035415L90.92486308487061,169.98282116438958L91.03059025670832,169.96816117522386L91.13631788864966,169.94979054555836L91.24204598070352,169.9479488001584L91.34777453287433,169.96128974483577L91.45350354516208,169.97939612150012L91.55923305388758,169.9947203554736L91.6649637308996,169.99999998628584L91.77069412355591,170L91.87642497634246,170L91.98215628925482,169.9971807778395L92.08788824842777,169.98705878088435L92.19362048160947,169.98185189743285L92.29935317493474,169.9807208650838L92.29935332927938,169.9807208641546L92.40508632839908,169.9885049032442L92.51082009635164,169.99526595268392L92.61655446063861,169.99999911932574L92.72228899454247,170L92.82803417988532,170L92.93376963409841,170L93.03950554847279,170L93.14524192299957,170L93.35670747280781,170L93.46244522783172,170L93.5681834430302,170L93.67392211840324,170L93.77966125394641,169.99874173339865L93.88540084967305,169.99666615476642L93.99114090558311,169.99549901421557L94.09688142167661,169.9962828203298L94.20262239795356,169.99801301253473L94.30837713076066,170L94.41411902742222,170L94.5198613842805,170L94.62560420133555,170L101.39409710940882,170L101.49986984503273,170L101.60564304103072,170L101.71141669741162,170L101.81719081416661,169.99763691267037L101.92296539130896,169.99580456538726L102.02874042882979,169.99505760664456L102.13451592674244,169.9958005601714L102.24029188503802,169.99703397316654L102.34607620708837,170L102.45185308617197,170L102.55762374344512,170L102.66340154333007,170L102.76917980362451,170L102.87495852431522,170L102.9807377054243,169.99705262661573L103.08651734693849,169.9957316845096L103.19229744886664,169.9951060992013L103.29807801121318,169.99630974622158L103.40385903397814,169.9983811250013L103.50964476618783,170L103.61542670979844,170L103.72120911383631,170L103.82699197830587,170L104.67326950878002,170L104.77905651724124,170L104.8848439861519,170L104.99063191552972,170L105.09642030537027,169.99787335342614L105.20220915567353,169.99653042658926L105.30799846643954,169.99298046807755L105.30799894763169,169.99298045893593L105.413788237686,169.99338365330914L105.51957846939963,169.99509845451402L105.62536964277699,169.9959257061839L105.62538197673055,169.9959257958725L105.73116079544711,169.99494346855022L105.83695240859325,169.99523277658113L105.94274448221987,169.99675706199463L106.04853701634023,169.99829220848014L106.048537742668,169.99829222020497L106.15433073727326,169.99746952562236L106.26012419236784,169.99511159931896L106.36591810796062,169.99319619976032L106.47171248404716,169.98622459690358L106.57750732063633,169.9836971151262L106.57750757485105,169.98369711098076L106.68330261772813,169.9846132845177L106.68330287194284,169.9846132761378L106.78909862953726,169.98797971603133L106.89489484763874,169.99343868157067L106.89489526527721,169.99343869191213L107.00069152625171,169.9878006765578L107.0006919438902,169.98780065871716L107.10648908301467,169.99044001494642L107.21228668265505,169.99226223463447L107.31808474281137,169.99493647974862L107.4238833452088,169.99693087508822L107.5296931305315,170L107.63549257226218,170L107.7412924745221,170L107.84709283731125,170L108.79930845585527,170L108.90511342410514,170L109.01091885291969,170L109.11672474229894,170L109.22253109224287,169.99696753391822L109.32833790275593,169.9949473228632L109.43414517383812,169.99247093878017L109.5399529054983,169.99097235935946L109.53995310977798,169.9909723584197L109.64576109773203,169.99215839275388L109.75156995482787,169.996034974455L109.85737906822646,169.99798508620276L109.9631967997763,169.99999999922198L110.06900683434417,170L110.17481737036368,170L110.28062832611856,170L116.5242900206105,170L116.63012861683448,170L116.73596767382266,170L116.84180719156616,170L116.9476471700694,169.99634776853563L117.05348760933683,169.9822656054765L117.15932850937732,169.96180355195236L117.26516987017753,169.947390469912L117.26516992919167,169.9473904670401L117.37101169175524,169.95069192399112L117.47685397411044,169.9705209750778L117.58269671723868,169.9847427829765L117.68853998016296,169.99724992015257L117.79438776222561,169.99999999788557L117.90023188770847,170L118.00607647397324,170L118.11192152103321,170L120.54648478780406,170L120.65234089464522,170L120.75819746234808,170L120.86405449090822,170L120.96991198033005,169.9980528059454L121.07576993061805,169.99084548504766L121.18162834177662,169.98705470017777L121.28748721380578,169.98541504862501L121.39334654670994,169.9799624190292L121.39334685539924,169.97996240838046L121.49920644943828,169.9853485562273L121.60506690383704,169.98922591980374L121.60506736233145,169.98922593772542L121.7109276193751,169.98862973410016L121.81678879580147,169.98210697785615L121.81678925429588,169.9821069488118L121.92265088707101,169.98365823394423L122.0285129852696,169.9910630381143L122.13437554436534,169.99640142966686L122.24025436198293,169.9999999985734L122.34611784287304,170L122.4519817846603,170L122.55784618734918,170L127.85164526232043,170L127.95753317463107,170L128.06342154798077,170L128.1693103823739,170L128.27519967781498,169.99643918191404L128.38108943430393,169.99537272956422L128.48697965184965,169.99520566795354L128.59287033045217,169.9962664301558L128.69876147011144,169.998150351935L128.80466242683713,170L128.91055448862326,170L129.01644701147944,170L129.12233999539242,170L135.6886046701948,170L135.794526706873,170L135.9004492047897,170L136.00637216394497,170L136.1122955843521,169.99848271862757L136.2182194660066,169.99649805854855L136.3241438089129,169.9953913006671L136.32414413122086,169.99539130210206L136.43006861307106,169.99126201124633L136.53599387848547,169.9850416370411L136.64191960516058,169.97973040793235L136.6419200001013,169.97973039231564L136.74784611540878,169.98136700094344L136.8537727646097,169.98330776924973L136.85377324580188,169.9833077738106L136.95969994770854,169.9720642314783L137.06562751945305,169.94741077030864L137.17155596102648,169.93279534904173L137.17155609267337,169.93279533611693L137.27748445531452,169.93785291341814L137.38341341087656,169.9602590434169L137.48934292759154,169.9774856806592L137.59527280572377,169.99229007184994L137.70120402126727,169.99944070091925L137.72472341802046,169.9998618984721L137.80713482197405,169.99937799401988L137.91306608396815,169.99442303196275L138.0189978072584,169.99244010422694L138.1249299918448,169.9945250473018L138.2308626377318,169.99725541826055L138.33681192841016,170L138.44274549690277,170L138.54867952670486,170L138.65461401781198,170L142.68045607819911,170L142.78640856249424,170L142.89236150820523,170L142.99831491534093,170L143.10426878390138,169.99329458852299L143.21022311388208,169.98645803843652L143.31617790529194,169.97961268214289L143.42213315813098,169.97401424076406L143.42213319444735,169.97401423960983L143.5280888724036,169.98281420038757L143.63404504811865,169.99200168941638L143.74000175789567,169.99881080398376L143.84596823065905,169.99999999157706L143.95192579069266,170L144.05788381217312,170L144.16384336643836,170L151.47609217098736,170L151.58208296204168,170L151.68807421473795,170L151.79406592907617,170L151.9000581050519,169.99844604180305L152.0060507426829,169.99670572436412L152.11204384196466,169.99487834089206L152.21803740289727,169.99407617405146L152.32403142548512,169.99511323319211L152.43002590973265,169.99748739580923L152.5360218679592,169.99999998224467L152.64201727553052,170L152.7480131447704,170L152.85400947567882,170L152.96000626825577,169.9960223127686L153.06600352251456,169.99251487976397L153.17200123844637,169.99008982501726L153.1720012974605,169.99008982485867L153.27799941606,169.99168795768495L153.38399805535104,169.99591181103727L153.48999785088375,169.99963593903118L153.4899979053583,169.9996359391166L153.59599741355177,169.99398095095438L153.7019974379105,169.99029871577318L153.80799792395996,169.98867621331667L153.91399887171346,169.98954162820013L154.02000028116205,169.9923568096739L154.12600215230583,169.99593072373003L154.23200515701564,169.99743933772123L154.23200527050435,169.99743933898054L154.33800795157185,169.9925318101706L154.44401120784096,169.98649642064564L154.5500149258185,169.9860130741021L154.65601910551777,169.98981563858084L154.76202386042306,169.99339383880414L154.86802909519946,169.99658819955064L154.97403679364737,170L155.08004282022475,170L155.18604930853718,170L155.29205625858023,170L156.03411783755584,170L156.14012848154573,170L156.24613958728395,170L156.35215115478383,170L156.4581631840409,169.99802773390076L156.56417567506406,169.99616036929154L156.67018862784886,169.99546361375852L156.77620204240418,169.99632153882393L156.88221591873,169.99768137620956L157.0147290728228,170L157.1207438726985,170L157.226759134358,170L157.33277485779246,170L163.1613515216391,170L163.26739310914726,170L163.37343515858552,170L163.47947766996276,170L163.58552064327895,170L163.69156407853856,169.92987644550732L163.797607975746,169.6312123948386L163.9036523348968,169.06342044147678L164.00969715600436,167.68382781554567L164.11574243906415,164.62366178154383L164.22178818407625,161.228543476979L164.32783439104944,159.0657384625482L164.32886056054986,159.05679516061446L164.4338810599882,161.3688695192551L164.5399281908837,164.85023009034686L164.64597578374918,168.13563717697855L164.75202383858465,169.6984037529694L164.85807235539454,169.9959133571068L164.94063144903112,170L165.04668088979435,170L165.15273079253197,170L165.25878115725737,170L165.36483198397048,170L165.47088327266687,170L165.57693502335988,170L165.68298723604065,170L165.7890400332902,169.9959073362391L165.8950931699686,169.99808629247516L166.00114689575534,169.99999973193042L166.10720095644464,170L166.21325594671293,170L166.31931093141316,170L166.4253663781322,170L166.53142228686107,170L166.5925940404992,170L166.63747967900716,170L166.69865087327008,170L166.74353651177805,170L166.8047081680597,170L166.84959380656767,170L166.9107659248814,170L166.95565156338935,170L167.06170978223426,170L167.12288282460767,170L167.16776846311566,170L167.2289419675211,170L167.2738276060291,170L167.33500157247107,169.99904455746434L167.37988721097904,169.99834350821376L167.44106163946196,169.9968363984454L167.48594727796993,169.994939419165L167.54712216848932,169.9914053769024L167.59200780699732,169.98736306521877L167.6531831595665,169.9832944468344L167.69806902505192,169.9799172148123L167.7592446126935,169.97868890892775L167.8041305644303,169.9776995604355L167.86530652786584,169.9760391982101L167.9101926157891,169.97691678899218L167.9713689050924,169.97759163387616L168.01625586006946,169.98155883398246L168.0774317443732,169.9854393570092L168.12231869935027,169.98867068534372L168.18349504571265,169.99186182551813L168.22838200068972,169.99329181395444L168.2895588091152,169.99489013616127L168.3344457640923,169.99417224279065L168.4405099895579,169.9898815941586L168.5465746770867,169.98852702668722L168.546574754259,169.98852702665863L168.65263982668742,169.9910233845486L168.75870543836007,169.99459907965263L168.86477158928147,169.99800783926966L168.97085089939227,170L169.07691789729415,170L169.18298535728127,170L169.28905327935365,170L179.0492784706117,170L179.15538937832594,170L179.26150074838694,170L179.367612580777,170L179.4737248755139,169.997662128869L179.57983763259764,169.9952754338766L179.68595085202818,169.99306299072686L179.79206453380556,169.99239000697335L179.89817867794304,169.99466462329633L180.00429328443175,169.9975318383459L180.11040891618464,169.9957763441753L180.21652444740246,169.98948398516856L180.322640440976,169.97921400535643L180.4287568969185,169.97579245893095L180.42875698770948,169.9757924568546L180.53487381523,169.97778939802203L180.64099128670586,169.98296451298557L180.74710927502974,169.98663300541168L180.85322760316808,169.99292797670952L180.9593466660572,169.99665729839148L181.06546589625793,169.99875417287043L181.17159806352052,169.99939778933106L181.27090242777638,170L181.37702258275942,170L181.4831432001203,170L181.58926427988567,170L191.78590283188046,170L191.89206923927796,170L191.9982361093326,170L192.10440344204437,170L192.21057123742656,169.99779888973384L192.31673949547923,169.9964623417589L192.42290821619787,169.9958262994321L192.52907739959142,169.99581659101617L192.63524704566424,169.99661918475218L192.74141715441192,169.99809028348676L192.8475891104057,170L192.9537599629345,170L193.0599314597334,170L193.1661034192294,170L193.27227584140908,170L193.37844872629023,169.99839303690018L193.484622073864,169.99148619254592L193.5907958841348,169.98699420204548L193.6969701571159,169.9852657623762L193.69697033869787,169.98526576148694L193.80314489279854,169.9866688445887L193.90932013658698,169.9919765551795L194.01549593387674,169.9978125940169L194.12168575805245,169.99999968721266L194.22786234458084,170L194.33403939383288,170L194.44023209513816,170L205.6976578190851,170L205.8038848578241,170L205.91011235957492,170L206.016340324342,170L206.1225687521297,169.99774064518863L206.22879764293364,169.99649345253113L206.33502699676268,169.99336311500912L206.44125681361237,169.98971466402423L206.547487093496,169.98619230411782L206.6537178364092,169.98613719400376L206.75994904236072,169.98991572535203L206.8661807113418,169.9961229274389L206.97245128426326,169.99900877220955L207.07868387933,169.99995562616166L207.1849169374351,170L207.2911504585919,170L207.40236159125013,170L220.14880183306673,170L220.25509186618183,170L220.36138236267672,170L220.46767332255132,170L220.5739647458101,169.9984263916567L220.68025663245305,169.9964302727753L220.78654898248462,169.99541434495845L220.78654935018807,169.9954143469567L220.89284179591368,169.9942609470616L220.99913507273578,169.99358126626606L221.10542918065434,169.99465887042652L221.21172338427135,169.9948816286011L221.31801805129032,169.99682346246917L221.42431318171563,169.99880889245713L221.63051140691303,170L221.73680746415985,170L221.8431039848175,170L221.94940096889033,170L231.5244758867788,170L231.63081551665678,170L231.73715561020268,170L231.84349616742085,170L231.94983718831142,169.9980509083338L232.0561786728743,169.9958874003761L232.16252062110948,169.9946093890933L232.26886303303033,169.99543631164593L232.3752059086368,169.9975997522294L232.5069091547222,170L232.6132529576999,170L232.7195972243677,170L232.82594195472998,170L241.52243922050425,170L241.62169007710082,170L241.7280733034337,170L241.83445699369162,170L241.94084114786565,169.9996094025805L242.04722576596475,169.95678540588608L242.1536108479977,169.83291361055922L242.20111489103138,169.75636727354836" style="stroke: #1f77b4;"></path></g><g class="filename"><path class="profile line" d="M1.559777021791947,170L1.6588354655160176,170L1.7641678222301118,170L1.8695006367692084,170L1.9748339091288742,170L2.0801676393179758,170L2.185502362998814,170L2.2908370088467866,170L2.396172112528628,170L2.5015076740443383,170L2.606844451507399,170L2.6466095943864545,170L2.7121809287041465,170L2.7519460715832014,170L2.8175178637480616,170L2.8572830066271164,170L2.9228552566391452,170L2.9626203995181997,170L3.0281931073818296,169.99762228242645L3.067958250260885,169.996180367305L3.1335314159716825,169.9867088044384L3.173296558850738,169.98096502119063L3.2388707589446755,169.9651941998726L3.2786353253010585,169.95563068449738L3.344209983251031,169.93780850864658L3.3839745496074136,169.92331700531477L3.44954966541342,169.90939294265976L3.4893142317698027,169.89738268328878L3.5548898054407103,169.90033859652544L3.594654371797094,169.90309839762833L3.6602304033373354,169.91048251045717L3.699994969693718,169.922354369598L3.7655716497599014,169.93863296392354L3.8053360254552433,169.9517306976007L3.8709133722144298,169.96285551634085L3.9106775390905355,169.96922001842515L3.9731515181552846,169.97899091922037L4.078493947542544,169.9956076420735L4.1838368348035715,169.9996214405912L4.289180179947231,170L4.405523336471252,170L4.502973957907307,170L4.6083186767166,170L4.71366385341296,170L4.8190094880052525,170L4.9243555804934775,170L5.029702130886503,170L5.135049139179893,170L5.2403966053736495,170L5.345744529481072,170L5.45109291150216,170L5.556444965432888,170L5.661794263276873,170L5.76714401904339,170L5.87249423273244,170L7.136732515822974,170L7.242088682731027,170L7.347445307597077,170L7.452802390425558,170L7.558159931216468,170L7.663517929974242,170L7.7688763867033135,170L7.874235301399246,170L7.979594674075344,170L8.084267475823511,170L8.187205865342762,170L8.292566611954914,170L8.397927816551661,170L8.50328947913744,170L8.608651599716678,169.6988121826465L8.714014178289379,168.01982943536265L8.819377214851109,167.2776614764697L8.924740709419602,162.9429708008102L9.030104661981555,147.01661913752974L9.135469072550272,104.04276640892583L9.240833941125748,55.40587622375347L9.346199267712421,15.93524689304752L9.348674556456237,15.454545454545467L9.451565052305856,39.77214333203739L9.556931294919352,89.66716817636743L9.66229799554404,136.95226407615962L9.767665154193226,161.138781660863L9.873032770862471,169.5698452420258L9.980876134300027,170L10.086882137669862,170L10.19225112842589,170L10.29762057720641,170L10.40299048402916,170L10.508360848885271,170L10.613731671788042,170L10.719102952733039,170L10.824474691720262,170L10.92984688875858,170L11.035219543852424,170L11.140592656992927,170L11.245966768399674,170L11.351340797660095,170L11.456715284984911,170L11.562090230369686,170L11.667466078703482,170L11.772841940225911,170L11.878218259821596,170L11.983595105588202,170L12.088972867931343,170L12.194350561760105,170L12.299728713675425,170L12.405107323677305,170L12.510486491635811,170L12.615866017815241,170L12.721246451509838,170L12.826626893880116,170L12.932008330016988,170L13.037389688586982,170L13.142771505270135,170L13.248153780053144,170L13.353536576502993,170L13.458920067122524,170L13.564304447112331,170L13.669688554352401,170L13.775073119710065,170L13.880458143194186,170L13.985843624804762,170L14.091229564541795,170L14.196616575253211,170L14.302003431256459,170L14.407390745395029,170L14.512778517677788,170L14.61816674809587,170L14.723555713570606,170L14.828944860285933,170L14.934334465149885,170L15.039724877712132,170L15.14511539887776,170L15.25050712269128,169.9818124239486L15.355898560180753,169.9619524493395L15.461290455827715,169.9431109335065L15.461290759977471,169.94311095002553L15.566682809649897,169.92953508674537L15.672075621634002,169.927763430965L15.672075925783759,169.92776341698L15.77746889179333,169.94071996326977L15.88286262011901,169.96990469532963L15.988257110774104,169.9923998907034L16.093652372837706,169.9999999725031L16.19904747570235,170L16.30444303675552,170L16.409839055992773,170L16.515235533418544,170L16.62063285036379,170L16.726030244175476,170L16.831430361423728,170L16.936828671639056,170L17.04222744004733,170L17.14762666667073,170L17.67462967295246,170L17.780031648857708,170L17.885434082995815,170L17.99083697535347,170L18.09624032594398,169.991760812037L18.20164413476291,169.97141655973314L18.307048401823558,169.94972348130824L18.412453127117058,169.94098509561837L18.517858310652276,169.9501849207208L18.623263952429216,169.9505284548427L18.623264306514006,169.950528451141L18.728670111462,169.958521266487L18.72867040653266,169.95852125868666L18.834076964806336,169.9608328684838L18.834077169086026,169.96083286102632L18.939483981326166,169.97735298103663L19.044891660380696,169.98778285626926L19.15029969782018,169.99569682939244L19.255741881509266,170L19.361150731058032,170L19.466560038870682,170L19.571969804956087,170L38.65867979679495,170L38.76417301166003,170L38.8696666852722,170L38.97516081764476,170L39.080655408773296,169.9928613711501L39.18615045866666,169.9886211766191L39.29164596732043,169.9875164622015L39.39714193473902,169.99096366645904L39.50263836092687,169.99609307777118L39.60814981329988,170L39.71364715703513,170L39.81914495954852,170L39.92464322084003,170L45.41117895307496,170L45.51670153349525,170L45.622224572835535,170L45.72774807110911,170L45.83327202830711,169.9962781435909L45.9387964444384,169.99272821260254L46.04432131950298,169.99086674049124L46.149846653505286,169.99257824944215L46.255372446445314,169.9965229158601L46.36090509001193,170L46.4664318008407,170L46.57195897061607,170L46.67748659933802,170L48.049384419740434,170L48.1549184740427,170L48.260452987335896,170L48.36598795962445,170L48.47152339090392,169.996640706884L48.577059281183175,169.99360990617353L48.68259563045778,169.99228098888543L48.78813243874105,169.99373504440655L48.89366970602853,169.99649824572882L48.99921185838456,170L49.10475004369379,170L49.21028868801611,170L49.31582779135594,170L50.054612510727324,170L50.16015528629599,170L50.26569852089991,170L50.37124221455238,170L50.47678636724897,169.9961997674026L50.582330978994115,169.99228456388167L50.68787604978781,169.97862811376322L50.79342157963449,169.96751552416222L50.89896756853859,169.95976541975747L51.00451401650011,169.9574978936905L51.00451429341257,169.95749788721838L51.11006120044038,169.96103173025836L51.21560856653447,169.97040579660674L51.32115639169041,169.98574463225367L51.42670494828999,169.9965606229687L51.53225499898179,169.9999989656219L51.63780420135433,170L51.74335386280644,170L51.84890398333813,170L51.954454562953856,169.996285176664L52.06000560165802,169.99403028807046L52.16555709944178,169.99280737367658L52.271109056327276,169.99257959989396L52.27110944218891,169.9925796030428L52.376661472296796,169.98699581903534L52.48221434736807,169.98584105883577L52.58776806740272,169.9899179616897L52.69332186067306,169.99200255649873L52.79887611304959,169.99494082581396L52.904460944437254,169.9999999112552L53.010017967166405,170L53.115573596870334,170L53.22112968568489,170L61.56149170907787,170L61.667084535727774,170L61.772677821705514,170L61.87827156701553,170L61.98386577166225,169.99487485481905L62.08946043565012,169.99235920240153L62.19505555897913,169.99224310110853L62.3006511416537,169.99466216077874L62.40624718366942,169.9976804204327L62.511846921737735,170L62.617443882453465,170L62.72304130252808,170L62.82863918196156,170L64.09584956598887,170L64.20145341730937,170L64.30705772802419,170L64.41266249813336,170L64.51826772765018,169.99724276271886L64.62387341656576,169.99412627011546L64.72947956488453,169.99257859902076L64.83508617261539,169.99344793919897L64.94069323974945,169.99539042902836L65.04631739921052,170L65.15192538517758,170L65.25753383056559,170L65.36314273537454,170L76.13766315354134,170L76.2433193930215,170L76.34897609220188,170L76.45463325107805,170L76.56029086965889,169.99597589199692L76.66594894795324,169.99373694618683L76.77160748595227,169.99305164975016L76.8772664836648,169.99434267199115L76.98292594108644,169.99700661328748L77.08754034117393,170L77.19320071803592,170L77.2988615546203,170L77.40452285093151,170L77.51123137240194,169.99724749505583L77.61689358817122,169.99232057184588L77.72255626367621,169.9885631732293L77.82821939891244,169.989706977441L77.9338829938888,169.9922083163603L78.0395474980206,169.97902820019397L78.14521201248165,169.9644026602218L78.25087698669168,169.95991764747774L78.25087714103633,169.95991764128325L78.3565424206507,169.9768192909349L78.46220846870337,169.9885995621949L78.56787502644893,169.9919618342929L78.67354183966822,169.9936654819005L78.77921071057092,169.99975502818603L78.88487844331479,170L78.9905466358254,170L79.09621528810273,170L79.20188440014678,170L79.30755397196641,170L79.41322400356164,169.99550848905207L79.51889449493689,169.99099860796082L79.6245654460966,169.9879465371799L79.73023685703633,169.98770496200996L79.83590872776495,169.99003832766672L79.94158105828245,169.99387828135963L80.04725632264282,170L80.15292957274698,170L80.25860328264446,170L80.36427745234411,170L80.99833212649001,170L81.10400951486707,170L81.20968736305961,170L81.3153656710765,170L81.42104443892218,169.99382371377615L81.52672366660107,169.98752052749163L81.63240335410433,169.97321248869943L81.63240368549138,169.97321249474868L81.73808350144523,169.97158892596178L81.84376410862379,169.9772905774005L81.94944517564444,169.97650144111708L81.94944550703148,169.97650143889095L82.05512703388979,169.99081423970202L82.16080902059461,169.99546963857088L82.26649554366946,169.99962924792553L82.37217845007176,170L82.48728181093001,170L82.5929656370431,170L84.59162571478487,170L84.69731873857755,170L84.80301222228324,170L84.90870616590196,170L85.01440056943811,170L85.12009543289615,170L85.22579075627608,170L85.33148653958233,170L85.4371827828149,170L85.54288057546987,170L85.64857773856392,170L85.7542753615976,170L85.8599734445709,170L85.96567198748382,170L86.07137099034077,170L86.17707045314178,170L86.2827703758957,170L86.38687567470905,170L86.4925765173688,170L86.59827781998148,170L86.70397958256036,170L86.80968180510104,170L86.91538448760792,169.9378913509138L87.02108763007658,169.4822293506556L87.12679123252033,168.9359497683249L87.23249529493917,166.1610915698115L87.33819981732866,157.417129911605L87.44390479970207,139.3102070879121L87.54961024205501,119.53057221951741L87.65531614439192,108.85992731845968L87.65585408544047,108.841931510504L87.76102250671275,123.02022852621582L87.8667293290264,142.34175476315633L87.97243661133287,159.87450524803083L88.07814435363215,167.604114053148L88.18385255592425,169.9194030957047L88.29116013803008,170L88.3968692603344,170L88.50257884263597,170L88.60828888494808,170L88.71399938727075,170L88.81971034961282,170L88.92542177196101,170L89.03113365433305,170L89.1368459967245,170L89.24255879914422,170L89.3482720615878,170L89.45398578405967,170L89.55970045229593,170L89.66541509483764,170L89.77113019741206,170L89.86244495001552,170L89.96816097267309,170L90.07387745537669,170L90.17959439813072,170L90.29971363689462,170L90.40543149975399,170L90.51114982266823,170L90.61686860564178,170L90.72258845243461,170L90.82830815553122,170L90.93402831869601,170L91.03974894192898,170L91.14547002523456,170L91.25119187730647,170L91.35691388076614,170L91.46263634430285,170L91.5320122377458,170L91.63773562145433,170L91.74345946524434,170L91.84918376913356,170L91.90778870998528,170L91.95490853311313,170L92.00860443334689,170L92.06063375718746,170L92.11432965742124,170L92.16635944136101,170L92.22005534159479,169.9997291388342L92.2720855856382,169.997498672736L92.32578148587197,169.98497521517587L92.37781219001903,169.9629372254004L92.4315080902528,169.9241619224188L92.48353925450351,169.87196513168996L92.53723515473729,169.80455244296923L92.58926677910492,169.71868207526447L92.64296267933871,169.62811345407425L92.69499476380999,169.53769085820048L92.74869066404376,169.47185325338796L92.800723208632,169.43003713935445L92.82266749040298,169.4220511727423L92.85441910886577,169.43440896734455L92.90645211357094,169.5013861619021L92.96014801380471,169.57836570034428L93.01218147863126,169.67040950411226L93.06587737886504,169.76223762159086L93.11791130381738,169.84888179268884L93.17160720405117,169.91888270840863L93.2236415891249,169.9611992025835L93.27733748935869,169.9898663333004L93.35441137868862,169.99916216725615L93.46014258425662,170L93.56587424995928,169.9925311229328L93.6716063757922,169.9818767669513L93.78865023445995,169.97793421835968L93.89438328057551,169.98379727912965L94.00011678683903,169.99075738842805L94.1058507532461,169.9982553053164L94.21159733217719,170L94.31733221888908,170L94.42306756575782,170L94.52880337277894,170L102.67184239622087,170L102.77761410376115,170L102.88338627166664,170L102.98915889994619,170L103.09493198859981,169.99652156328779L103.20070553762748,169.992364888355L103.30647954703367,169.97899213117563L103.41225401682279,169.964469264751L103.51802894699927,169.95844920199877L103.62380433756312,169.95536931455908L103.62380470980611,169.95536930627145L103.72958018851432,169.96645678775644L103.83535668143927,169.98685241208034L103.94113364383954,169.99207000335753L104.04691087597945,169.99641201644206L104.15269342583258,169.99999999953806L104.25847157877381,170L104.3642502057388,170L104.47002927949909,170L106.90307504118284,170L107.00886516554768,170L107.11465575038854,170L107.22044679570541,170L107.32623830150276,169.99040106965018L107.432030267785,169.98207933484417L107.53782269455213,169.96984761034292L107.53782270817078,169.96984760996546L107.64361558180859,169.97002636153658L107.74940892955881,169.979785773231L107.85520273779836,169.99488947237947L107.96099831393053,170L108.06679304316204,170L108.17258823290503,170L108.27838388315065,170L108.38417999390333,169.9962037530227L108.48997656516751,169.99333656903124L108.59577359694316,169.99115161978588L108.70157108923478,169.9913977679528L108.80736904204228,169.99392886059664L108.9131674553746,169.99688574209443L109.01897696538964,170L109.12477629977155,170L109.23057609467823,170L109.33637635012302,170L115.89689096333338,170L116.00272023764754,170L116.10854997266823,170L116.21438016839105,170L116.32021082482484,169.997652643929L116.4260419419652,169.99441051386768L116.5318735198254,169.9919107275929L116.53187406003168,169.99191072854265L116.63770555839659,169.9863100293507L116.74353805769205,169.98576802197823L116.74353871138706,169.98576803414326L116.8493715579048,169.9839825410624L116.9552049786444,169.9775268615083L117.0610388601083,169.97084309602155L117.06103907346709,169.97084309002025L117.16687320229647,169.97146464496876L117.27270800522224,169.9802242373615L117.37854326888116,169.99298705811242L117.45763061106624,169.99846074762144L117.50756528703374,170L117.56346679620918,170L117.61340147217668,170L117.66930344208528,170L117.71923811805279,170L117.77514054871226,170L117.82507522467976,170L118.01567663765864,170L118.0926546330852,170L118.14258930905271,170L118.19849358271573,170L118.24842825868322,170L118.3043329931104,170L118.35426766907791,169.9986782980948L118.41017286426487,169.99479629386036L118.46010754023237,169.98595258588148L118.5160131961835,169.9690367337696L118.565947872151,169.9461660585302L118.62185398887074,169.90918588171323L118.67178866483825,169.86764791615272L118.72769524232217,169.81081617988323L118.77762991828966,169.76054563856852L118.83353695654664,169.70433753304908L118.88347163251414,169.67359553271555L118.9393791315486,169.665196434319L118.95478731052991,169.66444338452044L118.98931380751611,169.68092497865035L119.04522176733248,169.73177859179546L119.09515644329997,169.77936953337957L119.1510648638894,169.8358065062105L119.2009995398569,169.88229468513862L119.25690842123267,169.92984501086804L119.30684309720017,169.96256325997032L119.37816061833917,169.99137464651525L119.49535290422915,169.99999975485554L119.60119784393589,170L119.70704324443786,170L119.81288910573504,170L122.45918540474425,170L122.56504324768346,170L122.6709015514888,170L122.77676031616915,170L122.88261954171564,169.99597460788627L122.98847922814159,169.99166491749332L123.0943393754514,169.989105697404L123.20019998364067,169.9899861520006L123.30606105271382,169.99312553079392L123.41192258267527,169.99634539566716L123.51778561308167,170L123.62364806482418,170L123.72951097745943,169.99689086611698L123.8353743509963,169.99396332892533L123.94123818543035,169.99220505580922L124.04710248077043,169.99315466698872L124.15296723702099,169.9960118516388L124.25885110263881,170L124.36471678070589,170L124.47058291967902,170L124.57644951958035,170L129.23502500954305,170L129.34091235345255,170L129.44680015840999,170L129.55268842440643,170L129.65857715144637,169.9982873811219L129.76446633953418,169.99388995982943L129.87035598867433,169.99090022672823L129.97624609886682,169.9916870639337L130.08213667011609,169.99505830785154L130.0821372375597,169.9950583343299L130.18802826986573,169.9937212828637L130.1880390104377,169.99372132391306L130.29391976322853,169.989185303176L130.39981171766584,169.98870262419163L130.50570413315992,169.99162155460067L130.61159700973295,169.9952310105848L130.7175008110267,170L130.8233946097399,170L130.92928886953197,170L131.035183590403,170L138.13118036895548,170L138.23710644953806,170L138.3430329913858,170L138.44895999450304,170L138.55488745888985,169.9914252646017L138.66081538454185,169.97441042789796L138.76674377147665,169.9545155755689L138.87267261968546,169.95003475552093L138.97860192917713,169.94831230164857L138.978602151615,169.9483122986359L139.0845316999561,169.95836711783912L139.19046215445582,169.98042511625835L139.29639284780052,169.99216650426L139.40232400244582,169.997870029623L139.5082607299101,169.99962308786152L139.61419533113232,170L139.72012786966164,170L139.8488370649712,170L142.15670086150254,170L142.26264447202195,170L142.36858854391286,170L142.4745330771709,170L142.58047807180043,169.99695878584595L142.6864235278015,169.99264135898173L142.79236944518297,169.9859572957998L142.89831582394038,169.97242926527682L143.0042626640871,169.9675487460279L143.00426285928765,169.9675487431125L143.11020996561413,169.9757622352895L143.216157728526,169.98978244829914L143.31320004622592,169.99662911437406L143.4191487319252,169.99975448768384L143.52509787901815,170L143.63104748751368,170L143.74590616504886,170L144.1608024510518,170L144.26675482799814,170L144.37270766635143,170L144.4786609661295,170L144.58461472733225,169.99053463376976L144.69056894995975,169.96368497887858L144.79652363401195,169.9235861893327L144.90247877949776,169.8803055213455L145.00843438641712,169.85037961377168L145.01734288056994,169.84959433693854L145.11439045477454,169.87488833066956L145.22034698456554,169.9239565307508L145.3263039758034,169.97037397141685L145.4322614284793,169.99441308016017L145.54713252157796,169.99999985585478L145.65309089714765,170L145.75904973417752,170L145.86500909167285,170L147.98429191194543,170L148.09026090159597,170L148.1962303527643,170L148.30220026544603,170L148.40817063964997,169.99576794634876L148.5141414753718,169.98136632655732L148.62011277262027,169.96678481948987L148.7260845313954,169.95663159695408L148.83205675170169,169.95581502056848L148.9380294335391,169.96884977090772L149.04400257691205,169.98506031703334L149.14997624083466,169.99907728320161L149.2559575569467,170L149.36193208494404,170L149.4679070744814,170L149.5738825255764,170L153.70728495026637,170L153.81327886549653,170L153.91927324239086,170L154.02526808094038,170L154.13126338115404,169.99730923596795L154.2372591430407,169.9937563644601L154.34325536659145,169.98989315924646L154.44925205181517,169.97551910262746L154.5552491987119,169.98265933114286L154.66124680728598,169.98586641992875L154.76724487754194,169.99069400105404L154.87324361375946,169.99751908327863L154.9792444050448,169.99885325037587L155.07035928744116,170L155.17635874275155,170L155.28235865975262,170L155.38835903844884,170L155.50924629399083,170L155.60036118092674,170L155.70636294472172,169.99844627903292L155.81236517021622,169.98208787876044L155.9183678574192,169.95873373893565L156.02437100633065,169.93282976971133L156.13037461695495,169.9131188805196L156.14526392492402,169.91157443340143L156.23637868929214,169.9211498534681L156.34238322334662,169.94012278163243L156.44838821912728,169.96366389680375L156.55439367662527,169.97941390714183L156.5999744679448,169.98517069759012L156.66039959584944,169.99010739894152L156.67529392254218,169.99260531242777L156.70598084889514,169.99211107337806L156.78129869973296,169.99089801532844L156.78129912191096,169.99089801338073L156.88730600415337,169.99127104679388L156.99331419248242,169.9927309707706L157.09932242037735,169.9935793613648L157.20533111001177,169.99578319936577L157.31134205905133,169.9991103632143L157.44569750791842,170L157.5517075827979,170L157.62937212933616,170L157.73538312771674,170L157.84139458785896,170L157.94740650975837,170L158.05341889342384,169.9972153377628L158.1594317388554,169.98918824643835L158.26544504605306,169.97117766011496L158.3714588150212,169.96282731844784L158.4774730457643,169.96793094172347L158.47747320010896,169.96793094016695L158.58348773828675,169.97536156598866L158.68950289257975,169.98468800917382L158.79551850866096,169.9942891602173L158.92838458199768,169.99981530366293L159.03440112165094,170L159.14041812309245,170L159.24643558632664,170L164.8611437481844,170L164.96718615220837,170L165.07322901816693,170L165.1792723460644,170L165.28531613590977,170L165.39136038770735,169.7537876736014L165.4974051014528,169.18472876785495L165.60345027715496,167.9579494839839L165.70949591480934,165.1969762622482L165.8155420144249,161.99311272416736L165.92158857600157,159.53793396111905L165.9279628558,159.47692687188882L166.02763559953937,161.137784700811L166.13368308505164,164.47401802442033L166.23973103252501,167.70222262884002L166.3457794419728,169.48346189152943L166.4518283133995,169.97676963874906L166.5359183294772,170L166.64196812486162,170L166.74801838222493,170L166.8540691015759,170L167.27827659889718,170L167.3843296282179,170L167.49038311953964,170L167.59643707286685,170L167.7024914881995,170L167.80854636554653,170L167.91460170489898,170L168.0206575062747,170L168.12671376966023,170L168.23277049507342,170L168.3388276825054,170L168.444885331965,170L168.55094344345665,169.99767379066205L168.65700201697595,169.98932985764148L168.7630613249002,169.9731244226826L168.86912134908013,169.94872616579246L168.97518130870893,169.9240449896451L169.08124173038308,169.91699376263736L169.11084185534438,169.9111971588788L169.18730261409814,169.91760531136913L169.29336395986303,169.93909442516647L169.39942579037546,169.96142307468048L169.46358682151168,169.9787982817274L169.50548856413425,169.98742767688336L169.56964909138063,169.99254069974032L169.61155129605737,169.99587986022505L169.67571182330374,169.99837271698308L169.71761643296153,170L169.78177501728112,170L169.82368008900644,170L169.92974420711442,170L170.0358087872811,170L170.24793933383472,170L170.35400530022167,170L170.46007172868508,170L170.56613861922926,170L170.67220597185428,169.9958196794375L170.778273786569,169.9892982536946L170.88434206336458,169.96561365334694L170.99041080224984,169.95561655648768L171.09648000323807,169.95418951529226L171.09648018028048,169.95418951305203L171.202549666316,169.9636588732278L171.30861996853048,169.97992543118124L171.41469055580998,169.9914481711675L171.52077021217661,169.99999983628177L171.6268417236621,170L171.73291369725945,170L171.83898613296867,170L177.35538964660515,170L177.4614865780821,170L177.56758397182165,170L177.67368182781937,170L177.77978014607967,169.99472531575748L177.885878926607,169.99286590416062L177.9919781693969,169.99230949620224L178.09807787445828,169.99319671335746L178.20417804179553,169.99539096430166L178.31028314739916,170L178.41638423928822,170L178.52248579345755,170L178.6285878099161,170L180.85683694774357,170L180.9629491351228,170L181.06906178484,170L181.17517489691286,170L181.28128847132817,169.9977504265764L181.38740250810355,169.99335032437355L181.4935170072346,169.98712240169493L181.5996319687258,169.98443495653905L181.70574739257265,169.98850041180634L181.70574788738344,169.98850042874219L181.76989271687074,169.98537061059503L181.8118632787885,169.98332273961103L181.8760086030866,169.97473748598668L181.91798012217973,169.96911998003768L181.98212495166703,169.96391306453705L182.02409693313354,169.96050600648923L182.02409699214766,169.96050600625995L182.08824176262084,169.96588551757563L182.13021420645188,169.96836775904654L182.19435903593921,169.9730297480671L182.236331942157,169.9687687863914L182.3004767716443,169.96088424858775L182.3424501992452,169.9578503876816L182.40659496971836,169.95046523444395L182.4485691729304,169.94776150276041L182.51271363017474,169.94228353198216L182.55468829576904,169.94845182316027L182.61883275301338,169.95829960024463L182.66080788099438,169.96582664981915L182.72495233823875,169.9793905972578L182.76692931317322,169.9874076303803L182.83107238585524,169.99639633296476L182.8730498231809,169.99999881684002L182.9791707955797,170L183.08529223037408,169.9976642197063L183.19141412756852,169.9942683680603L183.29753648716294,169.991280202913L183.40365930916624,169.9905208497345L183.50978259357402,169.9921955008628L183.61590634039507,169.99511359034446L183.72203367283447,170L183.82815834448215,170L183.9342834785432,170L184.0404090750308,170L185.20782115691048,170L185.3139523026549,170L185.42008391085258,170L185.5262159815123,170L185.6323485146297,169.99729431193046L185.73848151020917,169.99408483081388L185.84461496825958,169.99188579179398L185.9507488887765,169.99205033910692L186.05688327176438,169.99400723345275L186.16301811722764,169.99651315976968L186.26916513266653,170L186.3753009030894,170L186.4814371359921,170L186.58757383137902,170L193.80595321108214,170L193.91212182444312,170L194.01829090047457,170L194.12446043918087,170L194.23063044056647,169.99663227579944L194.3368009046358,169.99296674153123L194.44297183138445,169.99137635096238L194.54914322082126,169.9923165017089L194.65531507295069,169.99458486210438L194.76148830021756,169.99999997684762L194.86766107773218,170L194.97383431794384,169.99144470120905L195.08000802085698,169.97202200203867L195.1861821864716,169.93960667698244L195.2923568147877,169.92411879935497L195.29235709623967,169.92411878428314L195.39853190581854,169.92583958182306L195.39853203746543,169.92583957855436L195.5047074595597,169.92856622951962L195.61088360765817,169.9457959664037L195.71706023663398,169.97736373048852L195.82323735102233,169.99562085163944L195.9294222095747,170L196.0356000769119,170L196.1417784069683,170L196.2479571997661,170L200.9202822259184,170L201.02648184433426,170L201.13268192560673,170L201.23888246972697,170L201.34508347671718,169.99674245364363L201.45128494655955,169.99310988275917L201.55748687927186,169.99153121125244L201.66368927484967,169.9934098460371L201.76989213329298,169.99680242061095L201.87612023147133,170L201.98232401566338,170L202.0885282627342,170L202.19473297268829,170L207.39931412569837,170L207.5055419830989,170L207.61177030352007,170L207.7179990869619,170L207.82422833341997,169.99232891932235L207.930458042912,169.9814673439812L208.03668821542908,169.9787386244639L208.03668872385856,169.97873863443456L208.14291885097575,169.97700829650736L208.2491499495563,169.9810478114502L208.2491504579858,169.9810478201615L208.35538158834763,169.97560411582975L208.3553823600709,169.9756041312867L208.46161404426215,169.97359804208781L208.46163045019077,169.97359850849543L208.56784653196235,169.9721904476873L208.67407948270534,169.97762152527554L208.6740798231715,169.97762152224834L208.78031289649562,169.98215642972067L208.88654711380372,169.99189559260236L208.9927814536974,169.99654915758046L209.09903144143723,169.9999999739037L209.20526670744314,170L209.3115032400097,170L209.41773943214116,170L220.25626318795707,170L220.36254709003055,170L220.4688314554483,170L220.57511628421037,170L220.68140157632112,169.99625539583897L220.78768733178504,169.99434718258502L220.89397355060206,169.993278529896L221.00026023278113,169.99395368067715L221.1065473783133,169.99635601752504L221.10654806378517,169.99635603050731L221.21283567267935,169.9922437849893L221.29895122283617,169.98634437750871L221.4052392951012,169.9647503009923L221.51152783072834,169.95223455687L221.5317013976022,169.95039082212742L221.6178168297307,169.95717823817046L221.74428066769138,169.97527737842356L221.85057125201587,169.98991603895595L221.9378603344997,169.99669254420454L222.04415118700777,169.9988448391107L222.14861956544812,170L222.25491134472455,170L222.36120358738958,170L222.46749629345211,170L238.22484467878783,170L238.33120692413834,170L238.43756963328534,170L238.54393280623322,170L238.65029644298642,169.99487216724424L238.75666054354937,169.99242489470294L238.86302510791765,169.99208164487013L238.96939013610015,169.99424028181298L239.0757556280968,169.99729463848655L239.18212820711352,170L239.288494626743,170L239.3948615102044,170L239.50122885748885,170L243.11799466070755,170L243.20343277402688,170L243.30981635691379,170L243.41620040372132,170L243.5225849144539,170L243.62896988911146,169.99352081238385L243.7353553277029,169.92332016067095L243.76089191282333,169.8931300189449" style="stroke: #ff7f0e;"></path></g><g class="filename"><path class="profile line" d="M3.1195540435883276,169.99536839357881L3.183684304852914,169.99734692982045L3.2922760177889905,170L3.397608491281199,170L3.5029414225984103,170L3.608274811731757,170L3.815683182316036,170L3.9210179354950743,170L4.026353146503548,170L4.131688815350324,170L4.237024942035401,169.9980243487251L4.342361526563214,169.97625853140707L4.447698568942627,169.9468153962325L4.553036069160343,169.90127329628578L4.658374027234094,169.88582635779377L4.763712443150579,169.91641861727024L4.869051316927532,169.9605160812703L4.974390648569386,169.98827201841712L5.079730547012008,169.99872877907794L5.185071093985004,169.99999998926288L5.290411799203828,170L5.395752962296419,170L5.501095109854847,170L5.606437188690539,170L5.711779725404432,170L5.817123083164844,170L5.92246653563957,170L6.02781044599693,170L6.133155517871389,170L6.238500344007314,170L6.34384562803474,170L6.449191369958097,170L6.554537569777389,170L6.659884227501478,170L6.765231343121502,170L6.870579234419159,170L6.9759272658576466,170L7.081276585947194,170L7.186625533208579,170L7.291974938388063,170L7.397324801485646,170L7.502675122501328,170L7.608025901443974,169.99396354726542L7.611286009067645,169.99377078297675L7.713377138313586,169.99894878240752L7.818728833114595,169.99997257076848L7.924081485188482,170L8.029434095861154,170L8.134787164460791,170L8.240140691005127,170L8.345495574320347,170L8.450850016749644,170L8.55620491712807,170L8.661560275460063,170L8.766916091741184,170L8.872272365980304,170L8.977629098177418,170L9.082986288336965,170L9.18834437226004,170L9.293702478348878,170L9.399061042404583,170L9.504420064436015,170L9.609779903067517,170L9.715139841045975,170L9.820500237013462,170L9.920484415549105,169.98990654543L10.025845727476918,169.60225937954016L10.13120749739376,168.66243902188305L10.23656972529963,167.7084694380129L10.341932411203398,167.32494115899058L10.445989581443204,162.04716857274232L10.551353183338328,142.9763103542652L10.656717243235782,99.48232354046596L10.762081761135562,49.23714738468101L10.867446737042105,15.865406670965825L10.870841545401316,15.454545454545467L10.972812170955411,42.9163724456638L11.078178062884344,92.1920869669519L11.183544412828905,137.6187830307091L11.28891122078466,160.84676808676784L11.394278486764911,169.07637510448617L11.50348432193357,169.9871989783439L11.611699974403422,170L11.717068614457157,170L11.822437712539816,170L11.92780726866027,170L12.033177282814085,170L12.13854775500126,170L12.243918685230664,170L12.349290073506726,170L12.45466191982945,170L12.560034224203264,170L12.665407013861032,170L12.770780679208364,170L12.876154357744326,170L12.981528494335814,170L13.086903088991697,170L13.192278532108716,170L13.297654042893383,170L13.403030011751309,170L13.508406488617528,170L13.613783754944052,169.97775369963998L13.719161098026188,169.98577010843906L13.824538899190449,169.9988092958579L13.929917262846454,169.9999999935882L14.035296343343285,170L14.140675518767221,170L14.246055152277716,170L14.35143524388807,170L14.45681590708256,170L14.562196914883762,170L14.667578471580228,170L14.772960767832997,170L14.878343240738044,170L14.983726080965278,170L15.089109379305667,170L15.194493439913405,170L15.299877795210548,170L15.405262812909404,170L15.510647943729023,170L15.616033532670665,170L15.72141958427831,170L15.826806888442288,170L15.932193851781031,170L16.037581273250666,170L16.142969152860058,169.99732374560887L16.248357490618073,169.98624449932805L16.353746286515843,169.9777247063147L16.45913594912161,169.960982891147L16.564525661312192,169.9398004309535L16.669915831660266,169.92020254819104L16.66991598146537,169.92020251827907L16.775306501021763,169.92225795145205L16.880697587680377,169.94039518132877L16.986089236910534,169.97430341220252L17.091481916281303,169.9893140952392L17.19687437743455,169.99822516500174L17.302267296754156,170L17.407660674240113,170L17.513054509905725,170L17.618448803742126,170L17.72384656548334,170L17.82924177567905,170L17.93463744406328,170L18.0400335706316,170L18.14868956915275,170L18.25408662155846,170L18.359484132152694,170L18.46488210095318,170L18.570280527946615,170L18.67567941314631,170L18.781078756552255,170L18.88321847448868,170L18.988618724860082,170L19.094019433446604,169.99838817997073L19.19942060024825,169.99273121262928L19.304822225269447,169.98268668044884L19.410224308514632,169.97513512572252L19.41348529288739,169.97480739339298L19.515626849979366,169.9751192650908L19.518887843803608,169.975119949833L19.62102984967252,169.96893580240638L19.726433307594096,169.96069072565393L19.831837359934983,169.9574774588784L19.831837568754217,169.95747745274235L19.937241734326697,169.96013939014847L19.994876029424475,169.9645137314707L20.04264677577493,169.96575229296658L20.10028132029076,169.97389312188423L20.148052066641217,169.98064070288046L20.205687069403194,169.98629001420738L20.253457815753652,169.99097244986675L20.31109327675735,169.99509698488245L20.35886428186208,169.99851332415315L20.464281424740552,170L20.56968854859588,170L20.675096130706223,170L20.78050417106715,170L28.58523240797757,170L28.69067483456797,170L28.79611771961732,170L28.90156106312561,170L29.00700486510171,169.99745184556159L29.112449125545616,169.99560603863873L29.214632384912647,169.9943691120447L29.32007755283626,169.9936684637044L29.32333902183243,169.99364736072854L29.42552317923212,169.99388014512837L29.530969264109082,169.99555439878782L29.534230752012647,169.99554829567313L29.636415807462722,169.99601380254953L29.639677304822204,169.99602107808545L29.74186280929747,169.99585800209098L29.847310269617765,169.9938359873178L29.952758188428028,169.99370583087412L30.05820656572384,169.9994367356026L30.163656173232887,170L30.269105467521946,170L30.374555220305414,170L30.48000543158329,169.99583191884574L30.58545610137331,169.99119436358586L30.690907229666603,169.9923045353612L30.796358816467606,169.99408088088546L30.901810861776312,169.99730819561003L31.00727743820225,170L31.112730400539675,170L31.218183821406974,170L31.323637700786417,170L39.866921434840336,170L39.97241292205252,170L40.07790486801179,170L40.1833972727093,170L40.288890136158344,169.99748180706672L40.39438345835891,169.99491307453445L40.49987723931102,169.99356480252754L40.60537147901465,169.99416651083726L40.71086617748312,169.99593717422823L40.825129940400515,170L40.93062555639421,170L41.03612163115274,170L41.14161816468052,170L43.1373743565553,170L43.24288006602251,170L43.34838623431218,170L43.453892861428756,170L43.55939994738108,169.9976470184144L43.664907492155876,169.99580981663334L43.770415495775296,169.99456176414753L43.87592395823048,169.99521560493466L43.98143287953029,169.99724660971447L44.086951384158546,170L44.19246122314761,170L44.2979715209813,170L44.40348227766849,170L51.58255436703371,170L51.684832767506,170L51.79037565040573,170L51.89591899235402,170L52.00146279334198,169.9980456640127L52.107007053374076,169.99207199545026L52.21255177245915,169.98666768241984L52.318096950592775,169.98451747816972L52.42364258777939,169.98713638531277L52.52918868402342,169.99161187443167L52.6347352393293,169.99473919199332L52.74029711617472,169.99991473290083L52.845844589604305,170L52.951392522100186,170L53.05694091366677,170L65.51487499502673,170L65.62047803491178,170L65.72608153417787,170L65.83168549283829,170L65.93728991089748,169.99801626979252L66.04289478835102,169.99527076712312L66.14850012520776,169.99239757713195L66.25410592145883,169.98700999309207L66.35971217712199,169.98976516577372L66.4653188921972,169.9928194517811L66.46531916457012,169.9928194472946L66.57092633904854,169.99373534276788L66.67653397294347,169.99700962567348L66.72226338196893,170L66.78215540344426,170L66.82787193469687,170L66.8877639561722,170L66.93348094685018,170L67.03909041841999,170L77.13724267693081,170L77.24289627509854,170L77.34855033293991,170L77.45420485047265,170L77.55985982768787,169.99684411416922L77.6655152645989,169.9948530685135L77.77117116119683,169.9941427003153L77.87682751749942,169.99474700903198L77.98248433349339,169.99607519922765L78.08814160918757,169.99788658451453L78.19380113317301,170L78.29945932828538,170L78.40185100971738,170L78.50751011476984,170L78.55327765806496,170L78.61316967954028,170L78.65893768254892,170L78.71882970402424,170L78.76459816675971,169.99883592519012L78.82449018823502,169.99731263187084L78.87025911068402,169.9945816564042L78.93015113215932,169.9873188895873L78.97592051433958,169.98334577007353L79.0358125358149,169.97231125951447L79.08158237772197,169.9593019105283L79.1414743991973,169.93964715379244L79.18724470083563,169.9195255189434L79.24713672231096,169.89473988700743L79.29290748368497,169.8717812566037L79.35280007260387,169.85063558740404L79.39857072626558,169.8422101190286L79.45846331518447,169.84035182830422L79.5042344285863,169.85213959528434L79.5641270175052,169.87498543642724L79.60989859064715,169.89900708966206L79.66979117956605,169.92359370788702L79.71556321245257,169.9430923955098L79.77545580137146,169.9655896505098L79.83328639223397,169.9805702574526L79.88112088292586,169.99051262107776L79.98679011942181,169.99987724756747L80.09245612046975,170L80.19812258127999,170L80.30378950184809,170L80.41272345906232,170L82.20587269355336,170L82.31154835001281,170L82.41722446628333,170L82.52290104236933,170L82.62857807827082,169.99775031485217L82.7342555739878,169.9947614927894L82.8399335295247,169.99011492428167L82.94561194489039,169.980727881187L83.05129082008044,169.98803603873793L83.15697015509926,169.99643694580058L83.2626500316632,169.9999998345571L83.36833042707447,170L83.47401447816561,170L83.5796956525262,170L83.6853772867333,170L83.79105938078692,170L85.58772533857004,170L85.69341571029103,170L85.79910654190732,170L85.90479783342775,170L86.01048958484347,170L86.11618179616777,170L86.2218744673918,170L86.32756759852883,170L86.43326118958333,170L86.53895620747025,170L86.64465071835521,170L86.75034568915763,170L86.85604111988192,170L86.96173701053252,170L87.06743336110945,170L87.17313017161713,170L87.27882744205999,170L87.38452517243803,170L87.49022378039416,170L87.59592243065144,170L87.70162154085276,170L87.80732111100257,170L87.91302147702746,169.9709689638623L88.01872196707421,170L88.12135747113264,170L88.22323933894931,170L88.32894120887256,169.9928839460255L88.4346435387576,169.8642508768264L88.54034632860441,169.55494139507317L88.64604957842631,168.9865436792814L88.75175328821443,165.73488901653943L88.85745745797763,155.82207851574194L88.96316208771148,137.1879930284071L89.06886717742927,116.73188621130708L89.17457272712657,107.77704430468035L89.177815347815,107.67086817932855L89.28027873681225,123.33817710000108L89.38598520648189,142.9622850934286L89.49169213613992,160.16775507534354L89.59739952578632,167.66529284200536L89.70310737543439,169.89449681961116L89.8157036511141,170L89.92141242075667,170L90.02712165040093,170L90.13283134005573,170L90.2385414897122,170L90.34425209937925,170L90.44996316906568,170L90.55567469876266,170L90.66138668847907,170L90.76709913821931,170L90.8728120479834,170L90.97852545862729,170L91.08423967884913,170L91.18995396869806,170L91.29566871858856,170L91.401384228122,169.98278967650978L91.50709989808237,169.9891273802748L91.61281602808874,169.99486066060456L91.71853280880218,169.9999999574081L91.71853368493505,170L91.82425065332603,169.9987349958647L91.92996816347487,169.98974983225156L92.0356861336786,169.98190584305112L92.14140456393721,169.96743736558054L92.24712345425513,169.95053789320656L92.3528428046368,169.9329204917746L92.35284289996731,169.93292047588864L92.4585626150822,169.9414984722302L92.56428288559135,169.96631272307877L92.67000361617312,169.98725232937244L92.77572487491628,169.9983015651519L92.88144652564772,169.99999998468522L92.94013125397356,170L92.98716949896597,170L93.04585383433715,170L93.09289206985149,170L93.15157687478222,170L93.19861510081846,170L93.25730037531763,170L93.30433859187579,170L93.36302433593895,170L93.41006254301459,170L93.46874875665505,170L93.51578704503916,170L93.57447363746148,170L93.62151191636308,169.99981588095542L93.6801989783627,169.999586165795L93.7272372477862,169.99779604728187L93.77759806451122,169.9958794837802L93.8329634297053,169.9912604412687L93.88332431613277,169.9778629937498L93.93869041673373,169.956613260524L93.98905102785797,169.92582291982882L94.04441712845893,169.88754064067132L94.09477819969568,169.85181307289L94.15014430029665,169.81443207309513L94.20050583163703,169.78268837309005L94.25587193223798,169.76048008319975L94.26644405843017,169.75964845352L94.3062339236909,169.761322104422L94.36160002429185,169.7781307674205L94.41196247586169,169.81023557607998L94.46732857646265,169.8483192758183L94.51769148814944,169.88398212120768L94.5730575887504,169.92055735577614L94.62342096055856,169.94966476483273L94.67878706115953,169.97363340985848L94.72915089308462,169.97988254104632L94.78451772909246,169.98361126252752L94.78451826475919,169.9836112727239L94.83488128574092,169.98198957645462L94.89024812174875,169.9793324617216L94.9959789745353,169.97673457823385L95.10171028744766,169.98366226036828L95.20744206049912,169.99412544763572L95.20744259616586,169.99412547739774L95.31317429368083,169.99392824043125L95.3835161599666,169.9900810121722L95.48924931343095,169.98733939217746L95.52464067613717,169.98693389085165L95.59498292703884,169.99178932648738L95.70071700079471,169.99628886266015L95.84541958050885,170L95.9511545745651,170L96.0568900287782,170L96.16262594315258,170L104.51365150254239,170L104.58402219390223,170L104.62607381434998,170L104.68979538990021,170L104.73184701034796,170L104.79556904628112,170L104.83762066672888,170L104.9013431630361,170L104.94339478348385,169.99722854935823L105.00711774017846,169.97723192744758L105.04916936062621,169.95994994166637L105.11289277769929,169.91651822433323L105.15494439814704,169.88588633208172L105.21866827561193,169.82341376460974L105.26071989605968,169.7810833809468L105.32444423390751,169.71154233548523L105.36649585435528,169.67239262329213L105.43022065260375,169.63983124661786L105.46918869841403,169.6274247456788L105.4722722730515,169.62759511024126L105.53599753168736,169.6665896554034L105.57804915213511,169.6957216145095L105.64177487117605,169.76615922871454L105.6838264916238,169.81152974015802L105.74755267106097,169.87524531520504L105.78960429150874,169.91442253097048L105.85333093135544,169.95480465915986L105.8953825518032,169.97784027789356L105.99118713188867,169.99662731060994L106.03274562220945,169.99890457481027L106.10029442280675,169.9999999974234L106.20607406432094,170L106.31185416624909,170L106.41763488747985,170L108.11018634497968,170L108.21597473482022,170L108.32176358512349,170L108.42755289588949,170L108.53334266713597,169.99576040783197L108.6391328988496,169.992402864163L108.7449235910348,169.98614166186368L108.85071474370491,169.98299414346434L108.85071490258913,169.98299414324532L108.95650635685107,169.9850056410612L109.06229843047767,169.99066175758784L109.16493662066767,169.99646398749636L109.27072961527294,169.99827828620255L109.37318239026916,170L109.47897584536375,170L109.58476976095653,170L109.69056413704307,170L112.23627911273478,170L112.34208546267871,170L112.44789227319177,170L112.55369954427395,170L112.65950727593413,169.99560700982786L112.76531546816787,169.99279493527914L112.87112412098402,169.9920137999567L112.9769332343826,169.9935819732653L113.0827428083636,169.9964286963933L113.19335764189493,170L113.29916813705852,170L113.40497909281339,170L113.51079050915955,170L117.62983156176828,170L117.67121628621042,170L117.73228433676451,170L117.77704612857993,170L117.83811417913401,170L117.88287643165597,170L117.94394448221006,170L117.98870719543856,169.99923508291516L118.04977524599265,169.99676053062103L118.09453841993215,169.9881470017221L118.15560647048625,169.96887057159265L118.20037010513671,169.94522027127687L118.2614381556908,169.9062079575881L118.30620225106114,169.87353304466248L118.36727030161524,169.8263499536435L118.41203485770541,169.79366226823325L118.4731029082595,169.75075293778866L118.51786792506954,169.73349883638292L118.57893597562362,169.72908512219522L118.6237014531535,169.74706229858796L118.6847695037076,169.78828153916018L118.72953544196619,169.82494107755977L118.79060349252028,169.87499062803212L118.83536989151204,169.90863265796636L118.89643794206613,169.94966890664043L118.94120480179103,169.97259147016794L118.98724319585244,169.98858946647672L119.04704017279875,169.99901967378116L119.08777490525965,169.9996102469327L119.17806822394532,170L119.22049430948725,170L119.28390497717908,170L119.326331062721,170L119.40528519342622,170L119.51642696201682,170L119.60141800135463,170L119.64384408689656,170L119.70725659757862,170L119.74968268312055,170L119.8130956545668,170L119.85552174010873,169.99977185764743L119.9189351723103,169.99910142358127L119.96136125785223,169.99512638840955L120.02477515081354,169.98481812375476L120.06720123635547,169.971290968368L120.13061559008096,169.94244498646776L120.1730416756229,169.91981875217635L120.23645649012145,169.880369586546L120.27888257566339,169.85599796083378L120.34229785092167,169.8225196330642L120.3847239364636,169.81586687113213L120.44813967249938,169.82601604540733L120.49056575804131,169.8417510973764L120.55398195485458,169.87984631815766L120.59640804039651,169.90423787589296L120.65982469798281,169.93698183772193L120.70225078352475,169.95478666692614L120.76566790189297,169.97803837385928L120.80809406006767,169.98808778996863L120.88705470173574,169.997186852034L120.9301929040676,169.99930881677088L121.00048760530787,170L121.10633173079071,170L121.21217631705548,170L121.31802136411547,170L123.24588909446815,170L123.35174336739372,170L123.45759810117214,170L123.56345329579898,170L123.66603893126246,169.99732712050468L123.77189503810361,169.99487248245285L123.87775160580647,169.9935489682127L123.88102164480543,169.99350918752125L123.9836086343666,169.99403353555047L124.08946612378845,169.99277852852308L124.19532407407645,169.99212848746262L124.30118248523503,169.9917330279257L124.30118273037066,169.99173303161697L124.40704135726418,169.98120089049013L124.51290069016834,169.97500071398377L124.51617153968951,169.97496382979426L124.61876048394751,169.9752512451496L124.61876072908314,169.97525124485225L124.72462098374174,169.98289874997963L124.83048169927982,169.99071105587123L124.88373108353305,169.99612700092626L124.93634927193017,169.99914775715996L124.98483355758067,170L125.04221090924486,170L125.09069519489535,170L125.14807416956786,170L125.19655729309392,170L125.25393672866362,170L125.30241985218964,170L129.80646164994042,170L129.91234449095464,170L130.0182277929813,170L130.12411155602928,170L130.22999578008964,169.99735463597864L130.3358804651758,169.99377760980215L130.44176561128768,169.98747470424937L130.5476512184164,169.98163011374652L130.65353728657976,169.98283598434634L130.70202157223025,169.9856022192728L130.75942381577772,169.9888772616669L130.80790810142824,169.9913422854417L130.86531080601029,169.99426073684597L130.9137950916608,169.99637675627886L130.97119825727304,169.998882026024L130.987442614297,169.99905353410043L131.01968254292353,169.9989447779574L131.07708696400468,169.996552535247L131.12557045523417,169.99040166405797L131.18297533735438,169.97859512316487L131.23145882858384,169.96531555854173L131.28886417174752,169.94479140529037L131.337347662977,169.92768901598944L131.39475346718856,169.90492431021005L131.44323695841805,169.88505413996594L131.50064343249676,169.86523193548487L131.549126714907,169.8525582620679L131.60653365004248,169.84686708983696L131.62277700382623,169.84651570921295L131.65501693245275,169.84876470084004L131.712424328645,169.86450588917413L131.76090761105525,169.88350406919278L131.81831546830426,169.90948069125875L131.86679875071454,169.93184562922139L131.92420706902033,169.95529004343732L131.97269035143057,169.9749021661791L132.03010758344593,169.99570738166025L132.07858241321668,169.99988593995397L132.1360001063021,169.9999999981063L132.24189309021506,170L132.3477865352114,170L132.453681394583,170L138.70223709748748,170L138.80815867292716,170L138.9140807096054,170L139.0200032075221,170L139.12592616667737,169.99799892751128L139.2318495870845,169.99394999979077L139.33777346873896,169.98526419087125L139.44369781164528,169.98109408432808L139.54962261580346,169.98710216094628L139.65554788121787,169.99321038832565L139.76147360789298,169.99561177016153L139.86740037235586,169.99373067623773L139.97332702155683,169.99299461048065L139.97332726215288,169.9929946122476L140.07925413202287,169.98523009489918L140.18518170376737,169.98221310055806L140.1851820805499,169.98221310222425L140.29110997737752,169.98049441914506L140.39703847166558,169.9857736065632L140.50296756341407,169.99417753340086L140.60889698025898,169.9964308528892L140.714827543863,169.99726557715698L140.71483127537195,169.9972656060473L140.82075788327364,169.9945168275901L140.92668868398042,169.99246966957665L141.03261994597452,169.9928225176203L141.13855166926476,169.99561670533075L141.24448982335758,170L141.3504224692446,170L141.45635557643217,170L141.5622891449248,170L143.681055154923,170L143.78699841143296,170L143.89294212931006,170L143.9988863085542,170L144.10483094916546,169.99848970845883L144.2107760511527,169.9945026477882L144.31672161450697,169.97880710614874L144.42266763924167,169.95832228925008L144.52861412535674,169.94717556800182L144.52861422976636,169.94717556124567L144.63456107285222,169.95400679242405L144.7405084817414,169.9677048498255L144.84645645642058,169.9860002697427L144.95240501051725,169.99202285218158L145.0166123132724,169.9957900372969L145.05835380356976,169.9971531954645L145.1225611063249,169.99887822227032L145.16431484723256,170L145.22851036077998,170L145.27026456308133,170L145.33446007662872,170L145.3762147403326,170L145.48216537898648,170L145.90596266963627,170L146.01191561534725,170L146.11786902248295,170L146.22382289104337,170L146.32977722102407,169.9947308079849L146.43573201243396,169.98905399119906L146.54168726527297,169.9852061998281L146.54495987227332,169.98518085210233L146.6476429795456,169.98672984974584L146.75359915526067,169.99254218120495L146.85956769964088,169.99865707048173L146.96552479823643,169.9999612553335L147.07148235827,170L147.17744037975044,170L147.28667147263945,170L154.48965569449783,170L154.59564602391464,170L154.70163681496896,170L154.80762806766523,170L154.91361978200345,169.997323696159L155.0196119579792,169.99450720761624L155.12560459561018,169.99274548728815L155.23159769489195,169.99351824031498L155.33759125582455,169.99597826700008L155.44358596388423,169.99705916716576L155.44358800668113,169.99705919845096L155.54958044813176,169.9946608881416L155.65557539403898,169.99198776097256L155.76157080161033,169.99027303429875L155.86756667085018,169.9908419387897L155.9735630017586,169.9935285086983L156.07955979433555,169.99655806191993L156.18555943185737,170L156.29155714778918,170L156.3975553254028,170L156.50355396469385,170L156.99174626903624,170L157.0335537324205,170L157.0977472167897,170L157.13955514186912,170L157.2037486262383,170L157.24555701301287,170L157.30975049738208,170L157.35155934586953,169.99932513005106L157.41575283023874,169.99342167785838L157.45756214042575,169.98856637960623L157.52175562479493,169.97814835900994L157.56356539669483,169.96894171576935L157.62775888106404,169.95475247066565L157.66956911467236,169.94530781008737L157.73376259904157,169.9423983907689L157.77557329437164,169.9421620742178L157.7788468451858,169.94217562692654L157.83976677874085,169.94046526594025L157.88157793578824,169.94498511742518L157.94577142015743,169.95264047249987L157.9875830389177,169.95922044030476L158.0517765232869,169.9696428882456L158.09358861739642,169.97619876551198L158.15778208814697,169.98763461355452L158.19959498443998,169.99219950128693L158.3056014727524,169.99475458932218L158.41160896754127,169.99438494616356L158.438487730128,169.9946086358651L158.51761637931492,169.9936247960791L158.62362425282805,169.99447850124656L158.72963258807624,169.9963137700905L158.85257056023576,170L158.95857981897177,170L159.0645895394561,170L159.17059972168434,170L159.25968269763692,170L159.3656938033751,170L159.47170537087501,170L159.5777174001321,170L159.68372989115522,169.99528052176666L159.78974284394005,169.99340496603122L159.89575625849534,169.99250005860452L160.00177013482116,169.99258631202696L160.10778447292634,169.99389116126315L160.21379927280205,169.9963156957241L160.35330627085162,170L160.45932199428606,170L160.56533817950876,170L160.67135482651966,170L166.27699996314485,170L166.3803755251409,170L166.48641757457915,170L166.59246008595642,170L166.69850305927258,170L166.8045464945322,169.96756046018587L166.91059039173965,169.70513968741096L167.01663475089046,169.09005704157806L167.122679571998,167.65720821631078L167.2287248550578,164.73522160209913L167.33477060006987,161.45637785718284L167.4408168070431,159.38958062030432L167.44704915785454,159.3510179722694L167.54686347598187,161.41598755339268L167.65291060687736,164.75380496532375L167.7589581997428,167.9199964413822L167.86500625457828,169.58179227999017L167.9710547713882,169.98253018008648L168.060185497159,170L168.1006419451965,170L168.1662349379222,170L168.2066913859597,170L168.27228484065986,170L168.31274128869737,170L168.3783352053852,170L168.41879165342272,170L168.48438603209834,170L168.59043732079476,170L168.69648907148778,170L168.80254128416848,170L168.90859408595762,169.99308185290565L169.014647222636,169.9958668200197L169.1207008394736,169.9999999610785L169.2267558988636,170L169.33281042155838,170L169.4388654062586,170L169.5449208529776,170L169.65097676170652,170L169.75703313245418,170L169.7974884365254,170L169.86308996522504,170L169.9035452692963,170L169.96914726001467,170L170.00960256408592,170L170.07520501683638,170L170.1156603209076,169.9987080114311L170.181263912074,169.99564982316585L170.22171853975252,169.99016454876772L170.2873225929554,169.97808870196866L170.3277772206339,169.96949848787372L170.39338173586884,169.95356104036546L170.43383636354733,169.94483217694875L170.4994413408188,169.92789227465173L170.53989596849732,169.92065040900425L170.60550140780967,169.90679420300444L170.64595603548818,169.9029240770829L170.71156193683706,169.9054256042242L170.75201656451554,169.9091501646635L170.81762306864024,169.92509304650278L170.85807755559273,169.9338630758766L170.92368526171364,169.95168947179644L170.9641390087197,169.96111473898824L171.02974717688596,169.97335561114488L171.07020092389206,169.98052967584673L171.13580955411254,169.9878719292932L171.18877305801408,169.9927036944635L171.24187239339332,169.99562520461316L171.24666055354578,169.99568458470804L171.2948363688671,169.99554825822096L171.3479356947328,169.9940099802985L171.45399945813537,169.99205062147917L171.56006368360102,169.9853771445462L171.66612837112976,169.98322711533808L171.66612873429366,169.98322710797655L171.77219388389437,169.9846192341574L171.87825949556705,169.98821205037024L171.98432576905626,169.99512382130223L172.09039309475875,169.99999944771844L172.19646009266063,170L172.30252755264775,169.9966336803583L172.40859547472016,169.98839068549404L172.51466385887338,169.9814522596208L172.5146639269666,169.98145225928053L172.62073270512516,169.98254668005973L172.72680201346662,169.988957385678L172.83287178390222,169.99339831195147L172.93895278424569,169.9999999632822L173.04502347888285,170L173.151094635623,170L173.257166254475,170L181.95661180432023,170L182.06272178736737,170L182.16883223274806,170L182.27494314046223,170L182.38105451052323,169.99483176276746L182.48716634291333,169.98895499423574L182.59327863765023,169.9842350900867L182.59327868758527,169.9842350892215L182.69939139473396,169.9846039100532L182.8055046141645,169.9894520294846L182.9116183458769,169.9955042209091L183.017733388845,170L183.12384799533373,169.99789350147594L183.22996306418258,169.99414733608674L183.3360785954004,169.98653812451408L183.44219458897393,169.9750787502037L183.54831104491643,169.96510578598682L183.54831144893626,169.96510579073853L183.65442796322793,169.9631484190583L183.7605453439128,169.95969128076192L183.86666340940903,169.95935118793682L183.97278171484962,169.96981661822073L184.07890066425003,169.97829651428697L184.08217705493752,169.97827905057753L184.18501989445076,169.97974478278735L184.1850202712333,169.97974477512417L184.29113996381633,169.9841507368918L184.39726011879938,169.98874881540056L184.50338073616027,169.99803104173705L184.60951516219848,169.99999951828778L184.71566490403086,170L184.82178690858737,170L184.9279093755439,170L195.96714283622563,170L196.07331387033636,170L196.17948536713527,170L196.28565732663125,170L196.39182974881092,169.99477471495388L196.4980026336921,169.97062086113235L196.60417598126585,169.9359773209977L196.7103497915367,169.91204031110846L196.8165240645178,169.90966753277445L196.81652421432292,169.90966752575625L196.92269893638687,169.9247102069312L197.0288741347798,169.9570866953902L197.13504980950174,169.97909384121675L197.2412395519656,169.9948064148386L197.34740340052062,169.9982481497154L197.45358044977266,169.99516464422575L197.55975796174832,169.99347623763225L197.66593593644762,169.99511205821798L197.77211437387058,169.99769226047243L197.8783059075942,170L197.98448527048214,170L198.09066509610258,170L198.1968453844644,170L208.71098493285692,170L208.81721150858863,170L208.92343854732763,170L209.02966604907846,170L209.13589401384553,169.99749393161122L209.24212244163323,169.9923264609628L209.34835133243718,169.98467257879463L209.4545806862662,169.97993483039977L209.45458079067583,169.97993483015355L209.5608105031159,169.98296003243863L209.56081073009332,169.9829600297344L209.66704088740914,169.98487954548492L209.6670414049177,169.98487956729912L209.77327163032234,169.98317273061113L209.77327241112468,169.98317273519305L209.8795029588417,169.98136697290144L209.87951642768238,169.9813670068535L209.9857350227635,169.97780948252998L210.0919671547874,169.9847727094182L210.19819974985413,169.9884066015965L210.30443307125307,169.9940303062326L210.41066659240985,169.99653392861833L210.51691419526418,170L210.62314864252434,170L210.72938355283625,170L210.83561892620867,170L221.56777651648127,170L221.67405913591062,170L221.78034221867097,170L221.8866257647711,170L221.99290977421114,169.9962540088263L222.09919424699987,169.99267569562826L222.20547918312843,169.9912824232918L222.31176458261018,169.99317804765653L222.4180504454406,169.99637041792045L222.52433755242654,170L222.6306243419677,169.99703912723544L222.73691159487083,169.98803353221808L222.843199311136,169.97812417273187L222.94948749076318,169.97087561907242L223.0557761337568,169.97527818708434L223.16206524012134,169.9854565358737L223.26835500506172,169.9923495661227L223.3566531928828,169.9967529858448L223.4629432259979,169.99844088529616L223.56923372249275,169.99985394392573L223.67552468236738,170L223.79280246693133,170L223.8990943535743,170L225.29122749817753,170L225.3975263454735,170L225.50382565620242,170L225.61012543035983,170L225.7164256679502,169.99707356864434L225.82272636898236,169.99572576281534L225.92902753345632,169.99512207614424L226.03532916136768,169.99613370891907L226.14163125272967,169.9980656299632L226.32368545475833,170L226.42998847301286,170L226.5362919547269,170L226.642595899896,170L244.64199328225078,170L244.72100516544347,170L244.8273884013165,170L244.93377210111015,170L245.04015626482877,169.99662823769827L245.14654089247242,169.972889957408L245.2529259840411,169.8764473110371L245.3206689346197,169.77898706263858" style="stroke: #2ca02c;"></path></g></g></svg>
