<svg width="300" height="220"><g transform="translate(40,10)"><g class="x axis" transform="translate(0,170)"><g class="tick" transform="translate(69.52741517536299,0)" style="opacity: 1;"><line y2="6" x2="0"></line><text y="9" x="0" dy=".71em" style="text-anchor: middle;">467</text></g><g class="tick" transform="translate(147.51626626503125,0)" style="opacity: 1;"><line y2="6" x2="0"></line><text y="9" x="0" dy=".71em" style="text-anchor: middle;">468</text></g><g class="tick" transform="translate(225.50511735469956,0)" style="opacity: 1;"><line y2="6" x2="0"></line><text y="9" x="0" dy=".71em" style="text-anchor: middle;">469</text></g><path class="domain" d="M0,-170V0H250V-170"></path><text y="20" x="125" dy=".71em" style="text-anchor: middle;">m/z</text></g><g class="y axis" transform="translate(0,0)"><g class="tick" transform="translate(0,170)" style="opacity: 1;"><line x2="-6" y2="0"></line><text x="-9" y="0" dy=".32em" style="text-anchor: end;">0.0</text></g><g class="tick" transform="translate(0,139.0909090909091)" style="opacity: 1;"><line x2="-6" y2="0"></line><text x="-9" y="0" dy=".32em" style="text-anchor: end;">0.2</text></g><g class="tick" transform="translate(0,108.18181818181819)" style="opacity: 1;"><line x2="-6" y2="0"></line><text x="-9" y="0" dy=".32em" style="text-anchor: end;">0.4</text></g><g class="tick" transform="translate(0,77.27272727272728)" style="opacity: 1;"><line x2="-6" y2="0"></line><text x="-9" y="0" dy=".32em" style="text-anchor: end;">0.6</text></g><g class="tick" transform="translate(0,46.36363636363636)" style="opacity: 1;"><line x2="-6" y2="0"></line><text x="-9" y="0" dy=".32em" style="text-anchor: end;">0.8</text></g><g class="tick" transform="translate(0,15.454545454545467)" style="opacity: 1;"><line x2="-6" y2="0"></line><text x="-9" y="0" dy=".32em" style="text-anchor: end;">1.0</text></g><path class="domain" d="M250,0H0V170H250"></path><text transform="rotate(-90)" x="-85" y="-30" style="text-anchor: middle;">Normalized Intensity</text></g><g class="filename"><path class="profile line" d="M0,170L0.0641284681428903,170L0.16946092378722521,170L0.27479338783238494,170L0.380126309702547,170L0.48545968939327844,170L0.5907940535010829,170L0.6961283488462524,170L0.8014631020252906,170L0.9067983130337643,170L1.01213398188054,170L1.0892139402544814,170L1.194550524782294,170L1.299887567161708,169.99314101550289L1.4052250673794238,169.9884590214437L1.510563025453174,169.9799747212353L1.6159014413696595,169.95822516043384L1.7212403151466125,169.9363271828771L1.8265796467884663,169.92691306151448L1.9319194362819214,169.9353604516161L2.0372596836447108,169.96314782620323L2.1426003888635345,169.9808990883259L2.247941551956125,169.9912531122661L2.353283172926916,169.99820924557042L2.486883549122037,169.9999999558868L2.5922260858359296,170L2.697569080432455,170L2.8029125329071807,170L2.90825644326454,170L3.013601297240666,170L3.118946123376591,170L3.2242914074040168,170L3.3296371493273744,170L3.4349833491466657,170L3.5403304880629074,170L3.6456776036829304,170L3.7510251772121856,170L3.8563732086506737,170L3.9617217025423757,170L4.0670712081682385,170L4.172420613347723,170L4.277770476445306,170L4.383120797460988,170L4.488471975883911,170L4.593823212753522,170L4.699174907554532,170L4.80452752331203,170L4.909880133984702,170L5.015233202584339,170L5.120586729128674,170L5.225940713613273,170L5.331296054873192,170L5.4366509552516185,170L5.54200631358361,170L5.6473621298647325,170L5.752718404103851,170L5.858075136300967,170L5.963432326460513,170L6.068789974586922,170L6.174148534630621,170L6.279507098686324,170L6.384866120717756,170L6.486517636145139,170L6.591877574123597,169.58474053031438L6.595585874629974,169.56959172357153L6.697237970091085,169.98485119396187L6.801653456229184,170L6.906633305348652,169.83924742349748L7.011995075265495,168.88179997303288L7.117357303171367,167.45532461871227L7.2227199890751335,166.93772669559223L7.328083132972362,165.5270899374415L7.430308683377052,155.08568573099151L7.535672743274505,121.90854040588347L7.6410372611742865,71.9651173237694L7.74640223708083,20.299606795892117L7.851767670994135,15.454545454545467L7.957133562923067,63.88400959173323L8.06249991286763,114.5139801311062L8.167866720823385,151.87439723440582L8.273233986803636,166.40339349966624L8.378601710803947,169.88302430406188L8.492145998908324,170L8.597514638962057,170L8.702883737044719,170L8.808253293165173,170L8.913623307318987,170L9.018993779506163,170L9.124364709735564,170L9.229736098011626,170L9.33510794433435,170L9.440480248708166,170L9.545853011128644,170L9.651226667396879,170L9.756600345932839,170L9.861974482524326,170L9.96734907718021,170L10.07272457931136,170L10.178100090096027,170L10.283476058953953,170L10.388852485885137,170L10.494229461680552,170L10.599607108912444,170L10.704984910076703,170L10.810363210179029,170L10.915742059158882,170L11.021121234582818,170L11.126500868093313,170L11.23188130470936,170L11.337261913429268,170L11.442642921230469,170L11.548024387135962,170L11.653406737863316,170L11.758789119977392,170L11.864172291591672,170L11.969555589932062,170L12.07493934639004,170L12.180323579119374,170L12.285708828335208,170L12.391093959154826,170L12.496479548096469,170L12.601865853918836,170L12.70725235912226,170L12.812639322461004,170L12.918026861958904,170L13.023415327170065,169.99931235465027L13.128803664928078,169.98899434707886L13.234192460825849,169.981847183457L13.339581714872242,169.9728162565495L13.444971427062825,169.96292655363072L13.550361915179296,169.95902630031634L13.550362455385581,169.95902635108266L13.655752543684859,169.95730297826987L13.655752979481523,169.95730297991742L13.761143630343474,169.95209785299718L13.866535175164012,169.93815180108277L13.971927409659017,169.93223366529227L13.971927613938703,169.93223365382173L14.07731995706369,169.94831958198534L14.182712876383292,169.97495698227752L14.288106371897516,169.9881542733634L14.393500207563129,169.99869710186533L14.393500402763719,169.9986971092333L14.49889463304644,169.9928416114482L14.604289385066929,169.99249570811628L14.604289848100887,169.9924957065966L14.709685058296598,169.99281221601217L14.709685471395522,169.992812221527L14.815081139779753,169.98844111486895L14.920477266348074,169.98887736425158L15.025873851109347,169.99434993432502L15.131270894063576,169.9959370135577L15.236668395210758,169.99753603170643L15.342067389572408,170L15.447465807118798,170L15.552864682862575,170L15.658264016821473,170L15.76366380898219,170L15.869064059353594,170L15.974464767940118,169.99407863065218L16.079865934741765,169.99039227523053L16.18526801371782,169.98745642210008L16.290670096963005,169.98216738678477L16.290670382954566,169.98216739024662L16.396072638427743,169.97990641651782L16.420681464860426,169.98132707065045L16.50147581062374,169.97610163873955L16.50147585601923,169.97610163580367L16.60687926854532,169.98400833550915L16.63148883893643,169.98574147257065L16.71228329818846,169.98417318865856L16.817687672580174,169.97501281618835L16.9230930771923,169.95226186129725L17.02849836805858,169.9301476594295L17.133904117171017,169.9234460283288L17.239310324525174,169.94282409203132L17.34471699012548,169.97021489082857L17.45012419569268,169.9864188789011L17.555531936687228,169.9952863956788L17.660947036046228,169.9999994999912L17.766355534671042,170L17.87176862707965,170L17.9771780422278,170L23.248229009365108,170L23.353661799500163,170L23.459095048036524,170L23.5645287549742,170L23.66996292032206,169.99876895776578L23.775397544080093,169.99691594462536L23.880832626252737,169.99583100931048L23.88083297125843,169.99583101209288L23.986268166835565,169.994240252508L24.09170416584187,169.99342476379783L24.197140968272908,169.99316575253044L24.302577884121735,169.99425811260807L24.40801525839847,169.99700641941368L24.51345704504552,169.9999994318689L24.618915351052284,170L24.72435410062162,170L24.8297933086233,170L27.149551696306535,170L27.255001449090003,170L27.36045166036788,170L27.4659023301579,170L27.57135345845119,169.99402675655395L27.676805045252195,169.98976643930814L27.7822570905609,169.98791229272302L27.887709594386184,169.98896450453492L27.993162556723608,169.99186240300904L28.098616141014656,169.9992737047226L28.204093907498823,169.9999997816281L28.309548245403704,170L28.415003041838457,170L28.520490055485084,170L36.747367441187045,170L36.85285892839922,170L36.958350874358494,170L37.06384327905601,170L37.169336142505045,169.9978103663088L37.27482946470562,169.99520951145087L37.38032324565772,169.9930974036888L37.48581748536136,169.99280859897829L37.59131218382982,169.99411506047528L37.69680734105425,169.9960288661861L37.80234261454451,170L37.907838689303034,170L38.013335222830825,170L38.118832215127874,170L41.811481655256564,170L41.916995165104616,170L42.02250913382389,170L42.12802356141882,170L42.233538447889416,169.99725315084686L42.339053793235664,169.99450025926438L42.44456959746645,169.99354338098613L42.55008586057732,169.99521677158884L42.65560258257715,169.99776863255073L42.761153623954506,170L42.86667126373226,170L42.97218936240783,170L43.07770791997237,170L46.032384492989394,170L46.13791635972132,170L46.24344868543087,170L46.34898147011804,170L46.45451471378727,169.9972654264951L46.560048416442974,169.99533296774817L46.66558257808518,169.99479803488455L46.77111719871831,169.99627353846031L46.876652278342355,169.99840446154363L46.98219102187863,170L47.08772701949782,170L47.1932634761168,170L47.29880039173556,170L48.98745346828015,170L49.092998187365225,170L49.19854336549886,170L49.304089002685465,170L49.4096350989295,169.99827991257706L49.51518165423538,169.99608079413665L49.62072866859869,169.99467145501006L49.72627614202827,169.99561631481328L49.83182407452415,169.99781273407558L49.83182461473043,169.99781274527L49.937373006297015,169.99679274650632L49.937373133404385,169.9967927473836L50.042921856934335,169.9916129519273L50.14847116665123,169.9897804688518L50.14847129375859,169.98978046793246L50.25402093543884,169.9898177886554L50.35957116331047,169.9917275283383L50.465121977373485,169.99653289385367L50.570673718094014,169.9980378818689L50.57070093268787,169.9980382039866L50.67622532322656,169.9958227189596L50.781777387443135,169.994070689362L50.88732991075702,169.99445319733428L50.99288289316822,169.99671847135582L51.098463789871104,170L51.204017690476945,170L51.309572050193395,170L51.415126869016035,170L73.48616065726172,170L73.59181194757882,170L73.6974636975651,170L73.80311590722057,170L73.90876857655412,169.99727354581947L74.01442170556129,169.99464925653143L74.1200752942465,169.9935711136287L74.22572934261423,169.99504879722215L74.3313838506733,169.99572205241037L74.33138432732592,169.99572205417803L74.43703929506749,169.9952242694008L74.43704112904513,169.99522428424962L74.54269472250485,169.99374486843746L74.64835060962915,169.99483612387806L74.75400695645368,169.99539125014056L74.85966422147283,169.99580201304994L74.85966572860296,169.99580203104838L74.9653214876978,169.99437824009638L75.070979213623,169.99511647253203L75.1766373992573,169.9971329498805L75.28229834161226,170L75.38795744666474,170L75.49361701143518,170L75.59927611439076,170L75.70493659860156,170L75.81059754252587,170L75.91625894618144,170L76.02192080956382,169.99481769268596L76.12758313267747,169.98142058387072L76.23324591552682,169.9681705022356L76.33890915810743,169.96501927493446L76.33890916718653,169.96501927481108L76.44457286042817,169.9699173224672L76.550237022489,169.97901650915176L76.65590177594132,169.99279805703046L76.76156697552399,169.99811482350785L76.86723318868056,169.99999994850228L76.97289918972852,169.99787243068286L77.07856565053876,169.9933307142297L77.18423257110685,169.9932989342135L77.28989995142838,169.99518864216478L77.39556779152105,169.9967344761417L77.50124399472568,170L77.60691275434738,170L77.7125819737358,170L77.81825165290424,170L79.29767057250011,170L79.4033471485861,170L79.5090241844876,170L79.61470168020459,170L79.72037963574148,169.99760413293563L79.82605805110717,169.99180788825683L79.9317369262972,169.98711884806252L79.93173722590743,169.9871188494255L80.03741626131604,169.9853286948633L80.14309605616809,169.98700499112027L80.24877631085336,169.98801342952385L80.24877661046357,169.98801341956172L80.35445722057688,169.99288015679394L80.46013839493746,169.99562244980143L80.56582013355418,169.99850836127817L80.6715067671564,169.99995366666099L80.77718932105653,170L80.8828723348032,170L80.99194389142764,170L83.8421834163595,170L83.94787976693644,170L84.0535765774441,170L84.15927384788696,170L84.26497157826502,170L84.37066976858266,170L84.47636841883994,170L84.58206752904127,170L84.68776709919108,170L84.7934675060719,170L84.89916799611868,170L85.00486894612723,170L85.1105710279419,170L85.21627289786515,169.99190491976043L85.32197522775019,169.94709410361014L85.427678017597,169.74931280796184L85.5333812674189,169.36997795392494L85.62921249175093,167.1203055976253L85.73491666151413,160.3625990015877L85.84062129124797,145.40888182662607L85.94632638096576,128.44189784423173L86.05203193066308,117.60623193343004L86.0624741340079,117.15240013487323L86.15773794034875,127.45571328829189L86.2634444100184,143.89234917032982L86.36915133967642,159.48524736378863L86.47485872932282,167.21240667852607L86.5805665789709,169.78698334218217L86.69013890017466,170L86.80185839532655,170L86.9075676249708,170L87.0132773146256,170L87.11898746428209,170L87.2246980739491,170L87.33040914363555,170L87.43612067333254,170L87.54183266304894,170L87.64754511278919,170L87.75325802255328,170L87.8589714377367,170L87.96468563526079,169.97653958603192L88.07039992510971,169.9862539394708L88.17611467500024,169.99803939852697L88.28182996209578,169.9999999919178L88.32228120327105,170L88.38754597706185,170L88.4279968732314,170L88.49326210706823,170L88.53371300323778,170L88.59897875159521,170L88.63942959329019,170L88.70469588340991,170L88.81041339355878,170L88.91613163613542,170L89.02185024343642,170L89.12756913375435,170L89.23328881552304,170L89.33900862596846,170L89.44472889647761,170L89.55044962705938,170L89.65617106284495,170L89.69722007177974,170L89.76189271357636,170L89.80294172251116,170L89.8676148243804,170L89.90866383331519,170L89.97333796724902,170L90.0143864042007,170L90.079060998216,170L90.18478448927334,170L90.29050844041214,170L90.39623307408361,170L90.43668201370771,170L90.50195794540753,170L90.54240688503164,170L90.60768373986463,170L90.64813221645478,169.99900125416906L90.71340953138252,169.9958130257869L90.75385800797268,169.9925006193311L90.81913578300409,169.9823227046034L90.85958425959424,169.96700785062612L90.9055929348535,169.94523511680407L90.95508949218524,169.91860964777706L91.01132010669122,169.88268193409675L91.06081712412659,169.84840751585958L91.11704773863256,169.81363571191574L91.16654521618045,169.78525902509887L91.22277583068643,169.76176745174106L91.2420460805736,169.75658734649323L91.27227376835124,169.7573122031227L91.32850438285722,169.77081155829194L91.378002780639,169.79661097584966L91.43423339514497,169.83844566397823L91.4837322530481,169.87678041082586L91.53996286755408,169.91770410693806L91.58946218557418,169.94936461427636L91.64569280008016,169.97844248904605L91.70541083654608,169.99556433024782L91.77069409177906,169.9999992820518L91.77071314880409,169.99999987678004L91.87642494456561,169.99930308102742L91.98215625747798,169.99403347993507L92.08788803052944,169.98176009450037L92.19362062687505,169.9684641557585L92.29935332020028,169.96768348637568L92.40508647366465,169.98127562458865L92.51082008727255,169.99528534431028L92.55577256960957,169.99732091850586L92.6165542518194,169.9986634198508L92.66150710351343,169.9992315858648L92.72230343030701,170L92.76724209756968,170L92.82803842436327,170L92.87297755178277,170L92.93377387857636,170L93.03950979295072,170L94.62559228502047,170L94.73133556227224,170L94.83707929972964,170L94.94282349739261,170L95.04856815526121,169.99852888800453L95.15431327334427,169.99328063716587L95.26005885163737,169.9876888694815L95.36580489014938,169.9890085808443L95.47155138888029,169.99572739183296L95.57729834783454,169.9986462563921L95.68305341161197,170L95.7888012910129,170L95.89454963064603,170L96.00029843051136,170L101.2883248069128,170L101.39409708217153,170L101.49986981779543,170L101.60564301379343,170L101.71141667017434,169.99819588979489L101.81719078692932,169.99666410140034L101.92296536407167,169.99496833622504L102.02874040159251,169.99442089739753L102.0287407465982,169.99442090135906L102.13451589950515,169.99132205431889L102.24029185780073,169.98828194297283L102.34606862150265,169.98661706695114L102.34606874861002,169.98661706708958L102.45184550058626,169.9819006052L102.45184562769361,169.98190060100254L102.55762284007496,169.99083597757183L102.66340076706724,169.9974081700703L102.76918272709382,170L102.87496144778451,170L102.9807406288936,170L103.08652027040779,170L103.93277257494285,170L104.03855636028024,170L104.14434060605376,170L104.25012531227227,170L104.35591047892692,169.99791299385964L104.46169610603543,169.99508395976233L104.56748219358894,169.99331108190856L104.6732687415963,169.99398760443842L104.77905575005752,169.99617099350894L104.9212040819504,170L105.02699247179095,170L105.13278132209422,170L105.30799910197635,170L105.41378887322281,170L105.51957910493644,170L105.62536979712166,170L105.73116094979176,169.99490997085363L105.83695256293791,169.9874508666984L105.94274463656451,169.9822749748865L106.04853717068488,169.98050039366075L106.04853727055495,169.98050039200947L106.15433016529013,169.9855826702389L106.2601237202548,169.9879146594242L106.36591795815552,169.99066036189598L106.47171233424206,169.99419335716382L106.57750717083123,169.9978175828667L106.68331233690168,169.99999999990635L106.78910809903564,170L106.89490431713712,170L107.0007009957501,170L109.11672504190915,170L109.2225313918531,170L109.32833820236615,170L109.43414547344834,170L109.5399532051085,169.99634023651214L109.64576139734226,169.99449822721627L109.75157005015839,169.99434600857023L109.85737916355698,169.99570166792822L109.96318873753799,169.99750906298218L110.06900529997674,170L110.17481579514032,170L110.28062675089518,170L110.38643816724135,170L114.51344198076414,170L114.61927182313364,170L114.72510212620969,170L114.83093288999228,170L114.93676411448588,169.99757656219813L115.04259579969043,169.99497221535927L115.14842794561486,169.99374294483283L115.25426055225914,169.9938394737698L115.25426097443716,169.99383947919785L115.36009361962326,169.98653284010655L115.42986406941338,169.9828835349032L115.53569805822607,169.9756326602782L115.57176158593522,169.97340076179665L115.64153250777191,169.9765804526915L115.74736741805091,169.9843702492396L115.87163525702385,169.9938033333418L115.9774710887736,169.99597750320197L116.08330738125646,169.99937610773733L116.18914413449023,170L116.3126142921226,170L116.41845196684481,170L116.48822469070053,170L116.5287268256063,170L116.56932026931621,170L116.61249575488979,170L116.66652708411179,170L116.71833481187797,170L116.77236660185528,170L116.82417432962146,169.99984433186646L116.87820658035852,169.9972171059442L116.93001430812471,169.99022494946655L116.98404701962596,169.97816829854696L117.03585474739212,169.958278107765L117.08988791966642,169.9305450464273L117.1416956474326,169.90202833373007L117.19572928046667,169.87251843117988L117.24753700823283,169.8499610094131L117.30157110204436,169.83776699809027L117.31020334423697,169.83753061375546L117.35337882981054,169.84245189520695L117.40741338439956,169.86142284715766L117.45922111216572,169.88503774914267L117.51325612752781,169.91042700210332L117.56506385529397,169.9340409485781L117.61909933143795,169.95728422606302L117.67090705920413,169.97537290513242L117.72494299613003,169.9892214921336L117.79438780762109,169.99863212158846L117.90023024439188,169.99999996629873L118.00607483065664,170L118.11191987771662,170L118.21776538556739,170L118.95869684297051,170L119.06454603726723,170L119.17039569238133,170L119.2762458083128,170L119.38209638507053,169.9964559021093L119.48794742265449,169.99464641825176L119.59379892106472,169.99366370914552L119.69965088031003,169.9940280269934L119.80550330038605,169.99603385889282L119.91135811514488,170L120.01721145689997,170L120.12306525949019,170L120.22891952292882,170L120.54648483319956,170L120.6523409400407,170L120.75819750774356,170L120.8640545363037,170L120.96991202572555,169.9963897211909L121.07576997601353,169.99489757534383L121.18162838717211,169.99015092784663L121.28748725920126,169.98567452133582L121.39334659210542,169.97733042334778L121.39334683724105,169.97733040975413L121.49920663102021,169.9815148690815L121.60506688567885,169.98756722350436L121.71092760121691,169.9916636872803L121.81678877764328,169.9943383478173L121.816789544827,169.99433837020075L121.92265041495797,169.99197565115983L122.02851328034025,169.99293651428437L122.02852209160407,169.9929367277446L122.13437583943599,169.9913024662046L122.24023885942448,169.99237384507285L122.34610234031457,169.9955246035668L122.451973722422,170L122.5578317833615,170L122.66369664696084,170L122.76956197146626,170L122.87542775688213,170L122.98129400321294,169.9980521251784L123.08716071046307,169.99631790273256L123.19302787863253,169.99568900183286L123.29889550772137,169.99680726501705L123.40476359773396,169.99852638176964L123.51063676993525,170L123.61650578180868,170L123.72237525461036,170L123.82824518835352,170L126.7927904836827,170L126.89867378570935,170L127.0045575487573,170L127.11044177281772,170L127.21632645790385,169.9984245655178L127.32221160401572,169.99633496281524L127.42809721114448,169.9945431293985L127.53398327930785,169.994282716606L127.63986980850581,169.9954615913259L127.74575679873837,169.9971211257422L127.85164538034871,169.99999969370373L127.95753329265935,170L128.06342166600902,170L128.16931050040216,169.9973953458202L128.27519979584324,169.995792496678L128.38108955233218,169.99486669733403L128.4869797698779,169.9942974015741L128.59287044848043,169.99406317382446L128.6987615881397,169.99511135845984L128.80465318885572,169.997402465083L128.9105458407832,169.99758659339878L129.01643836363934,169.9947252850286L129.12233134755232,169.99360411034004L129.22822479254864,169.99523090724517L129.33411869861501,169.99790469350054L129.44002174991684,170L129.54591657813668,170L129.6518118674443,170L129.75770030462252,170L129.86359651610576,170L129.9694931886724,170L130.07539032233566,170L130.18128791709563,169.99700313367802L130.28718597295224,169.9944853791994L130.3930844899144,169.99333627829162L130.49898346797326,169.99456417249817L130.60488290714204,169.99699144433396L130.71079035215502,170L130.81669071354818,170L130.92259153605133,170L131.02849281967772,170L136.5359948227116,170L136.6419205493867,170L136.74784673732694,170L136.85377338652788,170L136.95970049699395,169.99743066646485L137.06562806873842,169.98090163788208L137.17155610175246,169.96306922951004L137.27748459604052,169.95142512286057L137.2774848275575,169.95142512763357L137.3834135516026,169.9507551597965L137.38341368778902,169.9507551502866L137.4893429684475,169.9593108700867L137.59527298276615,169.975466515736L137.70120332217678,169.99401931654336L137.8071383582824,169.9994845868537L137.9130696202765,170L138.0190017884425,170L138.1249339730289,170L138.44273047099693,170L138.548664500799,170L138.6545989919061,170L138.76053394433154,170L138.8664693580709,169.99724957651983L138.97240523312414,169.99636190670896L139.07834156950454,169.99607160456648L139.18427836720772,169.99623448918473L139.29021562623367,169.99708444955425L139.39615334659123,169.99854482247952L139.5020935710773,170L139.60803221409813,170L139.71397131845941,170L139.81991088416123,170L140.24367365145525,170L140.34961552389055,170L140.45555785768852,170L140.56150065284027,170L140.66744390935023,169.9960197690969L140.77338762722732,169.9924197423877L140.87933180647147,169.9879783543491L140.98527644708273,169.98418104441112L141.09122154906996,169.98792416766395L141.1971672213734,169.99069165846888L141.20776044541915,169.9910770727099L141.3031135820347,169.98332519765367L141.31370693153426,169.98339259827674L141.40906006814978,169.98009005599414L141.51500701564527,169.97645154619272L141.52560128791887,169.97598211836205L141.62095442453443,169.97604124048604L141.63154915818842,169.9758917600133L141.72690273967976,169.9817050270928L141.83285107133855,169.9888587349261L141.93879986439106,169.9953312671369L142.04291565645082,169.99939070779212L142.13345182984156,170L142.23940200709288,170L142.34535264574674,170L142.4513037458076,170L142.7127968438187,170L142.7864086805225,170L142.8923616262335,170L142.99831503336918,170L143.10426890192963,169.99820230285832L143.21022323191036,169.98917345624017L143.31617802332022,169.9757666809584L143.42213327615923,169.95722055714646L143.52808899043185,169.95297935886958L143.6340451661469,169.9659970000824L143.74000180329116,169.98521594976324L143.8459589563613,169.99457603433737L143.93796110417097,169.99959600229232L144.04391958710272,170L144.14987853148583,170L144.26979560136863,170L146.26585066739685,170L146.37181884138712,170L146.47778747688193,170L146.58375657389007,170L146.6897261324161,169.99633862818192L146.79569615245106,169.98980026773464L146.90166663400825,169.98280970855282L147.0076375770877,169.977940464128L147.1136089816983,169.97706360432423L147.21958084782668,169.98163127010247L147.32555317549063,169.9890682917914L147.4315259646768,169.9951364438657L147.53749921541188,169.99861522711885L147.66073436375635,170L147.76670853756252,170L147.87268317291307,170L147.97865826981248,170L153.17200188760182,170L153.27800006521545,170L153.3839987045065,170L153.48999780548826,170L153.59599736815628,169.9962073704639L153.70199739251504,169.99349964837174L153.794074456841,169.99334286488764L153.80799787856446,169.99331915689277L153.90007586628963,169.99521769963198L154.00607773743337,169.9975405033142L154.02000098933163,169.9978483218785L154.11208007029,169.99756437094288L154.21808286484622,169.98978954695207L154.3240861211153,169.96794518535026L154.43008983909286,169.941169577607L154.53609401879214,169.91998442130492L154.54816789471238,169.91882427006033L154.64209866020872,169.92650909738336L154.7481037633382,169.94893904903205L154.85410932819826,169.97285477385844L154.96011535477567,169.99058056755206L155.08004130401554,169.99439106620775L155.1030667297879,169.9949269470605L155.18604779232794,169.99465585611418L155.25443522038245,169.99516669640838L155.29205474237102,169.9951622219922L155.3150801681434,169.99547016868462L155.3604421704255,169.9960768492605L155.42108757991704,169.99701971606112L155.46644958219915,169.99788601980626L155.57245745571228,169.99950474249135L155.61007908015463,170L155.71608787714672,169.9982832373321L155.82209713588273,169.9964931990601L155.92810685636704,169.99593058549527L156.0341170385953,169.99683436093434L156.14012768258516,169.99817352687742L156.20851439339097,169.99918993043474L156.2630183280665,170L156.31452549912922,170L156.36902989556637,170L156.4205370666291,170L156.47504192482344,170L156.52654909588617,170L156.5810544158466,169.9978919587949L156.63256158690933,169.994677912071L156.73857453969416,169.98489659024128L156.84458795424945,169.97620072457002L156.95060183057524,169.96905386869238L156.9882305564454,169.96865242134575L157.05661616868045,169.9691662016303L157.16263096855616,169.97839800512133L157.26864623021564,169.98915737578025L157.32857164888847,169.99453638081386L157.3746619536501,169.9976623333778L157.4308601293043,170L157.53687677631524,170L157.6428938851188,170L157.74891145571067,170L163.26077238179494,170L163.3668144312332,170L163.4728569426104,170L163.5788999159266,170L163.6849433511862,170L163.79098724839366,169.82429769965762L163.89703160754448,169.34428278620678L164.00307642865204,168.28387475888314L164.10912171171182,166.1616394295548L164.2151674567239,163.7696080309004L164.3212136636971,162.18434507644758L164.32448588381618,162.16269641104452L164.42726033263588,163.56831518217928L164.53330746353137,166.02318549202013L164.63935505639685,168.3323285335066L164.74540311123232,169.63501262433277L164.8514516280422,169.99123768664737L164.94063242957364,170L164.99537742757033,170L165.04668187033684,170L165.10142733030796,170L165.1527317730745,170L165.20747769503336,170L165.25878213779984,170L165.8950940279433,170L166.0011476266227,170L166.107201687312,170L166.21325621000676,170L166.31931119470698,169.9977635404377L166.425366641426,169.9911204374414L166.53142255015487,169.98360377724592L166.63747892090257,169.97604919872614L166.63747898899578,169.9760491938762L166.74353575367343,169.9784631021007L166.74353594433447,169.97846310151942L166.84959304846305,169.98566425812197L166.90434636251825,169.9899333222702L166.95565080528473,169.99393348380252L166.95565160878485,169.9939335053233L167.01040458136313,169.99369975841154L167.0617095552568,169.99348073141394L167.06171018625406,169.9934807405549L167.11646326224454,169.99271563916952L167.16776823613822,169.99199872042317L167.16776885805638,169.9919987224129L167.22252240515797,169.98778903435908L167.27382737905165,169.9823793456047L167.3285820101079,169.9721573822837L167.37988725637453,169.96040114801224L167.4346420770988,169.9463653321364L167.48594732336542,169.93223342354688L167.5407026061262,169.9110110665935L167.59200820193803,169.89163203653783L167.64676359720337,169.8797023145676L167.69806919301521,169.8743653002631L167.69806920209433,169.87436529985135L167.75282505033036,169.879422394839L167.8041306461422,169.88687366607562L167.85888696550268,169.9059516527865L167.91019256131452,169.92314417841803L167.96494934272923,169.93935348812857L168.01625494762018,169.95354150393047L168.07101218201004,169.96883685887104L168.122317786901,169.98121066568768L168.22838146048343,169.99427955531638L168.33444522388598,169.99837015008194L168.33444591389738,169.99837016068375L168.44051013936303,169.99436515587612L168.44051032094498,169.99436515704136L168.54657482689177,169.9900361718224L168.65263997649248,169.9889068669551L168.65264015807443,169.9889068664895L168.75870558816518,169.98926957074656L168.86477166191423,169.9910505955203L168.97083819773528,169.99424168905506L169.0769053772191,169.99788566522457L169.18298518931795,169.99999999068163L169.28905311139036,170L169.39512149554358,170L169.50119080936886,170L179.049278357123,170L179.1553892648372,170L179.2615006348982,170L179.3676124672883,170L179.4737247620252,169.99732987561188L179.5798375191089,169.9953885663073L179.68595073853947,169.9950401111033L179.79206442031685,169.9962153410586L179.8981785644543,169.9976782864757L179.89817922722838,169.9976783009767L180.00429383371713,169.99758583655904L180.110408902566,169.9917798915071L180.21652443378383,169.9817944337098L180.32264042735736,169.97279675922655L180.3226409721032,169.97279677125954L180.42875688329985,169.97192366345274L180.4287574325852,169.97192368138525L180.53487380161133,169.9703603747968L180.6409912640081,169.96231282753197L180.74710927502974,169.94902938948832L180.74710957463995,169.94902935387353L180.85322787554097,169.95159896665308L180.95934664335945,169.96536295975173L181.06546587356019,169.98497285856067L181.17158556614322,169.98838777779727L181.27770572112627,169.98976272624364L181.35910609948252,169.992230011554L181.38382730087145,169.9919943229799L181.46522717924785,169.99340754883508L181.57134872140435,169.99513624440925L181.596082556357,169.9955311486639L181.67747072596086,169.99522739334748L181.70219192734976,169.99513512936875L181.80831439430628,169.99576695292117L181.91443732366727,169.99727047063644L182.02057389828624,170L182.12669775246943,170L182.23282206906146,170L182.33894684806685,170L192.4229088925906,170L192.52907807598416,170L192.635247722057,170L192.74141783080466,170L192.8475884022361,169.99598240964127L192.95375943634684,169.98926604819232L193.05993093314578,169.98275690198068L193.16610289264173,169.97935720233426L193.2722753148214,169.981033806888L193.3784482087817,169.97993522204868L193.48462196945437,169.97583337508755L193.48462230084144,169.97583339467852L193.59079577972517,169.97277759148918L193.59079624275913,169.97277760093596L193.69697005270632,169.96497971497308L193.80314478838892,169.9583405724612L193.90931998678187,169.95278988893892L193.90932044981585,169.95278985857482L194.0154959792722,169.9629140600487L194.12167210309028,169.9778512263116L194.22784882126555,169.9876499314313L194.33389181310793,169.99200529090507L194.44006932508358,169.99259800895933L194.54624729978286,169.99571790522353L194.65242573720582,169.99999295014916L194.7587796732806,170L194.86495903616856,170L194.971138861789,170L204.95408060865014,170L205.06030440638202,170L205.1665286671035,170L205.27275339081902,170L205.37897857754194,169.99745798585676L205.48520422725892,169.99511258630338L205.59143033998322,169.9931778945839L205.6976569157149,169.99205145785356L205.80388395445397,169.9921071359717L205.9101114562048,169.99380164568586L206.01633942097183,169.99458734602095L206.01634004742954,169.99458735599984L206.1225684252822,169.99201935138387L206.22879731608614,169.9863206305007L206.33502666991518,169.98054027792503L206.33502671985022,169.98054027611173L206.44125648676487,169.98828720377273L206.5474867666485,169.99432525128398L206.63599718640387,169.99974077870624L206.74222839235543,170L206.8484600613365,170L206.95469219336042,170L218.66078844291602,170L218.76707198901616,170L218.87335599845616,170L218.97964047124492,170L219.08592540737348,169.99630365027144L219.1922108068552,169.99384538944864L219.29849666968562,169.99260656778935L219.40478299586923,169.99311466190886L219.51106978541034,169.99508436059776L219.61735703831354,169.99746375464372L219.72365817348435,170L219.82994635311155,170L219.93623499610516,170L220.04252410246966,170L231.20545946133953,170L231.31179770024042,170L231.41813640279148,170L231.5244755690104,170L231.63081519888837,169.9976859545435L231.73715529243427,169.9949280545452L231.84349584965247,169.99286516491395L231.949836870543,169.993225586905L231.94983729726056,169.9932255959862L232.05617835510589,169.99315733211233L232.05617878182343,169.99315733238527L232.1625203033411,169.99005932974632L232.25121957804896,169.9893243320073L232.26886320553317,169.98875804361515L232.35756245365542,169.9893400568812L232.46390579294308,169.99249510955033L232.5680200215938,169.99757963155L232.6743642882616,169.99945356677932L232.69423822547967,169.9998148967638L232.78070901862387,169.99801382026965L232.8870542126851,169.9965730799313L233.0132738076589,169.99556630818702L233.11961992911796,169.99605027515577L233.2259665142804,169.9975962044008L233.3323144029671,170L233.4386619155496,170L233.5450098918443,169.99686844993488L233.6513583318512,169.99630830852635L233.7577072355748,169.99611970608427L233.8640566030239,169.99610124079726L233.9704064341941,169.9968782009787L234.07323459774133,170L234.17958535636257,170L234.28593657871824,170L234.39228826480831,170L241.497652976463,170L241.6040362027959,170L241.7104198930538,170L241.81680404722786,170L241.92318866532693,169.99808269287877L242.0295737473599,169.939390425972L242.13595929332232,169.81584131313096L242.20111489103138,169.71125212295559" style="stroke: #1f77b4;"></path></g><g class="filename"><path class="profile line" d="M1.559777021791947,170L1.980535343342295,170L2.085869090044891,170L2.191203294581356,170L2.296537956942823,170L2.4018730771425925,169.99865315472042L2.507208655180663,169.9866142634418L2.6125446910526033,169.97328862806893L2.717881184767278,169.95709336274857L2.823218136329121,169.93383005524504L2.8232182770551275,169.93383002545036L2.9285555457425656,169.94103237164893L2.9285556773894745,169.94103237151074L3.0338934129943116,169.94389293758434L3.033894239192157,169.9438929454941L3.1392318697534347,169.93824841107704L3.244571047662412,169.9274967322507L3.3499102884866945,169.9233493162994L3.349910973958533,169.92334937155707L3.455249987171445,169.91212540031526L3.5605904433268707,169.89257552629536L3.560590829188502,169.89257546514867L3.6659310577414232,169.89342668282168L3.6659313936680196,169.8934266257974L3.771272130025309,169.92087071531557L3.8766139961006925,169.9462479719571L3.98195598412768,169.96572067562877L4.087298430028435,169.97806829601024L4.192641333811823,169.98686803552525L4.297984745412878,169.99824178528812L4.4033294864898975,169.9999999381793L4.50867376392562,170L4.614018499252841,170L4.719363692467128,170L4.824710337738491,170L4.930056446749077,170L5.035403013655597,170L5.1407500384713485,170L5.246097521187466,170L5.351445461817249,170L5.456793860351832,170L5.559023810860295,170L5.664373125231075,170L5.76972289751552,170L5.875073127722497,170L5.983545931261515,170L6.08889707731799,170L6.1942486813058615,170L6.299599690054289,170L6.40495220990939,170L6.5103051877003235,170L6.61565862343152,170L6.7210125171118476,170L6.826366868728006,170L6.931721678297729,170L7.037076945816582,170L7.142432671288999,170L7.247789335911565,170L7.3531459772999765,170L7.458503076646385,170L7.563860633964089,170L7.669219212143817,170L7.774577685395249,170L7.879936616613544,170L7.9852960058120015,170L8.087533746660208,170L8.192894051810125,169.86490540484107L8.196016634788709,169.86077931064554L8.298254814944638,169.99587390844934L8.403616036063747,170L8.508977715171884,170L8.614339852273485,169.54313056184225L8.719702447368546,167.97490920144418L8.825065500452638,167.229618065853L8.930429011539058,163.14831271869397L9.035792980627805,147.16454460503218L9.141157407718884,105.09594905547578L9.246522292816723,55.828890301848645L9.351887635925754,15.96038066450302L9.35546434626711,15.454545454545467L9.457253437045983,37.86007360115647L9.562619696172973,88.23012836806036L9.667986413324458,135.27154816170113L9.77335358849157,160.45697598283226L9.878721221687611,169.05036630073738L9.984089312903711,169.99609448487286L10.092583504783079,170L10.197952512057036,170L10.303321977368784,170L10.408691900709462,170L10.514062282092366,170L10.619433121517497,170L10.724804418984855,170L10.83017646502555,170L10.935548678586228,170L11.040921350202433,170L11.146294488953261,170L11.25166858056598,170L11.357042626348765,170L11.462417130200373,170L11.567792128423898,170L11.673168088610577,170L11.778543966659797,170L11.883920302782277,170L11.989297096978015,170L12.094674780512996,170L12.20005249086412,170L12.305430659306234,170L12.410809349388588,170L12.516188987824314,170L12.621568530530539,170L12.726948531332187,170L12.832328990229259,170L12.937710379339244,170L13.043091754436032,170L13.148473587637111,170L13.25385600151916,170L13.35923875093769,170L13.464621958469374,170L13.570006650056634,170L13.675390773823501,170L13.780775355707958,170L13.886160395718873,170L13.991545893856243,170L14.09693185012007,170L14.202318695771904,170L14.307705568301946,170L14.413092898967308,170L14.518480919289408,170L14.623869529402604,170L14.72925823449167,169.99908700799267L14.83464739772936,169.9906344085104L14.940037019120103,169.9828532956287L15.045427098663904,169.966060560693L15.150817890571048,169.93897097672712L15.25620888642539,169.90283424535264L15.361600680907804,169.8740710811718L15.466992593081558,169.85725518039095L15.466993024338676,169.85725509281502L15.572384963430537,169.87192116853205L15.677777996221124,169.91585711136153L15.783171428172798,169.95471678746804L15.888565173025276,169.9776281304141L15.993959407834245,169.98970127815778L16.068952478321073,169.99471474769175L16.128913938970513,170L16.17434713953286,170L16.23430905836639,170L16.27974225892873,170L16.339704635946347,170L16.385137836508694,170L16.445100671710396,170L16.52093857135164,170L16.626335523501595,170L16.73173293384007,170L16.93141055819007,170L17.036808884932192,170L17.1422076698717,170L17.24760691302189,170L17.6499205067935,170L17.70988884044365,170L17.755322041005993,170L17.815290832880127,170L17.860724033442473,170L17.920693283545027,170L17.96612648410737,170L18.026096192433908,169.99619572979026L18.071529392996258,169.99301926162926L18.131499559551212,169.98876294325152L18.17693276011356,169.98263037362915L18.23690338490137,169.96365429817337L18.282336585463714,169.94440282562837L18.34230766848881,169.90794844656668L18.387740869051157,169.87571642735574L18.447712410309105,169.83192589371683L18.49314561087145,169.79811667499703L18.553117610375555,169.7707110376707L18.598550810937898,169.75954611265803L18.617838771873927,169.75819257057861L18.658523268679282,169.7770124416078L18.70395646924163,169.80484630846775L18.763929385229165,169.84819307350577L18.809362585791515,169.8845118065487L18.869335960029638,169.93093538600633L18.91476916059198,169.96391598746288L18.97474299308069,169.98503286232435L19.039464154579065,169.99561160929133L19.156004084105597,169.99999934289647L19.26141249192614,170L19.36682135801057,170L19.472230682350013,170L19.577640464962208,170L19.68305070584272,169.9969189030869L19.78846140499599,169.9945393139199L19.893872562422,169.9923987950706L19.9992841781252,169.99252577804455L20.104696252105583,169.99516259884174L20.210147211650913,170L20.315560202203397,170L20.42097365104193,170L20.52638755817538,170L29.066409983469445,170L29.17186147947061,170L29.277313433983913,170L29.382765847009356,170L29.488218718551376,169.99720907636635L29.59367204860997,169.99413652897425L29.699125837194003,169.99278404705223L29.804580084303478,169.99404845171873L29.910034789942827,169.9964018590913L30.015500944354777,170L30.120956567049436,170L30.22641264828284,170L30.331869188050547,170L37.50398927724918,170L37.609477462542664,170L37.71496610656107,170L37.82045520930886,170L37.92594477078157,169.99512647431177L38.03143479098809,169.9914477779861L38.136925269932824,169.98985863721015L38.24241620760694,169.99133498185066L38.24241669787818,169.99133499689654L38.34790760402814,169.99019281863767L38.453399949463254,169.99291584576875L38.45340093454531,169.99291588993387L38.55889226336536,169.99221799633645L38.664385036019,169.9938857990992L38.76987826742417,169.99619291674264L38.87537294266734,169.99999826165077L38.98086709158,170L39.086361699248634,169.99696627526276L39.19185676568208,169.99413890558807L39.297352290880376,169.99224544923933L39.40284827484349,169.9928998586311L39.50834471757588,169.9954511354806L39.61385565990135,170L39.71935302018555,170L39.824850839239026,170L39.930349117070634,170L47.10530483475209,170L47.210834774813584,170L47.316365173843835,170L47.421896031838415,170L47.52742734880618,169.99545853206877L47.632959124751565,169.99364491212614L47.73849135967014,169.99323089866286L47.844024053566336,169.99504382632173L47.94955720644903,169.99800505333238L48.05509824501084,170L48.16063231586651,170L48.26616684570866,170L48.371701834546165,170L49.954777939306425,170L50.06032027238436,170L50.165863064501984,170L50.27140631565929,170L50.37695002586073,169.99616291585818L50.48249419510628,169.9882333502729L50.58803882339594,169.9822204894227L50.69358391074303,169.97807198184174L50.69358447818661,169.97807198370276L50.79912945714311,169.97669683177125L50.904675526149845,169.9868369066289L51.01022219040933,169.98936015165333L51.115769418131414,169.9941916547557L51.22131680077446,169.99558905978714L51.326864642483805,169.9975176161278L51.43241425065385,169.99999962083194L51.53796301050462,170L51.64351222943054,170L51.74906190743162,170L51.85461204451671,169.99420812033844L51.96016264068582,169.98969375418966L52.06571369593451,169.97803247480732L52.1712652102761,169.97844731052135L52.276817183710556,169.98562081248224L52.38236961623791,169.99213753263007L52.48792250785814,169.99622682737956L52.59349365815018,170L52.699047467973905,170L52.80460173690382,170L52.91015646493549,170L53.015695786359856,170L53.12125143261275,170L53.22680753798957,170L53.332364102477,170L53.43792112609278,169.9970725761939L53.54347860882361,169.994632716677L53.6490365506828,169.99300747285756L53.75459495167033,169.99378799371084L53.86015381178621,169.99644183048648L53.96574825352682,170L54.071308031917134,170L54.176868269444654,170L54.2824289661094,170L64.4183730832921,170L64.5239783293623,170L64.62958403484014,170L64.73519019972119,170L64.84079682400987,170L64.94640390771062,169.99440731830842L65.05201145082344,169.9884459182161L65.15761945335275,169.99153028185955L65.2632279152986,169.9939163125147L65.36883683666537,169.9963118962665L65.47446659095162,170L65.58007643117357,170L65.68568673082088,170L65.79127879150619,170L65.89689001002196,170L66.00250168797199,170L66.10811382536512,170L66.21372642220136,169.99681823659094L66.31933947848513,169.9935567090961L66.424952994212,169.9922208708076L66.53056696939527,169.9937762185982L66.63618140402608,169.99658655395234L66.74180418330921,170L66.8474195368617,170L66.95303534987059,170L67.05865162234473,170L72.12877308301123,170L72.2344118724843,170L72.34005112156007,170L72.44569083022967,170L72.55133099851084,169.99518852672895L72.65697162638584,169.99128075627522L72.76261271387682,169.98968763106822L72.86825426097937,169.99155828921832L72.97389626769349,169.99509778881887L73.07954243829082,170L73.18518536424136,170L73.2908287498079,170L73.39647259499931,170L75.08683662912215,170L75.19248828833076,170L75.298140407213,170L75.40379298576886,170L75.50944602399836,169.99592923471533L75.61509952191035,169.9936111547769L75.72075347950927,169.9926381182475L75.82640789679068,169.99333419515585L75.93206277375458,169.9947435177146L76.03772109289771,170L76.14337688924876,170L76.2490331452956,170L76.3546898610471,170L77.19995985957208,170L77.30562071273202,170L77.4112820256099,170L77.51694379821906,170L77.62260603055505,169.9963766952841L77.72826872262671,169.98817203078067L77.83393187442965,169.96895017721894L77.93959548597714,169.9541840081696L78.04525955726474,169.94502003940832L78.04525973884668,169.94502002804012L78.1509240882969,169.95364014836997L78.25658907907363,169.97817781824097L78.3622547111813,169.99858512641973L78.37527215278122,169.99900892432856L78.46792140680678,169.9987879665574L78.57358777683935,169.99084007966803L78.67925460662977,169.98374223944825L78.78492189618248,169.99025607516774L78.89058964549307,169.99571222183687L78.99626179944251,170L79.10193046829096,170L79.20759959691057,170L79.31326918530134,170L80.79269119203408,170L80.8983676773424,170L81.00404462247066,170L81.10972202741883,170L81.21539989218249,169.99749787189103L81.32107821677494,169.99205721938404L81.42675700119175,169.98516955512034L81.53243624543734,169.9817699522051L81.63811594951615,169.98204197498828L81.63811617195402,169.98204196807728L81.74379633587048,169.99047934520226L81.84947695961576,169.99499889967365L81.95515832919908,169.99964220231894L82.06083987263737,170L82.16652187591332,170L82.2722096139957,170L82.37789253696911,170L82.48357591980236,170L82.58925976248656,170L85.44289730495034,170L85.54859402468921,170L85.65429120435883,170L85.75998884396807,170L85.86568694351249,170L85.97138550300096,170L86.07708452242905,170L86.18278400181003,170L86.2884839411351,170L86.3919455712348,170L86.49764643046568,170L86.60334774965834,170L86.69632945715318,170L86.80203169626496,169.9156692772478L86.90773439534298,169.71747774674867L87.01343755439164,169.44631483621347L87.11914117341537,168.78774508924542L87.22484525240976,165.81177202080673L87.3305497913748,156.5995635613221L87.43625479031935,141.9211521721462L87.5419602492523,125.71729495070545L87.64766616816031,121.63225970110929L87.75337254706115,134.75052051069233L87.85907938595035,150.35157138672415L87.96478668483238,162.84027442583036L88.07049444370722,168.37754953614586L88.1762026625793,169.88667387369108L88.29687401367441,170L88.40258315254985,170L88.50829275143141,170L88.61400281031909,170L88.71971332922173,170L88.82542430813494,170L88.93113574706756,170L89.03684764601071,170L89.14256000498216,170L89.24827282397744,170L89.35398610300102,170L89.45970034140322,170L89.56541454048333,170L89.6711291996006,170L89.77684435053186,170L89.84276552605343,170L89.88255998874199,170L89.94848156528657,170L89.98827646831135,170L90.05419806457458,170L90.09399296759938,170L90.15991502390418,170L90.19971008127362,170L90.3054275006581,170L90.41114578865239,170L90.51686412814219,170L90.62258292769131,170L90.72830229625333,170L90.83402253343847,170L90.93974271318325,170L91.04546335299179,170L91.15118445288178,170L91.25690601283996,170L91.36262822808021,170L91.46835070819247,170L91.57407401155896,169.9996569186906L91.65829611000582,169.99267569370107L91.76401997038025,169.9835944407367L91.86974429084503,169.9753258764128L91.95717372249084,169.97249572273518L91.9969711177278,169.97177440570718L92.06289896314514,169.9756958832495L92.10269635838213,169.9780630862221L92.1686246638987,169.98416696856805L92.20842205913567,169.9878515561865L92.27435082475145,169.9898741822238L92.31414821998841,169.9886354398553L92.38007744571227,169.97586437054923L92.41987592136181,169.9608529776661L92.48580452678118,169.9019346460656L92.5256030024307,169.8601125756976L92.59153206795372,169.75859357333923L92.63133054360324,169.69600311219426L92.6972600692432,169.59019435406947L92.73705854489273,169.53349351861948L92.80298853064077,169.4676035916276L92.8427870062903,169.4469743075648L92.8427870153694,169.44697430750364L92.90871745216414,169.51070963138054L92.94851592781367,169.55641394849866L93.01444683380446,169.66600348329857L93.05424530945399,169.73156711930508L93.12017667557058,169.83487562302304L93.15997515122011,169.89115659440276L93.22590697745807,169.94734507540838L93.26570545310761,169.97485552773574L93.33163773947582,169.98788922203346L93.37143737271023,169.99436034199366L93.47716859485821,169.99960453922523L93.58290027713645,169.98819229080377L93.68863241955378,169.97355394455766L93.79436502211023,169.96758673386887L93.9000980848102,169.9824198441887L94.0058316076493,169.99157802542555L94.11156938116387,169.99999999340753L94.21730382430334,170L94.32303872759078,170L94.42877409103951,170L96.1206024258754,170L96.22634561236724,170L96.33208925905582,170L96.43783336595442,170L96.54357793305864,169.99164061486695L96.64932296037733,169.97464413231498L96.75506844790605,169.94844749859487L96.86081439565369,169.94760565104693L96.86081445920739,169.94760564882665L96.96656080362024,169.96529394527906L97.07230767180567,169.98337945858057L97.16689628587203,169.99580181535313L97.23940789725577,170L97.28381209039053,170L97.34515614612454,170L97.38956033925929,170L97.45090485522549,170L97.49530904836026,170L97.55665402456309,170L102.78333040086453,170L102.88910258535444,170L102.99487523022286,170L103.1006483354609,170L103.20642190107745,169.9970894574888L103.31219592706806,169.9942001336583L103.41797041344603,169.99198023014296L103.52374536020693,169.99218235656232L103.62952076735962,169.99486760997152L103.6295213438823,169.99486762732923L103.73529663489526,169.99374733515353L103.84107353934981,169.99210620323387L103.8410782650199,169.99210623403502L103.9468503276779,169.99084808311812L103.94685070899997,169.9908480909469L104.05262757640223,169.98767199831573L104.05262795772431,169.98767199225423L104.15840528552721,169.99025715915394L104.26418383637495,169.99307721082386L104.36996246631456,169.99414583104598L104.47574155665485,169.99646380486217L104.58152576045084,170L104.68730577161463,170L104.79308624320123,170L104.89886717520625,170L106.69721274879262,170L106.80300196879868,170L106.90879164928077,170L107.01458179023446,170L107.12037239166418,169.99654258397646L107.22616345356991,169.99178954396163L107.33195497596056,169.9880202019605L107.43774695883165,169.98690395754784L107.54353940218763,169.98999271257367L107.54353981074702,169.98999270699875L107.64933230603296,169.9901442523593L107.64933302328164,169.99014426465058L107.75512607893141,169.98998126708457L107.75513702832264,169.98998159309062L107.86091990375982,169.9897234639985L107.96671418909085,169.9916405932807L108.07250924360937,169.9948011547619L108.1783044499368,169.9964291532039L108.28154720629041,170L108.38734333363193,170L108.49313992148497,170L108.59893696985394,170L115.90260914973571,170L116.00843844064758,170L116.11426819226158,170L116.22009840458212,170L116.3259290776092,169.9952932444737L116.43176021135172,169.99304703889203L116.53759180580079,169.98795933342413L116.64342386096969,169.98534156340466L116.74925637685845,169.98450601203888L116.81709073279971,169.99163378582492L116.92292417012817,169.9953603661796L117.02875806818979,169.99935452373964L117.13459242698013,170L117.25487688617511,170L117.36071216643175,170L118.02585502642668,170L118.08070152313543,170L118.12255745882219,170L118.1865404893681,170L118.22839642505485,170L118.29237991636052,170L118.33423585204727,170L118.39821980410827,169.99974243018985L118.44007573979502,169.9966524824974L118.50406015262017,169.98117721402085L118.54591608830694,169.9616558943209L118.60990096190515,169.91674369237708L118.6517568975919,169.87771597739223L118.71574223195874,169.80218057553128L118.75759816764548,169.75240816799354L118.82158396278093,169.67501977745295L118.86343989846769,169.63868102994644L118.92742615438063,169.61778465968743L118.93384702058725,169.61747220487734L118.96928209006738,169.62781795312856L119.03326880675336,169.69042644017978L119.07512474244011,169.73663650457382L119.13911191991244,169.80950777985237L119.18096785559919,169.85444923013046L119.244955493849,169.91716314494275L119.28681142953576,169.9502621789948L119.35079952857635,169.98113012501392L119.3926554642631,169.99450431094962L119.50107102846094,169.99999980181292L119.60691598476099,170L119.71276140186067,170L119.81860727975558,170L121.93562160898445,170L122.04147716422167,170L122.14733318031175,170L122.2531896572591,170L122.35904659506816,169.99540375360965L122.46490399373894,169.99215389955972L122.57076185327587,169.99057373646212L122.67662017368336,169.99236593019617L122.782478954957,169.99355129202664L122.80371166883333,169.9937721538352L122.88833897791689,169.98897456513112L122.99419868094056,169.97367632793606L123.1000588448481,169.95562802572883L123.12129216055153,169.95343886990614L123.20591946963509,169.95532550057558L123.31178055531039,169.96642227904226L123.41764210187401,169.98144083224318L123.52351174938622,169.99667097299687L123.62937421772646,169.99905845996304L123.73523100041507,170L123.84109439055409,170L123.94695824159028,170L124.0528225535281,170L124.1586873263764,169.9981066707359L124.26455256013072,169.9901377674893L124.37041825479996,169.98222754459334L124.47628441037524,169.985803933852L124.58215102687431,169.99249975215807L124.68801810429271,169.99744999163866L124.79389159397867,170L124.89975959324464,170L125.00562805343438,170L125.11149697455673,170L128.4995458375153,170L128.6054299708291,170L128.71131456516417,170L128.81719962052495,170L128.9230851369115,169.9957298090411L129.02897111432378,169.9915571001009L129.13485755277068,169.98323504181977L129.24074445225216,169.97481449020844L129.34663181276827,169.97035168818744L129.3466320034293,169.97035168259504L129.45251963432784,169.98178371048937L129.55840810759193,169.99244122613626L129.6133473574748,169.99546626793844L129.66429755032448,169.9950014734754L129.71923656216921,169.99189236712854L129.7701867550189,169.9890089833599L129.82512622791594,169.98390616329186L129.87607642076566,169.9791738591755L129.93101635471064,169.97976115405103L129.98196654756032,169.98030580240047L130.08785713541616,169.98390320467664L130.19374818432436,169.9867938081513L130.28160064487153,169.99126258682452L130.38749307697222,169.99460504653086L130.4933859701474,169.9991863433474L130.51142515969272,169.99999959601215L130.61731805286792,169.99470839099558L130.72321140710872,169.99118442297248L130.8291052224285,169.99301757202508L130.93499949882718,169.99614350099336L131.0227280613769,170L131.12862325993348,170L131.23451891957782,170L131.34041504031003,170L137.28950891632428,170L137.3954313234988,170L137.50135419191187,170L137.60727752157675,170L137.7132013124846,169.99488695041975L137.81912556464428,169.9864605395808L137.907034408943,169.98171363245342L137.92505027806024,169.98074081045587L138.0129600448759,169.9830825948178L138.08594087249236,169.98737022761546L138.13690108866533,169.99090049649277L138.1369015426202,169.9909005160831L138.19186696968595,169.9897387926132L138.2428271858589,169.98853053475258L138.2428276398138,169.9885305216663L138.29779352814026,169.9902872655037L138.3307397202521,169.99134024621085L138.3487541982681,169.9905476927041L138.40372054786855,169.98513285321732L138.45468121799638,169.9790854915663L138.5096480288664,169.9723467438179L138.56060869899423,169.96262131821337L138.6155759711338,169.9452793421061L138.66653722232385,169.92980600614425L138.72150437467965,169.9194237863008L138.7724656258697,169.90993772062208L138.82743323949947,169.9034763640834L138.86038173798573,169.90196857136658L138.87839449068957,169.90207394263484L138.93336256560218,169.906241431479L138.98432381679226,169.91577269411331L139.03929235298773,169.92604362403588L139.0902536041778,169.93735406961318L139.1452226016606,169.9529115253089L139.25115331162075,169.97888179653327L139.36719207887424,169.99398895040665L139.4080534785326,169.99766321175002L139.47312325012612,169.99909864428406L139.5139827187341,170L139.5790548826697,170L139.61991481258275,170L139.7131728322755,170L139.83178038417293,170L142.374311176475,170L142.48025572634404,170L142.58620073758462,170L142.69214621020114,170L142.79809214419805,169.99644142512577L142.90403853957537,169.99075906831854L143.00998539632863,169.98342715129033L143.11593271447117,169.98137322765385L143.22188049400293,169.9910937867301L143.32782873491956,169.99496891084257L143.48962859768218,170L143.5955777613906,170L143.70152738649716,170L143.80747747300626,170L144.13455150445438,170L144.23128243311257,170L144.28138605856412,170L144.3372348266699,170L144.38733891353291,170L144.4431876816387,170L144.49329222993086,169.99962049003906L144.54914099803662,169.99854018253882L144.59924600774463,169.99420192000264L144.6550947758504,169.98357020435265L144.70520024698757,169.9683596740524L144.76104901509333,169.9487578243147L144.81115494765967,169.9299286169504L144.86700371576543,169.90703771339622L144.9171101097609,169.88561102676016L144.97295887786672,169.86316833977588L145.0230657332869,169.8507900196807L145.0789145013927,169.84832826496506L145.12902181825976,169.85890348985075L145.18487058636552,169.88185068451907L145.23497836467064,169.90790478404128L145.29082713277643,169.93787925221582L145.34093814164865,169.96160512203235L145.39678414062976,169.9809570360329L145.44689561094,169.99187875192106L145.50274160992115,169.99773974659226L145.55285354167827,169.99999949218716L145.65881193387224,170L145.7647725851744,170L145.8707412245083,170L146.61245822926472,170L146.71842123609608,170L146.82438470440533,170L146.9303486342014,170L147.0363130254798,169.99540053325862L147.14227787824944,169.9927933045788L147.24824319250587,169.9921240752836L147.35420896824908,169.99354954990727L147.46017520549233,169.99589428250843L147.5687950842705,170L147.67476224450954,170L147.7807298662531,170L147.88404656713206,170L147.9900151118935,170L148.0959841181595,170L148.2019535859433,169.99811877576093L148.3079235152449,169.98651387769058L148.41389390605988,169.96239900850543L148.51986475840602,169.92645020834604L148.62583607226995,169.903958039945L148.6356686119681,169.90300388844116L148.73180784766498,169.90598925373732L148.83778008458674,169.93313604819605L148.9437527830396,169.96694632205381L149.04972594303686,169.9895192619336L149.1557067052752,169.9999999411288L149.2616807883436,170L149.36765533295193,170L149.47363033911358,170L153.713009083965,170L153.81900301581953,170L153.92499740932928,170L154.03099226450314,170L154.13698758134112,169.99726854700006L154.2429833598432,169.9936257236554L154.34897960001828,169.98623316426867L154.4549763018619,169.98390866113547L154.5609734653785,169.98501987259917L154.66697109057694,169.98828031216945L154.77296945436973,169.99347633983677L154.87896800292742,169.9964401893914L154.98496778943422,169.99999995014875L155.0909672613689,169.99466985840817L155.19696719498987,169.98627612853556L155.30296759031043,169.98414452105447L155.40896844732168,169.9866910869303L155.51496976603252,169.99071718490003L155.62097177342923,169.9941888233849L155.7269749189138,169.99999997141902L155.8329776227367,170L155.93898078827246,169.99862542073615L156.0449844155211,169.98389975465832L156.15098850447816,169.97323707736396L156.25699305516142,169.96855233934065L156.25699312325463,169.96855233780352L156.36299806755756,169.97184417870372L156.3629986350011,169.97184418831938L156.4690036097775,169.9698942306881L156.46900388668996,169.96989422662887L156.575009822534,169.9781598741603L156.6810162201131,169.98541850957608L156.78702330185627,169.9929968355689L156.893030622901,169.99609299781878L156.99904074808344,169.99928416384623L157.10504899259385,170L157.23483768385802,170L157.34084685186068,170L157.63509714135768,170L157.741108156367,170L157.8471196331291,170L157.95313157165285,170L158.05914397194266,169.99576227903606L158.16515683399854,169.9855284311188L158.2711701578205,169.9713718717082L158.37718394341297,169.9557384914653L158.48319819078037,169.94634391049755L158.5892128999272,169.9451150897394L158.69522807084448,169.96023013222273L158.80124370355443,169.9790500716625L158.90725979804378,169.99524394434778L159.03715020356879,169.99974904475147L159.1431672216346,170L159.24918470149314,170L159.35520264315318,170L164.86377710087618,170L164.9698195215245,170L165.0758624041118,170L165.1819057486425,170L165.28794955511657,169.9921574221646L165.3939938235385,169.67426507366957L165.50003855391714,169.03534232574017L165.60608374624806,167.66535450869523L165.7121294005312,165.58576861078208L165.81817551677108,163.40110503207092L165.92422209498096,162.9082076932518L165.92879480044317,162.90423045216397L166.0302691351475,164.86958056875807L166.1363166372885,167.10243197992077L166.24236460139508,169.0022347166033L166.34841302747165,169.8869751421885L166.4355943213309,169.98616303780935L166.54164367136076,170L166.64769348337393,170L166.7537437573704,170L166.85979556468808,170L166.96584569132654,170L167.0718973512862,170L167.17794947324248,170L167.28400205719092,170L167.39005510314482,170L167.49610861109974,170L167.60216258105126,170L167.70821701301713,170L167.81427190699287,170L167.92032795752948,170L168.02638377553393,170L168.13244005555268,170L168.23849679759905,170L168.34455400165976,169.99781426007064L168.45061166775255,169.99335917255772L168.55667017265552,169.98810234994576L168.662728762808,169.97893864492906L168.76878807828191,169.97577186010471L168.76878879099107,169.97577188767426L168.8748475925074,169.97027737710164L168.98090756876937,169.94399991718132L169.08696821135197,169.89134166966943L169.19302962012966,169.83682066067556L169.2990909825233,169.8303990666235L169.4051528069756,169.8846775453811L169.51121509347328,169.93423759452787L169.61727784202515,169.9597035437365L169.72334105264014,169.9789586912113L169.82940539262745,169.98031745755725L169.82940704502315,169.98031751538684L169.93546952736418,169.97996643787354L170.0415341241729,169.9788553279529L170.04153446917857,169.97885532535872L170.14759918304026,169.9889120212574L170.25366504898972,169.99307852705985L170.3597310320099,169.99710266878893L170.46579870732415,169.99999961180254L170.57186561450152,170L170.67793298375975,170L170.7840008151032,169.9966681459607L170.89006910853197,169.98721219781726L170.99613786405928,169.97945162540466L171.10220708167185,169.97639852035744L171.10220715884418,169.9763985194035L171.208276761383,169.9790510361713L171.3143469031927,169.98562329835056L171.41876935589318,169.99817522157088L171.52484042190443,169.99997335660404L171.63091195002312,170L171.73698394025809,170L171.8447179672579,170L181.18090371923375,170L181.2870173102955,170L181.39313136370853,170L181.49758430481984,170L181.6036992829486,169.9967130023989L181.70981472343755,169.99403169897684L181.81593062629102,169.9920728705735L181.92204699151793,169.98862494201097L182.02816381910935,169.96564451848272L182.1342811090698,169.93551313499677L182.2403988614081,169.89007726119152L182.34651707612863,169.85297336681947L182.34817932263923,169.85267425950983L182.45263575322704,169.8750725264993L182.55875489270775,169.92829587305837L182.66487449457517,169.9732667367618L182.77099455882927,169.99096872136423L182.878778303453,169.99999942910225L182.8787806776369,169.99999951286964L182.98489929248942,169.9964514980903L183.0910207439303,169.99405126487483L183.19714265776236,169.99363830372477L183.30326503399883,169.9955083073235L183.40938787264417,169.99794627013483L183.59073811264557,170L183.69686187610426,170L183.8029861019807,170L183.90911079027046,170L184.47064406610275,170L184.57677199137882,170L184.68290037908594,170L184.78902922923297,170L184.89515854182434,169.99568158317092L185.00128831685564,169.99327179738287L185.10741855434011,169.99303511599436L185.21354925427786,169.99435084608615L185.31968041666437,169.99591959960324L185.425824411774,170L185.5319564990758,170L185.6380890488352,170L185.7442220610612,170L194.34253214040947,170L194.44870308380905,170L194.55487448989234,170L194.63008668439005,170L194.73625855316598,169.99756725933233L194.84243088463893,169.99526592856049L194.94860367880005,169.99126563833957L195.0547769356582,169.98236749303192L195.16095065522225,169.96898806377783L195.26712483748778,169.95735730666192L195.37329948245923,169.9471757859261L195.47947459013216,169.9420267695032L195.58565016051983,169.94713688171504L195.6918261936267,169.96537238557752L195.7980026894439,169.9808952418988L195.90417964798476,169.99062752726766L195.93517745962697,169.99253417898308L196.0413240479626,169.99137433826098L196.14750239467878,169.99250475955498L196.25368120411864,169.99466999204355L196.35987559753178,170L196.46605533243664,170L196.57223553008726,170L196.67841619047485,170L207.08636552163944,170L207.19259200665994,170L207.29881895469225,170L207.40504636574076,170L207.51127423979665,169.99598027924426L207.6175025768776,169.99326908327419L207.72373137697036,169.99189780225828L207.82996064009265,169.99292626079296L207.82996121661532,169.99292627597086L207.93619036624446,169.99216856083484L208.0424211319396,169.99301773759822L208.04243758780328,169.99301796527752L208.1486517841416,169.9902117920658L208.2548828993864,169.99044554186057L208.2548832625503,169.99044555482237L208.36111447766518,169.98855789841411L208.36111484082906,169.98855789453074L208.4673465189779,169.99182324292323L208.4673468821418,169.99182324272294L208.57357938649733,169.99370943362226L208.6798123539046,169.99503992940876L208.7860768575604,169.99999995126572L208.89231075106213,170L208.99854615171176,170L209.1047809713169,170L220.58085130763,170L220.68713661640498,170L220.79342238853752,170L220.89970862402765,170L221.00599532286648,169.996792302415L221.11228248506737,169.99261768408383L221.21857011063022,169.9839901351193L221.32485819955951,169.9773338835192L221.43114675185527,169.97511867104717L221.4311470333073,169.97511866716724L221.53743604897392,169.98397877134317L221.64372552801584,169.9944141473392L221.75002496262476,170L221.85631536841734,170L221.96260623759406,170L222.06889757015054,170L228.44722561794555,170L228.55354522200832,170L228.6598652896237,170L228.76618582079615,170L228.87250681552126,169.99426419165454L228.97882827381227,169.99088823557616L229.08515019565596,169.99033280494393L229.19147258106997,169.99320918841357L229.29779543004554,169.99718996283625L229.40829428295112,170L229.5146180590674,170L229.62094229876288,170L229.72726700204208,170L232.80671501339103,170L232.91305362525307,170L233.01939270077855,170L233.12573223996756,170L233.23207224281555,169.99632743046422L233.3384127093359,169.99125875202807L233.444753639533,169.98289974740712L233.55109503340685,169.98346145483384L233.55109545558486,169.9834614609419L233.65743689095302,169.98283354896407L233.76377963435402,169.9804123353071L233.87012241926703,169.98216383352508L233.97646566786125,169.99423072201444L233.9764662897794,169.99423074381872L234.08280938014997,169.99238977213986L234.1891541099448,169.98354624254372L234.29549874961808,169.98194180713972L234.40184385298144,169.98664327144655L234.50818942004813,169.9931856501071L234.59020660488002,169.99914716223245L234.69655309934902,170L234.80290005752582,170L234.90924747941486,170L243.09939169877435,170L243.14687253763495,170L243.20577529834324,170L243.25325613720383,170L243.31215936183273,170L243.35964020069332,170L243.41854388924722,170L243.46602472810784,169.9988938273799L243.52492888058674,169.9941565462213L243.57240971944736,169.9747564390154L243.63131433586017,169.93268089309132L243.67879517472073,169.88536936953608L243.73770025506747,169.81361892304852L243.76089191282333,169.78284590894606" style="stroke: #ff7f0e;"></path></g><g class="filename"><path class="profile line" d="M3.1195540435883276,169.9952499252568L3.1836824481775374,169.9984714953056L3.289015843508432,169.99999999980238L3.394348307553592,170L3.499681229423754,170L3.6050146091144857,170L3.7103484466346526,170L3.815682741979822,170L3.9210174951588597,170L4.0263527061673345,170L4.13168837501411,170L4.222192234820692,170L4.327528819348505,169.99753226199164L4.432865861727919,169.9845959959354L4.538203361945635,169.967733750265L4.643541320019384,169.95577179209923L4.74887973593587,169.94719723214948L4.854218609712823,169.94094796755877L4.959557941354677,169.9308255513421L5.0648977308481316,169.9408016961797L5.170237978210921,169.96298709638657L5.275578683429744,169.9829105084236L5.380919846522335,169.99435606039347L5.501095545651513,169.9999999303237L5.606437624487205,170L5.711780161201096,170L5.817123155797622,170L5.922466608272348,170L6.027810518629708,170L6.1331548868741335,170L6.238499758405545,170L6.3438481928796975,170L6.449193934803056,170L6.554538359658845,170L6.659885017382934,170L6.765232133002958,170L6.870579706532213,170L6.975927737970701,170L7.081276227322854,170L7.18662517458424,170L7.291974579763725,170L7.397324442861307,170L7.502675063487196,170L7.608025842429843,170L7.713377079299454,170L7.818728878510081,170L7.924081948222439,170L8.029434558895112,170L8.134787627494749,170L8.240141154039083,170L8.345495138523681,170L8.450849580952978,170L8.556204481331406,170L8.661559839663397,170L8.766916109899379,170L8.872272384138498,170L8.977629116335613,170L9.08298630649516,170L9.188344390418234,170L9.293702496507073,170L9.399061060562778,170L9.504420082594208,170L9.607216955640249,169.89992761859793L9.609779875830226,169.89743249358298L9.712576893618708,169.9275368461352L9.817937289586196,169.99825551352706L9.82050030964624,169.99999996664351L9.920114623920208,169.96672779000826L10.025475935848021,169.27308286150634L10.130837705764863,168.1058430659305L10.236199933670736,166.87413062066213L10.341562619574502,166.29973943894825L10.44692576347173,160.8063617196188L10.552289365366857,140.1096650137483L10.657653425264309,95.52982351613913L10.76301794316409,45.18375302061227L10.868382919070633,15.794885020284937L10.871566438679839,15.454545454545467L10.97374835298394,47.2032335541665L11.079114244912873,96.60824286292004L11.184480594857433,141.13732132791858L11.289847402813187,162.55987141417762L11.395214668793438,169.4723228828419L11.502707591549589,170L11.611699988022067,170L11.717068628075802,170L11.822437726158462,170L11.927807282278916,170L12.033177296432731,170L12.138547768619906,170L12.24391869884931,170L12.349290087125372,170L12.454661933448095,170L12.560034237821911,170L12.665407000242386,170L12.770780624733781,170L12.876154303269743,170L12.981528439861231,170L13.086903116228987,170L13.192278532108716,170L13.297654042893383,170L13.403030011751309,170L13.508406520394367,170L13.6137837594836,170L13.719161102565735,170L13.824538903729998,170L13.929917208371869,170L14.03529626163141,169.98222435452269L14.035296316105994,169.982224345333L14.140675437055346,169.9878761248371L14.246055125040424,169.99880449443776L14.31532521838501,169.99959033791376L14.420705309995363,170L14.52608585970114,170L14.631466867502343,170L14.7729607587539,170L14.878343140867976,170L14.983726053727985,170L15.089109352068377,170L15.194493476229793,170L15.299877926857457,170L15.40526259955062,170L15.510647843858953,170L15.616033432800595,170L15.721419516185081,170L15.826806702320795,170L15.89607469385438,170L16.001461657193126,170L16.10684907866276,170L16.21223695827215,170L16.317625296030165,169.99825709132068L16.423014091927936,169.99081253411757L16.52840334597433,169.98200428366823L16.633793058164912,169.97157135693612L16.739183228512985,169.97003367570477L16.844573857018545,169.9773409878459L16.880698300389508,169.9788671579951L16.94996494367716,169.97696938746225L17.055356488497697,169.96494934973677L17.10301366349477,169.95832727447853L17.196874141378025,169.95492224069696L17.196874195852605,169.9549222387209L17.302267060697627,169.9688295038009L17.40766049265817,169.99275816019568L17.513054441812496,169.99728183766842L17.618449103352336,169.99999996218529L17.723843855372824,170L17.829239065568537,170L17.934635846142175,170L18.040031972710498,170L18.14542855747177,170L18.250825600425998,170L18.356223101573182,170L18.46162106091775,170L18.56701947846414,170L18.67241835420792,169.99955018907883L18.777817688166813,169.99307821689604L18.883217834412324,169.97695732396153L18.988618084783727,169.974285675977L18.988618420710324,169.97428568676258L19.094018793370253,169.97316208464994L19.094018911398518,169.9731620824922L19.199419960171895,169.97472748890382L19.199420296098495,169.97472748731028L19.30482170322136,169.981660352616L19.410223786466542,169.993859144545L19.515626545829612,169.99781874331552L19.6210302400737,169.99312565914343L19.72643369799528,169.98342324517935L19.831837614149705,169.97354496920795L19.937241988541416,169.96829997172935L20.04264682117042,169.9663812405719L20.042647016371006,169.96638124038358L20.1480521120367,169.97316405453833L20.253457861149137,169.98532000398322L20.358864263703882,169.99576370540896L20.46427958622337,170L20.5696867100787,170L20.675094292189037,170L20.78050233254997,170L26.473215974735396,170L26.57864922327176,170L26.68408293020944,170L26.789517095557297,170L26.89495171931533,169.99735337700955L27.000386801487977,169.99586085950156L27.1058223420708,169.9952065370916L27.211258341077105,169.99545949769023L27.31669479850245,169.99683022606254L27.418496219125338,170L27.523933593402074,170L27.62937142610229,170L27.73480971723928,170L27.843885083303064,170L27.949324291304745,169.99810796201848L28.054763957752073,169.99531370589062L28.160204082636174,169.9936195734795L28.265644665965922,169.99452666365963L28.371085707745745,169.9969744809642L28.476540699514082,170L28.58198265819406,170L28.687425075328548,170L28.792867950926414,170L30.16365635481483,170L30.26910564910389,170L30.374555401887356,170L30.480005613165236,170L30.585456282955253,169.99777322967896L30.690907411248546,169.99545755794514L30.79635899804955,169.99448204852584L30.901811043358254,169.9956220107603L31.007263547183538,169.99756841691195L31.112717340258357,170L31.218170761125656,170L31.323624640505095,169.99851966718546L31.42907897840997,169.99606096590784L31.534533774844725,169.99399914865987L31.639989029809357,169.99445683482915L31.745444743308287,169.9969854465281L31.85091852878566,170L31.956375159353207,170L32.06183224846393,170L32.16728979611783,170L40.18339757231951,170L40.28889043576855,170L40.394383757969116,170L40.499877538921226,170L40.60537177862486,169.99682145336232L40.71086647709332,169.99389023394076L40.81636163431775,169.9927434743771L40.81636205649578,169.99274348079214L40.92185725031145,169.99177914732664L41.027353325069974,169.99382854345822L41.13285028077578,169.99599012338368L41.13289100506626,169.99599115593495L41.23834727307283,169.99579483741462L41.34384472414358,169.99682411708625L41.449342633992465,169.99854010551172L41.55486951098911,170L41.66036833839868,170L41.76586762459526,170L41.87136736957882,170L47.35796519806851,170L47.46348926260645,170L47.569013786073235,170L47.67453876847775,170L47.78006420981555,169.99892627958732L47.885590110095514,169.99623390965445L47.99111646932206,169.99059803075008L48.0966432874819,169.98821552663586L48.20217056459277,169.98979860258308L48.30769830065909,169.99317298609242L48.413226650016654,169.99656506254487L48.51875530398946,169.99832922574723L48.62429871650023,170L48.72982828838394,170L48.83535831923642,170L48.94088880905764,170L52.95137896246852,170L53.0569273540351,170L53.162476204672416,170L53.268025514389315,170L53.373575283176926,169.99662396234828L53.47912551104855,169.9936860185933L53.5846761980042,169.99328543556996L53.69022734404387,169.99555032240536L53.79577894917642,169.99821194092587L53.901339520507065,170L54.006892043820955,170L54.11244502623216,170L54.21799846774511,170L60.868790942792906,170L60.97437377217757,170L61.07995706083688,170L61.18554080877083,170L61.291125015979425,169.99639449965272L61.39670968247153,169.99089012634042L61.50229480824715,169.98293888798864L61.50229488087993,169.98293888450175L61.60788039330185,169.98330065892117L61.71346643764891,169.99108364619363L61.819053013921135,169.99737406884498L61.92465887953332,170L62.03024630175752,170L62.13583418328739,170L62.24142252411408,170L67.20458051359843,170L67.31019090402785,170L67.4158017538915,170L67.52141306318497,170L67.62702483192153,169.99809036965652L67.73263706009233,169.99592425548357L67.83824974771066,169.99425165882707L67.94386289477211,169.99467171204807L68.04947650128551,169.99680586938143L68.15509056724203,169.99880240944844L68.26072144864854,170L68.3663364335223,170L68.47195187784801,170L68.57756778163458,170L78.61316999276913,170L78.7188300172531,170L78.82449050146388,170L78.93015144538819,170L79.03581284904377,169.99411230977384L79.14147471242615,169.98877945304432L79.24713703553981,169.9846802371273L79.24713708093529,169.98468023647283L79.35279981838914,169.9857431062133L79.45846306096975,169.9895261093224L79.45846352854326,169.9895261107701L79.56412680868597,169.98920910070464L79.66979097074682,169.98878101171434L79.66979139292484,169.98878101169453L79.77545601473024,169.99219937765807L79.88112109628464,169.99547589558676L79.98678663758803,169.99831684274437L80.09245638830312,169.99999992581522L80.19812750669023,170L80.30379442725832,170L80.40946180757983,170L82.41722470233985,170L82.52290127842586,170L82.62857831432736,170L82.73425581004433,170L82.83993376558122,170L82.94561218094691,169.99575604151616L83.05129105613696,169.99050697518555L83.15697039115578,169.98661857800715L83.26265018600785,169.98867115817205L83.36833044069311,169.9958661241681L83.47401115521603,169.9979779655886L83.57969703708851,170L83.68537867129561,170L83.79106076534923,170L83.89674331924937,170L86.9617374100128,170L87.06743376058974,170L87.1731305710974,170L87.27882784154026,170L87.3845255719183,170L87.49022376223596,170L87.59592241249324,170L87.69792143877116,170L87.80362100892096,170L87.90932103901925,170L88.01502152906603,170L88.12072247907457,170L88.22642388903606,169.99270771988733L88.3321257589593,169.8913777695212L88.43782808884433,169.66978415639872L88.54353087869116,169.445262061242L88.63919123748165,168.23776002759942L88.74489494726977,164.11849691132835L88.85059911703297,152.3277122316433L88.9563037467668,136.86279066682255L89.06200883648461,122.0243976277018L89.08252883545,120.49938635203368L89.1677143861819,123.94611685495431L89.27342039586759,138.81494886998695L89.37912686553723,154.50290943478308L89.48483379519524,164.8727689176796L89.59054118484165,169.20312321172753L89.69624903448972,169.97135243386202L89.81570358756042,170L89.921412357203,170L90.02712158684726,170L90.13283127650206,170L90.23854142615853,170L90.34425203582556,170L90.449963105512,170L90.55567463520899,170L90.66138662492538,170L90.76709907466564,170L90.87281198442973,170L90.97852545862729,170L91.08423962891409,169.9847204250205L91.08423965615138,169.984720421084L91.18995391876301,169.9955245912173L91.29566868227218,169.99961474317018L91.40138433707116,169.99999999983456L91.50710000703154,170L91.61281613703791,170L91.71853274070895,170L91.8242502402271,170L91.92996775037595,170L92.03568572057968,170L92.14140415083828,170L92.24712344063649,170L92.35284279101815,170L92.45856260146356,170L92.56428291736819,170L92.67000415637939,170L92.77572534702934,170L92.88144699776076,170L92.98716910856479,170L93.09289208800968,170L93.19861511897666,170L93.30433861003398,170L93.4100625611728,170L93.48205121541858,170L93.55446246124407,170L93.62151227952697,170L93.69350141816564,170L93.76591358418513,169.99984132627588L93.83296340246801,169.9969248028843L93.90495346130511,169.98725489731498L93.97736654753189,169.96843078322686L94.04441715115668,169.94861149600771L94.11640734486802,169.9234228226314L94.18882135131095,169.89907012471025L94.25587195493573,169.88750033408505L94.2945494433648,169.88549644299172L94.32786306886324,169.88797805810069L94.4002779955356,169.9050218374989L94.4673285991604,169.923659734166L94.53932063332178,169.94964375231785L94.61173648023247,169.97138360220916L94.6787870883968,169.98544862423424L94.78451702092288,169.99796698541374L94.8902484622149,169.99999971331158L94.99597931500145,170L95.1017106279138,169.99991213887037L95.20744240096526,169.99411409786393L95.31317463414697,169.9915068138308L95.31317465230516,169.99150681338315L95.41890732747223,169.99381524368644L95.52464048093658,169.9971524409176L95.63037421257275,169.99999960039975L95.73611901328195,170L95.8418535471858,170L95.94758854124206,170L96.05332399545514,170L104.83097105876836,170L104.93674517552334,170L105.04251975266568,170L105.14829479018653,170L105.25407028809917,169.9948069759804L105.35984624639474,169.99000673744612L105.46562266509098,169.9879709885306L105.5713995441746,169.99108227587791L105.67717688366328,169.99648717680034L105.78295796110231,169.99999999297222L105.88873622139677,170L105.99451494208746,170L106.10029412319655,170L107.58125073522554,170L107.68703682277904,170L107.7928233707864,170L107.89861037924763,170L108.00439784815828,169.9968875965276L108.1101857775361,169.99487638729397L108.21597416737664,169.99397106296453L108.21597443521001,169.99397106306583L108.32176301767991,169.99203816279254L108.42755232844593,169.99084586753924L108.42755296852228,169.99084587085468L108.53334209969239,169.98845288364075L108.53334273976874,169.9884528847033L108.63913259923937,169.9884001712933L108.63913297148237,169.98840017328928L108.7449232914246,169.98419772150245L108.85071481633771,169.97819026673452L108.85071519765978,169.97819027599135L108.95650642948385,169.9731094550106L108.95650681080593,169.97310945285878L109.06229850311044,169.97325192580047L109.16809103723081,169.97220852429763L109.27388417256208,169.9707656922619L109.37967786825274,169.98280001559087L109.4854718201619,169.99324124796445L109.59126800752833,169.99999935435628L109.6970628441175,170L109.8028581412093,170L109.90866400383891,170L110.33184153428303,170L110.43763959443935,170L110.54343811512489,170L110.64923709632194,170L110.75503653805264,169.99673639406987L110.86083644031254,169.9946293201721L110.9666368031017,169.99369971988042L111.07243762642894,169.99529394121845L111.17823891028983,169.997948517388L111.28405070978897,170L111.38985291473493,170L111.49565558021897,170L111.60145870625439,170L119.64384409143611,170L119.74968264680416,170L119.85552170379235,170L119.96136122153585,170L120.06720120003908,169.9953771579385L120.17304163930652,169.97652311171126L120.27888253934698,169.95411763892864L120.38472390014722,169.94060643906306L120.38472395008225,169.94060643436313L120.49056572172492,169.94926015193354L120.59640800408012,169.96687363218177L120.70225078806429,169.9867944922535L120.80809400105355,169.99716858926237L120.91394236417842,169.9999994898921L121.01978648966127,170L121.12563107592604,170L121.23149927922343,170L123.03091124628394,170L123.13676458803903,170L123.24261839062925,170L123.34847265406789,170L123.4543273783505,169.99802217650503L123.56018256348594,169.9966332612162L123.66603820947424,169.9954992128874L123.77189431631538,169.99589078229945L123.87775088401824,169.9977414961866L123.98364452857739,170L124.08946658228287,170L124.19532453257087,170L124.30118294372943,170L124.40704181575857,170L124.51290114866275,169.99858236796342L124.61876094244192,169.99066239831473L124.72462119710053,169.98238583618493L124.8304819126386,169.97799630248457L124.93634308906498,169.98425977359295L125.04220472637967,169.9901184723045L125.14806697892288,169.99999923587873L125.25394597118455,170L125.35980899117305,170L125.46567247206313,170L125.57154105326906,170L139.65554882998353,170L139.76147455665864,170L139.86740074459885,170L139.97332739379982,170L140.07925450426586,169.9977457695195L140.18518207601036,169.98967227043653L140.29111010902443,169.97948782141853L140.39703860331247,169.97747809197364L140.39703872134075,169.9774780877121L140.5029675588745,169.9788467779017L140.6088970937477,169.978719143561L140.7148269718799,169.98576271662833L140.82075731129052,169.99501643767252L140.92668811199732,169.99780734847997L141.03262052703676,170L141.138552250327,170L141.24448443491337,170L141.3504170808004,169.99932078907344L141.456350187988,169.9948091564165L141.56228375648064,169.99486712006586L141.66821778628272,169.99653336957545L141.77415227738982,169.9982678355304L141.88008993538622,170L141.98602534912558,170L142.09196122417882,170L142.19789756055923,170L143.3632277086622,170L143.46916958109753,170L143.5751119148955,170L143.68105471004725,170L143.7869979665572,169.99840159697413L143.89294168443428,169.99660353548208L143.99888586367845,169.99516026572542L144.1048305042897,169.9953568127767L144.2107756062769,169.99695416570935L144.3167211696312,169.99855577095892L144.3167218324053,169.99855577999264L144.42266785714,169.99698023908542L144.5286143432551,169.99526088084676L144.63456129075055,169.99456163786664L144.74050869963972,169.99488214424616L144.8464565699093,169.9963539055349L144.9524170357815,170L145.058365828834,170L145.1643150832891,170L145.27026479913783,170L145.80001009455015,170L145.90596257884528,170L146.01191552455626,170L146.11786893169196,170L146.2238228002524,169.99558757675388L146.3297771302331,169.99104549464343L146.435731921643,169.9867778758132L146.541687174482,169.98632944251338L146.64764288875463,169.99068608216447L146.75359912802338,169.9964329481035L146.85956578395138,170L146.9655228825469,170L147.07148044258048,170L147.17743846406094,170L154.9136201814837,170L155.01961235745947,170L155.12560499509044,170L155.23159809437223,170L155.33759165530483,169.9979282584371L155.44358567789268,169.99584288459675L155.54958016214022,169.99519358918096L155.5495805616205,169.99519359472507L155.65557510804743,169.99470426983402L155.65557550752771,169.99470427044506L155.76157051561876,169.9942635690453L155.8675667843389,169.98939281212094L155.8675689996386,169.9893928206019L155.97356311524732,169.9887561321374L156.07955990782426,169.99118615102105L156.18555728465088,169.99533362708877L156.29155500058266,169.99606193877L156.39755492138298,169.99999999595258L156.50355356067402,170L156.60955277060492,170L156.71555233327297,170L156.927552734732,170L157.0335536824855,170L157.13955509193408,170L157.24555696307786,170L157.3515592959345,169.99871476005072L157.45756209049068,169.98678714816435L157.56356534675982,169.96857004030014L157.66956906473735,169.95388278631526L157.66956917368648,169.95388278113646L157.7755732444366,169.95479378153425L157.77557335338577,169.95479378142127L157.8815778858532,169.96142646441717L157.98758298898267,169.96852640105482L158.0935886037778,169.9855163696966L158.1995949118072,169.9923163873839L158.30560186769313,169.99409147526453L158.335081723534,169.9943445421382L158.41160881773615,169.993815944145L158.51761622950983,169.99529534184097L158.62362410302293,169.9958075249297L158.72963292854237,169.99624389303662L158.7454818954229,169.99638286615266L158.83564172553446,169.99547805955106L158.94165098427044,169.99615407392167L159.04766070475478,169.99801487841964L159.1788953654274,170L159.2849060094173,170L159.3909171151555,170L159.49692868265538,170L166.2720420330337,170L166.37808362054184,170L166.4841256699801,170L166.59016818135737,170L166.69621115467353,170L166.80225458993314,169.89077973927272L166.9082984871406,169.55232220835723L167.0143428462914,168.82149057950818L167.12038766739894,167.13632621715968L167.22643295045876,164.87674454432747L167.33247869547083,162.73753554992965L167.34437081474985,162.62556117092484L167.43852490244404,162.9307236943336L167.54457157138282,165.19285745308767L167.65061870227828,167.54145631858853L167.75666629514376,169.24863773214037L167.86271434997923,169.9275968082529L167.9541365683097,169.99394571800278L168.06018554709405,170L168.16623498785725,170L168.2722848905949,170L168.37833525532028,170L168.48438608203335,170L168.5904373707298,170L168.6964891214228,170L168.80254133410355,170L168.90859400878531,170L169.0146471454637,170L169.1207013524426,170L169.22675541313188,170L169.33280993582667,170L169.43886492052692,170L169.5449203672459,170L169.65097649841272,170L169.75703286916035,170L169.86308970193124,170L169.96914727363333,170L170.075205030455,169.99879955466628L170.18126383490167,169.99494452700657L170.28732251578307,169.9893452537247L170.3933816586965,169.97381109509016L170.49944126364647,169.95448607989997L170.60550133063734,169.9284539414017L170.71156185966473,169.91526053841764L170.71156222736818,169.9152604836119L170.81762314127303,169.93580380190755L170.9236845944,169.964243861012L171.02974658674466,169.9823392182873L171.13580896851076,169.9907122675188L171.241871894043,169.99328095340763L171.24187259767305,169.993280968335L171.34793519538246,169.99144134986864L171.45399966241504,169.98611511258645L171.5600638878807,169.98714081753357L171.66612857540943,169.98855457669043L171.77219372501017,169.99268962147625L171.87825956819984,169.9977945136709L171.98433824827535,169.99999999056362L172.0904047840964,170L172.19647178199827,170L172.30253969594025,170L182.80550550391604,170L182.91161918569338,170L183.01773332983086,170L183.12384793631958,170L183.22996300516846,169.9911506063684L183.33607853638628,169.97447149428592L183.4421945299598,169.95481001520645L183.5483109859023,169.94001339462687L183.6544279042138,169.93862092641749L183.65442807671664,169.9386209246872L183.76054531667555,169.94485350433547L183.85805820022833,169.95553082666507L183.96417650566892,169.9682634499506L184.06448258805548,169.98011631575665L184.17060181825624,169.9903305177973L184.27672151083925,169.9971094341358L184.3828416658223,169.99972276212597L184.5033935195291,170L184.60952876722564,170L184.7156503093821,170L195.54246289986256,170L195.64863208325608,170L195.7548017293289,170L195.8609718380766,170L195.96714240950806,169.99773559423932L196.07331344361882,169.99396276237022L196.17948494041772,169.99094467296175L196.28565689991368,169.99272851198165L196.39182932209337,169.9985409823333L196.49800284705088,170L196.60417619462464,169.99955944769556L196.71035000489545,169.993922407401L196.8165242778766,169.99302643101856L196.92269901355922,169.99472034319663L197.02887421195214,169.99763821534825L197.14839013103534,170L197.25456625485342,170L197.3607428413818,170L197.46691989063385,170L208.71098501002928,170L208.81721158576093,170L208.92343862449997,170L209.02966612625082,170L209.13589409101786,169.9988935787137L209.2421225188056,169.99647321804508L209.3483514096095,169.99174176718805L209.45458076343854,169.98787447152642L209.56081058028823,169.99172710873412L209.66704086017188,169.99619778719608L209.77327160308505,169.99996818388908L209.879503639774,170L209.98573530875507,169.9980716031334L210.09196744077897,169.99629537809884L210.1982000358457,169.99479684977274L210.3044330939508,169.99524560155484L210.41066661510763,169.99756977069757L210.5169014845281,169.99999915467032L210.62313593178828,170L210.72937084210017,170L210.83560621547258,169.9986271714413L210.94184205190558,169.99673969457632L211.04807835140355,169.99559553047433L211.1543151139665,169.99649431632315L211.26055233959448,169.99859433217466L211.36680191737406,170L211.47304006914973,170L211.5792786840037,170L211.68551776194036,170L221.56777650286264,170L221.674059122292,170L221.7803422050523,170L221.88662575115248,170L221.99290976059248,169.9981086897343L222.09919423338124,169.99595463768165L222.2054791695098,169.9952565598939L222.31176456899152,169.9966797553068L222.41805043182194,169.998731928763L222.52433766137568,169.99986076666914L222.63062445091683,170L222.73691170382,170L222.84319942008517,169.99744824489485L222.94948759971237,169.99491470137036L223.05577624270597,169.9941821364295L223.16206534907047,169.99617036319648L223.2683549188103,169.9987621750593L223.37466904330984,170L223.4809595398047,170L223.5872504996793,170L223.6935419229381,170L244.52112639774694,170L244.62750916016367,170L244.73389238649656,170L244.8402760767545,170L244.94666023092853,170L245.05304484902763,169.96815991445476L245.15942993106057,169.8757975378352L245.265815477023,169.7282899800949L245.3206689346197,169.63987365055814" style="stroke: #2ca02c;"></path></g></g></svg>
