<svg width="300" height="220"><g transform="translate(40,10)"><g class="x axis" transform="translate(0,170)"><g class="tick" transform="translate(69.52741517536299,0)" style="opacity: 1;"><line y2="6" x2="0"></line><text y="9" x="0" dy=".71em" style="text-anchor: middle;">467</text></g><g class="tick" transform="translate(147.51626626503125,0)" style="opacity: 1;"><line y2="6" x2="0"></line><text y="9" x="0" dy=".71em" style="text-anchor: middle;">468</text></g><g class="tick" transform="translate(225.50511735469956,0)" style="opacity: 1;"><line y2="6" x2="0"></line><text y="9" x="0" dy=".71em" style="text-anchor: middle;">469</text></g><path class="domain" d="M0,-170V0H250V-170"></path><text y="20" x="125" dy=".71em" style="text-anchor: middle;">m/z</text></g><g class="y axis" transform="translate(0,0)"><g class="tick" transform="translate(0,170)" style="opacity: 1;"><line x2="-6" y2="0"></line><text x="-9" y="0" dy=".32em" style="text-anchor: end;">0.0</text></g><g class="tick" transform="translate(0,139.0909090909091)" style="opacity: 1;"><line x2="-6" y2="0"></line><text x="-9" y="0" dy=".32em" style="text-anchor: end;">0.2</text></g><g class="tick" transform="translate(0,108.18181818181819)" style="opacity: 1;"><line x2="-6" y2="0"></line><text x="-9" y="0" dy=".32em" style="text-anchor: end;">0.4</text></g><g class="tick" transform="translate(0,77.27272727272728)" style="opacity: 1;"><line x2="-6" y2="0"></line><text x="-9" y="0" dy=".32em" style="text-anchor: end;">0.6</text></g><g class="tick" transform="translate(0,46.36363636363636)" style="opacity: 1;"><line x2="-6" y2="0"></line><text x="-9" y="0" dy=".32em" style="text-anchor: end;">0.8</text></g><g class="tick" transform="translate(0,15.454545454545467)" style="opacity: 1;"><line x2="-6" y2="0"></line><text x="-9" y="0" dy=".32em" style="text-anchor: end;">1.0</text></g><path class="domain" d="M250,0H0V170H250"></path><text transform="rotate(-90)" x="-85" y="-30" style="text-anchor: middle;">Normalized Intensity</text></g><g class="filename"><path class="profile line" d="M0,170L0.06412841366830713,170L0.1694621767026386,170L0.2747946407477983,170L0.38012756261796043,170L0.48546094230869186,170L0.590794539232783,170L0.6961288345779525,170L0.8014635877569908,170L0.9067987987654644,170L1.0121344676122401,170L1.071433815920658,170L1.1174705942973178,170L1.1767704004484705,169.99857616133286L1.2228071788251302,169.9974707730403L1.2821074428278847,169.99377728220423L1.328144221204544,169.99090989188443L1.3874449430456004,169.9834886985033L1.43348172142226,169.9758807257455L1.4927829011193507,169.96795708779683L1.5388197839056281,169.9579386650216L1.5981213170358362,169.95719856840012L1.6441583360085714,169.95585307534503L1.703460190812789,169.955588937994L1.7494973005764964,169.95702831459744L1.808799522454643,169.9541675147674L1.8548366322183503,169.960383333621L1.9141393119480983,169.96501591566397L1.9601769256017,169.9709963436348L2.0194795593108874,169.97869993861374L2.0655171729644892,169.98582972154534L2.124820264529711,169.99501391109177L2.170857878183313,169.9965302726453L2.2761990412759037,169.99999994183617L2.3815406622466946,170L2.4868827592405807,170L2.5922261176127694,170L2.6975691122092953,170L2.802912564684021,170L2.90825647504138,170L3.013600843285806,170L3.118946150613883,170L3.224291434641308,170L3.3296371765646664,170L3.4349833763839572,170L3.54033047898381,170L3.6456775946038333,170L3.751025168133089,170L3.8563731995715766,170L3.9617222245904644,170L4.0670711718518495,170L4.1724205770313345,170L4.277770440128917,170L4.383120761144599,170L4.488472438917867,170L4.593823675787479,170L4.699175370588488,170L4.80452752331203,170L4.909880133984702,170L5.015233202584339,170L5.120586729128674,170L5.225941054079418,170L5.331295496508714,170L5.436650396887141,170L5.542005755219132,170L5.647362002757371,170L5.7527182769964895,170L5.858075009193606,170L5.963432249288187,170L6.068789974586922,170L6.174148461997843,170L6.279507026053547,170L6.384866048084979,170L6.490225618883113,170L6.59558578837855,169.93955924596534L6.595585888248619,169.9395591886788L6.700946184346038,169.9844873708904L6.806307138159324,170L6.904771504821187,169.7867136777537L7.01013327473803,168.69718926156992L7.115495502643902,167.09209511602165L7.220858188547668,166.36913623981795L7.326221332444897,162.96021179794158L7.431584934340022,148.3752779274148L7.536948994237474,109.25824934183655L7.642313512137257,59.70777733768398L7.7476784880438,18.12266033692032L7.758090137956788,15.454545454545467L7.853043921957105,32.224139113173266L7.958409813886038,81.27997873177841L8.063776163830598,129.40636697866597L8.169142971786355,158.19570290170938L8.274510237766604,168.55529946004185L8.379877961766915,169.99100795649318L8.492145958052387,170L8.59751459810612,170L8.70288369618878,170L8.808253252309235,170L8.91362326646305,170L9.018993738650225,170L9.124364668879629,170L9.22973605715569,170L9.335107903478413,170L9.440480207852229,170L9.5458529884309,170L9.651226567526807,169.94076763000726L9.756600246062769,169.98962170800053L9.861974382654259,169.9930092806267L9.96734907718021,169.99999996837866L9.967349090798855,169.99999996928207L10.072724497599486,169.94571101412294L10.17810000838415,169.96673410727567L10.283475977242077,169.9973342623015L10.388852508582879,169.99999998759753L10.494229711355725,169.93771395824595L10.494229724974371,169.93771395153328L10.599607054437861,169.96727300045407L10.704984869220768,169.99070811936087L10.810363178402188,169.99999979237657L10.915742331531797,170L11.021121506955735,170L11.12650114046623,170L11.231881232076582,170L11.337261886191977,170L11.442643189063839,170L11.54802465496933,170L11.653406751481961,170L11.758789133596038,170L11.802953167129969,170L11.864172119088824,170L11.908336465470361,170L11.969555417429214,170L12.01372022192834,170L12.074939509813792,170L12.119104436499477,170L12.180323724384928,170L12.285708673990555,170L12.391093804810174,170L12.496479393751816,170L12.601865545229535,170L12.707252050432956,170L12.812639917141873,170L12.918027338611507,170L12.962194645643192,170L13.023415218220897,170L13.067582983401207,170L13.128803555978912,170L13.172971779298978,170L13.234192351876683,170L13.278361033345371,169.99934893124788L13.339581605923076,169.9978607260241L13.383750745535954,169.99145251248274L13.444971413444177,169.98008229621217L13.489140915884025,169.97256211232684L13.550362160314922,169.96115077045957L13.594531544389586,169.95191771090705L13.655752788820482,169.93893581194112L13.699922631048201,169.93214032961203L13.7611438754791,169.92428838119363L13.764053494303925,169.92391639386614L13.80531417586874,169.92565976987075L13.866535420299636,169.93241000153364L13.910706178846766,169.93681514457217L13.971927423277663,169.94529473794006L14.016098640000013,169.95271424715423L14.077319884430912,169.96258140305915L14.121491559319619,169.96970071593867L14.182712921778778,169.97788248808854L14.226884936805575,169.98559461446675L14.288106417293003,169.99470068432038L14.393501328831633,169.99999905327138L14.498895622668035,170L14.604290374688524,170L14.709685584884237,170L14.815081253268469,170L14.920477379836788,170L15.02587396459806,170L15.131271007552291,170L15.236668508699474,170L15.342067212530013,170L15.447465630076403,170L15.55286450582018,169.99904673392825L15.658263839779078,169.99496547060173L15.763663631939796,169.99085904041792L15.869063882311199,169.9901765494375L15.869064063893143,169.99017654826173L15.974464754321474,169.99306167629643L16.07986592112312,169.99656609849035L16.18526844951449,169.9999999893516L16.29067053275967,170L16.396073074224404,169.99712654080116L16.501476073917566,169.99621991425374L16.606879531839137,169.98707312351718L16.712283447993563,169.98196424104572L16.817687822385277,169.9752282514066L16.923092759423895,169.9679270824302L17.02849805029018,169.96691605676878L17.02849827272806,169.96691605561037L17.1339040218405,169.97141072946619L17.239310229194654,169.98131549485237L17.344717067297807,169.9875082352024L17.450124191153133,169.99161969559586L17.555531973003614,169.99738891917931L17.660967781783324,170L17.766376280408142,170L17.871785237287973,170L17.977194652436122,170L42.655603513184616,170L42.76112069406898,170L42.86663833384672,170L42.9721564325223,170L43.077674990086834,169.99841693444236L43.18319400655806,169.99650307659365L43.28871348192711,169.9954565972527L43.394233416207285,169.99629257229037L43.49975380938529,169.9981658941928L43.605290972076965,170L43.71081228308165,170L43.81633405300633,170L43.921856281842125,170L48.24865250256921,170L48.35419400836761,170L48.459735973196835,170L48.56527839707017,170L48.67082127996991,169.99699198377382L48.776364621918184,169.9948206627638L48.88190842290616,169.99386511654058L48.98745268293825,169.994338965939L49.092997402023315,169.99608844337175L49.198561591786486,170L49.30410722897309,170L49.40965332521712,170L49.515199880523014,170L57.74923695367916,170L57.854819783063824,170L57.960403071723135,170L58.065986819657084,170L58.171571026865685,169.99792169317163L58.27715569335779,169.9900709565465L58.38274081913341,169.9800905060705L58.4883264041881,169.97686801208368L58.593912448535164,169.98222967867648L58.699498952174615,169.9907495044861L58.805086046753345,169.9978952404209L58.91067823096402,169.9999995429035L59.016266112493895,170L59.12185445332058,170L59.227466196331555,170L62.289718266538074,170L62.395320847028785,170L62.50092388691383,170L62.60652738617992,170L62.712131344840344,169.99670317064283L62.81773576289954,169.99504164198922L62.92334064035307,169.99029597957758L63.028945977209816,169.98659439539512L63.028946086158975,169.9865943936245L63.13455177346089,169.9866979381996L63.24015802912404,169.99121025290688L63.345764853148424,169.99755218839255L63.45138605029248,169.99999990039285L63.5569936841874,170L63.6626017774944,170L63.76821462917486,170L66.09170452366547,170L66.19732364375767,170L66.30294322333289,170L66.40856326239553,170L66.5141837609456,169.9954495133766L66.61980471898754,169.99461547448414L66.72542613651693,169.99448978632637L66.83104801354705,169.99506247236644L66.93667035007789,169.99680142319454L67.04230335554983,170L67.14792661108216,170L67.25355032612407,170L67.35917450067114,170L73.06355967954204,170L73.16920913120896,170L73.27485904253177,170L73.3805094135149,170L73.48616024416279,169.99371463741343L73.59181153447989,169.98792721137795L73.69746328446618,169.97839183623037L73.80311549412166,169.9821653429786L73.90876816345519,169.99022061082314L74.01442129246236,169.9946779718489L74.12007746869028,170L74.22573151705801,170L74.33138602511708,170L74.43704099285867,170L75.17663833894385,170L75.28229698428723,170L75.38795608933971,170L75.49361565411014,170L75.59927567859411,169.99849972847835L75.7049361628049,169.99676282105605L75.8105971067292,169.99528881306492L75.81059740633941,169.99528881317866L75.91625851038478,169.99171111448575L76.02192037376716,169.98196115616307L76.12758269688082,169.97448900785733L76.12758309636109,169.97448898681554L76.23324577934038,169.97570248014256L76.33890902192097,169.98317113511862L76.44457282411177,169.99247491076787L76.55024075399795,169.99955503218368L76.65590537580337,170L76.76157045735776,170L76.86723599866116,170L79.08631857279269,170L79.19199422925216,170L79.29767034552266,170L79.40334692160867,170L79.50902395751017,169.9963293006143L79.61470145322714,169.99287872392728L79.72037940876405,169.99069360161712L79.82605782412973,169.99095402418484L79.93173669931977,169.99657295702158L80.0374165654658,169.9996857170842L80.14309636031784,170L80.24877661500311,170L80.35445732952606,170L80.46013850388663,170L80.56582463678639,170L80.67150673084001,170L80.77718928474015,170L80.8828722984868,170L83.84218338458265,170L83.94787973515959,170L84.05357654566727,170L84.15927381611013,170L84.26497154648817,170L84.37066973680584,170L84.4763683870631,170L84.58206749726443,170L84.68776706741424,169.97259956181128L84.79346733356905,169.95140981876852L84.79346742889958,169.95140979652075L84.89916791894635,169.97348160060295L84.89916800519777,169.97348159954387L85.00486893250859,169.99999999430463L85.00486895520633,170L85.11057087359724,169.99269354805048L85.21627274352049,169.94314893443777L85.32197507340553,169.76518422429652L85.42767786325236,169.41476327014945L85.53338111307426,168.63137883357035L85.61913642683326,165.7286494656116L85.65895570723401,163.42267175022747L85.72484059659645,156.9688774234482L85.76465987699721,152.33978301791987L85.8305452263303,143.23203210366364L85.87036450673106,137.64181900175532L85.93625031604809,128.39572794897123L85.97606959644885,124.83081288755297L86.0419558657454,125.04405112350346L86.08177514614616,127.55256021771508L86.14766187543108,136.9777165272298L86.18748115583185,142.6685874613093L86.25336834510072,151.8246511407325L86.29318762550147,156.81941712093553L86.35907527475874,163.33028010739733L86.3988945551595,166.2669502354254L86.46478266440513,168.63920757074595L86.5046019448059,169.6008614565319L86.57049051405322,169.93901739047098L86.69614955305119,170L86.80185832269377,170L86.90756755233801,170L87.01327724199281,170L87.1189873916493,170L87.22469800131633,170L87.33040907100278,170L87.43612060069977,170L87.54183259041616,170L87.64754504015642,170L87.75325799531598,170L87.85897170557007,170L87.96468553539071,170L88.07039982523966,170L88.17611470223753,170L88.28182993939804,170L88.38754560935841,170L88.4932617393648,170L88.59897871073927,170L88.70469620571787,170L88.81041371586672,170L88.91613168607044,170L89.02185011632906,170L89.12756955139281,170L89.23328890177447,170L89.33900871221988,170L89.44472898272903,170L89.5504497133108,170L89.65617094027712,170L89.76189259100855,170L89.86761675368854,170L89.96194732974482,170L90.06766990063032,170L90.1733929315973,170L90.27911642265464,170L90.39623347810343,170L90.49056478502702,170L90.59628965635095,170L90.70201498777408,170L90.80774077929199,169.9966700711757L90.91346703091355,169.9850955708277L91.01919374263875,169.94732386422618L91.12492091447645,169.9079962275842L91.23064854641781,169.86812836216063L91.33637663847166,169.85631265363483L91.44210519064247,169.89380558348023L91.5478342029302,169.9449364028518L91.65356367533933,169.98595520406784L91.7592936078654,169.9977656761835L91.87642493548654,169.99999999481642L91.98215624839888,170L92.08788802145035,170L92.19362025463205,170L92.2993532657257,170L92.4051010410761,170L92.51083465468399,170L92.61656872843986,170L92.72230326234371,170L101.60564335425957,170L101.71141701064049,170L101.81719112739547,170L101.9229657045378,170L102.02874074205866,169.995995502948L102.1345162399713,169.99483285619334L102.24029219826687,169.99377221948856L102.34606861696311,169.99323053930112L102.346069120853,169.99323054436903L102.4518454960467,169.99166583484458L102.45184599993661,169.99166583360767L102.55762283553541,169.99212201295617L102.66340113931024,169.9925977330685L102.7691793996047,169.9839188791742L102.87495812029539,169.98722008907612L102.98073730140447,169.9928403142346L103.08651694291866,169.99862937138477L103.19230140735303,170L103.29808196969957,170L103.40386299246451,170L103.50964447565671,170L104.46169664624172,170L104.56748273379522,170L104.67326928180258,170L104.77905629026381,170L104.88484375917446,169.99803906798158L104.99063168855228,169.9954802106926L105.09642007839282,169.99435225638766L105.20220892869611,169.99536802594645L105.20220938265098,169.99536803418974L105.30799823946212,169.99468777437403L105.41378846466344,169.99534982013236L105.41378913651663,169.99534983245587L105.51957869637705,169.99457935076734L105.51957903684321,169.99457935274256L105.62536938856228,169.99288717065608L105.7311605412324,169.98943607340698L105.83695249484468,169.98646868085262L105.94274456847128,169.9894767757224L106.04853710259165,169.9902256400767L106.0485374339787,169.99022564139844L106.1543300971969,169.98814064250632L106.15433042858395,169.98814063403168L106.26012388367855,169.99332108392485L106.36591779927132,169.99798825994742L106.47171294708112,169.99999992680208L106.57750778367028,170L106.68330308076209,169.9968666973889L106.78909883835651,169.99595633567844L106.89489505645798,169.9956969078037L107.00069173507096,169.99616931710486L107.10648887419542,169.99753000125762L107.21229551661662,170L107.31809357677294,170L107.42389209745849,170L107.52969107865552,170L108.6935038891471,170L108.79930839684114,170L108.90511336509101,170L109.01091879390556,170L109.11672468328482,169.9985286339186L109.22253103322875,169.9967595798633L109.3283378437418,169.9956540583522L109.43414511482399,169.99580346331481L109.53995284648417,169.99685574355973L109.64576103871791,169.99824276552033L109.75157819864815,170L109.85737998975482,170L109.96318956373584,170L110.0689995983037,170L110.17481009346727,170L110.28062104922215,169.99584967223095L110.38643246556832,169.9909512235008L110.49224434251462,169.98857251737317L110.59805668006554,169.99049586320956L110.70386947821662,169.9942706071997L110.80968761699145,169.99999996934352L110.91550133635613,170L111.02131551633869,170L111.12713015693028,170L114.40761249468272,170L114.51344187635452,170L114.61927171872402,170L114.72510202180007,170L114.83093278558266,169.99581345205803L114.93676401007626,169.9930883522255L115.04259569528082,169.98821539126538L115.14842784120525,169.98709492211955L115.25426044784952,169.9889533786514L115.25426099259535,169.98895339151642L115.36009382844249,169.98533045861538L115.46592735652646,169.97874021927026L115.57176134533916,169.97706008525822L115.57176157685613,169.97706008289094L115.677595794885,169.9824209287017L115.78343093668097,169.99063193697398L115.88926637124236,169.99724075621563L115.99510398249514,169.99999999881646L116.10094027497802,170L116.20677702821177,170L116.31261428758305,170L116.52429003876868,170L116.63012863499269,170L116.73596769198086,170L116.84180720972435,170L116.9476471882276,169.9932406479377L117.05348762749503,169.97421808638444L117.15932852753551,169.9470991488136L117.26516988833572,169.92390207295034L117.26517001544309,169.92390206421655L117.37101170991345,169.92481566186737L117.47685399226863,169.94925066882755L117.58269673539687,169.97402773902482L117.68853997108386,169.99211278317117L117.79438753524818,169.99999952272697L117.90023166073104,170L118.0060762469958,170L118.11192129405579,170L119.6996516338751,170L119.80550405395111,170L119.91135693486224,170L120.01721027661733,170L120.12306407920755,169.99768475029265L120.22891834264618,169.9953460476468L120.33477306692879,169.99460380826784L120.44062825206424,169.9955554842783L120.54648389805254,169.99707831767017L120.65234066766777,169.9976206695805L120.65234129412549,169.99762068171196L120.75819723537063,169.9967489714497L120.86405426393078,169.99591809142166L120.96991175335263,169.99519019821642L121.07576970364062,169.99699001646331L121.18162871401961,169.9999107966549L121.18162871855915,169.9999107966876L121.28748758604877,169.98473563488918L121.39334691895293,169.96319979245465L121.49920671273209,169.94192707710866L121.49920676266714,169.9419270725293L121.60506696739073,169.9440278625979L121.71092768292878,169.96446524691268L121.8167888638947,169.98853422219833L121.92265054660488,169.99702942984905L121.92266745642341,169.99703008135097L122.02851264480344,169.9959456191787L122.1343759620038,169.9952692135927L122.24023898199228,169.99334780659075L122.34610246288238,169.99425565481852L122.45196640466965,169.99726535760766L122.55783716272659,170L122.66370202632594,170L122.76956735083135,170L122.87543313624722,170L127.53398403741245,170L127.63987056661041,170L127.74575755684297,170L127.85164500810572,170L127.95753292041637,169.99691090616759L128.06342129376603,169.99486170332847L128.1693101281592,169.9927194452734L128.27519942360024,169.99311175581892L128.3810891800892,169.99589435643705L128.48700577695186,170L128.59289645555435,170L128.69878759521362,170L128.80467919592968,170L135.68860463841796,170L135.79452667509614,170L135.9004491730129,170L136.00637213216814,170L136.11229555257526,169.9976563083066L136.21821943422972,169.99561261809234L136.32414377713607,169.99467231014998L136.43006858129422,169.99576591586253L136.4300689989327,169.9957659238196L136.53599384670864,169.99173325848724L136.6419199910222,169.98791719829686L136.6419218023021,169.9879171998932L136.74784617896248,169.98583511611105L136.8537728281634,169.98780938839946L136.95969993862946,169.99181302672156L137.065627982487,169.9945701525998L137.06562821854354,169.99457016087297L137.17155601550104,169.98894247648246L137.2774845097891,169.98554227250534L137.38341346535117,169.98527441705104L137.48934311825258,169.99034560514687L137.5952729963848,169.9939084420423L137.7012033357954,169.99799704544975L137.80713523961253,169.99999994026166L137.9130665016066,170L138.01899822489685,170L138.12493040948326,170L138.23086305537026,169.99665951245137L138.33679616255787,169.99425214092923L138.4427297310505,169.99384796470937L138.5486637608526,169.99593874337748L138.6545982519597,169.99853128335994L138.7605364320042,170L138.86647184574352,170L138.97240772079675,170L139.07834405717716,170L140.2436736832321,170L140.34961555566738,170L140.45555788946535,170L140.56150068461713,170L140.6674439411271,169.99762770529978L140.77338765900416,169.99497826316545L140.87933183824833,169.99198256373154L140.9852764788596,169.99162059989223L141.09122158084676,169.99513954693973L141.09122210289487,169.99513955372868L141.19716759815594,169.99374538690142L141.30311362289063,169.98992318041252L141.40906010900574,169.98860993720402L141.5150070565012,169.9910632854097L141.62095446539035,169.99592957158652L141.72690240375314,169.99714914126432L141.72690299389444,169.99714914953893L141.8328513255533,169.99522851597342L141.83285151167476,169.99522851667695L141.9388001186058,169.99054242424592L142.04474937306085,169.9893498591512L142.04474955918235,169.98934985896616L142.1506990889096,169.98959663121175L142.2566492661609,169.99229206510904L142.36260009093627,169.9975640820597L142.46855262549448,169.99943976790266L142.57450418696232,170L142.68045609181775,170L142.78640857611288,170L142.8923615218239,170L142.9983149289596,170L143.10426879752,169.9973318163437L143.21022312750074,169.99536305320308L143.3161779189106,169.99268564579393L143.42213317174964,169.9902911739404L143.4221332897779,169.99029117223085L143.52808888602223,169.99057423764296L143.63404506173734,169.99411956190596L143.7400018169098,169.99858012126938L143.8459626379352,169.99999990262228L143.95192019796878,170L144.05787821944924,170L144.16384397019831,170L146.38907144350387,170L146.49504007899867,170L146.60100917600684,170L146.70697873453284,170L146.8129487545678,169.9973057379871L146.918919236125,169.9956275867932L147.02489017920445,169.99557746205858L147.13086158381503,169.99698126654135L147.23683344994342,169.9984897715497L147.36780933891916,170L147.47378212810537,170L147.57975537884042,170L147.6857290911066,170L152.21803812922505,170L152.3240321518129,170L152.43002663606043,170L152.53602158196765,170L152.64201698953897,169.99768574550504L152.74801285877885,169.9948449878117L152.85400918968725,169.99272537291634L152.9600059822642,169.99319782818634L153.06600323652302,169.99540546016476L153.17200190122045,169.99999996556573L153.2780000788341,170L153.38399871812513,170L153.4899978191069,170L153.59599738177494,169.99717523322985L153.70199740613367,169.99460802129903L153.80799789218312,169.99405976003584L153.9139988399366,169.9957640095841L154.02000024938522,169.99786415368908L154.02000088946156,169.99786416658586L154.1260027606053,169.99485855327003L154.23200509346196,169.98558838494634L154.33800788801818,169.96993887337854L154.44401114428726,169.96768108210335L154.5500148622648,169.97075194407017L154.65601904196407,169.974578832996L154.76202383772534,169.97204812930028L154.76202418727055,169.9720481211987L154.8680289408548,169.97249156996267L154.9740347871669,169.9749503578077L155.08004081374426,169.98128079941364L155.18604737014994,169.9837480179685L155.18604765614148,169.98374801582867L155.29205460618454,169.98548157848452L155.39806201795818,169.98903285587548L155.5040701593047,169.99402110279462L155.61007849455285,169.99719626176656L155.73988766819826,170L155.84589692693424,170L155.95190664741858,170L156.0579168296468,170L163.1597027439692,170L163.26574433147735,170L163.37178638091564,170L163.47782889229285,170L163.58387186560904,170L163.68991530086865,169.9125800569572L163.79595919807608,169.57627633904832L163.90200355722692,168.91671687336364L164.00804837833445,167.44565670093036L164.11409366139426,165.45316875369414L164.22013940640633,163.55798975176833L164.22991312717332,163.48444551143587L164.32618561337955,163.69747559735382L164.43223228231832,165.7292350344921L164.53827941321381,167.81461847828288L164.6443270060793,169.35757336712018L164.75037506091476,169.95194342215208L164.83458377309722,169.99459733257845L164.94063232516402,170L165.04668176592722,170L165.15273166866487,170L165.25878203339022,170L165.78904078685528,170L165.89509392353366,170L166.00114752221307,170L166.10720158290238,170L166.21325610559714,170L166.3193110902974,170L166.42536653701637,170L166.53142244574528,170L166.63747881649294,170L166.7435356492638,170L166.84959333899417,170L166.95565109581582,170L167.06170931466073,169.99394847564065L167.16776843587834,169.99073444064612L167.2738275787918,169.99009433158997L167.27382799189073,169.99009433973018L167.37988718374174,169.97988869202538L167.48594725073264,169.95846187929774L167.59200819285894,169.93193010725255L167.69806918393613,169.92671767469318L167.69806920209433,169.92671767464373L167.80413063706308,169.94339004366387L167.91019255223543,169.97374336174943L168.01625502933206,169.9870092731883L168.12231814098578,169.99372050845713L168.22838144232523,169.99778987038127L168.22838204154567,169.99778988286755L168.33444580494822,169.99663750234663L168.4405100304139,169.98981167782537L168.54657471794263,169.98456433039348L168.65263986754334,169.99008653729027L168.75870547921602,169.99501307686694L168.8647716210583,169.99825401041514L168.97083935532018,169.99999980962122L169.07690635322206,170L169.18297381320917,170L169.28904173528156,170L169.39511011943478,170L169.5011789656866,169.997678050529L169.60724827402805,169.99680452777937L169.71331804446365,169.9962985986235L169.81938827699784,169.99686121463083L169.925458971635,169.9984973774449L170.03154127296696,170L170.13761289181897,170L170.24368497277402,170L170.34975751584085,170L179.36761288946633,170L179.4737251842032,170L179.57983794128697,170L179.68595116071748,170L179.79206484249485,169.99823928773085L179.89817898663233,169.9937529963926L180.00429359312105,169.98909498782263L180.11040866196993,169.98624225271507L180.11040902967335,169.98624225316328L180.21652419318772,169.97974384745177L180.32264018676125,169.9665658038739L180.4287570104072,169.96189663238187L180.42878547791648,169.96189741247403L180.5348739287187,169.96113832494453L180.64099130940357,169.97031130882104L180.74710922509468,169.97158180945428L180.8532275305353,169.9757740379284L180.85322787554097,169.97577403356334L180.95934664335945,169.9839520663003L181.06546587356019,169.99102971885776L181.17158566601327,169.99466843880109L181.1716409077802,169.99466860460927L181.27770626133253,169.99229016436874L181.2777066063382,169.992290175221L181.3838268786934,169.98997784659872L181.48994795845877,169.98587588939685L181.59606950061524,169.9846352962731L181.5960698229232,169.98463529355456L181.7021918274797,169.98941490866355L181.80831429443623,169.99533930152373L181.91445021598528,169.9999997800848L182.02057360775515,170L182.1266974619383,170L182.23282177853037,170L192.42290883811603,170L192.52907802150958,170L192.63524766758238,170L192.74141777633008,170L192.84758834776153,169.99785503017293L192.9537593818723,169.9953285784488L193.0599308786712,169.9939745831518L193.16610283816715,169.99534200602483L193.27227526034685,169.9977512357789L193.2722758459486,169.99775123612065L193.37844873082977,169.9938585172745L193.48462207840353,169.98723153708488L193.59079588867434,169.97435913374628L193.69697016165549,169.97328173776185L193.80314489733811,169.97771956211457L193.90932009573106,169.9846281612235L193.9945022477685,169.98880749104438L194.10067837158655,169.9940075940816L194.20685495811497,169.99750804408558L194.31303200736698,169.9996188648328L194.4402169194272,170L194.54639562045426,170L194.6525740578772,170L205.91011237319358,170L206.01634033796066,170L206.12256876574835,170L206.2287976565523,170L206.3350270103813,169.99621199229034L206.441256827231,169.9910076384996L206.54748710711465,169.98534181780693L206.65371785002782,169.98284748357847L206.75994905597935,169.9843387441847L206.86618072496043,169.98538179945814L206.8661811789153,169.98538179792232L206.97241297501262,169.98899376856903L206.97623886571614,169.9890668230394L207.07864590600593,169.98834799878003L207.18487896411105,169.98909337860863L207.29111248526786,169.99224188911148L207.39734674184928,169.9960319474323L207.50358118910947,169.99813566513564L207.62403184112546,169.99998811126363L207.73026721449793,170L207.83727608612233,170L207.9435123856203,170L218.979640852567,170L219.08592578869556,170L219.19221118817728,170L219.2984970510077,170L219.4047833771913,170L219.51107016673242,169.99486906665362L219.6173574196356,169.9896456554287L219.7236451359008,169.98935537856676L219.82993331552794,169.9912734291892L219.93622195852157,169.9951447799638L220.0425110648861,169.9986537479853L220.17044001364312,170L220.27673004675825,170L220.38302054325308,170L220.4893115031277,170L231.84349658051977,170L231.94983760141034,170L232.0561790859732,170L232.1625210342084,170L232.26886344612925,169.99705533091284L232.3752063217357,169.9960415746334L232.48154966102337,169.99513861182848L232.58789346400107,169.99466388512644L232.69423773066887,169.99564125174507L232.80058246103115,169.9978613791969L232.9319548492942,170L233.0383005070499,170L233.14464662850898,170L233.2509932136714,170L241.3950106488823,170L241.43767140525418,170L241.50139341129903,170L241.5440541676709,170L241.60777663763193,170L241.6504373940038,170L241.7141603278898,170L241.7568210842617,170L241.8205444820639,170L241.86320523843577,169.99477405307363L241.92692910016294,169.97631420777395L241.96958985653484,169.9542817128786L242.03331418219594,169.89705659680243L242.0759749385678,169.85144868152545L242.13969972815835,169.76188689610714L242.18236048453022,169.69769141397123L242.20111489103138,169.66568739791762" style="stroke: #1f77b4;"></path></g><g class="filename"><path class="profile line" d="M1.559777021791947,169.9955223085718L1.608172083678676,169.9937073105938L1.7135041409909206,169.98962543803069L1.8188366561104352,169.98846058161396L1.9241696290593855,169.9913113587355L2.0295030598333383,169.99414073892186L2.1348373161357297,169.99434552845298L2.134837615745937,169.99434552903537L2.24017166256412,169.98340250374113L2.3455064668219463,169.97954943375808L2.345506766432154,169.9795494227987L2.450842028532715,169.98521360572886L2.556177748462712,169.99509665659943L2.6615149521734276,169.99757271937264L2.661515487840162,169.9975727328104L2.766851587784461,169.99542607939964L2.8721886812470965,169.99430364594585L2.9775262325524667,169.99217019138302L3.082864241709438,169.98008661967955L3.1882027087224443,169.9617390247302L3.2935416335870515,169.94209847413478L3.3988812342104593,169.92343569485075L3.504221074796002,169.9069876303735L3.609561373246445,169.9057656407788L3.609561691014848,169.905765611657L3.7149021295617897,169.92807253621055L3.8202436615193034,169.95106074660234L3.9255853335733155,169.97973662960538L4.030927622389729,169.98838920446605L4.136270210195709,169.9976163254597L4.241614186491784,169.99988778508072L4.346957690063031,170L4.452301651521345,170L4.55764607086229,170L4.66299094809917,170L4.768338888924011,170L4.873684681943891,170L4.979030932864135,170L5.084377641689179,170L5.927167797004163,170L6.032518627052196,170L6.137869915031628,170L6.243221660938024,170L6.348573864775819,170L6.453926526553878,170L6.5592796462633345,170L6.66463322391749,170L6.769987259511909,170L6.875342284182645,170L6.980697235675325,170L7.086052645117136,170L7.191408512512512,170L7.296765373532618,170L7.402122156843987,170L7.507479398117787,170L7.612837097358449,170L7.718011825021292,170L7.823370440200113,170L7.9287295133458,170L8.034089044471648,170L8.139808125490507,170L8.244809480659402,170L8.350170385721304,170L8.455531748772238,170L8.560893569816633,169.97335085059376L8.666255848845623,169.48760505676313L8.771618585868076,167.9151453803103L8.876981780888427,166.87523475231058L8.982345433911103,161.26608358977242L9.087709544931675,141.92351264710294L9.19307411395901,97.24504324372776L9.298439140993107,47.96107582723745L9.403804626033963,15.661248806718078L9.408122317814078,15.454545454545467L9.509170569090449,46.03863324742669L9.614536970162563,96.08011866577546L9.719903829250304,141.43798323674233L9.825271146358109,162.9110444212092L9.930638921490406,169.74255113785532L10.036007154647196,170L10.14156357886967,170L10.246932728084317,170L10.352302335336757,170L10.457672400618124,170L10.563042923946155,170L10.668413905316408,170L10.77378534472889,170L10.879157242179165,170L10.9845295976894,170L11.089902411250728,170L11.195275750960812,170L11.300649930048504,170L11.406024117776411,170L11.511398763577578,170L11.616773958225243,170L11.722150005886894,170L11.827526025885671,170L11.932902503957708,170L12.038279440107438,170L12.14365739270377,170L12.249035245008882,170L12.354413555404985,170L12.459792360199605,170L12.565171586768827,169.97373500668914L12.565172004407296,169.97373490259585L12.670551330447605,169.98122353876028L12.775931831827581,169.9982168886307L12.881312596106827,169.99999999162753L12.986693655057747,170L13.09207517211296,170L13.197457642087693,170L13.302840075351487,170L13.40822400174995,170L13.513607351244492,170L13.618991158852193,170L13.724375424581915,170L13.82976014843366,170L13.935145330402998,170L14.040530970503225,170L14.145917068734342,170L14.251303625091916,170L14.35669117979553,170L14.462078652428183,169.99610178395656L14.567466583200591,169.99056854347216L14.672855462388439,169.98436206240615L14.778244309444794,169.97928679575864L14.883633614654205,169.96897057243456L14.989023378012238,169.95743340425548L15.078370292293059,169.94986665723843L15.094414012617817,169.94850792415147L15.183760971961638,169.95748501162532L15.289152109787704,169.96362326901402L15.30519652012385,169.96443605034435L15.394543705771259,169.95357500730034L15.515980056773035,169.91883006049287L15.621372569084869,169.90724798607434L15.621372682573584,169.9072479835238L15.726765539571922,169.92974548608265L15.832158968229766,169.9578094217736L15.93755285506283,169.98933360299142L16.04294720007112,169.99948271010797L16.148342439055725,169.9997251702403L16.253740474087515,169.99996754871074L16.35913619364363,170L16.464532444021046,170L16.56992907994977,170L17.4131185899547,170L17.51851934971754,170L17.623920567704367,170L17.729322243901883,170L17.818676872015093,169.99833344514184L17.924079464669447,169.98194248105892L18.029482515543354,169.9627654498989L18.13488602465011,169.92497188262425L18.240289991989723,169.9169193653367L18.256337570930793,169.91567375768017L18.345694417557755,169.93866203447288L18.451099301371936,169.95121667697066L18.467146925708494,169.9525425836111L18.55650464342784,169.94273771243462L18.586653479671913,169.94125139453809L18.661910443721027,169.94330927576894L18.767316702264797,169.9567140645692L18.797464622021,169.95890407255817L18.872723419059156,169.95863557305125L18.888823629526684,169.95912443053405L18.978130594099664,169.9506288381916L18.994179235295107,169.9481736156596L19.09958677779966,169.95560451208453L19.20499486935464,169.97396811268496L19.31040350995561,169.99344426049157L19.41581262698309,169.9982788906536L19.521245826080936,169.9999997387329L19.62665575069145,170L19.73206613356142,170L19.83749298570092,170L37.553006063507596,170L37.658494390905794,170L37.763983177028926,170L37.869472421876985,170L37.97496212545885,169.9973613801586L38.080452287765645,169.99368073409124L38.18594290881511,169.99184461347852L38.291433988598364,169.99310583625854L38.39692552712429,169.9957572247441L38.502433312942905,170L38.60792576895416,170L38.713418683716945,170L38.81891205723126,170L46.837746712387556,170L46.943275417722866,170L47.048804582018064,170L47.15433420527316,170L47.259864287497,169.9971547037799L47.365394828680735,169.99456823386618L47.470925828837665,169.99349742656688L47.57645728796778,169.99439429453315L47.68198920607108,169.99557300055645L47.78752624980796,170L47.89305908586651,170L47.99859238090711,170L48.1041261349342,170L50.214897179777864,170L50.32044057311083,170L50.425984425487904,170L50.5315287369091,170L50.637073507383285,169.9968438236115L50.74261873690602,169.99006118978383L50.848164425486175,169.98213195708607L50.95371057312375,169.9750742616733L51.0592571798143,169.96164078858016L51.16480424557559,169.95425882719746L51.16480462235812,169.95425879983762L51.27035177039872,169.96353293683669L51.375900131070665,169.9852336093237L51.481448574035234,169.99299750558765L51.58699836581761,169.99534789827248L51.69254772692804,169.99008905419387L51.79809754711807,169.98515827733175L51.90364782638324,169.9812703616582L52.009198564741304,169.98500838627027L52.11474976217894,169.99088946463502L52.220301418705034,169.99298730572963L52.32585418348389,169.98948183474937L52.43140675820019,169.9858058788653L52.53695979200937,169.99028002811198L52.6425132849203,169.99612482648524L52.74809950404442,170L52.85365391516328,170L52.959208785388334,170L53.06476411473285,170L59.82123801990312,170L59.92682319712548,170L60.032408833631344,170L60.13799492942958,170L60.243581484520206,169.9973548876505L60.3491684989032,169.99521306655578L60.454755972583,169.99378243748203L60.560343905559606,169.99436476558463L60.665932297841906,169.99655416406415L60.77152691465215,170L60.87711622554579,170L60.982705995749534,170L61.088296225267825,170L64.46742610286645,170L64.57303149119653,170L64.67863733892982,170L64.78424364607517,170L64.88985041262373,169.99757232898736L64.99545763858879,169.9917441572023L65.10106532396149,169.987235016157L65.2066734687507,169.98723422960347L65.31228207296527,169.99170908638231L65.41789122284777,169.99732644526276L65.52351731526105,170L65.62912729774729,170L65.73473773965893,170L65.84034864101365,170L76.08678800792835,170L76.19244394661023,170L76.29810034498787,170L76.40375720306133,170L76.50941452084386,169.99512227648617L76.6150722983222,169.9886303556001L76.72073053550962,169.98594024977635L76.82638923241059,169.985055450842L76.82638936859703,169.98505545062065L76.93204838902062,169.98614241618887L77.03770800534863,169.9938281811518L77.14336808139458,169.9951882699602L77.24902984284107,169.999999995452L77.35469083832739,170L77.46035229354494,169.99753558524316L77.56601420848492,169.9929781078384L77.67167658316058,169.9773917149771L77.77733941756748,169.96382651987355L77.77733958099122,169.96382650919946L77.88300271171451,169.96542662244607L77.98866646559723,169.98511287773184L78.09433077909459,169.9920831140605L78.1969413122621,169.99413936692542L78.3026064453785,169.9876699115184L78.40827203824388,169.9859909875921L78.41132701826473,169.9859468992701L78.5139380908627,169.98652559768666L78.62265940622225,169.98903664161057L78.72832637835235,169.99363331614572L78.8339977823542,169.99999999329822L78.93966567400886,170L79.0453340254347,170L79.15100283662727,170L80.73609017854838,170L80.84176634640751,170L80.94744297407323,170L81.05312006155447,170L81.15879760885561,169.9984934766355L81.26447561598111,169.99385440408145L81.37015408292655,169.98781209753383L81.47583300970518,169.98073213215375L81.58151239631262,169.97876017299103L81.68719224274882,169.98708122149247L81.7928725490227,169.99609767089567L81.89855354211166,169.99999979919517L82.00423476806527,170L82.1055405196679,170L82.21122266531455,170L82.31690527080329,170L82.42258833614298,170L82.53799008612785,170L84.54072643991506,170L84.64641916274984,170L84.75211234549322,170L84.85780598815404,170L84.96350009072344,170L85.06919465321474,170L85.17488967562792,170L85.28058515795854,170L85.3862811002199,170L85.48786329589788,170L85.59356015802076,170L85.69925748007438,170L85.80495526206764,170L85.914768859016,170L86.02046756088848,170L86.12616672270501,170L86.22775098945007,170L86.33318505361564,170L86.43888559528648,170L86.5445865969058,170L86.65028805848691,170L86.75598998002978,169.9838773988156L86.86169236153447,169.89040129830335L86.96739520300534,169.57091264499738L87.07309850444688,169.39460034060227L87.17047621621947,168.09655122705533L87.27618043760229,163.47279291260253L87.38188511896021,150.93545088121715L87.4875902603065,136.09473661476662L87.59329586162787,123.44632010746818L87.6029388433952,122.79787713963123L87.69900192293763,128.90032814323132L87.80470844423132,143.74781360112615L87.91041542551785,158.2837483559081L88.01612286679274,166.48569123799126L88.12183076806932,169.61273292628974L88.22753912933871,169.991998139798L88.3459591315679,170L88.45166841284066,170L88.55737815411953,170L88.66308835540895,170L88.76879901671333,170L88.87451013802827,170L88.98022171936262,170L89.08593376071195,170L89.19164626208958,170L89.2973592234866,170L89.40307268576782,170L89.50878702572027,170L89.61450136721099,170L89.72021616873444,170L89.8259315029278,170L89.93164767394528,170L90.03736385559347,170L90.14308049728322,170L90.24879769435839,170L90.35451569648524,170L90.4602337183352,170L90.56595220023561,170L90.64832784815536,170L90.75404725018325,170L90.85976711227046,170L90.96548743443029,170L91.094552100844,170L91.20027384703006,170L91.30599554940771,170L91.41171771186241,170L91.51744033439859,170L91.62316403439485,170L91.72888757709839,170L91.8346115798923,170L91.91699103732233,170L91.96365083753484,170L92.02271596030135,170L92.06374111844781,170L92.12844134337958,170L92.16946650152605,170L92.2341671865526,170L92.27519234469905,169.99930546060878L92.33989348982925,169.99474152206997L92.3809186479757,169.98623604511147L92.44562025320954,169.96210301746441L92.486645411356,169.93794233085728L92.55134747670235,169.87717150370443L92.5923726348488,169.8311863382327L92.65707516029879,169.7321120876244L92.69810031844526,169.66820550979173L92.76280330401663,169.56432251906168L92.80382846216308,169.51175189833188L92.86853190783809,169.46490493294075L92.89187833871057,169.45430747109904L92.90955706598456,169.46277901356328L92.9742609717898,169.54609520196362L93.01528612993626,169.60497012038834L93.079990495854,169.71574457466326L93.12101565400047,169.78342550178212L93.18572048004847,169.88259575218976L93.22674563819494,169.93298489697776L93.29145092436431,169.97466228892193L93.33247608251078,169.99609528954718L93.39678589165135,169.99937636770096L93.42052939910957,169.99999969292725L93.44285538986632,169.99953019044543L93.50251725622766,169.9982747158212L93.54858721457731,169.9963100594647L93.60824908093865,169.99239516469478L93.65431949942298,169.98730578114385L93.71398136578432,169.9778692358628L93.84345761823177,169.9687238364748L93.94919082336008,169.98058061265465L94.05492448863637,169.99384421749065L94.16067127939681,169.9999998977005L94.26640586497349,170L94.37214091069814,170L94.47787641657963,170L103.2555277707327,170L103.36130193921814,170L103.46707656808209,170L103.57285165732895,170L103.67862720696762,169.99804964033387L103.78440321699365,169.99469245027453L103.89017968741592,169.99008915654412L103.99595661823442,169.98678764592535L104.10173400944915,169.9908799380145L104.20751186106455,169.9958736198866L104.31329017308946,169.99844499627898L104.41907302656925,170L104.52485225940435,170L104.63063195265345,170L104.73641210632093,170L106.64053360621324,170L106.74632250826471,170L106.85211187078335,170L106.95790169376913,170L107.0636919772354,169.9976479454061L107.16948272117324,169.9938786208965L107.27527392558711,169.98462972673846L107.38106559048587,169.97693046248818L107.48685771586955,169.97442397811133L107.48685804725659,169.974423973112L107.59265046516185,169.98080809887273L107.69844367948305,169.98203293567633L107.80423718633467,169.98207404795744L107.9100311536801,169.98581460555994L108.0158255815237,169.99329558607022L108.12162091928079,169.99757434929427L108.22741729406764,169.999999923509L108.33321310341911,170L108.43900937327766,169.9976156040699L108.54480610365212,169.994708400306L108.65060329453365,169.99182961826727L108.75640094593554,169.99138727569593L108.86219905785336,169.9934421798704L108.96799763029152,169.99593344989964L109.07380660033081,170L109.17960609381856,170L109.2854060478444,170L109.39120646239948,170L110.23761915404086,170L110.34342371350526,170L110.4492287335299,170L110.55503421411484,170L110.66084015526,169.99668106604466L110.76664655697874,169.99309159071808L110.87245341926659,169.99063358901319L110.97826074212358,169.99094493402237L111.0840685255541,169.99336588987947L111.08406912931409,169.99336590739196L111.18987676956706,169.9900443274045L111.18987737332702,169.99004432686178L111.24684124854582,169.99050995152348L111.29568607791356,169.98797102055707L111.35265041371919,169.9863734993807L111.40149524308693,169.98500368354505L111.45846003948387,169.98673328721424L111.50730486885159,169.98821634695358L111.56427012582652,169.99210046853273L111.61311495519425,169.99543090652L111.71892550213705,169.99814638142036L111.83781519885636,170L111.94362666698618,170L112.04943859571615,170L112.1552509850463,170L116.0575611290112,170L116.16339102318652,170L116.26922137806841,170L116.37505219366126,170L116.48088346996511,169.99606561685843L116.58671520697993,169.99204969539696L116.69254740471905,169.98832468412022L116.79838006316913,169.98820741403713L116.90421318234353,169.99187179170116L117.00229246193936,169.996856107644L117.10812650256675,169.99950127880297L117.21396100392283,170L117.3197959660121,170L117.44496149721392,170L118.01955647181374,170L118.0606536013823,170L118.12539511986573,170L118.16649224943427,170L118.23123422866858,170L118.27233135823715,170L118.3370737982312,170L118.37817092779977,169.9998204752898L118.442913828558,169.99665671885262L118.48401095812658,169.99019210528817L118.54875431965344,169.97219150457357L118.589851449222,169.9565082351529L118.6545952715086,169.91609986582196L118.69569240107717,169.88753779072002L118.76043668413682,169.83353207793132L118.80153381370538,169.8018575714665L118.86627855753808,169.75524929275838L118.90737568710665,169.73572476258758L118.92820207609545,169.73260201934352L118.97212089172126,169.73856010249813L119.01321802128982,169.74654301010045L119.07796368667306,169.7907979954979L119.11906081624163,169.822627873706L119.18380694241121,169.87234813611556L119.22490407197978,169.90169018638227L119.28965065893127,169.94333586259543L119.33074778849983,169.9665674408529L119.43659196580623,169.99673399349882L119.55019726410941,169.99999977112236L119.65604236299738,170L119.76188792268059,170L119.86773394315898,170L121.13792213203044,170L121.24377414311263,170L121.34962661502549,170L121.45547954778233,170L121.5613329413743,169.9977573645702L121.6671867958058,169.9953737394094L121.77304111109017,169.9934540574388L121.87889588721406,169.99372219672122L121.98475112419524,169.99603495128332L122.09060682202926,169.9984244439647L122.19646475113565,170L122.30232137068423,170L122.4081784510901,170L122.51403599236208,170L122.61989399450025,170L122.72575245750897,170L122.83161138138385,170L122.93747076613818,169.9977730829857L123.0433306117675,169.99214049989047L123.14919091828071,169.98714223507355L123.25505168566893,169.9730106432952L123.36091291394989,169.97058425075969L123.36091300020131,169.9705842494162L123.46677460311474,169.97574353995327L123.57263683942375,169.9861796458352L123.67849945037408,169.9950299905985L123.78436337111275,169.99667077479663L123.89022690385742,169.99326941891215L123.99609089749929,169.9917864605733L124.1019553520472,169.9936668957073L124.20782026750558,169.99664890112797L124.31371183706543,170L124.41957767434477,170L124.52544397253016,170L124.63131073164374,170L128.6545696329728,170L128.76045436994454,170L128.86633956793762,170L128.97222522696526,170L129.07811134701868,169.9966473999908L129.1839979281023,169.99515386321366L129.2898849702249,169.9940279349112L129.3957724733777,169.99381827892788L129.50166043757838,169.99488085825362L129.6075488628181,169.99660687916278L129.71343977828397,170L129.81932912561953,170L129.9252189340074,170L130.0311092034476,170L130.3487827781178,170L130.45467489180282,170L130.56056746654906,170L130.6664605023698,170L130.77235399926062,169.99889837550805L130.87824795723034,169.99484047748388L130.98414237627463,169.99400845873365L131.09003725640224,169.99477474257895L131.19593259761325,169.99683293565343L131.37195618648542,170L131.47785244986758,170L131.58374917434202,170L131.68964635990866,170L138.1502467145861,170L138.25617249320447,170L138.3620987330924,170L138.46802543424548,170L138.57395259666364,169.99599767663472L138.67988022035138,169.9849398085444L138.7858083053131,169.97055757485887L138.89173685155328,169.9560458542977L138.9976658590719,169.94619956093825L139.033477528298,169.9447344155267L139.10359532786893,169.947491149856L139.2095252579488,169.96030281611118L139.3154556493249,169.97594733586504L139.42138650197936,169.98987746360217L139.4774021107405,169.9959486214378L139.52151597321435,169.99810378107261L139.57758318581733,170L139.62744774845672,170L139.68351542236474,170L139.73337998500412,170L139.7894481202083,170L139.83931268284766,170L139.89538127935245,170L142.42346919583505,170L142.5294138884206,170L142.63535904238208,170L142.74130465771512,170L142.8472507344285,169.99792090682237L142.9531972725179,169.99438471805004L143.05914427199653,169.98756496186152L143.16509173285996,169.98693068729037L143.27103965511267,169.98853480139064L143.3769880387502,169.99127118714125L143.48293703359096,169.9955149726876L143.56461509781965,169.99939548690165L143.67056440425344,170L143.7765141720809,170L143.88246440131536,170L144.1829505068998,170L144.22459411971053,170L144.28890258176665,170L144.33054665599323,170L144.39485511804938,170L144.43649965369625,170L144.50080811575236,170L144.54245311281952,169.99908965556764L144.60676157487563,169.993365266839L144.64840703336313,169.98795641730123L144.71271549541922,169.97434655661934L144.7543614153314,169.9633217388252L144.81866987738752,169.93564321624484L144.8603162587333,169.91673822519724L144.92462472078944,169.8896474054879L144.9662715635688,169.87196365139042L145.03058002562491,169.85351155051907L145.0722273298334,169.84667471764303L145.07222736161026,169.84667471634734L145.13653579188954,169.86009335219026L145.17818355753607,169.87582868113586L145.2424920195922,169.90707173663762L145.28414024667674,169.92844034955326L145.34844870873286,169.956081811233L145.3900973972599,169.9720199446095L145.37741303959007,169.970388442821L145.45440585931598,169.98932710110037L145.49606628098462,169.99681364460707L145.58932964799524,169.99995342739993L145.69528864437478,170L145.80295083057086,170L145.9089102884062,170L153.4442024968332,170L153.55019518650943,170L153.656188337832,170L153.76218195081427,170L153.86817602545176,169.9987328869175L153.9741705617489,169.9963676354244L154.08016555970576,169.99501933905648L154.18616101932676,169.99579964892786L154.1861616094681,169.99579965884476L154.29215694061185,169.99525585113633L154.39815391371565,169.9953034657617L154.3981563469137,169.99530348794787L154.5041507583467,169.99385089095358L154.61014806465514,169.99378461691416L154.71614583264102,169.99416737681892L154.8221440623043,169.9949871081508L154.9281427536583,169.99673279647092L155.03414677762532,170L155.14014300130466,170L155.2351499524893,170L155.33948930420428,170L155.44549076571585,170L155.55149268892254,169.99621816241526L155.65749507383325,169.98476489730584L155.76349792045244,169.9742283120747L155.86950122878005,169.95886179804532L155.97550499882496,169.94199552044344L156.08150923058275,169.92847130726162L156.09416092309274,169.92919024736648L156.18751392406227,169.92284252568052L156.18917141677886,169.9228021434672L156.2273776559712,169.9262673547469L156.2935190792591,169.9332709476656L156.33338234945072,169.94037050794637L156.39952469618214,169.9528172809158L156.43938750464758,169.95706252798345L156.50553077482692,169.96492892935157L156.54539312157058,169.96965217657885L156.61319296102306,169.9790919170177L156.73019357993627,169.9925882239778L156.83620058204224,169.99808814109093L156.94221059257004,169.9996021771181L157.04821851815055,170L157.18208173002023,170L157.2880905790797,170L157.7902868171166,170L157.89629843668828,170L158.00231051801717,170L158.10832306111658,170L158.21433606597762,169.991861546979L158.32034953260919,169.98530581299792L158.42636346101568,169.97243508482214L158.53237785119268,169.96701998454472L158.63839270314907,169.9616322897512L158.6383928120982,169.96163228563972L158.7444080168848,169.9751300904977L158.85042390135354,169.9902692304425L158.9564402430665,169.9973075594573L159.08438597615282,169.99990728726056L159.19040313703266,170L159.2964207597052,170L159.40913906810226,170L164.8099735564854,170L164.9160156580398,170L165.02205822153766,170L165.1281012469744,170L165.2341447343546,170L165.3401886836826,169.8697399218642L165.44623309495844,169.48350801871754L165.5522779681866,168.7053782398182L165.65832330336252,167.01551174483464L165.7643691004996,165.00571456662576L165.87041535960225,163.38349486006322L165.87634104574767,163.3373581369802L165.9764620806616,164.21282247174028L166.08250926368655,166.3398962951448L166.18855690868145,168.3799284209798L166.29460501564193,169.60711332383585L166.40065358457687,169.9832575600965L166.48478505747482,170L166.59083455036304,170L166.69688450523458,170L166.80293492208938,170L167.22714120940373,170L167.33319393621497,170L167.4392471250272,170L167.54530077584047,170L167.65135488866366,170L167.75740946349234,170L167.8634645003353,170L167.96951999918818,169.99752836119788L168.0755759600554,169.99449777978984L168.18163238294582,169.98656576883045L168.278252211361,169.98291533956004L168.28768977628442,169.9825587772869L168.38430955829335,169.98625002260107L168.45311579829232,169.99155850756833L168.4998049321768,169.99544969677123L168.55917360725232,169.99797655803366L168.6058640339018,169.9999638051851L168.60671443208048,169.99997349053746L168.66523187823995,169.99814932617835L168.71192276692597,169.99669383109756L168.77129061126408,169.99286484227937L168.81798196198216,169.98962535765915L168.87734980632027,169.98382637246274L168.92404161907487,169.9786715304634L168.98340946341298,169.9675161232613L169.0301017382085,169.95807793473978L169.08946958254663,169.94365298890153L169.13616231938747,169.93206461950544L169.1955301637256,169.91573739610553L169.2422233626074,169.90393878400926L169.30159120694552,169.89996964618146L169.3388464722163,169.89810116724473L169.3483014372295,169.89893151894302L169.40765271221522,169.91214431058575L169.45436340454904,169.92274755538543L169.51371467953476,169.94151645513588L169.56042583392278,169.95604484434503L169.6197771089085,169.97009596999087L169.66647476624325,169.98029364824453L169.72584000034092,169.98879343144867L169.77253811519478,169.9951441657937L169.87860092296472,170L169.984665200582,170L170.09072994026235,169.99674871238562L170.19679514201465,169.99060168337687L170.30286080583895,169.98814546549812L170.40892693173964,169.98356402985618L170.5149935197167,169.981532628506L170.62106090116168,169.99006152856657L170.72712841330485,169.99520901878248L170.7271290896976,169.99520902926116L170.83319638752886,169.98847735429828L170.93926546845844,169.96991451739243L171.04533436686629,169.9538664926761L171.04533440318266,169.95386648819704L171.15140372736383,169.95766816659358L171.25747354995988,169.96869672343522L171.36354403893424,169.98625409583371L171.44683639388208,169.99352262220978L171.55290714067974,169.9989295385125L171.6589783495848,170L171.76505002059287,170L171.89670101208506,170L172.00277406943314,170L181.3362282477898,170L181.44234244414983,170L181.5484571028655,170L181.65457222393692,170L181.73785078773614,169.9989341821886L181.8439663711721,169.99474099681447L181.95008241698145,169.98580977928873L182.05619892515094,169.96837605438796L182.16231589568937,169.94118103975725L182.26843332860128,169.89372992364167L182.374551223891,169.86121980582672L182.4001758447035,169.85507834225916L182.48066958155857,169.8561879238856L182.58678840160843,169.8908843707985L182.692907684045,169.94132918241058L182.79902742885946,169.9732402381533L182.90514763606947,169.99251761605524L183.02274378515705,169.99604244709968L183.12886537954935,169.99802868424632L183.2349874363417,169.99981263036162L183.3411099555385,170L183.45860333063337,170L183.56472677463907,170L184.30760383034487,170L184.4137309737147,170L184.51985857951118,170L184.62598664774757,170L184.73211517842387,169.99699902364392L184.8382441715312,169.99528641892388L184.94437362709175,169.99463150742685L185.05050354508782,169.9958868491069L185.15663392554148,169.9981363227014L185.2627772249653,170L185.368908530321,170L185.4750402981299,170L185.58117252840086,170L194.28558941461955,170L194.39176003835775,170L194.4979311247797,170L194.6041026738854,170L194.7102746856837,169.99729254085346L194.81644716017902,169.99534524967515L194.92262009736254,169.9892498488281L195.0287934972519,169.98708324724478L195.02879369245252,169.9870832459191L195.13496735983392,169.9889006752895L195.24114188032686,169.99159427586724L195.24114247046816,169.99159429121187L195.3473166683251,169.982690540694L195.4534924320027,169.9738525759514L195.55966814541276,169.96622052710975L195.5596682225851,169.96622052245544L195.66584432155088,169.97433523660104L195.77202103757165,169.99051647325663L195.87819813913933,169.9985084700919L195.98439101986318,169.9997776925415L196.09056904688254,170L196.19676417407118,170L196.321544240161,170L207.13561085446446,170L207.24183748258716,170L207.34806457371718,170L207.45429212785902,170L207.56052014501708,169.9972822521831L207.66674862519136,169.99637370596213L207.77297756839073,169.9949661330806L207.8792069746152,169.99407372632882L207.9854368438603,169.9950275998L208.09166717613496,169.99739009322286L208.20638940137815,170L208.3126206597207,170L208.4188523811061,170L208.52508456552098,170L220.63011470521184,170L220.73640015716435,170L220.84268607247446,170L220.94897245113327,170L221.05525929315408,169.99593350960396L221.1615465985369,169.99349953866331L221.26783436727732,169.99299455773135L221.37412259938415,169.99405680980564L221.48041129486188,169.99577217102475L221.5771003116633,170L221.68338993387835,170L221.78968001947754,170L221.89597056845653,170L243.0551992033435,170L243.09544370439644,170L243.1615824822935,170L243.20182698334645,170L243.2679662251685,170L243.30821072622143,170L243.3743504319685,170L243.41459493302145,169.99983545069497L243.48073510269356,169.99698116087333L243.5209796037465,169.98853379094982L243.5871202373436,169.96226641595206L243.62736473839655,169.9330217651834L243.69350583593197,169.87492340209235L243.7337503369849,169.82724922237787L243.76089191282333,169.79112556129823" style="stroke: #ff7f0e;"></path></g><g class="filename"><path class="profile line" d="M3.1195540435883276,170L3.1836828658160083,170L3.289014872045032,170L3.3943473360901915,170L3.4996802579603536,170L3.6050136376510853,170L3.7103482559736114,170L3.8156825513187806,170L3.921017304497819,170L4.026352515506293,170L4.131688184353068,169.99981022535252L4.237024311038145,169.99546867805904L4.342361422153596,169.98897560018486L4.44769846453301,169.97551335467074L4.553035964750726,169.95752031885365L4.6583739228244765,169.94100865161795L4.658374118025066,169.94100862102033L4.7637123387409614,169.94171512441423L4.869051407718504,169.96226856666956L4.974390739360358,169.9826611552516L5.079730528853814,170L5.185071066747713,170L5.290412030720806,170L5.395753193813397,170L5.501094814784189,170L5.606437542775329,170L5.711780079489222,170L5.817123074085748,170L5.9224665265604735,170L6.027810436917832,170L6.133155195563438,170L6.238500021699363,170L6.343845305726789,170L6.449191047650147,170L6.554537701424298,170L6.659884359148387,170L6.765231474768411,170L6.8705790482976665,170L6.9759280330413596,170L7.081276522393513,170L7.186625469654898,170L7.291974874834383,170L7.3973247379319655,170L7.502675058947648,170L7.608025837890294,170L7.713377074759905,170L7.818728805877303,170L7.924081221894664,169.99107415159315L7.924081358081121,169.9910741400546L8.029433832567335,169.9958730794738L8.13478703735343,170L8.240141031471271,170L8.34549501595587,170L8.450849458385166,170L8.556204358763592,170L8.661560148352702,170L8.766915964633824,170L8.872272238872943,170L8.97762897107006,170L9.082986633342658,170L9.188344281469067,170L9.293702387557907,170L9.39906095161361,170L9.502361102233786,169.9216861297856L9.607720582240947,169.76220330150767L9.609779862211578,169.75905508817308L9.713080520219409,169.99529068120927L9.817471720291179,170L9.922832574234395,169.92074019479026L10.028193886162208,168.86086035052648L10.133555656079054,167.26458852137526L10.238917883984923,166.58198096132745L10.34428056988869,163.30405298163728L10.44964371378592,148.4982391516472L10.555007315681044,109.40502760969568L10.660371375578498,59.19813068646533L10.765735893478277,15.879080147200796L10.767970064098243,15.454545454545467L10.871100869384822,28.237654339512147L10.976466303298126,78.24371695161172L11.08183219522706,126.50591746932486L11.18719854517162,156.73414279166448L11.292565353127378,168.00416587614603L11.397932619107628,169.9208202218408L11.506331706127193,170L11.611699888152,170L11.717068528205731,170L11.822437626288393,170L11.927807182408847,170L12.033177196562663,170L12.138547668749839,170L12.24391859897924,170L12.349289987255302,170L12.454661833578024,170L12.560034169728683,170L12.665407340708532,170L12.770780561180102,170L12.876154239716062,170L12.981528435321682,170L13.086903397681,170L13.192278450396842,170L13.297653961181506,170L13.403029984514015,170L13.508406751911345,170L13.613783636915787,170L13.719160979997923,170L13.824538912809095,170L13.92991753067982,169.98514178493403L13.940018051950094,169.98601018238023L14.035296248012765,169.98286480845644L14.045397211658502,169.9821925724162L14.1406754234367,169.9961436181803L14.246055143198618,169.99974746412025L14.246055224910494,169.9997474663744L14.351435552577374,169.9904414853325L14.456816102283149,169.99286891430495L14.562197110084352,169.9983434616515L14.667578716715852,169.99999995754249L14.772960740595707,170L14.878343422319988,170L14.98372626254722,170L15.089110073856602,170L15.194493830314583,170L15.299878044885721,170L15.405262717578882,170L15.510647848398502,170L15.61603468571601,170L15.721420678309523,170L15.826807183512946,170L15.93219414685169,170L16.037581568321325,170L16.142969447930717,170L16.248357785688732,170L16.353746581586503,170L16.459135835632896,170L16.56452554782348,170L16.669915718171552,170L16.775306346677112,170L16.88069778288097,170L16.986089327701503,170L17.09148133067953,170L17.196874036968406,170L17.285723114829466,170L17.39111695049508,170L17.496511244331483,170L17.618448871835355,170L17.723845153683722,170L17.829240363879435,170L17.93463603226367,170L18.04003215883199,170L18.145428716355973,170L18.2508257593102,170L18.323018512920033,170L18.428416501545577,169.99808593341893L18.53381494836851,169.99332212714575L18.63921385339326,169.9831455351348L18.7446132166287,169.9716860036822L18.85001303806596,169.9611362139603L18.955413317713905,169.95984222980357L19.060814055581407,169.9628781493787L19.113620319086223,169.9673465845005L19.166215251664024,169.97185471627347L19.219021485887872,169.97621955241115L19.271616905961764,169.98058576274195L19.324423110909066,169.9848696173629L19.37701901848792,169.98971477476962L19.39368688460796,169.9910960860058L19.42982519415425,169.98955143443115L19.51562657760645,169.98388127818401L19.621029899607557,169.96868998439328L19.621029935923943,169.9686899832041L19.72643335752913,169.97687910638768L19.831837309999948,169.99277099959733L19.831860298274055,169.9927710664497L19.937241779722186,169.99139914944365L20.04264661235118,169.9844160105274L20.148051903217468,169.9805334210146L20.158155005225552,169.98043127953707L20.25345805634973,169.9838111078267L20.35889586804123,169.99044777063457L20.46430253364154,169.99644964132972L20.569709657496865,169.99805241705604L20.675117239607207,169.99982366245854L20.790628053767747,170L20.8960365816691,170L21.001445567838775,170L25.524336317056587,170L25.629765440069804,170L25.735195021462168,170L25.84062506123811,170L25.946055559402065,169.99692202752706L26.051486515949602,169.99525267881467L26.156917930894018,169.99481099646496L26.262349804230876,169.99535226063867L26.36778213596462,169.9966229396391L26.47324263550432,170L26.57867588404069,170L26.684109590978366,170L26.789543756326218,170L40.49987787938736,170L40.605372119091,170L40.71086681755947,170L40.816361974783895,170L40.92185759077759,169.99691596331232L41.02735366553611,169.99574020207243L41.1328501990639,169.99492564005686L41.23834719136096,169.99596788224434L41.34384464243171,169.99826733330656L41.44936973963715,170L41.55486810826859,170L41.66036693567816,170L41.76586622187473,170L49.046407015330274,170L49.15193842308901,170L49.25747028982094,170L49.36300261553048,170L49.468535400217654,169.9967766267303L49.57406864388688,169.99259301192438L49.67960234654259,169.9907325690085L49.78513650818479,169.99279645744863L49.89067112881792,169.99631381215048L49.99623262861481,169.9998046904556L50.101768167229785,170L50.20730416484897,170L50.31284062146794,170L51.368206605171665,170L51.473748110970064,170L51.57929007579929,170L51.68483249967264,170L51.790375382572364,169.99853452712372L51.89591872452064,169.99609320195836L52.001462525508614,169.9935897400085L52.107006785540705,169.98995442860044L52.10700698074129,169.98995442667888L52.21255150462578,169.9907652705074L52.3180966827594,169.9937727493112L52.423642515146604,169.99643752949842L52.52918861139064,169.9970371480825L52.634736478626074,169.99999963342793L52.74028349298937,170L52.845830966418966,170L52.95137889891483,170L53.056927290481426,170L53.16247614111874,170L53.26802545083563,169.99776064558816L53.37357521962324,169.99554431946999L53.47912544749488,169.99449639151428L53.584676134450525,169.99542015071714L53.690227280490184,169.99722768808857L53.795806549631905,170L53.90135861384847,170L54.00691113716236,170L54.112464119573566,170L65.09246686644167,170L65.1980680687937,170L65.30366973052233,170L65.409271851632,170L65.5148744321227,169.9974116798614L65.62047747200775,169.99489829465105L65.72608097127383,169.9941712454929L65.83168492993426,169.99571782434396L65.93728934799346,169.99776194898615L66.04289513789625,169.99999952648594L66.14850047475299,170L66.25410627100408,170L66.35971252666722,169.9982782647919L66.46531924174243,169.99526945190658L66.57092641622087,169.99407144345437L66.67653405011579,169.995686207683L66.7821421434228,169.998072728654L66.8877681688733,170L66.9933771810266,170L67.09898665259642,170L67.20459658360046,170L73.75330055245901,170L73.85893943271418,170L73.96457877255875,170L74.07021857201046,170L74.17585883106487,169.9969258223226L74.28149954972196,169.9963875512022L74.38714072799063,169.9962226823163L74.49278236586642,169.99648815321922L74.59842446335821,169.9976713871399L74.70407178698758,170L74.8097148037158,170L74.91535828006444,170L75.02100221602909,170L78.19053403347414,170L78.29619221910842,170L78.40185086445182,170L78.50750996950428,170L78.61316953427472,169.99690502439412L78.71882955875869,169.99407945785288L78.82449004296947,169.99269801572305L78.93015098689378,169.99388510163456L79.03581239054935,169.99641802723244L79.14147425393173,169.99720873613558L79.14147483045441,169.99720873906347L79.24713715356808,169.99494723492722L79.2471373623873,169.99494723710103L79.35279993641741,169.99120564641743L79.45846317899802,169.98884663691524L79.56412688131874,169.9877921907798L79.56412709013797,169.98779218872835L79.66979104337959,169.9895876936468L79.77545566518499,169.9933331820173L79.8811207467394,169.99721944771792L79.98679494496197,169.99999999940283L80.09246094600991,170L80.19812740682015,170L80.30379435008598,170L82.2058726436183,170L82.31154830007777,170L82.41722441634829,170L82.5229009924343,170L82.62857802833578,169.99678397316364L82.73425552405277,169.98864864564428L82.83993347958966,169.98325857861968L82.94561189495535,169.97810209836683L83.05129077014539,169.98000639319093L83.15697010516422,169.9861046308749L83.26264990001627,169.99526908358135L83.36833502109765,169.99757373537432L83.47401573562058,169.99978514204994L83.57969690998115,170L83.68537854418825,170L83.80118088814653,170L86.85604141041301,170L86.96173730106364,170L87.06743365164056,170L87.17313046214824,170L87.27882773259108,170L87.38452546296914,170L87.49022365328679,170L87.59592230354407,170L87.70162141374539,170L87.80732192812131,169.97095659108646L87.81744267176394,169.96788122570086L87.9130219582196,169.99692462969918L88.01872244826637,170L88.12442339827493,169.98495535606241L88.2301248082364,169.91045234525401L88.33582667815966,169.81198901143824L88.4415290080447,169.64267712138007L88.53451008972462,168.458422171802L88.64021333954652,164.51758806477395L88.74591704933462,153.06010779866915L88.85162121909782,138.06105726048378L88.95732584883167,123.28393754807504L88.97769799015965,122.25453700335325L89.06303093854946,124.95954293552252L89.16873648824678,139.7422817675603L89.27444249793245,154.89451860071955L89.3801489676021,164.98531524665833L89.48585589726012,169.13722916597285L89.5915632869065,169.96621489708826L89.70999518712856,170L89.81570349676946,170L89.92141226641202,170L90.02712149605628,170L90.13283118571108,170L90.23854133536756,170L90.34425194503459,170L90.44996301472102,170L90.55567454441801,170L90.66138653413441,170L90.76709898387466,170L90.87281233397496,170L90.97852570376291,170L91.08423953358357,170L91.18995382343249,170L91.2956689364869,169.99007358392635L91.40138414641012,169.99418852956322L91.5070998163705,170L91.61281610072153,170L91.71853273162986,170L91.82424978173269,170L91.92996755971491,170L92.03568563886782,170L92.14140437781572,169.99258066807795L92.24712326813363,169.99331418610134L92.3528426185153,169.9964107898839L92.4585625696867,170L92.56428329415073,170L92.67000402473249,170L92.77572521538244,170L92.88144686611385,170L92.96721773913136,170L93.07294031001686,170L93.17866334098385,170L93.28438683204116,170L93.33692956845472,170L93.39011078317998,170L93.44265397968832,170L93.48164986256032,170L93.52590993730689,170L93.5873742737939,170L93.63163483800045,169.99956021854808L93.69309914511783,169.99674434730375L93.73736123834985,169.9915550440557L93.79882447654096,169.9766386819239L93.84308705924184,169.96003694804784L93.90455026805887,169.9280077329588L93.94881334022858,169.9016093286141L94.01027651968043,169.86219495315703L94.05454008132787,169.83269750869917L94.11600323140563,169.79605142735522L94.16026728252635,169.77597279731302L94.22173040324333,169.76243582396867L94.24887442462169,169.75994372424367L94.26599494384176,169.76402995989613L94.32745803518469,169.7851038076849L94.37172306526527,169.80957807046798L94.43318612723854,169.8537688489886L94.47745164680127,169.88928488615713L94.53891467940934,169.93250908863018L94.58318068846309,169.95730086138215L94.64464369169708,169.98221228300434L94.68891019023741,169.99321508294668L94.75037316410621,169.99861155098247L94.79464139597829,170L94.86682800719319,170L94.97255885997974,170L95.0782901728921,169.99933020284615L95.2175658448591,169.99405331783194L95.32329810741487,169.98972224547603L95.42903083010532,169.9907699849644L95.53476401294817,169.99669609848914L95.64049765592571,169.99856839733033L95.74624245876727,170L95.85197702204519,170L95.95771204547552,170L96.06344752905825,170L104.51365131188133,170L104.61942404750526,170L104.72519724350325,170L104.83097089988416,170L104.93674501663915,169.9968763012616L105.04251959378148,169.9914448221103L105.14829463130233,169.98477129416818L105.25407012921498,169.9780092479467L105.35984608751055,169.9750399407252L105.46562250620678,169.98429754957505L105.57139938529038,169.99309457580122L105.67675002923023,169.99991904378547L105.76371182983685,170L105.86949009013131,170L105.975268810822,170L106.08104799193109,170L107.36967967816855,170L107.47546484482321,170L107.58125047193171,170L107.68703655948521,170L107.79282310749258,169.99752492960104L107.8986101159538,169.99476454480168L108.00439758486446,169.99343960408044L108.11018551424229,169.99428751675754L108.21597390408283,169.99586793356406L108.3217627543861,169.99701338784004L108.42755282779628,169.99835252729065L108.42755297306182,169.9983525280778L108.53334259904274,169.9959392137875L108.63913283075637,169.99311249930867L108.74492352294159,169.98787366006607L108.74492366820714,169.98787365755788L108.8507146756117,169.98928430868116L108.95650628875784,169.99411186773563L109.06229850765,169.99611766955553L109.16809104177035,169.99633889613364L109.27388478540114,169.99670498679424L109.27389431391364,169.99670516580062L109.37967824049574,169.99503202938268L109.4854721560885,169.9900496314371L109.59126653217504,169.98756721484213L109.69706136876421,169.99317677524814L109.802856665856,169.996604936722L109.90866393120612,170L110.01446014930761,170L110.12025682792058,170L110.22605396704505,170L117.7388261027785,170L117.84465640585455,170L117.95048716963714,170L118.05631839413073,170L118.16215007933529,169.99711442323124L118.26798222525971,169.99557245250816L118.37381483190399,169.99344559673807L118.47964789926812,169.9920930631846L118.58548142735208,169.99328931647142L118.69131541616477,169.99640932170294L118.78547759904004,170L118.89131250931904,170L118.99714788032674,170L119.10298371207647,170L119.41290945285344,170L119.51455868128373,170L119.62039681676127,170L119.72623541298528,170L119.83207446997345,169.9968855266985L119.93791398771694,169.98032534537873L120.0437539662202,169.93612906393358L120.14959440548762,169.8763426532912L120.2554353055281,169.82544091112032L120.27844380722048,169.8214392454616L120.36127666632831,169.8386743904391L120.46711848790602,169.89237604179692L120.57296077026122,169.94453099113701L120.67880351338945,169.9830371109646L120.78883516359156,169.99848021214402L120.9139416151529,170L121.01978574063575,170L121.12563032690052,170L121.23149173449366,170L123.4543278096076,170L123.56018299474306,170L123.66603864073136,170L123.7718947475725,170L123.87775131527536,169.99773033988407L123.9836083438355,169.9923245822453L124.08946583325735,169.98729765812791L124.19532378354533,169.99148353350947L124.30118219470391,169.9938885671161L124.40704106673306,169.99655015117278L124.51290788535286,170L124.61876767913205,170L124.72462793379066,170L124.83048864932871,170L129.80646147743758,170L129.91234431845177,170L130.01822762047843,170L130.12411138352638,170L130.2299956075868,169.99723556264829L130.33588029267295,169.9945704727962L130.44176543878484,169.9937205852431L130.54765104591357,169.99543163412463L130.65353711407693,169.9978316118673L130.6535378404047,169.9978316267392L130.75942436960267,169.99746889426874L130.86531135983523,169.99484230724437L130.97119881109796,169.9923635869279L131.0770867234086,169.9831509112785L131.07708695038602,169.98315091145565L131.18297509675827,169.98051888317246L131.28886393115144,169.98269602956145L131.2888641581289,169.9826960264197L131.39475322659248,169.9889547136098L131.50064321005888,169.99487696493077L131.6065334276046,169.9976295003958L131.71242593110566,169.99999986723228L131.81831707076495,170L131.92421492243938,170L132.0301069842255,170L132.34777968503255,170L132.45367359109895,170L132.5595679582443,170L132.66546278646413,170L132.77135807577176,169.99738584295042L132.8772538261628,169.99538490530344L132.98315003764603,169.994234628984L133.0890467102126,169.99444875311127L133.19494384387593,169.9955681162469L133.30084143863587,169.99710516540162L133.40674640368547,170L133.51264492064763,170L133.61854389870646,170L133.72444333787524,170L138.27855480884048,170L138.38447453935706,170L138.49039473109445,170L138.59631538406595,170L138.7022364982671,169.99548064553534L138.80815807370678,169.99131240040447L138.914080110385,169.99018848891626L139.02000260830172,169.99325822142637L139.125925567457,169.9973167750892L139.12592622569153,169.9973167933671L139.23184955984718,169.99440591041414L139.3377734415017,169.9914183529992L139.44369778440802,169.99018599910522L139.44369787065943,169.9901859984374L139.54962258856617,169.9906469368384L139.65554785398058,169.99257318443227L139.7614735806557,169.99584690622936L139.86740062203106,169.999999926571L139.973327271232,170L140.07925438169804,169.99545727274173L140.18518195344254,169.99325482190366L140.2911099864566,169.99443346508176L140.39703848074464,169.9966033037581L140.50297281113225,170L140.60890222797715,170L140.71483210610936,170L140.82076244551996,170L143.57511218272887,170L143.68105497788062,170L143.78699823439058,170L143.89294195226765,170L143.99888613151182,169.9977717140147L144.10483077212308,169.9956066527846L144.21077587411028,169.99104561283437L144.31672143746457,169.9874042122304L144.42266746219929,169.98414391838176L144.42266773003266,169.98414391311655L144.52861394831436,169.98708857118683L144.6345611636432,169.9905631068434L144.74050857253238,169.99195603259534L144.8464567378726,169.99487492393772L144.95240506953138,169.99636386554042L144.95240551440716,169.9963638734082L145.05835386258389,169.9956562947919L145.16430356191472,169.99513225783963L145.16430491923975,169.99513227581681L145.2702532777635,169.9947731981751L145.37620345501477,169.99655024540647L145.48215409366867,169.998554740627L145.58811563015175,170L145.69406719161958,170L145.80001009455015,170L145.90596257884528,170L146.01191552455626,169.99814717688284L146.11786893169196,169.9964215343024L146.2238228002524,169.99086455807026L146.3297771302331,169.984332011321L146.435731921643,169.9740329251784L146.44586950970185,169.97375128193642L146.541687174482,169.97615163519282L146.64764288875463,169.98907331584377L146.75359906446968,169.9963070118842L146.85955981444496,169.999999820159L146.96551691304052,170L147.0714744730741,170L147.17743249455452,170L149.6247329023749,170L149.72056345111216,170L149.82653300963813,170L149.9325030296731,170L150.0384735112303,169.99809015015683L150.14444445430976,169.9936090970882L150.25041585892032,169.99054962483183L150.35638772504873,169.9874227617999L150.36652647937703,169.98725100977006L150.46236005271268,169.9917159469371L150.5683328418989,169.99585756748994L150.67431394151345,169.9998389696892L150.78028765377962,170L150.88626182758577,170L150.99223646293632,170L154.38366566329478,170L154.48965553107408,170L154.5956458604909,170L154.70163665154521,170L154.80762790424149,169.99667729131025L154.91361961857973,169.99360784799362L155.01961179455543,169.99269047551653L155.12560443218644,169.99464139195848L155.2315975314682,169.994932746966L155.23159798542306,169.99493274785388L155.33759154635567,169.9946397127378L155.3375919776128,169.9946397196456L155.44358556894352,169.99370026402622L155.54958005319105,169.99553351031207L155.54958048444817,169.99553352069123L155.65557499909826,169.9948228184256L155.76157083792668,169.99477123720953L155.76157174129688,169.9947712516839L155.86756670716656,169.99455410889013L155.97356303807499,169.9963918778889L156.07955983065193,169.99857562963965L156.18555798828092,169.9999999855429L156.29155570421273,170L156.39755388182633,169.9980478824565L156.5035525211174,169.99520701528766L156.60955162209913,169.99264694963276L156.71555118476718,169.9922722689445L156.82155120912591,169.99710146433588L156.9275524351218,169.99999999764154L157.03355338287528,169.99705967698802L157.13955479232388,169.99056064222455L157.24555666346765,169.98419634373212L157.3515589963243,169.96934441094035L157.4575617908805,169.95671404896137L157.56356504714958,169.95389084233202L157.56356538307617,169.953890823704L157.66956885137853,169.95655277889915L157.77557325805526,169.9675285053668L157.88157789947186,169.97640454447128L157.98758300260133,169.98718208061916L158.09358859015916,169.99142326995744L158.19959525681287,169.99383744651885L158.24263379013234,169.99451461134746L158.3056017451253,169.99420890369205L158.34864030788978,169.9948291139837L158.41160869516835,169.9957365244391L158.4546472873778,169.99676078906907L158.517616106942,169.9982593681666L158.5606547286009,169.99885196371145L158.62362503816996,169.999718997168L158.72963337341812,170L158.8356421704102,170L158.94165142914622,170L159.04766114963053,169.99827495930606L159.1536713318588,169.99612149524415L159.25968197584868,169.9950416538166L159.3656930815869,169.996004806227L159.47170464908677,169.99771851960375L159.60479872191686,170L159.71081121294,170L159.81682416572482,170L159.92283758028012,170L166.17083917651536,170L166.27688030208898,170L166.38292188959713,170L166.4889639390354,170L166.59500645041265,170L166.70104942372882,169.9040871184876L166.80709285898843,169.56303945930327L166.91313675619588,168.85660084143365L167.0191811153467,167.2355234576508L167.12522593645423,165.0775699605994L167.23127121951404,162.99999068771191L167.242211835788,162.90849901193684L167.3373169645261,163.2229950613611L167.44336317149933,165.4258828053502L167.5494098404381,167.6914655335297L167.65545697133356,169.31777635995087L167.76150456419904,169.95444594650235L167.84808789715512,170L167.95413641396505,170L168.0601853927494,170L168.1662348335126,170L168.27228473625024,170L168.37833510097562,170L168.48438592768872,170L168.59043721638514,170L168.69648896707815,170L168.80254117975886,170L168.90859385444065,170L169.01464774922366,170L169.12070134790306,170L169.22675540859237,170L169.33280993128713,170L169.43886491598735,170L169.5449203627064,170L169.65097657104548,170L169.75703294179314,170L169.863089774564,169.9963014770009L169.9691476821927,169.99409028364028L170.07520543901438,169.98918788008L170.18126365785926,169.98211030723272L170.28732233874067,169.97751216580653L170.3933814816541,169.97560292284246L170.39338202639993,169.9756029283283L170.49944108660407,169.96647056831543L170.60550137603283,169.96049903314767L170.7115619050602,169.95248161444036L170.72170664966424,169.95243629055443L170.81762289613738,169.9550426143954L170.81762321844533,169.95504260666326L170.92368467157232,169.9640396271526L170.92368492578706,169.9640396230175L171.02974658674466,169.96775625811816L171.13580921818595,169.9769632141451L171.24187209832266,169.99139981878233L171.34793552222996,169.99656278478554L171.45400010729082,169.99999961122626L171.45401210531776,169.99999962573497L171.56006433275647,169.9966914442522L171.6661290202852,169.99386867272236L171.77219416988592,169.98931079399782L171.8782597815586,169.98536792461195L171.98432585530767,169.9885137261886L172.09039239112872,169.99627614683024L172.1964593890306,169.99791963558468L172.30253958245154,169.99673553199287L172.40860750452393,169.99582983130767L172.41874015052164,169.99575541048205L172.51467588867715,169.99703997544805L172.62074473492893,169.99902570782024L172.73695821732764,170L172.84302801723044,170L172.94909827922734,170L173.05516900332722,170L182.38105493270126,170L182.48716676509133,170L182.59327905982826,170L182.69939181691197,170L182.8055050363425,169.99541423919118L182.91161871811985,169.9861455850468L183.01773286225736,169.97918469459108L183.1238474687461,169.97882196925812L183.22996253759493,169.99071847731292L183.3360781732224,169.99570882869395L183.4421948386491,169.99990520823903L183.5483112945916,169.99052364345982L183.6544282129031,169.98031410522577L183.760545593588,169.9678586891602L183.76054565714168,169.96785868433122L183.86666343664632,169.96853998234917L183.9727817420869,169.98244318559642L184.07890146321057,169.9975570261723L184.18502069341133,169.99978832597523L184.29114038599434,170L184.39726054097738,169.99727207215395L184.50338115833827,169.99414334879486L184.6095022381036,169.99193695525977L184.7156237802601,169.99295304885962L184.8217457848166,169.99618644593716L184.92786917784105,169.99999957705322L185.033992107202,170L185.14011549897185,170L185.24623935315503,169.99781489294716L185.3523636697471,169.99574909783303L185.45848844875246,169.99402077445578L185.56461369018442,169.99432490636548L185.67073939402974,169.9965826736361L185.77690547655249,170L185.88303210524657,170L185.9891591963717,170L186.09528674993234,170L195.43629406111566,170L195.5424627818343,170L195.64863196522782,170L195.75480161130065,170L195.86097172004835,169.9965664528443L195.9671422914798,169.99078154297422L196.07331332559053,169.9786996360084L196.17948482238944,169.97173022591682L196.28565678188542,169.96320650324913L196.3918292040651,169.9584601986808L196.391829476438,169.95846018241494L196.49800236131918,169.9653297892432L196.60417570889294,169.97967509824784L196.71034951916374,169.994613958028L196.8165246047241,169.99993970718648L196.81653795099697,169.99993976023435L196.92269934040672,169.99541578170084L197.02887453879964,169.9898386296195L197.13505019990293,169.98811375711L197.24122632372098,169.99419705292436L197.34740291024937,169.99626066227057L197.4535799595014,169.9977996560659L197.55979830925628,170L197.6659762839556,170L197.7721547213785,170L197.8783336215384,170L208.9234387697655,170L209.02966627151636,170L209.13589423628343,170L209.24212266407113,170L209.34835155487505,169.99614964667555L209.4545809087041,169.99198349402062L209.56081072555378,169.98843266404066L209.66704100543743,169.98795138542795L209.7732717483506,169.9918409776695L209.8795040256356,169.99786120555416L209.9857356946167,169.99951802727236L210.0919678266406,170L210.1982004217073,170L210.30443347981245,169.99652983398727L210.41066700096926,169.99424731979207L210.51690098517776,169.99226894506543L210.62313543243795,169.99074719553045L210.7293703427498,169.99606297864574L210.83560571612222,169.99837601976742L210.94185387742968,170L211.04809017692767,170L211.15432693949063,170L211.26056416511858,170L221.46149428321502,170L221.56777643930894,170L221.6740590587383,170L221.78034214149864,170L221.88662568759878,169.99873688866992L221.9929096970388,169.99576593139577L222.09919416982754,169.99177901043902L222.20547910595613,169.9901434444251L222.31176450543782,169.99011952512024L222.4180506315621,169.99281568496025L222.52433695774565,169.99824778321852L222.52433746617513,169.9982477905053L222.63062425571624,169.99668795779834L222.73691150861941,169.99493228479142L222.8431992248846,169.99377027763808L222.94948740451176,169.99492552818586L223.0557760475054,169.99763150134714L223.17995239169014,170L223.28624196142997,170L223.39253199454507,170L223.49882249103993,170L234.2186755390294,170L234.3250133142668,170L234.4313515531677,170L234.53769025571876,170L234.6440294219377,169.99703217864143L234.75036905181568,169.99147662384428L234.85670914536155,169.98751881091815L234.96304970257975,169.98744191631715L235.0693907234703,169.9884325233428L235.17573237599646,169.99176022320447L235.28207467831646,169.99418281995332L235.38841709023728,169.99550107578338L235.49475996584377,169.99581081610907L235.6011035729648,169.99568305916932L235.7074473759425,169.9964331056298L235.81379164261028,169.9981838554901L235.9255223249477,170L236.03186751900893,170L236.13821317676465,170L236.24455929822372,170L244.43269776200708,170L244.53908006051208,170L244.6454628229288,170L244.7518460492617,170L244.8582297395196,170L244.96461389369364,169.974421902703L245.07099851179274,169.88972057823105L245.1773835938257,169.7446302423626L245.28376913978812,169.55778939647445L245.3206689346197,169.49270249942666" style="stroke: #2ca02c;"></path></g></g></svg>
