<svg width="300" height="220"><g transform="translate(40,10)"><g class="x axis" transform="translate(0,170)"><g class="tick" transform="translate(69.52741517536299,0)" style="opacity: 1;"><line y2="6" x2="0"></line><text y="9" x="0" dy=".71em" style="text-anchor: middle;">467</text></g><g class="tick" transform="translate(147.51626626503125,0)" style="opacity: 1;"><line y2="6" x2="0"></line><text y="9" x="0" dy=".71em" style="text-anchor: middle;">468</text></g><g class="tick" transform="translate(225.50511735469956,0)" style="opacity: 1;"><line y2="6" x2="0"></line><text y="9" x="0" dy=".71em" style="text-anchor: middle;">469</text></g><path class="domain" d="M0,-170V0H250V-170"></path><text y="20" x="125" dy=".71em" style="text-anchor: middle;">m/z</text></g><g class="y axis" transform="translate(0,0)"><g class="tick" transform="translate(0,170)" style="opacity: 1;"><line x2="-6" y2="0"></line><text x="-9" y="0" dy=".32em" style="text-anchor: end;">0.0</text></g><g class="tick" transform="translate(0,139.0909090909091)" style="opacity: 1;"><line x2="-6" y2="0"></line><text x="-9" y="0" dy=".32em" style="text-anchor: end;">0.2</text></g><g class="tick" transform="translate(0,108.18181818181819)" style="opacity: 1;"><line x2="-6" y2="0"></line><text x="-9" y="0" dy=".32em" style="text-anchor: end;">0.4</text></g><g class="tick" transform="translate(0,77.27272727272728)" style="opacity: 1;"><line x2="-6" y2="0"></line><text x="-9" y="0" dy=".32em" style="text-anchor: end;">0.6</text></g><g class="tick" transform="translate(0,46.36363636363636)" style="opacity: 1;"><line x2="-6" y2="0"></line><text x="-9" y="0" dy=".32em" style="text-anchor: end;">0.8</text></g><g class="tick" transform="translate(0,15.454545454545467)" style="opacity: 1;"><line x2="-6" y2="0"></line><text x="-9" y="0" dy=".32em" style="text-anchor: end;">1.0</text></g><path class="domain" d="M250,0H0V170H250"></path><text transform="rotate(-90)" x="-85" y="-30" style="text-anchor: middle;">Normalized Intensity</text></g><g class="filename"><path class="profile line" d="M0,169.99024692671694L0.06412841366830713,169.99238012840584L0.16946041989733068,169.9953285745555L0.27479311999901757,169.99999996798934L0.38012676365740694,170L0.48546014334813836,170L0.5907939808683054,170L0.6961282762134748,170L0.801463029392513,170L0.9067982404009868,170L1.0121344539935944,170L1.1174705806786718,170L1.2228071652064845,169.99544512019216L1.3281442075858985,169.97902470293022L1.4334817078036142,169.96168948947712L1.5388199473293778,169.94392470642507L1.644158363245863,169.94312506300506L1.644158422259995,169.94312506255645L1.7494972370228161,169.9528149993842L1.8548366185997045,169.97769248311283L1.9601766214519438,169.99015451958087L2.065516868814733,170L2.1708578918019588,170L2.2761990548945494,170L2.3815409346196104,170L2.4868830134553024,170L2.592225591025132,170L2.697568762664053,169.99482727571186L2.6975689987205804,169.9948272641205L2.8029124511953056,169.99545060515624L2.908257051564052,169.9999998884536L3.0136014198084777,170L3.1189462459444033,170L3.2242915299718287,170L3.3296372718951868,170L3.4349834717144776,170L3.540330129438568,170L3.645677245058591,170L3.7510257128789206,170L3.856373744317408,170L3.961722233669562,170L4.067071180930948,170L4.172420586110431,170L4.277770449208015,170L4.383120770223695,170L4.488473787163802,170L4.593825024033413,170L4.699176718834423,170L4.804528871557965,170L5.120587505391484,170L5.2259414898760825,170L5.3312959323053795,170L5.4366508326838066,170L5.5420061910157985,170L5.64736200729692,170L5.752718281536039,170L5.8580750137331545,170L5.963432203892701,170L6.068790292355324,170L6.174148398444163,170L6.279506962499866,170L6.384866039005882,170L6.490148655376162,170L6.595508593354619,170L6.700868989322108,170L6.799095500035602,169.9779507548615L6.904456811963415,169.2829285073303L7.009818581880258,167.9607836519386L7.115180809786129,167.07038769736644L7.2205434956898955,165.03386740200787L7.325906639587125,155.31667977311162L7.43127024148225,123.99475851890432L7.536634301379703,74.79618161041088L7.641998819279484,24.432007164203497L7.747363795186027,15.454545454545467L7.8527292290993325,58.8388945290755L7.958095121028266,110.0211547004281L8.063461470972825,148.69564555073555L8.168828278928583,165.208541110123L8.274195544908833,169.73345416525544L8.386738586104524,170L8.492145885419609,170L8.597514525473342,170L8.702883623556003,170L8.808253179676457,170L8.913623193830272,170L9.018993666017447,170L9.12436459624685,170L9.229735984522913,170L9.335107830845637,170L9.44048013521945,170L9.545852974812254,170L9.651226553908163,170L9.756600232444123,170L9.861974369035613,170L9.967349108957048,169.96930038683522L9.967349322315833,169.96930032467571L10.072724375031674,169.98775204046368L10.17809988581634,169.9939716135978L10.28347599993982,169.99999997688667L10.388852490424686,170L10.494229375429128,170L10.599606718511264,170L10.704984860141671,170L10.810363196560383,170L10.915741913893328,170L11.021121089317264,170L11.12650113592668,170L11.231881250234775,170L11.337262303830448,170L11.44264331163165,170L11.548024777537142,170L11.653406701546926,170L11.758789428666697,169.99298007306152L11.86417226889393,169.9948022488099L11.969555567234318,169.9989237091692L12.074939409943722,169.99999998363418L12.18032401491604,170L12.285708687609201,170L12.39109381842882,170L12.49647947546369,170L12.601865985565748,170L12.707252490769168,170L12.812639454107915,170L12.91802687557755,170L13.023415077494892,169.9960942843256L13.128803415252907,169.99636433867298L13.234192211150676,169.9976796861589L13.339581823821408,169.99937494129992L13.378440101076789,169.9994061741437L13.44497153601199,169.99838943782623L13.550361706360063,169.98959751528776L13.655752334865623,169.98020565809006L13.76114354409205,169.9706379176342L13.761143948111876,169.9706378809561L13.866535429378732,169.97108278043396L13.97192743235676,169.9803250963983L14.077319893510008,169.99519009890244L14.182712812829612,169.99999782854633L14.288106548939911,170L14.393500543489726,170L14.498894837326127,170L14.60429126444005,170L14.709686474635761,170L14.815082143019994,170L14.920478269588314,170L15.025874790795907,170L15.131271833750136,170L15.236669334897318,170L15.342067294241886,170L15.447465711788277,170L15.552864587532056,169.99300500972763L15.658263921490951,169.9856839490326L15.76366371365167,169.98199391069664L15.76366377720535,169.98199390969876L15.869063964023075,169.9839104902218L15.974464672609601,169.9896270785803L16.079865902964922,169.99698633065725L16.185267745884456,169.99999998377578L16.185268295169834,169.99999999948096L16.29067037841502,169.9924429509855L16.396072919879753,169.98571321233325L16.501475919572908,169.9816915433423L16.501476359909123,169.98169154881904L16.606879377494487,169.98073029145732L16.712283293648913,169.98094601160489L16.81768768619882,169.9836871091318L16.92309294100584,169.98445223786436L17.028498231872124,169.98575572963793L17.13390398098456,169.99001399810388L17.239310188338717,169.99460325321624L17.3447483674854,169.99999989437183L17.450155491340727,170L17.55556307345107,170L17.660971113812,170L23.88083327540819,170L23.986268815991014,170L24.091704814997318,170L24.197141272422666,170L24.30257818827149,169.99643534822326L24.40801556254823,169.99210827701256L24.513453395248444,169.9905987848506L24.618891686385435,169.99308121019263L24.724330435954776,169.9969779136504L24.82982647910492,170L24.93526614555224,170L25.040706270436345,170L25.146146853766094,170L43.710797161845264,170L43.81631893176994,170L43.92184116060574,170L44.02736384836153,170L44.132886995046185,169.99685636042275L44.23841060065526,169.99367591753753L44.34393466519319,169.99111457270467L44.44945918865998,169.99075766133907L44.5549841710645,169.99271949990788L44.660509612402294,169.9956704180826L44.766056803165185,170L44.87158316239174,170L44.97710998055158,170L45.08263725766244,170L45.82132190038858,170L45.92685284917413,170L46.032384256932865,170L46.137916123664795,170L46.24344844937434,169.99707118611946L46.34898123406151,169.99571939980234L46.45451447773074,169.99552166748143L46.560048180386445,169.9965699698397L46.66558234202865,169.9981977119993L46.77111953204629,170L46.87665461167033,170L46.9821901502853,170L47.08772614790449,170L48.1431113695502,170L48.24865241631778,170L48.35419392211619,170L48.45973588694541,170L48.56527831081875,169.99847594975725L48.67082119371848,169.9965157160257L48.776364535666765,169.99497942769952L48.88190833665473,169.99511573781345L48.98745259668682,169.99692709170526L49.09300115623001,170L49.198546334363634,170L49.30409197155025,170L49.40963566637308,170L49.515182221678955,170L49.62072923604226,170L49.72627670947185,170L49.83182464196772,169.99703037251751L49.937373033534314,169.99381260337287L50.04292188417162,169.99012192749342L50.14847119388852,169.98163748701532L50.25402096267613,169.98666920591802L50.35957119054776,169.9930630190386L50.465121877503414,169.99770758265012L50.570681798490526,170L50.67623340362307,170L50.78178546783964,170L50.88733799115352,170L51.731768331832434,170L51.83732498711083,170L51.942882101504296,170L52.04843967503054,170L52.153997707676254,169.99775304614204L52.25955619944589,169.99569656595492L52.36511515035274,169.99422490801092L52.470674560392375,169.99430188982268L52.57623442956479,169.99593050096925L52.681794757883296,169.99809201523533L52.78738340454433,170L52.89294465114613,170L52.998506356894005,170L53.1040685217924,170L57.643654379280584,170L57.74923674939947,170L57.85481957878414,170L57.96040286744344,170L58.065986615377405,169.99105217207884L58.171570822586,169.98133140682015L58.277155489078105,169.97599766978706L58.277155534473586,169.9759976689159L58.38274061485372,169.97820074922876L58.48832619990841,169.9861466273722L58.593912384981486,169.99652179679723L58.69951905329581,170L58.80510601622763,170L58.91069343845183,170L59.0162813199817,170L63.55698095983267,170L63.662589053139676,170L63.76819760586762,170L63.873806618020915,170L63.979416089590735,169.99719184907022L64.08502602059478,169.99278351228378L64.19063641102422,169.98423332205553L64.29624726088787,169.97625772113395L64.40185857018133,169.9783857641084L64.5074703389179,169.98669456306615L64.61308256708868,169.99500026629525L64.71870994014675,170L64.82432308720819,170L64.9299366937216,170L65.03555075967812,170L76.12758377729338,170L76.23324656014273,170L76.33890980272332,170L76.44457350504406,170L76.55023766710491,169.99640567012878L76.65590228891031,169.99024135293237L76.76156737046472,169.98150055289798L76.86723291176811,169.97556238041852L76.97289891281606,169.9806424423445L77.0785653736263,169.98665182681003L77.07856576856702,169.98665184803218L77.18423229419439,169.98652427894075L77.28989967451591,169.9848189513659L77.39556790954931,169.98367219150867L77.39556834080642,169.98367219369808L77.50123620939985,169.97747758817624L77.60690521415715,169.97444481541083L77.60690540027865,169.97444481212457L77.71257443354557,169.97656637109708L77.8182442988355,169.99178831972495L77.81825069505948,169.99178851535487L77.92391446501239,169.98998214170155L78.02958549044956,169.98581159127127L78.1352565489492,169.986714850224L78.24092806723773,169.9888364042825L78.34660004530627,169.99241148450278L78.45227248316814,169.99505765721824L78.55794581661559,169.99999971997264L78.6636191740641,170L78.76929439403088,170L78.87496867107048,170L78.98064340792114,170L79.08631860456954,170L79.191994261029,170L79.29767037729951,170L79.40334695338551,170L79.50902398928702,169.99796255416615L79.61470148500399,169.98996872310906L79.7203794405409,169.98442624196372L79.82605785590657,169.98260932511587L79.93173673109662,169.98946834313185L80.03741606611544,169.99681521098043L80.1430958609675,170L80.24877640618388,170L80.35445712070681,170L80.46013858105896,170L80.56582021526606,170L80.67150261800897,170L80.77718517190911,170L80.88286818565578,170L80.98855298935,170L81.09423692280743,170L81.19992131612467,170L81.30560616930175,170L81.41129148234751,170L81.51697725525752,170L81.62266348803622,170L81.72835018068803,170L81.83403733320853,170L81.93972494561545,170L82.04541301789548,170L82.15110219921297,170L82.25679119127027,170L82.36248064320515,170L82.46817055503529,170L82.57386092675628,170L82.67955175837257,170L82.7852448520938,170L82.89093660350952,170L82.9966282519298,170L83.10232092315381,170L83.20801405429086,170L83.31370764534535,170L83.41940169630841,170L83.52509620719339,170L83.63079117799577,170L83.73648660872007,170L83.84218249937068,170L83.94787929482338,170L84.05357610533106,170L84.15927337577392,170L84.26497110615196,170L84.36733630087392,170L84.47303495113118,170L84.57873406133251,170L84.68443363148232,170L84.7901336615806,170L84.89583415162738,169.9198920661235L84.89916802789551,169.91728311884037L85.00153510163594,169.99739105611368L85.1072365115974,170L85.21249339907854,170L85.31819572896357,169.75431382466826L85.42389851881039,168.35171147748636L85.52960176863229,167.36774547787414L85.6353054784204,163.20261730515827L85.74100964818359,147.93655464997263L85.84671427791744,109.1195496407168L85.95241936763524,62.485353412478986L86.05812491733255,25.161738740594274L86.06630514532225,24.312652324592705L86.16383092701824,43.6573248226498L86.26953739668787,90.59253282914558L86.37524432634588,135.1894998966523L86.48095171599228,160.22494457366545L86.58665956564036,169.01299213340755L86.69236787528126,169.98844031762616L86.80185842256383,170L86.90756765220809,170L87.01327734186289,170L87.11898749151938,170L87.22469810118639,170L87.33040917087284,170L87.43612070056983,170L87.54183269028623,170L87.64754514002647,170L87.75325804979057,170L87.85897141957851,170L87.96468567611673,170L88.07039996596566,170L88.17611471585619,170L88.28182997571443,170L88.38754605877372,170L88.49326218878011,170L88.59897877883249,170L88.70469586071218,170L88.81041371586672,169.9726349401605L88.81041372040627,169.97263493898566L88.91613168607044,169.98015106196678L89.02185011632906,169.99843759015383L89.1275690656611,169.99999999228476L89.1275691110566,169.99999999295568L89.23328878374622,169.95399437709705L89.23328882460214,169.95399436918404L89.33900859419163,169.96446627720093L89.44472886470076,169.98348796845264L89.55044963613847,169.99459757268923L89.65617082678841,169.9967259604998L89.76189296779108,169.99999999479846L89.86761507859511,170L89.97333780836482,170L90.0790608393318,170L90.18478433038914,170L90.29050828152793,170L90.39623305138586,170L90.50195795448663,170L90.60768420289858,170L90.7134099944165,170L90.81913624603804,170L90.92486295776324,170L91.03059012960095,170L91.1363177615423,170L91.24204585359615,170L91.34777440576697,170L91.4535034634502,170L91.55923293585931,170L91.66496286838537,170L91.77069398736947,170L91.876424840156,169.99676292733506L91.98215615306836,169.98643333079647L92.08788798513396,169.97618108946963L92.19362046799083,169.9702156586317L92.1936206132564,169.97021565043568L92.29935316131609,169.97505807105262L92.40508631478043,169.99204774303027L92.51082007365389,169.99686076862758L92.61655422004254,169.99999957590927L92.72228901270066,170L92.82802410662698,170L92.93376113606344,170L93.0394970504378,170L93.14523342496459,170L93.25097036407112,170L93.4624453095436,170L93.56818352474207,170L93.67392220011511,170L93.77966133565829,170L93.88540093138492,169.99727734682423L93.99114098729498,169.98590432748813L94.09688150338849,169.9779502709495L94.20262247966544,169.96931772897793L94.3083639161347,169.9680796308864L94.41410591720586,169.96647067040013L94.41410623497426,169.96647066363724L94.51984827406416,169.9728148324788L94.6255914088876,169.98221071168388L94.73133468613936,169.98758298316181L94.73133518095017,169.9875829846384L94.83707842359675,169.98738852647188L94.83707930880874,169.98738853113184L94.94282311607054,169.98689854920008L94.94282351101126,169.9868985613714L95.04856777393913,169.9798712336299L95.15431289202218,169.9748313165052L95.26005886071647,169.96645301263223L95.26005886525601,169.96645301258755L95.36580489922848,169.96685234298386L95.47155139795939,169.97756437802585L95.57729835691364,169.99145929753774L95.68305325272777,169.99999957005562L95.7888011321287,170L95.89454947176182,170L96.00029827162716,170L101.4998701310243,170L101.60564332702228,170L101.7114169834032,170L101.81719110015817,170L101.92296567730052,169.9978765373486L102.02874071482137,169.98711476101494L102.134516212734,169.96951722945946L102.24029217102958,169.95264250552276L102.34606858972582,169.94938701182923L102.45184546880942,169.9625941154705L102.55762280829812,169.97841112371688L102.66340060818305,169.99586805625376L102.76918261360511,169.999999990487L102.8749613342958,170L102.98074051540489,170L103.08652015691908,170L104.77905668520454,170L104.8848441541152,170L104.99063208349301,170L105.09642047333357,170L105.20220932363684,169.99615148453924L105.30799863440284,169.9923856775684L105.4137884056493,169.9852880021296L105.51957863736293,169.98259979932743L105.51957908677824,169.98259980653543L105.62536932954815,169.97374584942781L105.73116048221827,169.972862129882L105.73116094071267,169.9728621175487L105.8369522724068,169.97308123958553L105.9427445230758,169.9731889967264L106.04853705719616,169.97601840851937L106.15433014713193,169.98356067366313L106.260123879139,169.99323726007074L106.36591779473177,169.9958413635349L106.47171281543422,169.99999956000718L106.57750765202339,169.99436325625618L106.68330294911517,169.9908220509357L106.7890987067096,169.99004648455028L106.89489492481108,169.99290845749928L107.00069160342404,169.99714030266944L107.10649162970142,170L107.2122892293418,170L107.31808728949812,170L107.42388581018368,170L108.79930848763212,170L108.90511345588199,170L109.01091888469654,170L109.11672477407579,170L109.22253112401972,169.99690375859512L109.32833793453278,169.99295315185674L109.43414520561497,169.99068629465853L109.53995293727515,169.9917775737906L109.64576112950888,169.99502988831637L109.75157033161041,169.9979264175541L109.75157611953489,169.99792659882308L109.85737944500899,169.99627063021114L109.96318901899001,169.9953934700117L110.06899905355786,169.9961068294631L110.17480954872144,169.99798548591704L110.22435241940131,170L110.33016383574748,170L110.4359757126938,170L110.54178805024472,170L113.45516781485644,170L113.56099305032001,170L113.66681874646353,170L113.772644903287,170L113.87847152079488,169.99737262864852L113.98429859898712,169.99396789956302L114.09012613787263,169.991579847167L114.1959541374425,169.9918858349358L114.30178259771452,169.99434159515135L114.40761293047939,170L114.5134423121512,170L114.56299820888844,170L114.6192721545207,170L114.6688285119645,170L114.72510238496396,170L114.7746592757471,170L114.83093314874655,170L114.88049050024067,170L114.93676437324014,169.99951711062258L114.98632218544525,169.99909185215347L115.04259605844472,169.99642431061517L115.09215433136967,169.9924936060747L115.14842820436913,169.9873829338524L115.19798693801393,169.9803687953481L115.25426081101341,169.97228559625628L115.30382000537806,169.96564760356068L115.36009387837753,169.96082854771132L115.40965353346203,169.95909953841027L115.4659274064615,169.96011659960965L115.51548752227473,169.96383918398874L115.57176139527418,169.9688947263999L115.62132197182056,169.97608048188056L115.67759591745282,169.9839533381683L115.72715688209956,169.9895050041324L115.78343090490414,169.99499691627298L115.83299225310726,169.99787714798742L115.88926810081038,169.99944590732855L115.9951039325601,169.99999999940584L116.10094022504299,170L116.20677709176546,170L116.31261430574123,170L116.41845186697475,170L116.52428999791276,170L116.63012859413674,170L116.73596765112492,170L116.84180716886841,169.99773908382508L116.94764714737165,169.98445141661168L117.0534875866391,169.9610054211538L117.15932848667957,169.92637676454936L117.2651698474798,169.91447633865857L117.26516985201934,169.91447633854315L117.3710116690575,169.93160266699533L117.47685395141269,169.95804339098413L117.58269669454094,169.98630217435635L117.68854438352511,169.99999956973636L117.79438804821719,170L117.90023217370003,170L118.0060767599648,170L120.75819774833964,170L120.86405477689976,170L120.96991226632161,170L121.07577021660961,170L121.18162862776819,169.99597001588845L121.28748749979734,169.9825436868957L121.39334683270151,169.96544744106976L121.49920662648067,169.95741303375672L121.49920675358804,169.9574130289716L121.6050668811393,169.96574360557128L121.71092759667735,169.97971756801627L121.81678889567155,169.9915536228207L121.92265140457957,169.9999994851283L122.02851350277813,170L122.13437606187387,169.99611766301408L122.24023908186236,169.99271421042187L122.34610256275245,169.99091456236647L122.45196650453973,169.99228355570534L122.55783090722862,169.99589378491982L122.6637022760011,170L122.76956760050652,170L122.87543338592239,170L122.9812996322532,170L126.68690748832384,170L126.79279032933805,170L126.8986736313647,170L127.00455739441266,170L127.11044161847308,169.99596214253052L127.2163263035592,169.99338583301017L127.32221144967107,169.99212808619757L127.42809705679983,169.99254991011125L127.53398312496317,169.99408175784797L127.63987052121492,169.99999998503026L127.74575751144748,170L127.85164496271022,170L127.95753287502087,169.99703254798354L128.06342124837056,169.98899934663567L128.1693100827637,169.96368967349426L128.27519937820475,169.94899728088484L128.3810891346937,169.93395987803555L128.38108942976436,169.93395983996757L128.48697935223947,169.93707732637563L128.59287025781938,169.95463378524926L128.6987614383346,169.97688758825623L128.8046531207625,169.98755799250043L128.91054554117295,169.99312765183166L129.01643806402916,169.99604274452165L129.12233290007794,170L129.2282263450743,170L129.33412025114066,170L129.440014618286,170L129.96949337025436,170L130.07539050391762,170L130.18128809867758,170L130.2871861545342,170L130.39308467149635,169.99529068546357L130.4989836495552,169.99272370690835L130.60488308872397,169.992535586519L130.71078298900719,169.99493834692456L130.81668335040035,169.99796003626287L130.9225922260627,170L131.02849350968913,170L131.1343952544299,170L131.24029746029842,170L135.90044950439994,170L136.0063724635552,170L136.11229588396228,170L136.2182197656168,170L136.32414410852311,169.99694804154814L136.43006891268126,169.99218077175692L136.53599417809568,169.98749387156732L136.6419199047708,169.98586712073654L136.74784609271103,169.9868301257596L136.85377274191197,169.99059840928552L136.95970021100237,169.98411250693724L136.95970056508716,169.9841125245906L137.06562778274687,169.97926886219233L137.1715558157609,169.97107873032692L137.27748431004898,169.96124386542937L137.27748466413377,169.96124383113155L137.38341361515623,169.9707391734021L137.48934303200116,169.9836795553707L137.5952729101334,169.99524276939633L137.70120325408357,169.99856456678896L137.80713490822546,169.99999995122155L137.91306617021957,169.99165984044745L138.0189978935098,169.98563489790843L138.12493007809624,169.98431098094545L138.23086272398322,169.9886685380667L138.3367958311708,169.99734280632262L138.44273320380518,169.99999971229656L138.54866723360726,170L138.65460172471435,170L138.7605366771398,170L140.66744450403112,170L140.7733882219082,170L140.87933240115234,170L140.9852770417636,170L141.0912221437508,169.99816202910884L141.1971677071051,169.9940157523671L141.3031137318398,169.98477484321947L141.40906021795487,169.96588013383445L141.51500716545038,169.96080762284754L141.62095457433955,169.96676839820182L141.7269024446091,169.98070534726952L141.83285089429617,169.99060265430685L141.93879968734868,169.9998649281812L142.04475076670226,170L142.15070048255103,170L142.25665065980235,170L142.36260129845618,170L142.5745039599849,170L142.6804559828686,170L142.78640846716374,170L142.8923614128747,170L142.99831482001042,169.9986331786788L143.10426868857084,169.99660380275944L143.21022301855155,169.99480246890528L143.31617780996143,169.99448262352277L143.42213306280047,169.9958983241624L143.52808877707307,169.99799095801623L143.63405533019625,170L143.74001196734045,170L143.84596906593603,170L143.95192662596958,170L151.26411165602286,170L151.37010152380213,170L151.47609185321895,170L151.58208264427327,170L151.68807389696957,169.99703698527458L151.79406561130776,169.99393353949384L151.9000577872835,169.9925118857836L152.00605042491446,169.9934744319005L152.00605093334391,169.99347444294017L152.11204352419628,169.99092494661116L152.2180375935583,169.98645763665803L152.32403161614616,169.9797281372994L152.4300261003937,169.9788367161779L152.5360210463009,169.98539252550424L152.64201645387223,169.987204998439L152.64201707125082,169.98720499509372L152.7480123231121,169.9888439800887L152.85400927139912,169.9864540165251L152.9600060639761,169.98106395375999L153.0660033182349,169.98070331237818L153.17200103416667,169.9844795782718L153.27799921178033,169.99018216961903L153.383998146142,169.99459313450274L153.48999724712377,169.99668135340085L153.59599771316198,169.99985002545145L153.7019977375207,170L153.80799822357017,169.99439175411158L153.91399917132364,169.9854617338106L154.02000058077226,169.9762665753257L154.126002451916,169.97491328492345L154.23200478477264,169.98359849977663L154.33800757932886,169.99218756592776L154.44401083559796,169.99661018001345L154.55001517549366,169.99299196289397L154.65601935519294,169.9909655909134L154.7620239966095,169.99229916508642L154.86802909973898,169.99580899961697L154.9795709437261,170L155.0855769703035,170L155.1915834586159,170L155.29759040865895,170L163.03207830280357,170L163.1381194283772,170L163.24416101588534,170L163.3502030653236,170L163.45624557670087,169.99890835699085L163.56228855001703,169.94828635211684L163.66833198527664,169.70677158520235L163.7743758824841,169.3043794856282L163.8804202416349,168.25917516865812L163.98646506274244,165.01057517996577L164.09251034580225,156.44589171869112L164.19855609081432,145.73003860445118L164.30460229778754,136.2315135457938L164.31735828862546,135.79251733844015L164.4106489667263,139.2545171275797L164.5166960976218,150.18054838151087L164.62274369048725,160.93095335847818L164.72879174532272,167.4936050614404L164.83484026213264,169.78763732081592L164.94063170324586,169.99930749021914L165.04668114400906,170L165.1527310467467,170L165.25878141147209,170L165.3648322381852,170L165.4708835268816,170L165.57693527757462,170L165.68298749025533,170L165.78904016493712,170L165.8950933016155,170L166.0011469002949,170L166.10720096552376,170L166.21325583322422,170L166.31931081792445,170L166.4253663781322,170L166.5314223640334,170L166.63747902531216,170L166.74353585808305,170L166.84959315287267,170L166.95565090969436,170L167.0617092284093,170L167.16776790929072,170L167.27382771497827,170L167.3798873199282,170L167.4859473869191,170L167.59200791594648,170L167.69806902505192,170L167.8041306506817,170L167.91019256585406,169.9957632067114L168.0162555468406,169.9918993279228L168.0648560040793,169.98769917418335L168.1223183861214,169.9827331542618L168.1709188433601,169.98182642098902L168.22838168746088,169.9807543431598L168.27698214469956,169.98527906039163L168.33444545086343,169.99062891153184L168.38304590810213,169.99238606762677L168.4405096763291,169.9944636779273L168.54657436385784,169.99791705753998L168.71583230427407,170L168.82189791594675,170L168.92796398969583,170L169.03403052551684,170L179.89817963578778,170L180.0042942422765,170L180.11040931112535,170L180.21652484234318,170L180.3226408359167,169.99700670116815L180.42875729185923,169.9930232249521L180.5348742101707,169.9882975807769L180.6409915908556,169.98209638369218L180.74710943391392,169.97481386915294L180.85322773935454,169.9731172716002L180.85322800718788,169.97311726714403L180.959346507173,169.97635781864415L181.0654660052071,169.98452649221505L181.17158569779014,169.99201687099819L181.2777336166524,169.99862773650182L181.3335240560982,170L181.38385423401328,170L181.4396446734591,170L181.48999995898797,170L181.54576575322446,170L181.59612150114447,170L181.65188729538093,170L185.52289693379493,170L185.62903604900956,170L185.73517562673052,170L185.8413156669491,170L185.9474561696829,169.9974469318334L186.05359713491873,169.99461407504592L186.15973856266984,169.99223047193522L186.26588045293622,169.99175751572392L186.37202280571785,169.99334370063502L186.47816562102366,169.99593610380632L186.5843309338136,170L186.69047467416326,170L186.79661887704592,170L186.90276354245717,170L206.12256902904215,170L206.2287979198461,170L206.33502727367514,170L206.44125709052483,170L206.54748737040845,169.9970290834302L206.65371811332164,169.98979435792566L206.75994931927318,169.98056624644238L206.86618098825426,169.97541549576317L206.97241312027816,169.98188234376167L207.0786457153449,169.9912169100622L207.230093599027,169.99951868800605L207.3363271201838,170L207.4425611043923,170L207.5487955516525,170L220.04251214529864,170L220.14880171503845,170L220.25509174815357,170L220.36138224464844,170L220.46767320452307,169.998139478027L220.57396462778183,169.99640768187265L220.6802565144248,169.99553219667706L220.78654886445636,169.99612350273853L220.89284167788543,169.9977118731609L221.0513315106996,170L221.15762525091475,170L221.26391945453182,170L221.37021412155076,170L229.291448373725,170L229.39777826722877,170L229.50410862434285,170L229.61043944506272,170L229.7167707294062,169.9955130069976L229.82310247736433,169.99233688895686L229.92943468894165,169.99084836462922L230.03576736414695,169.99174551422803L230.14210050298027,169.9939036467014L230.3121637024096,170L230.41849776850336,170L230.5248322982295,170L230.6311672915881,170L241.56761590025437,170L241.67399912658723,170L241.78038281684513,170L241.8867669710192,170L241.9931515891183,170L242.09953667115124,169.85812906749237L242.20111489103138,169.52896852047206" style="stroke: #1f77b4;"></path></g><g class="filename"><path class="profile line" d="M1.559777021791947,170L2.50974459420002,170L2.615080637417694,170L2.7204171384825364,170L2.8257540973856807,170L2.93109151414486,169.9937916668328L3.0364293887512064,169.97456558975801L3.1417677212002886,169.93315829035276L3.2471065115142714,169.85637600769456L3.3524457596842887,169.79146956408275L3.3524458413961638,169.79146954965097L3.4577854657147737,169.80453724476374L3.5631256296145923,169.8652795376583L3.6684662513704462,169.9418956410065L3.7738074127119416,169.97276687494838L3.8791495902872484,169.9874672616158L3.98449158565997,169.99723892370835L4.089834038910892,169.9989441156202L4.195176950035582,169.99999995058795L4.300520541485218,170L4.405869066812408,170L4.511213351593863,170L4.616558094266818,170L4.721903294831273,170L7.250325428490906,170L7.355682077225052,170L7.461039183926061,170L7.566396748585067,170L7.671754771210936,170L7.777113251808101,170L7.882472190376563,170L7.9878315869207555,170L8.093191441440677,170L8.194386164276013,169.95381878127438L8.19855218065833,169.95191757721915L8.29974693475626,169.99809879749264L8.405108163225536,170L8.510469849679408,169.9783977023412L8.615831994131176,169.29715632864026L8.721194596571973,167.7540859483096L8.826557657006232,166.8818312176646L8.931921175442818,165.06369400774005L9.0372851518773,154.30746959787808L9.142649586318546,119.93935519162456L9.24801447876212,69.6393863172732L9.353379829216887,17.806727136683833L9.458745637682851,15.454545454545467L9.564111904164442,65.74781003247521L9.669478628666093,116.44075438333118L9.774845811183374,153.10892170160412L9.880213451720715,166.72300456473366L9.985581550286984,169.92793857184756L10.09511953246106,170L10.200488547089618,170L10.305858019742669,170L10.411227950437947,170L10.516598339166586,170L10.621969185937452,170L10.727340490754976,170L10.83271225361473,170L10.938084474525574,170L11.043457153487514,170L11.148830290504979,170L11.254204412165608,170L11.359578465298558,170L11.464952976495903,170L11.570327945753206,170L11.67570389059231,170L11.781079775987264,170L11.886456119459913,170L11.991832930084916,170L12.097210698137959,170L12.202588415843682,170L12.30796659163153,170L12.413345225505937,170L12.51872485767762,170L12.624104407729579,170L12.729484415881393,170L12.834864882124199,170L12.940246237728417,170L13.045627620175372,170L13.151009460726618,170L13.256391900112597,170L13.361775079063744,170L13.467158293945598,170L13.572541966940609,170L13.677927178470208,170L13.783311767704832,170L13.888696815061483,170L13.994082320553453,170L14.099468284163015,170L14.204854705912334,170L14.31024158578811,170L14.41562892380364,170L14.521016719958928,170L14.626404974258405,170L14.731793800186352,170L14.837183515524474,169.98437748856264L14.942573144260953,169.97387480673652L15.047963571616632,169.9615991063639L15.153354116663655,169.96800441445555L15.258745119868166,169.98553237536944L15.364136581230168,170L15.469528777670988,169.98339037713856L15.5749211553657,169.96284683785885L15.680314454260724,169.9543333410254L15.78570774829701,169.97146195993406L15.891101500504087,169.994431945064L15.996495837993747,169.99999989639628L16.101890638202608,170L16.2072875943823,170L16.31268317931243,170L16.418080638765808,170L16.52347714007298,170L16.734270100922586,170L16.83966797680862,170L16.945066310900906,170L17.050465103195013,170L17.15586435369537,170L17.261264062401985,170L17.36666422932372,170L17.472064854451705,170L17.57746593779925,170L17.682868895705504,170L17.788270895496584,170L17.893673353507214,170L17.9990762697507,170L18.10447964421374,169.99630704721213L18.2098834769185,169.96986508492094L18.315287767856105,169.94319202623393L18.42069251702657,169.9006867631104L18.52609772443875,169.878998786577L18.63150339009708,169.89242350481018L18.736909514001567,169.92639864036232L18.842316096152203,169.9337782818013L18.842316590963,169.93377826341091L18.94772363136422,169.9501292502579L19.05313113001603,169.96826384326735L19.158539086927288,169.9947317535619L19.26395980880982,169.99999694600342L19.36942982996404,170L19.47483916165809,170L19.58024895161602,170L28.119902938678447,170L28.2253503155535,170L28.3307981509141,170L28.436246444764667,170L28.54169519710965,169.99545739665342L28.64714440794904,169.99163732077406L28.75259407728727,169.989509286419L28.85804420512434,169.99096525084053L28.963494791464687,169.9948575822411L29.06900739259175,170L29.174458895947513,170L29.279910857810986,170L29.385363278195463,170L32.33816102573307,170L32.44362674417103,170L32.54909292120536,170L32.65455955683162,170L32.76002665105869,169.99463594108954L32.86549420388656,169.99248509854343L32.97096221531968,169.99120315022247L33.07643068535803,169.99068739861912L33.18189961400604,169.99121137626742L33.287369001272594,169.99345553779045L33.39285235684546,170L33.498322661335784,170L33.603793424453514,170L33.70926464618979,170L36.76812149545243,170L36.87360647711021,170L36.9790919174752,170L37.08457781654738,170L37.1900641743312,169.99528297433716L37.29555099082665,169.99073203040848L37.401038266038164,169.9876249409083L37.50652599997018,169.98884132132673L37.612014192622695,169.9938532776982L37.71750552686893,170L37.822994636971316,170L37.92848420580749,170L38.0339742333686,170L38.983405124820806,170L39.088899739848465,170L39.19439481363652,170L39.299890346189414,170L39.405386337516,169.9920882962753L39.51088278760298,169.98710607047929L39.61637969646367,169.986015447599L39.72187706410248,169.9897610348381L39.827374890510555,169.99520901889946L39.93292141294904,170L40.03842015692224,170L40.14391935968244,170L40.249372418228155,170L40.35487253856234,170L40.4603731176924,170L40.56587415562275,170L40.671375652348964,169.99544042238793L40.77687760787548,169.9910925151471L40.88238002220671,169.9887305923451L40.987882895342686,169.99026434386377L41.09338622729225,169.9942794078831L41.19890455821627,170L41.30440880778859,170L41.409913516178946,170L41.515418683387324,170L43.309065964651225,170L43.414579391067335,170L43.520093276359106,170L43.62560762051767,170L43.731122423551895,169.9947551170092L43.83663768546621,169.99148980188608L43.94215340626505,169.99041875347834L44.04766958593955,169.99186745652818L44.153186224507444,169.99463716436068L44.25872632839216,170L44.364243884737974,170L44.46976189997718,170L44.57528037411421,170L51.85715123431391,170L51.96270183783762,170L52.06825290045421,170L52.17380442215483,170L52.27935640295276,169.99426124164856L52.384908842834705,169.9887525777894L52.49046174182284,169.98468711386064L52.59601509990385,169.97489493896933L52.70156891709105,169.9889630103056L52.80712319338,169.9949852171928L52.91269363107374,170L53.01824882557949,170L53.12380447919586,170L53.22936059193614,170L61.78092723013723,170L61.886520999368535,170L61.99211522793655,170L62.09770991584571,170L62.203305063100444,169.99353940176002L62.30890066969188,169.98853201904961L62.41449673563333,169.98589055371374L62.52009326092478,169.98803501099079L62.62569024556625,169.99335554044313L62.731290376979345,170L62.83688828033412,170L62.9424866430522,170L63.04808546512915,170L63.892892579134134,170L63.99849553559611,170L64.10409895145243,170L64.20970282669421,170L64.31530716133477,169.99542811177696L64.4209119553741,169.99001013253996L64.52651720880777,169.9855874698798L64.6321229216535,169.98558063748894L64.73772909389358,169.9897156475303L64.84333572555016,169.99477036645882L64.84333649727341,169.99477040466797L64.94894358833764,169.9933808963636L64.94895987169846,169.9933813047946L65.05455113881393,169.99080181342092L65.16015914871116,169.98930873611246L65.26576761802046,169.9895583922719L65.37137654675512,169.99199406206822L65.47698593491073,169.9956961888561L65.58261281034294,170L65.6882231173626,170L65.79383388380761,170L65.89944510968685,170L77.09683983052663,170L77.20250023133207,170L77.30816109185548,170L77.41382241210128,170L77.51948419207834,169.99446718765154L77.62514643178221,169.9911089907135L77.73080913122622,169.98749896567838L77.83647229040149,169.9700909828L77.94213590931687,169.96251261345867L77.94213631787623,169.96251262496006L78.04779998797237,169.9456001465352L78.15346452637245,169.94248328967603L78.25912952452151,169.93162171327037L78.3647953909745,169.93092907635366L78.47046130862154,169.94599646160353L78.57612775411967,169.95574586721878L78.68179510879096,169.93137861340577L78.6817953357684,169.93137861742605L78.78746240570715,169.92318266146367L78.89313016239448,169.92691720149648L78.99879837883968,169.97080236176188L79.10446726387526,169.9879718621829L79.21013641802097,169.99541972828305L79.30809736121806,170L79.41376787653235,170L79.51943885162663,170L80.58387985887362,170L80.68955543192773,170L80.79523146479734,170L80.90090795747801,170L81.00658490997415,170L81.10455865364764,170L81.21023698560799,170L81.31591577739714,169.9931003036641L81.42159502901063,169.96557037157206L81.52727474046178,169.92065280163217L81.63295491174613,169.85409888989764L81.73863554286372,169.8138373922418L81.74633714253609,169.81173341072991L81.84431663382783,169.8429055765382L81.94999818462959,169.90596231092542L82.05568019527787,169.9609785129179L82.16136266577267,169.9925995766924L82.27462066727567,169.9967234731836L82.37810129463706,170L82.48378468483818,170L82.58946853489029,170L82.69515284481108,170L85.12835048933759,170L85.23404583666542,170L85.33974164391512,170L85.44543791109557,170L85.55113463820234,170L85.6568318252443,170L85.76252947222143,170L85.86822757913819,170L85.97392614600342,170L86.07962570393101,170L86.18532519067992,170L86.29102513738174,170L86.3967255440276,170L86.50229659316396,170L86.60579561673573,170L86.71149740326251,170L86.81719964974664,170L86.92290235620142,170L87.02860552262241,169.89723273949008L87.13430914900962,168.7282728946244L87.2400132353719,167.90931788925687L87.34571778171372,162.90175129023913L87.45142278803505,145.91379151618887L87.55712825433145,104.25337971105397L87.66283418062065,58.274422977389634L87.76854056688937,25.120310596014207L87.77083751492692,24.694047905297452L87.87424741315094,52.15818607207531L87.97995471940528,98.6189374704831L88.08566248564802,141.92804691889188L88.19137071189243,162.63558542922664L88.29707939813855,169.730084333526L88.40512451438363,169.99879280449173L88.51083412064195,170L88.61654418690198,170L88.72225471317252,170L88.82796569945806,170L88.93367714575858,170L89.03938905208294,170L89.14510141842227,170L89.2508142447899,170L89.35652753118137,170L89.46224127760554,170L89.56795548406244,170L89.67367067260012,170L89.77938579912689,170L89.88510138569521,170L89.99081746408196,170L90.0965344337674,170L90.20225140047376,170L90.30796882722615,170L90.41368676397286,170L90.51940566012482,170L90.62512446704626,170L90.73084373403145,170L90.83656346108039,170L90.94228365727659,169.95588690768196L90.94228407037552,169.95588673531208L91.0354541866925,169.96279139167007L91.14117529395041,169.9787198102386L91.24689686128535,169.99232708052537L91.34898806920202,169.99980368548395L91.45471055669549,170L91.560433504266,170L91.64732680645346,170L91.75305067420466,170L91.85877500203733,170L91.96449978996922,170L92.07022503799588,170L92.17595074612176,170L92.28167691435571,169.99360372845177L92.38740354268444,169.9475917668394L92.49313063112123,169.828585709622L92.59885817967498,169.61390880190712L92.70458618833237,169.3701874355386L92.81031465711112,169.25845414904123L92.81824927622851,169.256084247659L92.9160435860024,169.41738303261008L93.02177297501504,169.64093404618134L93.1275028241535,169.84289596806823L93.23323313341776,169.93880057602811L93.33896390280783,169.9733644641847L93.47970969320755,169.98691047832187L93.58544138286256,169.99444538361703L93.69117360982898,169.99999976891857L93.69117800865156,169.9999999190789L93.79690621975776,169.99773194174844L93.90263941239346,169.98139778962917L94.00837344650363,169.9502426391662L94.11410743686746,169.95720786702807L94.11410763206806,169.95720786155005L94.21984188737926,169.96741697022193L94.32557699324408,169.9890438934959L94.43131236406514,169.9948715568423L94.53705152253215,169.99999999713768L94.64278781367132,170L94.74852456497176,170L94.85426177643791,170L96.01740147426918,170L96.12314420793219,170L96.22888740179192,170L96.33463105586169,170L96.44037517013264,169.99555840029151L96.5461197446092,169.97551013301944L96.65186477930021,169.9534800707848L96.75761027421014,169.931434604156L96.86335622933011,169.8973204611429L96.86335628834424,169.89732045404685L96.969102644669,169.90606970467195L97.0748495202312,169.90874681577907L97.18059685601673,169.94213955444465L97.18060580346703,169.9421401933551L97.28634490170967,169.9417565898445L97.28634523309672,169.941756586475L97.39209348933781,169.9607614601796L97.49784220581111,169.98861154625794L97.60359138252103,169.99654283726056L97.66952290970737,170L97.7093492542132,170L97.775273006895,170L97.88102356432815,170L97.9867745820068,170L103.06336473189839,170L103.1691383048917,170L103.20896464939753,170L103.2749123382635,170L103.31473868276935,170L103.38068683201826,170L103.42051317652408,169.99917734835935L103.48646178615591,169.99781511608376L103.52628813066175,169.99372345450615L103.59223720068096,169.9812529278717L103.63206354518678,169.97047991959738L103.6980130755978,169.94782705075158L103.73783942010361,169.9334946689866L103.80378941090643,169.88752652884835L103.84361575541224,169.8623031440923L103.90956620660685,169.83410546096295L103.94939255111268,169.82570466893964L104.01534346271238,169.8250163040738L104.0551698072182,169.82882805135685L104.12112117921414,169.8588747012872L104.16094752371995,169.8766300983808L104.226899356121,169.9122314985743L104.26672570062682,169.93138859661596L104.33267799343295,169.9651111651568L104.37250446958568,169.98389073757912L104.43845709114998,169.99532596318025L104.47828729881168,169.99948928601526L104.53672094949674,170L104.58406685694268,170L104.64250096804173,170L104.68984687548767,170L104.7482814470051,170L104.79562735445104,170L104.85406238638687,170L106.38238979071409,170L106.48817763670431,170L106.59396594316168,170L106.69975471008178,170L106.80554393746904,169.99209484267897L106.9113336253279,169.9875137530666L107.01712377366277,169.98561463297307L107.12291438246483,169.98752159139255L107.22870545174735,169.99212299819052L107.33449778501927,169.99736358165455L107.44028977526713,169.9842356140495L107.54608222599988,169.96904576358995L107.65187513722198,169.95639185701287L107.75766850894225,169.9655582734013L107.86346234115186,169.98139110420024L107.96925663385966,169.99489340782992L108.0750525718834,170L108.18084778559646,170L108.2866434598077,170L108.39243959453044,169.9930648870929L108.49823618976025,169.99004412304419L108.60403324550596,169.9886033066962L108.70983076176319,169.98956700817004L108.81562873854077,169.9923454314982L108.9214271758387,169.9957616518255L109.0272364919299,170L109.13303585027744,170L109.2388356691586,170L109.34463594856902,170L116.17528376459207,170L116.22264207862433,170L116.28111444500036,170L116.32847275903262,170L116.38694558612407,170L116.43430390015632,170L116.49277718795433,170L116.5401355019866,169.99977702448714L116.59860925050002,169.99746586692035L116.64596756453227,169.99013161712782L116.70444177376997,169.97501685160168L116.75180008780224,169.95663971500855L116.81027475775979,169.92626453162652L116.85763307179205,169.9010108231386L116.9161082024739,169.8680324056118L116.96346651650614,169.84514867867202L117.02194210791227,169.81942070367316L117.06930042194453,169.8134114994254L117.0693005308937,169.81341149703377L117.1277764740838,169.833161728242L117.17513478811607,169.85455147329552L117.2336113009885,169.87916874071126L117.28096961502075,169.89816269932592L117.3394465886219,169.92440611278218L117.38680501160333,169.94250419415152L117.44528233699732,169.96391550629264L117.49264081445334,169.9752277015221L117.59847720060873,169.99346108157775L117.66394300242203,169.99773578059805L117.704315155156,169.9991766112385L117.76977967227705,170L117.81015228576192,170L117.87561680288296,170L117.91598987710982,170L117.98145439423088,169.99712465716902L118.02182792921306,169.99535136440693L118.1276664420672,169.99095744808514L118.19313095918824,169.98860352171218L118.23350541568107,169.98715176582803L118.29896993280212,169.98682189718704L118.33934485005467,169.98661845233372L118.40480936717573,169.99025062663287L118.44518474518362,169.99249077773712L118.46660477321252,169.9925813420498L118.51064926230467,169.98829839011225L118.55102596813053,169.98227209798006L118.61648961819779,169.95572478788367L118.6568667847967,169.93319772808348L118.72233043486396,169.8721800161995L118.76270806222705,169.8266572247572L118.82817171229432,169.7479079219158L118.86854980043488,169.69722352915966L118.93401345050215,169.62713955224874L118.97439199941577,169.5885253836088L118.99746253014303,169.57684160548354L119.03985564948303,169.59287610211788L119.0802346591697,169.62126850547315L119.14569830923696,169.693270062825L119.18607777970998,169.74876920157186L119.25154142977725,169.83470676467905L119.29192136103217,169.88629651052725L119.35738501109945,169.94399513658016L119.39776540314072,169.969891072789L119.46322905320798,169.99267622145862L119.50361370109381,169.99834770040962L119.57236079758383,170L119.6782057612695,170L119.78405118575039,170L119.8898970710265,170L121.40889355105445,170L121.51474680943524,170L121.62060052866444,170L121.72645470872877,170L121.83230934964594,169.99622807348152L121.93816445140708,169.9929389837155L122.0440200140255,169.99151149280624L122.14987603749677,169.99305393065274L122.25573252182977,169.99610935144204L122.3615996174507,170L122.4674570235071,170L122.57330635607386,170L122.67916468386255,170L122.7850234725174,170L122.89088272205612,170L122.99674243246541,169.99507771306722L123.10260260375416,169.98628903775733L123.20846323592235,169.9682629980222L123.31432432898329,169.95477897087287L123.31432442431381,169.9547789688239L123.42018588292366,169.95561962390107L123.52604789776123,169.9757607878693L123.63191037348709,169.98626806337634L123.72474595413163,169.99915947183936L123.83060935165186,170L123.93647321006925,170L124.0423375293927,170L129.20613976808912,170L129.31202667495626,170L129.41791404285354,170L129.52380187179872,170L129.6296901617874,169.99584516953314L129.73557891281513,169.97419670780718L129.84146812489075,169.94223815987507L129.94735779802312,169.89479941931137L130.05324793220342,169.84315816024477L130.1591385274405,169.81832378246216L130.2650295837343,169.85213234759L130.37092110109378,169.90666540470116L130.47681307951888,169.95849977455865L130.5827055190052,169.9934573253536L130.72576439087848,170L130.8316582135883,170L130.93755249736822,170L131.04344853599838,170L137.18613144363488,170L137.29205339695207,170L137.39797581151223,170L137.50389868731537,170L137.60982202436588,169.99392419825676L137.7157458226638,169.98917414285017L137.8216700822091,169.98627027358188L137.92759480301513,169.98614382312945L138.03351998507296,169.99107657029327L138.1394456283915,169.99916293394546L138.1394463864961,169.9991629399359L138.24537249107536,169.99483171878921L138.35129905691971,169.99025857645512L138.45722608403364,169.98727248515377L138.45722661062126,169.9872724903454L138.56315357241712,169.982185723097L138.6690815220746,169.97007560287108L138.76610719500084,169.95948789624515L138.87203606721076,169.9387775442183L138.9779654006991,169.93188140209793L138.98686866529195,169.93140914245026L139.0838951954703,169.939862118482L139.19872871612162,169.9617470683442L139.30465943347627,169.98032150970565L139.4105908935658,169.99390557831737L139.51652339147415,169.99999975869272L139.622455492704,169.99199905617314L139.72838805523443,169.98109025561956L139.83432107906987,169.9728125053454L139.94025456421036,169.98295985784955L140.04618851065587,169.98803320542976L140.15212291841087,169.99332292082784L140.25806109226664,170L140.36399642265386,170L140.46993221435494,170L140.5758684673788,170L141.84713948766924,170L141.95308173811063,170L142.05902444991025,170L142.16496762306363,170L142.27091125758855,169.9943740422589L142.36794764466967,169.9897166415746L142.47389220192878,169.98702639097652L142.4827999107397,169.9868186803711L142.57983722055496,169.98912229236217L142.685782700566,169.9937299991313L142.69469040937693,169.99385409314223L142.79172864194857,169.98899765413415L142.89767504470709,169.96282169006673L143.00362190885485,169.92113472438876L143.1095692343874,169.87343260572752L143.21551702130043,169.84539770732914L143.3214652696115,169.8696422106232L143.4274139793119,169.91882360184957L143.53336315041037,169.96737869702662L143.63931278291142,169.9905425910854L143.75417366797498,169.99999965637303L143.86012422327673,170L143.96607523998546,170L144.07202677711527,170L144.28393105857572,170L144.38988392093896,170L144.4958372447181,170L144.60179102992637,170L144.70774527655496,169.97863136796977L144.81369998461713,169.9396119152651L144.91965515410402,169.8937655111929L145.02561078502893,169.87912405242838L145.02561084404306,169.87912405205427L145.13156687738743,169.9145171292016L145.23752343118838,169.952638924102L145.34348050544148,169.9821469882191L145.44943803659748,169.99604175743923L145.55540565758741,169.99999982606403L145.66136405716705,170L145.7673252424469,170L145.873286898266,170L152.23168615380214,170L152.33767363011268,170L152.44366156803852,170L152.5496499675886,170L152.6556388287673,169.99167165346697L152.76162815157468,169.98805097505272L152.8676179360107,169.98736766482605L152.97360818208423,169.9904772513787L153.07959888979087,169.9953581459319L153.1855937906528,170L153.2915854216433,170L153.39757751428021,170L153.50357006856348,170L154.0335383303023,170L154.1395336545392,170L154.24552944043137,170L154.3515256879965,170L154.45752239723018,169.98549803656945L154.56351956814572,169.9619022947044L154.6695172007298,169.94784018950776L154.6695172279671,169.947840186985L154.77551529500016,169.95385317315228L154.8815138509568,169.9738658094089L154.98751289583257,169.995314235391L155.09351422728872,169.9999999943813L155.19951372342845,170L155.30551412613906,170L155.41151499054482,170L155.51751631665016,170L155.6235181044595,169.9915006629972L155.72952035396398,169.9802762663137L155.8355230651858,169.96684383671285L155.83552351006156,169.9668438865982L155.9415262381116,169.96258736306342L156.04752987275032,169.94492152289635L156.15353396910632,169.92261022536454L156.25953897205093,169.90775342518182L156.25953909915833,169.90775342060192L156.36554399184158,169.92486113303954L156.4715494733584,169.95287974312527L156.57755541659694,169.96552794654804L156.68356230275825,169.98495663234002L156.78956916946242,169.99454314144262L156.89558069243571,170L157.0015884826056,170L157.10759673451935,170L157.21360544816815,170L159.22785874203464,170L159.33387669108032,170L159.43989510192753,170L159.54591397457628,170L159.6519333090266,169.99603921201273L159.7579531052873,169.99130623082488L159.86397336334954,169.9875631520208L159.96999408322662,169.98674114369064L160.07601526491854,169.98898636094754L160.18203690842975,169.9930702738967L160.29390129023525,170L160.39992385738498,170L160.50594688636286,170L160.61197037716445,170L164.85328873867417,170L164.959331166717,170L165.06537405669877,170L165.17141740862397,170L165.27746122249698,170L165.38350549831785,169.80606398572013L165.48955023608656,169.4192653368007L165.59559543581193,168.15267984950248L165.70164109749402,164.44878504174585L165.80768722113285,155.21283571591317L165.91373380673278,144.77595537544872L166.0197808542983,136.55577189872528L166.02162468729236,136.51259309981103L166.12582836383376,141.93496698061068L166.23187633533485,152.75515049743592L166.33792476881032,162.95632869237332L166.44397366426028,168.25587717123057L166.55002302168907,169.95483731968886L166.65024003411568,170L166.75629031550665,170L166.86234105888533,170L166.96839226424734,170L167.07444393161038,170L167.18049606095673,170L167.2865486523085,170L167.39260170565248,170L167.4986552210019,170L167.6047091983568,170L167.71076363771718,170L167.8168185663247,170L167.92287445629694,170L168.0289302816959,170L168.13498656911358,170L168.24104331855003,170L168.34710106568085,170L168.45315873916368,170L168.55921687468305,170L168.6652754722256,170L168.77133552143067,170L168.87739504305063,170L168.98345502671154,170L169.08951547240895,170L169.19557638015615,169.99994049341055L169.30163774994872,169.99020658098848L169.4076995817911,169.98056668327473L169.51376187568323,169.9723009224487L169.5137622570053,169.97230089273097L169.61982478598316,169.97732312606874L169.72588800399262,169.9865804915533L169.83195191104264,169.997070871552L169.93801674772928,169.99631280372486L170.044081351928,169.98659935149482L170.15014641819877,169.98114399056902L170.15014648629202,169.9811439870665L170.25621194654147,169.9874062448904L170.36227793695613,169.99063875239676L170.46834445754044,169.99486297189054L170.57442658867922,169.99999998395262L170.68049396533638,170L170.78656180407881,170L170.89263043629353,170L174.49921830165343,170L174.60530277725186,170L174.71138771502865,170L174.81747311499706,170L174.9235589771483,169.99636036746355L175.02964530150007,169.99224100419485L175.13573208804348,169.9904078347429L175.24181933678298,169.99188161574054L175.34790704772743,169.99516634704727L175.45400423641593,170L175.56009287176587,170L175.66618196932524,170L175.77227152909396,170L181.50179397891432,170L181.6079089644465,170L181.7140244123388,170L181.82014032259121,170L181.92625669521263,169.99283216109148L182.03237353021186,169.96468048317038L182.13849082757122,169.93645760861534L182.24460858731285,169.90761174650797L182.35072680943236,169.89419344936087L182.35072704548887,169.89419342029896L182.45684549392527,169.90978074005614L182.56296464080933,169.93821624247616L182.66908446343888,169.95927752266195L182.7105281585147,169.9719793750563L182.77520457595233,169.98772006336756L182.8166486925545,169.98813917187246L182.8813259044131,169.98879198859106L182.88134100749133,169.98879210615726L182.92276968899873,169.98501013977832L182.98744690085732,169.97910583023784L183.02889114783855,169.97902891034508L183.09356835969714,169.9789088704224L183.19969028093254,169.98874075983053L183.30581266457241,169.99504144924927L183.41195117659447,170L183.5180744850521,170L183.6241982559097,170L183.73032248918508,170L194.55742326376276,170L194.66359513994203,170L194.76976747881835,170L194.87594028038725,170L194.98211354465323,169.99407953875254L195.08828727161622,169.9851156915445L195.1944614612851,169.96322810997742L195.30063611365992,169.94287887776625L195.40681122874062,169.92778279179691L195.4068114693367,169.92778276030742L195.51298704713219,169.95004346349526L195.619163087638,169.9673755800632L195.7253396362585,169.9835571814708L195.83151687911962,169.9933975135911L195.93770959244316,169.9971971711037L196.0160621013963,170L196.12223999278336,170L196.2284183469029,170L196.33459716374614,170L207.19514167549082,170L207.30136863093094,170L207.40759604938725,170L207.51382393085095,170L207.6200522753397,169.99662709215045L207.66157292034373,169.9952855127343L207.72628108284468,169.9931947181702L207.76780219087382,169.99187917300713L207.83251035337477,169.98982897458473L207.874031924429,169.98920211683063L207.93874008692995,169.98822520742223L207.9802621210137,169.98971671082532L208.04497028351466,169.9887879369441L208.0864927806279,169.98943682111005L208.15120094312886,169.98307848763346L208.1927239032761,169.97663647731736L208.25743294190994,169.9659849578782L208.29895548896266,169.95734463957083L208.3636645275965,169.9451624374137L208.40518753768762,169.93492211331792L208.46989657632145,169.9319505077176L208.51142004945098,169.92768399262494L208.57612908808483,169.92866781911098L208.61765302426602,169.9355124686029L208.68236206289987,169.94586942134L208.72388646211945,169.95678921707025L208.7885955007533,169.97031223850993L208.83012036303344,169.9784292244818L208.89482940166727,169.98614371597944L209.00106475070612,169.9983018233228L209.05799227898282,170L209.1072995777235,170L209.1642271060002,169.99699410113686L209.21353486779697,169.9943905427247L209.2704623960737,169.99325335909356L209.31977062093546,169.99226837857717L209.37669814921216,169.99197550575497L209.4260068371345,169.99172182928194L209.53224351639852,169.99254328271158L209.63848065873196,169.99363773156003L209.74475097158248,170L209.85098904006364,170L209.95722757161866,170L210.06346656625198,170L220.68968723087616,170L220.79597301042094,170L220.90225925331444,170L221.00854595956994,170L221.11483312918304,169.99221518851394L221.22112076215814,169.98063299318164L221.32740885849967,169.9741271439305L221.4336974182121,169.97395086960634L221.53998644128652,169.97895199600106L221.64627592774067,169.99034000825426L221.752566844494,169.99832325266294L221.81658507504997,170L221.8588572576988,170L221.92287548825476,169.99606995578844L221.96514813428774,169.99347486113493L222.02916636484375,169.9911852443711L222.07143947425644,169.98967334347756L222.13545770481244,169.98887291811215L222.1777312776138,169.98834436804657L222.28402354436415,169.99083222623943L222.39031627449867,169.99516638155072L222.49662468914156,170L222.60291834607105,170L222.70921246640245,170L222.81550705013575,170L233.76633166466783,170L233.87267445699308,170L233.9790177130084,170L234.08536143270493,170L234.19170561609593,169.99241188012746L234.29805026318587,169.98833931702873L234.40439537396145,169.98691897366535L234.5107409484448,169.98925474286625L234.61708698662713,169.9938153367289L234.79099830950514,170L234.89734527510302,170L235.0036927044087,170L235.11004059742223,170L235.25517457877405,170L235.3615238629464,170L235.4678736108354,169.99585565873682L235.5742238224588,169.99159807436564L235.68057449780773,169.98916038416223L235.78692563689103,169.99068822456724L235.89327723970433,169.99505354679263L236.07416553926996,170L236.18051806956092,170L236.28687106359067,170L236.39322452137256,170L243.2895527269207,170L243.39593679783127,170L243.50232133266243,170L243.6087063314275,170L243.7150917941176,170L243.76089191282333,169.93697885516875" style="stroke: #ff7f0e;"></path></g><g class="filename"><path class="profile line" d="M3.1195540435883276,169.98989488600975L3.183682584363995,169.990874597404L3.289014590593019,169.99458563528358L3.394347054638178,169.99807301731767L3.4996820238447586,170L3.60501540353549,170L3.710349241055657,170L3.815683536400827,170L4.0263531873594856,170L4.131688856206261,170L4.237024982891339,170L4.342361567419151,170L4.4476986097985645,170L4.553036110016281,169.99723026062708L4.658374068090031,169.98610461472515L4.763712484006517,169.9685800381784L4.869051357783469,169.94727503130497L4.9743907075835185,169.93184358043834L4.988984084569387,169.9299710296124L5.079730760370792,169.93374321354574L5.185071007733581,169.94515049194928L5.290411712952404,169.96820319673913L5.395753202892494,169.99230138997663L5.501094823863285,169.99708040132165L5.606437052504082,169.99999988022876L5.711780719565574,170L5.8171237141621,170L5.922467166636825,170L6.027811076994185,170L6.133155445238611,170L6.238500271374536,170L6.343845555401961,170L6.44919129732532,170L6.5545374971446115,170L6.659884154868701,170L6.765234003296981,170L6.870581576826237,170L6.975929608264724,170L7.081278097616877,170L7.186625764725558,170L7.291975169905042,170L7.397325033002625,170L7.502675354018306,170L7.608026132960952,170L7.713377369830564,170L7.818729064631574,170L7.924081217355116,170L8.029434073163412,169.9942675046538L8.134787141763049,169.99521081155714L8.240140668307383,170L8.34549521115646,170L8.450849653585756,170L8.556204553964182,170L8.661559912296175,170L8.766915728577295,170L8.872272479469018,170L8.977629211666134,170L9.08298640182568,170L9.18834404995209,170L9.293702609995789,170L9.399061174051493,170L9.504420196082924,170L9.609779676090085,170L9.713865024580363,169.78924625744526L9.715139936376495,169.7866648261685L9.81922542054785,169.95623831538865L9.924586274491068,169.99949560068183L9.925861168129007,169.99999999567908L10.023752407701116,169.94265816722475L10.129114177617959,169.10157248120774L10.234476405523829,168.1865182260789L10.339839091427596,167.67088438009685L10.445202235324825,167.30270236952177L10.55056583721995,160.4874298836102L10.655929897117403,138.15749989179955L10.761294415017185,92.42184977965134L10.866659390923727,41.82733080198773L10.972024824837032,15.65194006326115L10.974048339974024,15.454545454545467L11.077390716765965,50.79144341032307L11.182757066710526,100.26711429882786L11.288123874666283,143.58145366495458L11.393491140646534,163.386143195552L11.498858864646845,169.6418815148995L11.60625056180864,170L11.717068746104065,170L11.822437844186725,170L11.92780740030718,170L12.033177414460994,170L12.13854788664817,170L12.243918816877574,170L12.349290205153636,170L12.454662051476358,170L12.560034355850174,170L12.66540711827065,170L12.770780347821315,170L12.876154394060716,170L12.981528530652204,170L13.086903152545377,170L13.192278255196252,170L13.29765414276345,170L13.403030111621376,170L13.508406538552562,170L13.613783491650233,170L13.71916121605445,169.97416192669343L13.824539017218713,169.99311082602125L13.929917276465098,169.99619052450555L14.035296089128563,169.99999996668686L14.14067532810618,170L14.246054961616675,170L14.351435053227029,170L14.456816079585407,170L14.562197332522235,169.99220921508797L14.667578798427726,169.9948016971179L14.77296072243751,169.99925186946442L14.878343213500752,169.99999999384465L14.983726448668714,170L15.089109747009104,170L15.194493503467084,170L15.299877804289645,170L15.405262862844438,170L15.510647993664056,170L15.616033582605699,170L15.721419652371539,170L15.826806538897044,170L15.932193502235792,170L16.037580923705423,170L16.14296937529794,170L16.248357713055956,170L16.353746508953726,170L16.459135763000116,170L16.5645254751907,170L16.66991598146537,170L16.77530660997093,169.99853864210618L16.880697696629547,169.98543332599505L16.98608924145008,169.97269828769214L17.091481457786895,169.9631656074934L17.09148172108071,169.96316558367872L17.196874014270662,169.9707565763187L17.302266933590268,169.98258865349686L17.40766047903952,169.9961712785895L17.513054523524374,169.99999935151382L17.618449044338206,170L17.723843796358693,170L17.829239728342632,170L17.934635396726865,170L18.040031523295184,170L18.145428108056457,170L18.250825151010687,170L18.356222652157868,170L18.46162061150244,170L18.567019914260808,170L18.67241879000458,170L18.77781812396348,170L18.8832179161242,169.99780538812442L18.988618166495606,169.99492535445023L19.094018875082128,169.9917183903669L19.199420041883773,169.9900533504491L19.199420264321652,169.99005334693518L19.30482182124962,169.99099061664242L19.410223904494806,169.993802357832L19.410224494636125,169.9938023667758L19.51562651405277,169.9875183694395L19.621030035794014,169.97912949875396L19.72643349371559,169.96908731335196L19.83183740987002,169.9649792930537L19.83183749612144,169.96497929039353L19.93724178426173,169.972345500525L20.042646703142154,169.97346862858922L20.042646948277778,169.97346862854067L20.148051994008437,169.9738899773146L20.2534579882565,169.98148852163763L20.358864386271694,169.9927991333498L20.464271051872004,169.99664896204158L20.569741316308797,169.99999996091353L20.67514889841914,170L20.78055816899774,170L20.885966667622554,170L26.156918652682247,170L26.262350526019105,170L26.367782857752847,170L26.473215647887898,170L26.578648896424266,169.99741923165774L26.68408260336194,169.99487227382434L26.789516768709795,169.99304741348254L26.89495139246783,169.99349781233605L27.00038647464048,169.9959055536059L27.105822015223303,169.99846665426156L27.211274724307998,170L27.316711181733346,170L27.422148097582173,170L27.52758547185891,170L33.3273380680648,170L33.43280111843626,170L33.538264627390795,170L33.64372859492397,170L33.74919302104021,169.9962267522867L33.854657905739536,169.9925205318173L33.960123249030794,169.99008931078026L34.065589050913985,169.99047334667844L34.17105531138912,169.9932012727323L34.276522030456185,169.9964923691916L34.382046174923865,170L34.487513811196976,170L34.5929819060709,170L34.698450459550045,170L41.765840464475986,170L41.871340209459554,170L41.97684041323455,170L42.08234107580097,170L42.1878421971677,169.99749953676482L42.29334377733028,169.99489822424414L42.39884581628873,169.99276879714887L42.50434831405191,169.99255257451455L42.60985127062868,169.9942739063395L42.71535468601018,169.9966533932681L42.82085856020085,169.99849169820425L42.92640649103429,170L43.031911282856576,170L43.13741653350133,170L43.24292224296855,170L63.297314824944316,170L63.402908218261985,170L63.508502070920805,170L63.61409638290745,170L63.71969115423526,169.9967022560419L63.82528638490419,169.99453563372938L63.930882074914265,169.99342524869505L64.03647822427878,169.9941674369618L64.14207483298445,169.9962708595979L64.24768882902127,170L64.3532863564358,170L64.45888434321365,170L64.56448278934594,170L78.61316999730867,170L78.71883002179264,170L78.82449050600343,170L78.93015144992773,170L79.03581285358331,169.99484174149865L79.1414747169657,169.9890124145632L79.24713704007935,169.9857493047771L79.24713704915845,169.98574930474356L79.3527998229287,169.98757104217947L79.4584630655093,169.99269399793235L79.56412732165495,169.9970191964048L79.56412907392071,169.9970192641364L79.66979148371581,169.99379787504162L79.77545610552122,169.99236310267545L79.88112118707562,169.99366076864874L79.986786728379,169.99639809820815L80.09245341489878,169.99999998468076L80.0924538643141,169.99999998961744L80.19811987570903,169.99755886554345L80.30378679627712,169.99432748042182L80.40945417659864,169.99223485214546L80.51512201669132,169.99360072697908L80.62079031654184,169.99426189061361L80.62079076595715,169.99426189171106L80.72645952557886,169.98932719511848L80.83212874496726,169.97994085950936L80.8321287767441,169.97994085840298L80.9377984241357,169.98062420192386L81.0434685630753,169.9874311611979L81.14913919357176,169.99076844167274L81.25481050174656,169.9947886852359L81.36048202003508,169.99687953772442L81.46615433403024,169.99999994222506L81.5718267718921,170L81.67749966954287,170L81.78317318133602,170L81.88884767497505,170L81.99452195201465,170L82.1001966888653,170L82.2058718855137,170L82.31154754197316,170L82.41722365824369,170L82.5229011331603,170L82.62857816906178,170L82.73425566477877,170L82.83993362031568,169.99354645134102L82.94561203568136,169.97721998007626L83.0512909108714,169.9502824955445L83.15697024589024,169.9221088984169L83.26265004074227,169.91070943619096L83.26265026771972,169.9107094153872L83.36833048608861,169.93476855649533L83.47401120061153,169.96437774946233L83.57969237497211,169.99636525257466L83.68537404549559,169.99999998693872L83.79105664797866,170L83.89673920187879,170L84.00242221562546,170L84.1081067968818,170L84.21379073033923,170L84.31947512365647,170L84.42515997683354,170L84.53084528987931,170L84.63653106278932,170L84.74221729556801,170L84.84790398821983,170L84.95359114074033,170L85.05927875314725,170L85.1649690861225,170L85.27065761828452,170L85.37634661034183,170L85.48203606227669,170L86.22187510292859,170L86.32756823406564,170L86.43326182512014,170L86.53895587608321,170L86.64465038696817,170L86.75034535777057,170L86.85604078849487,170L86.96173667914547,170L87.06743302972241,170L87.17313028964539,170L87.27882756008825,170L87.3845252904663,170L87.49022348078395,170L87.59592263039157,170L87.7016217405929,170L87.80732131074271,170L87.91302134084098,170L88.01872183088777,170L88.12442278543587,169.843679611958L88.12442313044157,169.84367910173256L88.23012419539734,169.99999947989187L88.33165298767042,170L88.43398546990423,169.95824732865816L88.53968825975105,169.37802319070045L88.64539150957295,168.08630202083006L88.75109521936106,167.3958967687621L88.85679938912426,165.0835730744747L88.96250401885811,154.30246408696166L89.0682091085759,122.06823356400923L89.1739146582732,78.84112046200362L89.27962066795888,36.48361314167556L89.29625653608203,33.82754869570962L89.38532713762852,40.97493572242911L89.49103406728655,84.38597296445133L89.59674145693295,127.85687003569095L89.70244930658102,156.85212716031518L89.8081576162219,168.0470259325008L89.9138663858645,169.95583551282866L90.02712184560153,170L90.13283153525632,170L90.2385416849128,170L90.34425229457983,170L90.44996336426627,170L90.55567489396326,170L90.66138688367965,170L90.7670993334199,170L90.872812243184,170L90.97852561297194,170L91.0842394427926,170L91.1899541593591,170L91.2956689092496,170L91.40138411917283,170L91.50709978913319,170L91.61281636401534,170L91.71853295406774,170L91.82425000417058,170L91.92996753701716,170L92.03568588400343,170L92.14140431426205,170L92.24712320457995,170L92.3528426275944,170L92.45856250159348,170L92.56428277210264,170L92.67000354354033,170L92.77572475234848,170L92.88144707493309,170L92.98716918573712,170L93.09289175662262,170L93.1986150009484,170L93.30433849200573,170L93.4100628789412,170L93.51578729017477,170L93.62151216149871,170L93.72723749292183,170L93.83296328443976,169.99884263558033L93.93869042127328,169.991645308279L94.04441713299848,169.98405517612946L94.15014430483619,169.96929532876774L94.25587193677754,169.95087887241485L94.3616000288314,169.93864906604074L94.37347887900987,169.9373679318044L94.46732858100219,169.94820187295545L94.57305759328995,169.96571514076305L94.67878706569907,169.98273780738086L94.78451701638332,169.98599007470972L94.89024785845494,169.9917412689846L94.99597901993079,169.9999999908328L95.10171033284315,170L95.20744210589461,169.99712478771295L95.31317433907633,169.98757509234355L95.37632057936116,169.98118365566842L95.41890727299763,169.97687317906184L95.4820537328255,169.97496078171218L95.524640426462,169.97367105191236L95.52464069429537,169.9736710438011L95.5877873464334,169.9781964056811L95.63037430790327,169.98124837131175L95.69352142018927,169.9892719134338L95.73610838165914,169.9946830599902L95.8418431606986,169.99999947296737L95.94757815475485,170L96.05331360896794,170L96.15904952334232,170L96.26478672406695,170L96.37052355876385,170L96.47626085362205,170L96.58199860864596,170L96.68773682384442,170L96.79347549921746,170L96.8992156107636,170L97.00495520649024,170L97.1106952624003,170L97.2164357784938,169.99541253582984L97.32217675477074,169.988653386667L97.42791819124,169.98433516034763L97.53366008790155,169.98312463925313L97.63940244475984,169.9853442173189L97.74514549333185,169.9906428541038L97.74515404584142,169.9906429483515L97.85088877058364,169.9875816774395L97.95663250804101,169.98341053173965L98.06237720051479,169.97796345691515L98.16812185838339,169.9731515000091L98.16812191739751,169.97315149863732L98.27386697646645,169.98342852817848L98.27386749397499,169.98342855409743L98.37961255475955,169.98274391103666L98.4853586522857,169.9807277649592L98.48536648754657,169.98072792290384L98.591105609511,169.98051797550625L98.69685256846526,169.98628743638142L98.80259998764285,169.99554530622407L98.90834786704377,169.99887883403338L99.01410376502533,170L99.11985256489065,170L99.22560182499264,170L99.33135154533124,170L104.57682661329679,170L104.61942423362676,170L104.68259980929477,170L104.72519742962473,170L104.78837346567568,170L104.83097108600566,170L104.89414758243066,170L104.93674520276063,169.99948068142695L104.99992215957302,169.99772466152265L105.04251977990297,169.9959757970347L105.10569719709385,169.99065948801174L105.14829481742383,169.98536871651064L105.21147269500649,169.96900495597558L105.25407031533648,169.95772000764728L105.31724865330207,169.9347835382045L105.35984627363204,169.9209159933082L105.42302507199831,169.90472850490448L105.46562269232827,169.8974152968039L105.4656227604215,169.89741529266928L105.52880195108192,169.89978133402442L105.57139957141187,169.90189884911769L105.63457929057061,169.9171863653323L105.67717691090057,169.92795480770718L105.74035709045553,169.94897784922014L105.78295471078552,169.9606587897743L105.88873297107996,169.98486039766806L105.99451188243171,169.9982685889852L106.10029435017398,169.99930228207145L106.1717238750104,170L106.22780116453794,170L106.27750351652458,170L106.38328361845272,170L106.48906418079928,170L108.1101862723469,170L108.21597466218743,170L108.32176351249072,170L108.42755282325672,170L108.53334259450318,169.99698053067553L108.63913282621682,169.99439281794756L108.74492351840203,169.99344242793555L108.85071467107214,169.99516638462296L108.95650628421828,169.995363233972L109.06229884811613,169.9935036274139L109.1680913822365,169.98740095042982L109.27388437684176,169.98588137446723L109.27388477632203,169.98588138092896L109.37967783193635,169.98098779456393L109.37967823141663,169.9809877877024L109.48547191095288,169.9856448154128L109.59126628703942,169.98764880014247L109.69706135968511,169.99063225009135L109.8028566567769,169.99356776852636L109.86370381856615,169.99844862065612L109.90866211992622,170L109.96950003666764,170L110.01445833802771,170L110.07529671528061,170L110.12025501664068,170L110.18109385440508,170L110.22605215576515,170L112.34208565333975,170L112.44789246385281,170L112.553699734935,170L112.65950746659517,170L112.7653156588289,169.99619766066505L112.87112431164506,169.99288575147813L112.97693342504364,169.99027957673414L113.08274299902465,169.99028076757685L113.18855303359251,169.9930495842827L113.2943635287561,169.9964923886326L113.40018038592414,170L113.5059918022703,170L113.61180367921662,170L113.71761601676754,170L117.76059304943303,170L117.79969827245777,170L117.84465647848732,170L117.90552903624037,170L117.95048724226992,170L118.01136026073395,170L118.05631846676351,170L118.11719194593852,169.99952878525337L118.16215015196806,169.99859228783802L118.22302409186294,169.9901346113724L118.2679822978925,169.9785474604904L118.32885669850722,169.9565452244783L118.37381490453676,169.9362602360575L118.43468976587134,169.9000336022504L118.47964797190089,169.87275832541664L118.54052329395532,169.84146772987157L118.58548149998487,169.824030119921L118.60725205974326,169.82170085245892L118.646357282768,169.82522508348123L118.69131548879756,169.8380945568251L118.75219173231385,169.863617188772L118.7971499383434,169.88482191548187L118.85802664259283,169.91625408210353L118.9029849439529,169.93705835954324L118.96386201360056,169.9620253030087L119.00882031496062,169.977057791394L119.06969784535028,169.98906738135352L119.11465812595354,169.99517161167333L119.19077296498187,169.99828744030714L119.25654074948432,170L119.32633117167018,170L119.43216838564595,170L119.53800610576367,170L119.67989052689363,170L119.71996133861518,170L119.78572912311762,170L119.82580039560335,170L119.89156818010579,170L119.93163991334684,170L119.9974076978493,170L120.0374798918501,169.99987367267153L120.10324767635254,169.99402509585408L120.14332033111752,169.98765127532516L120.20908811561996,169.9678348742248L120.249161231158,169.95160140098494L120.31492901566044,169.92432691840963L120.35500259195823,169.90749318582974L120.42077037646067,169.88343120714975L120.46084441353594,169.87056010965446L120.49056588968821,169.8651741926736L120.52661219803838,169.86750236842875L120.56668669589114,169.8741298378252L120.63245448039358,169.89449881410795L120.67252943901936,169.91153028861623L120.73829722352181,169.93979262427513L120.77837264292953,169.95725012025912L120.84414042743197,169.97868160526295L120.8842163076216,169.9880756673565L120.94998409212404,169.99700370563198L121.01978561352838,169.9999997948071L121.12563019979316,170L121.23147524685314,170L121.33732075470391,170L123.34847295821763,170L123.45432768250024,170L123.56018286763569,170L123.666038513624,170L123.77189462046515,169.99784190453641L123.877751188168,169.9959904451379L123.98360821672813,169.99513896888013L124.08946570614998,169.99607480747966L124.19532365643798,169.9979367243158L124.30118276668703,170L124.40704163871618,169.9978912714578L124.51290097162035,169.99603129822592L124.61876076539953,169.9917704591794L124.72462102005814,169.98966124989582L124.72462120617963,169.98966124810195L124.83048173559621,169.99050264783708L124.93634309814408,169.99494689710022L125.04220473545877,169.99783546907614L125.14807046075666,169.99999998329324L125.25393301985241,170L125.3597937428293,170L125.46565722371939,170L125.57152116550665,170L125.67738556819555,170L125.78325043179491,169.9976990144505L125.88911575630033,169.99513648570618L125.9949815417162,169.9929781719434L126.10084778804698,169.99288700492738L126.20671449529713,169.99490192626897L126.31258166346659,169.99749069622408L126.41845022770242,170L126.52431831771504,170L126.63018686865584,169.9974387296476L126.7360558805293,169.9954739976799L126.84192535333094,169.99365096116608L126.94779528707411,169.99299414979694L127.05366568174992,169.9942143846338L127.15953653736725,169.99669346542163L127.26542273003128,170L127.37129450753604,170L127.47716674599563,170L127.5830259311694,170L127.68889909152972,170L127.79477271284931,170L127.90064679512366,170L128.00652133836616,169.99743667977697L128.1123963425723,169.99634544345378L128.21827180774218,169.99596694757727L128.32414773388453,169.99657490605784L128.4300241210039,169.9978160045314L128.5359017862101,169.99999995233844L128.64177909527896,170L128.74765686532925,169.99660031081203L128.85353509636536,169.99403513348068L128.9594137883873,169.9927594134138L129.0652929413951,169.9939228094009L129.17117255539762,169.9967679968857L129.27705549484554,170L129.38293603083747,170L129.48881702782853,170L129.59469848581872,170L129.8064615182935,170L129.91234435930772,170L130.01822766133438,170L130.12411142438236,170L130.22999564844272,169.99618608800688L130.33588033352888,169.99349344437508L130.44176547964076,169.9919971231687L130.5476510867695,169.99276898430955L130.65353715493285,169.99514285542958L130.75942439683996,169.9999999735547L130.75942497336263,169.9999999840219L130.86531138707252,169.99706537673538L130.97119883833525,169.99443521511108L131.0770867506459,169.99259900419966L131.18297512399556,169.99267096747667L131.28886395838873,169.99434797590592L131.28886447589727,169.99434798121467L131.3947532538298,169.98507203743637L131.5006435278273,169.96611643530116L131.606533745373,169.9412516797704L131.7124244239755,169.93970096732096L131.7124244602919,169.93970096707633L131.8183155636348,169.956154443246L131.9242072006672,169.98087501342266L132.0300993350861,169.99501299811322L132.13600090526268,169.99999998148883L132.24189388917563,170L132.34778759292624,170L132.4536814989926,170L139.549623414764,170L139.6555486801784,170L139.76147440685352,170L139.86740059479376,170L139.9733272439947,169.9958992188104L140.07925435446074,169.99395982569524L140.18518192620525,169.9908021826182L140.2911099592193,169.98267019651234L140.39703845350738,169.97705431137766L140.5029676678237,169.97406748821015L140.5029678948011,169.97406749003667L140.6088970846686,169.96671619783146L140.60889731164602,169.96671618839864L140.71482702635447,169.97555577148725L140.8077800696632,169.97739354581913L140.82075775616627,169.97722057405215L140.91371087036998,169.98514815302642L141.01964213236408,169.9895607508222L141.12557385565432,169.9912906556788L141.2444842851083,169.99163163475373L141.3504169309953,169.98013019575546L141.35041696731167,169.98013019490773L141.4563500381829,169.98363200276427L141.56228360667552,169.9899499661343L141.6682176364776,169.99414303308012L141.77415575922362,169.99999974042024L141.88009071164902,170L141.98602612538838,170L142.0919620004416,170L143.99888663994125,170L144.1048312805525,170L144.21077638253973,170L144.31672194589405,170L144.4226679706287,169.99865131824623L144.5286144567438,169.98826977686932L144.63456140423926,169.96565633631505L144.74050881312846,169.94953089532277L144.74050892661717,169.94953089166953L144.846456683398,169.9495692094803L144.95240501505683,169.96332445484634L145.05835380810933,169.97975582789329L145.1643030625644,169.99736327084764L145.27025463054895,169.99999999868052L145.3762048078003,170L145.48215544645416,170L145.58810661460822,170L145.78702640222428,170L145.89297888651942,170L145.9989318322304,170L146.1048852393661,170L146.21083910792652,169.9917041064453L146.31679343790725,169.97142752252276L146.4227482293171,169.94546297230727L146.52870348215612,169.92409280153188L146.5416873424453,169.92328041666826L146.63465919642877,169.92692013542728L146.74061537214382,169.95019841771247L146.84657200928805,169.97716413023707L146.9525291078836,169.9946332572852L147.07148065139972,169.99999994462692L147.17743867288019,170L147.28339829069913,170L147.38935723508223,170L155.44358628619221,170L155.54958077043975,170L155.65557571634693,170L155.76157112391826,170L155.86756699315814,169.9979699942664L155.97356332406656,169.99264058484184L156.0795601166435,169.98270246068185L156.1855573709023,169.985088833705L156.29155508683408,169.98765291655764L156.39755326444774,169.99223611914442L156.5035521307162,169.9958635126249L156.60955186723476,169.99889622843648L156.61264087571192,169.9989451959392L156.7155514299028,169.99667436383018L156.82155145426154,169.99455136346322L156.927551940311,169.99035385688111L156.92755221268393,169.9903538544402L157.03355288806446,169.9903702388649L157.1395542975131,169.9929509149944L157.139554569886,169.99295091172846L157.24555644102975,169.99376898771507L157.3515587738864,169.99617029929107L157.45756222667717,169.9998114590263L157.56356548294625,169.99185881736585L157.66956920092377,169.98573714118015L157.77557338062306,169.9806258839992L157.88157802203966,169.98171577362817L157.98758312516915,169.98710817254937L158.09358894424395,169.99394642467513L158.19959497082132,169.99725081193404L158.30824779352923,170L158.41160953952442,170L158.51761695129804,170L158.62362482481117,170L158.72963316005936,170L158.83564195705145,169.99764990322748L158.94165121578743,169.99645295638402L159.04766093627177,169.9957434751031L159.1536711185,169.99611108238048L159.2596817624899,169.99759643623534L159.36570033124602,170L159.4717118987459,170L159.57772392800297,170L159.68373641902613,170L165.40909672675613,170L165.51513461888112,170L165.62117297291846,170L165.72721178887258,170L165.83325106673914,170L165.9392908065313,170L166.04533100825358,170L166.15137167189266,170L166.25741279746632,170L166.36345471636153,169.97285037590282L166.4694967657998,169.99685900112468L166.57111371891284,170L166.67715669222903,169.99467516332572L166.78320012748864,169.93466904609696L166.88924402469607,169.65737904157737L166.9952883838469,169.3569992828905L167.10133320495447,168.6422192145007L167.20737848801426,166.0465152306125L167.31342423302632,158.58776678822088L167.41947043999951,148.47221092433963L167.52551710893832,138.42537883594363L167.5460162237104,137.46624870160082L167.63156423983378,139.1537849091728L167.73761183269926,149.21654399882888L167.84365988753476,159.6191827007305L167.94970840434465,166.7324917388198L168.055757383129,169.57810706009903L168.1618068238922,169.99403718052602L168.27228522198195,170L168.37833558670732,170L168.48438641342042,170L168.59043770211684,170L168.69648945280986,170L168.8025416654906,170L168.90859434017236,170L169.01464747685074,170L169.12070107553015,170L169.22675513621942,170L169.33280965891421,170L169.43886497046196,169.9555382830288L169.43886497954105,169.955538280859L169.54492041718095,169.9757216737521L169.65097632590985,169.9952760315228L169.7570327965276,169.9999997017216L169.86309030115166,170L169.96914759594128,170L170.07520535276296,170L170.18126357160784,170L170.28732225248925,170L170.39338139540268,170L170.49944114107865,169.99660684824255L170.60550120806954,169.99407469257528L170.7115622954614,169.98646198531262L170.81762328653858,169.97877026717472L170.92368473966553,169.97112438474542L171.02974665483788,169.9688387494029L171.02974682734074,169.9688387456853L171.135809086539,169.9720266153173L171.2418720438481,169.97339169859882L171.2418724251702,169.97339169156234L171.34793534518755,169.97848281051188L171.34793572650963,169.97848280619303L171.45399948991218,169.98680668861334L171.56006371537785,169.9955525224541L171.66612858448855,169.9999999463217L171.77219373408929,170L171.87825955004163,170L171.9843256237907,170L172.09039231849593,170L172.19645989746004,170L172.30252735744716,170L172.40859527951955,170L172.51466366367276,169.99420710700943L172.62073250992455,169.99205545689185L172.62073284585117,169.99205545007754L172.7268019453734,169.9920564537576L172.832871715809,169.9937736706003L172.93894215716242,169.99568971287158L173.04501301976285,169.9999999636598L173.04501354635053,169.99999998505822L173.15108470309065,169.99533682406732L173.2571563219427,169.9931236241205L173.3632284028977,169.99282286681157L173.36322877060115,169.99282287245495L173.4693009459646,169.99045100868346L173.57537395114775,169.99031851723691L173.68144778615064,169.99257944630094L173.78752171557525,169.99388945855603L173.8935961071162,169.996441289816L173.99969526099034,170L174.10577057678603,170L174.2118463547113,170L174.317922594775,170L183.017733670297,170L183.12384827678574,170L183.2299633456346,170L183.33607887685244,170L183.44219487042596,169.99874450728944L183.54831132636846,169.99003633054141L183.65442824467993,169.97453917620152L183.76054562536484,169.96198653844692L183.76054587957955,169.96198653961176L183.86666346842316,169.95626743120235L183.86666354559546,169.95626742890641L183.97278177386374,169.96312088734607L184.07890054168223,169.97256008388277L184.18501977188296,169.98100685800222L184.29113971868068,169.98860117015926L184.3477911970071,169.99243585162847L184.39725987366373,169.99506671526166L184.45391135199014,169.9973258579741L184.50338301047412,169.99929868237837L184.56003196935103,170L184.60950409023943,170L184.66615304911636,170L184.71562563239593,170L184.82174763695244,170L185.77686648636956,170L185.88299311506364,170L185.9891202061888,170L186.0952477597494,170L186.2013757757411,169.99533390923762L186.30750425416826,169.99314650714828L186.41363319503532,169.99306565769362L186.5197625983423,169.99327176429304L186.6258924640981,169.99392876460007L186.73202324625748,169.9948183267038L186.73204810028608,169.99481889951193L186.83815403690636,169.99474471855666L186.9442852900129,169.9962951311733L187.05041700557268,169.99832755516772L187.15657454151298,170L187.26270718199248,170L187.36884028493404,170L187.47497385034654,170L195.75480195176678,170L195.8609720605145,170L195.96714263194596,170L196.0733136660567,170L196.1794851628556,169.99652557735942L196.28565712235155,169.99302517563186L196.39182954453125,169.99092669792557L196.4980024294124,169.99227983265342L196.60417577698615,169.9985860108585L196.71035029088702,169.99501422461748L196.81652456386814,169.97587745376643L196.92269929955074,169.94959863655305L197.02887449794372,169.92384734774268L197.05529335886186,169.92095711051957L197.135050159047,169.92214188225464L197.24122628286506,169.94404823342686L197.34740286939345,169.9691221342112L197.4535799186455,169.99033816093103L197.55977047274425,169.99999998965654L197.66594844744355,170L197.7721268848665,170L197.87830578502638,170L208.6047586975648,170L208.71098481028912,170L208.8172113860208,170L208.92343842475984,170L209.0296659265107,169.99705589942L209.13589389127773,169.99359679726405L209.24212231906543,169.99145420631547L209.34835120986935,169.99241053604263L209.45458056369839,169.99923396374066L209.45458109936513,169.99923396760337L209.56081091621482,169.99616538261148L209.66704119609847,169.990066877174L209.77327193901164,169.97661194961617L209.87950314496317,169.95677361075408L209.98573481394425,169.94361848530843L209.9857351090149,169.94361845235923L210.09196718656426,169.94421086204744L210.15541274398532,169.95530141943135L210.19819978163096,169.96181028613486L210.26164533905205,169.9727577536575L210.3044328397361,169.98014070626095L210.36787839715717,169.9853912123624L210.4106665470144,169.9889321848102L210.41067593934042,169.98893248902237L210.47411191831398,169.98890874511574L210.51690090346585,169.9888927293202L210.5169144222416,169.98889325389342L210.62313535072605,169.98869736575833L210.72937026103793,169.98753713712617L210.72937055156905,169.9875371279408L210.83560592494146,169.989738657274L210.94184176137446,169.99344296832905L211.04807806087246,169.99747078849074L211.1543279654286,169.9999999952453L211.26056539079667,170L211.3668030794985,170L211.47304123127418,170L218.27324165016847,170L218.37950990753887,170L218.48577862815603,170L218.59204781203766,170L218.69831745917048,169.99699729901928L218.80458756955892,169.99400434357366L218.9108581432118,169.99175202836517L219.01712918013808,169.99198610111875L219.1234006803244,169.99473455915927L219.22967264378403,169.99785533249062L219.40341924126344,170L219.5096921312698,170L219.61596548455836,170L219.72223930112912,170L222.20547993215396,170L222.31176533163568,170L222.4180511944661,170L222.52433752064968,170L222.63062431019085,169.9971147485994L222.736911563094,169.99345832802516L222.84319927935917,169.98820270335727L222.94948745898634,169.97730889321593L223.05577610197997,169.96943430127243L223.16206520834447,169.9616844504484L223.16206549433605,169.9616844266576L223.26835497782443,169.96522462236607L223.37464509719095,169.9805780920359L223.48093559368584,169.99201701211905L223.58722666704918,169.99722344564856L223.6431860821125,169.99860190399176L223.69353241712335,169.99919941465063L223.7494775053713,169.99986337135235L223.85576939201422,170L223.9620617420458,170L224.07986690519715,170L234.53769066427813,170L234.64402983049706,170L234.75036946037503,170L234.8567095539209,170L234.96305011113913,169.99744133852892L235.06939113202966,169.99421587005688L235.1757326165925,169.99185836066746L235.28207456482775,169.99261354012523L235.38841697674857,169.995630193802L235.49476095546535,170L235.60110429475301,170L235.70744809773072,170L235.81379236439852,170L235.9201370947608,170L236.02648228882202,169.9959671251822L236.13282794657772,169.99347654455755L236.2391740680368,169.99258235019525L236.34552065319926,169.99351239768785L236.34552112077276,169.99351240548364L236.4518677020695,169.9925941004294L236.55821568222547,169.99354736424763L236.60622030101274,169.99450306823178L236.66456365852014,169.99388258633263L236.71256827730744,169.9942689059747L236.77091209852708,169.99473843088083L236.81891671731435,169.9957119650324L236.87726100225066,169.99689518771729L236.92526562103797,169.99785912514372L237.03188237697867,170L237.13823220814885,170L237.24458250304463,170L237.3509332616659,170L244.79637150352792,170L244.90275519378585,170L245.0091393479599,170L245.115523966059,170L245.22190904809193,170L245.3206689346197,169.90773848565107" style="stroke: #2ca02c;"></path></g></g></svg>
