<svg width="300" height="220"><g transform="translate(40,10)"><g class="x axis" transform="translate(0,170)"><g class="tick" transform="translate(69.52741517536299,0)" style="opacity: 1;"><line y2="6" x2="0"></line><text y="9" x="0" dy=".71em" style="text-anchor: middle;">467</text></g><g class="tick" transform="translate(147.51626626503125,0)" style="opacity: 1;"><line y2="6" x2="0"></line><text y="9" x="0" dy=".71em" style="text-anchor: middle;">468</text></g><g class="tick" transform="translate(225.50511735469956,0)" style="opacity: 1;"><line y2="6" x2="0"></line><text y="9" x="0" dy=".71em" style="text-anchor: middle;">469</text></g><path class="domain" d="M0,-170V0H250V-170"></path><text y="20" x="125" dy=".71em" style="text-anchor: middle;">m/z</text></g><g class="y axis" transform="translate(0,0)"><g class="tick" transform="translate(0,170)" style="opacity: 1;"><line x2="-6" y2="0"></line><text x="-9" y="0" dy=".32em" style="text-anchor: end;">0.0</text></g><g class="tick" transform="translate(0,139.0909090909091)" style="opacity: 1;"><line x2="-6" y2="0"></line><text x="-9" y="0" dy=".32em" style="text-anchor: end;">0.2</text></g><g class="tick" transform="translate(0,108.18181818181819)" style="opacity: 1;"><line x2="-6" y2="0"></line><text x="-9" y="0" dy=".32em" style="text-anchor: end;">0.4</text></g><g class="tick" transform="translate(0,77.27272727272728)" style="opacity: 1;"><line x2="-6" y2="0"></line><text x="-9" y="0" dy=".32em" style="text-anchor: end;">0.6</text></g><g class="tick" transform="translate(0,46.36363636363636)" style="opacity: 1;"><line x2="-6" y2="0"></line><text x="-9" y="0" dy=".32em" style="text-anchor: end;">0.8</text></g><g class="tick" transform="translate(0,15.454545454545467)" style="opacity: 1;"><line x2="-6" y2="0"></line><text x="-9" y="0" dy=".32em" style="text-anchor: end;">1.0</text></g><path class="domain" d="M250,0H0V170H250"></path><text transform="rotate(-90)" x="-85" y="-30" style="text-anchor: middle;">Normalized Intensity</text></g><g class="filename"><path class="profile line" d="M0,170L0.06412840004966132,170L0.16946234466593676,170L0.274794123239258,170L0.38012704510942014,170L0.48546042480015156,170L0.5907942623203185,170L0.696128557665488,170L0.801463310844526,170L0.9067985218529999,170L1.0121341906997754,170L1.1174703173848533,169.99760936214025L1.2228074012630115,169.98547996527725L1.2934087399320737,169.96741660945128L1.3987457823114875,169.93850663704043L1.5040832825292034,169.91167013345697L1.5388200880553844,169.90374763302006L1.6094212406029538,169.90683943794568L1.7147596565194392,169.92314860347804L1.8200985302963923,169.95367419506593L1.9254378619382462,169.98140671083405L2.030777651431701,169.99761607970788L2.1708577692341464,170L2.276198932326737,170L2.3815418652270735,170L2.4868839440627655,170L2.5922264807766577,170L2.697569475373183,170L2.802912927847909,170L2.908256838205268,170L3.0136012064496938,170L3.1189460325856193,170L3.2242913166130447,170L3.329637058536403,170L3.4349838621156574,170L3.5403305198397477,170L3.6456776354597706,170L3.751025208989026,170L3.856373240427514,170L3.9617220339294237,170L4.067070981190809,170L4.172420386370293,170L4.277771130140304,170L4.383121451155986,170L4.488472230098632,170L4.593823466968244,170L4.699175161769253,170L4.804527314492794,170L4.909879925165467,170L5.015232993765104,170L5.1205870741343675,170L5.225941058618966,170L5.331295501048262,170L5.43665040142669,170L5.542005759758681,170L5.6473620209155655,170L5.7527182951546845,170L5.8580750273518,170L5.963432217511346,170L6.068790265118032,170L6.174148371206871,170L6.2795069352625745,170L6.384866020847688,170L6.489596283102603,169.80731348716753L6.490225823162801,169.80615523656533L6.594956221081063,169.99884175098822L6.696125242747757,170L6.7992431760910845,169.9791850662729L6.904604488018898,169.2453688223655L7.00996625793574,168.02044592117508L7.115328485841611,167.12640874843382L7.220691171745378,165.43088151675488L7.326054315642608,156.32325020224494L7.431417917537733,126.55953710761447L7.536781977435185,77.85306080983486L7.642146495334966,27.022502265593232L7.74751147124151,15.454545454545467L7.852876905154815,58.97483896054378L7.958242797083749,109.28058259268373L8.063609147028309,148.86883696328562L8.168975954984065,165.43105948472083L8.274343220964315,169.80053760553395L8.386777694315708,170L8.492145876340512,170L8.597514516394245,170L8.702883614476905,170L8.808253170597359,170L8.913623184751176,170L9.01899365693835,170L9.124364587167753,170L9.229735975443816,170L9.335107821766538,170L9.440480126140354,170L9.54585298389135,170L9.65122656298726,170L9.756600241523222,170L9.861974378114711,170L9.967349068101113,170L10.072724406808513,169.948846669992L10.072724493059937,169.94884662812103L10.17809991759318,169.96649177665532L10.283475972702528,169.9847009965898L10.388852794574442,169.99999998088703L10.38885292622135,170L10.494229679578885,169.97710274874765L10.49842953775073,169.97615228755092L10.599607022661019,169.98223697053066L10.704984823825281,169.99930203723585L10.704984960011739,169.99930205986576L10.810363455314652,169.97126806458505L10.915742172647597,169.97742244459042L11.021121348071533,169.99673117856963L11.126501185861715,169.99999998521454L11.231881286551165,170L11.33726183625694,170L11.442642844058144,170L11.548024418912803,170L11.653406701546926,170L11.758789083661002,170L11.864172277973026,170L11.969555576313414,170L12.074939777647158,170L12.180323992218296,170L12.285708664911459,170L12.391093795731077,170L12.49647938467272,170L12.601865577006373,170L12.707252499848266,170L12.812639463187011,170L12.918026884656648,170L13.023415186444058,169.99668412674143L13.128803524202072,169.97132938129022L13.234192320099844,169.9527879702574L13.339581574146235,169.92967328087607L13.444971576867928,169.90918678704654L13.444971713054386,169.90918677103292L13.550361747216,169.92414707920815L13.65575237572156,169.95997915667613L13.761143535012954,169.99139887686823L13.866535143387171,170L13.971927600320058,170L14.077320061473307,170L14.18271298079291,170L14.288106417293003,170L14.393500380065975,170L14.498894964433488,170L14.604289716453977,170L14.709685362446354,170L14.815081030830587,170L14.920477157398906,170L15.025873742160181,170L15.13127260093385,170L15.236670102081032,170L15.342067621089388,170L15.447466038635778,170L15.552864914379555,170L15.658264248338453,170L15.76366404049917,169.9960681964345L15.869064290870574,169.98936225637684L15.974464999457098,169.983486047588L16.079866166258743,169.97251239860051L16.18526779127994,169.9667950308705L16.185268231616153,169.96679503305762L16.290669874525122,169.9608829623553L16.290670314861337,169.96088293875673L16.39607241598986,169.96239739265926L16.50147585601923,169.96803046996905L16.606879313940805,169.9756582735158L16.71228323009523,169.98251889431566L16.712283797538806,169.98251891294592L16.817687604486945,169.97992059493842L16.92309300455952,169.97066987270208L17.028498295425806,169.96669494405663L17.032698781199112,169.96668225063115L17.133904044538244,169.972296115398L17.138104542484985,169.9724665011702L17.239310251892398,169.9715643550153L17.239310546963054,169.97156434784614L17.344717149009682,169.97495582686435L17.450124272865008,169.9882312665041L17.555531977543165,169.99887821864306L17.660951584673924,170L17.76636008329874,170L17.87176904017857,170L17.977178455326722,170L26.938653425505684,170L27.044102261291467,170L27.149551555580526,170L27.255001308363997,170L27.360451519641874,169.99800286176563L27.46590218943189,169.9931320730966L27.571353317725183,169.98901723643564L27.676804904526186,169.9883631860318L27.782256949834892,169.9910871216353L27.887709453660175,169.99289132781206L27.99316296982253,169.99635648120665L27.997365035252354,169.9963789975673L28.098616390689827,169.9933081314132L28.204070270069266,169.9878401420723L28.309524607974147,169.98236767973046L28.4149794044089,169.98167684171557L28.520434931746443,169.99004420715872L28.625890645245377,169.9945800077262L28.731356699871487,169.9998858006328L28.836813330439032,170L28.942271086863396,170L29.04772863451729,170L36.95835108317774,170L37.063843487875246,170L37.16933635132428,170L37.274829673524856,170L37.38032345447696,169.99762751394985L37.48581769418059,169.99632460047116L37.59131239264906,169.99515535418035L37.69680754987348,169.99515588308344L37.80230316586719,169.99682337102132L37.90779990793935,169.99999964546302L37.907811683528415,169.99999973555813L38.01329644146713,169.99763088704637L38.11879343376419,169.9951969693405L38.22429088483494,169.99345816487607L38.32978879468382,169.9935912991024L38.435287163315266,169.99549035276178L38.540785990724835,169.9978369675286L38.64632652325999,170L38.75182626824355,170L38.85732647201855,170L38.96282713458498,170L39.07249119857197,169.99776302807777L39.17799279091685,169.99635480314288L39.283494842066474,169.9956360358552L39.38899735202082,169.9961567148117L39.494500320775465,169.99775118977203L39.60001555117006,170L39.705519437547466,170L39.8110237827429,170L39.91652858675192,170L48.67082169306883,170L48.77636503501711,170L48.88190883600508,170L48.987453096037164,170L49.09299781512224,169.99694043912632L49.19854299325587,169.9951359152872L49.30408863044248,169.9923096041697L49.40963472668651,169.99026305707343L49.5151812819924,169.98962568912177L49.51518154528622,169.98962568815392L49.6207282963557,169.99172105200444L49.72627603307911,169.99642432321664L49.83182478269373,169.99999893227792L49.93737317426032,170L50.04292202489763,169.9971721658889L50.14847133461453,169.99296429583424L50.25402110340214,169.9896061531489L50.35957133127377,169.9891831153995L50.46512201822942,169.99256507431258L50.57067316426909,169.99700133760945L50.67625043146987,169.99994867826115L50.781802495686435,170L50.887355019000324,170L50.99290800141153,170L59.966575177508005,170L60.072167652169995,170L60.1777605861554,170L60.28335397947307,170L60.38894783213188,169.9981336552143L60.49454214411854,169.99564397329772L60.600136915446335,169.99399691679858L60.705732146115274,169.99428797324106L60.81132783612536,169.99606449735967L60.91694238428035,170L61.022538992986,170L61.1281360610461,170L61.23373358846064,170L63.02894667630029,170L63.13455247255137,170L63.240158728214524,170L63.345765443289736,170L63.451372617768165,169.99555656662352L63.55698025166309,169.99376636440218L63.6625883449701,169.99292878125914L63.768196897698026,169.99361977025774L63.87380590985134,169.9957184638922L63.97943760705109,170L64.08504753805515,170L64.19065792848457,170L64.29626877834822,170L73.5918121609376,170L73.69746391092389,170L73.80311612057936,170L73.9087687899129,170L74.01442191892006,169.99736610578867L74.12007550760529,169.99532493206996L74.22572955597302,169.9937993713317L74.3313840640321,169.99318115926854L74.43703903177368,169.99455919825272L74.54269445921103,169.99869518081428L74.64835242090905,170L74.75400876773357,170L74.85966557425832,170L74.96532284048328,170L75.59927609169304,170L75.70493657590382,170L75.81059751982814,170L75.9162589234837,170L76.02192078686609,169.99786820073342L76.12758310997975,169.99556791547477L76.23324589282907,169.99224414441002L76.33890913540968,169.99139355903628L76.33890969377416,169.99139356263285L76.44457283773042,169.99013701282922L76.44878052654823,169.9900834914983L76.55023755815574,169.99012620301687L76.55023765348626,169.99012620309693L76.65590217996116,169.98661117140628L76.76156726151555,169.98581154622443L76.86723280281895,169.98773781748997L76.97289880386688,169.99056086478035L77.07856526467712,169.99446007425004L77.18423334283011,169.99999987704328L77.28990072315163,170L77.39556856324431,170L77.50123686309485,170L77.60690562271654,169.99745864532287L77.71257484210494,169.99544202874677L77.81824452127339,169.9942387563571L77.92391466021297,169.9944707457855L78.02958525893258,169.99586817755832L78.13525631743222,169.99769460769335L78.24092985581987,170L78.34660183388843,170L78.45227427175031,170L78.55794716940106,170L79.0863185546345,170L79.19199421109397,170L79.29767032736449,170L79.40334690345048,170L79.50902393935196,169.99543120433555L79.61470143506895,169.98078833468284L79.72037939060584,169.95647182935735L79.82605780597154,169.94214885071037L79.82605797393484,169.9421488412314L79.9317366811616,169.94340478287106L80.037416070655,169.9628647910587L80.14309586550705,169.98466784243072L80.24877623368104,169.99712943361368L80.35253739553922,170L80.4582185698998,170L80.56390020410689,170L80.66958229816052,170L80.77718930289835,170L80.88287231664499,170L80.99276327303407,170L81.09844721869598,170L81.30560629186957,170L81.41129160491532,170L81.51697737782533,170L81.62266361060402,170L81.72835030325584,170L81.83403745577634,170L81.93972506818326,170L82.04541314046331,170L82.15110167262533,170L82.25679066468264,170L82.3624801166175,170L82.46817002844766,170L82.57386309666052,170L82.6795539282768,170L82.78524521979723,170L82.89093697121295,170L82.99662823831115,170L83.10232090953518,170L83.20801404067221,170L83.3137076317267,170L83.41940168268977,170L83.52509619357474,170L83.63079116437714,170L83.73648659510144,170L83.84218248575203,170L83.94787973969913,170L84.05357655020681,170L84.15927382064967,170L84.26497155102771,170L84.37066974134538,170L84.47636839160265,170L84.58206750180399,170L84.68776707195379,170L84.79154267391213,169.8710277585324L84.79346745159731,169.86863566304984L84.89724316395892,169.97250681992242L85.00294411396746,169.9995344403232L85.10689599324765,170L85.21259786317091,169.93839628375437L85.31830019305595,169.47216264827907L85.42400298290276,168.83640995954545L85.52970623272465,167.90390024750295L85.63540994251277,163.12962849916158L85.74111411227598,147.98964226923187L85.8468187420098,121.54400656664734L85.9525238317276,92.7950674502771L86.05822938142491,83.21837735137372L86.05997891210619,83.17370622494651L86.1639353911106,107.08579878963528L86.26964186078024,134.6544409278296L86.37534879043825,157.81891161456403L86.48105618008465,167.45633657414615L86.58676402973272,169.91182683708792L86.69614960298622,170L86.8018583726288,170L86.90756760227306,170L87.01327729192786,170L87.11898744158434,170L87.22469805125137,170L87.3304091209378,170L87.43612065063479,170L87.54183264035119,170L87.64754509009144,170L87.75325799985553,170L87.85897181451924,170L87.9646856443399,170L88.07039993418881,170L88.17611468407934,170L88.2818299348585,170L88.38754598160139,169.96843722334845L88.38754598614095,169.96843722199264L88.49326211160778,169.98403116759067L88.59897870166017,169.99852616529643L88.59897870619972,169.99852616557828L88.70469607407095,169.9920581966372L88.81041358421982,169.99504065591185L88.91613166337271,169.99999997210324L89.02185009363131,170L89.12756898394923,170L89.23328857038743,170L89.33900838083284,170L89.4417405320627,170L89.54746126264446,170L89.65318245329439,170L89.75890410402582,170L89.86761508313467,170L89.9733380308027,170L90.07906106176969,170L90.18478455282701,170L90.28751925887848,170L90.39324367011204,170L90.49896854143599,169.99051209911352L90.53595415313558,169.99070386150362L90.6046938728591,169.98901642559665L90.71041966437703,169.94944197811773L90.81614591599859,169.8885185103613L90.92187262772377,169.7929111217719L91.02759979956149,169.7197829688654L91.13332743150283,169.7041565729788L91.2390555235567,169.76312293904527L91.34478407572749,169.85367181042986L91.45051308801524,169.93090610564985L91.55624256042435,169.97216819134044L91.66496357655495,169.99544571452654L91.71080988511893,169.99791117981889L91.77069396921127,169.99993720194036L91.81654027777523,170L91.87642482199782,170L91.92227113056178,170L91.98215613491016,170L92.02800244347415,170L92.08788796697577,170L92.19362076306149,170L92.29935345638675,170L92.4050866098511,170L92.51082022345899,170L92.61655429721486,170L92.72228899908201,170L92.7637715031312,170L92.82802619027979,170L92.86950649718746,170L92.93376164449288,170L92.97524195140056,170L93.03949755886725,170L93.08097786577493,170L93.14523393339404,170L93.77966184408774,170L93.88540143981436,170L93.99114149572443,170L94.09688201181793,170L94.20262298809489,169.9983180279422L94.30836442456413,169.99360937206842L94.41410632122569,169.98938761629583L94.51984867808397,169.98547066984148L94.62559149513902,169.98259212375436L94.6255917357351,169.98259212601425L94.7313347723908,169.97833400120268L94.73133501298688,169.97833399342815L94.83707850984817,169.98381115176392L94.94282294810722,169.99084818212057L95.04856760597582,169.99417069514809L95.15431325972563,169.98582023096057L95.26005883801874,169.98298753062195L95.36580487653073,169.9877396631497L95.47155137526164,169.99359642107217L95.5772983342159,169.99824194437275L95.68305837333858,170L95.78880625273952,170L95.89455459237264,170L96.00030339223798,170L102.45184634040275,170L102.55762367989145,170L102.66340147977638,170L102.76917974007084,170L102.87495846076153,169.99851554889577L102.98073764187063,169.99588136247277L103.08651728338482,169.994123290546L103.19229738531297,169.99470909114203L103.29807794765951,169.9970227333953L103.4038740871213,170L103.5096555703135,170L103.6154375139241,170L103.72121991796197,170L105.09642074116692,170L105.2022095914702,170L105.3079989022362,170L105.41378867348267,170L105.5195789051963,169.99390175802557L105.62536959738152,169.98440173144004L105.73116075005164,169.97346415552605L105.83695236319778,169.96089382016444L105.84116335151822,169.96077217621647L105.94274443682437,169.96638364643314L106.04853710259165,169.9812282729861L106.1543300971969,169.99359000381654L106.26433445784055,169.99965660474575L106.37012925724885,170L106.47171317405855,169.9996144563248L106.57750801064772,169.99589671890377L106.68330330773951,169.99360771299064L106.68751380366966,169.99351919750055L106.78909906533393,169.9947191628835L106.89489528343542,169.99400308412146L106.89910580380553,169.99397711950638L107.00069196204838,169.99438332384028L107.00490647128085,169.99447385650558L107.10648910117284,169.9936283508906L107.21228670081325,169.99521565205484L107.31808476096955,169.99761702306452L107.43223222423826,170L107.53803120543532,170L107.64383064716601,170L107.74963054942593,170L109.75578208076186,170L109.86159120637821,170L109.967400792577,170L110.0732108393715,170L110.17902134675283,169.99829278020607L110.28483231472993,169.99629551112582L110.39064374329828,169.99471090804914L110.4964556324668,169.9949981248305L110.60226798223547,169.9969607838756L110.7080861038806,170L110.8138993748629,170L110.91971310644978,170L111.02552729865455,170L114.62348391660365,170L114.7293142319019,170L114.8351450079067,170L114.94097624462691,170L115.04680794205812,169.99756695000042L115.15264010020475,169.99611903314505L115.25847271907122,169.9948409347669L115.36430579865754,169.99404269013056L115.47013933896815,169.99428646218215L115.57597334000748,169.9957721730433L115.68180780177553,169.9977358259327L115.79013707004113,170L115.89597245327548,170L116.00180829724741,170L116.10764460196135,170L116.35843327714356,170L116.42515628056415,170L116.46427095186577,170L116.52429002968958,170L116.56574607270998,170L116.63012862591358,170L116.67158466893399,170L116.73596768290176,169.99855673982142L116.77742372592216,169.9948700424712L116.84180720064526,169.98664944706587L116.88326324366565,169.97640597514035L116.9476471791485,169.95046440130824L116.98910322216891,169.9269266681378L117.05348761841593,169.88707120060135L117.09494366143633,169.86049380933005L117.1593285184564,169.8209131495259L117.20078456147681,169.80081539015185L117.26516987925663,169.78064258136604L117.27187436340854,169.7793833388354L117.30662592227704,169.79033184985786L117.37101170083434,169.82590504778233L117.41246774385475,169.85174763242276L117.47685398318954,169.89433160657765L117.51831002620993,169.92021425955764L117.58269672631776,169.95835756373882L117.62415276933817,169.97692900089123L117.68854441530193,169.99727513827466L117.7943863322678,169.9999405920846L117.90023045775065,170L118.00607504401543,170L118.1119200910754,170L119.17039590574011,170L119.27624602167158,170L119.38209659842931,170L119.48794763601327,170L119.59379913442349,169.99805524557453L119.69965109366883,169.99609606498447L119.80550351374484,169.99508516851287L119.91135639465595,169.99575092146384L120.01720973641106,169.99736634751264L120.12308145206005,170L120.22893571549866,170L120.33479043978127,170L120.44064562491673,170L120.75819778011648,170L120.86405480867661,170L120.96991229809846,170L121.07577024838645,170L121.18162865954503,169.99592596468537L121.28748753157417,169.98690125769735L121.39334686447833,169.97547296895002L121.49920665825752,169.96385397665262L121.60506691291613,169.955734724415L121.7109276284542,169.95496389468306L121.81678900462072,169.96797233470164L121.9226506419354,169.9816266306057L122.02851274013396,169.994915228083L122.13437623437672,169.99999914855402L122.2402392543652,170L122.3461027352553,169.99853987502883L122.45196667704258,169.99254891714992L122.55783107973146,169.99231632122002L122.66369594333082,169.99428711348943L122.76956126783622,169.99720326824783L122.87543325427549,170L122.98129950060628,170L123.08716620785643,170L123.1930333760259,170L126.69112066692328,170L126.79700352016857,170L126.9028868344263,170L127.00877060969646,170L127.11465484599235,169.9975770235101L127.22053954330956,169.99625021507288L127.32642470164363,169.99561790444685L127.43231032101232,169.99632911416714L127.53819640140232,169.9978756935272L127.63987060746635,169.99991546896638L127.74575759769891,170L127.85164504896166,170L127.95753296127229,170L128.06342133462198,169.99244748034306L128.16931016901512,169.98359442314066L128.27519946445616,169.97746276084908L128.3810892209451,169.97526975367336L128.38108929811747,169.9752697526979L128.4869794384909,169.9783443752051L128.5928701942657,169.98596807317625L128.69876149280918,169.9950469223083L128.80466158248112,169.99994449718133L128.9105536442672,170L129.0164461671234,170L129.12233915103636,170L135.58689722818477,170L135.68860473374846,170L135.79452677042667,170L135.9004492683434,170L136.00637222749867,169.99861325533752L136.11229564790577,169.9947861571437L136.21821952956026,169.98923121411423L136.32414387246658,169.98407551259683L136.43006867662476,169.981270077013L136.53599394203917,169.98796639286948L136.64191966871425,169.9951383027135L136.74784603823645,169.99965484730714L136.74784671008962,169.99965484949632L136.85377322764367,169.99687622571858L136.9597003381097,169.9772753099489L137.06562790985421,169.9508194219262L137.17155594286828,169.93587100473258L137.17155610629203,169.93587098737845L137.27748443715632,169.9405547269645L137.3834135243653,169.9561791760725L137.48934294121017,169.96817029145117L137.5952728193424,169.9773224624005L137.70120359908924,169.98273643006812L137.80713439979604,169.98810990594976L137.91306573442287,169.993850593121L137.9172805591939,169.99375619505577L138.01900152514867,169.99500944517246L138.02321229471966,169.99500178461912L138.1249355754896,169.99620611731052L138.23086822137657,169.99772955553664L138.33680132856418,169.9999120964777L138.4469496740517,170L138.55288371609373,170L138.65881821943634,170L140.87933243292917,170L140.98527707354043,170L141.09122217552763,170L141.19716773888194,170L141.30311376361664,169.99704831262935L141.40906024973174,169.9947782858873L141.5150071972272,169.99414687722123L141.62095460611638,169.99544581970594L141.72690247638593,169.99756159846868L141.83285281452524,170L141.93880160757772,170L142.04475086203277,170L142.15070057788154,170L142.57450391458943,170L142.6804559374731,170L142.78640842176824,170L142.8923613674792,170L142.99831477461493,169.99148455565444L143.10426864317535,169.97680739905078L143.21022297315608,169.9586346308265L143.31617776456596,169.93982117132404L143.3161778735151,169.93982115803985L143.42213301740497,169.95188457004315L143.52808881338947,169.9707616082996L143.63404498910452,169.99040158726015L143.74000711002347,169.9999005117033L143.84596420861902,170L143.9519217686526,170L144.05787979013303,170L147.76670127428477,170L147.87267590963532,170L147.97865100653473,170L148.08462656497858,170L148.1906025849757,169.99757665613512L148.2965790665261,169.99592916635106L148.40255600963422,169.9948609847071L148.5085334142956,169.99500335379568L148.6145112805325,169.99610051536794L148.7204902892549,169.99931591389623L148.82646907861607,170L148.93244832954383,169.9970785191972L149.038428042047,169.99612021757628L149.14440821612564,169.99619000973206L149.25038885178859,169.9964184595033L149.35636994902256,169.99651841277182L149.4623515078453,169.99727056134464L149.5683378045071,170L149.6743202865029,170L149.7803032300919,170L149.88628663527848,170L151.58629904782302,170L151.6922903127592,170L151.79828203933295,170L151.90427422755747,170L152.01026687743283,169.99739055156616L152.11625998895457,169.99610777000925L152.2222535621271,169.99561340049124L152.32824759695487,169.99646465134728L152.43002684487965,169.9981484905501L152.53602179078686,169.99992912978814L152.54023778246568,170L152.64201719835822,169.99808910554833L152.7480130675981,169.99562185426691L152.8540093985065,169.98702983463835L152.96000619108344,169.9847861098807L153.06600344534223,169.98271523508566L153.066003749492,169.98271523686893L153.17200116127404,169.98214268738093L153.27799933888767,169.9854682843536L153.38399828232846,169.99262537851746L153.48999738331023,169.99386564948003L153.59599694597824,169.9961303959575L153.70199800535408,169.99751755818485L153.70199836851796,169.997517562585L153.80799849140354,169.99556894400294L153.913999439157,169.99435846681737L154.02000084860563,169.9924887973955L154.12600271974938,169.9914543290257L154.232005052606,169.98085201893L154.33800784716223,169.96939195023447L154.44401110343134,169.9540981453897L154.55001482140887,169.94885988664387L154.55001498483261,169.9488598787241L154.65601900110815,169.96399247327946L154.76202380594847,169.9701675596509L154.76624030440317,169.97018752174026L154.86802890907794,169.96997766496492L154.87224541978142,169.96993565355407L154.97403467367818,169.97023697778482L154.97403502776297,169.9702369660981L155.08004070025555,169.97346941843932L155.18604754265277,169.9840790693401L155.29205449269583,169.99341179374582L155.4118236549973,169.9997358610827L155.5178315285104,170L155.6238398637586,170L155.7298486607507,170L156.14012873576044,170L156.2461398414987,170L156.35215140899857,170L156.45816343825564,170L156.5641759292788,169.99754955188095L156.67018888206357,169.99518617828886L156.7762022966189,169.9926774350815L156.8822161729447,169.99132709321648L156.9882305110499,169.99212230372183L157.0942453109256,169.99461482788374L157.2002605725851,169.99724871495212L157.3258111085293,170L157.43182729375198,170L157.5378439407629,170L157.64386104956654,170L163.15161203814765,170L163.25765362565582,170L163.36369567509408,170L163.46973818647132,170L163.57578115978748,170L163.6818245950471,169.88460762466107L163.78786849225455,169.51563662273026L163.89391285140536,168.62486338059534L163.99995767251292,166.31667409645996L164.1060029555727,161.38634181599036L164.21204870058477,155.89962411150276L164.318094907558,152.53740678332116L164.32386998963906,152.49035020468733L164.42414157649677,156.14457098215786L164.53018870739226,161.6730195491839L164.63623630025774,166.8813728147591L164.7422843550932,169.4063270387626L164.84833287190312,169.97881859030727L164.94063209364703,170L165.04668153441023,170L165.15273143714788,170L165.25878180187325,170L165.36904991133676,170L165.47510121228194,170L165.5769356679758,170L165.68298788065653,170L165.7890405553383,170L165.8950936920167,170L166.00114729069608,170L166.10720135138538,170L166.21325587408015,170L166.3193108587804,170L166.42536630549938,170L166.5314236986607,170L166.63748006940835,170L166.74353690217922,170L166.84959419696884,170L166.95565195379052,170L167.06171017263543,170L167.1677688535168,170L167.27382799643027,170L167.37988760138023,170L167.4859476683711,169.99815856153919L167.59200819739848,169.99440095633068L167.69806918847567,169.98641262863984L167.80413064160263,169.9839504427324L167.80413081864504,169.9839504386224L167.91019255677497,169.9889168128254L168.01625511104393,169.99579019178782L168.12231795032474,169.9965023998212L168.2283816193676,169.99472704285765L168.3344453827702,169.98863922945847L168.44050995324153,169.98329619101824L168.5465746407703,169.98751311296076L168.652639790371,169.99376282149822L168.7587054020437,169.9981522929605L168.86477189343125,169.9999997729888L168.9708384292523,170L169.07690542715414,170L169.1829859201853,170L169.28906761070857,170L169.39513599486182,170L169.50120484111358,170L178.5187302541602,170L178.62483885022894,170L178.73094790862237,170L178.83705742934487,170L178.943167412392,169.99785943811764L179.04927785777267,169.99529551966842L179.15538876548686,169.99364632450465L179.26150013554786,169.99411452224834L179.36761196793793,169.9960442428713L179.47372426267486,169.99795005733426L179.57983779602137,170L179.68595101545193,169.99786593268396L179.7920646972293,169.99314576766744L179.89817884136679,169.98998013701228L179.90239827029515,169.98994088852876L180.0042934478555,169.99029129586782L180.11040851670435,169.9939626677366L180.21652482872454,169.99673134405745L180.21652487865958,169.99673134412944L180.32264082229807,169.99396965861212L180.42875727824057,169.98470318473096L180.53487419655207,169.97095565847636L180.64099157723695,169.9573059609782L180.7471094202953,169.95050040358302L180.74710951562582,169.95050040240466L180.8532277257359,169.9620698367683L180.95934649355434,169.97195203187502L181.0654657237551,169.982298999708L181.17158583397656,169.9941976428374L181.2777059889596,169.99717162042717L181.38383914001417,169.99999996407058L181.48996021977953,170L181.59608311018195,170L181.70220511473843,170L192.10440374619412,170L192.21057154157634,170L192.31673979962898,170L192.42290852034762,170L192.52907770374117,169.9977969145644L192.635247349814,169.9957167784803L192.7414174585617,169.99446078136816L192.74141780810695,169.99446078327708L192.84758802999312,169.99115713622413L192.8475883795384,169.9911571303967L192.95375906410388,169.99122550445156L193.05993091044803,169.99312422687518L193.16610286994398,169.99343849578506L193.17032433521013,169.99349391606557L193.27227529212368,169.99324780672313L193.37844898050494,169.996737738077L193.37846213157724,169.99673792449457L193.48462232807873,169.99308396126884L193.5907961383495,169.98697774548324L193.69697041133065,169.97484311439524L193.80314514701328,169.96102529681178L193.90932034540623,169.95689599911412L194.0154960065095,169.96536078467702L194.12167213032754,169.98213800015026L194.22784871685593,169.99578131172223L194.33403906698538,169.9967124471267L194.44021657896104,169.996613274097L194.54639455366035,169.9952614896867L194.6525729910833,169.99459327126394L194.65678162223426,169.99456799836898L194.76296053465623,169.99522772753906L194.86913990980628,169.99700998062943L194.97532739229308,170L195.08150769292146,170L195.18768845628227,170L195.2938696823934,170L200.17448357224603,170L200.2806865380559,170L200.38688996674009,170L200.49309385829866,170L200.59929821273604,169.99721720057477L200.7055030300522,169.9950284187372L200.8117083102516,169.99426866454442L200.91791405333862,169.9955622131267L201.02412025931332,169.99786060258108L201.13034725627435,170L201.23655438803766,170L201.3427619826887,170L201.4489700402451,170L201.55938117524033,169.99848145980906L201.6655901708696,169.99676686475536L201.77179962940872,169.99573498001948L201.87800955084882,169.99599318667734L201.9842199352076,169.99731227861653L202.09043640698135,170L202.1966477171775,170L202.30285949028794,170L202.40907172632595,170L205.48520465397647,170L205.59143076670077,170L205.69765734243248,170L205.8038843811715,170L205.91011188292237,169.99554099985943L206.01633984768938,169.9897084069958L206.1225682754771,169.98241669696299L206.22879716628103,169.97786891263982L206.33502652011006,169.98464087470657L206.44125648676487,169.99057692349862L206.5474867666485,169.9968434685511L206.54748736132936,169.99684347789398L206.65371810424256,169.9909807032137L206.7599493101941,169.97637548731367L206.86618097917517,169.9658983820295L206.86618113805937,169.96589838222818L206.97241311119907,169.96553664174024L207.0786457062658,169.977607951237L207.1848788733201,169.98803146272112L207.28353991090668,169.9978296204237L207.3897734320635,169.9991711838045L207.496007416272,169.9999201136423L207.60224186353219,170L207.71606442412593,170L207.82604388111184,170L214.40982193600442,170L214.51608695068302,170L214.62235242859956,170L214.7286183697495,170L214.83488477413738,169.99787114525282L214.94115164177194,169.9958617917597L215.04741897264444,169.99487223095954L215.15368676676366,169.99582166687895L215.25995502413406,169.99797062107996L215.4612042706782,170L215.5674734545598,170L215.67374310169262,170L215.78001321208106,170L218.76707207072803,170L218.87335608016807,170L218.9796405529568,170L219.08592548908538,170L219.19221088856708,169.99821989044443L219.29849675139752,169.99633067165524L219.40478307758107,169.99530414835382L219.40478351791728,169.99530415276197L219.51106986712225,169.99439861695328L219.51107030745845,169.99439861778615L219.6173571200254,169.9863248488457L219.72364527662677,169.97639370976455L219.80514343400492,169.97203562342912L219.82993348803078,169.97051708699257L219.91143161363212,169.97479629063278L220.01772025662572,169.98672220570577L220.12400936299022,169.99430049775822L220.24385037505036,169.99862925169853L220.34556598675388,170L220.45185648324875,170L220.55814744312335,170L220.66443886638214,170L241.60391308675784,170L241.71029631309074,170L241.81668000334864,170L241.9230641575227,170L242.02944877562177,169.9959138290213L242.13583385765475,169.87050475302516L242.20111489103138,169.74174598931117" style="stroke: #1f77b4;"></path></g><g class="filename"><path class="profile line" d="M1.559777021791947,170L1.7961722248227112,170L1.901505132094501,170L2.0068384971912927,170L2.1121723201175207,170L2.2175066008687505,170L2.322841339449416,170L2.4281765358728165,170L2.5335121901256525,170L2.6388483022167906,170L2.7441855076919013,169.99784188143494L2.8495225354773757,169.9713130984376L2.954860021101152,169.93879525913653L3.060197964585396,169.90062681001172L3.1655366246710783,169.8657539032504L3.165536697303856,169.8657538983038L3.270875483858525,169.8977608310804L3.3762148009064394,169.9542126717335L3.481554648443166,169.9856185667127L3.5840286420032843,169.9996086766727L3.689369332637035,170L3.7947104811489853,170L3.900052087521404,170L4.008261357909039,170L4.113603880033425,170L4.218946860040444,170L4.3242915553850585,170L4.429635451152912,170L4.534979804816698,170L4.6403246163675504,170L4.745669885809902,170L4.85101561315262,170L4.956361798386838,170L5.0617084415214215,170L5.167055542565238,170L5.272403101509421,170L5.377753714989067,170L5.483102189751714,170L5.58845112243246,170L5.693800513031304,170L5.79914967153686,170L5.904499977976334,170L6.00985074233834,170L6.115201964627312,170L6.220553644843249,170L6.32590578299945,170L6.431258379082615,170L6.536611433110479,170L6.6419649450741725,170L6.747319604993953,170L6.852674032847042,170L6.958028918649262,170L7.063384262400613,170L7.168740064109962,170L7.2740963237728735,170L7.379454035554926,170L7.484811211142698,170L7.590168844688467,170L7.695526936201101,170L7.800885485689462,170L7.906244493149122,170L8.011603958575643,170L8.114091827616274,170L8.21917085686447,170L8.324531696240348,170L8.429645361220299,170L8.5350071165698,170L8.640369329903896,169.27604050513997L8.74573200123589,167.62585290037205L8.851095130561346,166.98116659767135L8.956458717889129,164.0776907163478L9.061822763214808,150.6786846490835L9.16718726654725,111.3361691789835L9.272552227886452,61.89165338190554L9.377917647232417,15.790450396491622L9.380462341134766,15.454545454545467L9.48328352459401,27.935673129279337L9.588649859966797,79.29925241782364L9.694016653359645,127.93645112636284L9.799383904772556,157.7558007170588L9.904751614205527,168.41530695099888L10.010119781667425,169.9825417702589L10.118893272887382,170L10.2242623564027,170L10.329631897955814,170L10.435001897542287,170L10.540372355170991,170L10.645743270841919,170L10.751114644550642,170L10.856486476310456,170L10.961858766116931,170L11.0672315139745,170L11.172604719892028,170L11.277978855978137,170L11.383352978006718,170L11.488727558099692,170L11.594102687052464,170L11.699478201436849,170L11.80485457337477,170L11.910230985747482,170L12.015607919747133,170L12.120985684067458,170L12.226363470673245,170L12.33174171536559,170L12.437120536168324,170L12.542500250858716,170L12.647879869815169,170L12.753259946867047,170L12.85864048201435,170L12.964021670466535,169.98188307614663L12.964021802113445,169.9818830535151L13.069403121813552,169.990415298764L13.174785031269296,169.99657134936274L13.280167680285777,169.99999994299046L13.385551096104718,170L13.490934379891067,170L13.596318121790576,170L13.701702321812105,170L13.807086979951226,170L13.912472990507878,170L14.01785856489991,170L14.1232445974184,170L14.228631088072216,170L14.334018036856921,170L14.43940544378138,170L14.544793576678964,170L14.650182172255853,170L14.755570953604016,170L14.860960193100802,169.99602165091463L14.966349890750642,169.981513599223L15.071740491424867,169.94283336650395L15.177131105385254,169.8971154789519L15.282522177494261,169.85418661881738L15.387913707769625,169.84361172812825L15.387914120868547,169.84361168429334L15.493305936802987,169.87761928931076L15.59869838341106,169.9221475970032L15.70409146067947,169.96515063749302L15.809484823624688,169.9929543720578L15.914879448245228,169.99999980821366L16.020273727540886,170L16.1256684650162,170L16.231063660671172,170L16.336459314510233,170L16.4418581502714,170L16.5472547204875,170L16.652651748896552,170L16.758049235502995,170L17.39044377739317,170L17.49584447143895,170L17.601245623704287,170L17.706647234189173,170L17.812049302893616,169.9985165986202L17.91745182982648,169.98018896348032L18.022854814978892,169.94522855346324L18.128258258368593,169.8925539872678L18.23366215998671,169.84662162170892L18.339066519842117,169.8174758359376L18.339066760438193,169.81747578697988L18.444471337934807,169.82982523866184L18.444471578530884,169.82982522451942L18.54987675953034,169.86130252302866L18.655282494106466,169.91986537829766L18.76068878225927,169.95843817989353L18.866095651226033,169.96916967851288L18.895645609684525,169.97003316948485L18.971503346151252,169.96577832727078L19.001053177258562,169.96669982160742L19.07691091372529,169.9656622361086L19.182318939558776,169.98992272916686L19.287727423647283,169.99727020237506L19.39314475508548,170L19.498554155701754,170L19.603964014586346,170L19.709374331739255,170L25.085908234377154,170L25.1913423852153,170L25.296776994463627,170L25.402212062126562,170L25.507647588199678,169.99383583864955L25.613083572700706,169.99122622851294L25.718520015611908,169.9899392102067L25.823956916955456,169.9898763160088L25.929394276722487,169.99088841816766L26.034832094917427,169.99314687406883L26.140278465555426,170L26.245717200623922,170L26.351156394120327,170L26.456596046057943,170L31.6237006350766,170L31.72916321239075,170L31.834626248279104,170L31.940089742746093,170L32.04555369579616,169.99596091043782L32.151018107429294,169.99289552506576L32.25648297764107,169.99091696544596L32.361948306449214,169.99172954214572L32.467414093844866,169.99479791035174L32.57288901491426,170L32.678355719502655,170L32.78382288268741,170L32.889290504477415,170L34.36588006655128,170L34.471354567690256,170L34.57682952746551,170L34.68230494589477,170L34.78778082297359,169.99472824260047L34.893257158697544,169.99032534159872L34.998733953084376,169.98852865482544L35.10421120612521,169.99037689086674L35.20968891783333,169.99436723667844L35.31522105435365,170L35.420699683383084,170L35.526126212186135,170L35.63160575855904,170L35.73708576360368,170L35.84256622732448,170L35.94804714972146,169.99387784072377L36.05352853080346,169.99066884200775L36.15901037057051,169.99002421981228L36.26449266902258,169.9925265774272L36.369975426168565,169.9962064441931L36.47547152977804,170L36.58095520430739,170L36.6864393375395,170L36.79192392946551,170L38.5852231785667,170L38.69071602755036,170L38.79620933528998,170L38.901703101781145,170L39.007197327028265,169.99454979056608L39.11269201103579,169.98948507763848L39.21818715380813,169.98651548264345L39.32368275533645,169.98718912429686L39.42917881563403,169.99083671549104L39.53467533470531,169.99534059918582L39.64017423731446,170L39.74567167392869,170L39.85116956932106,170L39.956667923496,170L40.167666008189116,170L40.27316573872061,170L40.37866592803909,170L40.48416657614901,170L40.58966768305922,169.9956369742717L40.69516924876529,169.99272885494327L40.80067127327166,169.99149406395773L40.906173756587194,169.9927541872824L41.011676698707454,169.99552682691015L41.117189097017764,170L41.22269295676079,170L41.32819727531741,170L41.433702052687615,170L45.7597910747469,170L45.86531512484605,170L45.970839633882925,170L46.076364601853086,170L46.181890028752115,169.99536178119195L46.28741591459773,169.99281153685587L46.39294225938993,169.99117186609013L46.49846906311986,169.99062944057422L46.60399632580082,169.99151153593334L46.70952404743279,169.99409132171505L46.815057857056054,170L46.92058649659451,170L47.02611559509285,170L47.13164515255108,170L47.44823287444893,170L47.55376426778219,170L47.6592961200842,170L47.76482843136384,170L47.87036120162553,169.99340974996693L47.975894430869275,169.99100657930128L48.08142811909508,169.9909540604379L48.18696226630736,169.99288174352947L48.29249687251502,169.9956361311886L48.398069920116704,170L48.50360544431063,170L48.60914142750434,170L48.7146778696934,170L50.297745306385096,170L50.40328909295645,170L50.50883333857193,170L50.61437804323596,170L50.71992320694854,169.99731430269352L50.82546882972297,169.9892944405796L50.931014911550385,169.98113688214386L51.03656145243523,169.97724577773818L51.14210845238191,169.9885346570192L51.24765591139933,169.99318255517824L51.353203829483014,169.99733787813915L51.458786198772906,170L51.56433503499804,170L51.669884330298316,170L51.77543408467375,170L77.64896483491208,170L77.75462760344234,170L77.86029083170828,170L77.96595451970992,170L78.07161866745612,169.9953881515981L78.17728327494245,169.97883129051675L78.28294834217778,169.9386818884335L78.38861386916207,169.92600464327052L78.38861391909711,169.92600464262586L78.4942798558998,169.942121816886L78.59994630239096,169.96435834692608L78.70561349463597,169.97701436628816L78.81128086064284,169.98918781098976L78.91694868642087,169.9985133846772L78.91694933557632,169.99851339380973L79.02261762111662,169.988158644626L79.12828636641923,169.98835865288106L79.23395557149743,169.9908900272975L79.33962523635121,169.99348007352327L79.44529892906579,170L79.55096951347075,170L79.65664055766017,170L79.76231206163847,170L79.97365491003707,170L80.07932779338203,170L80.18500113652033,170L80.29067493945195,170L80.3963492021902,170L80.5020239247262,170L80.60769910706881,170L80.7133747492225,170L80.81905085118723,170L80.92472741296301,170L81.03040526983122,170L81.13608275124686,169.9957282580226L81.24176069247797,169.97641608752264L81.34743909353789,169.96256030976917L81.45311795442213,169.95300794558463L81.55879727513518,169.9681999177138L81.66447705568588,169.99026575870286L81.77015745040558,169.99935535539095L81.87583828227407,169.99999996519443L81.98151985997177,170L82.0872014798775,170L82.19288355962536,170L82.29856644422983,170L82.40424944367514,170L82.50993786924644,170L82.61562178840252,170L82.72130616741842,170L82.82699100629857,170L85.57495821463104,170L85.68065547078585,170L85.78635318687142,170L85.89205136290545,170L85.99774999887468,170L86.10344909478351,170L86.20914865064528,170L86.31484866645994,170L86.42054914221866,170L86.52625045018216,169.9018851735987L86.5262504638008,169.90188517006547L86.63195184586,169.99999999191138L86.73092716180014,170L86.83662947740156,170L86.94233225296476,169.8098563494594L87.04803548849861,169.28807135836993L87.1537391840031,168.74760528072767L87.25944333948269,167.49833901311186L87.36514795494176,161.6355204632122L87.47085303037152,143.6407864175901L87.57655856578964,117.7039870732786L87.68226456118727,90.49692702723874L87.69540733064493,88.67258386768492L87.78797101657771,89.04368506770875L87.89367793195211,115.04705385989472L87.99938530731933,141.4753682826094L88.10509314268378,160.77691323266365L88.21080143804994,168.2621226088642L88.31651019340889,169.94346660303142L88.42894941214016,170L88.53465908751134,170L88.64036922289752,170L88.74607981828535,170L88.85179087368817,170L88.9575023891104,170L89.06321436454763,170L89.16892680001312,170L89.27463969549804,170L89.38035305101565,170L89.48606686655712,170L89.591781627863,170L89.69749636347431,170L89.8032115591228,170L89.90892724658968,170L90.01464386621565,170L90.12036044198885,170L90.22607747781694,170L90.33179497369547,170L90.43751345167698,170L90.54323186766524,170L90.64895074371285,170L90.75467007981976,170L90.86039019376325,170L90.96611045000209,170L91.07183139329096,170L91.17755256967503,170L91.26877502863609,170L91.37449712516981,170L91.48021968178499,170L91.5859426984861,170L91.70616597015173,170L91.81188990702466,170L91.90311450910927,170L92.00883936616732,170L92.11456468332457,170L92.22029046058103,170L92.32601669793671,169.99474699636562L92.41553483498694,169.95572422861875L92.52126199254991,169.8495874186831L92.62698961023423,169.65926723514218L92.73271768802222,169.44837271734275L92.83844622593156,169.3320479176235L92.85465478634505,169.32562954110534L92.94417522395341,169.44699384897922L93.04990468209665,169.64528961919905L93.1556346003657,169.83813830602722L93.26136497876054,169.9473665419773L93.36709581728121,169.98079672743356L93.39780592029955,169.985849698476L93.50353812232062,169.9753600139559L93.60926988111507,169.95807464052683L93.71500210003532,169.95084909579805L93.71500224530088,169.95084908587083L93.82073492436467,169.96454579186755L93.926468063572,169.98326203727748L94.03220166291845,169.99739442846052L94.13793598117157,169.99999991397746L94.24367399173127,170L94.34940897153051,170L94.45514441148659,170L94.56088032067859,170L95.93548870707019,170L96.0412310496759,170L96.14697385247835,170L96.25271711548197,170L96.35846083868677,169.98829311069437L96.4642050221016,169.96180260753314L96.5699496657176,169.93872197358823L96.6756947695525,169.9316918954525L96.67569533699609,169.9316919089354L96.78144033360189,169.93097466505245L96.78144051518383,169.9309746475632L96.88718653944325,169.9374788226405L96.99293302392601,169.94881223154792L97.09868025461925,169.96599104188584L97.20442765954867,169.98550926377803L97.31017562457596,169.99570844318168L97.41593261596364,169.99999999594823L97.5216815014509,170L97.6274307473047,170L97.7331804533996,170L103.23279934462596,170L103.33857344715939,170L103.44434801007132,170L103.55012303337061,170L103.65589851705727,169.99544221975307L103.76167446113128,169.98195407953003L103.86745086560596,169.96796865734512L103.97322773046801,169.95606867019464L104.07900505573073,169.95980172141606L104.1847828413941,169.9733338776797L104.29056108746701,169.98897742581678L104.39634433802429,169.99844230950708L104.44487583951977,170L104.50212350491184,170L104.5506550064073,170L104.60790313220446,170L104.65643463369993,170L104.7136832199155,170L104.76221472141097,170L106.9351714222694,170L107.04096163977036,170L107.14675231774731,170L107.25254345620473,170L107.35833505514263,169.99587398654552L107.46412711456098,169.99094771004553L107.56991963446865,169.97667806889598L107.67571261486565,169.96724431873972L107.78150605575199,169.96303844698514L107.78150626911076,169.96303844144336L107.8872999571365,169.97055469799975L107.99309453237358,169.99033142185385L108.09888935475892,169.99533362972107L108.20468899560467,170L108.31048473899084,170L108.4162809428885,170L108.52207760729323,170L110.53230156361235,170L110.6381074387922,170L110.74391377453233,170L110.84972057085044,170L110.95552782773765,169.99362405312195L111.06133554519845,169.98655309114855L111.16714372323723,169.9806645943856L111.272952361854,169.9785181316451L111.27295252981729,169.97851813103645L111.37876146105762,169.9820895057017L111.48457118880697,169.99260739568143L111.59038120917987,169.99693581964902L111.67004923780502,170L111.77586017936494,170L111.88167158152058,170L111.98748344427638,170L114.65907712962016,170L114.76490096888439,170L114.87072526881525,170L114.97655002941721,170L115.08237525069914,169.9941004724373L115.188200932661,169.99064502980818L115.29402707530282,169.9892387705313L115.39985367862903,169.9905840728087L115.50568074264406,169.99377224049886L115.61740569479883,170L115.72323368019592,170L115.82906212628627,170L115.93489103307874,170L116.45814739252901,170L116.56397906356078,170L116.66981119530355,170L116.77564378777059,170L116.88147684095749,169.99621284883534L116.98731035487312,169.99225466436903L117.09314432951301,169.98892480160626L117.1989787648772,169.98800228009742L117.30481366097898,169.9897776955423L117.41064901781832,169.99304669228815L117.51648483539083,169.99618454196357L117.62920867118923,170L117.73504541024576,170L117.84088261004875,170L117.94672027060263,170L118.05156591947178,170L118.15740450153187,170L118.20002904251992,170L118.26324354434725,170L118.3058680853353,170L118.36908304791797,170L118.41170758890601,169.9990781172045L118.47492301225284,169.99680376952278L118.5175475532409,169.98890560275908L118.58076343735635,169.9705825146715L118.6233879783444,169.94916440540868L118.68660432321961,169.90121317113244L118.72922886420766,169.86020499997335L118.79244566985591,169.79436839460283L118.83507021084395,169.74856394617433L118.89828747726969,169.6793467119101L118.94091201825773,169.64979557492373L119.00412974545209,169.62806903553766L119.00512221788325,169.6280629983603L119.04675428644013,169.64348023124336L119.10997247441642,169.69964072304455L119.15259701540445,169.74330597810007L119.21581566416265,169.81458169935448L119.25844020515069,169.8598918540448L119.32165931468636,169.92188425436152L119.3642838556744,169.95272467997302L119.42161588568234,169.9830100552727L119.4701279669889,169.99393905110918L119.52746040784372,169.99999991472524L119.63330544073533,170L119.73915093442218,170L119.84499688890867,170L122.38543804245028,170L122.49129551771708,170L122.59715345385001,170L122.70301185085353,170L122.80887070873204,170L122.91473002748116,169.99017498294762L123.02058980710972,169.96465789718278L123.12645004761328,169.92745759057334L123.2323107490007,169.91265864914234L123.23231079893574,169.9126586463708L123.33817191127203,169.92368210935263L123.44403353443165,169.96280962201948L123.54989561848403,169.97629898328583L123.65575845396026,169.99431492277392L123.76162985342349,170L123.86748632471856,170L123.97335025235964,170L124.07921464090234,170L124.18507949034664,170L124.29094480071029,169.99668091037148L124.39681057197555,169.99229485276865L124.50267680416015,169.98882634450993L124.6085434972641,169.9887662614745L124.71441065127851,169.99175103727802L124.82027826622557,169.9955630595599L124.92616381481454,170L125.03203235160915,170L125.13790134933642,170L125.24377080799631,170L129.3730288019994,170L129.47891667293985,170L129.58480503216109,170L129.69069385242577,170L129.79658313373835,169.99534657568017L129.9024728761033,169.98808996983576L130.00836307952503,169.97997450317658L130.1142537439946,169.960064786068L130.22014486952986,169.9557501503778L130.22014489676715,169.95575015003374L130.32603645612187,169.9652415305545L130.43192850377955,169.98135007757585L130.53782103974456,169.9967644874509L130.64372497254777,170L130.74961840341564,170L130.855512295358,170L130.96140664837932,170L137.8455282214176,170L137.95145301147832,170L138.0573782627953,170L138.163303975373,170L138.26923014921582,169.99567493359814L138.37515678431933,169.98940250795985L138.48108388069238,169.98114842165688L138.58701143833503,169.97118400822634L138.69293945725167,169.9569632078749L138.79886793744228,169.93709688252488L138.90479687891576,169.91733002954885L139.01072669930613,169.91591623613488L139.11665656334094,169.9334384668472L139.22258688866302,169.96226007470355L139.3285178432401,169.98995203124812L139.43444909113674,169.99862881998607L139.54038207595158,169.99999991885832L139.64631424644503,170L139.75224687823902,170L139.85817997133807,169.99512384913075L139.9641135257377,169.9909331251473L140.0700475414468,169.98816602483117L140.1759820184698,169.98935664742737L140.28191695680223,169.9936062404597L140.38785857109502,170L140.4937944320597,170L140.59973075435155,170L140.70566753796618,170L142.5066609886587,170L142.61260607656175,170L142.7185516258408,170L142.82449763649137,170L142.93044410852676,169.99386425377065L143.03639104194698,169.99091649060986L143.142338436752,169.99019276271486L143.24828629294186,169.99198208388393L143.35423461052542,169.99502830115256L143.44835113098125,170L143.55430037135218,170L143.6602500731257,170L143.7662002362973,170L144.19000550306254,170L144.2959579732824,170L144.40191090492254,170L144.507864297983,170L144.61381815246375,169.99646598528082L144.7197724683736,169.98251704241096L144.82572724571267,169.9510250198264L144.9316824844809,169.91232537352647L145.0376381846782,169.88543180887274L145.04947289909543,169.88419855124047L145.14359434631805,169.89544635086693L145.24955096939587,169.92969241007506L145.35550805392057,169.9665788953474L145.46146559988333,169.99210196065604L145.5792629202729,169.99999959741598L145.68522138913386,170L145.79118031944614,170L145.89714648876463,170L148.12239352110547,170L148.22836306556948,170L148.33433307154692,170L148.44030353904657,170L148.5462744680641,169.98774033708824L148.65224585860827,169.97402759481048L148.75821771068357,169.9655942642811L148.75821772884177,169.96559426337444L148.86419002428556,169.96954356606892L148.9701627994231,169.98462194199482L149.07613605424993,169.99582149105686L149.18211613506836,169.9999999733341L149.28809029482142,170L149.39406491611442,170L149.50004067534465,170L153.20945869340747,170L153.3154503937059,170L153.42144255564182,170L153.527435179233,170L153.63342826447058,169.99583809956314L153.7394218113678,169.98480941667523L153.84541581991144,169.97831965016957L153.95141029011916,169.97623931371047L153.95141068505987,169.9762393274926L154.05740522198658,169.97425662592357L154.0574053173171,169.97425662551166L154.16340061552697,169.97900518561696L154.26939656605757,169.98205771744583L154.3753931825364,169.97565031565762L154.48138996107355,169.97188954415904L154.48139024252558,169.97188954138724L154.58738748274902,169.98081962109384L154.69338518464102,169.98462303856112L154.79938367960634,169.989664347218L154.90538230486644,169.99248905408663L155.01138139180838,169.99522705790847L155.11738306948936,170L155.22338307981275,170L155.32938355183128,170L155.43538423133467,170L155.5413856267435,170L155.64738748386077,170L155.75338980268202,170L155.8593925832073,169.9944277767229L155.96539582544546,169.97646356958768L156.0713995293921,169.95671292008404L156.177403695056,169.92925079592263L156.28340832244163,169.91840220329775L156.38941341154464,169.9260307918577L156.49541896236934,169.95772976219652L156.60142497492467,169.98090634100942L156.70743170341646,169.99202789543514L156.81343934759818,169.99444843269671L156.81344137677638,169.99444851228895L156.9194467453453,169.99213844707486L157.0254546048275,169.99151433049315L157.13146292604918,169.99284217075652L157.23747170901478,169.99499057625567L157.3706042481754,170L157.47661395463325,170L157.5826241228394,170L157.68863475279838,170L157.873536132715,170L157.9795481479456,170L158.08556062494227,170L158.19157356370945,170L158.29758696423823,169.9957341436657L158.4036008265464,169.99159685966126L158.5096151506207,169.98101868846902L158.61562993647877,169.97607948999328L158.72164518411176,169.97885554644853L158.8276608935286,169.98647136871082L158.9336770647292,169.99479037971705L159.0396950005685,170L159.1457120953501,170L159.25172965191987,170L159.3577476702912,170L159.46376615045963,169.99498302270933L159.56978509242518,169.9915689047659L159.67580449619666,169.98991238894098L159.7818243617786,169.991407380804L159.88784468916205,169.99470867835757L160.0050496641144,170L160.111070915132,170L160.21709262795997,170L160.32311480261166,170L164.88250523219074,170L164.98854772957253,170L165.09459068888881,170L165.20063411015295,170L165.30667799336052,170L165.41272233851586,169.83334880975502L165.5187671456235,169.3897941677691L165.62481241468345,168.35935808824067L165.73085814570445,165.63141516360284L165.8369043386822,160.80912347517562L165.94295099362108,155.52065239165947L166.04899811052553,153.5747640608095L166.0520742947779,153.57225769558215L166.15504568939554,157.91222798098397L166.26109373024,163.11848997311685L166.36714223305444,167.6520112217227L166.4731911978433,169.6374202178747L166.5792406246111,169.9889295006274L166.67411695923087,170L166.78016730996077,170L166.88621812267843,170L166.99226939738378,170L167.416479116158,170L167.52253270085083,170L167.6285867475491,170L167.73464125625284,170L167.84069622696646,170L167.94675165969446,170L168.05280755443675,170L168.1588639111978,170L168.26492072997763,170L168.37097801078954,170L168.47703575362019,170L168.58309404473434,170L168.6891539645401,170L168.79521309347143,170L168.9012726844348,169.99643579334298L169.00733273744348,169.99030083142333L169.1133932524887,169.9778392397663L169.2194542295837,169.9459525776509L169.32551566872408,169.9088147091727L169.43157756991425,169.89115633310178L169.43157772425894,169.8911563097919L169.5376399331587,169.91474208689263L169.6437027584573,169.95436314068755L169.74976621377792,169.9888913308311L169.85583093012656,169.99739801764278L169.85583194698546,169.99739803436282L169.96189514161006,169.99209586523574L170.06795981515666,169.98007603029419L170.17402495077965,169.9701685538073L170.17402533664128,169.9701685508468L170.2800905484746,169.97043262715275L170.3861566082415,169.97897753581745L170.4922231300848,169.98421087292093L170.5982904998706,169.9901089350329L170.70435794587996,169.99203873946615L170.7043585768772,169.99203875777255L170.8104258539702,169.98507332587198L170.91649485514736,169.97634652813227L171.0225636874214,169.96371145136555L171.1286329817852,169.96095148245007L171.12863308165524,169.96095148227434L171.23470273824748,169.97392191659003L171.34077305667842,169.9899025109077L171.44684373734228,169.9960667856028L171.5529286077041,170L171.6590002125784,170L171.76507227956012,170L171.8711448086537,170L177.28145150021896,170L177.38754806285317,170L177.4936450877411,170L177.5997425748872,170L177.7058405242959,169.9964608726576L177.8119389359583,169.98853077932586L177.91803780989213,169.98145006772228L178.02413714609304,169.9782504579929L178.02413715517213,169.97825045795247L178.1302369445698,169.9807257423935L178.236337205318,169.9871451405758L178.3424379283377,169.9933513647938L178.4186418689388,169.9986985909138L178.5247430542388,170L178.63084470181911,170L178.73694681168416,170L181.4195651142042,170L181.52567970675955,170L181.63179476167053,170L181.7079935862004,170L181.81410910347594,169.9979544857191L181.92022508311607,169.9897437319885L182.02634152512073,169.96607157492713L182.13245842949883,169.93007458914542L182.2385757962459,169.89936556683014L182.3446936253708,169.8836298379205L182.37461338741443,169.8797225877284L182.4508119168736,169.89037894552592L182.55693067075865,169.91369260694276L182.66304988702598,169.95072511224308L182.76916956568004,169.9761451259195L182.87528970672082,169.9932712950794L183.01133472135908,170L183.11745624958218,170L183.22357824020972,170L183.3297006932328,170L183.43582360866483,170L183.54194698650574,170L183.6480708267555,169.99577907478127L183.75419512941858,169.99085955543882L183.8603198944994,169.98796023950501L183.96644512199356,169.98910212665206L184.07257081191435,169.99312400954912L184.1787101561855,170L184.28483677095062,170L184.39096384815124,170L184.49709138777848,170L193.51962239820915,170L193.62578971703186,170L193.7319574985206,170L193.83812574267532,170L193.9442944495049,169.99639203437525L194.05046361900935,169.9929536390257L194.15663325118868,169.99003158143188L194.26280334603842,169.98408192911816L194.3689739035808,169.98383103628632L194.4751449238069,169.98651278254073L194.5813167381038,169.9911278013933L194.58131727377054,169.99112782964005L194.68748868370628,169.98359960779004L194.79366158226813,169.97877092575314L194.8522755210726,169.9766609585778L194.89983445326024,169.97214450051396L194.89983449865574,169.97214449753181L194.95844839206472,169.97270207974702L195.0060077869405,169.97014231544867L195.06462172574498,169.96804812612572L195.1121815833311,169.96324791322454L195.1121821053792,169.96324792135334L195.1707955221356,169.94978223781797L195.21835636447128,169.93334559093782L195.27696978122765,169.91450943968164L195.32453108626478,169.89928206181406L195.3831445030212,169.88587934885766L195.4307062707687,169.8839658117482L195.4307066838676,169.88396580361908L195.4893196875251,169.8850208950387L195.53688191798736,169.89129717757095L195.59549533474373,169.90508780779427L195.6430580279163,169.9199176793438L195.70167144467274,169.9412333180429L195.74923478214646,169.9574747775536L195.80784801732094,169.976492323536L195.85541204903527,169.98624908072296L195.9615978272585,169.9963259069534L196.06777578806876,169.99999976172086L196.1739542116159,170L196.28013309788227,170L196.38631933338527,170L201.58966745189514,170L201.69586994097259,170L201.80207289291997,170L201.9082763077417,170L202.01448018543778,169.99610414889372L202.12068452600823,169.99216601878084L202.22688932946636,169.98910153294094L202.3330945958033,169.98887066033092L202.43930032502786,169.99186880658885L202.54550651714453,169.99611482706075L202.65173711372375,170L202.75794423162463,170L202.86415181242205,170L202.97035985612038,170L207.21904415744893,170L207.32527118234322,170L207.4314986702493,170L207.53772662118052,170L207.64395503511906,169.99348216346615L207.7501839120827,169.99032737642077L207.8564132520714,169.98566119885578L207.96264305508524,169.984010747441L208.06887332112413,169.98945150669965L208.06887416548017,169.98945150894872L208.17510436796542,169.9870323018118L208.17510486731575,169.98703230338614L208.28133556007222,169.9789214615997L208.3875677145722,169.9654338624288L208.4917972756995,169.94987946882634L208.49379983275583,169.94954175784216L208.5980293938831,169.97079245004986L208.70426197510952,169.98656394899072L208.8104950193832,169.9997504425271L208.9187423509644,170L209.02497678438428,170L209.13121168086474,170L215.39989027849046,170L215.5061529632369,170L215.6124161112035,170L215.71867972239025,170L215.8249437968016,169.99436326465798L215.93120833444192,169.98992214864884L216.0374733353113,169.98786946811222L216.14373879941408,169.98967284110887L216.25000472675922,169.99379667230968L216.3562774999387,170L216.462544353764,170L216.56881167082278,170L216.67507945113718,170L220.50102808744737,170L220.60731300977997,170L220.71359839546574,170L220.8198842445046,170L220.92617055689664,169.9940566706347L221.03245733264626,169.9890176655984L221.13874457175345,169.98551001357947L221.13874494399644,169.9855100170783L221.2450322742271,169.97591922293304L221.35132044006716,169.9694495054021L221.45760906926927,169.96458814982904L221.4576094415122,169.9645881199403L221.56389853408962,169.969736629284L221.63846151866306,169.97859232841466L221.74475107461134,169.98834928501643L221.85104109393492,169.99459560046014L221.95347784488317,169.99937132171615L222.05976879097068,170L222.16606020043793,170L222.27235207329377,170L223.6897812702205,170L223.79608009420252,170L223.90237938161746,170L224.0086791324609,170L224.11497934674176,169.99555487245604L224.22128002446,169.99277782747842L224.32758116562,169.9914853508816L224.43388277022183,169.99229338442936L224.5401848382699,169.99476810359562L224.7282948883003,170L224.83459788325413,170L224.94090134165867,170L225.04720526351386,170L243.3272756222066,170L243.43365976267336,170L243.54004436706515,170L243.64642943538635,170L243.7528149676459,169.98957601923902L243.76089191282333,169.98555805532212" style="stroke: #ff7f0e;"></path></g><g class="filename"><path class="profile line" d="M3.1195540435883276,170L3.1836829021323974,170L3.2890149083614206,170L3.3943473724065805,170L3.4996802942767427,170L3.605013673967474,170L3.7103490095386786,170L3.8156830506691266,170L3.921017803848165,170L4.026353014856638,170L4.1316886837034135,170L4.18862448141957,169.99729333544886L4.237024810388491,169.9949924350284L4.293961065947383,169.98741620763795L4.342361394916304,169.9809758071784L4.399298108326796,169.9718063847569L4.447698437295719,169.9640117040555L4.504635608544512,169.9536441422728L4.553035937513434,169.94365878609867L4.609973566618263,169.94023344411772L4.658373895587185,169.93125923116065L4.7153119825347485,169.92882689207042L4.763712370517802,169.926296180642L4.763712565718391,169.92629616946087L4.820650856311701,169.93133866612303L4.869051248834303,169.9358727787164L4.9259901879535555,169.93336374735415L4.97439073482081,169.94185692523874L5.031329977447011,169.95102746607327L5.0797305606306535,169.96361649793744L5.1366702248098,169.97299209801895L5.185071021352226,169.979932118572L5.242010930028623,169.98809653248153L5.290412044339453,169.9911623084131L5.347352093121214,169.99476894916057L5.395753207432043,169.9967443483443L5.452693714092005,169.99906826654203L5.501094828402834,169.9993615863614L5.606436907238526,169.999999979092L5.7117820814301545,170L5.81712507602668,170L5.922468528501406,170L6.027811362985746,170L6.133155731230172,170L6.238500557366097,170L6.343845841393524,170L6.449191583316882,170L6.554537783136173,170L6.659884440860263,170L6.765231556480286,170L6.870579130009541,170L6.975927688035666,170L7.08127617738782,170L7.186625124649205,170L7.291974529828689,170L7.397324392926272,170L7.502675158817717,170L7.608025937760363,170L7.713377174629975,170L7.818728869430984,170L7.924081126564144,170L8.029434522578724,170L8.13478759117836,170L8.240141117722693,170L8.345495102207293,170L8.45084954463659,170L8.556204445015018,170L8.661559803347007,170L8.766916091741184,170L8.872272365980304,170L8.977629098177418,170L9.082986288336965,170L9.188344354101845,170L9.293702460190685,170L9.399061024246388,170L9.50442004627782,170L9.608568272578857,169.9304102747707L9.713928210557315,169.90164927994022L9.7151399182183,169.9013240122279L9.8191765681956,169.9987703597091L9.82050031418579,169.9995219557973L9.922018372146505,169.9266905695864L10.027379684074317,169.37139222656398L10.13274145399116,168.48346567165177L10.238103681897032,167.42937608388468L10.343466367800799,166.84005028721933L10.448829511698028,161.93915358128294L10.55003053137935,142.8873634042921L10.655394591276805,100.95122313787336L10.760759109176586,50.601380341222864L10.866124085083129,17.04375038176778L10.873643277624451,15.454545454545467L10.971489518996433,40.26297175265404L11.076855410925367,89.61805662480164L11.182221760869927,135.30246252152745L11.287588568825685,160.20138556326015L11.392955834805933,168.83892478174297L11.498323558806245,169.98490563051308L11.611699969863874,170L11.717068609917607,170L11.822437708000267,170L11.927807264120721,170L12.033177278274536,170L12.138547750461713,170L12.243918680691117,170L12.349290068967179,170L12.4546619152899,170L12.560034219663715,170L12.66540702294013,170L12.770780624733781,170L12.876154303269743,170L12.981528439861231,170L13.086903120768536,170L13.192278532108716,170L13.297654042893383,170L13.403030011751309,170L13.508406538552562,170L13.613783423557004,170L13.71916076663914,170L13.824538567803401,170L13.929917249227806,170L14.035296316105994,169.98076283313125L14.14067549152993,169.9934383845147L14.246055125040424,169.9996762931096L14.351435361916332,169.99999999863343L14.456815911622108,170L14.562196919423311,170L14.66757882112547,170L14.77296075421435,170L14.878343136328427,170L14.983726702883434,170L15.089110001223826,170L15.194493757681807,170L15.299877972252943,170L15.405262644946104,170L15.510647834779855,170L15.616033646159378,170L15.72141969322748,170L15.8268061984309,170L15.932194028823426,170L16.03758145029306,170L16.142969329902456,170L16.24835766766047,170L16.353746463558238,169.99606370288956L16.45913571760463,169.97499486574654L16.564525429795214,169.96280312247748L16.669915654617867,169.9504640711758L16.77530660543138,169.9493641713726L16.77530663720822,169.94936417104097L16.880697692089996,169.95600084676792L16.880698300389508,169.9560008724134L16.986089236910534,169.95222108264832L17.0914812716654,169.94675256919672L17.091481848188074,169.94675252235507L17.196874105061635,169.94675895776848L17.19687430934132,169.9467589561917L17.30226702438124,169.96245399507688L17.407660401867197,169.9889358497273L17.51305423753281,169.99723518787923L17.618448885454004,169.99999923478842L17.723843714646822,170L17.82923906102899,170L17.93463516067034,170L18.04003128723866,170L18.14542787199993,170L18.250825927273496,170L18.35622342842068,170L18.46162138776525,170L18.56701980531164,170L18.672418681055415,169.9968081499091L18.777818015014315,169.99227540216202L18.883217807175033,169.977363991119L18.988618057546436,169.9718498712992L18.988618307221607,169.97184986559338L19.09401876613296,169.97351807222273L19.199419932934607,169.97832809118657L19.19942018260978,169.97832808840033L19.304821807630976,169.98299850947012L19.410223890876157,169.99056114079647L19.41022444470109,169.99056116630553L19.5156264323409,169.99049668667652L19.62102998585898,169.98966308926063L19.726433443780557,169.99063756265795L19.831837359934983,169.9932916977491L19.937241734326697,169.99644312921419L20.04268314209876,170L20.148088432965043,170L20.253494182077482,170L20.358900389431636,170L28.687412782230943,170L28.792855657828806,170L28.89829899188118,170L29.003742784401364,170L29.109187035384927,169.99446568029728L29.214631744836296,169.99042157050857L29.320076912759905,169.98897391398256L29.425522539155764,169.99150540058403L29.53096862403273,169.99583546817135L29.63644954538791,170L29.74189654722266,170L29.847344007542954,170L29.952791926353218,170L40.077905026896,170L40.1833974315935,170L40.28889029504254,170L40.394383617243115,170L40.49987739819522,169.99562840748183L40.605371637898855,169.99331438666152L40.71086633636732,169.99294831703835L40.81636149359175,169.99483099162433L40.92185710958544,169.99760943956426L41.02736160974616,170L41.13285814327396,170L41.238355135571005,170L41.34385258664176,170L47.8855906503018,170L47.991117009528345,170L48.09664382768819,170L48.202171104799056,170L48.30769884086537,169.99744112910489L48.413227035878286,169.99502235904365L48.51875568985108,169.99349666029372L48.62428480278378,169.99380873923187L48.72981437466749,169.99565791327473L48.835360629866656,170L48.940891119687876,170L49.046422068473426,170L49.151953476232165,170L51.26266543129672,170L51.3682064780643,170L51.47374798386271,170L51.57928994869193,170L51.68483237256527,169.99813475570133L51.790375255465,169.99472575626655L51.895918597413285,169.99186201716645L52.00146239840125,169.99162817709023L52.10700665843335,169.9938493360428L52.212551377518416,169.99665730606606L52.31809744086402,169.99999907437976L52.42364307805063,170L52.529189174294665,169.99720411629457L52.63473572960055,169.99368090953243L52.74028274396385,169.99138240841032L52.84583021739344,169.99162376743962L52.951378149889315,169.9940044880459L53.056935902005115,170L53.16247656329676,170L53.26802587301365,170L53.37357564180127,170L53.47912586967289,170L53.58467655662854,169.99696581697577L53.69022770266821,169.9951577734344L53.79577930780076,169.99349837179406L53.90133137201733,169.99291835597947L54.00688389533122,169.99416120104343L54.11243687774242,169.99662686523348L54.21801688015423,170L54.323570780760065,170L54.42912514047652,170L54.534679959299154,170L60.86879090193696,170L60.974373731321634,170L61.07995701998094,170L61.185540767914894,170L61.291124975123495,169.9902556991317L61.396709641615594,169.9816650241618L61.50229476739121,169.97768399310257L61.50229484910309,169.97768399283802L61.6078803524459,169.9813124335916L61.713466396792974,169.98929454766807L61.8190529821443,169.99629143680505L61.924662783545116,170L62.03025020576931,170L62.135838087299184,170L62.24142642812587,170L63.0861291620822,170L63.19172163674419,170L63.2973145707296,170L63.402907964047266,170L63.50850181670609,169.9945934944353L63.61409612869273,169.99122959134857L63.719690900020524,169.98967564500612L63.71969093179737,169.98967564492415L63.82528613068947,169.99112747798517L63.93088182069955,169.99444937307078L64.03648076188645,169.9998290842506L64.14207737059212,170L64.24767443865221,170L64.35327196606676,170L65.51487486337983,170L65.62047790326486,170L65.72608140253097,170L65.83168536119139,170L65.93728977925058,169.9952288407755L66.0428946567041,169.9929700902289L66.14849999356085,169.98985750487583L66.14850021599874,169.9898575036945L66.25410578981192,169.99022307230288L66.35971204547506,169.9933280764427L66.46531898298817,169.99680668398216L66.5709261574666,169.998668145674L66.6765519177791,169.99999999627937L66.78216001108608,170L66.88776885888468,170L66.99337787103798,170L78.08487620313932,170L78.19053392906453,170L78.29619211469881,170L78.4018507600422,170L78.50750986509466,169.99611930129913L78.61316942986511,169.9941854423005L78.71882945434906,169.9931947690498L78.82448993855985,169.99385166974966L78.93015088248416,169.9958842782233L79.0358130306257,170L79.1414748940081,170L79.24713721712175,169.99610019310143L79.3527999999711,169.9945192108148L79.45846324255169,169.99420149280598L79.56412694487241,169.99518260460553L79.66979110693327,169.99690762942436L79.7754564868433,169.99999997954072L79.77545718593377,169.99999998335102L79.88112156839769,169.9974835639911L79.98678710970108,169.9947763764262L80.09245311074903,169.99263261615494L80.19811957155927,169.99286558664136L80.30378649212737,169.99534887963082L80.40945387244888,169.99811640118656L80.40945457153937,169.99811641364792L80.51512241163205,169.99696608222823L80.62079071148258,169.99405840722622L80.72645947110426,169.99173944537134L80.83212869049268,169.99116365237242L80.93779836966111,169.99433259038693L81.04346850860071,169.99940514143952L81.14913992897863,170L81.25481098747827,170L81.36048250576678,169.99534204573916L81.46615448383533,169.99330550162207L81.57182692169721,169.99256897060127L81.67749981934797,169.9935664737071L81.78317317679648,169.99586138921293L81.88884853294974,170L81.99452280998932,170L82.10019754683998,170L82.20587264815786,170L82.31154830461733,170L82.41722442088783,170L82.52290099697385,170L82.62857803287534,170L82.73425552859231,169.9975662836056L82.83993348412922,169.9915029241296L82.94561189949489,169.9835557032163L83.05129077468494,169.96954520560217L83.15697010970376,169.96551823048515L83.26264999988635,169.96548358191401L83.26265004982137,169.96548358189767L83.36833030450666,169.97735538945906L83.4740112641652,169.98628310573832L83.57969243852578,169.99492401062946L83.68537407273288,169.99802734161173L83.79105646185717,169.99999991798012L83.89674341004034,170L84.00242642378701,170L84.10810989739348,170L84.21379388078596,170L86.11618229097857,170L86.2218749622026,170L86.32756809333964,170L86.43326168439413,170L86.53895573535719,170L86.64465024624215,170L86.75034521704457,170L86.85604064776886,170L86.96173653841947,170L87.06743386953889,170L87.17313068004657,170L87.27882795048943,170L87.38452568086747,170L87.49022387118514,170L87.5959225214424,170L87.70162163164373,170L87.80732120179353,170L87.91302125458957,170L88.01872205786519,169.86356671014L88.01872208964204,169.8635666737569L88.12442300787374,169.98025698512575L88.22958916873898,169.99990001986941L88.33529103866223,170L88.44099336854727,169.85564831557792L88.54669615839408,169.24093597391376L88.65239940821598,168.7437043066371L88.74678955511496,166.54265489270216L88.85249372487816,158.75495621708268L88.958198354612,137.69606691092915L89.0639034443298,111.09869346242182L89.1696089940271,87.67712458815458L89.18659998422784,85.2080194187706L89.27531500371279,94.28715392989793L89.38102147338242,120.49040164564629L89.48672840304043,146.80526375091515L89.59243579268684,162.9141389855737L89.69814364233491,168.98631917188465L89.8038519519758,169.97752115748784L89.92141244345441,170L90.02712167309868,170L90.13283136275348,170L90.23854151240995,170L90.34425212207698,170L90.44996319176342,170L90.5556747214604,170L90.6613867111768,170L90.76709916091706,170L90.87281207068115,170L90.97852546316685,170L91.0842397333237,170L91.18995402317263,170L91.29566877306316,170L91.40138402384231,170L91.50710004788746,169.97639440844566L91.61281617789385,169.980794608911L91.71853276794624,169.99978312076308L91.71853288143495,169.99978312099591L91.82424989522141,169.99349269054727L91.82425015397567,169.99349267515066L91.92996766412453,169.99379189640783L92.03568583860793,169.99999984725534L92.14140426886655,170L92.24712319096132,170L92.35284282279498,169.99316363399186L92.35284287726957,169.99316363046944L92.4585626332404,169.99437035464274L92.56428290374954,169.997145356717L92.55851408661793,169.99699393368243L92.66423527726788,169.9998442248728L92.76995692799929,170L92.87567903880333,170L92.98716893606195,170L93.09289192004637,170L93.19861495101337,170L93.29857208285195,170L93.40429649408553,170L93.51002136540946,170L93.61574669683259,170L93.7214724883505,169.99909535703196L93.82719873997206,169.99330060527794L93.93292545169726,169.97761858507647L94.03865262353496,169.94927899606526L94.14438025547632,169.92223464249108L94.25010834753017,169.90931849484687L94.25587192315889,169.90892379252725L94.35583689970098,169.92424953938942L94.46156591198871,169.95189688435997L94.56729538439784,169.9763408123217L94.67302531692391,169.9818329224269L94.78451735684946,169.98275578255362L94.89024813082786,169.97712556468116L94.9959789836144,169.97250156172532L95.10171029652675,169.9776724032747L95.20744206957822,169.98845078191135L95.31317430275993,169.99196332557133L95.41890738648635,169.98419167043636L95.52464053995072,169.9780926014442L95.52464073061176,169.97809259044615L95.63037415355862,169.9824327929227L95.73610841797552,169.99550987195582L95.84184327418733,169.99999956109167L95.94757826824357,170L96.05331372245666,170L96.15905990528998,170L96.26479627981674,170L96.37053311451366,170L96.47627040937186,170L96.5819994166856,170L96.68773763188406,170L96.79347630725711,170L96.89921544280031,170L97.00495503852693,169.99737960822205L97.11069509443699,169.99495068823725L97.21643561053051,169.99355716655904L97.2164359101407,169.99355716701913L97.32217658680744,169.9915721905013L97.42791802327669,169.9912287292392L97.53365991993824,169.99223005684163L97.63940257640675,169.99588386619217L97.7451453934618,169.99785342668076L97.83691138014848,170L97.94265511760585,170L98.04839931526885,170L98.15414397313744,170L104.7251973978479,170L104.83097105422881,170L104.9367451709838,170L105.04251974812613,170L105.14829478564698,169.99424136303662L105.25407028355963,169.98331471244893L105.3598462418552,169.97381914262994L105.46562266055143,169.96407915840467L105.57139953963504,169.97463425263138L105.67717687912375,169.98586651854825L105.7829547471019,169.99839664676597L105.88873441011687,170L105.99451313080758,170L106.10029231191666,170L106.20607195343085,170L106.311852055359,170L106.41763261770555,170L106.5234136404705,170L106.6291951236627,169.99578153832297L106.7349770672733,169.99266662934082L106.84075947131116,169.99159065209946L106.94654233578073,169.99356075967177L107.05232566068642,169.9967167723412L107.15811138441107,170L107.26389563018459,170L107.3696803364031,170L107.47546550305775,170L107.89861077418836,170L108.00439824309902,170L108.11018617247682,170L108.21597456231738,170L108.32176341262064,169.99780938019902L108.42755272338665,169.99401909692375L108.53334249463312,169.9903253626231L108.63913272634674,169.98441198250222L108.74492341853197,169.98899692399124L108.85071457120208,169.9898341105757L108.95650618434823,169.99014624909515L108.95650667915902,169.99014624642643L109.06229875278561,169.99084583773515L109.16809128690598,169.99123207605675L109.27388428151124,169.99324807755664L109.37967773660583,169.99602597147907L109.48547286425809,170L109.59126724034462,170L109.69706207693379,170L109.80285737402558,170L109.90865313162,170L110.01444934972149,169.9967300716445L110.12024602833445,169.99479752106708L110.22604316745891,169.99393552173296L110.33184076709931,169.99474470502025L110.43763882725563,169.996552599209L110.54346962867128,170L110.6492686098683,170L110.755068051599,170L110.86086795385893,170L111.8130579009586,170L111.91886240865263,170L112.02466737690249,170L112.13047280571706,170L112.23627869509629,169.9962331895943L112.34208504504024,169.98943616808504L112.44789185555331,169.98567034303593L112.44789194634427,169.98567034214793L112.5536991266355,169.9859748603528L112.65950685829566,169.99015265618127L112.76531514132036,169.99677389654892L112.87113009502998,170L112.97693920842856,170L113.08274878240957,170L113.18855881697742,170L117.63299610152481,170L117.7388259438943,170L117.84465624697035,170L117.95048701075295,170L118.05631823524652,169.9920774727865L118.1621499204511,169.98454656712815L118.26798206637551,169.9771513504501L118.37381467301978,169.96838222947386L118.47964774038391,169.96431538321872L118.47964785387262,169.96431538020494L118.58548126846787,169.96686890853903L118.69131537076929,169.97982726052257L118.79714982031513,169.99055476720636L118.90298473059413,169.99873851461126L119.00882106398613,169.99999998566207L119.11465689573586,169.9961942200926L119.22049318821874,169.9939172499676L119.32632994145251,169.99281138778528L119.43216715542829,169.99350832075473L119.53800483015051,169.9955509352775L119.62984237356001,169.99941142073703L119.73568096978401,170L119.84152002677219,170L119.94735954451569,170L120.05319952301893,169.99127425733516L120.15903996228636,169.96562370834255L120.26488086232682,169.93189424045931L120.37072222312706,169.9018922340007L120.38472400455684,169.89888695347383L120.47656404470476,169.9051167308416L120.58240632705996,169.9344524531378L120.6882490701882,169.9674389146642L120.79409227409835,169.98953018569426L120.91394107040706,169.99911607882464L121.01978519588992,170L121.12562978215469,170L121.23147482921468,170L122.9250582518841,170L123.03091113279521,170L123.13676447455032,170L123.24261827714054,170L123.34847254057917,169.9984391885348L123.45432726486177,169.99432458194366L123.56018244999723,169.99078510339675L123.66603809598553,169.9893306012759L123.66603823671153,169.9893306006347L123.77189420282667,169.99065321179262L123.87775091125553,169.99467870558823L123.98360793981567,169.99617442308522L124.0894659785229,169.99715392100177L124.08946632806814,169.9971539216567L124.1953239288109,169.99118146176696L124.30118233996947,169.98564849528296L124.40704121199862,169.97172144941408L124.51290054490279,169.95535665517437L124.6187606882272,169.9477251341038L124.61876076085998,169.94772513374056L124.72462094288582,169.95438990641236L124.83048165842388,169.9757651038779L124.93634283485025,169.98706586732203L125.04220464466778,169.99688378503765L125.14808307162268,169.9999999877132L125.2539456307184,170L125.3598086507069,170L125.46567254923546,170L139.3377740770385,170L139.4436984199448,170L139.54962322410296,170L139.65554848951737,170L139.76147421619248,169.99562326144783L139.86740040413272,169.98938197082813L139.97332705333366,169.9853483003589L140.0792541637997,169.97701246113417L140.18518173554423,169.96786322763487L140.291110022773,169.96631488171238L140.29111064469114,169.96631489601913L140.39703851706105,169.96041880103056L140.39703872588026,169.96041878289574L140.50296747262308,169.97196030416046L140.60889705289176,169.9828022902928L140.71482697641943,169.98922882340926L140.82075772892898,169.99100289392564L140.92668852963578,169.99234731919844L141.03261979162988,169.99568188177585L141.13855244098804,169.99999931285214L141.24448462557442,170L141.35041727146145,170L141.45635037864903,170L141.56228394714165,169.99674609735396L141.66821797694377,169.99575510435025L141.77415246805086,169.99633638620224L141.88008742047631,169.99787365877137L141.9860258938714,170L142.09196176892465,170L142.19789810530506,170L142.30383490300824,170L143.8929422291801,170L143.99888640842428,170L144.10483104903554,170L144.21077615102274,170L144.31672171437702,169.9979279000113L144.42266773911174,169.99190541849055L144.52861422522685,169.98865925307257L144.5286142706223,169.9886592525031L144.6345611727223,169.98911996074685L144.74050858161146,169.99276239595338L144.8464564972765,169.9977092314643L144.9524068444949,169.9999999981353L145.0583556375474,170L145.16430489200246,170L145.27025469410265,170L145.8000101081688,170L145.90596259246394,170L146.01191553817492,170L146.11786894531062,170L146.22382281387104,169.99214255900483L146.32977714385177,169.98482314426403L146.43573193526163,169.97857903687864L146.54168718810064,169.97686238161384L146.5416872198775,169.976862381522L146.6476429023733,169.98136784262132L146.75359907808834,169.98971762750762L146.859555801484,169.9979810024386L146.96551674961674,169.99999984918392L147.07147430965034,170L147.17743233113077,170L147.28339873103533,170L149.5086255551854,170L149.6145941906802,170L149.7205632876884,170L149.82653284621438,170L149.93250286624934,169.99546565579448L150.03847334780656,169.9932556657079L150.14444429088599,169.9924493898952L150.25041569549657,169.99298337338598L150.35638756162498,169.99445006573998L150.46235988928893,169.99656343621228L150.56833891127536,170L150.6743121620104,170L150.78028587427656,170L150.88626004808273,170L154.27767622082334,170L154.38366562697843,170L154.4896554947577,170L154.5956458241745,170L154.70163661522884,169.99720699695493L154.8076278679251,169.9954432341598L154.91361958226332,169.99419177881046L155.01961175823905,169.9887722535525L155.12560439587003,169.9870614503422L155.1256045910706,169.98706144960954L155.23159749515182,169.99233315886698L155.337591251285,169.99616106623702L155.44358592756785,169.99947347525833L155.4604343396262,169.99956978822607L155.54958041181538,169.99729350902956L155.6555753577226,169.99330812942094L155.76157076529392,169.98672928660386L155.8675666345338,169.98690042781186L155.9735629654422,169.98272972685717L155.97356321511737,169.98272971747292L156.07955975801917,169.98485760678318L156.18555726195316,169.98689361900313L156.29155497788494,169.98814987035786L156.3975535141229,169.9917064525808L156.50355215341395,169.99481058798003L156.6095512543957,169.99745836924149L156.73415636127748,169.9999468411727L156.82155205348198,170L156.9275525395314,170L157.0335534872849,170L157.1395548967335,170L157.24555676787728,169.9941127712969L157.3515591007339,169.98812854359434L157.45756189529013,169.98042719222704L157.5635651515592,169.97479133757608L157.5635652650479,169.9747913338881L157.66956886953673,169.9816249346752L157.77557316272473,169.98979619108215L157.81963547862424,169.99298469433052L157.88157793124867,169.9961350770418L157.9256401200408,169.99754188400487L157.98758303437816,169.99890054520378L158.03164522317027,169.99935753210514L158.09359129119056,170L158.13765078803038,170L158.19959731776794,170L158.3056038060804,170L158.41161075612342,170L159.5777176815841,170L159.68373017260726,170L159.78974312539205,170L159.89575653994737,170L160.00177041627316,169.9969142000748L160.10778475437837,169.99497049562436L160.21379955425408,169.99409708032928L160.31981481591356,169.99516145708137L160.42583053934803,169.99738671256304L160.5324869870447,170L160.63850363405564,170L160.7445207428592,170L160.8505383134511,170L166.1520056879478,170L166.25804681352142,170L166.36408840102956,170L166.4075076353954,170L166.47013045046785,170L166.51354968483366,170L166.57617296184506,170L166.6195921962109,169.99837007194088L166.68221593516128,169.9960192200485L166.7256351695271,169.9720962168042L166.78825937042086,169.92724468705717L166.8316786047867,169.8550266888484L166.8943032676283,169.67613635214994L166.93772250199413,169.51970223435464L167.00034762677916,169.191254154831L167.04376686114497,168.76845954351072L167.10639244788666,167.91881148364322L167.1498116822525,166.78854461136925L167.21243773094648,164.53222561212635L167.25585696531232,162.59504899913503L167.31848347595854,159.516655611647L167.3619027103244,157.36700058916523L167.42452968293176,154.3546002091498L167.45425087933435,153.48344187117434L167.4679489172976,153.48687133523427L167.5305763518705,153.80225470657348L167.57399558623638,155.27892946551313L167.636623482766,158.5435620421884L167.68004271713184,160.78482553600898L167.74267107563148,163.94476549309832L167.7860903099973,165.8014698676793L167.84871913046695,168.01526675715664L167.8921383648328,168.9724075211373L167.95476764727687,169.72338617808185L167.9981868816427,169.94953193563083L168.06018577861101,169.99595493685246L168.16623521937424,170L168.27228512211187,170L168.37833548683724,170L168.48438631355037,170L168.59043760224677,170L168.69648935293978,170L168.80254156562052,170L168.9085942403023,170L169.01464737698066,170L169.12070097566007,170L169.22675503634937,170L169.33281000391992,170L169.43886498862014,170L169.54492043533915,170L169.65097634406803,170L169.757032742053,169.99413917764514L169.7570330144259,169.99413916259337L169.8630898471968,169.9956198987072L169.9691472827124,169.99999988732665L170.0752050395341,170L170.18126412089325,170L170.28732280177465,169.99740808498112L170.3933819446881,169.98898592447077L170.49944154963802,169.97626104662504L170.6055016166289,169.95543348618216L170.7115621456563,169.94122286112284L170.7115623590151,169.9412228567698L170.81762313673346,169.94299567367858L170.92368458986044,169.95144695507656L171.02974671839155,169.9680160475293L171.13580909561813,169.98176816382463L171.24187193489894,169.9963741586963L171.34793579914242,169.99999998032473L171.34793611691083,169.99999999118762L171.45399956254496,169.9976025299618L171.56006378801064,169.9921540080658L171.66612847553938,169.9872974355316L171.6661287933078,169.98729742098158L171.7721939429085,169.99139632473023L171.8782595545812,169.99450985753467L171.98432562833028,169.99727457382716L171.9843264000535,169.99727459365448L172.09039262264568,169.99709731577656L172.09040507008797,169.99709739239518L172.19645962054759,169.9950468381707L172.3025270805347,169.99295657220452L172.40859531583592,169.99204297603424L172.51466369998917,169.99340780643917L172.62073254624093,169.99644674481632L172.72681407050771,169.99999999300556L172.83288404976255,170L172.93895428229672,170L173.0450249769339,170L182.06272186000015,170L182.16883230538085,170L182.274943213095,170L182.38105458315601,170L182.4871664155461,169.99546955943381L182.593278710283,169.99211601350365L182.69939146736672,169.99095401203442L182.80550468679726,169.9927045620239L182.91161836857464,169.99580356437502L183.01773361128286,169.99999999533244L183.1238482177716,170L183.22996328662043,170L183.33607881783828,170L183.4421948114118,169.98990566331716L183.54831126735434,169.97025464441754L183.6544281856658,169.92845102330716L183.76054556635071,169.8864603783099L183.86666340940903,169.88218333582023L183.8666635092791,169.88218333371128L183.97278171484962,169.91487678697015L184.0789004826681,169.95317486518863L184.1850198308971,169.98111132519148L184.29113973229934,169.9888837688805L184.38518168839525,169.99069376684446L184.3972598872824,169.9908553415195L184.49130184337827,169.9901874063948L184.50338102669136,169.9901016154139L184.58479908373448,169.99334819361368L184.6909201634998,169.99652688276376L184.7970417056563,169.99937629909704L184.90316371021282,170L185.03400669277167,170L185.14013008454154,170L186.73202383185924,170L186.83815462250814,170L186.94428587561467,170L187.05041759117444,170L187.15654976919626,169.99631489038086L187.26268240967576,169.99404067405297L187.36881551261735,169.99353626353493L187.47494907802982,169.99534852902698L187.58108310590885,169.99801086251034L187.6872275878053,170L187.79336254063065,170L187.89949795594023,170L188.0056338337208,170L190.2345878946609,170L190.34073394768006,170L190.44688046324106,170L190.55302744134394,170L190.6591748819976,169.99856992383474L190.76532278519753,169.99674464304002L190.87147115095266,169.99590525765367L190.97761997926293,169.99670684269833L191.0837692701284,169.99819704699001L191.18992522004177,170L191.29607543602646,170L191.40222611458407,170L191.50837725571458,170L195.8609723056501,170L195.96714287708156,170L196.07331391119232,170L196.17948540799122,170L196.28565736748718,169.99507715746407L196.39182978966687,169.9818058148873L196.49800267454805,169.95501522538382L196.6041760221218,169.9277309601138L196.7103498323926,169.9270565829025L196.81652410537373,169.9457498652343L196.92269884105633,169.97037001382589L197.02887408030526,169.98892710482178L197.13504980042265,169.99834388499136L197.20790614623976,169.99961225042915L197.3140822700578,170L197.4202588565862,170L197.52643590583824,170L198.51537808569037,170L198.62156022502654,170L198.72774282711737,170L198.83392589196285,170L198.94010941956745,169.9972996391186L199.0462934099267,169.99497292390197L199.1524778630495,169.99395573911897L199.2586627789314,169.99514212427806L199.36484815759016,169.99756200669918L199.47105833099735,170L199.57724463519202,170L199.68343140216797,170L199.78961863192075,170L209.24212296368134,170L209.3483518544853,170L209.45458120831432,170L209.56081102516399,170L209.66704130504763,169.99348765317754L209.77327204796077,169.98656268728385L209.87950325391236,169.97890868380247L209.98573492289344,169.97492738621824L209.9857350863172,169.97492738225813L210.09196705491735,169.97938617802782L210.19819981340783,169.9892843165592L210.30443287151294,169.99584604366336L210.41068067862918,170L210.51691466283768,170L210.62314911009787,170L210.72938402040975,170L221.2489311340382,170L221.3552123634746,170L221.46149405623757,170L221.5677762123315,170L221.67405883176087,169.99661880307505L221.7803419145212,169.99540765565465L221.8866254606214,169.99501862638138L221.9929094700614,169.9952050735256L222.0991939428501,169.9957457210843L222.20547987767938,170L222.3117652771611,170L222.41805113999152,170L222.52433746617513,170L222.63062425571624,169.99674767362964L222.73691150861941,169.9908001494231L222.8431992248846,169.98440615947987L222.94948740451176,169.99047278692538L223.0557760475054,169.9937638832762L223.1620651538699,169.9947409205161L223.26835530467193,169.99498565908988L223.26836900956914,169.99498583860398L223.37464533778706,169.9936087451127L223.48093583428192,169.99453292646015L223.4809362428413,169.99453293629713L223.58722679415652,169.9917778586489L223.69351862597466,169.99025236842778L223.77967031547786,169.99098435396132L223.79981051261763,169.99085115132573L223.88596220212082,169.99271294489463L223.9922545521524,169.9959218642276L224.09854736558142,169.99808691403064L224.20722152669467,170L224.3135152669098,170L224.41980947052684,170L224.5261041375458,170L230.81610797106853,170L230.9224309107375,170L231.0287543139857,170L231.13507818079987,170L231.24140251119323,169.9967239274275L231.3477273051614,169.9937587545417L231.4540525627133,169.99182519914984L231.5603782838444,169.99205634107574L231.66670446856355,169.99385034633548L231.77303111687084,169.99598099212008L232.0003843239905,170L232.10671189948283,170L232.21303993857217,170L232.31936844125846,170L235.60110426751572,170L235.70744807049343,170L235.81379233716123,170L235.9201370675235,170L236.02648226158473,169.99643756712643L236.13282791934046,169.9942966246606L236.23917404079953,169.9938003875946L236.34552062596194,169.99514107823305L236.4518676748322,169.9972250827503L236.5582253923199,170L236.6645733686146,170L236.77092180862152,170L236.8772707123451,170L244.6419933685022,170L244.72334596071497,170L244.76300421992227,170L244.82118053610316,170L244.86938744625513,170L244.92756422636106,170L244.97577113651303,170L245.03394838053512,170L245.0821552906871,169.9990164839775L245.1403329986342,169.99510442359565L245.18853990878617,169.98049359700192L245.24671808066716,169.93769322315674L245.29492499081914,169.86879888478785L245.3206689346197,169.82223369808213" style="stroke: #2ca02c;"></path></g></g></svg>
