<svg width="300" height="220"><g transform="translate(40,10)"><g class="x axis" transform="translate(0,170)"><g class="tick" transform="translate(69.52741517536299,0)" style="opacity: 1;"><line y2="6" x2="0"></line><text y="9" x="0" dy=".71em" style="text-anchor: middle;">467</text></g><g class="tick" transform="translate(147.51626626503125,0)" style="opacity: 1;"><line y2="6" x2="0"></line><text y="9" x="0" dy=".71em" style="text-anchor: middle;">468</text></g><g class="tick" transform="translate(225.50511735469956,0)" style="opacity: 1;"><line y2="6" x2="0"></line><text y="9" x="0" dy=".71em" style="text-anchor: middle;">469</text></g><path class="domain" d="M0,-170V0H250V-170"></path><text y="20" x="125" dy=".71em" style="text-anchor: middle;">m/z</text></g><g class="y axis" transform="translate(0,0)"><g class="tick" transform="translate(0,170)" style="opacity: 1;"><line x2="-6" y2="0"></line><text x="-9" y="0" dy=".32em" style="text-anchor: end;">0.0</text></g><g class="tick" transform="translate(0,139.0909090909091)" style="opacity: 1;"><line x2="-6" y2="0"></line><text x="-9" y="0" dy=".32em" style="text-anchor: end;">0.2</text></g><g class="tick" transform="translate(0,108.18181818181819)" style="opacity: 1;"><line x2="-6" y2="0"></line><text x="-9" y="0" dy=".32em" style="text-anchor: end;">0.4</text></g><g class="tick" transform="translate(0,77.27272727272728)" style="opacity: 1;"><line x2="-6" y2="0"></line><text x="-9" y="0" dy=".32em" style="text-anchor: end;">0.6</text></g><g class="tick" transform="translate(0,46.36363636363636)" style="opacity: 1;"><line x2="-6" y2="0"></line><text x="-9" y="0" dy=".32em" style="text-anchor: end;">0.8</text></g><g class="tick" transform="translate(0,15.454545454545467)" style="opacity: 1;"><line x2="-6" y2="0"></line><text x="-9" y="0" dy=".32em" style="text-anchor: end;">1.0</text></g><path class="domain" d="M250,0H0V170H250"></path><text transform="rotate(-90)" x="-85" y="-30" style="text-anchor: middle;">Normalized Intensity</text></g><g class="filename"><path class="profile line" d="M0,169.9978052535215L0.06413026580413561,169.9999999928536L0.16946227203315917,170L0.2747947360783189,170L0.3801278667677166,170L0.696128998001702,170L0.8014637511807403,170L0.9067989621892141,170L1.0121346310359898,170L1.1174707577210672,169.99407604764895L1.2228073422488799,169.9858636808838L1.3281443846282937,169.9606867616709L1.4334818848460096,169.95366556620422L1.53881984291976,169.9604452939773L1.6441582588362453,169.9768118960937L1.7494973051160452,169.98680968392213L1.8548366957720308,169.99573786494426L1.9601766350705896,169.99999997520408L2.0655170186198366,170L2.1708577238386604,170L2.276199363583854,170L2.3815409845546456,170L2.4868830633903367,170L2.5922292862176914,170L2.6975722808142173,170L2.802915733288943,170L2.908259643646302,170L3.8563740938626503,170L3.9617225832148035,170L4.0670715304761895,170L4.172420935655674,170L4.277770798753257,170L4.383121119768938,170L4.488471898711584,170L4.593823135581196,170L4.699174830382205,170L4.804526983105747,170L4.909879684569391,170L5.015234469118398,170L5.120587537168324,170L5.225941521652923,170L5.33129596408222,170L5.436650864460646,170L5.542006222792638,170L5.64736203907376,170L5.7527183133128785,170L5.858075045509995,170L5.963432235669541,170L6.067340635175412,170L6.17269874126425,170L6.278057305319954,170L6.3834163273513855,170L6.4849954664856755,169.8908810948922L6.490225823162801,169.88518097003683L6.590355404464134,169.90316408948559L6.695715800431621,169.99523933999868L6.70094627513701,170L6.801076654374839,169.96491839025694L6.9064379663026525,169.1782918047298L7.011799736219495,167.93445071006752L7.117161964125366,166.74926673854915L7.222524650029133,166.1133884348831L7.3278877939263625,160.78782403309373L7.433251395821487,140.42923047314721L7.538615455718939,96.65235892852918L7.643979973618721,46.350035872583135L7.749344949525264,16.284389009932994L7.754232661074117,15.454545454545467L7.85471038343857,45.486941983511414L7.960076275367503,95.09380594834681L8.065442625312063,139.6962312275353L8.170809433267818,162.05692245089185L8.276176699248069,169.2877739373176L8.384992439656722,169.99602423498752L8.492145935354644,170L8.597514575408375,170L8.702883673491037,170L8.808253229611491,170L8.913623243765308,170L9.018993715952483,170L9.124364646181885,170L9.229736034457947,170L9.335107880780669,170L9.440480185154486,170L9.545852947574962,170L9.65122656298726,170L9.756600241523222,170L9.861974464366133,170L9.967349063561562,170L10.072724497599486,170L10.17810000838415,170L10.283475977242077,170L10.388852481345587,170L10.494229711355725,170L10.599607054437861,170L10.70498485560212,170L10.81036316932309,170L10.915742803644854,170L11.021121979068788,170L11.126501612579283,170L11.231881704189636,170L11.337262253895412,170L11.442643261696615,170L11.548024727602108,170L11.653406706086475,170L11.758789959793882,170L11.864172800021114,170L11.969556098361505,170L12.074939854819485,170L12.180324069390624,170L12.285708742083784,170L12.391093872903403,170L12.496479461845045,170L12.601865981026197,170L12.70725248622962,170L12.812639449568366,170L12.918026871038002,170L13.023415072955343,170L13.128803410713356,170L13.234192601551856,169.99783217736876L13.339581855598247,169.98766353622668L13.444971567788832,169.9746182282129L13.550361738136903,169.9616734404691L13.655752552763955,169.959409867387L13.655752657173572,169.95940986514455L13.76114363942257,169.97228407370838L13.866535288652727,169.98563319147303L13.971927291630754,169.99486165111074L14.077320125026988,169.99999984375117L14.182713044346592,170L14.288106567098104,170L14.393500588885212,170L14.498894882721613,170L14.604290156790192,170L14.709685366985903,170L14.815081035370135,170L14.920477161938456,170L15.02587374669973,170L15.131271761117357,170L15.236669262264542,170L15.34206722160911,170L15.4474656391555,170L15.552864514899277,170L15.658263848858173,170L15.76366364101889,170L15.869063891390297,169.99499394168492L15.974465044852584,169.9905306181589L16.079866211654227,169.98813788271795L16.185267836675425,169.98987466619803L16.29066991992061,169.9944630720696L16.396073287583192,169.99999656416418L16.396138734255345,169.99999849587667L16.501476287276347,169.99757758303468L16.606879745197922,169.99472838023146L16.712283661352348,169.9813778219278L16.817688035744066,169.96885210148463L16.92309286837306,169.96768594709258L17.028498159239348,169.97681388720508L17.133903908351787,169.98849434059858L17.23937478611528,169.99999981714672L17.34478145171559,170L17.450188575570916,170L17.55559615768126,170L62.817736198696196,170L62.92334107614973,170L63.02894641300648,170L63.13455220925755,170L63.240158464920704,169.99498656002552L63.34576517999592,169.99229278903243L63.451372354474344,169.99152207600787L63.55697998836928,169.99362563995123L63.66258808167627,169.9970210501404L63.768214256931884,170L63.87382326908518,170L63.979432740655,170L64.08504267165904,170L65.24676724146029,170L65.35238268578603,170L65.45799858957257,170L65.56361495282884,170L65.66923177554592,169.99588317546562L65.77484905773716,169.9927281541631L65.88046679940253,169.99130246405028L65.9860850005376,169.99266731673166L66.09170366115123,169.9956033735769L66.1973378071493,170L66.30295738672451,170L66.40857742578716,170L66.51419792433722,170L76.7615679015919,170L76.8672334428953,170L76.97289944394323,170L77.07856590475348,170L77.18423282532159,169.99552044731243L77.2899002056431,169.99297466515307L77.39556804573577,169.9923412898065L77.50123634558629,169.9938275869138L77.50123700836039,169.99382760016812L77.60690510520799,169.99364917648953L77.7125749873705,169.99483582793053L77.71257510085921,169.99483582940377L77.81824466653893,169.98651535994222L77.92391480547853,169.98076774588245L78.02958540419814,169.97606685417762L78.13525646269778,169.98031789792623L78.24092798098631,169.98638366936805L78.34660007254357,169.9936271636278L78.45227303699308,169.9999996148352L78.55794593464384,170L78.66361929209235,170L78.76929310933863,170L78.87496878909874,170L78.9806435259494,170L79.08631860002998,170L79.19199425648944,170L79.29767037275997,170L79.40334694884598,170L79.50902398474746,170L79.61470148046445,169.99805548231805L79.72037943600134,169.99256177819314L79.82605785136703,169.98425709540888L79.93173672655706,169.97732868960836L79.93173688998081,169.97732867889457L80.03741612059004,169.9824173735919L80.14309591544207,169.99080048607215L80.24877627453697,169.9992594715458L80.35445728413056,169.9999999706409L80.46013845849113,170L80.56582294353476,170L80.67150503758837,170L80.77718759148851,170L80.88287060523518,170L82.2567916316065,170L82.36248108354135,170L82.4681709953715,170L82.57386136709249,170L82.67955219870879,170L82.7852434902292,170L82.89093524164494,170L82.99662745296924,170L83.10232012419326,170L83.20801356855915,169.99381317701355L83.31370715961364,169.9975192619543L83.4194027222464,170L83.52509674739966,170L83.63079171820206,170L83.73648714892636,170L83.84218303957697,170L83.9478793901539,170L84.05357620066158,170L84.15927347110444,170L84.26497120148248,170L84.37066939180013,170L84.47636850055181,170L84.58206761075314,170L84.68776718090295,170L84.79346721100124,170L84.89621987480209,169.92571942468948L84.89916804151416,169.92358817505215L85.00192082481064,169.99786875332182L85.10762223477211,170L85.21332410469536,170L85.3190264345804,169.59057879330175L85.42472922442722,168.30609729857053L85.53043247424911,167.314678080227L85.63613618403723,165.6335451376665L85.74184035380041,156.81426295774958L85.84754498353426,128.93867837326547L85.95325007325206,84.76633206660287L86.05895562294937,38.77901282940863L86.16466163263506,30.772690207162412L86.16582503041985,30.767991606320294L86.27036810230469,72.83810014541551L86.37607503196271,118.14765194339745L86.4817824216091,153.16708869699698L86.58749027125718,166.9359049449114L86.69319858089808,169.93593222036273L86.80185844980112,170L86.90756767944538,170L87.01327736910018,170L87.11898751875665,170L87.2246981284237,170L87.33040919811013,170L87.43612072780711,170L87.54183271752353,170L87.64754516726377,170L87.75325807702785,170L87.8589714468158,170L87.96468572151221,170L88.07040001136116,170L88.17611476125165,170L88.28182997117489,170L88.38754572738668,170L88.4932622160174,170L88.5989788060698,170L88.70469585617263,170L88.81041346619155,170L88.91613179048007,170L89.02185022073867,170L89.1275691110566,170L89.23328860670382,169.98842102597519L89.2332887928253,169.98842100558988L89.33900841714922,169.99182889960144L89.44472887377987,170L89.55045009463288,170L89.65617128528282,170L89.76189293601423,170L89.86761504681827,170L89.9733377130343,170L90.0790608211736,170L90.1847857467283,170L90.29050969786711,170L90.39623410910067,170L90.5019589804246,170L90.60768431184773,170L90.71341010336566,170L90.81913635498721,170L90.9248630667124,170L91.03059023855012,170L91.13631787049147,170L91.24204596254533,170L91.34777451471612,170L91.45350352700387,170L91.559232999413,170L91.66496295917635,170L91.75525907725623,169.98778904391202L91.86098993004276,169.97856836635177L91.96672124295512,169.96825817310994L92.07245301600658,169.96992308716082L92.17818524918829,169.98311422417447L92.28391794251353,169.99388119317774L92.3896510959779,170L92.51082027793359,170L92.61655435168944,170L92.72228896276563,170L92.82802415656202,170L92.93375961077511,170L93.03949614706764,170L93.14523252159441,170L93.25096935629134,170L93.35670665114952,170L93.46244440617342,170L93.56818352474207,170L93.67392220011511,170L93.77966133565829,169.99774278547605L93.88540093138492,169.99458385899123L93.99114098729498,169.9909117209012L94.09688150338849,169.98947267372293L94.09688198458065,169.98947268400266L94.20262247966544,169.9889091972703L94.20262296085758,169.98890920283824L94.3083639161347,169.9886401049022L94.4141062939884,169.98782197752973L94.41410704301391,169.987821990091L94.51984865084668,169.98537299915003L94.62559146790173,169.98713164999523L94.73133474515349,169.9918220449266L94.83707848261089,169.99663936544124L94.8370792316364,169.99663938924303L94.94282342929938,169.9961614958842L94.94283515949296,169.99616149837982L95.04856808716798,169.99282411391533L95.15431320525104,169.9827002369328L95.26005878354414,169.97823169440994L95.26005892427015,169.97823169300446L95.36580482205615,169.97903087083128L95.47155132078707,169.98528052703352L95.57729842046732,169.99388931417087L95.6830693227298,169.99999877671382L95.78881720213074,170L95.89456554176387,170L96.00033552316296,170L103.61542365468223,170L103.7212060587201,170L103.82698892318966,170L103.93277224809536,170L104.03855603343274,169.995851744621L104.14434027920628,169.99188359160718L104.25012498542478,169.98915714823852L104.35591015207943,169.98966881491558L104.46169577918793,169.9927919976242L104.56748186674143,169.99625619497556L104.6732700308281,170L104.77905703928933,170L104.88484417681295,170L104.99063210619074,170L105.09642049603131,170L105.20220934633458,170L105.30799865710058,169.99505036174583L105.41378842834705,169.99212653151397L105.51957866006067,169.9879202729299L105.6253693522459,169.98387821875696L105.731160504916,169.98350949683555L105.73116083630306,169.9835094916241L105.8369524494492,169.98369333223823L105.83696264981491,169.98369341868238L105.9427445230758,169.98193436654157L105.94274465926226,169.98193436621824L106.04853705719616,169.98230777351355L106.15433018798788,169.98520493281086L106.26012393815313,169.98929775877176L106.3659178537459,169.99209617937657L106.47171222983243,169.99575982372525L106.57751892372255,169.99999981626746L106.68331880575843,170L106.78911456335285,170L106.89491078145433,170L114.72510234410802,170L114.83093310789063,170L114.9367643323842,170L115.04259601758878,170L115.1484281635132,169.99709303789277L115.25426077015746,169.99435979042394L115.36009383752159,169.99326551870257L115.46592736560555,169.994849458304L115.57176135441826,169.99772795747757L115.677597896696,170L115.78343280697499,170L115.8892681779827,170L115.99510400973243,170L116.52429007962463,170L116.63012867130908,170L116.73596772829725,170L116.84180724604074,170L116.94764722454399,169.99351022362669L117.05348766381142,169.97946821106996L117.15932856385189,169.95342991415214L117.26516992465213,169.93300019925545L117.37101174622983,169.93175117165018L117.47685402858501,169.95390727948396L117.58269677171326,169.9784886150913L117.68853998016296,169.99659404895726L117.79438664549666,169.9999999967761L117.9002307709795,170L118.00607535724427,170L118.11192040430427,170L119.48794794924213,170L119.59379944765234,170L119.69965140689767,170L119.80550382697369,170L119.9113567078848,169.99569203696313L120.01721004963991,169.9934433815515L120.12306385223012,169.99259545834136L120.22891811566876,169.99382557162517L120.22891859686091,169.99382558288792L120.33477283995137,169.99359853657543L120.44062850627897,169.99512059127153L120.44063570600305,169.99512076520685L120.54648415226727,169.993981646451L120.65234025910841,169.99465297214581L120.75819682681127,169.9967236208579L120.86405454992234,170L120.9699120393442,169.9993109703722L121.07576998963218,169.9931199811939L121.18162840079076,169.98956325477258L121.2874872728199,169.9907128910472L121.28748767683973,169.99071290520124L121.39334660572406,169.9826602328323L121.39334706421847,169.98266019875146L121.49920639950325,169.98320098852622L121.49920680352307,169.9832009862622L121.60506705818169,169.9841606676588L121.71092777371975,169.9851262969449L121.81678895014612,169.9890961470357L121.92266767432174,169.9999999468733L122.02852977252032,170L122.13439233161606,170L122.24025535160453,170L126.68690742930968,170L126.79279027032392,170L126.89867357235057,170L127.00455733539853,170L127.11044155945895,169.9958008342627L127.21632624454507,169.99322839006228L127.32221139065695,169.99247551589534L127.4280969977857,169.994300098623L127.53398306594904,169.9974920126094L127.63989711389063,170L127.74578410412319,170L127.85167155538593,170L127.95755946769657,170L128.804654101305,170L128.9105461630911,170L129.01643868594732,170L129.12233166986024,170L129.2282251148566,169.9949939788543L129.33411902092297,169.9926937707585L129.4400133880683,169.99229631733988L129.54590821628818,169.99367478650078L129.6518035055958,169.99602431155907L129.75770783573364,170L129.8636040472169,170L129.96950071978353,170L130.0753978534468,170L136.43006947104575,170L136.53599473646017,170L136.64192046313528,170L136.7478466510755,170L136.85377330027646,169.9938615949959L136.9597004107425,169.9895713483539L137.065627982487,169.98660155663927L137.17155601550104,169.98585976207534L137.17155631965082,169.98585976623613L137.2774845097891,169.98165293468017L137.38341346535117,169.97778630701666L137.48934288219604,169.97749830848124L137.59527306447802,169.98455664263503L137.70120340388863,169.9895646653844L137.80713435440055,169.9964937625535L137.91306644259245,169.99999982436302L138.01899816588272,170L138.12493035046913,169.99634832768015L138.23086299635614,169.99376409531754L138.33679610354375,169.98614862064738L138.44272967203636,169.98488387169536L138.54866370183845,169.98604489574097L138.65459846077894,169.99029090463054L138.76053341320437,169.99172072854958L138.8664688269437,169.9941360475041L138.97241960987452,169.99893252403902L139.10193573716273,170L139.2078725348659,170L139.31380979389186,170L140.3496156419188,170L140.45555797571677,170L140.56150077086855,170L140.6674440273785,170L140.77338774525558,169.99770875376382L140.87933192449975,169.99538029230095L140.985276565111,169.99378143328522L141.0912216670982,169.99428726038573L141.1971672304525,169.99663406884045L141.30311572016208,170L141.40906220627716,170L141.51500915377267,170L141.62095656266183,170L142.680456019185,170L142.78640850348012,170L142.8923614491911,170L142.9983148563268,170L143.10426872488725,169.99380191254846L143.21022305486795,169.98919153631337L143.3161778462778,169.9870320174751L143.42213309911682,169.98898833584292L143.52808881338947,169.99358514397773L143.6340543905097,169.99943833219794L143.7400110276539,170L143.84596812624946,170L143.95192568628303,170L151.47609206657776,170L151.58208285763206,170L151.68807411032833,170L151.79406582466657,170L151.9000580006423,169.99682167213615L152.00605063827328,169.9926697784057L152.11204373755504,169.99058026214874L152.11204420512854,169.99058027182295L152.21803729848764,169.99027348239173L152.3240313210755,169.99117497223537L152.43002627289653,169.9878609022646L152.53602121880374,169.97661644686212L152.53602174993094,169.97661645705477L152.6420166263751,169.97372225713406L152.74801249561494,169.9704478420202L152.85400882652337,169.96480624977445L152.96000593232918,169.9629500890444L153.06600318658798,169.96800414121512L153.1720011204181,169.97866461150468L153.27799929803174,169.99266625216802L153.38399793732276,169.99634366754077L153.49000031585862,170L153.59599987852664,170L153.7019999028854,170L153.80800038893486,170L155.39806308475212,170L155.50407095826523,170L155.61007929351342,170L155.7160880905055,170L155.8220973492415,169.99793109405377L155.92810706972583,169.99476871360156L156.03411725195406,169.99150036594702L156.14012789594395,169.99071602402415L156.2461390016822,169.99301131912082L156.35215056918207,169.99653035046842L156.47105281918957,170L156.57706531021273,170L156.68307826299755,170L156.78909167755285,170L162.18350514400603,170L162.28954257421864,170L162.3955804663436,170L162.50161882038097,170L162.60765763633512,170L162.71369691420162,170L162.8197366539938,170L162.9257768557161,170L163.0318175193552,170L163.13906453061873,170L163.24510611812687,170L163.35114816756513,170L163.45719067894237,170L163.56323365225856,169.99441378016962L163.66927708751817,169.90214113046355L163.7753209847256,169.57275702943076L163.88136534387644,168.912473150959L163.98741016498397,166.96518690233788L164.09345544804376,161.4791569688159L164.19950119305585,151.86134743247274L164.30554740002907,141.29756844802446L164.41159406896782,137.44733828971047L164.41292319886267,137.44287202996787L164.5176411998633,145.67539466250815L164.62368879272879,156.13771699103816L164.72973684756425,165.08637862318588L164.83578536437415,169.1211986413766L164.94063173048315,169.9635076594451L165.04668117124635,170L165.15273107398397,170L165.25878143870938,170L165.36483226542248,170L165.4708835541189,170L165.5769353048119,170L165.68298751749265,170L165.7890401921744,170L165.8950933288528,170L166.0011469275322,170L166.10720098822148,170L166.2132559512525,170L166.31931093595273,170L166.4253663826717,170L166.53142229140062,170L166.6374787483997,170L166.74353653901534,170L166.84959383380496,170L166.95565159062664,170L167.06170980947155,170L167.16776849035293,170L167.27382763326636,170L167.37988723821633,170L167.48594730520722,170L167.59200802489562,170L167.6980690159728,170L167.80413070515633,170L167.91019262032867,170L168.0162550338716,170L168.12231830894908,170L168.22838161028852,170L168.3344453736911,170L168.44050959915674,170L168.54657533078168,170L168.6526404803824,170L168.75870609205506,170L168.86477216580414,170L168.97083870162518,170L169.07690569952706,170L169.1829731595142,170L169.28904108158656,170L169.3951095429121,170L169.50117872055097,170L169.60724802889243,170L169.71331779932802,170L169.81939663884634,170L169.9254710604529,170L170.03154221719308,170L170.1376138360451,170L176.92715501975698,170L177.033256681284,170L177.13935880510465,170L177.24546139120562,170L177.35156443959133,169.9930160051326L177.4576679502751,169.98937404117777L177.5637719232525,169.98851493280517L177.66987635852348,169.99136319316256L177.77598125610143,169.9958724094363L177.88208960753994,170L177.9881954297184,170L178.09430171420823,170L178.2004084610094,170L179.57983824089715,170L179.68595146032771,170L179.79206514210506,170L179.89817928624254,170L180.00429389273125,169.99771827670983L180.11040896158013,169.99132665096366L180.21652449279796,169.9842854828887L180.32264048637148,169.96952027947415L180.42875694231398,169.97652432291184L180.42875748252027,169.97652435990065L180.53487386062548,169.9751728835834L180.64099169072568,169.96451723373067L180.747109533784,169.94876015723455L180.85322783922462,169.9452606865905L180.95934660704305,169.9580178959349L181.06546583724378,169.9760119156881L181.1715855298268,169.99047538354984L181.27770597080143,169.99658471993965L181.38383025157802,169.99999967996916L181.48995133134338,170L181.59607051747415,170L181.70219252203063,170L181.80831498898718,170L181.91443791834814,170L182.02056131011798,169.99704685287233L182.12668516430116,169.99360466880657L182.23280948089322,169.99174846515828L182.3389342598986,169.9932600358204L182.44505950133055,169.9966926574416L182.55122540741826,170L182.65735157369016,170L182.76347820238425,170L182.8696052935094,170L183.824732077162,170L183.93086379272174,170L184.0369959707436,170L184.14312861122306,170L184.24926171416462,169.99537986626854L184.35539527957715,169.99280577623753L184.46152930745615,169.99179771381762L184.56766379780612,169.99344131658782L184.67379875063148,169.996498177258L184.77994423012032,170L184.88608010790085,170L184.99221644816123,170L185.09835325091467,170L193.16610357811356,170L193.27227600029326,170L193.3784488851744,170L193.4846222327482,170L193.590796043019,169.9921462147903L193.69697031600015,169.9863580506141L193.80314505168275,169.97430013366403L193.9093202500757,169.96642353594976L193.909320558765,169.96642352581412L194.015495911179,169.9684915726545L194.12167215302532,169.97673970730966L194.18495895789232,169.9820361451851L194.22784893021475,169.98481755239456L194.2911355444207,169.98967844780083L194.3340260021645,169.99297276272392L194.39731259367275,169.99767874386643L194.44021695574358,170L194.5034901056484,170L194.5463949304429,170L194.62420797305913,170L194.73038641048208,170L206.016340374277,170L206.12256880206476,170L206.22879769286868,170L206.33502704669772,170L206.44125686354738,169.9942447423489L206.54748714343106,169.99091336293714L206.6537178863442,169.98974205799752L206.75994909229576,169.9915771966705L206.86618076127684,169.99479833441202L207.04823753191863,170L207.15447012698536,170L207.26070318509048,170L207.3669367062473,170L207.50358180194854,170L207.6098167122604,169.99705904809386L207.71605208563284,169.9941957886351L207.82228792206584,169.9921276450627L207.9285242215638,169.99266431553153L208.03476098412676,169.9954257935997L208.14101147431575,170L208.24724916301753,170L208.35348731479323,170L208.45972592964716,170L219.19221137429878,170L219.29849723712923,170L219.40478356331278,170L219.51107035285395,170L219.6173576057571,169.99555732481784L219.72364532202226,169.98851903188103L219.82993350164944,169.9778747903774L219.93622214464307,169.9701073687393L220.04251125100757,169.96577479312282L220.04251136903582,169.96577479002687L220.14880093877565,169.96910349211672L220.21295003997818,169.97447601470836L220.25509097189078,169.97691669494043L220.3192400730933,169.98320048646553L220.36138160457207,169.9873285122295L220.4255305695882,169.99216319972751L220.4676727505682,169.99533894271832L220.5318215294628,169.99730141226124L220.5739759811929,169.998590710047L220.62005365693034,170L220.68026786783585,170L220.7263455435733,170L220.78656021786742,170L220.83263789360487,170L220.9389307070339,170L230.67377461788524,170L230.78011053853086,170L230.88644692282224,170L230.9927837707549,170L231.09912108234212,169.9965128369133L231.20545885757957,169.99292298172702L231.31179709648046,169.99115162718107L231.4181357990315,169.99266914228926L231.52447496525045,169.99583599280484L231.70725692104511,170L231.81359701459098,170L231.9199375718092,170L232.02627859269973,170L232.26886384560953,170L232.375206721216,170L232.48155006050365,170L232.58789386348136,170L232.69423813014913,169.99499379084807L232.80058286051144,169.98919582025462L232.90692805457266,169.9854389606995L233.01327371232836,169.9865854564079L233.11961983378743,169.99145329540005L233.2259664189499,169.9964153434443L233.3967884632166,170L233.50313597579904,170L233.60948395209374,170L233.71583239210068,170L241.58690395198138,170L241.67488812454764,170L241.78127181480554,170L241.8876559689796,170L241.99404058707867,170L242.10042566911164,169.95184929564567L242.20111489103138,169.69985336230062" style="stroke: #1f77b4;"></path></g><g class="filename"><path class="profile line" d="M1.559777021791947,170L2.2929126867708125,170L2.3982477964640094,170L2.503583363991075,170L2.6089193893653086,170L2.7142558725734105,170L2.8195928136286814,170L2.92493021253112,170L3.0302680692851602,170L3.135606383890802,170L3.2409452471390168,170L3.346284731671449,170L3.451624419849627,169.96313794412814L3.556964565892706,169.92432479973692L3.662305719081633,169.90205558010675L3.76764678086338,169.92671319876627L3.8729883005055945,169.9543963525532L3.978330278030442,169.9707771493155L4.083672713424624,169.9979145629885L4.189015865455709,169.99999998849697L4.294359797677379,170L4.399703606715028,170L4.505047873644177,170L4.610394391582089,170L4.715739574294237,170L4.821085214897885,170L4.926431313401899,170L5.137124884111025,170L5.242472356325004,170L5.347820286439347,170L5.453168674471791,170L5.558517520417899,170L5.663866824282107,170L5.76921658605998,170L5.874566805760384,170L5.979917483387753,170L6.085269131906646,170L6.190620725383512,170L6.29597277679621,170L6.401325286149172,170L6.506678625672084,170L6.612032050901141,170L6.71738593406603,170L6.82274056571116,170L6.928095732477747,170L7.033450989490027,170L7.138806704455872,170L7.239015428748432,170L7.3443720596258375,170L7.449729148465673,170L7.555086695267939,170L7.665593197312944,170L7.770951660048937,170L7.876310580765091,170L7.981669959452543,170L8.081881298848717,170L8.187241593496495,170L8.292602346120002,170L8.397963556732538,170L8.503325225334104,170L8.608687351924697,169.22258787757607L8.714049936508754,167.77147641369663L8.819412979090707,166.81047625185082L8.92477647966612,165.83600765878876L9.030140438243864,157.54655139805018L9.135504854828367,129.131240485402L9.240869729419634,80.84359245351735L9.346235062013228,29.11867977510238L9.451600852626886,15.454545454545467L9.556967101251736,60.98149915048633L9.662333807892214,110.46569814182226L9.767700972552754,150.34894464167414L9.873068595233356,165.83161432652415L9.978436675942884,169.9266658084446L10.088957520629624,170L10.194326517392573,170L10.29969597219775,170L10.405065885027422,170L10.510436255903755,170L10.615807084813447,170L10.721178371774233,170L10.826550116777245,170L10.93192231983135,170L11.03729498093655,170L11.142668100092841,170L11.248041745402322,170L11.353416234633395,170L11.458790727969564,170L11.564165679374561,170L11.66954159726896,170L11.774917464811608,170L11.88029379041865,170L11.985670583186915,170L12.091047906665645,170L12.196425606510196,170L12.301803764441306,170L12.357714620046371,170L12.40718284803248,170L12.463093694146163,170L12.512562003844147,170L12.568473226345814,170L12.617941644992964,170L12.673853216636456,170L12.723321635283606,170L12.828702083669674,170L12.9340829901556,170L13.039465199101855,170L13.144847021791929,170L13.250229302590727,170L13.355612586248514,170L13.460995783269194,170L13.566379438407465,170L13.671763551663327,170L13.7771486950199,170L13.882533724524242,170L13.987919212146174,170L14.093305157903428,170L14.19869156178714,170L14.304078855063292,170L14.40946617521765,170L14.514853953511766,170L14.570771378960806,170L14.620243392930448,170L14.676160073538867,170L14.725632087508508,170L14.781549226269984,169.99889213806787L14.831021240239625,169.99791197058798L14.886938837145287,169.98931082839707L14.93641085111493,169.9781434933216L14.992328906173649,169.96564275045586L15.04180092014329,169.9471002760565L15.097719433363933,169.92120327540317L15.147191447333574,169.89524810746673L15.20311041870727,169.86847237171668L15.252582432676911,169.84417379393224L15.308501862208098,169.8098050461157L15.35797387617774,169.78996362544382L15.413893763875283,169.77722950183033L15.463365777844924,169.78149606273217L15.519286123708822,169.79561149421727L15.568758137678463,169.81219064865175L15.624678941704282,169.84653730855175L15.674151382391491,169.87456684246715L15.730072217879396,169.90990476721063L15.779544658566607,169.934032900932L15.835465952225299,169.9536819968633L15.88493839291251,169.96598297345352L15.990332585433634,169.99450302480972L15.990333556897035,169.99450302869542L16.095728207597816,169.9873467412032L16.20112331647825,169.9816986176151L16.306518883547202,169.97756170738995L16.41191490879581,169.977197557831L16.517311392241808,169.9906756979383L16.62270833387633,169.99592742513784L16.72810804433847,170L16.833505902363328,170L16.93890421859444,170L17.044302993027376,170L17.465902532108938,170L17.571303597590873,170L17.676705121292358,170L17.782107103222266,170L17.887509543371724,169.99381932872947L17.992912441749606,169.98594587761875L18.098315798351468,169.97890630096353L18.20371961319062,169.97013522220408L18.203719753916626,169.970135213061L18.309123886267056,169.98029266373206L18.41452875830235,169.9935189449981L18.51993394785336,170L18.625340380987996,169.99229201045736L18.730746487026874,169.9860586391798L18.836153051311904,169.98368424357196L18.94156007384752,169.98535450057517L19.046967554638154,169.99116705012415L19.15237549368824,169.9970322593933L19.257817964840694,170L19.363226820409682,170L19.468636134242555,170L19.574045906334877,170L25.899446474290603,170L26.004884205679975,170L26.11032239549726,170L26.215761043751314,170L26.321200150437722,169.99503259606905L26.426639715565337,169.99063159326394L26.532079739134165,169.98807511081978L26.63752022114863,169.9892532071188L26.74296116161318,169.99299497387352L26.84842682895018,170L26.953868686314884,170L27.059311002138525,170L27.164753776412248,170L45.41325631140333,170L45.51877889784828,170L45.62430194321322,170L45.72982544751145,170L45.83534941072967,169.9958873070262L45.940873832885615,169.992303370849L46.04639871397042,169.98312145025307L46.15192405399738,169.98239524455983L46.25744985296206,169.98479946206544L46.25745047941977,169.98479949733368L46.36297632876724,169.9845488762279L46.46850304561623,169.98541330330772L46.57403062997563,169.98976151635088L46.67955826472224,169.9908680189144L46.785086358419875,169.9936278479713L46.89062049017819,170L46.99614950179561,170L47.10167897236847,170L47.207208901905666,170L50.0566900887007,170L50.16223287029402,170L50.26777611092259,170L50.373319810595284,170L50.47886396932096,169.99563892842534L50.58440858708633,169.9895702874362L50.689953663904674,169.97934600093757L50.689954022529015,169.97934601564L50.79549919977601,169.9712926210651L50.79549960833538,169.97129260458752L50.901045194704764,169.97288670292357L50.9010458801766,169.9728867175329L51.006591648690936,169.97139663761007L51.11213892036774,169.97084416871422L51.21768629248205,169.9745975864779L51.32323417360212,169.98415741956669L51.42878274076589,169.9924293429927L51.53436569104707,170L51.63991489944869,170L51.74546456692546,170L51.851014693481815,170L66.42132187296082,170L66.52693583761094,170L66.63255026170857,170L66.73816514526705,170L66.84378048828192,169.99597233372054L66.94939629075763,169.99267612616342L67.05501255269418,169.9905636060932L67.16062927410488,169.9912678631387L67.26624645498082,169.99397903570497L67.37187832681134,170L67.47749642663555,170L67.58311498593392,170L67.68873400471085,170L77.61897372895474,170L77.72463641049323,170L77.830299551763,170L77.935963152764,170L78.04162721351402,169.9946561343364L78.14729173400859,169.9917409633781L78.2529567142477,169.97853770957036L78.35862215424025,169.97023739030388L78.46428805397736,169.94750788789193L78.56995441347232,169.92309378003924L78.67562123272957,169.91314556296686L78.67562142793017,169.9131455415415L78.78128851174024,169.92588868725417L78.88695625051322,169.95397027564118L78.9926246442535,169.9788908149364L79.0982933933553,169.99695744195108L79.20396575267058,170L79.30963533052373,170L79.41530536815249,170L79.52097586555682,170L80.68338168317763,170L80.7890576981373,170L80.89473417290802,170L81.00041110749868,170L81.10608850190036,170L81.21176635612642,169.9874637155582L81.31744467018127,169.9484712807888L81.42312344405603,169.93794651258386L81.52880267776402,169.94240258233708L81.52880291382054,169.94240257135968L81.63448257558048,169.95768723451326L81.74016272895491,169.9658480851576L81.74016331909623,169.96584812665012L81.84584337394384,169.94852932364964L81.95152500535362,169.91723918996968L82.05720653824987,169.92208470089201L82.16288853098821,169.94695634144304L82.26857098357307,169.9666935303768L82.37425389600888,169.99803801309753L82.47993754975654,169.999999957189L82.5856226529723,170L82.6913069449787,170L82.79699169684051,170L82.90267690857542,170L83.00836258017016,170L83.114048711638,170L83.21973530297456,170L83.32542235418863,170L83.43110986527586,170L83.53679841730727,170L83.64248684816287,170L83.74817573890047,170L83.85386508952892,170L83.95955535399865,170L84.06524562440882,170L84.17093635471426,170L84.27662754491499,170L84.38232075208504,170L84.48801286209847,170L84.59370543201167,170L84.69939846184229,170L84.80509195157707,170L84.9107859012293,170L85.01648031080342,170L85.12217518029054,170L85.227870509704,170L85.33356629903932,170L85.43926254830541,170L85.54495925750224,170L85.65065752066103,170L85.75635514972824,170L85.86205323873061,170L85.96775178767705,170L86.07345079656753,170L86.17915026540649,170L86.2848501941895,170L86.39055058292986,170L86.49240915314475,170L86.59811046179539,169.9216204399653L86.60195319876375,169.91866348824658L86.70381223040779,169.9970430502261L86.80951445897755,170L86.91521714751352,170L87.02092029602014,169.7580339467787L87.12662390449741,168.46997208450455L87.23232797294976,167.80190777207278L87.33803250137277,164.04999391099514L87.44373748977529,149.9804599582214L87.54944293816618,111.54994808789168L87.65514884653216,66.77267368860656L87.76085521489095,28.117221397872697L87.76566707739202,27.574811981887365L87.86656204323369,46.04493025224157L87.97226933157367,92.37554475166696L88.07797707990647,136.12010230476216L88.18368528824095,160.41112086914222L88.28939395656825,169.20669766855315L88.39542694083828,169.99063240650304L88.50465880125236,170L88.610368849598,170L88.7160793579586,170L88.82179032632536,170L88.92750175471592,170L89.03321364311705,170L89.13892599154644,170L89.24463879999527,170L89.3503520684768,170L89.45606579697774,170L89.56177998551583,170L89.66749517430178,170L89.77321028291415,170L89.87892585156368,170L89.98464190295253,170L90.09035886380713,170L90.1960758125947,170L90.30179322143272,170L90.40751118111656,170L90.51322997309828,170L90.61894876210536,170L90.72466801117174,170L90.83038772030632,170L90.93610835707811,170L91.04182898634461,170L91.14755007568814,170L91.25327162510429,170L91.35899424289255,170L91.46471671247164,170L91.57043964212336,170L91.6761630318654,170L91.74951311469482,170L91.85523742461312,170L91.96096219463064,170L92.0666874247385,170L92.17241311494556,169.9957712618752L92.27813926525627,169.98156963922605L92.38386587567062,169.94035636179277L92.48959294619307,169.85859467549625L92.59532047682356,169.72229675758336L92.70104846756658,169.56116399824452L92.80677691842212,169.4956930099515L92.82942083031622,169.4935040025487L92.91250582939901,169.59692706289349L93.01823520049729,169.75465491634642L93.12396503171252,169.8930419274115L93.22969532305353,169.96639316882138L93.26207224050324,169.9797200627492L93.36780161195173,169.97792070539307L93.47353378140244,169.95563614465496L93.57926545313863,169.91412869829057L93.68499758501392,169.86464039196778L93.7907301770239,169.83310590592373L93.8964632291774,169.82614087560785L93.89646365135543,169.82614081860893L94.00219692759596,169.85421786737746L94.10793090004098,169.91192646584372L94.21366533263398,169.95751983637132L94.31940046143148,169.9967280135602L94.42513645441008,169.99999988848606L94.53087226746918,170L94.63660854068955,170L94.74234527407118,170L94.8480824676141,170L94.95382012133602,170L95.05956092717153,170L95.1652995012293,170L95.27103853546608,170L95.37677802988186,170L95.90548240473453,170L96.01122466027755,170L96.11696737601731,170L96.22271055195823,170L96.3284541881092,169.99669621258363L96.43419828445691,169.99315319736255L96.5399428410191,169.98903876110978L96.64568785778688,169.98058976594558L96.75143333476915,169.98849733894468L96.85717927197031,169.99715638273568L96.96292638663904,169.9999993298619L97.06867324428245,169.9940737451154L97.17442056214477,169.97919488534797L97.28016834023929,169.9754316310328L97.28016853543987,169.97543162878875L97.38591657855713,169.976379804132L97.49166527711164,169.98269373236818L97.59741463110335,169.99361893937188L97.70316770018806,169.9999987298794L97.80891777945688,170L97.91466831896237,170L98.02044037314418,170L99.50098164258759,170L99.60673954635361,170L99.71249791040061,170L99.81825673474188,170L99.92401601938184,169.9953111760207L100.02977576431164,169.99087118490192L100.13553596954014,169.9886530049626L100.24129663507178,169.99000106741542L100.34705776090655,169.99366906751186L100.45282411357935,170L100.55858616003368,170L100.6643486667956,170L100.77011163387837,170L103.20278672557936,170L103.3085607410235,170L103.41433521685056,170L103.52011015306499,170L103.62588554966236,169.99408999385136L103.73166140665153,169.98596248181988L103.83743772403692,169.9797013619115L103.94321450180966,169.9782053432833L104.04899173998754,169.98208073190997L104.1547696428413,169.99031763212614L104.2605478018205,169.99459475538447L104.36633097437202,169.99999993922745L104.47211005416582,170L104.57789078373091,170L104.68367078435264,170L107.01094609874399,170L107.11673668962278,170L107.22252774097763,170L107.32831925281735,170L107.43411122513312,169.99486220544316L107.53990365794263,169.9908120410776L107.64569655123705,169.98902063185955L107.75148990502079,169.99102642822078L107.85728371930715,169.99513164310935L107.96307918344458,169.99999950580482L108.06887391872291,170L108.17466911449942,170L108.28046477078745,170L108.38626088757364,169.99361008610043L108.49205746487577,169.98869279753924L108.59785450268939,169.98661783314498L108.70365200102337,169.9887178126705L108.80944995986886,169.99308151512125L108.91525875210768,170L109.02105763200272,170L109.12685697241814,170L109.23265677336722,170L116.11063179750015,170L116.21646199926535,170L116.3222926617371,170L116.42812378491983,170L116.533955368818,169.99602919809058L116.63978741343156,169.99149767312343L116.74561991876057,169.978536159201L116.85145288481827,169.96583305766052L116.95728631159584,169.94386840475767L117.0631201990977,169.9339675739814L117.06312037160053,169.93396756544402L117.16895454733269,169.93608089809712L117.2747893562964,169.95134754288475L117.38062499370113,169.97695973273244L117.48646072414002,169.98968428717512L117.61354652415142,169.9994861055224L117.71938317607433,170L117.82718384324859,170L117.93302141665997,170L118.14273439123495,170L118.24857334691227,170L118.35441276334494,170L118.46025264054175,170L118.56609297849835,169.98797387751645L118.67193377722798,169.9447142126067L118.77777503672179,169.86263135464185L118.88361675698866,169.76975101483765L118.98945893802858,169.6892561160505L118.99903285964305,169.68695808818322L119.0953015798504,169.71497155938627L119.20114468244972,169.81633513207018L119.30698824583538,169.91675571882368L119.41283227000295,169.98032273212155L119.4974345274324,169.9999996136696L119.60327947318154,170L119.70912487971702,170L119.81497074705659,170L122.46126719711663,170L122.56712504609821,170L122.6729833559415,170L122.77884212665981,170L122.88470135825756,169.9871126828662L122.99056105072589,169.97430149790432L123.0964212040781,169.9550385325531L123.20228181830532,169.9387513827396L123.20228185916126,169.93875138215125L123.30814289342086,169.94938011699404L123.30814333375707,169.9493801042226L123.4140044294247,169.9516474255523L123.51986646717279,169.96839394973026L123.6257292154888,169.98228024735414L123.73159213417087,169.98827458623188L123.83746281334427,169.9999991309543L123.94332683994219,170L124.04919179955921,170L124.15505656184773,170L128.60179196710357,170L128.70767655087886,170L128.81356159567548,170L128.91944710150224,170L129.02533306835477,169.99600174924822L129.13121949624627,169.98673397868166L129.2371063851636,169.97902930283024L129.3429937351199,169.97474736459705L129.4488815461197,169.97978524196833L129.55477000428004,169.98585561292654L129.66065873736235,169.9908291476231L129.6606593955969,169.99082917954487L129.766547931497,169.99041620974845L129.8724382449141,169.98050191581532L129.97832836114898,169.9579209174546L130.08421893844064,169.95121250093217L130.08421912456214,169.95121248483986L130.1901099767935,169.9572610432994L130.29600166232464,169.96805703466026L130.40189362280432,169.97705124572872L130.50778647560236,169.98858008012445L130.61367935821332,169.99111150988017L130.71957270189438,169.99516202885903L130.8254765617545,169.99999974327832L130.93137644755018,170L131.0372711744636,170L131.1431663624604,170L137.92141194860434,170L138.0273371127168,170L138.13326273808104,170L138.23918882471045,170L138.34511537260056,169.99524696016238L138.45104238176464,169.98689512225363L138.55696985219828,169.96053246201492L138.66289778389705,169.945619035927L138.76882617687428,169.9376588711986L138.76882677155513,169.93765887155755L138.87475526265132,169.93477670975872L138.87475533982362,169.93477670872778L138.98068457818982,169.9570067464508L139.0866144321835,169.96882597694614L139.1925449562837,169.97516184026924L139.29847565567522,169.97905835439L139.40440681636736,169.96874633526346L139.4044072975595,169.96874628738857L139.5103389195389,169.97489235487828L139.6162710028189,169.97620709452323L139.72220354739505,169.98039362401616L139.8281369073566,169.98925018359716L139.9340703745428,169.9937385901582L140.04000789382144,170L140.14594228362213,170L140.25187713473673,170L140.35781244716966,170L141.94689749332127,170L142.05284018716216,170L142.15878334236572,170L142.26472695893193,170L142.3706710368697,169.99538994237187L142.47661557617457,169.99063447414238L142.5825605768509,169.9872441085985L142.6885060388988,169.99060897248165L142.7944519623271,169.9927701647951L142.90039894635174,169.98981901260026L143.00634579254523,169.97735944873077L143.11229310011913,169.97408812272516L143.11229349505984,169.97408814168693L143.2182408690867,169.97253300434008L143.32418909943468,169.971670350694L143.3241894943754,169.97167034056227L143.43013779118522,169.9774249393853L143.43013818612593,169.9774249362389L143.5360873392657,169.98992376380397L143.64203695380806,169.9945257806157L143.74798907708495,170L143.85393961443242,170L143.95989061318684,170L144.06584207334828,170L144.27774637337473,170L144.3836992177793,170L144.48965252360415,170L144.59560629085374,170L144.70156051952807,169.98897203035457L144.8075152096271,169.96540004197192L144.9134703611597,169.92587090950883L145.01942597413034,169.90251752717546L145.01942597866991,169.902517526745L145.12538204853016,169.91411355363516L145.2313385843724,169.94405906798957L145.33729558165265,169.97158239257467L145.44325311301702,169.9954183460545L145.5492170344743,169.99999965782413L145.65517541609526,170L145.76113425917194,170L145.86710148067272,170L149.2580349728662,170L149.36400950691035,170L149.4699845024945,170L149.57595995963635,170L149.68193587832263,169.99648097259546L149.78791225856662,169.9932342967146L149.89388910036834,169.99153704371025L149.99986640372776,169.99281740055525L150.10584416864933,169.99602785056004L150.2118299035509,170L150.31780859160563,170L150.42378774122696,170L150.52976735242373,170L153.8153624928883,170L153.92135687582945,170L154.02735172043026,170L154.1333470266952,170L154.2393427946242,169.99555326945548L154.3453390242262,169.9902633507583L154.45133571549675,169.97085960027994L154.55733286844915,169.95975794854235L154.66333048307007,169.9548445916979L154.6633307372848,169.95484458292538L154.7693285593773,169.96230250185073L154.87532709736638,169.97777100566609L154.98132635125646,169.99373175358193L155.0873325629224,170L155.1933272427961,170L155.2993276275436,170L155.4053284739862,170L155.5113297821284,170L155.61733155196575,169.99724052484714L155.72333378351155,169.98854271384386L155.82933647676577,169.97891810751062L155.93533963172405,169.96906457371026L155.93534002212522,169.96906457943194L156.04134324840402,169.95755738137356L156.14734732679247,169.9498640008249L156.25335186689375,169.94211131737984L156.25335225729495,169.94211127216283L156.35935725912245,169.95990243584615L156.4653627226761,169.9797435494584L156.57070069423108,169.99620164542927L156.67670708123265,169.9996007568108L156.7827139299693,170L156.88872124043655,170L157.00734580729807,170L159.5397268799124,170L159.6457461963951,170L159.75176597468823,170L159.85778621478292,170L159.96380691669245,169.99253690994718L160.0698280804168,169.98729444241005L160.17584970596045,169.98555755498657L160.2818717933189,169.98933617031832L160.38789434250108,169.99551308538577L160.49643018885726,170L160.6024536616913,170L160.70847759635788,170L160.8145019928526,170L164.73454371442952,170L164.84058566255695,170L164.9466280726322,170L165.052670944642,170L165.15871427859963,170L165.26475807450063,169.97919341225384L165.37080233234505,169.73754944021613L165.47684705214618,169.38020987401708L165.58289223389517,168.4611776729492L165.68893787760524,165.44458201778855L165.79498398327647,157.19456385883038L165.9010305509044,146.9363835855167L166.0070775804979,137.48905477872842L166.02135198224903,137.01758259528924L166.11312507205696,140.161768146131L166.21917302558603,150.6705701563547L166.32522144108952,161.00410380736207L166.43127031856747,167.3790943792351L166.5373196580198,169.74610487019999L166.6433694594555,169.9999676302755L166.75010171742315,170L166.85615244282542,170L166.96220363021985,170L167.068255279602,170L167.17430739098077,170L167.28035996435614,170L167.38641299972812,170L167.49246649710554,170L167.59852045648844,170L167.70457487787235,170L167.81063033325375,170L167.91668567866188,170L168.02274148608882,170L168.1287977555345,170L168.2348544915341,170L168.34091263378738,170L168.44697028930267,170L168.55302840684115,170L168.65908698641613,170L168.76514602802757,170L168.8712055316667,170L168.97726549735117,170L169.0833262337659,170L169.18938712353665,170L169.29544847535277,170L169.4015105343632,170L169.5075729827862,170L169.6136357207606,170L169.71969902974723,170L169.82576366330235,170L169.93182778746603,170L170.0378923736928,169.99401098199593L170.14395742198712,169.9906566885894L170.25002293234894,169.97743818559988L170.35608890479162,169.97664534792892L170.35608904097808,169.9766453469109L170.46215533930624,169.97936560046787L170.56822223591055,169.9924259999257L170.6742897307733,169.99586950224713L170.78035864103094,169.99999945736442L170.8864269238822,170L170.99249566882756,169.9920336406268L171.09856487586265,169.98604201348994L171.20463454499182,169.98355713881827L171.31070467622402,169.98663077653035L171.4167752695592,169.99240405407502L171.52284723290268,169.9999999879719L171.62891875044383,170L171.73499073009688,169.99411314478053L171.84106317185734,169.98322923634746L171.94713607573854,169.97853170442428L172.0532094417316,169.96959156594403L172.1592832698498,169.96867951214202L172.15928343781312,169.96867951082314L172.26535772804763,169.98056702236616L172.37143262567727,169.99406089403095L172.47751993806358,170L172.58359561468686,170L172.68967175343974,170L172.7957483543355,170L181.17726040381964,170L181.28337398429503,170L181.38948802713054,170L181.49560253231286,170L181.60171749985975,169.99694191881872L181.7078329297667,169.99121393780365L181.81394882203827,169.98488384220292L181.92006517667437,169.9782755490684L182.02618199368388,169.97422321519167L182.1322992730668,169.97544179613467L182.238417323508,169.96845643191253L182.34453552764222,169.95070542756864L182.450654357578,169.94203622316712L182.55677363174232,169.93247843737987L182.55677385871974,169.93247842154403L182.6628932230278,169.94210266492038L182.7690135036774,169.96736780046606L182.87513401973632,169.9885260395155L182.98127060969847,169.99999904096393L183.0873920505574,170L183.19351415354765,170L183.29963651920218,170L193.80803908484563,170L193.91420770426228,170L194.02037678635384,170L194.12654633112027,170L194.23271633856598,169.99547393785073L194.33888680869103,169.99286946346123L194.4450577414998,169.99052857242702L194.55122913700114,169.9899384412885L194.6574009951907,169.99572078948674L194.76357408779165,169.9999999888394L194.7635743647041,169.99999999053887L194.86974687136643,169.99637245064247L194.9759201176382,169.98937837926238L195.08209382661147,169.9623970287013L195.18826799828176,169.9471820598593L195.2944426326624,169.9398174922348L195.29444286871893,169.93981748226247L195.40061772975338,169.95135088076597L195.5067934892948,169.97992786284752L195.61296954812286,169.9900894790623L195.7191478355545,169.99999894792103L195.82532478350456,170L195.93151681152028,170L196.0377107866965,170L196.1438584036921,170L196.25003720254554,170L196.3562164641271,170L196.46239618845,170L196.56857637550982,169.9956619091401L196.6747570253066,169.99265675434816L196.78093813784918,169.99167859399122L196.88711971313754,169.99330505696133L196.99330175117174,169.9960532039924L197.09949829732395,170L197.20568126086306,170L197.31186468716123,170L197.4180485762185,170L207.29517335218793,170L207.4014007526368,170L207.50762861610187,170L207.6138569425876,170L207.72008573208515,169.9969315538266L207.82631498461217,169.99324840181316L207.93254470016876,169.98912735344084L208.03877487875042,169.98091996766425L208.14500552036162,169.986038851883L208.17159902658952,169.98612920781366L208.25123662500675,169.97789386751978L208.357468764669,169.95354645296365L208.4637007953909,169.92076172057682L208.5699332891512,169.907627829539L208.67616624596323,169.92373452482107L208.78239966581364,169.94707374161882L208.88863392096312,169.96859641775254L208.93624105233553,169.9786511002926L208.99486826692134,169.98799808416612L209.04247539829373,169.99214687647768L209.10110307593123,169.99524182367702L209.14871020730362,169.99664709265758L209.20735412293305,169.9983781458246L209.2549454793741,169.9997829491602L209.36663027982442,170L209.47286647802042,170L209.57910313928141,170L220.6834896014538,170L220.78977536298228,170L220.8960615878683,170L221.00234827610748,170L221.10863542770866,169.99916053856717L221.21492304266744,169.98370912951162L221.3212111210015,169.95876009466386L221.42749966269315,169.93715520700385L221.42749970808862,169.93715520338466L221.53378866776012,169.94066275010405L221.64007813620236,169.97921664736904L221.74636806801107,169.99079324674767L221.89711679570462,169.99933042634586L222.00340765428166,170L222.1096989762385,170L222.2159907615839,170L243.27089697553885,170L243.37728102841535,170L243.48366554522133,170L243.59005052595674,170L243.69643597062162,170L243.76089191282333,169.94325523950215" style="stroke: #ff7f0e;"></path></g><g class="filename"><path class="profile line" d="M3.1195540435883276,169.99409251188104L3.1836824799543777,169.99606396899173L3.289016333779681,169.99999999796438L3.394348852299424,170L3.4996817741695856,170L3.6050151538603172,170L3.9210179082577827,170L4.026353119266257,170L4.131688788113032,170L4.237024914798109,170L4.342361499325922,169.99269787333412L4.447698541705336,169.97165701270788L4.553036041923051,169.94978732869544L4.658373999996802,169.92388028165695L4.658374077169128,169.92388026705535L4.763712415913288,169.93074433734657L4.8690512896902405,169.95298817408025L4.97439069850442,169.96412529483877L4.97439105712876,169.9641252640787L5.0797308466222155,169.96947565894885L5.185071093985004,169.9816858568569L5.290411799203828,169.9923003991275L5.395752962296419,169.99861648652757L5.501095014524326,169.99999995725358L5.606437093360018,170L5.7117828849302565,170L5.817125879526782,170L5.9224702399112275,170L6.027814150268587,170L6.659885058238872,170L6.765232173858895,170L6.870579747388151,170L6.975927778826638,170L7.081276268178792,170L7.186625215440177,170L7.291974620619661,170L7.397324483717244,170L7.502674804732926,170L7.608027839831226,170L7.7133790767008374,170L7.818729777340704,170L7.924081930064245,170L8.029434540736917,170L8.134787609336554,170L8.24014113588089,170L8.345495120365488,170L8.450849562794785,170L8.556204463173211,170L8.661559821505204,170L8.766916082662087,170L8.872272356901206,170L8.977629089098322,170L9.082986279257868,170L9.186123961011878,170L9.29148206710072,170L9.396840631156422,170L9.502199653187853,170L9.607559133195016,170L9.712919071173475,170L9.818279467140963,170L9.922559415976533,169.9867344682516L10.025364331045708,169.44292276037453L10.130726100962551,168.2815687507117L10.236088328868423,166.87275635011025L10.34145101477219,166.36592145817428L10.446814158669419,162.3365266146925L10.552177760564543,145.57289902841757L10.657541820461997,103.69043135476585L10.762906338361777,53.98379948976965L10.86827131426832,16.742149410415777L10.876858244956578,15.454545454545467L10.973636748181626,39.22540662330496L11.07900264011056,88.86495690109669L11.18436899005512,135.4821130640842L11.289735798010877,160.61772992360946L11.395103063991126,168.955696248092L11.500470787991436,169.98611699240075L11.611699988022067,170L11.717068628075802,170L11.822437726158462,170L11.927807282278916,170L12.033177296432731,170L12.138547768619906,170L12.24391869884931,170L12.349290087125372,170L12.454661933448095,170L12.560034237821911,170L12.66540702294013,170L12.770780615654685,169.96191330844397L12.876154294190647,169.99065862349428L12.981528467098522,169.9999999537204L13.086903088991697,170L13.192278563885557,170L13.297654074670222,170L13.403030043528148,170L13.50840654309211,170L13.613783773102247,170L13.719161116184383,170L13.824538917348642,170L13.929917285544196,170L14.035296080049466,169.9762069129811L14.035296320645543,169.9762068586577L14.140675255473402,169.98152591439452L14.246054888983895,169.99609303340466L14.351435298362652,169.99999989043837L14.4568162657069,170L14.55736130675316,170L14.662742314554363,170L14.768123780459856,170L14.873505704469641,170L14.9837263261009,170L15.089109624441292,170L15.19449400281743,170L15.299878217388569,170L15.40526289008173,170L15.510648020901348,170L15.61603360984299,170L15.721419656911088,170L15.826806162114512,170L15.927350140906402,170L16.032737104245147,170L16.13812452571478,170L16.24351240532417,170L16.348900743082186,169.99923714405566L16.454289538979953,169.98857535599618L16.55967879302635,169.9795576927051L16.665068505216933,169.96726815144177L16.770458675565003,169.95577251415838L16.875849304070563,169.96022377857048L16.880698254994023,169.9609441074942L16.98124039072918,169.95945245339158L17.08663193554972,169.95811702754938L17.09148180279259,169.95767285719833L17.192023938527747,169.95865401093505L17.196874263945833,169.95838733457063L17.302267183265442,169.9706373119169L17.4076605607514,169.98280156007576L17.51305439641701,169.9979472915454L17.61844893084949,169.9999999669337L17.723845380661153,170L17.829240590856866,170L17.9346362592411,170L18.040032490219037,170L18.356223514672106,170L18.461621474016674,170L18.567019891563064,170L18.67241876730684,170L18.777818101265737,169.99523941929954L18.883217893426455,169.9869999291822L18.98861814379786,169.98205263554058L19.094018852384387,169.97767502469335L19.094018956794002,169.97767502203695L19.19942001918603,169.98089506345477L19.304821748616845,169.99002742578827L19.410224213184108,169.99363142516475L19.410289037938107,169.99363158633955L19.515626754648846,169.98994685034856L19.621029754342,169.9882480991946L19.621030099347696,169.98824809680673L19.726433212263576,169.98872135589858L19.831837473423697,169.99183349393576L19.937241847815415,169.99397962389563L20.04264668044441,169.996823113885L20.148073488771058,170L20.253479237883493,170L20.35888544523765,170L20.464292110837956,170L24.786344518692882,170L24.891770433109706,170L24.997196805892372,170L25.10262363704089,170L25.208050926555252,169.99763182512848L25.313478674439896,169.9951655730532L25.418906880699254,169.9939259005999L25.524335545333326,169.99491206283753L25.629764668346542,169.99725897496103L25.735260804060918,170L25.84069084383686,170L25.94612134200082,170L26.051552298548355,170L39.233981477689994,170L39.33947021250381,170L39.444959406047,170L39.55044905831954,170L39.65593916931704,169.99755803966084L39.761429739052744,169.99458426529603L39.86692076752669,169.99284820852137L39.97241225473887,169.9933721093216L40.07790420069815,169.99552266938846L40.18342808716519,170L40.288920950614234,170L40.3944142728148,170L40.49990805376691,170L46.30274861758996,170L46.40826809295901,170L46.513788027239194,170L46.61930842041719,170L46.72482927251075,169.99805743670998L46.83035058351544,169.99517850833362L46.93587235344011,169.99344551290972L47.041394582275906,169.99469290535967L47.1469172700317,169.99761176437738L47.25247602947511,170L47.35799963508419,170L47.463523699622115,170L47.56904822308891,170L53.90133207110782,170L54.0068845944217,170L54.1124375768329,170L54.21799101834586,170L54.3235449189517,169.99769815802568L54.429099278668154,169.99611853182253L54.53465409749079,169.99542702301594L54.64020937542404,169.9961110416798L54.74576511246792,169.9975769424598L54.851352331901964,170L54.95690898718037,170L55.062466101573825,170L55.16802367510006,170L61.079957301432955,170L61.18554104936691,170L61.291125256575505,170L61.39670992306761,170L61.50229504884323,169.9962536385516L61.60788063389792,169.9933940995193L61.71346667824499,169.99176586127007L61.81905318188443,169.99266422626673L61.92464014481625,169.99534121363223L62.03022756704045,169.9978817243016L62.13583811907603,170L62.24142645990271,170L62.34701526003507,170L62.4526045194731,170L68.68316937319969,170L68.7887861959168,170L68.89440347810803,170L69.00002121977339,170L69.10563942090846,169.99727771910398L69.21125808152209,169.99398051363227L69.3168772016143,169.99165215873757L69.42249678118952,169.99219717515408L69.52811682025217,169.9951596375816L69.64792471359658,170L69.75354613112597,170L69.85916800815609,170L79.45846395526083,170L79.56412765758155,170L79.6697918196424,170L79.77545644144782,170L79.88112152300221,169.99657190283972L79.9867870643056,169.98883688494806L80.09245306535355,169.98372553743675L80.1981195261638,169.9831472282951L80.30378644673188,169.9866598758194L80.4094540131749,169.9929369598093L80.51512185326756,169.99603385686882L80.62079088852498,169.99999991736465L80.62079309020605,169.99999993770987L80.72645964814666,169.9970104100771L80.83212886753508,169.99281323978778L80.9377985467035,169.99024026541335L81.0434686856431,169.99170129063867L81.14913928436272,169.99563922267754L81.25481250822703,170L81.36048402651556,170L81.46615600458412,170L81.57182844244599,170L82.20587272533018,170L82.31154833639417,170L82.41722445266468,170L82.52290102875068,170L82.62857806465217,169.99748381798335L82.73425556036916,169.99003215265287L82.83993351590605,169.9707982466275L82.94561193127174,169.94332795746948L83.0512908064618,169.93073666497318L83.05129088817365,169.93073665704702L83.15697014148061,169.9411320218326L83.26264998172815,169.9565806648225L83.36833027272982,169.97391350356858L83.47401156831496,169.9854301303106L83.57969274267555,169.99443112647307L83.68537437688265,169.99763369347454L83.79105647093627,169.99999991106478L83.89674121743838,170L84.00242423118503,170L84.10810770479152,170L84.21379163824895,170L84.9535920350314,170L85.05927964743833,170L85.16496771971836,170L85.2706562518804,170L85.3763452439377,170L85.48203469587257,170L85.58772460770271,170L85.69341497942371,170L85.79910581104,170L85.90479890476122,170L86.01049065617694,170L86.11618286750125,170L86.22187553872526,170L86.64465078644844,170L86.75034575725086,170L86.85604118797515,170L86.96173707862576,170L87.06743342920268,170L87.17313023971035,170L87.27882751015322,170L87.38452524053125,170L87.49022343084891,170L87.59592254414014,170L87.70162165434148,170L87.80732122449128,170L87.91302125458957,170L88.01641876807825,170L88.12211971808681,170L88.22782112804828,170L88.3314823528479,169.98781637574922L88.43718468273295,169.61375313606467L88.54288747257975,168.41784274914156L88.64859072240166,167.30483798377978L88.75429443218977,166.12882770820468L88.85999860195297,158.84915728728245L88.96570323168682,134.47334883548928L89.0714083214046,91.52090723731698L89.17711387110191,44.92949984069345L89.2828198807876,29.681167752610946L89.28345029925046,29.65472159916584L89.38852635045724,68.47390213110258L89.49423328011525,113.51465629980166L89.59994066976165,150.7099181123264L89.70564851940973,166.01344844028003L89.81135682905062,169.8771051401172L89.91769601715605,170L90.027121750271,170L90.1328314399258,170L90.23854158958228,170L90.34425219924931,170L90.44996326893575,170L90.55567479863274,170L90.66138678834913,170L90.76709923808939,170L90.87281214785348,170L90.97852551764142,170L91.08423937015982,170L91.18995405040992,170L91.29566880030043,170L91.40138401476321,170L91.5070997618959,170L91.61281626868482,169.98047072792718L91.61281628230347,169.98047072541118L91.7185328587372,169.98589431044243L91.82424990884006,169.99841237923616L91.92996749616123,169.9999999930464L92.03568577051472,170L92.14140420077332,170L92.24712324997544,170L92.3528426003571,170L92.45856241080251,170L92.56428268131167,170L92.67000377959687,170L92.77572504741914,170L92.88144706585399,170L92.98716917665801,170L93.09289195182322,170L93.19861498279019,170L93.30433847384754,170L93.41006271551744,170L93.51578712675104,170L93.62151207070774,170L93.72723827826375,169.9976899828399L93.83296406978165,169.99072035895472L93.93869032140321,169.97300190147814L94.04441703312841,169.95131676071966L94.15014420496613,169.93154335759465L94.25587183690746,169.9132788355633L94.25587195947529,169.91327882169753L94.36159992896133,169.92555070481137L94.46732848113214,169.95155075645727L94.57305757513176,169.97509433062996L94.6787870883968,169.99189143895728L94.78451781534388,169.99783784740123L94.8052746282894,169.99792693412385L94.89024820800019,169.9905907708731L94.99597906078674,169.98219149681933L95.10171037369909,169.9715407349646L95.20744214675055,169.9630868280933L95.22819711917067,169.96107936552954L95.31317437993225,169.9685546450115L95.33392889222213,169.9685535740513L95.4189071095739,169.97090645810744L95.52464053541117,169.97342052683848L95.63037414901906,169.97748412022167L95.73610844975236,169.99306183056183L95.8418429836562,169.99845365193613L95.94757809120118,169.99999977563536L96.05331552465745,170L96.15905143903183,170L96.26478781355861,170L96.37052464825553,170L96.89921572425231,170L97.00495531997893,170L97.11069537588901,170L97.2164358919825,170L97.32217686825946,169.99583079105787L97.4279183047287,169.9894711619162L97.53366020139026,169.98120940604025L97.63940255824856,169.97942169275356L97.7451453753036,169.98457553137925L97.85088876604408,169.99054382002976L97.95663266238566,169.9937383988387L98.06237686004864,169.9952840652609L98.16812235319419,170L98.27386747127726,170L98.37961304957035,169.99946709598382L98.48535908808236,169.99269561079512L98.59110558681326,169.99207715669127L98.69685254576751,169.99408335241097L98.80259996494512,169.99708049562327L98.90835901163558,170L99.01410735126872,170L99.11985615113406,170L99.22560541123603,170L104.40787874609151,170L104.51365102135023,170L104.61942375697416,170L104.72519695297214,170L104.83097060935305,169.99549082957256L104.93674472610803,169.99270976385912L105.04251930325037,169.9917074663834L105.04251963917697,169.99170747145368L105.14829434077122,169.98968314927998L105.14829467669782,169.98968314648755L105.25406983868386,169.99020658686496L105.35984613290603,169.99357506994616L105.35984651422811,169.99357508765831L105.46562255160227,169.9906959203898L105.57139943068587,169.98941638191977L105.67717715149666,169.99156338783285L105.78295495138158,169.99242976014068L105.88873321167605,169.99529184998286L105.99452775723316,169.99999827213003L106.10034577872005,170L106.20612542023424,170L106.31190552216239,170L108.11018641307291,170L108.21597480291345,170L108.32176365321672,170L108.42755296398272,170L108.53334273522918,169.99785091535514L108.63913296694281,169.99315066753644L108.74492365912803,169.9825376955714L108.85071481179816,169.97282248836387L108.9565064249443,169.96566201577346L108.9565065838285,169.9656620079626L109.0622984985709,169.96894212480694L109.16809103269127,169.97998591796014L109.27388418618072,169.99454870447542L109.37967764127531,169.99823397223525L109.48547264635974,169.99999973080068L109.59126702244629,170L109.69706185903546,170L109.80285715612726,169.99634189360594L109.90865291372167,169.99251445940584L110.01444913182316,169.99058290052884L110.12024581043613,169.99187161616217L110.2260429495606,169.99507598528828L110.33185168925324,170L110.43764974940956,170L110.5434482700951,170L110.64924725129215,170L112.02466773552683,170L112.1304731643414,170L112.23627905372064,170L112.34208540366457,170L112.44789221417764,169.99677710427122L112.55369948525983,169.99405149428253L112.65950721692,169.99135291675347L112.76531540915373,169.98978893529664L112.8711240619699,169.99027961400026L112.97693317536847,169.99285479913974L113.08274274934948,169.99621418387827L113.1885535647197,169.99999959301675L113.29436405988328,169.99617597540455L113.40017501563815,169.99130736147998L113.50598643198431,169.98827302740264L113.61179830893063,169.98994905821203L113.71761064648155,169.99470519243945L113.82343555614827,170L113.92924881490836,170L114.03506253427304,170L114.1408767142556,170L117.52716662452248,170L117.63299600619429,170L117.73882584856378,170L117.84465615163982,170L117.95048691542243,169.99696651366676L118.056318139916,169.99325730677404L118.16214982512058,169.99013380643584L118.26798197104499,169.98719779682264L118.37381457768926,169.98690875772022L118.47964764505339,169.98880070988946L118.58548117313735,169.992609892148L118.69131540254612,169.9980919347138L118.79715191304703,169.99999999869058L118.90298682332603,170L119.00882219433375,170L119.11465809871625,170L119.64384409597565,170L119.74968269219966,170L119.85552174918783,170L119.96136126693132,170L120.06720124543457,169.99566813596084L120.173041684702,169.98035764643947L120.27888258474248,169.95767317665116L120.3847239455427,169.931113991393L120.49056576712042,169.92956943514312L120.59640804947561,169.95091158961293L120.70225079260383,169.97770723861066L120.80809405098859,169.99464787939405L120.9139417740371,169.99999997387306L121.01978589951995,170L121.12563048578471,170L121.23147599133911,170L123.56018307191538,170L123.66603871790369,170L123.77189482474482,170L123.87775139244768,170L123.98360842100782,169.9937232940703L124.08946591042967,169.99098161084083L124.19532386071766,169.9895112704671L124.19532394242954,169.98951127021195L124.30118227187624,169.99032451412742L124.30118281208252,169.99032452880783L124.40704114390539,169.98984225928186L124.40704178398174,169.98984226523254L124.51290055852144,169.9838471640079L124.61876081079501,169.97099660973637L124.72462106545362,169.9583382699815L124.83048178099169,169.9440656355048L124.83048197619229,169.9440656158495L124.93634295741806,169.9573353424547L125.04220469460284,169.97588261478035L125.14806688813191,169.9872931194479L125.25392972414012,169.99433625454236L125.35979274412858,169.99706350948372L125.46565917572528,170L125.57152311751257,170L125.67738752020144,170L125.78325238380081,170L127.26540887078941,170L127.37128064829417,170L127.47715288675374,170L127.58302558616369,170L127.68889874652403,169.9959124728592L127.79477236784359,169.99447076925318L127.90064645011797,169.99410475345022L128.00652099336045,169.99482961064678L128.11239599756664,169.99660310487423L128.21828529020152,170L128.32416121634387,170L128.43003760346323,170L128.5359144515507,170L130.97119937854154,170L131.07708729085218,170L131.18297566420188,170L131.288864498595,170L131.39475379403606,169.99391719393648L131.50064355052504,169.9929913007788L131.60653376807076,169.99231490076116L131.71242444667328,169.99256852179923L131.71242487339083,169.99256852901092L131.81831558633252,169.99158325416573L131.92420761376616,169.99511450657144L131.92421542632928,169.9951148500718L132.03009967555226,169.99412928972183L132.13599219840847,169.9951096835108L132.24188518232143,169.99731870918865L132.34778769733583,170L132.45368160340223,170L132.55957597054757,170L132.6654707987674,170L138.70223700215698,170L138.80815857759666,170L138.91408061427487,170L139.0200031121916,170L139.12592607134687,169.99699291118657L139.23184949175396,169.99292722900614L139.33777337340845,169.99106187625938L139.44369771631477,169.9928289664669L139.54962252047292,169.99284517844427L139.65554827161904,169.99432808204557L139.6555490251841,169.9943280976255L139.76147399829415,169.99274062363867L139.8674001862344,169.99311663998034L139.9733268354353,169.9955602726013L140.07925468584781,169.99959786918728L140.07925469946647,169.9995978693722L140.1851822575923,169.99235179785418L140.29111029060635,169.9773738545125L140.3970387848944,169.95107901472304L140.50296774045646,169.94253646226633L140.5029677722333,169.94253646140191L140.60889715730139,169.94664053640676L140.71482703543356,169.97194544582092L140.8207573748442,169.98344169705882L140.92668852509624,169.9932147799594L141.0326197870903,169.99680141542493L141.13855766600847,169.99999967971655L141.24448985059487,170L141.35043310540695,170L141.45636621259456,170L145.9059626469385,170L146.0119155926495,170L146.1178689997852,170L146.22382286834562,170L146.32977719832635,169.99185353228012L146.4357319897362,169.98349641658555L146.54168724257525,169.97821823785875L146.54168729251026,169.97821823735384L146.64764295684785,169.9816875922844L146.75359913256293,169.99093524158008L146.8595558196422,169.99791356485815L146.96552266464857,169.99999999419146L147.07148022468218,170L147.1774382461626,170L147.28339702416508,170L155.0196125390414,170L155.12560517667237,170L155.23159827595418,170L155.3375918368868,170L155.44358585947464,169.9928395700564L155.54958034372214,169.98839319426014L155.65557528962935,169.98354623455074L155.7615706972007,169.97887004103026L155.8675665664406,169.97435509709965L155.97356289734898,169.9660101711946L156.0795599849966,169.9637130421419L156.07956016657855,169.96371304090826L156.1855572392554,169.96793496364134L156.2915549551872,169.98192083160424L156.39755331438278,169.98850888327735L156.50355233953545,169.99024568572682L156.51765076114557,169.99049160663057L156.60955144051718,169.9890860460733L156.71555100318523,169.9907268816312L156.8215513952474,169.9890530012263L156.8215517674904,169.98905300397294L156.92755188129686,169.98679524425336L157.03355282905034,169.98404948234017L157.03355320129333,169.98404947497085L157.13955423849896,169.9863802506174L157.2455564818857,169.98954728306987L157.35155881474233,169.99151159487297L157.35155934132996,169.99151160689348L157.45756160929855,169.98952285711286L157.45756213588618,169.98952284867116L157.56356486556763,169.99024051210665L157.66956911013284,169.9927960641473L157.7755732898321,169.99329378723903L157.88157793124867,169.99459788540213L157.98758685213855,169.9991408742654L158.1136397899407,170L158.2196458165181,170L158.32565230483053,170L160.6378644973897,170L160.7438816061933,170L160.84989917678513,170L160.9559172091741,170L161.06193570335572,169.99577250667787L161.16795465934334,169.99272090672122L161.2739740771369,169.99168243125305L161.37999395673202,169.9933105116356L161.4860142981331,169.99608538455473L161.59271433585218,170L161.69873560087854,170L161.80475732772857,170L161.91077951639346,170L166.16545988859758,170L166.25808691135418,170L166.36412849886233,170L166.47017054830062,170L166.57621305967785,170L166.68225603299405,169.99456094916926L166.78829946825363,169.87966484448575L166.89434336546108,169.5635119048185L167.00038772461193,169.06379392987986L167.10643254571943,167.44684948559055L167.21247782877927,162.67482373541358L167.3185235737913,153.28376855891327L167.42456978076453,142.710463908525L167.53061644970333,137.37809358742427L167.5348157273582,137.338999705729L167.6366635805988,144.6858248216609L167.74271117346427,155.0512530898806L167.8487592282997,164.4274746350382L167.95480774510966,168.86028833005687L168.06085672389398,169.94968667908827L168.16623520121604,170L168.27228510395366,170L168.37833546867907,170L168.48438629539217,170L168.59043758408856,170L168.69648933478157,170L168.80254154746234,170L168.9085942221441,170L169.01464735882246,170L169.12070095750187,170L169.22675501819117,170L169.3328096861515,170L169.4388649840806,170L169.5449204307996,170L169.65097633952848,170L169.75703279198802,169.99470575477292L169.7570330325841,169.99470574276273L169.8630896247589,169.99565929263184L169.96914716014462,169.9993319554713L170.075205171181,169.99999999436702L170.1812633900259,170L170.28732247492712,170L170.39338161784056,169.9895436742131L170.49944122279055,169.9757610954987L170.60550128978142,169.9543001476042L170.71156181880878,169.95221356333812L170.7115622773032,169.95221354898706L170.81762309587754,169.95744840100159L170.9236845490045,169.97611796887688L171.0297466366797,169.9905604179406L171.13580901390625,169.99755604596248L171.24187260221257,170L171.34793590355204,170L171.4539996669546,169.99771108676126L171.56006389242026,169.9912674911474L171.666128579949,169.98511831130108L171.77219387027574,169.980549596633L171.77219407001587,169.98054958802928L171.8782594819484,169.9831997264373L171.98432575543762,169.98662804897015L172.09039229125867,169.99600255790418L172.19645928916052,169.99767109320337L172.3025271940234,169.99999972862008L172.4085951160958,170L172.5146638543338,170L172.6207327005856,170L172.72680200892705,170L172.83287264641646,170L172.93894287895063,170L173.0450135735878,169.99679140762433L173.15108473032794,169.99513496870196L173.25715634917998,169.99368655513038L173.363228430135,169.99300284272786L173.46930097320188,169.9939708780813L173.57537397838504,169.99642849990065L173.68145823619153,170L173.78753216561614,170L173.89360655715709,170L173.99968141082758,170L182.80550549937647,170L182.91161918115384,170L183.01773332529132,170L183.12384793178006,170L183.2299630006289,169.9965857562728L183.3360785318467,169.9948768468847L183.44219452542023,169.98768894438277L183.54831098136276,169.97063040182556L183.65442789967423,169.95292387757507L183.76054551641565,169.931131672235L183.866663359474,169.91856106547982L183.86666359099095,169.91856103810113L183.9727816921519,169.92489801383817L184.04026467870165,169.9387634362223L184.13056459954456,169.96241987553586L184.1850197764225,169.97919743654543L184.2366838297453,169.984719458558L184.2911397096016,169.99053971349025L184.34280352232832,169.99274450182895L184.39725986458464,169.99506795366284L184.44892367731134,169.9974687568657L184.50338314666055,169.99999947346495L184.60950506624238,170L184.7156370992957,170L184.8217591038522,170L185.88299325125013,170L185.9891203423753,170L186.0952478959359,170L186.20137591192756,170L186.3075043903547,169.99506620607863L186.4136333312218,169.99209338222914L186.51976273452877,169.99139216935743L186.62589260028454,169.99335413083207L186.7320229284891,169.99648915985853L186.83815455895447,169.99999968227218L186.94428581206103,170L187.05041752762074,169.9976624736824L187.15654970564262,169.99576592995177L187.2626823461221,169.9948040188785L187.36881544906365,169.99545453065429L187.47494901447615,169.99720936346094L187.5811079100024,170L187.68724240035237,170L187.79337735317773,170L187.8995127684873,170L195.64863215588886,170L195.7548018019617,170L195.8609719107094,170L195.96714248214084,170L196.07331351625157,169.99503648893818L196.17948501305048,169.9897888108977L196.28565697254646,169.98698573825268L196.39182939472613,169.99296569227667L196.4980022796073,169.99638917078022L196.604176181006,169.99388399962442L196.71034999127681,169.99202009463647L196.81652426425794,169.97772308446142L196.92269899994056,169.96419792829676L197.0288741983335,169.9572545168876L197.02887442531096,169.9572545009655L197.13504985943678,169.97187689411848L197.24122621023227,169.98460596055307L197.30852375622177,169.99126522041382L197.41470034275017,169.99629520354495L197.5208773920022,169.9998078311759L197.62705490397786,170L197.739041612432,170L197.84522004985493,170L208.49853294797776,170L208.60475859769474,170L208.71098471041904,170L208.81721128615072,170L208.92343832488976,169.99743412378533L209.02966582664058,169.9949855709334L209.13589379140765,169.9933492836934L209.24212221919535,169.99368960195739L209.3483511099993,169.99536679813863L209.45458112206288,169.99999998554688L209.56081093891257,169.99512916931144L209.66704121879621,169.99137460195274L209.77327196170936,169.9894385893408L209.87950316766094,169.99043646359692L209.87950349904796,169.99043647357263L209.98573483664202,169.98671371586744L209.98573516802904,169.9867137119186L210.09196730005294,169.9912271904027L210.19819989511967,169.99241308120972L210.1982003717723,169.9924130935594L210.3044329532248,169.9923075876229L210.3044334298774,169.99230758731596L210.4106664743816,169.99253702830538L210.5169009352427,169.9882027703466L210.57134099970625,169.9899725831986L210.6231353825029,169.99099718691224L210.62313582737866,169.99099720347036L210.67757544696644,169.98993892981437L210.72937029281476,169.9889320689787L210.72937073769054,169.98893206094232L210.78381035727833,169.98932443758127L210.8356056661872,169.9896977552014L210.89004573065077,169.98914675939548L210.94184194749596,169.98862252888574L210.99810995199397,169.98948256058233L211.04807824699392,169.98995459996414L211.10434625149193,169.99166705096516L211.15431500955688,169.9931877917581L211.2105830140549,169.99507059635792L211.26055223518486,169.9967426350278L211.31682023968287,169.99846782743447L211.36679280650003,170L211.4730309582757,170L211.57926957312964,170L211.68550865106633,170L213.06665880565302,170L213.17290436698278,170L213.2791503914307,170L213.38539687900123,170L213.4916438296944,169.99407540982233L213.5978912435235,169.99109041097836L213.70413912047965,169.99092372144037L213.81038746056726,169.99334682223602L213.91663626379082,169.99652044966692L214.02290969871143,170L214.1291594282157,170L214.23540962086474,170L214.34166027665856,170L233.47432333638324,170L233.5806578661094,170L233.68699285946798,170L233.79332831646786,170L233.8996642371135,169.99600464079722L234.00600062140487,169.9937987490888L234.11233746933752,169.9929642809485L234.21867478092474,169.99377845564223L234.3250125561622,169.99566737314902L234.43135242930057,170L234.5376911318516,170L234.64403029807056,170L234.75036992794853,170L234.96305057871265,170L235.06939159960316,170L235.17573308416604,170L235.28207503240125,170L235.38841744432207,169.9969290238022L235.49476031992856,169.99280378357335L235.60110365921622,169.98992269384422L235.70744746219393,169.9904352724458L235.8137917288617,169.99364516501151L235.92013645922398,169.9971024829794L235.9201371310772,169.9971024924741L236.0264823251384,169.99571725736243L236.12516605138893,169.99377268897388L236.2315117091446,169.99156912605497L236.2391741043532,169.991418158634L236.3378578306037,169.9920255904013L236.44420441576614,169.99448154785375L236.5582175162031,170L236.6645654924978,170L236.7709139325047,170L236.87726283622828,170L237.72807076020698,170L237.8344238375135,170L237.94077737856776,170L238.04713138336967,170L238.1534858519193,169.9969259375085L238.2598407842255,169.99371308620542L238.36619618028382,169.99200285389452L238.4725520400987,169.99271690574795L238.578908363679,169.99509670055465L238.75225821133148,170L238.8586154624382,170L238.96497317731925,170L239.0713313559701,170L244.70923879593423,170L244.7999743979856,170L244.84705017973403,170L244.9063580882435,170L244.9534338699919,170L245.01274224241757,170L245.059818024166,169.99934589070057L245.11912686051664,169.99783163097993L245.16620264226503,169.989151457269L245.22551194254962,169.95903334604154L245.27258772429803,169.86783191288083L245.3206689346197,169.74012942535967" style="stroke: #2ca02c;"></path></g></g></svg>
