<svg width="300" height="220"><g transform="translate(40,10)"><g class="x axis" transform="translate(0,170)"><g class="tick" transform="translate(69.52741517536299,0)" style="opacity: 1;"><line y2="6" x2="0"></line><text y="9" x="0" dy=".71em" style="text-anchor: middle;">467</text></g><g class="tick" transform="translate(147.51626626503125,0)" style="opacity: 1;"><line y2="6" x2="0"></line><text y="9" x="0" dy=".71em" style="text-anchor: middle;">468</text></g><g class="tick" transform="translate(225.50511735469956,0)" style="opacity: 1;"><line y2="6" x2="0"></line><text y="9" x="0" dy=".71em" style="text-anchor: middle;">469</text></g><path class="domain" d="M0,-170V0H250V-170"></path><text y="20" x="125" dy=".71em" style="text-anchor: middle;">m/z</text></g><g class="y axis" transform="translate(0,0)"><g class="tick" transform="translate(0,170)" style="opacity: 1;"><line x2="-6" y2="0"></line><text x="-9" y="0" dy=".32em" style="text-anchor: end;">0.0</text></g><g class="tick" transform="translate(0,139.0909090909091)" style="opacity: 1;"><line x2="-6" y2="0"></line><text x="-9" y="0" dy=".32em" style="text-anchor: end;">0.2</text></g><g class="tick" transform="translate(0,108.18181818181819)" style="opacity: 1;"><line x2="-6" y2="0"></line><text x="-9" y="0" dy=".32em" style="text-anchor: end;">0.4</text></g><g class="tick" transform="translate(0,77.27272727272728)" style="opacity: 1;"><line x2="-6" y2="0"></line><text x="-9" y="0" dy=".32em" style="text-anchor: end;">0.6</text></g><g class="tick" transform="translate(0,46.36363636363636)" style="opacity: 1;"><line x2="-6" y2="0"></line><text x="-9" y="0" dy=".32em" style="text-anchor: end;">0.8</text></g><g class="tick" transform="translate(0,15.454545454545467)" style="opacity: 1;"><line x2="-6" y2="0"></line><text x="-9" y="0" dy=".32em" style="text-anchor: end;">1.0</text></g><path class="domain" d="M250,0H0V170H250"></path><text transform="rotate(-90)" x="-85" y="-30" style="text-anchor: middle;">Normalized Intensity</text></g><g class="filename"><path class="profile line" d="M0,170L0.06413012961767763,170L0.16946213584670122,170L0.27479459989186095,170L0.6961290479367367,170L0.8014637874971291,170L0.9067989985056029,170L1.0121346673523786,170L1.117470794037456,169.99316485024767L1.2228073785652687,169.97137215722756L1.3281444209446827,169.95582281904436L1.4334819211623984,169.9461506291591L1.4334819347810441,169.94615062790862L1.5388198792361485,169.96089356059852L1.6441582951526341,169.98175779260447L1.7494971825482328,170L1.8548368546562317,170L1.9601766441496868,170L2.065516891512476,170L2.1708581914121665,170L2.276199354504757,170L2.381540975475548,170L2.48688305431124,170L2.5922297447121,170L2.6975727393086255,170L2.8029161917833516,170L2.908260102140711,170L4.172421267042721,170L4.277771130140304,170L4.383121451155986,170L4.488472230098632,170L4.593823466968244,170L4.699175161769253,170L4.804527314492794,170L4.909879925165467,170L5.015232993765104,170L5.120587923029955,170L5.225941907514555,170L5.331296349943851,170L5.436651227624535,170L5.542006581416977,170L5.647362397698099,170L5.7527186719372185,170L5.8580754041343335,170L5.96343259429388,170L6.06879024242029,170L6.174148348509129,170L6.279506912564831,170L6.384695637970112,170L6.484068890141984,170L6.589428828120442,170L6.6947892240879305,170L6.799674676073864,169.85670358094268L6.905035988001678,168.89804528315102L7.01039775791852,167.42503982786096L7.115759985824391,166.72543799379753L7.221122671728159,162.96176627767167L7.326485815625388,147.4243711415204L7.431849417520512,107.52135669352228L7.537213477417964,57.24838269542528L7.642577995317746,16.884017152141183L7.652863972367314,15.454545454545467L7.7479429712242895,32.064312977811994L7.853308405137595,80.88722857895267L7.958674297066528,129.00728154359174L8.064040647011089,157.73091643831077L8.169407454966844,168.17463223800735L8.274774720947095,169.94474033403932L8.386777667078414,170L8.49214584910322,170L8.597514489156953,170L8.702883587239615,170L8.80825314336007,170L8.913623157513882,170L9.01899362970106,170L9.124364559930461,170L9.229735948206525,170L9.335107794529247,170L9.440480103442612,170L9.545853229026974,170L9.651226449498544,170L9.75660021882548,170L9.861974364496064,170L9.967349063561562,169.93895906065634L9.967349345013576,169.93895889761853L10.072724397729417,169.9435174084098L10.178099908514083,169.99034516826882L10.283475995400272,169.9999999604872L10.388852744639406,169.9744628760116L10.49422962964385,169.98624739611802L10.599606972725987,169.99601979190047L10.704984882839414,169.9999999833681L10.81036316932309,170L10.915741886656035,169.97709130121524L10.915742281596762,169.977091215358L11.021121379848374,169.99132167868595L11.126501090531194,169.9989596265207L11.231881649715051,169.99999999529427L11.33726219942083,170L11.442643207222032,170L11.548024673127525,170L11.653407073789912,170L11.723653496930838,170L11.829035879044913,170L11.934418719272145,170L12.039802017612537,170L12.180323806096803,170L12.285708719386042,170L12.39109385020566,170L12.4964794391473,170L12.601865486215402,170L12.707252440834136,170L12.777497933367597,170L12.882884896706344,170L12.988272318175978,170L13.09366019778537,170L13.199048535543383,169.99647665480492L13.304437331441154,169.98156956682809L13.409826585487547,169.95423234728366L13.51521629767813,169.9256768918544L13.620606468026201,169.90835615687203L13.725997096531762,169.91316798718933L13.831388183190377,169.92997240383127L13.936779728010915,169.9460732870486L14.042171730988942,169.96005949646593L14.18271304888614,169.98401396423478L14.288106444530293,169.98958161451372L14.393500280195907,169.99456855511383L14.49889505522446,169.99999993192372L14.60428980724495,170L14.70968501744066,170L14.815082006833535,170L14.920517214375746,170L15.025874718163129,170L15.131271761117357,170L15.236669262264542,170L15.34206722160911,170L15.4474656391555,169.9941755897606L15.552864514899277,169.98392877099192L15.658263848858173,169.97818821537413L15.76366364101889,169.97794008387675L15.869063891390297,169.98152858502644L15.974464599976823,169.99014154382044L16.079866020993187,169.99232079941552L16.079866484027143,169.99232081242204L16.185267646014385,169.9868999875977L16.18526810904834,169.98689997150558L16.290670192293526,169.98787951523755L16.290670723420714,169.9878795387509L16.39607273375826,169.98782730890503L16.501475733451418,169.9916854057158L16.606879191372993,169.99241074427437L16.606879722500178,169.992410742392L16.712283638654608,169.9935321015278L16.81768801304632,169.9875177311821L16.923092845675317,169.9899120084361L17.028498136541604,169.99222437253658L17.133903885654043,169.9954789238577L17.239374777036186,170L17.344781442636492,170L17.45018856649182,170L17.555596148602167,170L51.626211949552015,170L51.73176814571094,170L51.83732480098934,170L51.9428819153828,170L52.04843948890904,169.9951091289924L52.15399752155476,169.9907196804848L52.2595560133244,169.98930211319157L52.365114964231246,169.99214231364135L52.47067437427088,169.99654833185545L52.57626365971822,170L52.681823988036726,170L52.78738477548801,170L52.8929460220898,170L57.53807242757596,170L57.643654338424646,170L57.749236708543535,170L57.85481953792819,170L57.960402826587504,169.99443104955682L58.06598657452147,169.9887889250984L58.17157078173006,169.9848665791216L58.27715544822217,169.98576523978903L58.38274057399778,169.99060052229265L58.48833156565485,170L58.593917610001924,170L58.69950411364137,170L58.80509107657319,170L62.606527654013284,170L62.71213161267371,170L62.8177360307329,170L62.92334090818644,170L63.02894624504318,169.99461153769477L63.134552041294256,169.98792002107743L63.24015829695741,169.98364968104406L63.34576501203262,169.98525877725947L63.45137218651105,169.9911832725424L63.556997511026864,170L63.66260560433387,170L63.76821415706181,170L63.87382316921511,170L76.65590281095841,170L76.7615678925128,170L76.8672334338162,170L76.97289943486415,170L77.07856589567439,169.9960475578815L77.18423281624248,169.99357699022642L77.28990019656399,169.99208423631814L77.39556803665667,169.98790646124655L77.5012363365072,169.98254032424552L77.6069050961289,169.97852814623096L77.60690541843684,169.97852813571228L77.7125743155173,169.98013906560126L77.81824431699368,169.9890034932872L77.92391445593329,169.9948820025461L78.02958734258539,169.99999998285068L78.13525840108503,170L78.24093027345836,170L78.3466022515269,170L78.98064337614429,170L79.08631857279269,170L79.19199422925216,170L79.29767034552266,170L79.40334692160867,169.9972519163265L79.50902395751017,169.98262290418995L79.61470145322714,169.96982898314565L79.72037940876405,169.95544508192842L79.82605782412973,169.95745807168495L79.93173669931977,169.97797443910704L80.03741603433862,169.99727564467844L80.14309622867094,169.99999998583988L80.24877648335621,170L80.35445719787913,170L80.46013837223971,170L80.56582055573219,170L80.67150264978581,170L80.77718520368596,170L80.88286821743262,170L80.98855169103909,170L81.09423976456486,170L81.19992415788211,170L81.30560901105918,170L81.41129432410493,170L81.72835072543386,170L81.83403787795436,170L81.93972549036128,170L82.04541356264131,170L82.15110209480335,170L82.25679108686067,170L82.36248053879552,170L82.46817045062566,170L82.57386082234666,170L82.6866224594007,170L82.79231375092114,170L82.89800550233686,170L83.00369771366115,170L83.8421834072804,170L83.94787975785734,170L84.05357656836502,170L84.15927383880786,170L84.26497156918592,170L84.37066975950357,170L84.47636840976085,170L84.58206751996217,170L84.68776709011199,170L84.79129134180394,170L84.8969918318507,170L85.00269278185927,170L85.10839419182074,170L85.21409606174399,169.9828780885745L85.31979839162902,169.2204755296585L85.42550118147585,167.79201963109008L85.53120443129775,166.59747811286027L85.63690814108585,160.68647130789248L85.74261231084905,140.6403200463368L85.84831694058289,99.68364872302189L85.95402203030068,53.826181969116234L86.059727579998,29.397173509790946L86.06747788776784,29.205533063575672L86.16543358968369,60.06375585381964L86.27114005935333,105.31884077116672L86.37684698901134,145.3179336285407L86.48255437865774,164.01730857735464L86.58826222830582,169.72554881853668L86.69614962114441,169.99772370478968L86.80185839078699,170L86.90756762043125,170L87.01327731008605,170L87.11898745974253,170L87.22469806940956,170L87.33040913909599,170L87.43612066879298,170L87.54183265850939,170L87.64754510824964,170L87.75325801801372,170L87.8589714286576,170L87.96468558532577,169.96137828097093L87.96468561256306,169.9613782710186L88.07039987517469,169.9899746192936L88.17611465230249,169.99744336701613L88.24059662044563,169.99900279973068L88.28182995755624,169.99999998726506L88.28183001203082,169.9999999885824L88.34631183036885,169.9672874295272L88.38754597706185,169.9463687432305L88.45202750032921,169.96079654210962L88.49326210706823,169.9700228224876L88.5577436303356,169.9876399035748L88.59897869712061,169.99890578996315L88.70469620571787,169.9999999988254L88.81041371586672,170L88.91613168607044,170L89.02185011632906,170L89.12756909743796,170L89.23328878828576,169.9839629482747L89.23328882460214,169.98396294276537L89.33900859873116,169.99030437987025L89.44472886924032,169.99598210159357L89.55045006739559,169.9999999723964L89.65617125804553,170L89.76189290877696,170L89.86761501958097,170L89.97333759046649,170L90.07906134776125,170L90.18478483881857,170L90.29050878995739,170L90.35498822957194,170L90.39623320119095,170L90.46071264080553,170L90.5019580725149,170L90.56643751212945,170L90.60768340393801,170L90.67216284355258,169.9978577460325L90.71341002165379,169.99506040828172L90.7778886350705,169.98725745955366L90.81913627327535,169.97610132837806L90.88361488669206,169.95681728372426L90.92486298500053,169.9438280613293L90.98934159841724,169.92323779416674L91.03059015683824,169.9098554253615L91.09506877025495,169.89583517411205L91.13631778877959,169.89512900238137L91.13631780239824,169.89512900214828L91.2007964021963,169.90239517901693L91.24204588083346,169.91625235998035L91.30652449425017,169.9379405323067L91.34777443300425,169.9519043989656L91.41225304642097,169.9725200206367L91.453503445292,169.98300462878012L91.51798205870871,169.99129962697342L91.5592329721757,169.99375599351137L91.559233653108,169.9937560340589L91.62023824985177,169.99015502559843L91.66496358563406,169.98657151307975L91.72596818237783,169.98168366299822L91.77069397829037,169.97495478289105L91.83169857503414,169.96577679937832L91.87642483107692,169.95777759847869L91.93742942782069,169.946867049101L91.98215614398926,169.94478032996471L92.04316074073304,169.93757451462372L92.08788814401817,169.9430326904217L92.1488925137845,169.9479027135859L92.19362037719986,169.95145892184905L92.2546247469662,169.95605143675516L92.29935307052511,169.95804697062357L92.36035744029147,169.97665054627845L92.40508655537651,169.9830221720173L92.51082016898442,169.99014956735365L92.61655424274029,169.99535935086234L92.7222893622459,169.99999885625735L92.82802435630215,170L92.93375981051526,170L93.03949572488962,170L93.14525820182085,170L93.25099503651776,170L93.35673233137595,170L93.46247008639985,170L93.67392249972532,170L93.77966163526851,170L93.88540123099513,170L93.99114128690519,170L94.09688180299871,169.99554860202267L94.20262277927564,169.99304736695754L94.3083642157449,169.99128464050253L94.41410611240646,169.99129705632777L94.51984846926474,169.9933167906577L94.62559128631979,169.99610760954127L94.73133558950954,170L94.83707932696692,170L94.9428235246299,170L95.0485681824985,169.99612217030364L95.15431330058156,169.99397508529637L95.26005887887466,169.99213587127477L95.36580491738667,169.99199559077692L95.47155141611759,169.99393767404408L95.57729837507182,169.99679202094046L95.68304980267084,170L95.78879768207176,170L95.89454602170488,170L96.00029482157022,170L98.4326442487412,170L98.53840409498626,170L98.64416440152561,170L98.74992516837253,170L98.85568639551815,169.9961924541008L98.96144808297132,169.99444440027344L99.06721023074094,169.9935435905257L99.17297283881369,169.99438247078834L99.27873590720732,169.99670439437236L99.3845113295347,170L99.49027531856562,170L99.5960397679174,170L99.7018046775945,170L105.20220980482898,170L105.307999115595,170L105.41378888684146,170L105.51957911855509,170L105.62536981074031,169.9937114854137L105.73116096341042,169.9869818181123L105.83695257655656,169.98150819003092L105.94274465018316,169.97569834420963L106.04853718430353,169.98637582231035L106.15433017890878,169.9906562508029L106.26012412427461,169.98807628201584L106.26013560025348,169.9880762839883L106.3659180398674,169.98534958747877L106.47171241595393,169.9870430744561L106.5775072525431,169.9917480249148L106.6833025496349,169.99625334950247L106.78910990577599,170L106.89490612387746,170L107.00070280249044,170L107.1064999416149,170L109.53995373169614,170L109.64576192392988,170L109.75157057674605,170L109.85737969014463,170L109.96318926412563,169.9967638401562L110.06899929869348,169.9937113304109L110.17480979385708,169.99180708002328L110.28062074961194,169.99262344977865L110.3864321659581,169.9955209549746L110.49225163302968,170L110.5980639705806,170L110.70387676873166,170L110.80969002749174,170L116.41845174440695,170L116.52428987988449,170L116.63012847610848,170L116.73596753309666,170L116.84180705084016,169.9942086146274L116.9476470293434,169.9722984067631L117.05348746861083,169.94599413269998L117.1593283686513,169.9157055162215L117.26516972945153,169.90405150306682L117.26516988379618,169.90405149143126L117.37101155102923,169.9235513188327L117.47685395141269,169.9610250194919L117.58269673085732,169.98898697430442L117.68853997562341,169.99796784086448L117.79438887895458,169.99999968715923L117.90023300443741,170L118.00608423206178,170L118.11193893928119,170L121.3933474773174,170L121.49920727109658,170L121.6050675257552,170L121.71092824129326,170L121.81678941771963,169.996181873207L121.92265105503432,169.99158795767036L122.0285131532329,169.98193007044313L122.13437571232863,169.98082021641974L122.24023873231711,169.98496965218936L122.34610239932871,169.99164273534757L122.45196634111598,169.99581067527353L122.55784607386049,170L122.66371093745984,170L122.76957626196524,170L122.87544204738113,170L127.74575777928085,170L127.8516452305436,170L127.95753314285425,170L128.06342151620393,170L128.16931035059707,169.9948476630797L128.27519964603812,169.98954615883187L128.38108940252707,169.98608590167757L128.48697962007282,169.9868495334215L128.59287029867534,169.99112538629186L128.6987614383346,169.99587191699445L128.8046678515977,170L128.91055991338382,170L129.01645243624003,170L129.12234542015295,170L135.90044941360895,170L136.00637237276422,170L136.11229579317134,170L136.2182196748258,170L136.32414401773212,169.99653448298506L136.4300688218903,169.99172607982672L136.53599408730472,169.98946104472338L136.64191981397983,169.99135044067182L136.74784600192007,170L136.85377327757868,169.995119223187L136.95970038804475,169.9907298164531L137.06562795978925,169.96926610004124L137.17155599280332,169.94634925362647L137.27748448709139,169.93407606617498L137.2774845824219,169.93407605628772L137.3834134426534,169.9350575893246L137.38341370594722,169.93505758523702L137.48934295482883,169.9419185350506L137.59527300092432,169.95634839121365L137.70120334033498,169.97195933990926L137.80713422275366,169.99141005912574L137.9130694069177,169.99925393333666L138.01900113020795,170L138.12493331479436,170L138.23087862148242,170L140.45555808920548,170L140.56150088435726,170L140.66744414086725,170L140.7733878587443,170L140.87933203798843,169.99289226126635L140.9852766785997,169.98601593982815L141.09122178058692,169.98138063731372L141.19716734394123,169.98275067722565L141.3031133686759,169.9890634799776L141.409059854791,169.9950489547439L141.51500803250414,169.9999993089547L141.6209554413933,170L141.72690331166288,170L141.83285164332167,170L141.93880043637418,169.99524290863198L142.04474969082926,169.99251704812556L142.150699406678,169.98953085156995L142.25664958392932,169.98776577667564L142.36260022258318,169.98877263907636L142.46855132264403,169.99234098390528L142.5745028841119,169.99633340505903L142.68045593293357,169.99999966698894L142.7864084172287,170L142.89236136293968,170L142.99831477007538,169.99564706831006L143.10426863863583,169.98691190740544L143.2102229686165,169.97879771977074L143.3161777600264,169.97645936647723L143.316177864436,169.97645936633683L143.4221330128654,169.98146619500955L143.52808883154765,169.99128199262725L143.63405517585159,170L143.74001181299582,170L143.84596891159137,170L143.95192647162494,170L151.58208299381855,170L151.6880742465148,170L151.794065960853,170L151.90005813682876,170L152.0060507744597,169.99683148939246L152.1120438737415,169.992954823436L152.2180374346741,169.99060233553345L152.32403145726198,169.99169080936838L152.4300259415095,169.99520835372138L152.53602153657215,169.9999999969219L152.64201694414348,169.98920723013515L152.74801281338335,169.9782159285661L152.85400914429175,169.9718832997749L152.96000593686873,169.97174791293955L153.06600319112755,169.97842258203312L153.17200097515254,169.99105123077118L153.27800103667886,169.99999988936258L153.38399967596987,170L153.48999877695167,170L153.59599833961968,170L154.02000120722997,170L154.12600307837374,170L154.23200541123035,170L154.3380082057866,170L154.44401146205567,169.9967620220411L154.5500151800332,169.9930996857789L154.65601935973248,169.99089661379335L154.7620240011491,169.99224256343632L154.86802910427855,169.99584953175676L154.98663761363508,170L155.09264364021243,170L155.1986501285249,170L155.3046570785679,170L155.50407095826523,170L155.61007929351342,170L155.7160880905055,170L155.8220973492415,170L155.92810706972583,169.99046402620385L156.03411725195406,169.98420634597252L156.14012789594395,169.9827356234275L156.2461390016822,169.98703936608618L156.35215056918207,169.9937305371154L156.497489547771,170L156.60350203879418,170L156.70951499157894,170L156.81552840613426,170L157.41229367968307,170L157.518310326694,170L157.6243274354976,170L157.73034500608946,170L157.83636303847842,169.99398333407976L157.94238153266005,169.9914895903313L158.04840048864762,169.99086228115098L158.1544199064412,169.99273703420502L158.26043978603633,169.9957726157389L158.3757535730417,170L158.48177437626208,170L158.58779564128838,170L158.69381736813844,170L163.14714695176409,170L163.25318853927223,170L163.3592305887105,170L163.4652731000877,170L163.57131607340392,170L163.67735950866353,169.83633025174424L163.78340340587096,169.21629334393842L163.8894477650218,167.87500395834232L163.99549258612933,164.41199385687284L164.10153786918912,156.34203163327692L164.2075836142012,146.68185469191243L164.31362982117443,139.29739140957204L164.32817675926526,138.95297008525196L164.41967649011318,143.58662070758885L164.52572362100867,153.43147904702516L164.63177121387412,162.98315458513542L164.73781926870961,168.34575274497203L164.8438677855195,169.91820134841538L164.92943308337195,170L165.0354820621563,170L165.1415315029195,170L165.24758140565714,170L165.57693574968766,170L165.68298790335427,170L165.78904057803604,170L165.89509371471442,170L166.00114731339383,170L166.10720137408313,170L166.2132558967779,170L166.31931088147815,170L166.42536632819713,170L166.53142223692603,170L166.63747969716536,170L166.74353652993622,170L166.84959382472587,170L166.95565158154756,170L167.06170980039244,170L167.1677684812738,170L167.2738276241873,170L167.37988722913724,170L167.48594729612813,170L167.5920078251555,170L167.69807188950708,170L167.80413334263406,170L167.91019362356892,170L168.01625600079544,170L168.12231884007625,170L168.22838214141572,170L168.33444590481827,169.99388710850957L168.44051013028394,169.98357210065865L168.54657481781268,169.9746662046471L168.6526399674134,169.971612211895L168.7587055790861,169.98665152265082L168.86477165283517,169.99235741713125L168.9708381886562,169.99697043384379L169.07691781558225,170L169.1829852755694,170L169.28905319764178,170L169.39512158179502,170L169.50117943326006,170L169.60724874160155,170L169.71331851203718,170L169.81938874457134,170L169.9254594392085,169.99446528178856L170.03153059594865,169.99263005738416L170.13760221480067,169.9917455526682L170.24367429575568,169.99246351365298L170.34974683882257,169.99480125337615L170.45583076615966,170L170.56190423345913,170L170.66797816288377,170L170.77405255442469,170L179.6859514966441,170L179.79206517842144,170L179.89817932255892,170L180.00429392904766,170L180.1104089978965,169.99048702753825L180.21652452911437,169.9669611298884L180.32264052268786,169.94287298445428L180.42875697863036,169.92734542519014L180.4287570558027,169.92734541601703L180.53487389694183,169.93817179975028L180.64099135025953,169.9656020875439L180.7471091978574,169.99025798785294L180.85324122635345,169.9999999843156L180.95935999417188,170L181.0654792243726,170L181.17159891695565,170L184.46153005648168,170L184.56766454683165,170L184.67379949965698,170L184.7799349149666,170L184.88607079274712,169.9964152053725L184.9922071330075,169.99298690756228L185.09834393576097,169.99032596936317L185.20448120099866,169.9904399325229L185.3106189287295,169.99338680417475L185.41675711895346,169.9970408024538L185.52290487346542,170L185.62904398868002,170L185.73518356640105,170L185.8413236066196,170L192.63524789909937,170L192.74141800784707,170L192.8475885792785,170L192.95375961338925,170L193.0599311101882,169.99460156194573L193.1661030696841,169.98994243286216L193.2722754918638,169.98538915578354L193.37844837674498,169.97981901186103L193.48462172431874,169.97719114277874L193.59079592499074,169.95701831636805L193.6969701979719,169.94327917246582L193.69697039771202,169.94327916862446L193.8031449336545,169.9458635048527L193.9093201320474,169.9591553506407L194.01549581584845,169.97910111031564L194.1216721167089,169.98959574478826L194.18618566195212,169.9948186552602L194.22786286662893,169.9981927732398L194.29124879707916,170L194.33403991588096,170L194.39742584633117,170L194.44021742785662,170L194.50360335830686,170L194.54639540255593,170L194.60978133300617,170L206.01634049684483,170L206.12256892463253,170L206.22879781543648,170L206.33502716926552,170L206.4412569861152,169.9954867485767L206.54748726599883,169.98307026078646L206.65371800891202,169.97463943072364L206.75994921486358,169.96631511399494L206.86618088384463,169.96507309970116L206.97241301586854,169.97035615873736L207.07864596048054,169.97189415579L207.14805697049275,169.9824924808147L207.25429002859786,169.99002385256534L207.36052354975465,169.9955767185249L207.46675753396315,169.99852894278956L207.5397611145331,170L207.64599602484495,170L207.7522313982174,170L207.85846723465036,170L219.0859260065939,170L219.19221140607561,170L219.29849726890603,170L219.4047835950896,170L219.51107038463078,170L219.61735763753393,169.99308416404762L219.7236453537991,169.98395763464916L219.82993353342627,169.97488025674977L219.93622217641993,169.97431394849977L220.0425112827844,169.988934425975L220.14880085252423,169.99437103372318L220.25510472672303,170L220.3613952232179,170L220.4676861830925,170L220.5739776063513,170L232.16252132473952,170L232.26886373666034,170L232.37520661226682,170L232.48154995155448,170L232.58789375453222,169.996055048467L232.6942380212,169.99168009857442L232.80058275156227,169.98845410140922L232.9069279456235,169.9891054896476L233.0132736033792,169.99318967516552L233.19002512297115,170L233.2963717081336,170L233.40271875700384,170L233.5090662695863,170L241.5108248645271,170L241.55858146313497,170L241.61720762694384,170L241.66496468946787,170L241.7235908532767,170L241.77134837972574,170L241.8299745435346,170L241.8777325338998,170L241.9363586977087,169.9987679267601L241.98411715199887,169.98923280446144L242.04274331580774,169.9310579229916L242.09050223403187,169.83195297676855L242.1491283978407,169.66066843085719L242.19688777999426,169.4874580085675L242.20111489103138,169.47037652878893" style="stroke: #1f77b4;"></path></g><g class="filename"><path class="profile line" d="M1.559777021791947,170L1.8513066478098124,170L1.9566398674504235,170L2.0619735449160372,170L2.1673076802110867,170L2.2726422733355713,170L2.377977324293925,170L2.4833128330905803,170L2.588648799721104,170L2.693985224198797,170L2.7993229826476704,169.9969207144888L2.9046603228152663,169.99322171575474L3.0099981208344633,169.9679545588411L3.1153363767008284,169.94844886252326L3.220675090423228,169.9273274828835L3.3260142620016624,169.94252847532454L3.4313538914449975,169.97169543578804L3.5366939787488,169.98992378568366L3.6398583414957786,169.99894054012037L3.7451993445293827,169.9999820337971L3.8505408054367543,170L3.955882724222325,170L4.063402100422137,170L4.168744934959677,170L4.274088508827429,170L4.379435927085503,170L4.484780135270943,170L4.590124801352315,170L4.6954699253207535,170L6.381054184325078,170L6.486407092865727,170L6.591760459346642,170L6.697114283767823,170L6.802468566133699,170L6.907823306453139,170L7.013178504717278,170L7.118534160939413,170L7.223890275110679,170L7.329247909498748,170L7.434604939590441,170L7.539962427648998,170L7.6453203736744175,170L7.7506787776667005,170L7.856037639634713,170L7.96139695956959,170L8.066756737489062,170L8.165573309408952,169.93253017153785L8.172117345627248,169.928062044456L8.27093400328875,169.9929744633517L8.374425498932395,170L8.479787108785818,170L8.585149176623835,169.82424987987446L8.69051170245975,168.90974238752298L8.795874686284693,167.91017478243106L8.901238128116399,167.39686664740861L9.006602027941565,161.39875057540323L9.111966385773494,140.1173169076745L9.217331201612184,93.9141347607358L9.322696475457636,43.71792831313991L9.428062207318717,15.862734737048015L9.43250903336806,15.454545454545467L9.533428397190992,51.584720248386844L9.638795045078895,100.03053548397538L9.74416215098686,144.31949444881292L9.849529714919317,163.36946537657988L9.954897736871837,169.74221402975138L10.06868336388438,170L10.174052301899188,170L10.279421697942922,170L10.384791552024453,170L10.490161864139342,170L10.595532634300893,170L10.700903862504667,170L10.806275548750673,170L10.911647693047769,170L11.017020295395959,170L11.122393355804109,170L11.227766874258919,170L11.333141363747112,170L11.438515798326275,170L11.543890690974262,170L11.649266100696341,170L11.754642318041354,169.93901559558392L11.754642345278645,169.9390155798232L11.860018584895819,169.96090561013324L11.965395337060835,170L12.070772574540836,170L12.176150651425042,170L12.281528750599142,170L12.386907312394916,170L12.49228644123085,170L12.597666314144902,170L12.703046245674102,170L12.808426635303158,170L12.913807646451392,170L13.019188952280166,170L13.124571129312153,170L13.229953351345078,170L13.33533658078097,170L13.440719719044642,170L13.546103315417037,170L13.651487369911456,170L13.756872545297561,170L13.862257516036026,170L13.96764294490095,170L14.073028831892328,170L14.178415177010166,170L14.283801980267759,170L14.389189495870964,170L14.494577337971448,170L14.598905684215817,170L14.683154536846983,170L14.7885431726636,170L14.893932266624407,169.99815977204656L14.999321818738272,169.98155502341893L15.104711829000756,169.94969825198396L15.210102297420732,169.90790757052017L15.315493223998196,169.87307391088518L15.347404277716167,169.8705413036659L15.420884608733148,169.88577841354137L15.52627645163889,169.9288644472949L15.631668752697687,169.96963831459288L15.737061511936137,169.99082711094732L15.864661626250442,169.99837056221168L15.97005576000569,169.99941014475013L16.075450351940596,169.99999998559503L16.18084540205072,170L16.28624091034937,170L16.391636876832102,170L16.497033301512225,170L16.602433289423242,170L16.707830630484843,170L16.813228429743823,170L16.91862668720463,170L17.340223681705176,170L17.445624230206114,170L17.551025236922175,170L17.656426701853352,170L17.761828625004085,169.99542995706068L17.867231006383236,169.99367207509914L17.972633845986373,169.9865456904943L18.07803714382236,169.96044711077562L18.18344089988234,169.9576066168527L18.28884511418403,169.95908353182972L18.288845200435453,169.9590835304853L18.394249786723016,169.96184864178224L18.499655185332646,169.96050038961573L18.499655271584068,169.9605003885878L18.605060774350633,169.970337575868L18.605061414426984,169.97033758696605L18.710467171160012,169.96771112856263L18.8158736766703,169.9623334816752L18.81587396720141,169.96233347947978L18.921280640435604,169.96893734399458L19.0266880624515,169.98258970328612L19.132096378519076,169.99610414539305L19.237538132666675,169.9999999855934L19.342946929456488,170L19.44835618451019,170L19.553766288233383,170L45.181918434405034,170L45.287440044168754,170L45.39296211285248,170L45.498484640456184,170L45.60400762698432,169.9946945538982L45.709531072441315,169.99310874980648L45.81505497682273,169.98889997997725L45.92057934013744,169.98169737520328L46.026104162380996,169.98042523324804L46.13162983396789,169.9768613329969L46.23715557409135,169.9820985935272L46.34268177315251,169.98764776657566L46.34268232697744,169.98764779360087L46.44820843116471,169.98709406839623L46.44820898498963,169.9870940487013L46.55373610194398,169.98995061398583L46.65926367784935,169.99057568890038L46.76479171270575,169.99264300598387L46.870320206517604,169.99569703644258L46.975854711157275,170L47.08138412288448,170L47.18691399358043,170L47.29244432324071,170L49.930851255174986,170L50.03639351887407,170L50.141936241617294,170L50.24747942339576,170L50.35302306421834,169.99762291999448L50.45856716408505,169.99375696628235L50.56411172300031,169.98967502890858L50.669656740968556,169.9849415481683L50.775202217989786,169.9882283858377L50.77520269918194,169.98822839454965L50.880748635256154,169.98529513240197L50.98629503039223,169.97790951836367L51.09184188459458,169.97933329757205L51.197389197849915,169.98313427595576L51.30293697018041,169.98400788188798L51.302937401437525,169.98400787631525L51.4084856328343,169.98860025523535L51.51403432330623,169.9924080361071L51.61958347284887,169.99670951575973L51.725149918656854,170L51.830699986358674,170L51.93625051314894,170L52.04180149901436,170L64.2888319248221,170L64.39443664207923,170L64.50004181873068,170L64.60564745478977,170L64.71125355024763,169.99602998647737L64.81686010512202,169.9930375264406L64.92246711939958,169.99199298796225L65.02807459309368,169.99389843006546L65.13368252620425,169.99715031246322L65.23929272093214,170L65.34490157287574,170L65.45051088424914,170L65.5561206550479,170L65.6617308852809,170L65.76734157493928,170L65.8729527240319,170L65.97856433255875,170L66.08417640053314,169.9972748112391L66.1897889279462,169.99303428004615L66.29540191480237,169.98990302242365L66.40101536111048,169.98989521843453L66.50662926687059,169.99250023957933L66.61224363207378,169.9957890317663L66.71787070443995,170L66.82348598856926,170L66.92910173215496,170L67.03471793520151,170L75.48550307758573,170L75.59115650605239,170L75.69681039419267,170L75.8024647420243,170L75.90811954954286,169.99673108712528L76.01377481675279,169.99366788639242L76.11943054364963,169.99123776373298L76.22508673025114,169.99077466804718L76.33074337653957,169.99258074113155L76.4364004825371,169.995691384375L76.54206089453626,170L76.6477189199431,170L76.75337740505461,170L76.85903634987963,170L77.2816761816135,170L77.38733742503277,170L77.49299912818772,170L77.59866129107392,170L77.70432391368695,169.99669291309345L77.80998699604011,169.99366837357735L77.91565053812896,169.9896916275112L78.02131453996236,169.97936576151662L78.1269790015359,169.9798916481015L78.12697954628173,169.97989166697167L78.23264392285398,169.97657637968732L78.33830930392548,169.96813693670194L78.4439756032404,169.94430350777722L78.54964190381432,169.9436012525383L78.54964199006574,169.9436012510852L78.65530866415054,169.95079155678212L78.76097605674302,169.9633539185822L78.86664373659939,169.9764470387546L78.97231210773502,169.98835316423487L79.07798104304699,169.99374282509297L79.07798499699382,169.99374299414833L79.183650433595,169.99289847510332L79.28931995252712,169.9922430208384L79.39498993123041,169.99345839958332L79.50066036971815,169.99629385536028L79.60633402348748,170L79.71200538153525,170L79.81767719937635,170L79.92334947699749,170L80.76874425072116,170L80.87442066656642,170L80.98009754222272,170L81.08577487770782,170L81.19145267300841,170L81.29713092813336,169.99423376273936L81.40280964308265,169.97413290700652L81.50848881786517,169.94748403700774L81.61416845247648,169.9363235852053L81.61416857958385,169.93632357178197L81.719848546921,169.9511020951834L81.82552910120317,169.9723589551854L81.93121024243482,169.9945493382145L82.0351605686175,170L82.14084250242594,170L82.24652489608977,170L82.35220774959569,170L82.45962295068264,170L82.56530695087676,170L82.67099487460183,170L82.7766795675426,170L82.88236472034318,170L82.988050333008,170L84.67908267967513,170L84.78477611047558,170L84.89047000119791,170L84.99616435182881,170L85.10185916238161,170L85.20755443286072,170L85.31325016326173,170L85.41894635358904,170L85.52464300385154,170L85.62782239867977,170L85.7335199688082,170L85.83921799887624,170L85.9449164888839,170L86.0531342527714,170L86.1588336626716,170L86.26453353251584,170L86.37023386231743,170L86.4759346793048,170L86.57911708784358,169.9419817372816L86.5816363148783,169.94056520535463L86.68481879751722,169.9985834690678L86.78777408629081,170L86.89347671589243,170L86.99917980545587,169.8737122275194L87.10488335499436,168.7179263595489L87.21058736449909,168.19300233168164L87.31629183398331,165.48013168180228L87.42199676344707,153.97871203260212L87.52770215289476,121.06292621726337L87.63340800232197,81.00143364446555L87.73911431173757,43.78598903002603L87.7438535550797,42.95028592907019L87.8448210811371,55.86520046676766L87.95052831053388,97.48706299397308L88.05623599992792,136.78826113286735L88.16194414931476,160.1155148797177L88.26765275870329,168.5931701800553L88.37336182808907,169.9673465281015L88.48434090635534,170L88.59005089575778,170L88.69576134517077,170L88.80147225459874,170L88.90718362404168,170L89.0128954534996,170L89.11860774298135,170L89.22432049248698,170L89.33003370201645,170L89.43574737157861,170L89.54146150117352,170L89.6471766083052,170L89.75289165797439,170L89.85860716768072,170L89.96432313742419,170L90.07003995307973,169.97575252900225L90.17575684291965,169.9915654617427L90.28147419281004,169.99878807184731L90.35791821177443,170L90.46363648177456,170L90.569355211834,170L90.67507440195274,170L90.81006850588575,170L90.9157887250856,170L91.02150929540446,170L91.12723032579592,170L91.23295181626,170L91.33867472464587,170L91.44439713526846,170L91.55012000597253,170L91.65584333676695,170L91.76156727290396,170L91.86729187795943,170L91.94374056912567,170L92.04946574028588,170L92.15519137154088,170L92.2609174628951,170L92.36664401436181,169.99006803311963L92.47237102592774,169.96811453888034L92.57809849760174,169.91611416206035L92.6838264293927,169.8555870462129L92.78955482130058,169.8147237065092L92.89528367331656,169.84696549029013L93.00101298545833,169.90319057331L93.10674275772591,169.95360156240602L93.21247299011488,169.97612583832188L93.24175021752959,169.97845701808657L93.31820368262964,169.9779554381623L93.34748194052189,169.97867090253004L93.45321297059908,169.9694832312005L93.55894458337876,169.93549050468266L93.66467665629757,169.9130114892273L93.66467699222417,169.9130114598303L93.77040923475096,169.91441691991346L93.87301451073549,169.93822034276107L93.97874796407605,169.964335024191L94.08448187756014,169.98112028378952L94.19021625120106,169.99203618188346L94.29907909272914,169.99832228490502L94.40481838146879,169.99999999762315L94.51055428537649,170L94.61629049963591,170L94.72202717405662,170L95.67367717082107,170L95.7794184470141,170L95.88516018340387,170L95.99090237998597,170L96.09664503676478,169.99482296211863L96.20238815374478,169.99267463688284L96.30813173093038,169.9911687613705L96.41387576831715,169.98936843742948L96.51962026591397,169.98785042880004L96.6253652237164,169.99077593680497L96.73111064173771,169.99477636960728L96.8368571509752,169.9919669527386L96.9426034894299,169.9853638949477L97.0483502881035,169.97855448800811L97.04835043790862,169.97855448236132L97.15409754700045,169.97955366697752L97.25984526613404,169.98612196986045L97.36559359529163,169.99613523549937L97.4713553450971,170L97.57710444491843,170L97.68285400498084,170L97.78860402527987,170L106.99061786205925,170L107.09640839395053,170L107.20219938631783,170L107.30799083916558,170L107.41378275249382,169.99113794875095L107.51957512631137,169.9790079473361L107.62536796061825,169.97013408244894L107.6253679923951,169.97013408075162L107.73116125541003,169.9725633673782L107.83695501070001,169.9869751930445L107.94274925826501,169.99495084032634L108.07842386081029,169.99940892458423L108.18421899759484,170L108.29001459489089,170L108.41896970915404,170L116.40779056052135,170L116.51362208540537,170L116.61945407100481,170L116.72528651732411,170L116.83111942436327,169.99670336047845L116.93695279213112,169.993633513893L117.04278662062327,169.9907477938611L117.14862090984414,169.98955775144142L117.25445565979815,169.99101855399508L117.36029087048088,169.99465954385929L117.4446348934185,170L117.55047102558083,170L117.65630761848519,170L117.76214467213599,170L118.07965859758926,170L118.13101837858808,170L118.18549749425246,170L118.23685727525128,170L118.29133685166656,170L118.34269663266537,170L118.39717666984482,170L118.44853645084363,169.99857032939414L118.50301694878728,169.99455821900332L118.55437672978609,169.9829261018121L118.60885768849835,169.96365620077464L118.66021746949714,169.939806717072L118.71469888897359,169.90608292120885L118.76605866997241,169.87222534509547L118.82054055022633,169.83344951283127L118.87190033122513,169.8019253755252L118.9263826722521,169.77073903187602L118.97774245325093,169.7595194832399L119.03222525505537,169.77198026541404L119.08358503605417,169.79287548238906L119.13806829863611,169.83215062116219L119.18942807963494,169.8710594739251L119.24391180300321,169.91095428555127L119.29527158400202,169.94281202094257L119.34975576814779,169.96962971735854L119.40111554914661,169.98756641642396L119.47709948263501,169.99999748129022L119.58294436936559,170L119.68878971689138,170L119.79463552520795,170L122.65264654046305,170L122.75850525215392,170L122.86436442472424,170L122.97022405816514,170L123.07608415248993,169.99669326369502L123.18194470768971,169.9922565834527L123.28780572377782,169.9902498755152L123.39366720075424,169.99251233431764L123.49952913861452,169.99672245550877L123.60539224099757,169.9983197902113L123.71125510065222,169.99343921108937L123.81711842120404,169.98853185106L123.92298220265305,169.99011739101533L124.02884644500365,169.99683948351375L124.1347186475946,170L124.24058381176172,170L124.3464494368349,170L124.45231552282742,170L129.11087942466133,170L129.2167662545379,170L129.32265354544904,170L129.42854129740815,170L129.53442951040626,169.99001294928402L129.64031818444337,169.98273067390372L129.74620731953289,169.96600382378588L129.85209691567468,169.9597717146691L129.8520971426521,169.95977170355246L129.9579869728644,169.96531689867268L130.0638776499951,169.9787370616293L130.16976869739602,169.9894502823173L130.27566069158544,169.99189735783338L130.38155259302,169.99211616041217L130.48744495551128,169.99415236493616L130.5933395994361,169.99999840511023L130.6992617737637,170L130.80515551947408,170L130.91104972625897,170L131.12281063339157,170L131.22870622342657,170L131.33460227454938,170L131.4404987867644,170L131.54639576006727,169.9970082793194L131.65229319447567,169.99360600397347L131.75819108997183,169.99152464025136L131.864089446578,169.99254794893542L131.9699882642808,169.99550890223992L132.07590079403593,170L132.1818005339543,170L132.287700734987,170L132.39360139713412,170L138.43069738582898,170L138.53662479719085,170L138.6425526698312,170L138.7484810037455,170L138.8544097989338,169.9964210977684L138.96033905540497,169.99322177580626L139.066268773159,169.9907825045454L139.17219895220475,169.98999164402562L139.27812959253336,169.9909110093901L139.3840606941537,169.9934280600179L139.48999225706578,169.99669570752118L139.59594304777238,170L139.7018755332812,170L139.80780848009505,170L139.9137418882095,170L141.82060741684154,170L141.92654959025248,170L142.0324922250172,170L142.13843532115342,170L142.2443788786479,169.99518119926353L142.35032289750944,169.99258556421717L142.45626737773364,169.9919715102861L142.56221231933824,169.99351175784636L142.66815772230996,169.9960204021637L142.774118816852,170L142.8800651425845,170L142.98601192969738,170L143.09195917819505,170L153.26504272831622,170L153.3710347438916,170L153.4770272211134,170L153.58302015998598,170L153.68901356050938,169.9967260470866L153.795007422688,169.99320473065507L153.90100174652636,169.9907954061414L153.90100214146707,169.99079540975256L154.00699653202878,169.98878628014918L154.11299177919088,169.98898100975794L154.11299217413162,169.98898100699273L154.21898788295783,169.98910085864387L154.21898834145225,169.98910087322298L154.32498405345262,169.98610141187166L154.32498451194704,169.98610141783792L154.4309806856204,169.97613720548264L154.53697823796438,169.9598279875039L154.64297579348255,169.94341367857652L154.64297586157576,169.9434136761644L154.74897381068254,169.94484047224205L154.8549722895688,169.957853389475L154.9609712301325,169.96745409429235L155.06697098193655,169.9809264582346L155.17297084588165,169.99263288305974L155.27897222923676,169.99999534642208L155.38497301657213,170L155.49097426560712,169.99547280811294L155.59697597634167,169.99297561467316L155.70297814878023,169.9915018893774L155.70297854826052,169.99150189010794L155.80898078292725,169.98266039212433L155.9149838787827,169.9759382551781L156.0209878358313,169.973706609447L156.1269918551081,169.97449741601466L156.2329963361066,169.98140819243554L156.33900127882686,169.99429242224937L156.45481277101737,170L156.56081863718111,170L156.66682496507548,170L156.77283175470043,170L157.92913395103213,170L158.0351462816328,170L158.14115907400395,170L158.2471723281412,170L158.3531860440445,169.99653766003541L158.45920022172717,169.99254780670813L158.5652148611848,169.9907201575173L158.67122996242182,169.9921565701216L158.7772455254382,169.99526639025282L158.8994158834785,170L159.00543237006693,170L159.1114493184436,170L159.21746672861295,170L164.82126836800214,170L164.92731071894357,170L165.03335353182837,170L165.13939680664774,170L165.2454405434194,170L165.35148474213884,169.76731987071747L165.45752940280613,169.49206327158907L165.56357452543014,168.82882568185153L165.6696201100064,166.3966743492901L165.77566615654382,159.42225628991108L165.88171266504233,150.38185778338874L165.98775963550202,141.5037603792336L165.99719026172542,141.2614467028379L166.0938070679317,143.05172945723754L166.19985496232692,152.4308452179848L166.3059033186966,161.5257961372275L166.41195213704515,167.44944053280864L166.5180014173681,169.68130972120107L166.6236899841043,169.992302910957L166.72974018838943,170L166.8357908546579,170L166.94184198291404,170L167.04789357316682,170L167.15394562541175,170L167.25999813965328,170L167.36605111588702,170L167.4721045541306,170L167.57815845437523,170L167.68421281662532,170L167.7902676635875,170L167.8963233811145,170L168.00237912940318,170L168.1084353397106,170L168.214492733825,170L168.3205498681744,170L168.42660746455144,170L168.53266552295608,170L168.6387240433884,170L168.74478302585715,170L168.85084346906757,170L168.95690337560933,170L169.06296374419205,170L169.16902457482456,170L169.27508586750687,170L169.38114762223452,170L169.487209839012,170L169.59327252692722,170L169.69933592203674,170L169.80539952499018,170L169.91146550570068,170L170.01753003278478,170L170.12359625669805,170L170.22966170791716,170L170.33572638645992,170L170.44179276183186,170L170.54785959929347,170L170.65392689882708,170L170.75999466044593,170L170.86606288415447,170L170.97213156995716,170L171.0782007178451,170L171.18427032783603,170L171.29034039992112,170L171.39641110207245,170L171.50248293817558,170L171.60855439657405,169.99454431265914L171.71462631707996,169.99139208260604L171.82069869970218,169.98451741881541L171.9267715444318,169.98013556199197L171.92677177140922,169.98013555764075L172.03284485127773,169.981307788437L172.13891862024883,169.9864973262102L172.24499307831363,169.99395455232082L172.35106777153504,169.99771892454763L172.4571550474675,169.99951239177219L172.56323066494366,170L172.69814977435905,170L172.80422631610327,170L181.15689066225045,170L181.26300418356098,170L181.36911816721832,170L181.4752326132358,170L181.58134752161337,169.9944892815322L181.68746289235105,169.9834878137604L181.79357872544887,169.9755793060301L181.79357913400824,169.97557932010423L181.8996950209201,169.97531895913318L181.92853805072528,169.97571894161553L182.00581177875588,169.9741906549773L182.11192940752892,169.968292600938L182.21804709011153,169.96108006568969L182.32416523507197,169.95193249199767L182.4302838741916,169.94334579030797L182.53640347958336,169.9354452720635L182.64252301169068,169.94232864266215L182.74864300619356,169.96669600800394L182.85476346308317,169.9856022158415L182.96088458210411,169.99636491776053L183.01659145299976,169.99990810245995L183.0670199183573,170L183.12271283468053,170L183.17314176243366,170L183.22883467875693,170L183.27926406891444,170L183.3349569852377,170L193.25682588544962,170L193.36299213234926,170L193.46915884189715,170L193.57532601411106,170L193.68149364899097,169.99633582798967L193.78766174653688,169.99396986112833L193.89383030675765,169.99263468365527L193.9999993296489,169.9927973158266L194.10616881521497,169.99456433781083L194.21235700790177,170L194.3185274188309,170L194.4246982924438,170L194.5308696287404,170L194.69271609960262,170L194.7988883612756,170L194.90506108565444,170L195.01123427272148,170L195.11740792249,169.99510024449717L195.16789145650424,169.98844730083317L195.22358203495995,169.98108130929924L195.27406603168453,169.96905885178722L195.32975661014027,169.95560751860947L195.38024106957076,169.94218565230992L195.43593164802647,169.92737683490049L195.4864165701673,169.91869617013214L195.54210714862302,169.90762865577653L195.5442153386168,169.90761347284564L195.5925925334786,169.91395529360636L195.64828311193435,169.92098496982783L195.6987689595047,169.93258290859794L195.75445953796046,169.9464177737178L195.80494584824555,169.95809493049754L195.86063642670132,169.9725836473444L195.9111231997145,169.98157273370893L195.96681377817023,169.99234016012758L196.0173010139071,169.99521824005083L196.12349446199468,169.9999999763078L196.22967320164338,170L196.3358524040202,170L196.4420320691339,170L207.38101648837778,170L207.4872442926115,170L207.593472559857,170L207.69970129013205,170L207.8059304834233,169.99460495341123L207.91216013973965,169.99147436674033L208.01839025908552,169.990071854802L208.12462084146534,169.9921044643618L208.12462144976487,169.99210448800838L208.23085188687472,169.99017997137713L208.33708400362198,169.98140609500754L208.44331597511254,169.9644645072635L208.54954840963708,169.9576432116698L208.65578130720885,169.96429546142193L208.7620146678279,169.97847284559776L208.86824861860157,169.99165036299286L208.97449825353777,169.9999999523506L209.08073300331634,170L209.18696821614657,170L209.2932038920418,170L220.23795916539342,170L220.34424301426907,170L220.450527326489,170L220.55681210205321,170L220.66309734096615,169.996436108392L220.7693830432322,169.99343634532224L220.8756692088514,169.99015172242684L220.9819558378282,169.9898788519107L221.08824293016255,169.9968010437652L221.1945314073873,169.99999999644763L221.1945314391641,169.99999999680114L221.30081942645455,169.9947862794945L221.40710790887937,169.98309420705553L221.51339685467948,169.94893609870772L221.6196862638505,169.91181669767593L221.72597613639684,169.8929903045303L221.7259761681737,169.89299030242447L221.8322664723229,169.9121691336754L221.93855727162872,169.94890547612854L222.0448485343187,169.9842770843917L222.10571639531912,169.993363820195L222.15115637579038,169.99732618507574L222.20947428155162,169.99992684457447L222.2574485652576,170L222.31576647101883,170L222.36374121811343,170L222.42205912387465,170L222.4700343343667,170L222.52835224012793,170L233.95241900968446,170L234.0587626520668,170L234.16510675813475,170L234.27145132790164,170L234.377796361363,169.99551067940382L234.48414185852334,169.9903441419605L234.59048781938262,169.9782815036956L234.69683424394964,169.98210192570957L234.80318113222003,169.98931418336025L234.9095284842027,169.99516854419483L235.08105662311806,170L235.1874049025296,170L235.29375364565337,170L235.40010285250264,170L243.2643687552985,170L243.370752748855,170L243.47713720634093,170L243.5835221277519,170L243.68990751309678,170L243.76089191282333,169.95085179527547" style="stroke: #ff7f0e;"></path></g><g class="filename"><path class="profile line" d="M3.1195540435883276,170L3.183684395643886,170L3.8156830688273207,170L3.9210178220063594,170L4.026353033014833,170L4.1145568455799575,170L4.219893430107771,170L4.325230472487184,170L4.4305679727049,170L4.535905930778651,169.99820242074765L4.641244346695136,169.98618456387638L4.746583220472089,169.97492764087647L4.851922552113943,169.9647218764612L4.957262341607398,169.96628643962416L5.062602588970187,169.9763580274813L5.167943294189011,169.98719858621305L5.273284457281602,169.99628362593376L5.395753175655202,169.99828147467323L5.5010948828774175,169.99999992816743L5.60643696171311,170L5.711781513986579,170L5.817124508583105,170L5.922467961057831,170L6.0278118714151905,170L6.238500716250298,170L6.343846000277725,170L6.449191742201083,170L6.5545379420203735,170L6.659884599744464,170L6.765231715364487,170L6.870579288893742,170L6.9759273203322305,170L7.081275809684383,170L7.186625106491011,170L7.291974511670496,170L7.397324374768078,170L7.502675617312125,170L7.608026396254772,170L7.7133776331243835,170L7.818729327925394,170L7.924081480648933,170L8.029434091321606,170L8.134787159921242,170L8.240140686465576,170L8.345496091828887,170L8.450850534258183,170L8.556205434636611,170L8.661560792968602,170L8.766916609249725,170L8.872272883488844,170L8.97762961568596,170L9.082986805845506,170L9.188344453971915,170L9.293702560060753,170L9.399061124116457,170L9.501983534358141,170L9.607343014365304,170L9.71181689828064,169.84204661264258L9.715139922757851,169.8369025792552L9.817177294248129,169.99485597300287L9.922538148191347,170L10.02789946011916,169.8037643998316L10.133261230036002,168.69357315576977L10.238623457941872,166.9280752917561L10.34398614384564,166.1602607886132L10.44934928774287,163.78394296801036L10.554712889637992,151.77191957789069L10.660076949535446,115.13339025430335L10.765441467435227,65.73735594716096L10.870806443341772,18.02089373259136L10.878986326325778,15.454545454545467L10.976171877255076,23.841850189714734L11.081537769184008,73.44522508009646L11.18690411912857,123.15294765082055L11.292270927084326,155.97964273281823L11.397638193064576,168.30031708132933L11.503005917064888,169.96894802122227L11.611700033417554,170L11.717068673471289,170L11.822437771553947,170L11.927807327674401,170L12.033177341828218,170L12.138547814015393,170L12.243918744244796,170L12.349290132520858,170L12.454661978843582,170L12.560034283217396,170L12.665407045637872,170L12.770780329663122,170L12.87615434866523,170L12.981528485256717,170L13.086903125308083,170L13.192278613820589,170L13.297654124605257,170L13.403030093463181,170L13.508406520394367,170L13.61378350072933,169.96666416155279L13.6137837594836,169.96666407969724L13.719161102565735,169.97713744442422L13.824538903729998,169.99769661773112L13.929917321860584,169.9999999883906L14.035296370580577,170L14.140675546004513,170L14.246055179515007,170L14.351435325599944,170L14.456816020571276,170L14.562197028372477,170L14.667578494277972,170L14.772960740595707,170L14.878343894433042,170L14.983726734660275,170L15.089110033000665,170L15.194493789458646,170L15.299878004029784,170L15.405262676722947,170L15.510647807542565,170L15.616033396484207,170L15.721420374159768,170L15.826806879363188,170L15.932193842701937,170L16.037581264171568,170L16.142969143780963,170L16.248357481538978,170L16.353746277436745,170L16.459135890107476,169.99608879760294L16.564525602298062,169.9816782758086L16.66991577264613,169.96246680920004L16.775306596352284,169.9421878037199L16.880697683010897,169.93202766781812L16.88069800531885,169.93202764617374L16.986089327701503,169.93888295067782L17.09148133067953,169.96082005136495L17.196873914400594,169.98946496725705L17.302267060697627,169.9999966546761L17.407660601607336,170L17.513054523524374,170L17.618448817360775,170L17.72388201481835,170L17.829277225014064,170L17.934702454938776,170L18.040098581507092,170L40.183397613175444,170L40.28889047662448,170L40.39438379882506,170L40.49987757977716,170L40.605371819480794,169.9957195224101L40.710866517949256,169.99338950357182L40.81636167517369,169.99234331965016L40.92185729116738,169.99281034621865L41.02735336592591,169.99435782288927L41.13289492723626,170L41.238391919533306,170L41.34388937060405,170L41.44938728045294,170L52.634736242569545,170L52.74028325693284,170L52.84583073036244,170L52.9513786628583,170L53.0569270544249,169.9953261001329L53.16247590506221,169.99229561789858L53.2680252147791,169.99094997790712L53.37357498356671,169.99231951672948L53.47912521143835,169.99567857011255L53.58467657024719,169.99999941166047L53.690227716286856,169.9927791043763L53.79577932141941,169.98719330753286L53.90133138563598,169.9850680913514L54.00688390894986,169.98773336157424L54.11243689136107,169.99290237295898L54.218022214123835,170L54.32357611472967,170L54.429130474446126,170L54.534685293268765,170L60.868790956411544,170L60.97437378579621,170L61.07995707445552,170L61.18554082238948,170L61.29112502959808,169.99691441034432L61.39670969609018,169.9937043188456L61.502294821865796,169.9919082474644L61.607880406920486,169.9930950194505L61.71346645126756,169.9961895063605L61.819071952917895,170L61.92465891584971,170L62.03024633807391,170L62.13583421960378,170L66.67653488539274,170L66.78214297869974,170L66.88775153142768,170L66.99336054358099,170L67.09897001515081,169.99469307698828L67.20457994615485,169.991572210702L67.31019033658427,169.9896996572712L67.41580118644792,169.99032827895203L67.52141249574139,169.99313335683794L67.62702426447795,169.99656487376905L67.7326535068769,170L67.83826619449523,170L67.94387934155668,170L68.0494929480701,170L78.50751046431509,170L78.61317002908552,170L78.71883005356949,170L78.82449053778026,170L78.93015148170458,169.99707390086118L79.03581288536014,169.99461301142597L79.14147474874254,169.99198829357323L79.2471370718562,169.9859281432443L79.35279985470554,169.98278811820313L79.45846309728614,169.9816163356661L79.45846340143589,169.98161633441447L79.56412679960687,169.98267361373135L79.66979096166772,169.98579981095887L79.77545588762288,169.99183370405103L79.88112096917727,169.99441443492827L79.88112154569995,169.99441445607462L79.98678708700334,169.99271630334755L80.0924530880513,169.98690287516504L80.19811954886153,169.98930086899932L80.30378646942962,169.99041069205217L80.40945384975115,169.9924444682647L80.51512168984381,169.9951074189989L80.62079085220859,169.99999987641414L80.62079352146316,169.99999990441253L80.72645961183028,169.9962159481689L80.8321288312187,169.99364168631908L80.93779851038713,169.99267545757255L81.04346864932671,169.9941110798789L81.14913924804632,169.99669606942012L81.25481258993891,170L81.36048410822744,170L81.466156086296,170L81.57182852415787,170L82.311548368171,170L82.41722448444152,170L82.52290106052752,170L82.62857809642901,170L82.73425559214598,170L82.83993354768289,170L82.94561196304859,170L83.05129083823863,169.9941391623526L83.15697017325746,169.98447640851322L83.26265006344002,169.97412812387694L83.36833031812529,169.9693315336728L83.36833062681461,169.96933151966212L83.47401124600701,169.97765582610958L83.57969251569811,169.98801345192726L83.6853741499052,169.99783892946468L83.7910566434391,169.9999999116314L83.89673919733924,170L84.0024222110859,170L84.10810634292694,170L84.21379027638437,170L84.31947466970162,170L84.42515952287869,170L84.53084483592446,170L84.63653423139424,170L84.74222046417295,170L84.84790715682475,170L84.95359430934525,170L86.2218750756913,170L86.32756820682836,170L86.43326179788284,170L86.53895584884592,170L86.64465035973087,170L86.75034533053328,170L86.85604076125756,170L86.96173665190818,170L87.0674330024851,170L87.17313026694765,170L87.27882753739051,170L87.38452526776855,170L87.4902234580862,170L87.59592257591699,170L87.70162168611832,170L87.80732125626812,170L87.91302128636642,170L88.01872217135391,170L88.12442312136247,170L88.23012453132394,170L88.3371320752944,170L88.44283440517944,169.93430734266255L88.54853719502626,169.33558289923062L88.65424044484816,167.94212042130815L88.75994415463627,166.92230175530088L88.86564832439947,161.82772612848817L88.97135295413332,144.54505183478955L89.07705804385111,103.88062292682677L89.18276359354842,58.31366155530701L89.28846960323409,27.604120928606022L89.29268599952678,27.04189566674117L89.39417607290373,55.15337618444613L89.49988300256176,100.81559006593147L89.60559039220816,143.26705027222843L89.71129824185623,163.69102180816017L89.81700655149712,169.75926264615893L89.92141256148268,169.99936401229505L90.02712179112693,170L90.13283148078173,170L90.23854163043822,170L90.34425224010523,170L90.44996330979168,170L90.55567483948867,170L90.66138682920507,170L90.76709927894532,170L90.87281218870942,170L90.97852555849737,170L91.08423938831801,170L91.18995407310767,169.93928670172397L91.29566882299818,169.9581898816257L91.4013840329214,170L91.50709974373771,170L91.61281626414528,169.9634640485902L91.71853285419766,169.98939754014577L91.8242499043005,169.9969228859557L91.92996752793808,169.99999998625836L92.03568581137066,169.97366879056656L92.14140424162926,169.99275385058763L92.24712313194718,169.99999160845937L92.35284262305485,169.99999999996433L92.45856245165845,170L92.5642827221676,170L92.67000379321551,170L92.77572507465642,170L92.88144680256018,170L92.9871689133642,170L93.09289181563676,170L93.19302530041347,170L93.2987487914708,170L93.40447274260961,170L93.5101971538432,170L93.61592202516712,170L93.72164735659025,170L93.82737314810817,169.99880119773078L93.93309939972971,169.98645552424787L94.03882611145492,169.96593158200153L94.14455328329264,169.92382070348125L94.25028091523397,169.87864218838783L94.35600900728784,169.86061579509828L94.46173755945864,169.8967900372618L94.5674665717464,169.9413452440273L94.6731960441555,169.97949713769714L94.78451705723927,169.9964494350819L94.89024823977702,169.9974576452778L94.89024843043806,169.9974576470957L94.99597909256357,169.98885001248792L95.10171040547593,169.97644230787023L95.20744217852739,169.96592240519615L95.3131744117091,169.9648858015271L95.31317460237014,169.96488579965788L95.41890710503434,169.97439570576677L95.52464044915975,169.9904422836048L95.63037406276764,169.99616351288708L95.73610840435688,169.99999989969186L95.84184302451216,170L95.94757812297802,170L96.05331366798208,170L96.15905124837079,170L96.26478762289757,170L96.37052445759448,170L96.47626246970135,170L96.68773772267504,170L96.79347639804809,170L96.89921553359127,170L97.0049551293179,170L97.11069518522797,169.99729104765817L97.21643570132147,169.9932144416723L97.32217667759842,169.99071749158585L97.42791811406767,169.99187037107933L97.53366001072922,169.99540887153904L97.63940303036162,169.99999948701333L97.63940308483619,169.99999948779222L97.74514584741665,169.99379493908097L97.85088912466843,169.98472675334986L97.9566328621258,169.9770637618266L98.06237705978879,169.97429902435903L98.06237711426337,169.97429902353295L98.16812171765739,169.97846855290524L98.27386689021503,169.98913494393238L98.37961318575681,169.99999767867965L98.37964109944114,169.9999985869272L98.48535922426882,169.99464682384263L98.59110572299973,169.99100530994835L98.69685268195398,169.9897133588574L98.80260010113156,169.99137494151987L98.9083479805325,169.99447880681862L99.01410751923203,170L99.11985631909735,170L99.22560557919932,170L99.33135529953793,170L104.51365120747172,170L104.61942394309564,170L104.72519713909364,170L104.83097079547454,170L104.93674491222953,169.99630355670638L105.04251948937187,169.9928073671212L105.14829452689271,169.99051351140426L105.148294835582,169.99051351141932L105.25407002480536,169.98540179777095L105.35984598310093,169.98352065142046L105.35984629179023,169.98352064869633L105.46562240179716,169.98450507262518L105.57139958957006,169.9896230253137L105.67717692905877,169.99262026803936L105.78295472894371,169.99595963268735L105.88874169609237,170L105.99452041678308,170L106.10029959789216,170L106.20607923940635,170L107.89861071063467,170L108.00439817954532,170L108.11018610892314,170L108.21597449876369,170L108.32176334906697,169.99752026307976L108.42755265983298,169.9941369738229L108.53334243107945,169.9917223083531L108.63913266279306,169.9920345250034L108.63913313944566,169.9920345371502L108.74492335497828,169.99139427702767L108.85071450764839,169.9864911074735L108.95650659744715,169.97755717024833L109.06229867107373,169.96891577203942L109.1680912051941,169.9631968967056L109.16809135045968,169.96319689051214L109.27388419979937,169.97762256101026L109.3796778001595,169.98960812546855L109.46719601060022,169.99878396484294L109.57299038668674,170L109.67878522327592,170L109.78458052036771,170L112.9769340741991,170L113.0827436481801,170L113.18855368274795,170L113.29436417791155,170L113.40017513366642,169.9950121200017L113.50598655001258,169.99143750573296L113.6117984269589,169.98959388732328L113.71761076450981,169.99034737955856L113.82342356266086,169.9932375198376L113.92923682142096,169.9967667597605L114.06388064649596,170L114.16969482647853,170L114.27550946707011,170L114.38132456827958,170L117.52716657458744,170L117.63299595625924,170L117.73882579862874,170L117.84465610170479,170L117.95048686548738,169.996044893687L118.05631808998098,169.99279192015035L118.16214977518554,169.990768537527L118.26798192110996,169.99122757188053L118.37381452775423,169.99365451295094L118.37381504980232,169.99365452666584L118.47964759511835,169.98928378633917L118.58548164525041,169.9887171660054L118.5854819902561,169.98871717295089L118.69131563406312,169.98451447979102L118.79715008360894,169.98319450889116L118.90298499388794,169.98340822817792L119.00882036489566,169.98561717503406L119.11465654165107,169.9911794141104L119.22049283413395,169.99350789159212L119.32632958736772,169.99551763008495L119.4321683629482,169.99999980525507L119.53801063623318,170L119.62555637463844,170L119.73139497086244,170L119.7785055709486,170L119.83723402785061,170L119.88434462793677,170L119.9430735455941,170L119.99018414568027,169.99892856789398L120.04891352409736,169.99683289630886L120.09602412418351,169.99036886634346L120.15475396336478,169.97799194771457L120.20186456345094,169.9636270692733L120.26059486340526,169.94111654037303L120.30770546349143,169.92109046688202L120.36643622420549,169.89446985778014L120.41354682429164,169.87790346097265L120.4722780457832,169.86111467708295L120.49056584429275,169.85968995314724L120.51938864586937,169.86209844548387L120.57812032813838,169.87793126431922L120.62523092822455,169.89533998359664L120.68396307126662,169.9214520685881L120.73107367135279,169.9423807895981L120.78980627517679,169.96888894228067L120.83691687526294,169.98425607490077L120.89564993986886,169.9959353578529L121.0197872386868,169.99999975772755L121.12563182495157,170L121.23147687201154,170L121.33733830459879,170L123.98360909740057,170L124.08946655504558,170L124.19532450533356,170L124.30118291649214,170L124.40704178852128,169.99704025152076L124.51290112142544,169.98684479040264L124.61876091520463,169.96566751579783L124.72462116986324,169.94969432857266L124.83048188540131,169.9448974200151L124.83048191717815,169.94489741912412L124.93634306182769,169.95942213419232L125.04220469914237,169.9773860347713L125.14806682911778,169.99564007211944L125.14808353011708,169.99564055057135L125.25393013269948,169.99093412507278L125.35979315268797,169.97988396325263L125.46565663357806,169.9701691305704L125.57152057536535,169.97279168094312L125.67738497805422,169.98198173102108L125.7832498416536,169.99507066865385L125.8891313451102,170L125.99499713052609,170L126.10086337685689,170L126.20673008410702,170L139.65554875735072,170L139.76147448402585,170L139.8674006719661,170L139.973327321167,170L140.07925443163307,169.99174004225938L140.1851820033776,169.98419934317104L140.29111003639164,169.9711512176659L140.3970385306797,169.95513367479282L140.50296748624174,169.95366277217101L140.50296764512592,169.95366276891912L140.60889690308665,169.96037615927932L140.7148269718799,169.97759625240872L140.82075746563515,169.98602487639442L140.92668826634198,169.9919076596495L141.03262056789268,169.99999974975375L141.13855229118295,170L141.24448447576935,170L141.35041712165633,169.99612049942507L141.45635022884392,169.99386519508386L141.56228379733656,169.9931400474791L141.66821782713865,169.99434975240797L141.77415231824574,169.99666912001155L141.88009088415188,170L141.98602629789121,170L142.09196217294445,170L142.1978985093249,170L143.5751122235848,170L143.68105501873654,170L143.78699827524653,170L143.89294199312357,170L143.99888617236775,169.99723521457662L144.104830812979,169.99105401423296L144.21077591496623,169.98393513765407L144.31672147832052,169.9706159689469L144.4226675030552,169.97981518840177L144.5286139891703,169.9865411471061L144.63456093666576,169.987738510666L144.74050883582618,169.9861998627733L144.74052187340976,169.98619992316227L144.84645670609575,169.9827925662955L144.84645685590087,169.98279256391706L144.95240503775454,169.9837600281753L145.05835383080705,169.9883484766495L145.16430323506725,169.99582933214657L145.27025462600943,169.99999999874905L145.37620480326072,170L145.48215544191459,170L145.5881065737523,170L145.80001009908972,170L145.90596258338485,170L146.0119155290958,170L146.11786893623153,170L146.22382280479192,169.99162896693744L146.32977713477266,169.98000164127137L146.43573192618254,169.96987448844254L146.54168717902155,169.9691484378464L146.64764289329418,169.97804472578804L146.75359909624655,169.99160607353326L146.85956559782986,169.99999998861472L146.96552269642544,170L147.07148025645898,170L147.17743827793947,170L154.91362039484252,170L155.01961257081825,170L155.12560520844923,170L155.23159830773102,170L155.33759186866362,169.99714128410935L155.44358589125147,169.9941721832711L155.549580375499,169.98752514234283L155.65557532140622,169.97955890368388L155.76157072897755,169.97013632736287L155.8675665982174,169.9701357507901L155.97356292912582,169.97367614453648L156.0795597217028,169.9825531229501L156.18555722563676,169.98943482906316L156.2915555816449,169.9942510779617L156.29155934039113,169.99425128614408L156.39755375925853,169.99056380273117L156.50355239854957,169.98737295638287L156.50355285704399,169.9873729565929L156.6095514995313,169.98418324510504L156.60955195802572,169.98418324658132L156.71555106219935,169.9828642364231L156.8215510865581,169.9770446644278L156.92755203110198,169.97016283209197L156.95125278282174,169.97083938848016L157.03355297885543,169.97042270265834L157.13955438830408,169.986721947814L157.2455562594478,169.99193052758451L157.35155859230446,169.99527325542311L157.48624371210587,170L157.59224696837498,170L157.6982506863525,170L157.8042548660518,170L159.36569394410114,170L159.47170551160102,170L159.5777175408581,170L159.68373003188125,170L159.78974298466605,169.9959639721714L159.89575639922134,169.99025348166455L160.00177027554716,169.98515122106357L160.10778461365234,169.98431516462435L160.21379941352805,169.9881519489684L160.3198146751876,169.99367455863484L160.44772164541416,170L160.55373783063683,170L160.65975447764777,170L160.7657715864514,170L166.26503981109616,170L166.37108139860436,170L166.47712344804262,170L166.58316595941983,170L166.68920893273602,170L166.79525236799563,169.97179484281864L166.90129626520306,169.80635496490552L167.0073406243539,169.27624997122322L167.11338544546146,168.0334046617313L167.21943072852125,164.74455743017998L167.3254764735333,156.7722714498367L167.4315226805065,147.06365131001024L167.5375693494453,139.1416142458338L167.55363340013847,138.42008520946817L167.64361648034077,142.74822481415225L167.74966407320625,152.56221639920554L167.85571212804174,162.36164944943252L167.96176064485164,168.0984493416453L168.06780962363595,169.86266875261362L168.166235292007,170L168.27228519474465,170L168.37833555947,170L168.48438638618313,170L168.59043767487955,170L168.69648942557257,170L168.80254163825327,170L168.90859431293507,170L169.01464744961345,170L169.12070104829286,170L169.22675510898216,170L169.33280964075604,170L169.43886500677834,170L169.54492045349733,170L169.65097636222623,170L169.7570331460728,170L169.8630899788437,170L169.96914727363333,170L170.075205030455,170L170.18126324929992,170L170.28732270644412,170L170.39338184935755,170L170.49944145430752,170L170.60550152129838,170L170.7115620503258,170L170.81762304140292,170L170.92368470334915,170L171.0297466185215,170L171.13580899574808,170L171.24187187134527,169.99531452979045L171.34793598072437,169.9884927224279L171.45399974412692,169.98099676766492L171.5600639695926,169.97696117233704L171.66612865712133,169.98300607365704L171.77219380672204,169.9905109851658L171.87825941839472,169.99753639047012L171.9843256601071,169.9999996922577L172.09039228217958,170L172.19646009266063,170L172.30252755264775,169.99542252607495L172.40859547472016,169.99226904715434L172.51466385887338,169.99031664486398L172.62073270512516,169.99098703453149L172.72680201346662,169.99404557140366L172.832871856535,169.99999932374183L172.93894228880933,170L173.0450129834465,170L173.15109540734628,170L173.2571670261983,170L173.36323910715328,170L173.46931165022016,170L182.69939216645722,170L182.80550538588776,170L182.91161906766513,170L183.01773321180258,170L183.12384781829132,169.9961405953261L183.2299628871402,169.99218242576805L183.33607841835803,169.98998115370392L183.44219441193155,169.99190777153268L183.54831086787405,169.99620064189648L183.54831144893626,169.99620066270057L183.65442836724773,169.98501170502118L183.76054574793267,169.9671766433242L183.86666359099095,169.9298353713184L183.97278189643157,169.91689912374054L183.9727820008412,169.91689911603018L184.07890066425003,169.9275451557608L184.18501989445076,169.95167573866527L184.29113966420613,169.98059063651326L184.3972598963615,169.9901795786928L184.4789935019673,169.99220064936085L184.58511411932818,169.99116152704974L184.60950219724768,169.99088845060993L184.6912351990935,169.99246572629974L184.71562417520082,169.99293638835132L184.79735674125,169.9917982220188L184.82174617975733,169.99145858740786L184.92786864671385,169.9922474345836L184.9278818386421,169.992247803723L185.03399157607484,169.99164191117677L185.14011496784468,169.99398307324194L185.24623882202783,169.99718951336703L185.35238990833798,170L185.45851468734338,170L185.56463992877534,170L185.67076563262063,170L187.36881632519652,170L187.47494989060903,170L187.58108391848805,170L187.68721840883805,170L187.79335336166338,169.99631315519093L187.89948877697296,169.9904385792996L188.00562465475352,169.97818199334841L188.11176099501387,169.97278374573142L188.21789779776734,169.98127914357607L188.32403506300506,169.9914441398233L188.43017279073587,169.99570938895474L188.53633444588652,170L188.64247309860357,170L188.7486122138182,170L188.85475179153917,170L195.43629406565518,170L195.54246278637385,170L195.64863196976737,170L195.7548016158402,170L195.8609717245879,169.9968254131448L195.96714229601932,169.9936576861308L196.07331333013008,169.99176646142732L196.179484826929,169.99283298962123L196.28565678642497,169.99600929969318L196.39182994855105,169.99708775174156L196.49800283343225,169.99216646124404L196.604176181006,169.98218695894008L196.71034999127681,169.971859222087L196.81652426425794,169.96116630903197L196.8165245502495,169.961166318206L196.92269899994056,169.96004148099848L196.9226992859321,169.9600414800654L197.0288741983335,169.9610447161355L197.0288744843251,169.96104470820467L197.13504985943678,169.9716417532664L197.24122626924643,169.97974978899097L197.3474028557748,169.98760398509373L197.4535802182557,169.99376316105528L197.55975773023135,169.99705825573625L197.66594930995782,169.99895073879554L197.7248257708578,170L197.77212774738072,170L197.83100420828072,170L197.9371831084406,170L198.04336247132855,170L209.24212315434238,170L209.34835204514633,170L209.45458139897536,170L209.56081121582503,170L209.66704149570867,169.99542628631204L209.77327223862181,169.9756192361667L209.8795034445734,169.93493619300972L209.98573511355448,169.8979147415888L210.0919672455784,169.88324607561225L210.0919672501179,169.8832460754831L210.19819984064512,169.9141705787582L210.30443289875024,169.95697590040032L210.41066641990702,169.99167523684434L210.51690140281622,169.99907652922258L210.57110840231513,170L210.6231358500764,170L210.67734284957533,170L210.7293707603883,170L210.7835777598872,169.99597576491502L210.8356061337607,169.99211326727638L210.88981313325962,169.98881238544203L210.9418419701937,169.9856441406712L211.04807826969167,169.98691792854214L211.15431503225466,169.99059948222987L211.2605522578826,169.99451742650777L211.36680184020173,170L211.47303999197743,170L211.57927860683137,170L211.68551768476803,170L221.46149426959636,170L221.5677764256903,170L221.67405904511963,170L221.78034212787998,170L221.88662567398015,169.99680582687978L221.99290968342018,169.99233830788987L222.0991941562089,169.99031617526592L222.20547909233747,169.99170785577195L222.3117644918192,170L222.41805118538701,170L222.5243375115706,170L222.63062430111174,169.99143321963285L222.7369115540149,169.97946895439463L222.84319927028008,169.96029303733317L222.94948744990725,169.95560678442837L223.05577609290089,169.96885962113936L223.16206519926538,169.97447987480376L223.26835476900519,169.9839040003976L223.37464502909774,169.99508150022163L223.48094886732594,169.99805294479577L223.55061906740497,170L223.6569100272796,170L223.76320145053836,170L223.86949333718132,170L234.96305051515895,170L235.0693915360495,170L235.17573302061237,170L235.28207496884755,170L235.3884173807684,169.99492946576885L235.49476025637486,169.99140164436685L235.60110359566252,169.99015427975561L235.70744739864026,169.99227505511394L235.81379166530803,169.9961521086216L235.9201370947608,169.99828891833192L236.00529475476768,169.9974076347532L236.11163994882887,169.99498562402812L236.2179856065846,169.9912796174083L236.32433172804366,169.98883576140233L236.34552088471622,169.9884297456837L236.4518677020695,169.98884995426695L236.55821544616893,169.99231926281948L236.63323487327492,169.99604283102968L236.73958284956962,169.99822103030567L236.84593128957653,169.9999555051676L236.95228019330014,170L237.06135773866643,170L237.16770756983664,170L244.80254642451007,170L244.90893011476797,170L245.01531426894203,170L245.1216988870411,170L245.22808396907408,170L245.3206689346197,169.84865362931916" style="stroke: #2ca02c;"></path></g></g></svg>
