<svg width="300" height="220"><g transform="translate(40,10)"><g class="x axis" transform="translate(0,170)"><g class="tick" transform="translate(69.52741517536299,0)" style="opacity: 1;"><line y2="6" x2="0"></line><text y="9" x="0" dy=".71em" style="text-anchor: middle;">467</text></g><g class="tick" transform="translate(147.51626626503125,0)" style="opacity: 1;"><line y2="6" x2="0"></line><text y="9" x="0" dy=".71em" style="text-anchor: middle;">468</text></g><g class="tick" transform="translate(225.50511735469956,0)" style="opacity: 1;"><line y2="6" x2="0"></line><text y="9" x="0" dy=".71em" style="text-anchor: middle;">469</text></g><path class="domain" d="M0,-170V0H250V-170"></path><text y="20" x="125" dy=".71em" style="text-anchor: middle;">m/z</text></g><g class="y axis" transform="translate(0,0)"><g class="tick" transform="translate(0,170)" style="opacity: 1;"><line x2="-6" y2="0"></line><text x="-9" y="0" dy=".32em" style="text-anchor: end;">0.0</text></g><g class="tick" transform="translate(0,139.0909090909091)" style="opacity: 1;"><line x2="-6" y2="0"></line><text x="-9" y="0" dy=".32em" style="text-anchor: end;">0.2</text></g><g class="tick" transform="translate(0,108.18181818181819)" style="opacity: 1;"><line x2="-6" y2="0"></line><text x="-9" y="0" dy=".32em" style="text-anchor: end;">0.4</text></g><g class="tick" transform="translate(0,77.27272727272728)" style="opacity: 1;"><line x2="-6" y2="0"></line><text x="-9" y="0" dy=".32em" style="text-anchor: end;">0.6</text></g><g class="tick" transform="translate(0,46.36363636363636)" style="opacity: 1;"><line x2="-6" y2="0"></line><text x="-9" y="0" dy=".32em" style="text-anchor: end;">0.8</text></g><g class="tick" transform="translate(0,15.454545454545467)" style="opacity: 1;"><line x2="-6" y2="0"></line><text x="-9" y="0" dy=".32em" style="text-anchor: end;">1.0</text></g><path class="domain" d="M250,0H0V170H250"></path><text transform="rotate(-90)" x="-85" y="-30" style="text-anchor: middle;">Normalized Intensity</text></g><g class="filename"><path class="profile line" d="M0,170L0.04867251523140608,170L0.9966775198835061,170L1.1020136984586386,170L1.20735033486764,170L1.3126874291282427,170L1.4180249812360133,170L1.5233629911865192,170L1.628701458997493,169.99625382586203L1.734040384664501,169.9846247989218L1.8393797681875435,169.97369783637566L1.9447196095710537,169.9653689582037L1.9646741558240446,169.96388202909267L2.050059908819465,169.968442522141L2.15540066593721,169.97969573448935L2.2607420897390913,169.99260167697105L2.3653727376335176,170L2.470714868368131,170L2.576057456976511,170L2.6821132716028737,170L2.787456775972088,170L2.8928007382283685,170L2.9981451583672825,170L3.1034900364021296,170L3.208835372324043,170L3.314181166146322,170L3.4195274178645345,170L3.524874127487546,170L3.6302212950064905,170L3.7355694288685437,170L3.8409175122015196,170L3.9462660534525944,170L4.051616092178397,170L4.156965549256801,170L4.262315464253306,170L4.367665837176776,170L4.47301666802721,170L4.578367956800175,170L4.68371970350454,170L4.7890719081403015,170L4.894424616111814,170L4.99977815425771,169.99104086641964L5.105131732714265,170L5.210485809967023,170L5.315840989775944,170L5.421195942066594,170L5.526551352306372,170L5.631907220504147,170L5.737263923438021,170L5.842620707547357,170L5.947977949623558,170L6.053335649657755,170L6.158694388725468,170L6.264053004702259,170L6.3694120786459125,170L6.474055147232953,170L6.573837584434065,170L6.679198032313773,170L6.784558938178077,170L6.889920302026978,170L6.995282123864907,169.9615149662284L7.1006444036962995,169.23720857271508L7.20600714151672,167.85902474151018L7.311370337335036,167.14820926736067L7.41673399115568,162.55255200047836L7.522098102974221,145.05317541729013L7.627462672803955,102.36497016729662L7.732827700636019,52.90903249213642L7.838193186474845,16.664175086436387L7.845059058530633,15.454545454545467L7.943559130329297,41.77657209267636L8.048925532199378,91.19592291881219L8.154292392089522,137.24621786637073L8.259659709995292,160.84704912409399L8.365027485925557,169.1671519717995L8.470395719884749,169.98265907121547L8.582062250207999,170L8.687431400220612,170L8.79280100827102,170L8.89817107435479,170L9.003541598480785,170L9.108912580644573,170L9.214284020859456,170L9.319655919116565,170L9.425028275420335,170L9.530401089779629,170L9.635774362194452,170L9.741148560233873,170L9.846522748764182,170L9.951897395363314,170L10.057272500017977,170L10.162648525784284,169.9586827476834L10.26802454658103,169.97718315367365L10.373401025451034,169.99871728382368L10.478778103124737,169.9999999937006L10.584155598024628,170L10.689533451132142,170L10.79491176232178,170L10.900290531602412,170L11.005669758974031,170L11.111049444432213,170L11.216429587985818,170L11.32181133360553,170L11.42719270658327,170L11.532574224440882,170L11.637956200402787,170L11.743338743422582,170L11.8487216355975,170L11.954105435305319,170L12.059489243710987,170L12.16487351024311,170L12.270258779634222,170L12.37564396240596,170L12.481029603304155,170L12.58641570233324,170L12.691803476092238,170L12.797190491383102,170L12.902577964813721,170L13.007965896388532,170L13.113354286098666,170L13.218743133957421,170L13.324132439964801,170L13.4295222041208,170L13.534912426429859,170L13.640303115979934,170L13.728551237119484,170L13.833942375739085,170L13.939333972525041,170L14.04472602747292,170L14.167264389433319,170L14.27265781888913,170L14.378051706520163,170L14.483446052326416,170L14.588840879010066,170L14.69423641809253,170L14.799632138446611,170L14.905029066014736,170L14.983310885117078,170L15.088707521848203,170L15.194104616776716,170L15.299502169893751,170L15.43201907417238,170L15.537418001890444,170L15.642817387819193,170L16.064419513658788,170L16.142699090224124,170L16.248100767219604,170L16.353502902443505,170L16.458905495891393,169.99916261934382L16.564308547563265,169.99406113037753L16.669712057472427,169.97794574873953L16.775116025610007,169.9525441891045L16.880520451984868,169.92550455875266L16.98592533659702,169.89876634371282L17.091330679446457,169.8838082939551L17.196736480546477,169.90258430032415L17.302142739883784,169.94140383288874L17.40754945747611,169.9772519441171L17.512956633314584,169.99761737314154L17.64550117228594,170L17.75090972289834,170L17.856318731770184,170L22.91649012589112,170L23.021921592854152,170L23.12735351821406,170L23.232785901975284,170L23.33821874413339,169.99727027910896L23.4436520446928,169.9947479163995L23.54908580365796,169.99387985729376L23.6545200210333,169.99480012468553L23.759954696823247,169.99590539673503L23.865395469138306,170L23.970831061753046,170L24.076267112786834,170L24.181703622244097,170L27.450462806883554,170L27.555913987226496,170L27.661365626081576,170L27.766817723444365,170L27.872270279328166,169.99636646122542L27.977723293719674,169.99314847625948L28.08317676664105,169.99150018349587L28.188630698079002,169.99334236131915L28.2940850880424,169.99702848863592L28.399566166047475,170L28.505021473066183,170L28.610477238623634,170L28.715933462710954,170L48.338768436190065,170L48.44431045320636,170L48.549852929257916,170L48.65539586434916,170L48.76093925848451,169.99587747559488L48.86648311165957,169.9932390384735L48.972027423887596,169.99119569535154L49.077572195155305,169.98985291781585L49.18311742548045,169.98782743938216L49.183117924830796,169.98782746691714L49.288663114863006,169.98528637611946L49.39420926329411,169.97682219149857L49.49975637014185,169.96245901139199L49.60530343669666,169.95940418595018L49.7108509623222,169.97178383979977L49.81639894701401,169.9925694018523L49.92194904770735,169.9999987087794L50.02749795054503,170L50.133047312453435,170L50.23859713344143,170L50.344147413509006,170L50.44969815266503,170L50.55524935090507,170L50.66080100823356,169.99571857214005L50.76635312465051,169.99111869740327L50.8719057001692,169.98852027587037L50.97745873478078,169.99008816896134L51.08301222849411,169.99424829315242L51.201751781407886,170L51.30730619332472,170L51.412861064352164,170L51.51841639449023,170L59.21202128496767,170L59.31761059665928,170L59.423200367660996,170L59.52879059797725,170L59.63438128760805,169.99767937885366L59.73997243655782,169.99460836680615L59.845564044831,169.99320932655235L59.95115611242759,169.9944261040598L60.056748639347596,169.99651148312603L60.162346246855904,170L60.267939692436016,170L60.37353359735284,170L60.47912796160194,170L62.90792512245111,170L63.013530511583596,170L63.119136360123704,170L63.22474266806259,170L63.330349435417986,169.9960980778136L63.43595666217658,169.98949025342216L63.54156434835169,169.98234016588876L63.64717249394772,169.98583888891594L63.75278109896026,169.99332842463758L63.858390163389316,169.99824418638255L63.96401578902705,170L64.0696257723157,170L64.17523621503416,170L64.280847117178,170L75.58386845906234,170L75.68952899562866,170L75.79518999191738,170L75.90085144793736,170L76.00651336367973,169.9949846356473L76.11217573915334,169.98898941786362L76.2178385743671,169.97632454748907L76.32350186930766,169.98064855723746L76.42916562399279,169.98506040422126L76.53483018796771,169.98382218907912L76.64049486213753,169.98590050884962L76.74615999605633,169.99091097191018L76.85182584847838,169.99421134680478L76.95749190190404,169.9974259974286L77.06316808885674,169.99999997114105L77.16883506179367,170L77.27450367931064,170L77.38017157177215,170L79.38794215035655,170L79.49361923864018,170L79.59929678674817,170L79.70497479467163,170L79.81065326241945,170L79.91633218999607,170L80.02201157740589,170L80.12769142464451,170L80.2333717317208,170L80.33905923532484,170L80.44474046207642,170L80.55042214867451,170L80.6561042951147,170L83.82678134517236,170L83.93247774816247,170L84.03817461108774,170L84.14387193394377,170L84.24956971673497,170L84.3552679594658,170L84.46096666214068,170L84.56666582475961,170L84.67236544732701,170L84.7780655298429,170L84.8837672298966,170L84.98946823232275,170L85.09516969470182,170L85.20087161704268,170L85.30657399934975,170L85.41227684162303,169.9971296472541L85.51798014386254,169.84803531680427L85.60488163825504,168.34662227929473L85.71058586044028,163.79891075746272L85.81629054260502,152.01775732876652L85.92199568474484,138.24940729766843L86.02770128686862,127.01643195069123L86.03803401445943,126.5566754806581L86.13340734898077,132.43534282256905L86.23911387107687,145.98997793677427L86.34482085316137,159.31343752136158L86.45052829523866,166.70629454110983L86.55623619731763,169.58566035437465L86.66194455938943,169.9912660383503L86.78645834123729,170L86.89216762331245,170L86.99787736539372,170L87.10358756748995,170L87.20929822959232,170L87.31500935170523,170L87.42072093384198,170L87.52643297599815,170L87.63214547816929,170L87.73785844036871,170L87.84357186259643,170L87.94928626690493,170L88.05500060919364,170L88.16071541151948,170L88.26643072835705,170L88.37214695011195,170L88.47786313255811,170L88.58357977505027,170L88.68929687759731,170L88.79501449466494,169.9837684067385L88.79501484421019,169.98376835306973L88.9007328668581,169.9937707032006L89.00645134956535,169.9987052495254L89.1121703785789,169.99999997359237L89.19404385492524,170L89.29976371781484,170L89.40548404077263,170L89.51120482380303,170L89.64077273333642,170L89.74649443651204,170L89.85221659976469,170L89.95793960896489,170L90.0542315055273,170L90.15995504903324,170L90.26567905262513,170L90.30680120957628,170L90.37140351631177,170L90.41252567326292,170L90.46271257465884,170L90.51825059704436,170L90.56843795853504,170L90.62397598092055,170L90.67416380251488,170L90.72970182490039,169.99976823716435L90.7798901065895,169.99816764189075L90.83542812897502,169.99075778487855L90.88561687077663,169.97984145988423L90.94115489316215,169.95037054583375L90.99134409506742,169.91302270591848L91.04688211745292,169.85015147633848L91.09707177946626,169.7807887788558L91.15260980185177,169.70295010513985L91.20279992398204,169.63182428983754L91.25833794636756,169.56920174247597L91.30852852861477,169.52332676555798L91.33237757830817,169.51710815582987L91.36406655100029,169.5331032002339L91.41425759336002,169.5799564202616L91.46979561574553,169.6495265575028L91.51998711822665,169.72592133330195L91.57552514061216,169.8065723346946L91.62571710321907,169.87726594266297L91.68125512560458,169.93098554518878L91.73144754833731,169.96565955013386L91.78698557072282,169.98939649570175L91.86102750327917,169.9999985805246L91.96676369873762,170L92.07249552424656,170L92.1782278099035,170L92.28396055569068,170L94.6101973837622,170L94.71594071349807,170L94.82168450343512,170L94.9274287535822,170L95.03317346393489,169.99422113427252L95.13891863450205,169.9893257700044L95.24466426528367,169.98602336821537L95.24466431975827,169.98602336789966L95.35041035627978,169.98841557127705L95.45615690749479,169.9947980885596L95.56191287092298,169.99999999855004L95.6676603425891,170L95.77340827448299,170L95.87915666660466,170L101.37870698467775,170L101.48447977282568,170L101.5902530213521,170L101.696026730257,170L101.80180089954041,169.99819192664432L101.90757552920675,169.99232310237556L102.01335061926045,169.9857148597514L102.1191261696971,169.98031432581973L102.11912650562368,169.98031432997797L102.22490218052553,169.97506498465629L102.33067865175462,169.97453099279826L102.4364555833711,169.97898044434834L102.43645591929769,169.97898044040335L102.54223297539265,169.98422693047442L102.6480111637326,169.99383374223308L102.75379268148124,169.99999997684148L102.85957145470924,170L102.96535068834675,170L103.07113038239824,170L104.34052262411647,170L104.44630830376671,170L104.55209444386637,170L104.65788104441546,170L104.76366810541842,169.99692735912336L104.86945562688852,169.99395837381647L104.97524360880809,169.99173444675944L105.0810320511948,169.99271538656652L105.18682095404422,169.99338694142602L105.28879506282411,169.99512303700382L105.39458488661674,169.9937421496186L105.50037517087651,169.98536332491778L105.60616591561677,169.9769375502369L105.7157732696697,169.96925173174887L105.82156493536644,169.964874293491L105.82156505793425,169.96487429167541L105.92735706155695,169.9701010770688L106.01286899696237,169.9818737400827L106.11866204411822,169.98905968840504L106.2244555517767,169.99145475155225L106.33024951992009,169.99841094254606L106.35053076586647,170L106.45632590268204,169.99901872250734L106.56212079182625,169.9903622875766L106.66791614147307,169.97943366352925L106.77371195162695,169.96660232420248L106.87950822229232,169.9706238943658L106.98530495346475,169.98015328595193L107.09110214514868,169.99086983108512L107.19689996985137,169.99666071593055L107.2997608765996,170L107.40555944984905,170L107.51135848360998,170L107.617157977909,170L108.88972839673745,170L108.9955338781292,170L109.10133982008121,170L109.20714622259348,170L109.31295308568373,169.99688785511657L109.41876040934311,169.99428273524435L109.52456819357604,169.99214356365485L109.63037643838696,169.99030083700828L109.73618514378032,169.9950939607577L109.84199430976054,169.99796265093497L109.94781136302024,170L110.05362145017416,170L110.15943199791494,170L110.26524300625144,170L114.81555212423225,170L114.92138340133405,170L115.02721513915128,170L115.13304733769279,170L115.23887999694529,169.99980593023312L115.34471311692207,169.99238856579206L115.45054669762757,169.98352824223988L115.55638073905736,169.97540809563287L115.66221524121143,169.97904900675562L115.76805020410308,169.98802629885424L115.8738856277323,169.9955645146574L115.95473161936373,169.9998052259713L116.060567964477,170L116.16640477032341,170L116.27224203691628,170L116.48391795235912,170L116.58975660120907,170L116.69559571081878,170L116.80143528118823,170L116.907275312313,169.99729405030973L117.01311580420638,169.97343134759288L117.11895675686839,169.90422747545696L117.22479817030344,169.79742110503057L117.3306400445071,169.6881644162571L117.43648237948382,169.66851323175558L117.54232517523802,169.7597482309477L117.64816843178299,169.86205476265414L117.75401214910103,169.9514502626798L117.85985632720984,169.99504252609012L117.99069717789206,169.9999999812664L118.09654227758243,170L118.20238783806359,170L118.30823385934438,170L120.00183287039812,170L120.10768672563646,170L120.21354104171877,170L120.31939581864951,170L120.42525105642865,169.99685455134295L120.53110675506508,169.9927902999663L120.63696291455435,169.99048796811127L120.74281953490532,169.99211726668864L120.84867661611358,169.99617216160814L120.95453537024747,169.99999996487236L121.06039337318359,170L121.16625183699472,170L121.272110761672,169.9981235312562L121.37797014722872,169.993656968393L121.48382999366045,169.98232398215367L121.58969030097605,169.97253244579744L121.58969055519077,169.97253244483784L121.69555106917112,169.97278580311348L121.80141229825004,169.9760530654599L121.90727398821728,169.98303193067733L122.01313639329199,169.98816101047282L122.118999263799,169.99382144717433L122.11900758479158,169.99382164426783L122.22486233644447,169.991253204913L122.33072632848598,169.99103397114436L122.33074406450234,169.99103446781987L122.43659032293023,169.9902278866318L122.54245477828498,169.99331152284017L122.64831969454133,169.99741014844088L122.75419296598761,170L122.8600588040649,170L122.96592510306156,170L123.07179186297311,170L128.04804951107224,170L128.15393839815783,170L128.2598277462958,170L128.36571755548607,170L128.47160782572868,169.9938166260433L128.57749855702806,169.9852722586207L128.68338974939311,169.97311539418786L128.68338978116995,169.97311539346657L128.78928140281047,169.97426023067695L128.8951735172935,169.98595600440933L129.00106609285098,169.99388291477183L129.10696966122245,169.99999998987215L129.21286315892007,170L129.31875711768782,170L129.42465153753446,170L135.99100550653898,170L136.09692897969174,170L136.20285291409186,170L136.3087773097527,170L136.41470216665653,169.9966854395298L136.52062748482103,169.99482443657746L136.62655326425067,169.99330127111503L136.73247950493655,169.99382318295815L136.838406206892,169.99778693057883L136.83840686512656,169.99778694433073L136.94433402834713,169.99475950505965L137.05026165284173,169.9828280803032L137.15618973860143,169.95508702028042L137.262118285644,169.93067238604743L137.368047293965,169.912347184922L137.47397676356886,169.90349265768623L137.4739771312723,169.9034926397433L137.579906871498,169.90987104207136L137.68583726366757,169.93623675570936L137.79176830779434,169.97621509932074L137.89769962254738,169.9940756714574L138.00363626499268,169.9980220681108L138.0495158484479,169.99973109499655L138.10956850233805,170L138.15544808579324,170L138.21550124183995,170L138.2613807844392,170L138.3673139443902,170L140.75802436551004,170L140.86396859752648,170L140.9699132909144,170L141.0758584456783,170L141.18180406181372,169.99350790983647L141.28775013932955,169.98574818979543L141.39369667823019,169.98050868981622L141.3936967190861,169.98050868957313L141.49964367850677,169.9837668165215L141.60559114017263,169.99614362032062L141.71153987126738,169.99999993390796L141.81748825571174,169.99464595973183L141.9234371015498,169.99167373416242L142.029386408786,169.99061653290835L142.13533617742027,169.99134462149286L142.24128640745715,169.99334883988413L142.36399723489725,170L142.46994838774367,170L142.5759000020015,170L142.62141190471792,170L142.66509366670297,170L142.7273639803872,170L142.7710462037925,170L142.8169232541796,170L142.8769992022979,170L142.922876252685,170L142.98295266221916,169.9994559569506L143.02882971260624,169.99614973511L143.08890658356958,169.9905882916377L143.13478363395666,169.98373634524384L143.19486096634472,169.97003515287375L143.2407380167318,169.95802901356834L143.30081581054458,169.93647847330928L143.34669286093165,169.91936083294982L143.406771116178,169.89669513462493L143.4526481665651,169.88294185666624L143.51272688324948,169.86950634336588L143.52948529421727,169.86681125242194L143.55860393363656,169.86895293623706L143.61868311175454,169.88480881821576L143.66456016214164,169.90056721125305L143.7246398016976,169.9268134852486L143.77051685208468,169.94642213785266L143.83060887848177,169.97026372381546L143.87647400347467,169.98259036114402L143.93656649131418,169.9917070553002L143.9824316163071,169.9966127756959L144.04251732047393,169.99999997996375L144.14847585620456,170L144.25443485338653,170L144.36039431202423,170L146.37371170625403,170L146.47968039456538,170L146.58564954438572,170L146.69161915572388,170L146.79758922857542,169.99385046976636L146.90355976295362,169.98000899474152L147.00953075884968,169.9684379795868L147.1155022162724,169.96303772551758L147.2214741352218,169.9613211559287L147.32744651570235,169.9660856883643L147.43341935771397,169.9785793355549L147.5393926612612,169.99245995926574L147.64537376226332,169.9999999588141L147.75134798889493,170L147.85732267706652,170L147.96329782678697,170L152.30867629923742,170L152.414670836337,170L152.52066583509628,170L152.62666129552852,170L152.7326572176204,169.99290711052677L152.83865360138088,169.98393743028353L152.94465044681877,169.9754504112911L153.05064775392518,169.97132254943156L153.05064784471617,169.97132254726606L153.1566455227179,169.97389840799508L153.26264375318357,169.9805515615009L153.36864244533552,169.98872054747616L153.42568037663557,169.99506251432013L153.47464168996916,169.99780977853362L153.47464254340431,169.99780979616745L153.5316799921601,169.99657303741296L153.58064215892884,169.99551137722827L153.6376800693797,169.99342522527553L153.68664223614851,169.99163442175376L153.7436806082901,169.99112131214122L153.79264277505885,169.99068085499854L153.84968160890006,169.99186173094097L153.8986437756688,169.99287539550826L153.9556830712096,169.99417397249525L154.00464523797837,169.99528866268207L154.06168499521868,169.99782380918168L154.11064828325595,169.999999994956L154.16768738093626,170L154.2166506689735,169.99936878824602L154.27369022835782,169.99863346098823L154.32265351639506,169.99593012890952L154.37969353749224,169.98433358510403L154.42865682552952,169.97123728400527L154.48569730833958,169.95041244195698L154.53466059637682,169.93208154684964L154.59170154089978,169.9107190236781L154.64066482893702,169.89326782191208L154.6977062351817,169.88151441993082L154.74666952321897,169.87756612189736L154.74666955953538,169.87756611945466L154.80371139118097,169.88698133592263L154.8526746792182,169.89947055034793L154.90971700890637,169.9178841294991L154.95868029694364,169.9345510143989L155.015723088358,169.95517288209817L155.0646864127116,169.97210682862365L155.12172962953576,169.98464033810296L155.17069295388941,169.9928705727458L155.2277366324486,169.99316772325312L155.27670097366112,169.991480553224L155.382708438309,169.9824199304459L155.48871636468746,169.9740584302013L155.5947247528143,169.9768910169936L155.70073360267617,169.98622519975333L155.80674291428636,169.99464326755756L155.9127544807666,170L156.01876471587352,170L156.12477527654673,170L156.2307864351636,170L156.33679805554212,170L156.44281013767784,170L156.54882268157522,169.99423444784168L156.65483568723866,169.98075749985387L156.76084915467706,169.95574696590526L156.8668630838815,169.9365602256793L156.97287747486536,169.93149153337617L157.07889232762412,169.94806495108259L157.18490764216227,169.96897046059811L157.29092355467068,169.9915792982074L157.41579892071454,169.999600770349L157.52181562060855,170L157.62783278229523,170L157.7413256259784,170L163.24740324434615,170L163.35344534671182,170L163.45948791101202,170L163.56553093724676,170L163.6715744254338,170L163.77761837556417,169.8633645682933L163.88366278764244,169.47928311686297L163.98970766167295,168.6416586325341L164.09575299766016,166.8925009230593L164.20179879559964,164.88639356515503L164.30784505550028,163.5120946811959L164.3153202757041,163.48351312777015L164.41389177736644,164.6550477079211L164.5199389611938,166.71613402774398L164.6259866069911,168.67320136859658L164.7320347147584,169.7089387216868L164.83808328449575,169.9878439179806L164.92528542235738,170L165.03133491605243,170L165.13738487172637,170L165.243435289388,170L166.09185526239477,170L166.19790983803028,170L166.30396487567123,170L166.41002037533093,170L166.51607633700056,169.99531411828255L166.62213276069335,169.99253719197284L166.72818964640493,169.9831891328041L166.83424699414414,169.98269718916302L166.94030480390654,169.9897422328977L167.04636307570104,169.9978218195697L167.1524228263864,169.99999999738947L167.25848202224503,170L167.36454168014455,169.99639038477588L167.47060180008057,169.9815647953576L167.57666238206198,169.97188947343778L167.68272342608876,169.96075851613045L167.68272399807185,169.96075851940867L167.78878493216087,169.95936193189067L167.78878505926824,169.95936193032372L167.89484690028277,169.9656587104586L168.00090945757515,169.97704918527677L168.0009432681331,169.97705117694645L168.1069727946813,169.9770217206751L168.10697391594982,169.97702172790855L168.2130361489792,169.97524721205124L168.31909996533133,169.98089148112595L168.425164243751,169.9903281902269L168.53122932470436,169.99860621532883L168.63729530806586,169.99999981518093L168.74336097268812,169.99795496630628L168.84942709939122,169.9947078165274L168.95549368817512,169.99257520533635L169.06156073903986,169.99404869445024L169.167628251981,169.99769190721545L169.273710113491,170L169.37977855061155,170L169.48584744981736,170L169.59191681112168,170L179.45838759595182,170L179.56450040605606,170L179.67061367851596,170L179.7767274133227,170L179.88284161048514,169.9982712476587L179.9889562700077,169.99448523055128L180.0950713918859,169.98571418216795L180.2011869761287,169.98091468484597L180.30730302273602,169.97862930787701L180.3073032088575,169.97862930714402L180.41341971782938,169.98134552465558L180.51953668917466,169.97296468029322L180.6256545813878,169.9620629829301L180.62565483106297,169.9620629890283L180.73177247747992,169.9571221727717L180.7317727271551,169.95712217457435L180.83789083595434,169.95045145285832L180.8378910493131,169.9504514374064L180.9440096568066,169.96225897409116L181.05012894004557,169.97227656648693L181.15624915777988,169.9836335019062L181.26236936579676,169.98996314015434L181.3684900362003,169.99638102831872L181.47461228572843,169.99999786553832L181.58073388092313,170L181.68685593851788,169.99525576464566L181.79297845851707,169.99229918152022L181.89910144092073,169.99106405420386L182.00522488573327,169.9916681361648L182.1113487929547,169.99377713570362L182.21747316259385,169.99681980151794L182.32361255751823,170L182.42973785198842,170L182.53586360888085,170L182.64198982819542,170L192.93843142509337,170L193.0446029750059,170L193.15077498761545,170L193.25694746290876,170L193.36312040089908,169.99664207734426L193.46929380159534,169.99425684156526L193.5754676649886,169.99190679148478L193.6816419910789,169.99207716877663L193.78781677987956,169.99474800313317L193.89399203139055,169.99748168020713L194.00017497257323,170L194.10635114951378,170L194.212522123808,170L194.31869922617807,170L194.4248767912806,170L194.53105481909796,170L194.63723330964336,169.99722997906338L194.74341226292572,169.99231374689847L194.84959167894056,169.98865874300776L194.95577155768348,169.98997251425226L195.06195189917221,169.9949420239286L195.16814748417252,170L195.274328751144,170L195.38051048086123,170L195.48669267332875,170L198.77856106275024,170L198.88475806461727,170L198.99095552931877,170L199.09715345686362,170L199.2033518472518,169.99545746406702L199.30955070048327,169.9939862138582L199.41575001657142,169.99316091445743L199.52194979550285,169.99369992802647L199.62815003729096,169.99610646108943L199.73435997992152,170L199.84056114742287,170L199.94676277778973,170L200.0529648710265,170L206.10724926593127,170L206.21347820993304,170L206.3197076169599,170L206.42593748701185,170L206.53216782009775,169.99621830515176L206.63839861620875,169.9847318207664L206.74462987535816,169.96636172246988L206.85086159754152,169.96463424807865L206.95709378276766,169.9644836328712L207.06332643103667,169.97644943730708L207.1695595423485,169.9833084450373L207.27579311671198,169.99176017064067L207.38204399584365,169.99761923609364L207.42442141742458,169.9999559159711L207.48827849631053,170L207.53065591789147,170L207.59451345983354,170L207.6368908814145,170L207.7431263079892,170L218.858045175175,170L218.96432970124133,170L219.07061469065198,170L219.17690014341133,170L219.2831860595238,169.99611484681537L219.3894724389939,169.99331846986505L219.4957592818171,169.98614345154343L219.6020465879979,169.98914574037892L219.70833435754957,169.9937536225456L219.81462259046324,169.99805235328498L219.92091224459256,169.9994092481491L219.96718761313196,169.99823966806514L220.02720140423912,169.99595672151355L220.0734767727785,169.99533889318516L220.13349102726986,169.99453763524386L220.17976639580925,169.99404566028662L220.23978111367148,169.99340761591895L220.28605648221085,169.99342610812184L220.34607166345728,169.99345009092184L220.45236267661838,169.9955241456074L220.55866965118705,170L220.6649615911209,170L220.7712539944434,170L220.8775468611634,170L231.2964955349113,170L231.4028342908242,170L231.5091735104006,170L231.61551319364042,170L231.7218533405526,169.9970275039391L231.82819395112824,169.99406524147258L231.93453502538063,169.99183553217011L232.0408765633098,169.99082713306748L232.14721856491573,169.9900302710438L232.25356103019843,169.98450034712005L232.3599039591712,169.99097121290313L232.46624735182513,169.99766993811295L232.46624796920375,169.99766995052806L232.5725918255522,169.99514913719509L232.67893614558184,169.99203952831894L232.78528092931487,169.99165826910598L232.8916261767424,169.99436270271866L232.99797188787323,169.99733265508158L233.1102978012536,170L233.2166444397868,170L233.32299154202775,170L233.42933910798538,170L241.51311114251524,170L241.55339127448516,170L241.61949442227206,170L241.65977455424198,170L241.7258781659539,170L241.7661582979238,170L241.83226237356075,170L241.87254250553065,169.99972500510216L241.93864704509264,169.9980685998751L241.9789271770625,169.99180017479208L242.04503218054953,169.96806489707325L242.08531231251942,169.9473442066123L242.1514177799403,169.89993058324978L242.1916979119102,169.85996241369187L242.20111489103138,169.84822217612086" style="stroke: #1f77b4;"></path></g><g class="filename"><path class="profile line" d="M1.559777021791947,170L1.623906266197648,170L1.7292382724266715,170L1.834570736471831,170L1.9399036583419933,170L2.0452370380327247,170L2.1505708755528916,170L2.2559051708980613,170L2.361239924077099,170L2.4665751350855727,170L2.5719115574974163,170L2.6772476841824937,169.99807638377473L2.7825842687103064,169.99188123012257L2.88792131108972,169.98289917207498L2.9932588113074363,169.97470157270416L2.9932590201266716,169.9747015564529L3.0985967693811864,169.97520374552403L3.2039352897072897,169.98418503172655L3.3092742043401797,169.99217565177426L3.4146135859170683,169.99999999898856L3.5199541017383,170L3.6252943491010887,170L3.730635054319912,170L3.835976217412503,170L3.941317838383294,170L4.046660044326347,170L4.15200345263357,170L4.257346447230096,170L4.362689899704821,170L4.46803381006218,170L4.573378178306606,170L4.678723004442531,170L4.784068288469957,170L4.889414084867898,170L4.994761224373749,170L5.10010788209784,170L5.205454997717863,170L5.310802571247118,170L5.416150602685606,170L5.521499092037759,170L5.626848039299145,170L5.732197444478629,170L5.837547552711837,169.99198650879936L5.942897873727517,169.99438747966448L6.048248652670164,170L6.153600034805331,170L6.258952233496235,170L6.364304386219776,170L6.469656996892448,170L6.575010065492085,170L6.68036359203642,170L6.785717998699038,170L6.891072441128335,170L6.996427341506762,170L7.101782745234239,170L7.207138942837443,170L7.312495217076562,170L7.417851949273678,170L7.523209611546278,170L7.628567259672688,170L7.733925365761527,170L7.839283929817231,170L7.943495040733916,170L8.048854520741077,170L8.154214458719538,170L8.256129500723937,170L8.359074951648463,169.8356020274692L8.464436263576275,169.01483842275982L8.569798033493118,168.01322615681502L8.67516026139899,167.56875231970216L8.780471432505252,162.94815963948844L8.88583457640248,145.77388863211067L8.991198178297605,103.33296609911848L9.096562238195059,53.320981437077606L9.201926756094839,16.15662071565103L9.20720308024108,15.454545454545467L9.307291732001381,39.05137560834336L9.412657165914688,88.3815609356648L9.518023057843621,135.09941787234902L9.623389407788181,160.02287254301575L9.728756215743939,168.8776248875731L9.834174996521693,169.98820250580218L9.946554688870362,170L10.051922870895169,170L10.1572915109489,170L10.262660609031562,170L10.368030165152016,170L10.47340017930583,170L10.578770651493006,170L10.68414158172241,170L10.789512969998471,170L10.894884816321193,170L11.00025712069501,170L11.105630318912151,170L11.21100353938372,170L11.316377217919683,170L11.421751354511171,170L11.527126416740558,170L11.632501469456397,170L11.737876980241065,170L11.84325301719222,170L11.948629848143229,170L12.054006733147672,170L12.159384076229808,170L12.264761877394069,170L12.370140277366461,169.95909713750348L12.370140495264794,169.95909705292738L12.475518994699407,169.97593530945474L12.580898170123342,169.99610278447602L12.686277803633836,169.99999994367573L12.686278139560432,169.99999995609897L12.791658567097382,169.98576140485346L12.897039116803159,169.99187823019315L13.00242012460436,169.99594523195017L13.107801703998568,169.9999999140651L13.213184022949081,170L13.318566405063157,170L13.42394924529039,170L13.52933254363078,170L13.63471643173567,169.99463181649205L13.63471669048994,169.99463180331128L13.729368404392641,169.9954211405226L13.834753077085804,169.99778595342104L13.940138207905422,169.99980078143471L14.045523796847064,170L14.150909843915164,170L14.24333498342761,170L14.348721946766355,170L14.45410936823599,170L14.55949724784538,169.99920539778435L14.664885585603397,169.9920541785197L14.770274381501165,169.98466728950655L14.87566363554756,169.96420364232216L14.981053347738142,169.9331178573227L15.086443518086213,169.90014603638633L15.099404883777188,169.89820938701715L15.191834146591773,169.89874827251586L15.297225233250389,169.93185657689406L15.360057022115827,169.95184059990513L15.402616778070927,169.96530524636796L15.465449025093854,169.98045680126205L15.508008781048954,169.9903921406496L15.570841486247101,169.9959101419849L15.626362607893178,169.99971969555537L15.676234405566706,170L15.742490329432357,170L15.847883706918315,170L15.953277542583931,170L16.05867183642033,170L16.16406694252561,170L16.26946242055469,170L16.37485808893892,170L16.480254215507244,170L16.585650800268517,170L16.731566678276636,170L16.83696417942382,170L16.942362138768388,170L17.007243015032238,170L17.04776055631478,170L17.11264189077602,170L17.21804122473491,170L17.32344101689563,170L17.363958558178172,169.99865603924817L17.428841267267035,169.99650388954444L17.467984136298398,169.99372056749328L17.53424197585356,169.98900918811597L17.534242316319705,169.989009196342L17.573385303100043,169.9889217264211L17.639643142655203,169.98877366495563L17.67878692812124,169.98721404831386L17.745045108142545,169.98276736077574L17.784189011366426,169.9772029417389L17.85044719138773,169.96745774247097L17.88959155283116,169.96270988596658L17.955849732852467,169.9474676069371L17.994994552524318,169.9446767686298L18.061252732545622,169.93487266135526L18.10039801044589,169.93108201274535L18.166656190467197,169.92642022878258L18.205801926600323,169.92191240467136L18.207173391283593,169.92175136737674L18.272060247347632,169.92629676485183L18.27206084656805,169.92629676908845L18.311206300992033,169.92562234495526L18.37746499852188,169.93533545615344L18.416611133621032,169.93757462436113L18.482869831150875,169.94583112690344L18.522016424487315,169.95023761607936L18.588275122017162,169.95290003715326L18.627422173599754,169.96035293086476L18.69368109356748,169.96708486867726L18.732828380953908,169.97106807531674L18.799087300921634,169.97521055588126L18.904493966521944,169.99149752478638L19.009901262880117,169.99722104124223L19.115320379983448,169.99999971895014L19.22072842034438,170L19.32614768677847,170L19.431556643658304,170L20.801895429502878,170L20.907310802320918,170L21.012726633447173,170L21.118142922868344,170L21.223559670602167,169.99810857570085L21.3289768766442,169.99473435550135L21.43439454099889,169.99169534243828L21.539812663666225,169.99143387921174L21.645231244650645,169.9938985530601L21.750650283956578,169.99693027632696L21.85613041179512,170L21.961550367748515,170L22.066970782027866,170L22.172391654637593,170L28.920228909137258,170L29.025679578927278,170L29.131130707220567,170L29.236582294021566,170L29.34203433933028,169.99691096828417L29.447486843155563,169.99439579378168L29.552939805492986,169.99371892846034L29.658393226360282,169.99525035352337L29.76384710573972,169.99731388616146L29.869315479928872,170L29.974770276363625,170L30.08022553132825,170L30.185681244827187,170L38.94010090298647,170L39.045595142690104,170L39.15108984115857,170L39.256584998383005,170L39.362080614376694,169.9975718346357L39.46757668913522,169.99454258739988L39.57307322266301,169.99246744950403L39.67857021496006,169.99305987273877L39.784067666030815,169.99541461113492L39.88956557587969,169.99748431388042L39.99509232122943,170L40.100591148639005,170L40.20609043483558,170L40.31159017981914,170L42.105130933393454,170L42.210638937012874,170L42.31614739946806,170L42.421656320767866,170L42.52716570090344,169.9966149096357L42.6326755398925,169.9959316554859L42.73818583772619,169.99614980922618L42.84369673967894,169.99613790156278L42.94920795521518,169.99623767205574L43.05471962961379,169.99754169107027L43.16027783020951,170L43.2657904223284,170L43.371303473314086,170L43.47681698316214,170L49.597347721884645,170L49.70288830963027,170L49.80842935639785,170L49.91397086219625,170L50.01951282702548,169.9974289937553L50.125055250898825,169.99479136589193L50.23059813379856,169.9927223222983L50.336141475746835,169.99235608597996L50.44168527673481,169.9937280196486L50.54722953676689,169.9962275383424L50.652789753870884,170L50.75833493200451,170L50.863880569191124,170L50.96942666543516,170L51.708248860296365,170L51.81379862908398,170L51.91934885695561,170L52.02489954391126,170L52.130450689950926,169.99928583125907L52.23600229508347,169.99522560027725L52.34155435930005,169.99422216241058L52.44710688261393,169.99568146576755L52.552659865025134,169.99738217495087L52.65823874162889,170L52.763792642234726,170L52.86934700195118,170L52.97490182077382,170L64.16630465310749,170L64.27190861176791,170L64.37751302982711,170L64.48311790728064,170L64.58872324413738,169.99693329467755L64.69432904038847,169.99544072235352L64.7999352960516,169.99462221816663L64.90554201112683,169.99536725816202L65.01114918560526,169.99749471060244L65.11677047446236,170L65.22237856776937,170L65.32798712049731,170L65.4335961326506,170L65.53919339283469,170L65.64480332383874,170L65.75041371426816,170L65.85602456413183,170L65.96163587342528,169.99648727734058L66.06724764216185,169.99403773627233L66.17285987033266,169.99306012270569L66.27847255795098,169.99478672357145L66.38408570501244,169.997782064968L66.48971174534945,170L66.59532581130597,170L66.70094033671887,170L66.80655532159263,170L75.46854608861732,170L75.57419921762448,170L75.67985280630971,170L75.78550685467742,170L75.89116136273651,169.9981465528764L75.99681633047808,169.9966148088338L76.10247175791545,169.99594133925876L76.20812764503974,169.99621868543784L76.31378399186427,169.99716466895094L76.4194507263818,170L76.52510799260676,170L76.63076571853198,170L76.73642390416627,170L76.94773327909496,170L77.0533928438654,170L77.15905286834936,170L77.26471335256014,170L77.37037429648446,169.99787900771014L77.47603570014002,169.99310718103743L77.58169756352241,169.9837794252991L77.68735988663607,169.97731405113308L77.7930226694854,169.9761409170861L77.79302289192329,169.97614091454977L77.89868613450389,169.97997740763472L78.00434983682463,169.98830870220993L78.11001399888546,169.98929900247384L78.21553651012198,169.99138612782238L78.21567908372482,169.99138471832595L78.32120159167638,169.99229679991723L78.42686713297977,169.99477278347558L78.53253313402772,169.99756695971624L78.64390270237598,170L78.74956962294408,170L78.85523700326559,170L78.96090484335826,170L84.76779131667887,170L84.87348490773337,170L84.97917895869645,170L85.08487346958141,170L85.19056844038381,170L85.2962638711081,170L85.40195976175872,170L85.50765611233564,170L85.61335292284332,170L85.71905069717607,170L85.82474842755411,170L85.93044661787178,170L86.03614526812905,170L86.14184439194901,170L86.2473931809921,169.95438440775766L86.24754431164406,169.95431909280623L86.35309321109038,169.9999346851165L86.45879370113717,170L86.56449465114571,170L86.67019606110719,169.99610290891079L86.77589793103044,169.94170172677812L86.88160026091548,169.72369521894447L86.97404090933466,168.1423391724484L87.07974415915656,163.29496994001005L87.18544786894468,151.26576541858765L87.29115203870788,137.36824460380825L87.39685666844171,126.483084038334L87.41162146854893,125.84248318732594L87.50256175815952,132.59933040917363L87.6082673078568,146.34707721312938L87.71397331754251,159.700146557679L87.81967978721214,166.97325650899654L87.92538671687015,169.68944150482116L88.03109410651656,169.99774884498177L88.15021814263443,170L88.25592645227533,170L88.3616352219179,170L88.46734445156216,170L88.57305414121696,170L88.67876429087343,170L88.78447490054046,170L88.89018597022691,170L88.9958974999239,170L89.1016094896403,170L89.20732193938053,170L89.31303529402041,170L89.41874866380833,170L89.52446249362899,170L89.63017679709658,170L89.73589192376961,170L89.84160713369283,170L89.94732280365321,170L90.05303901537145,170L90.15875606391826,170L90.26447311402111,170L90.37019062416995,170L90.47590859437368,170L90.58162712904192,170L90.62832193371368,170L90.68734636436552,170L90.73404082403158,170L90.79306571474719,170L90.83976017441326,170L90.8987855251926,170L90.94547998485866,170L91.00450579570175,170L91.11022698023837,170L91.21594817088831,170L91.32166982161972,170L91.42739234552268,170L91.53311491640818,170L91.63883794737518,170L91.7445614384325,170L91.82427464315134,169.99222062529597L91.85028575727475,169.9896821447154L91.89697898218358,169.99189200128978L91.95010923652144,169.99440650402713L92.00270339341718,169.99703279600791L92.05583410784536,169.99970339182443L92.06173503983226,170L92.1084282647411,169.99906365289613L92.1615594392685,169.99512812816286L92.21415359616424,169.98326680940448L92.26728523078641,169.9633040591301L92.31987938768215,169.9340987684712L92.37301148240796,169.90029790853117L92.4256056393037,169.8606789867199L92.47873819413317,169.81817263022356L92.5313323510289,169.77949678922383L92.58446536597087,169.74919811801848L92.63705952286661,169.73462186991296L92.67008281577571,169.73103316805825L92.69019299791223,169.7334612222491L92.74278715480797,169.75853650436412L92.7959210899661,169.79465666323136L92.84851524686181,169.83536217237122L92.90164964213689,169.87849596650673L92.95424379903262,169.91675641642493L93.00737865442464,169.94956773301845L93.05997281132036,169.96753840871577L93.11310812683375,169.97980683403236L93.16570228372949,169.98270236818465L93.22474060288646,169.98132637768185L93.31174119934431,169.976126499331L93.33047099554275,169.9748753564275L93.35156733952167,169.97639074099632L93.41747205213086,169.98112478422502L93.45729865243403,169.98416888023098L93.5232033650432,169.9894754946939L93.62893513809468,169.99452668326137L93.75340038601479,169.99999968950536L93.85913307934003,170L93.9648662328044,170L94.07059984641229,170L95.6566592696664,170L95.76240024594334,170L95.8681416824126,170L95.97388357907415,170L96.07962593593246,169.99852640002948L96.1853687529875,169.99568406026117L96.29111203023926,169.98788833226862L96.39685576769665,169.9861477616721L96.3968560900046,169.98614776947323L96.50259996535964,169.98554073616359L96.60834462322822,169.98266995796095L96.60834494553617,169.98266995329027L96.71409006361924,169.98738799987387L96.81983564191233,169.9952183653651L96.92558168042436,169.99766600967348L97.03133527900927,169.99999990813103L97.13708640072959,170L97.24283381990718,170L97.3485816993081,170L102.53078746098777,170L102.63655835514646,170L102.74232970967034,170L102.84810152455499,170L102.95387379981372,169.99788318229358L103.05964653543764,169.99576236484472L103.16541973143562,169.99386176118963L103.27119338781652,169.98993236160408L103.37696750457151,169.99288316514432L103.48274208171387,169.99739223367413L103.58851785464157,170L103.69429335255421,170L103.80006931084978,169.99571356559585L103.90584572954603,169.99121645200574L104.01162260862964,169.99069532259753L104.11739994811833,169.99600625322302L104.22317774800325,169.9981447016268L104.32895957638293,170L104.43473829707361,170L104.54051747818271,170L104.6462971196969,170L106.4446213302518,170L106.5504092596296,170L106.65619764947017,170L106.76198649977343,170L106.86777581053944,169.99820537104404L106.9735655817859,169.99456278104066L107.07935581349953,169.98142555506092L107.18514650568476,169.96499116062768L107.18514656015932,169.96499115804227L107.29093765835486,169.96797581487883L107.29093771282945,169.96797581483352L107.396729271501,169.97550323021926L107.50252139960219,169.9872842962275L107.60831393372256,169.99147423065594L107.7141105236503,169.99999962902382L107.81990397874489,170L107.9256981394733,170L108.03149251555983,170L109.93586978801468,170L110.04167291405012,170L110.14747650063694,170L110.25328054777516,170L110.35908505546921,169.99805593158032L110.46489002371906,169.99593110691717L110.57069545253361,169.9916362675898L110.67650134191287,169.9900244588182L110.67650158704849,169.99002445872347L110.7823076918568,169.9910649335715L110.87475121299012,169.99366076255114L110.98055848407232,169.99689907266063L111.0863662157325,169.99966678472884L111.19217440796622,170L111.31135410825067,170L111.41716322164926,170L115.8615604638625,170L115.96738938482775,170L116.07321876649956,170L116.17904860886905,170L116.28487891194511,169.9969555512432L116.3907096757277,169.9955416508454L116.49654090022129,169.99480190199768L116.60237258542585,169.99599433605002L116.70820473135028,169.9982630271372L116.7762804145272,170L116.88211348189132,170L116.9879470099753,170L117.09378099878799,170L117.23737383353583,170L117.34320874381481,170L117.44904411482253,170L117.55487994657227,170L117.66071623905513,169.9964162095711L117.7665529922889,169.9940994465844L117.87239020626468,169.99365427831987L117.94046949578492,169.9943416992605L117.99940529630322,169.99495589565595L118.04630763126247,169.99547178790726L118.1052438925272,169.99659817141966L118.15214622748645,169.99817296382764L118.21108294951539,169.99955264585785L118.25798528447463,169.9986101199411L118.31692246725889,169.9926606977059L118.36382480221813,169.9803017078155L118.42276244576212,169.9575545575758L118.46966478072137,169.93440253733462L118.52860288502956,169.9004775059436L118.5755052199888,169.87245936037525L118.63444378507003,169.83878536274108L118.68134612002927,169.82110132933283L118.71910545399693,169.8126857389728L118.74028514587026,169.8154941143744L118.7871874808295,169.82510162753772L118.84612696744797,169.8499844860659L118.89302930240721,169.87433054795494L118.95196924980316,169.9046438963551L118.9988715847624,169.9272946953563L119.0578119929314,169.95423009293387L119.10471432789065,169.97166538744509L119.22955990945073,169.99846170618142L119.35416501099499,169.9999999943405L119.46000913647785,170L119.56585372274262,170L119.67170512517063,170L122.2121181434146,170L122.31797471111746,170L122.4238317396776,170L122.52968922909943,170L122.63554717938743,169.99944015651388L122.741405590546,169.98903082316963L122.84726446257515,169.97147949268467L122.95312379547931,169.95844920188074L122.95312387719119,169.95844920178337L123.05898358925849,169.96619405676572L123.16484384391711,169.98424254244685L123.27070464116704,169.9909632901159L123.37656581759343,169.99479616932652L123.48244429209386,169.99918777444432L123.58830639029243,170L123.69416894938817,170L123.80003196937665,170L128.24668446925986,170L128.35256731027405,170L128.4584506123007,170L128.56433437534866,170L128.67021859940908,169.9974471120099L128.7761032844952,169.9921146717308L128.8819884306071,169.98756414129636L128.98787403773585,169.99323081750885L129.09376010589918,169.99559218383226L129.19964663509714,169.9972319540688L129.30554427511075,170L129.41143172637345,170L129.5173103507677,170L129.62319872411734,170L129.7290875585105,170L129.83497685395156,170L129.9408666104405,169.99608059637427L130.04675682798626,169.99318179193122L130.15264750658875,169.992156919401L130.25853864624804,169.9932819308537L130.36443024696408,169.99533995742692L130.470335555153,170L130.5762280780092,170L130.68212106192215,170L130.78801450691847,170L137.91476330469058,170L137.9898465427727,170L138.09577180818712,170L138.20169753486226,170L138.30762372280248,169.99873243677555L138.4135503720034,169.99413333868839L138.51947748246948,169.97760115429259L138.62540505421399,169.9608336113682L138.73133308722805,169.94735929750004L138.76217465330404,169.94568039645586L138.8372615815161,169.94946059993956L138.94319053707812,169.96056812642118L139.04911995392305,169.97725875171486L139.15504983205523,169.99285442382597L139.2609845657489,169.9999998860006L139.36691536645571,170L139.47284662844982,170L139.57877844253102,170L141.80345075495907,170L141.90939262739437,170L142.01533496119234,170L142.12127775634409,170L142.22722101285407,169.99761011272253L142.3331647307311,169.99526783870957L142.4391089099753,169.99383934024357L142.54505355058654,169.99352947200947L142.54505390013182,169.9935294730552L142.65099865257378,169.99157436417832L142.7569442159281,169.98819183040212L142.86289024066275,169.98780669484296L142.96883707632307,169.9906958746146L143.07478402381858,169.99173119428212L143.18073143270774,169.99384935801515L143.2866813957092,169.99999952072753L143.39263369947304,170L143.49858249252554,170L143.6045317469806,170L144.1342809681582,170L144.24023299104192,170L144.34618547533702,170L144.452138421048,170L144.5580918281837,169.99144535528657L144.66404569674415,169.97925958932208L144.77000002672486,169.96311887130383L144.87595481813472,169.95424189245938L144.87595482721383,169.9542418923259L144.98191007097375,169.9700962706215L145.08786578524638,169.98841785010882L145.1938220426733,169.99869514679492L145.29978848070297,169.999999974136L145.40574557929853,170L145.5117031393321,170L145.61766326262358,170L147.7369125879033,170L147.84288030038462,170L147.9488484743749,170L148.0548171098697,170L148.1607862068779,169.99913413896846L148.26675576540387,169.99378616793206L148.37272578543883,169.98816614967572L148.47869626699602,169.9827066243117L148.58466721007548,169.98200716252404L148.69063861468607,169.9861866290181L148.79661048081448,169.99563468364303L148.9025828084784,169.99872354568024L149.00856073189408,170L149.11453398262913,170L149.22050769489528,170L149.32648186870145,170L152.6119101954908,170L152.71789914001283,170L152.8238885461679,170L152.92987841394716,170L153.035868743364,169.99853580720855L153.1418595344183,169.99613008058688L153.2478507871146,169.9932864829687L153.35384250145282,169.9919880287069L153.45983467742855,169.99341613048628L153.56582731505952,169.9963024664706L153.6718211906041,169.9999999376075L153.7778147515367,170L153.8838087741246,169.99704229030843L153.98980325837212,169.99530894740008L154.09579820427933,169.99469973562609L154.20179361185063,169.9959172739651L154.3077894810905,169.99801857361632L154.41378648839165,170L154.51978328096862,169.99670098900563L154.62578053522745,169.99420448268492L154.73177825115923,169.99361356903304L154.83777642877283,169.99504238702198L154.9437750680639,169.99701740528627L155.0497749770853,170L155.1557745397533,170L155.26177456411207,169.9982157699397L155.36777505016153,169.9900708748948L155.473775997915,169.9785607533459L155.57977740736362,169.97472254591648L155.68577927850737,169.9718883202944L155.79178181110416,169.96720514575355L155.89778460566038,169.95909850847232L155.89778489619147,169.95909848890207L156.00378786192945,169.96378783153773L156.1097916843166,169.96710138592468L156.21579605013739,169.9796143626161L156.21579847879588,169.97961438398758L156.32180081866133,169.97831119901974L156.32180110011333,169.97831119460596L156.4278060715959,169.9811800001588L156.5338117681029,169.98706477412446L156.63981786731307,169.9920030104328L156.7458245508261,169.99582725909107L156.85183328037218,169.9992997793829L156.9811896424678,170L157.0871975159809,170L157.1932058512291,170L157.5938948321105,170L157.69990547610038,170L157.80591658183863,170L157.91192814933848,170L158.01794017859558,169.992446176415L158.12395266961875,169.98731896423706L158.2299656224035,169.98708295228658L158.33597903695883,169.9876559041126L158.44199291328465,169.9907372260636L158.54800727862713,169.99628531566242L158.67700790125323,169.99983629920686L158.78302316291274,170L158.88903888634718,170L159.00209799510012,170L164.61457377247297,170L164.7206148980466,170L164.82665648555476,170L164.93269853499302,170L165.03874104637023,170L165.14478401968643,169.84905134090513L165.25082745494603,169.46218815717592L165.35687135215346,168.62520843681645L165.4629157113043,166.91268412302892L165.56896053241186,164.97588064146512L165.67500581547165,163.71705652187603L165.6769835878472,163.70636528263708L165.78105156048372,164.92008277467625L165.88709776745694,166.91615529255938L165.9931444363957,168.78569561076117L166.0991915672912,169.75898888016144L166.20523916015665,169.99559606645474L166.28831147003962,170L166.33703217538115,170L166.39435998684954,170L166.44308069219107,170L166.50040896563388,170L166.54912967097542,170L166.6064584063971,170L166.65517911173862,170L167.03066078926963,170L167.13671253996262,170L167.24276475264338,170L167.34881742732514,170L167.45487056400353,170L167.5609241626829,170L167.66697822337224,169.9968537036106L167.773032746067,169.9947890213514L167.87908773076722,169.99015063300112L167.98514358150607,169.9869997290288L168.09119949023497,169.9875128122192L168.19725586098264,169.9924497632575L168.30331269375347,169.99909214724264L168.3520329950752,169.99956859825352L168.39614670792128,170L168.45809028986483,170L168.50220446474296,170L168.56414804668654,169.99992648048814L168.60826268358787,169.99987412176964L168.67020626553142,169.99555679210135L168.71432136446927,169.9914282364627L168.77626494641282,169.9825374804635L168.8203805073827,169.97481887742785L168.88232408932626,169.9586250381061L168.92644011233264,169.94562394787596L168.98838369427622,169.92767730577805L169.03250017932353,169.91444213717836L169.0944437612671,169.9116753217639L169.13856070835092,169.91449409677995L169.20050429029448,169.9255298684179L169.24462169942808,169.93726878007084L169.30656528137163,169.95287615110678L169.35068315255506,169.9635485158309L169.41262673449864,169.97705358846414L169.4567450677274,169.98542578734907L169.51868864967096,169.99330928150152L169.56280744495396,169.99671384730502L169.5760591386105,169.99726263054274L169.68209550324386,169.99418551923023L169.78815880458333,169.98640421599433L169.89422256798588,169.98479921107608L170.00028679345155,169.98833713614144L170.1063514809803,169.99396283716675L170.21242524664427,169.99999986159935L170.31849085831692,170L170.42455693206603,170L170.53062346788707,170L177.2137468892581,170L177.3198430035897,170L177.4259395801795,170L177.532036619023,170L177.6381341201202,169.997129433668L177.7442320834756,169.99456618047344L177.85033050909357,169.99246053465822L177.95642939698297,169.99246168396263L178.062528747135,169.99481622129844L178.16862855955844,169.99771597697432L178.2747333193274,170L178.3808340562982,170L178.48693525554935,170L178.59303691707638,170L181.0335022650093,170L181.13961502209304,170L181.24572824152358,170L181.35184192330092,170L181.45795606743843,169.99642519289318L181.56407067392712,169.99459589664977L181.670185742776,169.99000549119708L181.77630127399382,169.98391853686397L181.88241726756735,169.98164198970147L181.98853414568785,169.9815065869145L181.98853418654377,169.98150658711967L182.09465106399935,169.9730863884847L182.09465123650222,169.9730863894693L182.20076844468426,169.96864400816392L182.2007686171871,169.96864400350702L182.30688628774257,169.9789714150524L182.41300476568603,169.99100852482596L182.51912353350448,169.9960287658068L182.62524360352174,169.9999997302753L182.73136329610475,169.99738415865576L182.83748345108776,169.99610467987208L182.94360406844868,169.9951524469142L183.04972514821398,169.99500042029285L183.15584669037048,169.99632094418848L183.261968694927,169.99831901605967L183.36810489401802,170L183.47422782337898,170L183.58035121514885,170L183.68647506933203,170L193.9826858508289,170L194.0888550342224,170L194.19502468029523,170L194.30119478904294,170L194.40736536047436,169.9907250931957L194.51353639458512,169.98290485091707L194.61970789138405,169.9799165111818L194.61970820915244,169.9799165198003L194.72587985088,169.97986620106613L194.8320522730597,169.9828542334338L194.93822547570923,169.99193017534049L194.9382535755151,169.99193182933243L194.9801881096556,169.99127417537596L195.04439882328305,169.98869336052326L195.08636145722934,169.98765504825766L195.15057263355382,169.98606622887831L195.19253526750015,169.9859168105035L195.25674724246156,169.98568818321152L195.29870954048133,169.9891410471329L195.36292197814416,169.9944244394475L195.46909717653713,169.99808378563895L195.46909785292988,169.99808379526436L195.57527351403314,169.99740449080943L195.6814496378512,169.99541158762196L195.78762622437958,169.99067294295037L195.89380327363162,169.9895499274292L195.99998078560728,169.99519617482332L196.10615876030658,169.99788682814267L196.21236444863976,170L196.31854334879964,170L196.4247227116876,170L196.53090253730804,170L207.15120783842778,170L207.25743441415943,170L207.3636614528985,170L207.46988895464932,170L207.5761169194164,169.9961591631514L207.6823453472041,169.9936634684081L207.78857423800804,169.99321431969202L207.89480359183705,169.99496978141252L208.00103340868674,169.99734478044277L208.1297381901852,170L208.23596893309838,170L208.3422001390499,170L208.44843180803102,170L219.7954354506274,170L219.90171714339036,170L220.0079992994843,170L220.11428191891366,170L220.22056500167398,169.99673719128018L220.32684854777415,169.9939886541804L220.43313255721418,169.99222066042265L220.5394170300029,169.99311054266403L220.64570196613147,169.99582746791438L220.75198816457376,169.99974908353616L220.85827402740418,170L220.96456035358776,169.99375086173458L221.0708471431289,169.98636364932233L221.17713439603207,169.97937332430396L221.28342211229725,169.9788933171129L221.38971029192442,169.98911679685943L221.49599893491802,169.99466393256589L221.6022882047063,169.9982968691234L221.72543867480263,170L221.83172870791776,170L221.93801920441263,170L222.04431016428725,170L242.8762272066844,170L242.9826095051894,170L243.08899226760613,170L243.195375493939,170L243.30175918419692,169.99783344903L243.40814333837096,169.95125514139337L243.51452795647006,169.85515600866756L243.620913038503,169.6923855218253L243.72729858446542,169.49737146819007L243.76089191282333,169.44317046824267" style="stroke: #ff7f0e;"></path></g><g class="filename"><path class="profile line" d="M3.1195540435883276,169.99466879121547L3.18368243909844,169.99708236124894L3.2890163837147153,170L3.394348847759875,170L3.4996817696300373,170L3.605014681747263,170L3.7103485192674297,170L3.8156828146125994,170L3.9210175677916372,170L4.026352778800112,170L4.131688447646887,170L4.237024574331965,170L4.342361158859777,170L4.4476982012391915,170L4.553035701456907,170L4.6583740453922875,170L4.763712461308774,170L4.869051335085727,169.99812806017425L4.974390748439455,169.9815388696601L5.07973096011093,169.96495961602602L5.185071207473719,169.96183281460145L5.185071248329657,169.96183281338872L5.2904119126925435,169.9731523156625L5.395753075785134,169.98303742477918L5.501094696755924,169.9906467082386L5.6064368164475535,169.99677503345873L5.7117796709298485,169.9999998866013L5.817125879526782,170L5.922469332001508,170L6.027813732630116,170L6.133158523052561,170L6.248745100075943,170L6.354090413796626,170L6.4594361854043765,170L6.564785982997692,170L6.670132670406174,170L6.775479815719455,170L6.880827418937535,170L7.397325287217347,170L7.5026756082330275,170L7.608026387175674,170L7.713377624045285,170L7.8187293188462945,170L7.924081471569837,170L8.029434082242508,170L8.134787150842145,170L8.24014067738648,170L8.345495120365488,170L8.450849562794785,170L8.556204463173211,170L8.661559821505204,170L8.766916128057574,170L8.87227240229669,170L8.977629134493808,170L9.082986324653355,170L9.188344385878686,170L9.293702491967524,170L9.399061056023228,170L9.504420078054661,170L9.609779898527968,170L9.715139836506426,169.91614398292458L9.725386139789759,169.90711046336114L9.820500232473915,169.99096646472438L9.921798410588902,170L10.027159722516716,169.53406930042462L10.132521492433558,168.33131115664742L10.237883720339429,166.865507140746L10.343246406243196,166.18951960487726L10.448609550140425,161.4159795454842L10.55397315203555,142.89276025281248L10.659337211933002,99.91329976141762L10.764701729832785,49.906305031940164L10.870066705739328,16.53428723738702L10.876295622382282,15.454545454545467L10.975432139652632,43.45502671451962L11.080798031581566,92.59463803178788L11.186164381526126,138.3320272094244L11.291531189481882,161.5785894917579L11.396898455462132,169.1581629846747L11.502266179462444,169.97126433307784L11.611699974403422,170L11.717068614457157,170L11.822437712539816,170L11.92780726866027,170L12.033177282814085,170L12.13854775500126,170L12.243918685230664,170L12.349290073506726,170L12.45466191982945,170L12.560034224203264,170L12.66540701840058,170L12.770780670129266,170L12.87615434866523,170L12.981528485256717,170L13.086903088991697,170L13.19227851849007,170L13.297654029274737,170L13.403030029909502,170L13.508406534013012,170L13.61378376402315,169.9613152684654L13.719161107105286,169.97918433757053L13.824538908269545,170L13.929917262846454,170L14.035296343343285,169.9677527073695L14.035296361501478,169.96775270181234L14.140675518767221,169.9737134051538L14.246055152277716,169.99423891737132L14.351435262046262,169.99922810812927L14.456816320181483,169.99999999853694L14.562197327982686,170L14.667578793888177,170L14.772960717897963,170L14.878343299752176,170L14.98372613997941,170L15.08910976062775,170L15.19449351708573,170L15.299878167453533,170L15.405262840146694,170L15.510647970966314,170L15.616033559907956,170L15.721420001916783,170L15.826806507120207,170L15.93219347045895,170L16.037580891928584,170L16.1429691846369,170L16.248357522394915,170L16.353746318292682,170L16.459135713065084,170L16.56452583381504,170L16.66991600416311,169.98730490754897L16.77530663266867,169.95303051718702L16.880697719327287,169.91062132255306L16.98608960007442,169.8775940937884L16.986089686325847,169.87759409129447L17.091481603052447,169.88726735741966L17.196874064205698,169.92414787238604L17.3022669835253,169.96062597036837L17.40766036101126,169.98401924752707L17.513054282928294,169.99909931996396L17.61845089647403,169.99999999953457L17.723845648494525,170L17.829240858690234,170L17.934636527074463,170L18.461621741850042,170L18.56702015939643,170L18.67241903514021,170L18.777818369099105,170L18.883218161259823,169.99670116160817L18.98861841163123,169.99026496085105L19.09401912021775,169.98073620543153L19.199420287019397,169.96255057528907L19.30482191204059,169.95992842299597L19.41022399528578,169.97236744255017L19.515626536750514,169.98271771609907L19.621029590918255,169.9831800721415L19.726433466478298,169.97679301916133L19.726433929512257,169.97679301946303L19.831837382632724,169.97400271101878L19.831837514279634,169.97400270799528L19.93724175702444,169.9785698707278L19.93724188867135,169.97856987542235L20.042646721300347,169.976235800957L20.059769194986718,169.97655325540666L20.14805201216663,169.97604949500112L20.148052343553683,169.97604949215818L20.253458092666115,169.99043596626288L20.358864300020272,169.99304530615836L20.464281960407288,169.99577457711953L20.569689084262613,169.9948253299472L20.57992784667302,169.99473825131204L20.67509666637296,169.99539282656553L20.780504706733886,169.9974147083017L20.896209477634578,170L21.001618464220968,170L21.107027909075672,170L21.212437812198697,170L29.741863344964205,170L29.847310805284497,170L29.952758724094767,170L30.058207101390575,170L30.163655937176358,169.9966116585307L30.26910523146542,169.99238091212766L30.37455498424889,169.98999298131253L30.480005195526765,169.99098218436876L30.58545586531678,169.99391873633064L30.690906993610078,169.99675077726997L30.79636965237011,170L30.901821697678816,170L31.007274201504103,170L31.112727163841527,170L40.07790512222651,170L40.18339752692402,170L40.28889039037306,170L40.39438371257363,170L40.49987749352574,169.99636398776474L40.605371733229376,169.99290911874448L40.71086643169784,169.9899470912434L40.81636158892227,169.99004071794838L40.92185720491596,169.99365568778168L41.027353279674486,169.9978222809081L41.13288972491356,170L41.23838671721061,170L41.343884168281356,170L41.44938207813024,170L46.93587299351646,170L47.041395222352264,170L47.14691791010806,170L47.25244105679271,170L47.357964662401784,169.9965063753731L47.46348872693971,169.99422901462765L47.5690132504065,169.99339397366575L47.67453823281102,169.99508247371585L47.78006367414882,169.9978825620339L47.88560992522515,170L47.99113628445169,170L48.096663102611544,170L48.2021903797224,170L60.76320861352995,170L60.86879098364884,170L60.97437381303351,170L61.07995710169282,170L61.18554084962677,169.9980963995133L61.29112505683536,169.9942114040464L61.396709723327476,169.98545761401826L61.50229484910309,169.97649008126535L61.607880434157785,169.97788744967306L61.71346647850485,169.99126241792302L61.8190529821443,169.9965689051988L61.94890518512464,170L62.054492607348834,170L62.1600804888787,170L62.26566882970538,170L65.93729029221956,170L66.0428951696731,170L66.14850050652983,170L66.25410630278091,170L66.35971255844407,169.99756729092468L66.46531927351928,169.99291100067572L66.5709264479977,169.98500160541633L66.67653408189264,169.98472260528126L66.78214217519964,169.99004006182855L66.88775080056035,169.9964795286427L66.99337340412217,169.9996665901953L67.09898287569197,170L67.20459280669603,170L67.32125416074678,170L73.65792627973622,170L73.76356473017063,170L73.86920364019441,170L73.97484300981205,170L74.0804828390368,169.9987941819093L74.18612312785983,169.99674207853727L74.29176387628998,169.99532519593208L74.39740508432726,169.99609773264214L74.50304675197611,169.99815684342678L74.60870308802365,170L74.71434567490006,170L74.81998872140132,170L74.92563222751858,170L77.45093882940866,170L77.55659379715023,170L77.6622492245876,170L77.76790511171188,170L77.87356145853641,169.9957607679801L77.97921826506115,169.99192174520573L78.08487553128613,169.9899766481148L78.19053325721133,169.99103199445779L78.29619144284563,169.99336135579517L78.40185008818901,169.99529223084664L78.50751084563717,170L78.6131704104076,170L78.71883013982091,170L78.82449062403168,170L78.930151567956,170L79.03581297161156,170L79.14147483499397,169.9976968627302L79.24713715810762,169.99484057674974L79.35279994095697,169.9934013717361L79.35280023602762,169.99340137368128L79.45846318353756,169.98861271814533L79.56412688585829,169.98610407833766L79.56412718092895,169.9861040761322L79.6697913429898,169.98802586740723L79.77545596479521,169.99151581527542L79.8811210463496,169.99622645755812L79.99587355642879,170L80.10153955747673,170L80.20720601828697,170L80.31287293885507,170L82.62857842327652,170L82.7342559189935,170L82.8399338745304,170L82.94561228989608,170L83.05129116508613,170L83.15697050010496,170L83.26265029495701,170L83.36833054964228,170L83.4740112641652,170L83.57969243852578,170L83.68537865313742,170L83.79106074719104,170L83.89674330109118,170L84.00242631483785,170L86.9617374100128,170L87.06743376058974,170L87.1731305710974,170L87.27882784154026,170L87.3845255719183,170L87.49022376223596,170L87.59592241249324,170L87.70162152269457,170L87.80732109284436,170L87.91302210348516,169.96774546165776L87.92328972687375,169.9642751916935L88.01872259353192,169.99560946344124L88.12442354354049,169.9999009834811L88.23012495350196,170L88.33582682342521,170L88.44152915331024,169.92746955113304L88.54723194315706,169.54054705883547L88.64444174748479,168.11642107844514L88.75014545727291,164.2514171376548L88.8558496270361,153.84682681542566L88.96155425676994,140.48402126764734L89.06725934648773,128.2627072524418L89.09280186570697,126.8228316846677L89.17296489618504,130.8389093188132L89.27867090587073,143.94383406556133L89.38437737554037,157.58261014135783L89.49008430519838,166.23947324308543L89.59579169484478,169.50642126346995L89.70149954449286,169.99179758050244L89.81570359663951,170L89.9214123662821,170L90.02712159592635,170L90.13283128558115,170L90.23854143523764,170L90.34425204490465,170L90.4499631145911,170L90.55567464428809,170L90.66138663400449,170L90.76709908374474,170L90.87281199350883,170L90.97852580363299,170L91.08423963345363,170L91.18995392330257,170L91.29566868681172,170L91.40138435068981,170L91.50710002065017,170L91.61281615065656,170L91.71853336262711,170L91.82425041272994,170L91.9299679228788,170L92.03568589308253,170L92.14140432334113,170L92.24712321365905,170L92.35284256404073,170L92.45856259238445,170L92.56428296276368,170L92.67000369334545,170L92.77572574650962,170L92.8700534172548,170L92.9757750679862,170L93.08149717879023,170L93.18721974967573,170L93.30433860095488,170L93.41006255209369,170L93.50439022283886,170L93.61011463407245,170L93.71583950539637,170L93.8215648368195,170L93.86177864708823,169.99817112330567L93.92729062833742,169.99147769436237L93.96750538860864,169.97918667166059L94.03301687995898,169.9518596524814L94.07323259024157,169.93216691619605L94.13874359168418,169.89860125524459L94.17896025197814,169.872769012252L94.24447076352187,169.8271470074109L94.28468837382722,169.8056819584421L94.35019839546322,169.77918172559612L94.36160011962237,169.77539576236228L94.39041695579324,169.78037281200693L94.45592648751709,169.80007672986582L94.49614599787621,169.8238686024694L94.56165503968789,169.87084768824994L94.60187550008499,169.89968573126097L94.66738405197565,169.94286363411732L94.70760546240626,169.96203825219104L94.77311352438477,169.9849085332126L94.87884345691081,169.9979133786686L94.89024831240981,169.998139762935L94.99597916519635,169.99319508609835L95.1017104781087,169.99206078984625L95.20744225116016,169.99194266334473L95.31317448434187,169.993260796596L95.41890717766711,169.99600846235273L95.52465136223458,170L95.63038497584247,170L95.73611904959834,170L95.84185358350219,170L104.19633533608689,170L104.30210669061078,170L104.40787850549543,170L104.51365078075416,170L104.61942351637806,169.99559816748226L104.72519671237605,169.99392470095108L104.83097036875698,169.9936829390676L104.93674448551195,169.9944516610042L104.94701825015616,169.9945971028877L105.04251906265429,169.99423769726027L105.14829482650292,169.9967467858196L105.25407032441555,169.99250357893857L105.35984628271115,169.98820885793867L105.46562270140737,169.98544930403222L105.57139958049098,169.987065848449L105.67717691997967,169.99228633469642L105.78297074447116,169.99821490418213L105.88874900476563,169.99984640864577L105.99452772545631,170L106.10030690656541,170L106.21635106929406,170L108.1101863949147,170L108.21597478475525,170L108.32176363505853,170L108.42755294582453,170L108.533342717071,169.9955507908482L108.63913294878462,169.98593841632993L108.74492364096984,169.9717572063057L108.85071479363997,169.9541089681139L108.8507150977897,169.9541089818857L108.9565064067861,169.95283510498052L108.95650671093586,169.95283509797164L109.0622984804127,169.958465196113L109.16809101453306,169.96958301543836L109.27388431328808,169.97842057182396L109.37967776838268,169.98612820181978L109.48547168397545,169.99437904050623L109.59127807170758,169.99999984890277L109.69707752501768,170L109.80287282210946,170L109.90866857970389,170L111.50592171922392,170L111.60145002209792,170L111.70725360868475,170L111.81305765582296,170L111.918862163517,169.99789429756146L112.02466713176688,169.9934339699976L112.13047256058142,169.989193662951L112.23627844996068,169.98750772807006L112.34208479990461,169.99053247652373L112.44789161041767,169.99678838143763L112.55370775631738,170L112.65951548797754,170L112.76532368021128,170L112.87113233302743,170L119.56584947141545,170L119.64384405965927,170L119.74968265588326,170L119.85552171287145,170L119.96136123061494,169.99926795552278L120.06720120911818,169.98944721923706L120.17304164838562,169.968997834666L120.27888254842608,169.94119046219834L120.38472390922632,169.92426115973086L120.4125711425602,169.92175872019573L120.49056573080402,169.9240313102894L120.5964080131592,169.94808231697695L120.70225075628746,169.96953054464825L120.8080984906671,169.9943587051457L120.91394215535918,169.998790385384L121.01978628084204,169.99999993815692L121.1256308671068,170L121.23148229223257,170L121.33732780008333,170L123.87775185548163,170L123.98360888404179,170L124.08946637346364,170L124.19532432375162,170L124.3011827349102,169.99813886448302L124.40704160693934,169.9935740265583L124.5129009398435,169.98171421716944L124.61876073362268,169.96912739436723L124.7246209882813,169.9753762260667L124.83048170381937,169.97852442116897L124.93634296649716,169.98440018251105L125.04220478085426,169.9881574991856L125.14806706517432,169.99385583208908L125.25392962427004,169.996824265512L125.35979848211804,169.99999920127829L125.46568787021198,170L125.57155253832703,170L125.67741694101592,169.99805920402116L125.79352914523423,169.99560939737535L125.89939449957477,169.99494814483697L126.00526031482576,169.996639896379L126.11112659099166,169.9989433127486L126.21700871714225,170L126.32287591514685,170L126.42874357407078,170L126.53461169391849,170L129.8064615455308,170L129.91234438654504,170L130.0182276885717,170L130.12411145161965,170L130.22999567568002,169.99807160774805L130.33588036076617,169.99289932161705L130.44176550687806,169.98723540004931L130.54765111400678,169.98508147054352L130.54765120479777,169.98508146995854L130.65353718217014,169.98778356201942L130.75942371136813,169.99220048402742L130.86531079239165,169.9979051477925L130.9712087073139,170L131.07709661962454,170L131.18298499297424,170L131.2888738273674,170L139.54962363720188,170L139.655548875379,170L139.76147460205414,170L139.86740078999435,170L139.9733274391953,169.99923102988618L140.07925454966136,169.98792883757582L140.18518212140586,169.96396959772613L140.2911101544199,169.94592026649593L140.30139305172264,169.9453165191444L140.39703864870796,169.94754777781324L140.50296760427,169.95997773745202L140.6088970211149,169.97554501600303L140.7148268992471,169.98963869107487L140.82075726589503,169.99777984909642L140.9266985847359,170L141.03262984673,170L141.13856157002027,170L141.24449375460668,170L145.91624735357058,170L146.0222003291433,170L146.12815376613628,170L146.23410766455396,170L146.34006202439642,169.9977885622123L146.4460168456636,169.9943764973438L146.55197212836433,169.98916636203273L146.65792787249865,169.98612631380757L146.76388407807102,169.98975868766368L146.86984074508138,169.99665260857472L146.97579787352979,169.99885842649783L147.08176081555288,170L147.18771886689504,170L147.29367737968855,170L147.39963635392894,170L149.50862551432948,170L149.61459414982428,170L149.72056324683246,170L149.82653280535845,170L149.9325028253934,169.9916632751934L150.0384733069506,169.98217011542948L150.14444425003006,169.97594064230037L150.25041565464065,169.9740273644241L150.25041576812936,169.97402736329786L150.35638752076903,169.9809143728636L150.4623599619217,169.99279269342412L150.5683327511079,169.99911633977482L150.67431229819687,169.99999998497347L150.78028601046304,170L150.88626198646995,170L150.99223662182055,170L151.10849118823353,170L151.21446677654347,170L151.32044282640234,170L151.42641933782332,169.99780019571398L151.5323963107932,169.9961054910422L151.63837374532517,169.99483140981792L151.7443516414193,169.9954232626596L151.85032999908447,169.99983976803875L151.95631616783652,170L152.06229544863484,170L152.16827519100417,170L152.274255394949,170L154.06569853919325,170L154.17168702208662,170L154.2776759666086,170L154.3836653727637,170L154.489655240543,169.99694585367047L154.59564556995977,169.99339608515186L154.70163636101412,169.9914317053401L154.8076276137104,169.99229177003562L154.91361932804858,169.99489122454793L155.0196122303521,169.9999998763797L155.01961479519707,169.99999991613927L155.12560486798307,169.9965344374828L155.2315979672649,169.99238913329862L155.3375915281975,169.9870733961506L155.44358555078534,169.98018307534895L155.54958003503285,169.9764301263502L155.54958022115434,169.97643012189883L155.65557498094006,169.98165861795826L155.76157057463288,169.99339378727583L155.7615732211897,169.99339387277382L155.86756644387276,169.99263040730398L155.86756702039543,169.9926304038309L155.97356335130382,169.99392267375922L155.97356542587752,169.99392272593863L156.0795601438808,169.99322321870022L156.1855573981396,169.9933684273065L156.2915551140714,169.99449367761102L156.39755497585756,170L156.50355361514858,170L156.60955271613037,170L156.71555227879838,170L156.9275527892066,170L157.03355373696007,170L157.13955514640867,170L157.24555701755244,170L157.35155935040908,169.99949004675457L157.4575621449653,169.99035660938864L157.56356540123437,169.96865796993225L157.6695691192119,169.94770172966415L157.7755732989112,169.93776050236417L157.77557368477284,169.93776051191267L157.8815779403278,169.93279055675197L157.88157805835604,169.9327905549547L157.98758304345725,169.93569451443972L157.98758342931887,169.93569450238166L158.09358872634562,169.9482107052573L158.13793445534324,169.9599258683999L158.19959475292296,169.97284348316916L158.24394048192065,169.98029565631737L158.30560150906877,169.99034721221074L158.34994697023308,169.99294976400435L158.42189707135162,169.99586206582762L158.43601527860207,169.9964622586578L158.52790451299586,169.99592923178645L158.633912416384,169.9964060197815L158.73992078151164,169.99732553854943L158.8459313651796,170L158.95194065379061,170L159.05795040414552,170L159.16396061625767,170L159.26997129011812,170L159.3759824257314,170L159.4819940231107,170L159.5880060822428,170L159.69401860314096,169.99771914743354L159.80003158580521,169.99651633673514L159.90604503023556,169.99601824240239L160.01205893643638,169.99526826383968L160.1180733044166,169.99408112272906L160.22408813417175,169.99390250936298L160.33010342570628,169.99548779741355L160.43611917902018,169.99768834694925L160.56998260584456,170L160.67599928273495,170L160.78201642141357,170L160.88803402188046,170L166.27799278656647,170L166.38403437407462,170L166.49007642351287,170L166.5961189348901,170L166.7021619082063,170L166.80820534346591,169.8600803194166L166.91424924067334,169.48972201479577L167.02029359982419,168.72646294046203L167.12633842093172,167.16028291939605L167.2323837039915,165.29520347252475L167.3384294490036,163.9251063187938L167.3511565683124,163.86252730172632L167.44447565597682,164.7642842780234L167.55052232491556,166.66025489839328L167.65656945581102,168.53815837545028L167.7626170486765,169.657214825382L167.868665103512,169.97800955191295L167.954136736273,170L168.06018571505734,170L168.16623515582054,170L168.27228505855817,170L168.37833542328357,170L168.48438624999667,170L168.5904375386931,170L168.6964892893861,170L168.80254150206684,170L168.9085941767486,170L169.014647313427,170L169.1207009121064,170L169.22675497279567,170L169.33281068031263,170L169.43886566501288,169.99798077868502L169.5449211117319,169.99394381116565L169.65097702046077,169.98974994051565L169.75703339120847,169.9826591925693L169.86309022397933,169.97705521666617L169.96914751876892,169.97398437996193L170.07520527559063,169.97324868567324L170.1812634944355,169.98635173771825L170.28732217531692,169.98858546106788L170.39338131823038,169.98905976746366L170.49944115015774,169.98162832929393L170.6055018027504,169.95724127919104L170.71156233177777,169.92637144701803L170.81762332285496,169.91074896515877L170.82063790997236,169.91030761501779L170.92368477598194,169.92173168195313L171.0297466911543,169.94122418824549L171.13580924542325,169.95450118374643L171.24187208470403,169.9658886147651L171.3479355267695,169.97854096358608L171.45399941727942,169.9817217339482L171.45401298145063,169.9817218260591L171.5600636427451,169.97837407235497L171.5600639423553,169.97837406454275L171.66612862988404,169.9811225815908L171.67642066422087,169.98106461139471L171.77219377948475,169.98600549894184L171.87826007208972,169.9932499018173L171.88855148527534,169.99366994357L171.9843261458388,169.99212217285282L172.0903926816598,169.99140906457484L172.10069703786542,169.9916263102795L172.1964596795617,169.99127330519144L172.30252713954883,169.99347851966886L172.40859506162124,169.99646635877642L172.51467601124494,170L172.62074485749673,170L172.72681416583822,170L172.83288393627382,170L182.5932792504893,170L182.699392007573,170L182.80550522700355,170L182.91161890878092,170L183.0177330529184,169.99510143151704L183.12384765940712,169.9920427012298L183.22996272825597,169.99163712539968L183.33607825947382,169.9940885942424L183.34637399113112,169.99415208904472L183.44219425304735,169.9931524123156L183.54831135814527,169.98387861071993L183.65442827645677,169.95350961592223L183.76054565714168,169.92204796229905L183.86666350020002,169.9082065690793L183.86666355013503,169.90820656541376L183.9727818056406,169.9359558168696L184.07890057345904,169.97147419549862L184.18501987175304,169.99139293673727L184.29114042685026,169.999337277739L184.2911532238378,169.9993375953284L184.3972605818333,169.9975051604452L184.50338119919422,169.99510099315415L184.60950227895955,169.99279331553345L184.71562382111603,169.9926264156695L184.82174582567254,169.99509890527472L184.92786829262906,169.9981169114207L185.0737340983832,170L185.17985749015307,170L185.28598134433625,170L185.39210566092828,170L188.4301738212134,170L188.53631201143736,170L188.6424506641544,170L188.748589779369,170L188.85472935709004,169.99802818687178L188.96086939730858,169.9951037252992L189.06700990004242,169.99383715821145L189.17315086527822,169.99538700116398L189.2792922930293,169.99799729638704L189.38544178703958,170L189.49158413982124,170L189.59772695512703,170L189.70387023294808,170L195.54246284084843,170L195.64863202424195,170L195.75480167031478,170L195.86097177906248,170L195.96714235049393,169.9911576550668L196.0733133846047,169.98598855598374L196.17948488140357,169.9840960056115L196.28565684089955,169.98802698193487L196.39182926307925,169.99115390758666L196.49800268362713,169.9921825001339L196.49801711485213,169.9921827787182L196.6041760312009,169.99040536963625L196.7103498414717,169.9908323239356L196.71035033628252,169.99083233259944L196.81652411445282,169.99020242151659L196.92269885013545,169.9868081853665L197.02887442985048,169.98317942427192L197.13505009095377,169.982258609145L197.24122621477184,169.99145427490305L197.34740291478894,169.99691374140968L197.45358527985238,169.99999975738558L197.55976279182804,170L197.66594076652734,170L197.77212755218017,170L201.3824614182572,170L201.48865605282504,170L201.59485115021843,170L201.70104671043742,170L201.80724273348204,169.9970454640124L201.91343921936556,169.9940946841094L202.01963616808348,169.9914530116778L202.12583357963592,169.9912297830032L202.23203145402726,169.99404067662203L202.33822979126194,169.99766300173857L202.4444361360697,170L202.5506353989999,170L202.65683512477784,170L202.76303531341685,170L208.49853291166139,170L208.60475856137833,170L208.71098467410266,170L208.81721124983434,170L208.92343828857338,169.996389496091L209.0296657903242,169.99404109891924L209.13589375509125,169.99316599086862L209.24212218287897,169.99401454665326L209.34835107368292,169.99623731236736L209.45458123101204,169.99999953488765L209.56081104786173,170L209.66704132774535,169.99586399768467L209.77327207065855,169.99193685282341L209.87950327661008,169.98260322403488L209.98573494559116,169.9834088756963L210.09196707761507,169.9833725294396L210.091967349988,169.98337252850723L210.1981996726818,169.98661313108147L210.30443300315986,169.9930900663362L210.41066652431664,169.9974969894201L210.51691501238292,169.99999971203556L210.62314945964312,170L210.72939659495935,170L210.8356319683318,170L221.56777649832307,170L221.67405911775242,170L221.78034220051276,170L221.88662574661294,170L221.99290975605297,169.9953158742454L222.09919422884167,169.9919807382922L222.20547916497026,169.9911844221171L222.31176456445198,169.99329270364325L222.41805042728242,169.99640799421775L222.52366308445383,170L222.62994987399497,170L222.73623712689817,170L222.84252484316332,170L223.05577697811285,170L223.16206608447737,170L223.26835565421717,170L223.37464568733228,170L223.48093618382717,169.9966277435304L223.58722714370177,169.9947253794434L223.69351856696053,169.99370643951482L223.7998104536035,169.99422176409902L223.90610280363506,169.99624234714702L224.01240574933658,170L224.11869902615868,170L224.22499276637382,170L224.33128696999086,170L232.5173324515431,170L232.62366280865717,170L232.72999362937708,170L232.83632491372052,170L232.94265666167868,169.99754234899473L233.04898887325598,169.9949115738316L233.15532154846127,169.99248456117863L233.26165468729457,169.99286490409372L233.367988289747,169.99588924437026L233.49407885720632,170L233.6004133869325,170L233.7067483802911,170L233.813083837291,170L234.4313519072525,170L234.53769060980355,170L234.64402977602248,170L234.75036940590047,170L234.85670949944634,169.9959797431905L234.96305005666454,169.99423730647302L235.06939107755508,169.99334605145518L235.17573256211796,169.99301459141125L235.28207451035317,169.9937104356007L235.388416922274,169.99583406507364L235.49476071486927,170L235.60110405415693,170L235.70744785713467,169.99540918226023L235.81379212380244,169.99143702143266L235.92013685416475,169.98825610822985L236.02648204822594,169.9837820514109L236.13282770598164,169.9904485324784L236.23917382744074,169.99750211141333L236.38397061621632,170L236.49031766508654,170L236.59666517766902,170L236.70301315396372,170L244.55535367946632,170L244.64129449591627,170L244.6804331538513,170L244.74767772224914,170L244.7868163801842,170L244.85406141250704,170L244.8932000704421,169.99967336459804L244.9604455666811,169.99613033323033L244.99958422461617,169.99022735692193L245.06683018478017,169.96020802428717L245.10596884271524,169.93554005931043L245.17321526681314,169.87290186918375L245.21235392474821,169.83311893615578L245.27960081277556,169.7431666724142L245.31873947071063,169.68829599877478L245.3206689346197,169.68523156179037" style="stroke: #2ca02c;"></path></g></g></svg>
