<svg width="300" height="220"><g transform="translate(40,10)"><g class="x axis" transform="translate(0,170)"><g class="tick" transform="translate(69.52741517536299,0)" style="opacity: 1;"><line y2="6" x2="0"></line><text y="9" x="0" dy=".71em" style="text-anchor: middle;">467</text></g><g class="tick" transform="translate(147.51626626503125,0)" style="opacity: 1;"><line y2="6" x2="0"></line><text y="9" x="0" dy=".71em" style="text-anchor: middle;">468</text></g><g class="tick" transform="translate(225.50511735469956,0)" style="opacity: 1;"><line y2="6" x2="0"></line><text y="9" x="0" dy=".71em" style="text-anchor: middle;">469</text></g><path class="domain" d="M0,-170V0H250V-170"></path><text y="20" x="125" dy=".71em" style="text-anchor: middle;">m/z</text></g><g class="y axis" transform="translate(0,0)"><g class="tick" transform="translate(0,170)" style="opacity: 1;"><line x2="-6" y2="0"></line><text x="-9" y="0" dy=".32em" style="text-anchor: end;">0.0</text></g><g class="tick" transform="translate(0,139.0909090909091)" style="opacity: 1;"><line x2="-6" y2="0"></line><text x="-9" y="0" dy=".32em" style="text-anchor: end;">0.2</text></g><g class="tick" transform="translate(0,108.18181818181819)" style="opacity: 1;"><line x2="-6" y2="0"></line><text x="-9" y="0" dy=".32em" style="text-anchor: end;">0.4</text></g><g class="tick" transform="translate(0,77.27272727272728)" style="opacity: 1;"><line x2="-6" y2="0"></line><text x="-9" y="0" dy=".32em" style="text-anchor: end;">0.6</text></g><g class="tick" transform="translate(0,46.36363636363636)" style="opacity: 1;"><line x2="-6" y2="0"></line><text x="-9" y="0" dy=".32em" style="text-anchor: end;">0.8</text></g><g class="tick" transform="translate(0,15.454545454545467)" style="opacity: 1;"><line x2="-6" y2="0"></line><text x="-9" y="0" dy=".32em" style="text-anchor: end;">1.0</text></g><path class="domain" d="M250,0H0V170H250"></path><text transform="rotate(-90)" x="-85" y="-30" style="text-anchor: middle;">Normalized Intensity</text></g><g class="filename"><path class="profile line" d="M0,170L0.07018146173055673,170L0.17551373477332247,170L0.2808464656366575,170L0.386179654324995,170L0.4915133008339017,170L0.5968474051722441,170L0.7021819673444551,170L0.8075180768377657,169.99496796756878L0.9128535546777141,169.9837728752137L1.0181894903559647,169.96938606697617L1.1235258838769502,169.95764784880865L1.2288627352406707,169.94806728515138L1.3342000444515594,169.93521023942102L1.4395378115140494,169.94161127895944L1.5448760364237077,169.95882835807473L1.6502147191938337,169.96925234509644L1.7555541185742642,169.9546295258198L1.8608940892994446,169.95010431347887L1.8741216578308293,169.94971782596517L1.9662341456465402,169.96245187032648L2.0715746598585367,169.9781505373624L2.1769156319398673,169.9939381289121L2.2822574023611097,170L2.3875992901811083,170L2.492941753912004,170L2.5982850477596515,170L2.7036283092231166,170L2.8089720285692157,170L2.914320749886096,170L3.019665412248053,170L3.125010505259785,170L3.2303560561630165,170L3.9677856410482115,170L4.073134855207569,170L4.178484527289459,170L4.283834657285014,170L4.389185245207535,170L4.4945362910570195,170L4.599887794833468,170L4.705239756545749,170L4.810592176184996,170L4.915947151035959,170L5.021300486560167,170L5.126654280024639,170L5.232007973060466,170L5.3373626824187665,170L5.442717849726197,170L5.548073474982759,170L5.653429558197319,170L5.758786099369876,170L5.864143098500428,170L5.969500555597844,170L6.074858470662124,170L6.1802173702764716,170L6.2855762012833445,170L6.390935490257081,170L6.4962952372154135,170L6.5991145569284,169.82822459827602L6.601655828011106,169.82397901573168L6.7044752198426245,169.99575441249115L6.80717675994758,170L6.912538338835429,170L7.0179003757123075,169.56778617090987L7.123262870582648,167.90934189824713L7.2286258234464515,166.9753415285558L7.333989234312583,165.25254328245973L7.439353103176611,154.5790350731285L7.544717430047399,120.0871536657836L7.650082214916083,69.96512383110893L7.755447457800395,17.522561150221634L7.860813158695901,15.454545454545467L7.966179317607036,66.58986573557588L8.0715459345338,116.96465320148852L8.176913009476191,153.4156586974189L8.282280542443075,166.68704066783317L8.387648533430024,169.93015779365032L8.49822127530474,170L8.603590182358408,170L8.708959547436569,170L8.814329370552525,170L8.919699651706274,170L9.02507039090225,170L9.130441588140455,170L9.235813243420885,170L9.341185356747975,170L9.446557928130591,170L9.551930957573168,170L9.657304935338086,170L9.762678880887282,170L9.86805328450087,170L9.973428177955693,170L10.078803969815555,170L10.184179747631187,170L10.289555983520078,170L10.394932713794185,170L10.500309906689967,170L10.605687970766796,170L10.71106603897089,170L10.81644460157793,170L10.921823663131901,170L11.02720310559567,170L11.132583006159297,170L11.237963959499215,170L11.343344998691572,169.97545258584435L11.448726273554774,169.98570463917275L11.554108006513399,169.9918418050915L11.659490197585182,170L11.761093950941078,170L11.866477516347901,170L11.97186153986788,170L12.081024228457993,170L12.186410285327792,170L12.291795225096253,170L12.39718062299117,170L12.502566479008111,170L12.607952793160372,170L12.713339565443528,170L12.818726795866436,170L12.924114484429102,170L13.029502631131525,170L13.13111603515546,170L13.236505556294885,170L13.341895535591796,170L13.447285973037332,169.98675529021526L13.55267686864479,169.94479855376863L13.658068222409735,169.886487349695L13.763460034341037,169.82908122967206L13.868852304429828,169.82412866888245L13.974245032693839,169.8793091630158L14.07963821912864,169.93893766121474L14.185031863729796,169.97894964035035L14.290425966510606,169.9979727715942L14.399591751072863,169.99916243629676L14.399592295818696,169.99916244062567L14.50498631203333,169.99907611293463L14.61038133117788,169.987088393979L14.715776808506522,169.9736119966151L14.821172744014817,169.97042554656338L14.821173288760649,169.97042553009442L14.9265696824619,169.98483346034297L15.031966534356101,169.99434432835307L15.13736685870353,169.99999999805124L15.242764626992507,170L15.348162889786394,170L15.453561574479012,170L16.296767170799985,170L16.402169979433115,170L16.507573246290235,170L16.612976971380203,170L16.71838115470746,169.99699416651592L16.82378579626757,169.9934428707895L16.929190896069393,169.98886438346884L17.03459645411294,169.9479664732256L17.140002470402635,169.89127152609342L17.24540928540463,169.85392555894555L17.24540932172102,169.85392555235006L17.350816218186633,169.87536041439324L17.456223609228086,169.9253348164987L17.561631494840945,169.9709850429188L17.667039952197538,169.99552312719507L17.772492361233144,170L17.877901585312404,170L17.98331126765111,170L18.088721408267006,170L51.73796082492842,170L51.84351774813329,170L51.94907513045764,170L52.05463297191478,170L52.16019127249582,169.99712381484053L52.26575003220079,169.991766503011L52.37130925104741,169.98733123086677L52.47686892902681,169.98725953613135L52.582429066143426,169.9910854722045L52.687989662401684,169.99560473529542L52.793581418777634,170L52.899142933328065,170L53.004704907024575,170L53.11026733987603,170L76.34516934217697,170L76.45083329933749,170L76.55649772986123,170L76.66216262012951,170L76.76782797014678,169.99539675796694L76.87349377991748,169.96272243912742L76.9791600494416,169.9043489861431L77.08482677871915,169.8546600456901L77.08482683773327,169.85466003337493L77.19049396776343,169.86286940615022L77.29616161656111,169.90134928084953L77.40182972512996,169.962342863493L77.50749830708419,169.9967732558843L77.6131693598296,169.99999993680171L77.71883884770304,170L77.82450879535652,170L77.93018127281974,170L78.03585007000353,170L78.14152139699708,170L78.24719318377953,170L78.35286543035528,170L78.45853813671549,170L78.56421130287346,170L78.66988492882474,170L78.77555901457822,170L78.8812335601339,170L78.98690856549618,170L79.09258522910149,170L79.19826115408146,169.99562412103097L79.30393753887247,169.97984786267324L79.40961438347456,169.9654602684938L79.51529168790098,169.95121744310617L79.62096945214734,169.93462839575366L79.72664767621362,169.92251918989433L79.8323263601131,169.92502053837904L79.93800550383253,169.94378728509201L80.04368510738959,169.96360436368187L80.04368563397722,169.9636043613537L80.14936569736751,169.96570039091725L80.25504622059546,169.9761077247853L80.36072720366106,169.987849146629L80.46640864656875,170L80.57209068096986,170L80.67777325692936,170L80.78345628365629,170L80.88914247581401,170L80.99482621797203,170L81.10051041999431,170L81.20619508187197,170L82.26306699359914,170L82.36875671412102,170L82.4744468945426,170L82.5801375348506,170L82.68582863506276,170L82.79152019517463,170L82.89721221519508,170L83.00290469511526,170L83.108597634944,170L83.21090542572625,170L83.31659928538546,170L83.42229360495772,170L83.52798838445185,170L83.63707082621339,170L83.74276652555571,170L83.84846268482437,170L83.95415930402375,170L84.05985638314947,170L84.16555392221922,170L84.27125192122418,170L84.37695038017316,170L84.48163928581482,170L84.58733866465191,170L84.69303850344193,170L84.79873880217599,170L84.90227476362912,170L85.00776359041313,170L85.11346526902368,170L85.219167407596,170L85.3248700061301,170L85.43057306463484,170L85.5362765831058,169.0743676868957L85.64198056155186,168.25289368800605L85.747684999973,163.0095491037312L85.85338989837363,145.68601325895622L85.9590952567538,103.0392025252352L86.06480107511791,56.789639892960736L86.17050735347038,23.573408725705093L86.17288454256898,23.418949823711387L86.27621409181126,51.82715089882731L86.38192129014051,98.60685263113618L86.487628948467,142.2889048275684L86.59333706679077,162.67066633032013L86.69904564511619,169.80815631225443L86.80496707529916,170L86.9138557874753,170L87.01956574581465,170L87.12527616416453,170L87.23098704252496,170L87.33669838090036,170L87.44241017929518,170L87.54812243771384,170L87.65383515615193,170L87.75954833461385,170L87.86526197311292,170L87.97097607163585,170L88.07669111593204,170L88.18240613453368,170L88.28812161316804,170L88.39383760632298,170L88.49955442722296,169.9501490869939L88.60527128599978,169.98223045347854L88.71098860482262,169.99500099103716L88.8167064926495,169.9999999678017L88.92242474066119,170L89.02814390268705,170L89.13386306173827,170L89.23958273986736,170L89.3164868562994,170L89.42220739555071,170L89.52792839487465,170L89.63364985426676,170L89.74628149103071,170L89.85200387058133,170L89.9577267102223,170L90.07582750910888,170L90.16226405246275,170L90.26798827236145,170L90.37371295235492,170L90.47943809244317,170L90.58516369263064,169.99940783309606L90.66763671985261,169.97911618773645L90.71017696936738,169.9683598620612L90.77336324024736,169.95062011705315L90.81590348976212,169.9271345670814L90.87909022074575,169.87569609367367L90.92163047026052,169.83125930920593L90.98481766134779,169.74492156077295L91.02735791086255,169.68607149537374L91.0905455620712,169.59592207819782L91.13308581158597,169.55725322029394L91.19627392290269,169.53433594809732L91.23881417241746,169.5497847552257L91.30200274385113,169.63112268013413L91.34454299336589,169.68774738430383L91.40773202492537,169.7767869613726L91.45027227444014,169.83051162716146L91.51346176611655,169.90078149538468L91.55600201563131,169.93810699512323L91.61919196743797,169.9717094369058L91.66173221695274,169.9851456355466L91.75508537923142,169.99399439178063L91.77699559225762,169.99543248699166L91.88272665482096,169.97543973745871L91.98845823652867,169.92244145040436L92.09419027837107,169.85713995315936L92.19992278035257,169.8255011605254L92.1999228393667,169.82550115040274L92.30565574248205,169.85588387281322L92.41138916474618,169.90242222758096L92.51712304716276,169.9559475585737L92.62285744874143,169.9932530920861L92.72859342266189,169.99999983532382L92.83432868553123,170L92.94006440855743,170L93.04580059174491,170L93.15153723509363,170L93.25727433860807,170L93.36301190229267,170L93.46875302665907,170L93.57449151068396,170L93.6802304548878,170L93.78596985926626,170L94.84338916355065,170L94.94913363007107,170L95.05487855680151,170L95.16062394374644,170L95.26636979090583,169.99996719309246L95.37211609828856,169.98118199369543L95.47786286588578,169.93834767651487L95.58361009371075,169.89679509844896L95.68935778176349,169.89316084205356L95.795105930044,169.92283123884866L95.90085458849177,169.96760228146331L96.00660382066044,169.9947522046347L96.1123613982661,169.99999969324182L96.21811138748875,170L96.32386183695688,170L96.42961892953572,170L101.50619771366107,170L101.61197117866277,170L101.71774510404296,170L101.8235194898061,170L101.92929433595218,169.99431932477307L102.03506964249003,169.98601652403806L102.14084540941526,169.9691409386776L102.24662163673229,169.95954469478835L102.35239832444111,169.9693576707769L102.4581754725506,169.98065565199968L102.56395344422464,169.98881040900267L102.66973151313545,169.99166430488506L102.7755100424558,169.99588083412786L102.88129341284122,169.99999959789122L102.98708319045369,170L103.09286310100262,170L103.19864347196996,170L104.46803242458573,170L104.57381878120502,170L104.67960559828259,170L104.78539287581405,170L104.89118061380378,169.99630163257206L104.99696881225182,169.99150877539287L105.10275747117146,169.98726579085977L105.20854659055824,169.98715937346665L105.31433617040777,169.99145606094112L105.42012621073332,169.99182043512437L105.5259173289135,169.99077538360504L105.525917796487,169.9907753869908L105.6317082901911,169.9843058762679L105.73749971194917,169.97724277486674L105.84329159418769,169.9656691990421L105.94908440448906,169.94901758698944L106.05487720770623,169.9371202413279L106.16067047141274,169.94216764704558L106.266464195613,169.95790490536933L106.37225838031146,169.9810411166718L106.47805325702066,169.9923871805162L106.53420637462273,169.99744018261106L106.58384957023988,169.99999945377687L106.64000148032201,170L106.68964513644178,170L106.74579704652392,170L106.79544116315519,170L106.85159307323731,170L106.90123765037121,170L107.00703459810316,169.99295728990495L107.11283200635106,169.989663657609L107.21862987511486,169.98886610770202L107.32442820439903,169.9915211500557L107.43022699420798,169.99592141782983L107.5783112590714,170L107.68411096993437,170L107.78991114132658,170L107.89571177325686,170L113.6731797035114,170L113.77900612960013,170L113.88483301637771,170L113.99066036383968,170L114.09648817199488,169.99552970815196L114.20231644084777,169.99314785158188L114.30814517039835,169.99181760064758L114.41397436063775,169.99244203935595L114.51980401158814,169.99515469082516L114.6491005026102,170L114.75493107497368,170L114.86076210804372,170L114.96659360182475,170L115.04896088383522,170L115.1547932990515,170L115.26062617499208,170L115.36645951165252,170L115.4722933090461,169.99344958196332L115.57812756716396,169.99121311359573L115.68396228601497,169.98997750019714L115.78979746559914,169.99067162956032L115.8956331059209,169.99329944351928L116.02504232929554,170L116.1308788910969,170L116.23671591364914,170L116.34255339694339,170L116.44828289117248,170L116.5530601855714,170L116.65889905112715,170L116.76473837743823,170L116.87057816451352,170L116.97641841235297,169.96689676641896L117.08225912096103,169.8924491381152L117.18810029033328,169.77175669971916L117.29394192048301,169.6360983078915L117.3997840114058,169.54813015522512L117.40095357162781,169.54764044763076L117.50562656310163,169.62127032369168L117.61146957557938,169.76367910566958L117.71731304884347,169.90097691156282L117.8007688824987,169.96828559570557L117.8430278400194,169.9880629299159L117.90660511068756,169.99999955219008L118.0124499663107,170L118.11829528272906,170L118.22414105994262,170L120.76457795878345,170L120.87043525676403,170L120.9762930156063,170L121.08215123531916,170L121.18800991590261,169.99516869977646L121.29386905735663,169.98915668652072L121.39972865969453,169.97312853191264L121.50558872290301,169.95499085247152L121.6114492469998,169.93429391795343L121.71731023198046,169.93170125914583L121.71731032277143,169.9317012586581L121.82317167784056,169.9529333773655L121.9290336753844,169.97936834827587L122.03489604303442,169.99510827784468L122.14076064199674,169.99999989484286L122.24662393143669,170L122.35248768177826,170L122.45835189302143,170L122.5642165651662,170L122.67008169822591,170L122.77594729218721,169.99634719081575L122.8818133470723,169.99097974375866L122.98767986286342,169.9821836050634L123.09354683958276,169.98020770996575L123.199414277217,169.9879128607018L123.30528217577947,169.9940497010466L123.35746286353562,170L123.46333168395007,170L123.56920096530158,170L123.67507070758573,170L127.43449607457575,170L127.5403824123014,170L127.64626921106168,170L127.75215647086097,170L127.85804419169486,169.99245432986163L127.96393237357667,169.98208783920398L128.06982101650195,169.97299914080992L128.17571012047068,169.96811309799287L128.17571015224752,169.96811309749017L128.28159968549178,169.9715072475949L128.28160036642404,169.9715072749941L128.3874897115652,169.9675506826189L128.49338064357116,169.9666286779192L128.49339333614904,169.96662952561528L128.59927159175814,169.9625953456643L128.70516300101073,169.96148267582967L128.70516323706727,169.9614826731048L128.8110548713201,169.96998424720252L128.91694720269513,169.97999090501304L129.02283999514464,169.99567044097208L129.12874405278987,169.99999999647258L129.234637767384,170L129.34053194305255,170L129.44642657979566,170L136.43649206361079,170L136.54241759878698,170L136.59463849162276,170L136.64834359522388,170L136.7005649493248,170L136.7542700529259,170L136.80649186829194,169.99557532428466L136.86019697189306,169.99102497179263L136.91241924852423,169.98604869723965L136.96612435212535,169.9775854891645L137.01834709003495,169.96905537919784L137.07205219363607,169.9544895010671L137.12427539281967,169.94111627837754L137.17798049642076,169.92680213984363L137.23020415688282,169.91506087247848L137.2839092604839,169.90512256665463L137.33613338222438,169.90029117721795L137.3898386083933,169.9082801713516L137.4420630688488,169.91988177157253L137.48573632841,169.9325660258978L137.54799321676495,169.9496296603908L137.59166647632617,169.9612233714607L137.65392382595954,169.97701616070233L137.69759708552075,169.9843918716175L137.7598548964503,169.99160735686544L137.8035281560115,169.99340674298665L137.9194928846238,169.99445112908901L138.02542487770242,169.99216992372286L138.13135733208165,169.9901112529644L138.2372902477659,169.99105578898934L138.34322362475078,169.99427895788267L138.44915812127965,169.99523438768207L138.4491639772973,169.99523452423054L138.55509242087896,169.99198412690802L138.6610271817966,169.98991133558306L138.76696240402376,169.99085441169592L138.87289808757367,169.99417177023793L138.97883765980106,170L139.08477426599202,170L139.19071133350576,170L139.29664886235557,170L140.67387871946752,170L140.7798227071995,170L140.8857671562941,170L140.99171206676021,170L141.09765743860234,169.9930761839479L141.20360327182038,169.98117023921114L141.3095495664144,169.96917199408176L141.41549632239767,169.96003205428957L141.52144353976132,169.96413351578562L141.6273912185098,169.97679949061714L141.73333935865642,169.98947494667553L141.8392879601923,169.99876861148505L141.9452395289482,170L142.05118905328035,170L142.15713903900615,170L142.26308948613894,170L142.58094351881581,170L142.67685610050782,170L142.78280885470215,170L142.88876207031237,170L142.99471574734284,169.99826964134036L143.10066988579806,169.9740026200529L143.20662448568686,169.91400172225102L143.3125795470048,169.8475665750919L143.41853506975193,169.80265910374908L143.42857483984366,169.79991690216744L143.52449105393706,169.830044566693L143.63044749956023,169.89436295460354L143.73640440662138,169.95298284914446L143.84236177512946,169.98850592734738L143.95837128240768,169.99990396500453L144.06432957381395,170L144.1702883266671,170L144.27624754098048,170L152.2245039553914,170L152.33049824808242,170L152.43649300243308,170L152.54248821844342,170L152.64848389612675,169.9955779629895L152.75448003547422,169.9930840811666L152.86047663649464,169.98519771731068L152.96647369919248,169.97869745502283L153.0724712235633,169.9761631033516L153.17846920961594,169.98027195431763L153.28446765734603,169.98830309750016L153.39046668479065,169.99519558089753L153.49646711815208,169.99943936327125L153.60246695094983,170L153.70846724543833,169.99440431847324L153.8144680016264,169.98909174364226L153.92046921950518,169.98487434786642L154.02647089909684,169.98579526926048L154.13247304038364,169.99118625677607L154.23847651496777,169.99999993583467L154.34447957967146,170L154.45048310608803,169.99313411114883L154.55648709421746,169.99014601912705L154.6624915440642,169.9887018993284L154.76849645563271,169.99043070055947L154.87450182892294,169.9945993119498L154.98050843566264,169.9956066513381L155.0865147324008,169.98889260007854L155.19252149087401,169.9751077128139L155.29852871108224,169.9683904625557L155.40453639302555,169.9832977112691L155.5105445367039,169.99113066243908L155.62571367882651,170L155.73172274599267,170L155.83773227490715,170L155.94374226557,170L163.25442475849187,170L163.36046707827265,170L163.4665098599924,170L163.5725531036556,170L163.67859680925773,170L163.7846409768121,169.86559238555978L163.89068560631878,169.45060551899306L163.99673069777774,168.14818846187796L164.10277625119335,164.2874771797146L164.20882226656124,154.70435595117982L164.31486874389915,143.91022299876894L164.42091568319378,135.53018809603037L164.4232597154294,135.43157165729414L164.5269630844628,141.1679245295015L164.63301094769298,152.2580328386103L164.73905927289758,162.74743046339896L164.84510806008106,168.14742855497664L164.95115730923897,169.9392683249304L165.05318193881925,169.99999999968668L165.1592321119393,170L165.2652827470427,170L165.37133384414264,170L165.4773854032215,170L165.58343742430137,170L165.68948990737783,170L165.7955428524465,170L165.90159625952057,170L166.00765012860015,170L166.11370445968961,170L166.21975925278457,170L166.32581502539793,170L166.43187074252154,170L166.53792692165945,170L166.64398356281615,170L166.75004125160666,170L166.85609881680978,170L166.96215684404493,170L167.06821533331657,170L167.17427428462028,170L167.28033422000416,170L167.38639409538087,169.99303407620087L167.49245443279852,169.9743459803051L167.59851566351864,169.9562418555597L167.70457692502703,169.94210418205043L167.704577015818,169.94210416994778L167.81063864858962,169.9490198643592L167.916700834202,169.95873157970448L168.0227635726596,169.96420606757917L168.02276405385177,169.9642060487122L168.12882668238936,169.96886915795923L168.1288271635815,169.96886915534742L168.23489073536103,169.98104306827452L168.34095476921252,169.98504877846602L168.34095533665607,169.98504878228064L168.44701926513153,169.98420653094962L168.5530847905528,169.97813643135754L168.65915021061127,169.98720403522302L168.76521609273732,169.99071214693507L168.8712824369442,169.9947831232271L168.97734952013994,169.99753442665988L169.07240125796577,170L169.17846852633872,170L169.28453625678807,170L169.3906044493227,170L169.8259027664203,170L169.93197373154186,170L170.0380451587664,170L170.14411704810283,170L170.25018939954666,169.9934704764649L170.35626221311122,169.98571963768345L170.46233548878766,169.98035384381458L170.5684092265804,169.98120555524787L170.67448342650272,169.98701807508633L170.7805580885413,169.9932923892982L170.8866454604205,170L170.99272104672275,170L171.09879709515457,170L171.20487360572486,170L179.16192844618558,170L179.26804008692605,170L179.37415219000445,170L179.4802647554297,170L179.58637778320616,169.99401593656765L179.6924912733339,169.99025606026876L179.79860522580842,169.9898188811401L179.9047196406431,169.99351440434262L180.01083451783344,169.99784406767964L180.11695059279523,169.99905653449034L180.1995234565274,169.9900076969719L180.30563925844243,169.97472475825072L180.32918265899423,169.97117954950332L180.41175552272642,169.97248982841984L180.43529983052298,169.97286343183185L180.5178722493794,169.97023783651616L180.6239894384058,169.95553398644515L180.73010708980564,169.92880790356878L180.83622520357886,169.90781525884032L180.94234377973882,169.89367342200666L180.95480824530523,169.8933063905503L181.04846281828105,169.8990671306733L181.15458231920115,169.93444389330023L181.2607022825168,169.96997132428723L181.36682270822362,169.99613546416396L181.39037239860377,170L181.28451184121843,169.98878575981664L181.4964937490973,169.9990972164269L181.60261556198645,169.99246445296487L181.70873783728007,169.99198900445506L181.81486057498253,169.99314483119707L181.920983775085,169.99563722529322L182.02712239541788,170L182.13324652034257,170L182.239371107685,170L182.34549615744075,170L192.7479943795582,170L192.8541652219661,170L192.96033652706217,170L193.06650829484644,170L193.1726805253233,169.99707472271095L193.2788532184972,169.9922476128702L193.3850263743637,169.9751486339857L193.49119999293612,169.95201492408455L193.59737407420556,169.93611500509277L193.7035486181809,169.92487699294395L193.70354889509338,169.92487696479083L193.80972376559257,169.93137788147004L193.81002385597267,169.93135447656013L193.91589937117064,169.93718720266298L193.91619978808347,169.9371855018362L194.0220753032814,169.93970801807475L194.12825169810256,169.96345507764016L194.23442855564733,169.97951215549654L194.34060587591128,169.9913372689863L194.43830885279127,169.99966144196617L194.54448709850695,170L194.65066580695068,170L194.75684497812694,170L205.4918155389535,170L205.59804192292916,170L205.70426876992101,170L205.8104960799247,170L205.91672385293572,169.9959056854405L206.02295208897183,169.99232237363498L206.12918078802417,169.99063746818783L206.22691968682656,169.99240652576148L206.33314931192908,169.99317965949535L206.34163957519968,169.993233468133L206.43937940006114,169.99158157467693L206.54560995121827,169.98747834325735L206.65184096541378,169.98268740205435L206.75807244263882,169.977388706941L206.8643043829067,169.95912046478514L206.97053678621296,169.9328038461113L207.07676965257093,169.9239817044445L207.18300298196726,169.95264164759345L207.28923677441975,169.9750965897041L207.39547102991946,169.98711869181076L207.46691432320677,169.99033169316266L207.5101978548071,169.99011355622895L207.57152007922681,169.99120505584702L207.61643303641904,169.99071804007315L207.61643349491345,169.990718046887L207.67775526083875,169.98843582083038L207.72266868109156,169.98676426789203L207.78399090551127,169.98267464880757L207.8289047888291,169.97967929791494L207.8902270132488,169.97568269032595L207.935141818126,169.97275541915172L207.99586490838203,169.9752379721126L208.04137885200237,169.97584878901324L208.1021019422584,169.98080923264163L208.14761634894373,169.98452728532442L208.20833943919976,169.99014494125396L208.25385430895892,169.9943556439199L208.31457739921493,169.99758137890163L208.36010691360224,170L208.46634579977402,170L208.57258514902853,170L208.67882496136576,170L218.66743537816407,170L218.77371919580816,170L218.8800034767921,170L218.98628822112477,170L219.09257342880167,169.99591332020307L219.19885909983617,169.99139958081474L219.30514523421937,169.98785414613258L219.41143183196016,169.98468845212193L219.51771889305854,169.9824474711618L219.62400641752336,169.97695840554982L219.73029490924006,169.9748077531524L219.83658336043777,169.97570038720133L219.94287227499746,169.9888456053106L219.94287279250602,169.98884562154623L220.04916165293693,169.9861518951876L220.15545201175578,169.98548379841085L220.20372535820152,169.98721249457492L220.26174231644586,169.98762420320202L220.31001566289157,169.9893734434793L220.36803308451567,169.9914757715374L220.41630643096138,169.99335276465231L220.47432431596965,169.99560865074116L220.5225976624154,169.99701372912529L220.62519499089163,170L220.7314871491228,170L220.83777977074263,170L220.94407285575548,170L241.68008327725147,170L241.7864672395498,170L241.89285166576872,170L241.9992365559171,170L242.10562190999934,170L242.20111489103138,169.87780386590708" style="stroke: #1f77b4;"></path></g><g class="filename"><path class="profile line" d="M1.559777021791947,170L1.6239077642486857,170L1.7292397704777092,170L2.361240877382305,170L2.466576088390779,170L2.5719117572375545,170L2.677247883922632,170L2.7825844684504446,170L2.887921510829859,170L2.9932590110475745,170L3.0985969691213247,170L3.20393538503781,170L3.3092742588147632,169.9981570317364L3.414613785657207,169.98107437527267L3.5199539246959044,169.96439362886397L3.625294172058693,169.95418309910866L3.6252942628496654,169.954183090308L3.7306348772775166,169.9647801761882L3.8359760403701073,169.9790001957282L3.9413177521318703,169.99024573024624L4.046659830967562,169.9969871475771L4.15200277170128,169.99999997013856L4.257345870707423,170L4.362689323182149,170L4.4680340869746455,170L4.573378455219071,170L4.678723281354997,170L4.784068565382421,170L4.889414307305779,170L4.994760507125071,170L5.1001071648491605,170L5.205454366720608,170L5.310802285255556,170L5.416150316694044,170L5.521498806046197,170L5.626848302592963,170L5.732197707772448,170L5.83754757087003,170L5.942897891885712,170L6.048248670828359,170L6.153600811068141,170L6.258952505869151,170L6.364304658592692,170L6.469657269265364,170L6.575010337865001,170L6.680363864409336,170L6.785717848893935,170L6.891072291323231,170L6.996427504930512,169.99092073420354L7.101782863262503,170L7.207139169814874,170L7.312495444053992,170L7.417852176251109,170L7.523209366410654,170L7.628567014537063,170L7.73392558365986,170L7.839284147715563,170L7.944643169746995,170L8.050002649754157,170L8.150784750310697,170L8.256145146278186,170L8.361506000221402,170L8.466867312149216,170L8.572229082066057,169.32477533952596L8.67759130997193,168.5248717507111L8.782953995875696,167.7358529482018L8.888317139772926,167.50785234486662L8.990492580370402,161.6661743186771L9.095856640267856,142.64493554336144L9.201221158167636,98.27870674041826L9.306586134074179,48.56244866282667L9.411951567987485,16.24964183494677L9.420403705859185,15.454545454545467L9.517317459916418,46.31091403362963L9.622683809860979,95.33672853853804L9.728050617816736,140.6641195577447L9.833417883796985,162.4866182327448L9.938785607797296,169.5467939605398L10.048777508461713,170L10.15729170614949,170L10.262660804232151,170L10.368030360352606,170L10.47340037450642,170L10.578770846693597,170L10.684141776922997,170L10.789513165199061,170L10.894885011521783,170L11.000257315895599,170L11.105630078316075,170L11.211003321485387,170L11.31637739042253,169.9227860444863L11.421751527014019,169.9498532874307L11.527126121669898,169.97269007881712L11.632501247018517,169.99999987411334L11.737877139125265,169.9515844576168L11.843253107983191,169.97279999905723L11.948629534914376,170L12.05400651524934,170L12.159383876489668,169.9500070930151L12.159384203337169,169.9500069379517L12.26476167765393,169.97192291844965L12.370140263747816,169.9974975424682L12.475519071871732,169.99999999148383L12.580898247295668,170L12.686277962518037,170L12.791658326501306,170L12.897038971537603,170L13.002420433293665,170L13.107801899199158,170L13.213183823208944,170L13.318566205323018,170L13.423949077327093,170L13.529332375667481,170L13.634716490749803,170L13.740101104801216,170L13.845485777494376,170L13.950870908313997,170L14.056256497255637,170L14.161642648733356,170L14.267029153936777,170L14.372416521295348,170L14.477803942764984,170L14.583192267250137,170L14.68858060500815,170L14.793969400905922,170L14.899358654952314,170L15.004748984521505,170L15.110139154869577,169.99766353564672L15.215529783375137,169.98535334542245L15.320920870033753,169.97002865271696L15.426312414854292,169.94257481021475L15.53170441783232,169.92068139907406L15.53170467204704,169.92068134920117L15.637096878985568,169.9267468416937L15.742489939031177,169.94629849735838L15.84788343000585,169.9762903290302L15.953277397318374,169.99777583291905L16.05867388375675,170L16.16406863577724,170L16.26946384597295,170L16.374859514357183,170L17.007243146679148,170L17.112642022422925,170L17.218041356381825,170L17.323441148542543,170L17.428841398913946,169.99667308258446L17.534242107500468,169.99294523379163L17.639643274302113,169.9863601380542L17.74504489932331,169.98336114132522L17.850446982568496,169.98752143839266L17.850447500077035,169.98752145265323L17.955849769168854,169.9857488932543L17.955850472798886,169.98574889627096L18.061252768862012,169.98310989014087L18.061253041234927,169.9831098858404L18.166656226783584,169.9837450974103L18.272060142938013,169.98383730198393L18.27206084656805,169.98383731557544L18.377464789702643,169.98314299867906L18.48286962233164,169.97707332266603L18.58827534445504,169.97593853973504L18.588340287237305,169.97594149724117L18.69368109356748,169.9747318666868L18.799087300921634,169.98175626039693L18.904493966521944,169.98748803603297L19.009901335512893,169.9944260217738L19.115318582322203,169.99999870706176L19.220726622683134,170L19.32613512130795,170L19.431568537275634,170L27.23307874952114,170L27.338522083573515,170L27.4439658760937,170L27.54941012707726,170L27.65485483652863,169.99608838272508L27.760300004452244,169.9941128794794L27.865745630848096,169.9934089271555L27.971191715725062,169.99464597756403L28.076638259078702,169.99703048011648L28.182127424240846,170L28.287574884561135,170L28.3930228033714,170L28.49847118066721,170L50.12505570939323,170L50.230598592292964,170L50.33614193424125,170L50.44168573522922,170L50.547229995261304,169.9951784937375L50.65277471434638,169.9926126468518L50.75831989248,169.99191914006775L50.86386552966662,169.993631831959L50.96941162591065,169.99675633339962L51.07495964749073,170L51.18050666185403,170L51.28605413528362,170L51.391602067779495,170L51.49715045934609,170L51.60269930998339,170L51.70824861970029,170L51.8137983884879,169.9961508557403L51.919348616359535,169.9930862446106L52.02489930331519,169.99086419826952L52.13045044935485,169.99031992265637L52.23600205448741,169.99155962720027L52.34155411870397,169.99427615588604L52.44712114587563,170L52.55267412828683,170L52.658227569799784,170L52.763781470405625,170L65.0111501162127,170L65.11675775010764,170L65.22236584341465,170L65.3279743961426,170L65.43358340829589,169.99648479590314L65.53919287986571,169.9936563436588L65.64480281086975,169.9921194849007L65.75041320129918,169.99261843998843L65.85602405116283,169.99483026554523L65.96164818014154,170L66.0672599488781,170L66.1728721770489,170L66.27848486466723,170L66.59531459862092,170L66.70092912403385,170L66.80654410890759,170L66.91215955323332,170L67.01777545701987,169.99506957533703L67.12339182027613,169.9924508668912L67.22900864299324,169.9904032633016L67.33462592518447,169.9900212604517L67.44024366684982,169.99176931652354L67.5458618679849,169.99489028609173L67.65148920367591,170L67.75710832376811,170L67.86272790334331,170L67.96834794240596,170L74.7289862937269,170L74.8346362050497,170L74.94028657603286,170L75.04593740668075,170L75.15158869699783,169.99695273761535L75.25724044698413,169.99393136865385L75.3628926566396,169.99167996484067L75.46854532597315,169.99176030104934L75.57419845498032,169.99422193785603L75.67985204366555,169.99744389155808L75.78551011861288,170L75.89116462667195,170L75.99681959441352,170L76.10247502185089,170L77.05339293919592,170L77.15905296367988,170L77.26471344789066,170L77.37037439181498,170L77.47603579547054,169.99601217545205L77.58169765885293,169.99299528175897L77.6873599819666,169.99203876556143L77.79302276481592,169.99376965146607L77.89868600739653,169.9963496438797L78.00435094901403,170L78.11001511107487,170L78.21567973288028,170L78.32134481443468,170L78.42701035573808,170L78.53267635678603,169.99480076557165L78.63834281759625,169.99274065937004L78.74400973816435,169.99158762243027L78.84967711848587,169.98700838047742L78.95534495857855,169.98541873946496L79.06101325842909,169.98518789626524L79.06101380317492,169.98518789989154L79.16668201805078,169.98075891752276L79.16668256279661,169.9807589022592L79.27235161422172,169.9825666196875L79.37802129339015,169.98513470659884L79.48369143232975,169.99064449384196L79.58936219901267,169.9965879209734L79.69503404739375,169.99999993697335L79.80070556568228,170L79.90637754375084,170L80.0120499816127,170L80.11772287926347,170L80.22339623671199,170L80.32907005395826,170L80.43474646458569,170L80.54042120143635,170L80.64609639808475,170L80.75177132821642,170L80.85744744448695,170L80.96312402057295,170L81.06880105647444,170L81.17447855219143,170L81.28015650772832,170L81.38583492309401,170L81.49151379828405,170L81.59719313330288,169.99867719459243L81.70287306434139,169.97727285412472L81.80855331902666,169.94937435109065L81.91423444210896,169.92868464399606L81.91423449658355,169.9286846411533L82.01991561646955,169.9402231087895L82.12559725067663,169.96364918306605L82.23127934473027,169.98420513851312L82.33696195310499,169.99696620454L82.44264637865126,170L82.5483298204809,170L82.65401375393833,170L82.75969814725559,170L82.86538300043266,170L82.97106831347841,170L83.07675408638843,170L83.18244031916711,170L83.28812701181894,170L83.39381416433945,170L83.49950177674637,170L83.60519029844171,170L83.71087883060375,170L83.81656782266104,170L83.9222572745959,170L84.0279479944657,170L84.1336383661867,170L84.23932919780299,170L84.34502048932342,170L84.45071224073915,170L84.55640445206345,170L84.66209716868295,170L84.76779085364493,170L84.87348444469941,170L84.97917849566248,170L85.08487300654745,170L85.19056797734984,170L85.29626375307983,170L85.40195964373045,170L85.50765599430737,170L85.61335330416539,170L85.71905057460826,170L85.82474830498629,170L85.93044649530395,170L86.0361451501008,170L86.14184473241517,170L86.24754430256498,170L86.35324433266325,170L86.45894482271004,170L86.56464610864519,169.6960331394538L86.56464612226384,169.69603312070538L86.67034751860665,169.982209838943L86.77370333846494,169.9996051434619L86.77604942030675,170L86.87748459493645,169.97150892530863L86.98318738478326,169.30893038035055L87.08889063460516,167.85786091975532L87.19459434439328,167.00293979144013L87.30029851415648,165.31252302554083L87.40600314389033,155.93698310479067L87.51170823360812,126.12096679247136L87.61741378330542,82.3180338003777L87.7231197929911,36.21891260468317L87.82882626266074,33.01650940129804L87.93453319231877,76.8799350518114L88.04024058196516,121.63550546731992L88.14594843161323,154.63305298664054L88.25165674125412,167.51185133225323L88.35736551089671,169.9267231089991L88.46734481018649,170L88.57305449984129,170L88.67876464949777,170L88.78447525916481,170L88.89018632885124,170L88.99589785854823,170L89.10160984826464,170L89.20732229800488,170L89.31303520776896,170L89.41874857755691,170L89.52446240737756,170L89.63017678347792,170L89.73589189653232,169.92723927746673L89.84160710645554,169.97458258811108L89.94732277641592,169.97885844100549L90.05303934675851,169.99999998184347L90.1587559368109,170L90.26447298691374,170L90.37019050614168,170L90.47590854443865,170L90.58162697469726,170L90.68734624633726,170L90.79306559671892,170L90.8987855342717,170L91.00450580478083,170L91.1102265353626,170L91.21594802562277,170L91.32166967635418,170L91.42739228650855,170L91.53311485739405,170L91.63883788836104,170L91.74456146566979,170L91.8502854168086,170L91.95600982804218,170L92.06173498535766,170L92.16746086152664,170L92.27318665304455,170L92.3789129046661,170L92.4846396163913,170L92.59036732843529,170L92.69609496037664,170L92.8018230524305,170L92.90755160460131,170L93.01328061688906,170L93.11901010291682,170L93.22474003544289,170L93.31616770802768,170L93.42189902094005,169.99829189918216L93.52763079399149,169.98785408640524L93.6333630271732,169.96958233922908L93.73909572049845,169.94981507374268L93.84482887396281,169.92158752314367L93.9505624875707,169.9113395058376L93.96486382684363,169.91032463144475L94.05629656132658,169.9112529147253L94.16203109523043,169.93906606639956L94.28206601633441,169.9738528289221L94.38780101039067,169.99835955339702L94.49353865266619,170L94.59927456704055,170L94.70501094156732,170L94.81074777626425,170L95.44517844798767,170L95.55091850389773,170L95.65665901999124,170L95.76239999626817,170L95.86814143273743,169.99690875804703L95.97388332939899,169.99382700056051L96.07962568625729,169.99210376283727L96.18536850331232,169.99292534346932L96.2911117805641,169.99668486778063L96.39685601737182,169.99333649743474L96.5026002150348,169.9906974491556L96.6083448729034,169.98942193487056L96.60834523152774,169.9894219367791L96.71408999098647,169.98490615644877L96.81983556927956,169.98001816969426L96.81983620481637,169.98001817334028L96.9255819664159,169.97668191361385L97.03132846514683,169.98199069641024L97.13707542410107,169.9838224622467L97.24282284327866,169.9884757178911L97.34857099959204,169.9933713852668L97.4543193392252,169.9967506845683L97.56007736345327,170L97.66582662355525,170L97.77157634389386,170L97.87732652447353,170L105.17520061746005,170L105.2809830214979,170L105.38676588596748,170L105.49254921087316,170L105.59833299621056,169.9900198509494L105.70411724198408,169.98531297907377L105.8099019482026,169.98345973647125L105.91568711485725,169.98563418694835L106.02147274196574,169.99101953778413L106.12727102728634,169.999999930456L106.23305757529371,170L106.33884458375493,170L106.44462129393541,170L106.55040922331322,170L106.65619761315378,170L106.76198646345703,170L106.86777577422305,169.99674506171192L106.97356554546951,169.99453765514446L107.07935577718314,169.99261665709633L107.18514646936836,169.9923879201938L107.29093762203848,169.9944038873697L107.39672923518462,170L107.50253396961226,170L107.60832650373263,170L107.71411949833788,170L107.81991295343248,170L111.41715704786316,170L111.52296662184418,170L111.62877665641203,170L111.73458715157561,170L111.84039810733049,169.99605245142462L111.94620952367664,169.99304388306555L112.05202140062296,169.9914772873124L112.15783373817388,169.99226119054975L112.26364653632496,169.99493511417526L112.36946715823285,170L112.47528087759753,170L112.5810950575801,170L112.68690969817169,170L116.28487945669094,170L116.39071022047354,170L116.49654144496712,170L116.60237313017169,170L116.70820527609611,169.9972230081112L116.8140378827404,169.99380680936164L116.91987095010451,169.99064403815302L117.02570447818849,169.9847545882273L117.02570470970545,169.9847545820707L117.13153846700116,169.9848211582619L117.23737291654702,169.98806684226534L117.34320805834298,169.9931423473599L117.4490434293507,169.9953551259613L117.55488108599896,170L117.66071737848183,170L117.76655413171561,170L117.87239134569138,170L118.18990575211515,170L118.29574480910334,170L118.40158432684682,170L118.50742430535007,170L118.6132647446175,169.98867155707535L118.71910564465797,169.95135846923716L118.8249470054582,169.89832527326632L118.93078882703591,169.85912989235305L118.93078890420823,169.85912987630059L119.0366311093911,169.86894036602195L119.14247385251933,169.92063313186472L119.2483170564295,169.97000924630083L119.3541607710566,169.9943446260749L119.46000777007372,169.99999982368465L119.56585235633848,170L119.67169740339845,170L119.77754291124923,170L121.04772494833634,170L121.15357644674656,170L121.25942840599188,170L121.36528082606789,170L121.47113370697902,169.99393857381796L121.57698704873411,169.9918434057554L121.68284085132433,169.99144839161727L121.78869511476294,169.99287685399935L121.89454983904557,169.99529131740044L122.00040587761615,169.99999900934827L122.10626152360446,170L122.2121176304456,169.9960955363L122.31797419814845,169.99479455394962L122.4238312267086,169.9940592585126L122.52968871613045,169.99438811912856L122.63554666641843,169.99588185332732L122.74140574035111,169.9999999938191L122.7414058992353,169.9999999947441L122.84726461238026,169.99649812538456L122.95312394528442,169.9908312275915L123.05898373906359,169.98290717633685L123.16484399372222,169.9789974327899L123.27070470926029,169.9747200771685L123.27070502702868,169.97472007022083L123.37656604457085,169.9772617142454L123.48242768188554,169.98140379752223L123.58828993896832,169.98774388399065L123.69415249806406,169.9937283348868L123.80001703426177,169.99999951256L123.90588051515186,170L124.01174445693913,170L124.11760885962802,170L124.22347372322739,170L124.32933904773279,170L124.43520483314867,170L124.54107107947947,169.99672620028647L124.6469377867296,169.99477611317414L124.75280495489908,169.99391753554693L124.8586725839879,169.99418420959373L124.96454067400049,169.99508587317862L125.0704237106409,170L125.17629272251432,170L125.28216219531599,170L125.38803212905917,170L137.672073019243,170L137.77799690089745,170L137.88392124380377,170L137.98984604796195,170L138.09577131337633,169.99463112854772L138.20169704005144,169.9812138149415L138.3076232279917,169.96816579440667L138.41354987719262,169.9786785816214L138.5194769876587,169.98918916409974L138.62540460479866,169.9953315561242L138.62540519494,169.99533156583684L138.73133322795402,169.9850743677759L138.8372617222421,169.96742791163783L138.94319067780415,169.94941584619312L138.94319082760924,169.949415840859L139.04912009464903,169.95920559695662L139.15504997278126,169.97482024521003L139.25828113291115,169.9891204885538L139.36421193361795,169.99709253247713L139.47014319561202,169.99993091979692L139.5760749189023,170L139.68470755384303,170L139.79064019973003,170L139.89657330691762,169.99656119113382L140.00250687541023,169.990816700177L140.10844090521235,169.9901091099163L140.21437539631944,169.99212039402414L140.3203103487449,169.99545898429614L140.42625097842557,170L140.53218685347878,170L140.63812318985921,170L140.7440599875624,170L142.65099945153432,170L142.7569450148886,170L142.86289103962332,170L142.9688375257384,170L143.07478447323388,169.99523784795426L143.18073188212304,169.99161097030776L143.2866797523926,169.9899742905166L143.3926280840514,169.99145854998952L143.49857687710391,169.99492248529612L143.6184641346007,170L143.72441385044945,170L143.83036402770077,170L143.93631466635466,170L144.13157544258854,170L144.23752746547223,170L144.34347994976736,170L144.44943289547834,170L144.55538630261404,169.9974389436898L144.66134017117446,169.9892639264181L144.7672945011552,169.9645837425287L144.87324929256508,169.93235259625357L144.9792045454041,169.9139528825164L144.98191021169976,169.913933487663L145.0851602596767,169.93123212883884L145.1911164353918,169.9547419515414L145.297073072536,169.97840135930412L145.40303017113155,169.99669053616134L145.5116956763142,169.9999999604071L145.61765369779468,170L145.72361218072643,170L145.82957291823124,170L146.46533448204994,170L146.5712966566721,170L146.67725929277216,170L146.7832223903457,170L146.88918594939722,169.9969817676948L146.99514996993105,169.9940986520582L147.1011144519472,169.9929913718066L147.2070793954502,169.99449638166143L147.31304480044884,169.99723650065764L147.41834540970567,170L147.5243117376867,170L147.63027852716786,170L147.7362457781491,170L148.16078644747395,170L148.26675600599995,170L148.3727260260349,170L148.47869650759213,170L148.5846674506716,169.99508213098122L148.69063885528215,169.99165841428578L148.79661072141053,169.99077520590686L148.9025830490745,169.9930081797675L149.0085558382607,169.996448649227L149.12198998692372,170L149.2279636991899,170L149.3264782597603,170L149.43245289511086,170L149.5384279920103,170L149.64440355045414,170L149.75037957045126,169.99582380868128L149.85635605200164,169.99240056638956L149.9623329951098,169.99059146195668L150.0683103997712,169.99190498948914L150.17428826600803,169.9953245415333L150.28495347344722,170L150.39093226280838,170L150.4969115137361,170L150.6028912262393,170L153.98980398469988,170L154.0957989306071,170L154.20179433817842,170L154.30779020741826,170L154.4137865383267,169.99621523971857L154.51978333090366,169.9885745456126L154.62578058516246,169.98026276399543L154.73177830109424,169.97287393532545L154.8377764787079,169.9763134408255L154.9437751179989,169.985141534573L155.04977421898067,169.99316802675847L155.15577378164872,169.9984820921366L155.2617746594426,170L155.36777514549206,169.99569947883452L155.47377609324553,169.99367698869787L155.57977750269413,169.99318043773658L155.6857793738379,169.99443689576614L155.79178170669454,169.99639428725246L155.90141203183865,170L156.00741528810778,170L156.1134190060853,170L156.2194231857846,170L164.69695192445027,170L164.80299351195842,170L164.9090355613967,170L165.01507807277395,170L165.12112104609014,169.99644084441957L165.22716448134972,169.93339000165685L165.33320837855717,169.62411318507316L165.43925273770802,169.26567088175466L165.54529755881552,168.70399092922707L165.65134284187536,166.45219571418477L165.7573885868874,159.5976836115468L165.86343479386062,149.32612609306995L165.96948146279942,138.40018388576135L166.07552859369488,137.1924901681156L166.18157618656033,147.31977112690944L166.2876242413958,158.02378251420254L166.39367275820575,166.14671144995313L166.49972173699007,169.48371130337338L166.6057711777533,169.98907293172027L166.7125082138042,170L166.8185585785296,170L166.9246094052427,170L167.0306606939391,170L167.1367124446321,170L167.24276465731285,170L167.34881733199464,170L167.454870468673,170L167.5609240673524,170L167.6669781280417,170L167.77303265073647,170L167.8790876899113,170L167.98514313663028,170L168.09119904535922,170L168.19725578834985,170L168.30331270283259,170L168.4093699976222,170L168.51542775444392,170L168.62148643632278,170L168.72754511720413,170L168.83360494558943,170L168.9396645505394,170L169.04572461753028,170L169.15178514655764,170L169.25784613763483,170L169.3639075907618,170L169.4699696148833,170L169.57603206020312,170L169.68209538067606,170L169.78815868201553,170L169.89422244541808,170L170.00028707944313,170L170.10635176697187,169.99882361214213L170.21241691657258,169.98766482908823L170.31848252824526,169.97891990909136L170.42454878357626,169.97636862734865L170.424548897065,169.97636862461877L170.5306153193973,169.98958114181846L170.63668231729918,169.99628795015227L170.74274999064508,169.99999955521622L170.84881873437575,170L170.954887118529,170L171.06095596478076,170L171.16702527312225,170L171.27309504355787,170L171.37916527609204,170L171.4852359707292,170L171.66232067076987,170L171.76839228962191,170L171.8744643705769,170L171.9805369136438,170L181.67018649634107,170L181.7763020275589,170L181.88241802113242,170L181.98853447707492,170L182.0946513953864,169.99478316176697L182.2007687760713,169.9859036758482L182.30688661912964,169.97680628674797L182.4130049245702,169.9705813999829L182.5191236923887,169.9760068509858L182.62524292258942,169.98456813863976L182.73136286030808,169.9930276116717L182.8374830152911,169.99639166053507L182.94361237128305,169.99999935774238L183.04973345104838,170L183.15587388680615,170L183.26199589136266,170L190.16089926900554,170L190.26705179785034,170L190.3732047892769,170L190.47935824328528,170L190.5855121598754,169.995488416807L190.69166653905617,169.99191947702064L190.7978213808276,169.9909408821108L190.90397668518963,169.99309984610753L191.01013245214676,169.9964574507686L191.1163074935928,170L191.22246418574895,170L191.32862134050905,170L191.43477895787308,170L194.93822626105117,170L195.04439960862493,170L195.15057341889573,170L195.25674769187688,170L195.36292242755948,169.99697285088934L195.46909762595243,169.98749204520414L195.57527328705572,169.976742161147L195.6814494108738,169.97267288695107L195.7876259974022,169.97966611018768L195.89380304665423,169.98858423803176L195.99998066757902,169.99552225813133L196.10617233809646,170L196.2123507755194,170L196.3185296756793,170L196.42470903856722,170L207.68234601451775,170L207.7885749053217,170L207.8948042591507,170L208.00103407600037,170L208.10726435588404,169.99497525774768L208.21349509879718,169.98477443589178L208.31972630474874,169.95907771979262L208.42595797372982,169.94273443302802L208.4259581689304,169.94273442930725L208.53219010575373,169.9429611625595L208.5321903009543,169.94296115114423L208.63842270082046,169.94884201577088L208.74465594958662,169.97220179893165L208.8013704050707,169.9825465175112L208.85088952975755,169.98993629912292L208.90760392622752,169.99536471278535L208.95712351396605,169.99905941429688L209.01383791043605,169.99940009962344L209.06338146246932,169.99969770944128L209.1137042244466,170L209.16962015422519,170L209.21993913475848,170L209.3261745081309,170L209.4324103445639,170L230.00060197021756,170L230.10692815493675,170L230.21325480324407,170L230.31958191513942,170L230.4259094906318,169.99535618335847L230.53223752972113,169.99330645884157L230.63856603240743,169.99301212002396L230.74489499869955,169.99453453923206L230.85122442859307,169.99676138083856L231.0132435477671,170L231.11957390488118,170L231.22590472560108,170L231.33223600994455,170L233.50961463682094,170L233.61595612138382,170L233.722298069619,170L233.82864048153985,170L233.9349833571463,169.99609695409967L234.04132669643397,169.99314962855308L234.14767049941167,169.99205118303328L234.25401476607945,169.99347145320294L234.36035949644173,169.99614481006935L234.53602370656282,170L234.6423693643185,170L234.7487154857776,170L234.85506207094002,170L243.23890779938134,170L243.34529148963927,170L243.4516756438133,170L243.5580602619124,170L243.66444534394535,170L243.76089191282333,169.93433636898706" style="stroke: #ff7f0e;"></path></g><g class="filename"><path class="profile line" d="M3.1195540435883276,169.97299707768985L3.183682584363995,169.97786979410876L3.289014590593019,169.98702595234386L3.394347054638178,169.99682565583046L3.499681964830627,170L3.6050153445213584,170L3.710348569202465,170L3.8156828645476337,170L3.9210176177266725,170L4.026352828735146,170L4.131688497581922,170L4.237024624266999,170L4.342361208794812,170L4.447698251174225,170L4.553035751391941,169.99924733945585L4.658374127104163,169.99080779522492L4.763712543020648,169.97777720568962L4.869051416797602,169.95315687555248L4.974390748439455,169.93298744035397L5.079730705896209,169.93154540035684L5.079730937413188,169.93154539975825L5.185070980496289,169.9534811625368L5.290411812822473,169.97789021785465L5.3957530530873905,169.9928347054449L5.501094674058182,169.99673972014338L5.606437633566301,169.99999988760752L5.7117801702801945,170L5.81712316487672,170L5.9224666173514455,170L6.027810527708804,170L6.13315489595323,170L6.238501937388873,170L6.343847221416297,170L6.449192963339656,170L6.554539163158947,170L6.975928137450978,170L7.081276626803131,170L7.186625574064517,170L7.291974979244,170L7.397324842341584,170L7.5026751633572655,170L7.6080259422999115,170L7.713377179169523,170L7.818728873970533,170L7.924081430713899,170L8.02943404138657,170L8.134787109986208,170L8.240140636530544,170L8.34549556524125,170L8.450850007670548,170L8.556204908048974,170L8.661560266380965,170L8.766916082662087,170L8.872272356901206,170L8.977629089098322,170L9.082986279257868,170L9.1883443404832,170L9.29370244657204,170L9.399061010627742,170L9.504420032659175,170L9.609779844053385,169.9555816202122L9.715139782031843,170L9.820500227934366,170L9.92133094830212,169.93312428618415L10.026692260229934,169.1154236412303L10.132054030146776,167.97213298356743L10.237416258052646,167.10519496758957L10.342778943956413,166.32804030453335L10.446018968211062,158.69422620290766L10.551382570106187,133.09948893043128L10.656746630003637,86.15036075473208L10.76211114790342,35.12349685737277L10.867476123809963,15.692051380884038L10.870902665883655,15.454545454545467L10.972841557723267,55.481567807760996L11.0782074496522,105.1743560565434L11.183573799596763,146.72621617643873L11.288940607552517,164.57794074074283L11.394307873532767,169.74993395458847L11.506331760601777,169.9998821368561L11.611699942626583,170L11.717068582680316,170L11.822437680762976,170L11.92780723688343,170L12.033177251037246,170L12.138547723224422,170L12.243918653453823,170L12.349290041729885,170L12.454661888052609,170L12.560034192426425,170L12.665407009321484,170L12.77078062927333,170L12.87615430780929,170L12.981528444400778,170L13.0869030708335,170L13.19227848217368,170L13.297653992958347,170L13.403030052607244,170L13.508406520394367,170L13.613783754944052,170L13.719161098026188,170L13.824538899190449,170L13.929917281004647,170L14.035296347882833,170L14.14067552330677,170L14.246055156817265,170L14.351435343758137,170L14.456816211232317,169.99444457536526L14.56219721903352,169.99623368153138L14.667578743953145,169.99999996820108L14.772960690660671,170L14.878343458636378,170L14.98372629886361,170L15.089109597203999,170L15.19449338997837,170L15.299877754354611,170L15.40526269034159,170L15.510647852938051,170L15.616033441879692,170L15.72141975224161,170L15.826806257445034,170L15.93219386086013,170L16.037581282329764,170L16.142969161939156,170L16.24835749969717,170L16.353746295594938,170L16.459135649511403,170L16.564525361701985,170L16.66991562738058,170L16.775306596352284,169.99455465594767L16.880697683010897,169.98262904345683L16.98608960461397,169.9699084614844L17.091481607591994,169.96893332444932L17.09148166660613,169.96893332390334L17.196874068745245,169.9801872111026L17.302266988064847,169.9896249388851L17.40766042456494,169.99907162665028L17.51305448720798,169.99999998548492L17.618448912691296,170L17.72384514006508,170L17.82924035026079,170L17.934636776749638,170L18.04003218606928,170L18.14542872997462,170L18.250825772928845,170L18.356223274076026,170L18.461621233420598,169.99712268579844L18.567019650966987,169.99466608681053L18.672418526710764,169.98649677246263L18.777817860669664,169.98145549279377L18.883217652830382,169.98025981963676L18.88321769368632,169.9802598191732L18.988617903201785,169.98292865200847L19.094018652644245,169.9834527072681L19.199419960171895,169.9883334556765L19.304822161715766,169.99075475424442L19.30488609671824,169.990756473489L19.41022424496095,169.98895499357286L19.515626786425685,169.98865936882834L19.51562715866867,169.98865937688564L19.621029786118843,169.98750435692054L19.726433244040418,169.98979844556254L19.83183753243783,169.9941607006301L19.937241906829545,169.99506555819545L20.042646739458544,169.99726079302604L20.148116451059,169.9999999114608L20.25352560937243,170L20.35893181672659,170L20.464338482326895,170L25.840625537890713,170L25.946056036054667,170L26.051486992602204,170L26.15691840754662,170L26.262350280883485,169.9980302587759L26.367782612617223,169.9942401486019L26.473215402752274,169.98462257151147L26.578648651288642,169.9794134212745L26.684082358226316,169.9822036025073L26.78951652357417,169.9891987190945L26.894951147332204,169.99602564143413L27.00040280339679,170L27.105838343979613,170L27.211274342985917,170L27.316710800411265,170L40.499877888466465,170L40.6053721281701,170L40.710866826638565,170L40.816361983863,170L40.92185759985669,169.99653208381662L41.02735367461521,169.99390555588485L41.132850208143005,169.99274675752838L41.23834720044005,169.99398932295864L41.3438446515108,169.9964522640997L41.449343600916315,169.99999999068794L41.55484196954776,170L41.66034079695733,170L41.7658400831539,170L41.87133982813747,169.9965328430935L41.97684003191247,169.99441788884326L42.082340694478894,169.99066792814676L42.187841815845616,169.98983721614408L42.293343396008204,169.99028266832227L42.39884543496665,169.99182415151895L42.504348209642295,169.99559709327536L42.609851166219066,169.99685833419977L42.71536521776294,169.99999887502412L42.820869091953604,170L42.92641122124393,170L43.031916013066215,170L47.04139534038053,170L47.14691802813632,170L47.25244117482097,170L47.357964780430045,170L47.463488844967976,169.99692241540205L47.56901336843476,169.99510778370123L47.67453835083928,169.99453051138113L47.78006379217708,169.9954057383663L47.885589692457046,169.99718501483983L47.991138645016974,170L48.09666546317681,170L48.20219274028768,170L48.307720476354,170L51.684832753887356,170L51.79037563678709,170L51.89591897873537,170L52.00146277972334,170L52.10700703975542,169.99627169128476L52.2125517588405,169.99363382010966L52.31809693697412,169.99253400226291L52.42364257416074,169.9937474720857L52.52918867040477,169.99637955509897L52.63476629438127,170L52.74031330874457,170L52.845860782174164,170L52.95140871467003,170L68.15509155686362,170L68.26070608227654,170L68.3663210671503,170L68.47193651147602,170L68.57755241526257,169.9960423555313L68.68316877851883,169.99410106967946L68.78878560123593,169.99324503856738L68.89440288342716,169.99395409545468L69.00002062509253,169.9958641920961L69.10565170038741,170L69.21127036100106,170L69.31688948109327,170L69.42250906066847,170L78.61317002908552,170L78.71883005356949,170L78.82449053778026,170L78.93015148170458,170L79.03581288536014,169.99522966205961L79.14147474874254,169.99126384388708L79.2471370718562,169.98875496237514L79.35279985470554,169.9890349460161L79.45846309728614,169.99181545441468L79.56412679960687,169.99562842397265L79.6697918196424,169.999999798301L79.77545644144782,170L79.88112152300221,169.99716171710588L79.9867870643056,169.99445186089173L80.09245306535355,169.9933960004672L80.1981195261638,169.99436788663542L80.30378644673188,169.99624667134606L80.40945462601395,169.9999999875842L80.51512246610663,170L80.62079076595715,169.99654642738076L80.72645952557886,169.99371495502362L80.83212874496726,169.99233444664327L80.83212909451251,169.9923344499476L80.9377984241357,169.98833519768095L80.93779877368094,169.98833518886178L81.0434685630753,169.98858532679694L81.14913951134015,169.9908090000705L81.14913973831759,169.99080900962937L81.25481056983978,169.98486850269893L81.36048208812831,169.98143432070026L81.36048231510574,169.981434317484L81.46615429317428,169.9895876255804L81.57182673103617,169.99202153804964L81.67749962868692,169.99548051654364L81.78317499715547,169.9999999945639L81.88884894150911,170L81.99452321854871,170L82.10019795539935,170L82.31154868139986,170L82.41722459339069,170L82.5229011694767,170L82.62857820537818,170L82.73425570109517,170L82.83993365663206,170L82.94561207199774,169.99502786050138L83.05129094718778,169.98290655536806L83.15697028220661,169.96873819348676L83.26265007705867,169.94780448495158L83.36833053602363,169.94120058079912L83.36833069944738,169.94120057084345L83.47401125054655,169.9542235709826L83.57969242490714,169.9773741713888L83.6853741862216,169.99246071122232L83.79105631659161,169.99781630007192L83.89673978748057,169.99999992486983L84.00242280122721,170L84.1081062748337,170L84.21379020829113,170L84.31947460160839,170L84.42515945478546,170L84.53084476783123,170L84.63653094930059,170L84.7422171820793,170L84.84790387473112,170L84.95359110442395,170L85.05927935690721,170L85.16496742918726,170L85.27065596134928,170L85.3763449534066,170L85.48203440534145,170L85.58772449421399,170L85.693414865935,170L85.79910625137622,170L85.90479754289665,170L86.01048929431236,170L86.11618150563667,170L86.22187417686068,170L86.32756856999224,170L86.43326216104673,170L86.5389562120098,170L86.64465072289477,170L86.75034569369716,170L86.85604112442145,170L86.96173701507206,170L87.067433365649,170L87.17313017615668,170L87.27882744659954,170L87.38452517697758,170L87.4902234580862,170L87.59592247604692,170L87.70162158624824,170L87.80732115639806,170L87.91302124097092,170L88.01872205332565,169.72903325219642L88.01872207148384,169.72903322295332L88.1244230033342,169.99583956537012L88.22899203651625,169.9999554282217L88.33469390643948,169.97927344528208L88.44039623632452,169.50486686126575L88.54609902617135,168.13270210384923L88.65180227599325,167.2239704563498L88.75750598578136,164.45761214987127L88.86321015554455,152.65464377964253L88.9689147852784,118.03625036233083L89.07461987499617,72.99253122832502L89.18032542469349,29.49240535584761L89.18730670569332,28.104623067018167L89.28603143437918,37.25694683575267L89.39173790404882,83.8145579808795L89.49744483370684,128.85203064808994L89.60315222335323,157.91965314728597L89.70886007300132,168.50257728016123L89.81456838264221,169.97481217721236L89.92141246615216,170L90.02712169579641,170L90.13283138545121,170L90.2385415351077,170L90.34425214477471,170L90.44996321446116,170L90.55567474415815,170L90.66138673387455,170L90.7670991836148,170L90.8728120933789,170L90.97852546316685,170L91.0842397514819,170L91.18995404133084,170L91.29566879122133,170L91.40138401476321,170L91.50710002518971,169.97001175368575L91.6128161551961,169.98961448498366L91.7185327452485,169.9975560157658L91.8242499043005,169.99999998950545L91.82424994969598,169.99999999055487L91.92996775037595,169.96322544988254L91.92996775491551,169.96322544905513L92.03568572057968,169.98114291747876L92.14140415083828,169.99672614689212L92.24712309109124,169.9999999789721L92.35284256404073,170L92.45856274672911,169.99458570139234L92.56428301723827,169.99842323811868L92.67000377051778,169.99999998510506L92.77572507465642,170L92.88144672538785,170L92.98716883619187,170L93.09289168852939,170L93.1986152551631,170L93.30433874622045,170L93.41006269735925,170L93.51578710859283,170L93.62151197991676,170L93.72723737943312,170L93.83296398353023,170L93.9386902351518,170L94.04441694687698,170L94.15014411871469,170L94.25587175065604,170L94.36159984270991,170L94.46732846297394,170L94.57305752519672,170L94.67878706115953,170L94.78451703908107,170L94.89024793108771,170L94.99597878387426,170L95.1017103373827,169.99885649627012L95.20744211043416,169.9860356393948L95.31317434361587,169.97392928117958L95.41890738648635,169.9659919865992L95.41890745004002,169.96599198182844L95.52464053995072,169.9744396370815L95.63037415355862,169.98535258671032L95.73610829086816,169.9932309530985L95.84184282477202,169.99849803527798L95.94757981622965,169.99999982301495L96.05331527044274,170L96.15906344159833,170L96.2647998161251,170L96.68773765912137,170L96.79347633449441,170L96.89921547003759,170L97.00495506576422,170L97.11069512167428,169.99380288752565L97.21643563776779,169.98826213328908L97.32217661404474,169.98458692294932L97.42791805051398,169.98104962247965L97.53365994717554,169.97727255594938L97.53366036481403,169.9772725485878L97.63940250831352,169.97895686676364L97.74514532536855,169.98067086544958L97.85088881597912,169.98614228301858L97.95663268054386,169.99255563810013L98.06237687820685,169.99445276084083L98.16812153607545,169.99651859694046L98.27387882922785,170L98.37962440752095,170L98.48537044603295,170L98.59111694476387,170L104.40787884142203,170L104.51365111668075,170L104.61942385230468,170L104.72519704830266,170L104.83097070468357,169.99609308905815L104.93674482143855,169.9921403060215L105.0425193985809,169.9870011459901L105.14829443610174,169.97705060303554L105.25406993401438,169.9698212911953L105.35984589230995,169.96662549369606L105.35984614198513,169.96662549051433L105.46562256068137,169.97731023864145L105.57139943976497,169.98768967658265L105.67717680649095,169.9977375399283L105.78297059466605,169.99999999757352L105.88874885496053,170L105.99452757565122,170L106.10030687024901,170L108.11018629958419,170L108.21597468942473,170L108.32176353972801,170L108.42755285049402,170L108.53334262174049,169.99613311060094L108.6391328534541,169.99099488859557L108.74492354563932,169.98299812965845L108.74492393604051,169.98299813060027L108.85071469830945,169.98179257259468L108.8507151613434,169.98179258235535L108.95650631145558,169.98115076989615L109.06229858936187,169.9802844832985L109.06231089153857,169.98028491117975L109.16809112348223,169.9802759918911L109.27388430420898,169.98738303202322L109.37967775930358,169.99360151951257L109.48547488435722,169.99999961362127L109.59126926044375,170L109.69706409703292,170L109.80285939412471,170L111.49564677803423,170L111.60144990406965,170L111.70725349065648,170L111.8130575377947,170L111.91886204548875,169.99739596844134L112.02466701373861,169.9948955410948L112.13047244255316,169.99389984953658L112.23627833193241,169.9951797422539L112.34208468187634,169.99745566732116L112.44789950015314,170L112.55370677123533,170L112.6595145028955,170L112.76532269512923,170L119.00882135451725,170L119.11465718626697,170L119.22049347874986,170L119.32633023198362,170L119.4321674459594,169.996087568409L119.53800512068162,169.99484619104103L119.64384325615916,169.99455908432358L119.74968185238316,169.99556867182574L119.85552090937135,169.99749365823976L119.9613611988381,169.999999998925L120.06720117734135,169.99560580001L120.17304161660877,169.97018830814358L120.27888251664926,169.9467770970847L120.38472387744947,169.9305616535085L120.3847239909382,169.93056164008527L120.49056569902717,169.9332493093222L120.59640798138238,169.95420898009752L120.70225081076204,169.98328835878277L120.80809404190948,169.99838692065458L120.91394191930266,169.99999999592242L121.01978604478552,170L121.12563089888364,170L121.23147594594361,170L123.66603894488111,170L123.77189505172225,170L123.87775161942511,170L123.98360864798526,170L124.0894661374071,169.9973866293358L124.1953240876951,169.99418665489762L124.30118249885366,169.98570148841867L124.40704137088282,169.9732726989529L124.51290070378698,169.9611696710815L124.61876049756614,169.95427894747868L124.61876084257186,169.95427892757704L124.72462102005814,169.95602077348346L124.83048173559621,169.96379394534992L124.93634291202258,169.9798748160026L125.04220462650959,169.9929347389923L125.14806707879295,169.9955652953988L125.2539296378887,169.99764430804146L125.35979859560675,169.99999974851295L125.46566207649684,170L125.57153732176013,170L125.67740172444903,170L129.91234450003373,170L130.01822780206038,170L130.12411156510834,170L130.22999578916875,170L130.3358804742549,169.99691773908052L130.44176562036677,169.9938027109496L130.54765122749552,169.99165760899317L130.65353729565888,169.99182793598473L130.75942382485684,169.9941943118223L130.8653108150894,169.99716644463444L130.9711993467647,169.9999997467423L131.07708725907534,170L131.182975632425,170L131.28886446681818,169.9977150510154L131.39475376225923,169.99486120941984L131.50064351874818,169.99186411994208L131.60653373629393,169.99067482219883L131.71242441489642,169.99198610218602L131.8183155545557,169.99475235207126L131.92420715527174,169.99740969928672L132.0301073746267,170L132.13599989748286,170L132.24189288139584,170L132.34778632639217,170L138.49039512149562,170L138.59631577446712,170L138.70223688866827,170L138.80815846410795,170L138.91408050078616,169.99800800548908L139.02000299870286,169.99528098917617L139.12592595785813,169.99239289683635L139.23184937826525,169.99112445065933L139.33777325991974,169.99233745373283L139.33777380920512,169.99233746825408L139.44369760282606,169.99068308580755L139.5496224069842,169.98687896278417L139.655548221684,169.98108471019899L139.7614739483591,169.97736485695793L139.76147447040722,169.97736488199442L139.86740013629935,169.9762448543624L139.86740060387288,169.97624485264708L139.9733267855003,169.9780280972888L139.97332745281395,169.97802811493665L140.07925389596633,169.97664659317925L140.18518193528433,169.96541316260613L140.2911099682984,169.94013274262974L140.39703846258647,169.92601035831L140.39703869864297,169.9260103325403L140.5029674181485,169.9290936085133L140.60889683499343,169.95275036389106L140.71482691286573,169.97964488278822L140.82075734306736,169.99219613689948L140.92668890187875,169.9976378726393L140.92670687395167,169.9976387585236L141.03262016387285,169.9957923951105L141.1385518871631,169.99465401571032L141.2444840717495,169.99499788514274L141.3504167176365,169.99635266168872L141.45635385594326,170L141.56228742443588,170L141.668221454238,170L141.7741559453451,170L143.68105504597384,170L143.78699830248382,170L143.89294202036086,170L143.99888619960504,170L144.1048308402163,169.99739396342068L144.21077594220353,169.99393249961926L144.3167215055578,169.99150501965104L144.4226675302925,169.99208291881604L144.5286140164076,169.99505356603527L144.6345615903608,169.99999944859252L144.63457340226623,169.99999966256635L144.74050899924995,169.9969733749462L144.8464568695195,169.995724884802L144.9524052011783,169.99531650037892L145.0583539942308,169.99591185055164L145.16430324868588,169.99720578841962L145.2702753899047,170L145.376225567156,170L145.48217620580988,170L145.58812730587073,170L150.9922300712519,170L151.09820516815134,170L151.20418072659515,170L151.3101567465923,170L151.41613322814268,169.9976893678866L151.5221101712508,169.99483705558652L151.62808757591222,169.99265199742038L151.73406544214907,169.99280538017737L151.84004376993923,169.99493201404823L151.94602255930036,169.99744639443165L151.94602314490217,169.9974464085412L152.0520023958299,169.99463617549114L152.05200660399143,169.99463620522187L152.1579821083331,169.99283152402242L152.2639622824117,169.9925781774622L152.36994291807468,169.99389470352287L152.47592401530866,169.99629131594327L152.58191085816594,170L152.687892878573,170L152.79387536056876,170L152.89985830415773,170L154.27767618904647,170L154.38366559520156,170L154.48965546298086,170L154.59564579239768,170L154.70163658345197,169.99704630613843L154.80762783614827,169.99338036230654L154.91361955048646,169.99047596052293L155.0196117264622,169.99202443213056L155.12560436409316,169.99760718146246L155.23159825325644,170L155.33759181418904,170L155.4435858367769,170L155.54958032102442,169.99495670702703L155.65557526693163,169.98791890804756L155.65557560739776,169.98791891761732L155.76157067450293,169.97859713633858L155.8675665437428,169.9675533572931L155.97356321511737,169.95491086621857L155.97356436362315,169.95491088171548L156.07956000769434,169.95302248215452L156.18555726195316,169.96303667965032L156.29155497788494,169.97835630080104L156.39755315549854,169.9912628771179L156.5035529432954,169.99980003566523L156.60955204427714,170L156.71555160694518,170L156.82155163130392,170L156.9275521173534,169.99081088730853L157.03355306510684,169.98650990066545L157.1395544745555,169.98535978858138L157.2455563456992,169.9879657064222L157.35155867855588,169.99228256663255L157.4575621086489,169.99244255198755L157.4575621903608,169.9924425535885L157.563565364918,169.98176568536115L157.66956908289552,169.97474860598211L157.7755732625948,169.97015297825516L157.77557334430668,169.9701529757837L157.88157790401138,169.97538299985735L157.98758307523408,169.98588499637012L158.09358891700666,169.99221108195772L158.199594943584,169.9955184733242L158.32099406973316,169.9998483878093L158.43125181676814,170L158.5372592285418,170L158.64326710205492,170L165.30305916035707,170L165.40909659056967,170L165.51513448269463,170L165.621172836732,170L165.72721165268615,170L165.83325093055265,170L165.93929067034486,170L166.04533087206713,170L166.15137153570623,170L166.25893478100426,170L166.36497636851243,170L166.4710184179507,170L166.57706092932793,170L166.68310390264412,169.9920627932702L166.78914733790373,169.83136678605678L166.89519123511116,169.4214654091398L167.001235594262,168.61712199896914L167.10728041536953,166.1370257274498L167.21332569842934,159.1666554227954L167.3193714434414,149.21956954567736L167.4254176504146,138.91517435911794L167.4465620415921,137.81361361204688L167.5314643193534,138.52705237270806L167.63751145024887,148.39414174648738L167.74355904311435,158.84036227215586L167.84960709794981,166.48143937461637L167.95565561475973,169.55086651041245L168.0601857695319,169.98969912720256L168.16623520121604,170L168.27228510395366,170L168.37833546867907,170L168.48438629539217,170L168.59043758408856,170L168.69648933478157,170L168.80254154746234,170L168.9085942221441,170L169.01464735882246,170L169.12070095750187,170L169.22675501819117,170L169.3328099176685,170L169.43886490236872,170L169.54492034908773,170L169.6509763122912,170L169.75703311883552,170L169.8630899516064,170L169.96914724639603,170L170.0752050576923,170L170.18126363516154,170L170.28732231604295,170L170.39338145895638,170L170.4994416767454,170L170.60550174373626,170L170.71156227276364,170L170.81762326384083,170L170.9236847169678,170L171.02974663214013,170L171.13580973569447,170L171.24187257497528,170L171.34793587631475,170L171.4539996397173,170L171.56006386518297,170L171.6661285527117,169.99530376062248L171.77219402008083,169.99329814137678L171.8782596317535,169.99015475305842L171.98432570550258,169.9873755761782L172.09039248645925,169.98581795621715L172.09039294041412,169.9858179575642L172.1964594843611,169.98243551541213L172.30252694434824,169.9776844790355L172.40859519326813,169.9748893651412L172.4085953203755,169.9748893617916L172.51466357742135,169.9812764907179L172.6207325507805,169.99029740155746L172.726801859122,169.99851225170738L172.83287251476955,169.99999984115595L172.93894274730374,170L173.0450134419409,169.99698405985527L173.15108459868102,169.99479025823337L173.25715621753307,169.9943107978434L173.2571566442506,169.99431080442542L173.36322829848808,169.9938764814083L173.36322872520566,169.9938764825454L173.46930084155497,169.9935105411116L173.5753742734557,169.99311070475727L173.68144774075517,169.9931408840267L173.78752167017979,169.99514990826438L173.8935960617207,169.9976342371755L173.99968179214966,170L174.10575710794535,170L174.21183288587062,170L174.31790912593434,170L183.12384831310214,170L183.22996338195097,170L183.3360789131688,170L183.44219490674232,170L183.54831136268484,169.99345046628122L183.6544282809963,169.98256849328993L183.76054566168125,169.9709885989703L183.86666350473953,169.9679057603986L183.8666635274373,169.96790576023517L183.97278181018015,169.97934729118612L184.0789005779986,169.9862608286979L184.18501991260896,169.9922094532608L184.29114011362142,169.99229393952822L184.29115307857222,169.99229411749576L184.39726026860447,169.9917709060514L184.50338088596536,169.9928039204823L184.6095019657307,169.99517606888415L184.71564194299407,170L184.82176394755058,170L184.92788641450707,170L185.03400934386804,170L186.51976346085655,170L186.6258933266123,170L186.73202365481686,170L186.83815444546576,170L186.9442856985723,169.99768135251261L187.05041741413206,169.99586403200053L187.15654959215388,169.99480724484619L187.1565499598573,169.99480724702508L187.26268223263338,169.99249968105593L187.36881533557494,169.99106130573932L187.3688157032784,169.99106130330782L187.47494926869086,169.99130661482022L187.5810832965699,169.99175226256696L187.6872177869199,169.994706276914L187.79335273974525,169.99801953296006L187.89949818745723,170L188.00563406523776,170L188.1117704054981,170L188.2179072082516,170L195.75480203801823,170L195.86097214676593,170L195.96714271819738,170L196.0733137523081,170L196.17948524910702,169.99695112931101L196.28565720860297,169.98966730795314L196.39182963078267,169.98239341372022L196.4980025156638,169.97389696117995L196.4980029605396,169.97389697783348L196.60417586323757,169.97261769789822L196.60417647607667,169.97261770486062L196.7103496735084,169.97207364727493L196.71035001851408,169.97207364213807L196.81652429149523,169.97236674675088L196.81653850936146,169.9723671218828L196.92269902717786,169.96647276929042L197.0288742255708,169.96525557550464L197.02887449340417,169.96525557327502L197.13504988667407,169.9725712896417L197.24122627832548,169.9848874029725L197.34740286485388,169.9907033214113L197.45359341926303,169.99999995775167L197.55977093123866,170L197.66594890593797,170L197.77212734336092,170L200.95768702243492,170L201.0638798057358,170L201.170073051849,170L201.27626676077446,170L201.3824609325255,169.9975135118585L201.48865556709333,169.99442597072755L201.59485066448673,169.99237475659356L201.70104622470575,169.9930316841206L201.80724224775034,169.99578410427793L201.91344774917735,170L202.01964469789533,170L202.12584210944775,170L202.2320399838391,170L202.6568288647403,170L202.76302905337934,170L202.86922970486611,170L202.97543081921398,170L203.08163239642732,169.9964221678948L203.18783443650173,169.99507123158287L203.29403693944164,169.99454863808643L203.40023990525145,169.99526913680535L203.50644333393566,169.99673235309766L203.61267917937684,170L203.7188835338142,170L203.82508835113038,170L203.93129363132977,170L209.0296663850051,170L209.13589434977212,170L209.24212277755984,170L209.34835166836376,170L209.4545810221928,170L209.5608108390425,169.9940294486813L209.66704111892614,169.9878664047836L209.66704145485275,169.98786641169718L209.7732718618393,169.9851689609661L209.87950306779086,169.9757079655001L209.98573473677192,169.965543762091L210.09196720472244,169.96152356871812L210.09196725919702,169.96152356731943L210.15097064133627,169.96877116728646L210.19819979978917,169.9739004230586L210.257203236403,169.98098694577075L210.30443285789426,169.98665939818534L210.36343629450812,169.98951387520387L210.41066682392685,169.99179879744608L210.4661141234336,169.99232450619473L210.51690080813535,169.99280554086155L210.5723481076421,169.9943701586204L210.62313525539554,169.99580327572465L210.6785825549023,169.99728015880524L210.729374845982,169.99863305202058L210.78069480152098,170L210.8869301748934,170L210.9931660113264,170L211.09940231082436,170L214.12913648533709,170L214.2353866779861,170L214.34163733377994,170L214.44788845272743,170L214.55414003482412,169.99695070964867L214.6603920800789,169.99280331482657L214.7666445884873,169.9898648780157L214.87289756005828,169.99054480927765L214.97915099478732,169.99396221088844L215.08540489269217,169.9973961614978L215.26760175721282,170L215.37385658145158,170L215.48011186886617,170L215.58636761945212,170L221.88662610069773,170L221.99291011013776,170L222.09919458292646,170L222.20547951905505,170L222.31176491853677,169.99644521636228L222.41805078136719,169.99372748132626L222.52433710755076,169.99284334460958L222.52433746617513,169.99284334961558L222.6306238970919,169.99104500723425L222.73691114999508,169.9900058131424L222.73691150861941,169.99000581205303L222.8431992248846,169.9913529980273L222.94948740451176,169.99306780215628L223.0557760475054,169.99694388145411L223.16207932180106,169.9988647444319L223.2249059707848,170L223.3311955405246,170L223.43748557363972,170L223.54377607013456,170L232.5173324333849,170L232.62366279049897,170L232.72999361121887,170L232.83632489556234,170L232.94265664352048,169.9978803753141L233.04898885509778,169.99582304635265L233.15532153030307,169.99455506427626L233.26165466913636,169.99516355906195L233.3679882715888,169.99704804629508L233.47432457114044,170L233.58065910086663,170L233.68699409422518,170L233.7933295512251,170L234.64402989859028,170L234.7503695284683,170L234.85670962201417,170L234.96305017923237,170L235.0693912001229,169.99706035305485L235.17573268468578,169.99456039510622L235.28207463292097,169.99371042702595L235.38841704484182,169.9949012327284L235.49475992044827,169.99698218049787L235.60110404053827,169.99884942237688L235.66663232923807,169.9985916091137L235.707447843516,169.9977143666362L235.7729761322158,169.9950309335986L235.8137921101838,169.99335948697555L235.87932039888358,169.99070110278166L235.9201368405461,169.98904524090554L235.98566512924586,169.98739987548828L236.0264820346073,169.98637499425078L236.02648214355645,169.98637499326213L236.132827692363,169.9872513161809L236.23917381382208,169.99103180379572L236.34552050793368,169.99523481496192L236.4047857539339,169.9977034423991L236.50479644639472,170L236.6111439589772,170L236.71749193527188,170L236.82384037527882,170L244.69328023981097,170L244.79966346614384,170L244.90604715640177,170L245.0124313105758,170L245.1188159286749,170L245.22520101070785,169.90266111989197L245.3206689346197,169.62507455605777" style="stroke: #2ca02c;"></path></g></g></svg>
