<svg width="300" height="220"><g transform="translate(40,10)"><g class="x axis" transform="translate(0,170)"><g class="tick" transform="translate(69.52741517536299,0)" style="opacity: 1;"><line y2="6" x2="0"></line><text y="9" x="0" dy=".71em" style="text-anchor: middle;">467</text></g><g class="tick" transform="translate(147.51626626503125,0)" style="opacity: 1;"><line y2="6" x2="0"></line><text y="9" x="0" dy=".71em" style="text-anchor: middle;">468</text></g><g class="tick" transform="translate(225.50511735469956,0)" style="opacity: 1;"><line y2="6" x2="0"></line><text y="9" x="0" dy=".71em" style="text-anchor: middle;">469</text></g><path class="domain" d="M0,-170V0H250V-170"></path><text y="20" x="125" dy=".71em" style="text-anchor: middle;">m/z</text></g><g class="y axis" transform="translate(0,0)"><g class="tick" transform="translate(0,170)" style="opacity: 1;"><line x2="-6" y2="0"></line><text x="-9" y="0" dy=".32em" style="text-anchor: end;">0.0</text></g><g class="tick" transform="translate(0,139.0909090909091)" style="opacity: 1;"><line x2="-6" y2="0"></line><text x="-9" y="0" dy=".32em" style="text-anchor: end;">0.2</text></g><g class="tick" transform="translate(0,108.18181818181819)" style="opacity: 1;"><line x2="-6" y2="0"></line><text x="-9" y="0" dy=".32em" style="text-anchor: end;">0.4</text></g><g class="tick" transform="translate(0,77.27272727272728)" style="opacity: 1;"><line x2="-6" y2="0"></line><text x="-9" y="0" dy=".32em" style="text-anchor: end;">0.6</text></g><g class="tick" transform="translate(0,46.36363636363636)" style="opacity: 1;"><line x2="-6" y2="0"></line><text x="-9" y="0" dy=".32em" style="text-anchor: end;">0.8</text></g><g class="tick" transform="translate(0,15.454545454545467)" style="opacity: 1;"><line x2="-6" y2="0"></line><text x="-9" y="0" dy=".32em" style="text-anchor: end;">1.0</text></g><path class="domain" d="M250,0H0V170H250"></path><text transform="rotate(-90)" x="-85" y="-30" style="text-anchor: middle;">Normalized Intensity</text></g><g class="filename"><path class="profile line" d="M0,170L0.06412895841413903,170L0.1694609646431626,170L0.2747934286883223,170L0.3801263505584844,170L0.48545973024921585,170L0.5907998505046442,170L0.6961341458498136,170L0.8014638147344206,170L0.9067990257428944,170L1.01213469458967,170L1.1174708212747475,170L1.2228074058025602,169.99526071893712L1.3281444481819742,169.9824187522669L1.4334819483996901,169.97566267692355L1.5388199064734402,169.98233019184468L1.6441583223899257,169.99405739963305L1.7494971961668788,170L1.8548367547861626,170L1.9601765442796175,170L2.0655169005915734,170L2.1708579508160906,170L2.2761991139086812,170L2.381540734879472,170L2.4868830497716914,170L2.592225586485583,170L2.697570038277209,170L2.802913490751935,170L2.908257401109294,170L3.01360176935372,170L3.1189465954896454,170L3.2242918795170707,170L3.329637621440429,170L3.43498382125972,170L3.54033047898381,170L3.6456775946038333,170L3.751025168133089,170L3.8563731995715766,170L3.961723477505878,170L4.067072424767264,170L4.172421829946748,170L4.277771693044331,170L4.69917572467328,170L4.80452787739682,170L4.909880488069493,170L5.01523355666913,170L5.120587083213464,170L5.225941067698063,170L5.33129551012736,170L5.436650410505787,170L5.542005768837778,170L5.647362048152857,170L5.752718322391975,170L5.858075054589092,170L5.963432244748637,170L6.068790296894872,170L6.174148402983712,170L6.279506967039414,170L6.384866025387236,170L6.489747645271549,170L6.595107583250008,170L6.700467979217495,170L6.805148972204293,169.9701865606034L6.910510284132107,169.08540673544215L7.015872054048948,167.67679803857447L7.121234281954821,166.52460165626783L7.226596967858587,165.22853547671565L7.331960111755816,157.07653961057238L7.43732371365094,129.97055090933085L7.542687773548394,81.85937945748968L7.648052291448176,31.69687616860014L7.753417267354719,15.487794177891942L7.7540971283111375,15.454545454545467L7.858782701268023,57.44448619391838L7.964148593196956,107.86936659746684L8.069514943141519,148.85846424421823L8.174881751097272,165.78304530379705L8.280249017077523,169.91870761355128L8.386777707934352,170L8.492145889959158,170L8.59751453001289,170L8.70288362809555,170L8.808253184216005,170L8.913623198369821,170L9.018993670556997,170L9.124364600786398,170L9.229735989062462,170L9.335107835385184,170L9.440480139759,170L9.545852965733157,170L9.651226553908163,169.85623867992055L9.65122659022455,169.85623863377566L9.756600232444123,169.91082515130915L9.861974369035613,169.98419805949294L9.96734946304184,169.99999999322887L10.07272451575768,170L10.178100026542348,170L10.283475995400272,170L10.388852744639406,169.9854105121985L10.49422962964385,169.9915005371414L10.599606972725987,169.99747637085375L10.704984864681219,169.99999998901993L10.810363214718576,170L10.915742299754958,169.98985663429568L10.915742317913152,169.98985663254732L11.021121475178894,169.99301205165162L11.126501108689387,169.99994367210635L11.231881227537032,169.99999999952686L11.33726177724281,170L11.442643266236164,170L11.548024732141657,170L11.620524734348034,170L11.72590711646211,170L11.831289956689343,170L11.936673255029731,170L12.074939428101917,170L12.1803239831392,170L12.285708655832362,170L12.39109378665198,170L12.496479752376155,170L12.601865799444255,170L12.707252304647678,170L12.812640348398988,170L12.918027769868624,170L12.990531435202564,170L13.043926401382933,170L13.09591977296058,170L13.149314739140946,170L13.20130856885835,169.9986460306793L13.254703535038718,169.9972555744177L13.306697822904743,169.99151869336475L13.36009278908511,169.9845146616419L13.412087535095326,169.97753084411286L13.465482501275694,169.96641903061234L13.517477705443396,169.95536092862687L13.570872671623764,169.9428081296673L13.622868333948956,169.93511761774317L13.676263300129325,169.92639665323557L13.728259420607573,169.9251716288518L13.781654386787942,169.92703495838617L13.83365096542811,169.92966951739825L13.887045931608478,169.93961708896327L13.939042968406136,169.9489743525206L13.992437934586505,169.96297547864134L14.044435429559385,169.97348170120458L14.149828348878989,169.98812142794765L14.25522172636495,169.9959924824497L14.393500525331532,169.9999999414555L14.498894819167933,170L14.604291591287549,170L14.709686801483262,170L14.815127742785672,170L14.920523869353993,170L15.447466034096228,170L15.552864909840006,170L15.658264243798904,170L15.763664035959621,170L15.869064286331023,169.99127985842148L15.974464994917549,169.98381110468623L16.079866161719195,169.98043721392872L16.18526778674039,169.98437272588566L16.290669869985575,169.9893763268641L16.396072947117045,169.99486312510555L16.39610749308189,169.99486510380058L16.501475946810203,169.99367767539232L16.606879404731778,169.99384994874111L16.712283320886204,169.99539272729643L16.712283838394743,169.99539274990227L16.81768821278646,169.99106491509525L16.81775542080347,169.99106503982162L16.923093045415456,169.98665912983537L17.028498336281743,169.98522982617175L17.133904085394178,169.98666463429703L17.239310292748332,169.990157406338L17.344789078157238,170L17.450196202012563,170L17.55560378412291,170L17.661011824483836,170L33.79378880115549,170L33.89926744465917,170L34.004746546830155,170L34.11022610767287,170L34.21570612719175,169.99601863531765L34.3211866053868,169.99342365860971L34.42666754225358,169.99246898091187L34.53214893780541,169.9935948906498L34.63763079204669,169.99613453957826L34.743160488772425,170L34.84864326038378,170L34.954126490689035,170L35.05961017968819,170L45.82132194578407,170L45.92685289456962,170L46.03238430232835,170L46.13791616906028,170L46.24344849476983,169.99606073770403L46.348981279457,169.99282414937952L46.45451452312623,169.99143282326924L46.560048225781934,169.99262020254048L46.66558238742414,169.99525126565308L46.77115773234775,170L46.87669281197179,170L46.98222835058676,170L47.08776434820595,170L48.248652466252814,170L48.35419397205122,170L48.45973593688044,170L48.56527836075379,170L48.67082124365352,169.99560220529736L48.7763645856018,169.9932625529803L48.88190838658977,169.99235912846746L48.987452646621854,169.99384311559206L49.09299736570693,169.99681569387303L49.19857229150253,170L49.30411792868914,170L49.40966402493317,170L49.51521058023906,170L57.85481981484066,170L57.96040310349997,170L58.065986851433934,170L58.17157105864253,170L58.27715572513463,169.9926154914987L58.382740850910245,169.98688169460553L58.488326435964936,169.98515717210202L58.593912480312014,169.98839368898518L58.69949898395145,169.99378538502188L58.80510893969693,169.99999999524192L58.910696361921126,170L59.016284243451,170L59.12187258427768,170L76.02192126805824,170L76.12758359117188,170L76.23324637402123,170L76.33890961660184,170L76.44457331892256,169.99614705671283L76.55023748098341,169.99139224525476L76.65590210278883,169.9880679951813L76.76156718434322,169.9884778351651L76.86723272564662,169.9964130232503L76.97290268518094,170L77.07856914599118,170L77.18423606655928,170L77.28990344688079,170L78.13525727981653,170L78.24092879810506,170L78.3466007761736,170L78.45227321403547,170L78.55794611168623,170L78.66361946913476,170L78.76929328638103,170L78.87496756342063,170L78.98064230027127,170L79.0863185818718,170L79.19199423833126,170L79.29767035460176,170L79.40334693068777,170L79.50902396658927,170L79.61470146230624,170L79.72037941784315,170L79.82605783320882,169.99524157377903L79.93173670839887,169.98859466208302L80.0374160434177,169.98081449466045L80.14309598807486,169.9776173102532L80.14309621959184,169.97761730324913L80.24877631539292,169.98277473717422L80.35445702991584,169.99240772525343L80.46013836316061,169.99681258997217L80.56582029243837,169.99999993441935L80.671502386492,170L80.77718577112952,170L80.8828687848762,170L80.98855225848267,170L81.0942361919401,170L81.19992058525735,170L81.30560543843443,170L81.41129075148018,170L81.51697781362199,170L81.6226640464007,170L81.7283507390525,170L81.834037891573,170L81.93972550397993,170L82.04541357625997,170L82.151102108422,170L82.2567911004793,170L82.36248055241417,170L82.46817046424432,170L82.5738608359653,170L82.67955172205619,170L82.78524484301471,170L82.89093659443041,170L82.99662880575472,170L83.10232147697874,170L83.5250967610183,170L83.63079173182071,170L83.736487162545,170L83.84218305319561,170L83.94787940377255,170L84.05357621428023,170L84.15927348472307,170L84.26497121510113,170L84.37066940541878,170L84.47636843699814,170L84.58206754719946,170L84.68776711734927,170L84.7934672064617,170L84.89916802335597,169.93921908510777L85.00486897336452,170L85.11057041964239,170L85.21615314003354,169.9719331925547L85.32185546991857,169.45065691360347L85.4275582597654,167.99138838951959L85.5332615095873,166.88558306112466L85.63896521937542,164.09809373880447L85.74466938913861,152.55896995746568L85.85037401887246,119.33823233455321L85.95607910859026,74.43430695588587L86.06178465828755,31.695134390827263L86.070657224183,29.471128078899852L86.16749066797324,37.15588678486256L86.27319713764288,82.34471253641661L86.3789040673009,127.41666430908728L86.48461145694729,157.4002869327419L86.59031930659538,168.44330661459196L86.69602761623626,169.96172862173225L86.80185843618247,170L86.90756766582673,170L87.01327735548153,170L87.11898750513801,170L87.22469811480505,170L87.33040918449149,170L87.43612071418848,170L87.54183270390487,170L87.64754515364511,170L87.7532580634092,170L87.85897143319715,170L87.96468534019014,170L88.07039995234702,170L88.17611470223753,170L88.28182995755624,170L88.38754607239237,170L88.49326220239875,170L88.59897879245113,170L88.70469587887037,170L88.81041370678761,169.97075564257852L88.91613167699134,169.99029430962096L89.02185010724996,169.9989643943669L89.1275690928984,169.9999999954642L89.2332888291417,170L89.3390086395871,170L89.44472891009625,170L89.55044971785036,170L89.65617136245514,170L89.76189301318657,170L89.86761512399059,170L89.97333769487611,170L90.07906113440247,170L90.18478462545978,170L90.2905085765986,170L90.39623299237172,170L90.50195828587367,170L90.6076836172968,170L90.71340940881471,170L90.81913628235442,170L90.92486299407963,170L91.03059016591735,170L91.1363177978587,170L91.24204588991256,170L91.34777444208335,170L91.45350345891065,170L91.55923293131976,169.99855338511284L91.66496370366232,169.99413049900363L91.77069409631862,169.98722672542422L91.87642494910517,169.97405028824093L91.98215626201753,169.9503062545191L92.087888035069,169.9363918842569L92.11859254309368,169.93342902024997L92.19362066319142,169.93504787354627L92.29935335651668,169.94815561130957L92.40508650998103,169.9692529845802L92.51082012358893,169.98458522290338L92.6165541973448,169.9930649530652L92.72228873124864,169.99778459997893L92.8280268258166,170L92.93376228002968,170L93.03949819440406,170L93.14523456893085,170L93.67392243617164,170L93.77966157171483,170L93.88540116744144,170L93.99114122335152,170L94.09688173944501,169.9950888914118L94.20262271572197,169.9923196184619L94.3083641521912,169.9910516916457L94.41410604885277,169.9925717107206L94.51984840571106,169.99618978690577L94.62559213067583,169.99999914880107L94.73133540792759,170L94.83707914538498,170L94.94282334304796,169.9942996974772L95.04856800091656,169.9894247093716L95.15431311899962,169.98738587054424L95.26005869729272,169.98960776398917L95.36580473580472,169.99422154276408L95.47155123453564,169.9978598097629L95.57731067270899,170L95.68305809188656,170L95.7888059712875,170L95.89455431092063,170L105.20220968680071,170L105.30799899756673,170L105.41378876881319,170L105.51957900052682,170L105.62536969271204,169.99555011527116L105.73116084538216,169.99334038483153L105.8369524585283,169.9902760442111L105.94274453215489,169.98809370998106L106.04853706627526,169.98799498272444L106.15433033325343,169.99344168917057L106.15434234035948,169.99344198641734L106.26012378834803,169.99153257021496L106.35986515784002,169.98986647945105L106.46565953392656,169.98690450031543L106.57145437051572,169.98620765588996L106.57750736149227,169.98617508408623L106.67724966760753,169.98749991925192L106.78909878388191,169.99189387321417L106.8948950019834,169.99234797339557L107.00069168059636,169.9951869869753L107.1064999688522,169.99999977720182L107.21230246666553,170L107.31810052682185,170L107.42389904750739,170L114.51344211241106,170L114.61927195478056,170L114.7251022578566,170L114.8309330216392,170L114.93676424613278,169.99746866221844L115.04259593133735,169.99408514538004L115.14842807726178,169.98705013051386L115.25426068390604,169.98159920431934L115.36009375127017,169.9806642302369L115.46592727935413,169.98456223777407L115.57176126816682,169.99050008346333L115.67759585843868,169.99684670772209L115.78343282513319,170L115.8892681961409,170L115.99510402789062,170L116.10094032037351,170L116.51822552187825,170L116.62406411810225,170L116.72990317509043,170L116.83574269283392,170L116.94158267133717,169.98883996867679L117.0474231106046,169.96729565657887L117.15326401064507,169.92929464960736L117.25910537144529,169.90065677809758L117.26516994734986,169.89938634492933L117.36494719302301,169.90029685218028L117.4707894753782,169.9322306895648L117.57663221850643,169.97395631112084L117.6824754224166,169.99104057228345L117.79438811177086,169.9999995608883L117.9002322372537,170L118.00607682351848,170L118.11192187057847,170L120.86405484045345,170L120.96991232987531,170L121.0757702801633,170L121.18162869132188,170L121.28748756335102,169.99465320666658L121.39334689625518,169.9913309963496L121.49920669003436,169.99029054770014L121.49920704411915,169.9902905531407L121.60506694469298,169.98194868803813L121.71092766023104,169.97814270036628L121.71092801431584,169.97814269461688L121.81678919074221,169.97995154502783L121.92265082805689,169.9802351667752L122.02851292625546,169.98222395091605L122.13437551258849,169.98833931675384L122.24023883672673,169.9937021205379L122.34610231761684,169.99697688276498L122.45197439881474,170L122.55783880150364,170L122.66370366510299,170L122.76956898960839,170L126.89867387650034,170L127.0045576395483,170L127.11044186360867,170L127.21632654869482,170L127.3222116948067,169.99631303829472L127.42809730193544,169.99417944880935L127.53398337009881,169.993049566008L127.63986989929677,169.99308067598307L127.74575688952933,169.9944951926419L127.85165367410397,170L127.95754158641462,170L128.0634299597643,170L128.16931879415748,170L129.12233202394503,170L129.2282254689414,170L129.33411937500776,170L129.4400137421531,170L129.54590857037294,169.99534777079677L129.6518038596806,169.99219484059313L129.7576996100716,169.99108981956346L129.86359582155484,169.9930339288119L129.96949249412145,169.9964649239157L130.07539774449765,170L130.1812953392576,170L130.2871933951142,170L130.3930919120764,170L135.6886046338784,170L135.79452667055662,170L135.90044916847336,170L136.00637212762862,170L136.1122955480357,169.99653627077475L136.2182194296902,169.99369144708604L136.32414377259653,169.9925985198519L136.3241441811559,169.99259852517417L136.43006857675465,169.99032324919443L136.5359938421691,169.98987252246422L136.53599441869173,169.98987252720522L136.64191997740357,169.9879120127331L136.7478461653438,169.98435242801574L136.85377281454475,169.981178649064L136.85377344100243,169.98117865185782L136.9596999250108,169.9770241381111L137.06562766471862,169.96647623106742L137.17155615622707,169.95137016243487L137.2774846505151,169.94280282971258L137.38341360607714,169.94745183737245L137.48934302292207,169.95901650796333L137.59527290105427,169.98466255264265L137.7012032949395,169.99387717265938L137.80713409564626,169.99635970887837L137.9130809873062,170L138.01901271059643,170L138.12494489518284,170L138.23087754106984,170L142.680456019185,170L142.78640850348012,170L142.8923614491911,170L142.9983148563268,170L143.10426872488725,169.99692687570746L143.21022305486795,169.9939910151509L143.3161778462778,169.99267045165658L143.42213309911682,169.99397011168722L143.52808881338947,169.99681979868092L143.6340569326569,170L143.74001356980114,170L143.8459706683967,170L143.95192822843026,170L151.37010157373717,170L151.476091903154,170L151.5820826942083,170L151.68807394690458,170L151.7940656612428,169.99443306262938L151.90005783721853,169.99203161299866L152.0060504748495,169.9918669660766L152.1120435741313,169.99377643529954L152.2180371350639,169.99658132950813L152.3240318522027,169.99699206257208L152.43002633645023,169.99281012754687L152.53602128235744,169.97873879693535L152.64201668992874,169.96824150363082L152.74801255916861,169.9586339891395L152.85400889007704,169.95422604455834L152.9600058778546,169.95347385323896L152.96000588693371,169.95347385323845L153.06600313211342,169.96702633732713L153.17200106140396,169.98311021742467L153.27799923901762,169.99557458743035L153.38399852292457,169.99619792863058L153.38399964419304,169.99619794232137L153.4899976239063,169.99306687056276L153.59599718657432,169.99152711018652L153.7019972109331,169.99308593733218L153.80799769698254,169.99626337201636L153.91399960258076,169.99938338485066L154.02000101202935,170L154.12600288317313,170L154.2320052160298,169.99499823186025L154.33800801058598,169.99083128974058L154.44401126685509,169.97629685003804L154.55001498483261,169.97526393295942L154.6560191645319,169.98154705717684L154.76202380594847,169.98831445413748L154.8680290725017,169.9950906507149L154.98785987347676,169.99983711882948L155.09386590005414,170L155.19987238836657,170L155.3105616058773,170L161.75935958825795,170L161.8653951708521,170L161.97143121534975,170L162.07746772175093,170L162.1835046900512,170L162.28954212026377,170L162.39558001238876,170L162.5016183664261,170L162.60765718238025,170L162.74390524502485,170L162.84994498481706,170L162.95598518653935,170L163.06202585017843,170L163.14642467780507,170L163.25246626531325,170L163.3585083147515,170L163.46455082612874,170L163.57059379944494,170L163.67663723470454,169.8701556406224L163.78268113191197,169.38287629690083L163.88872549106281,168.47311764852236L163.99477031217035,166.0435188272233L164.10081559523016,159.48959898815343L164.20686134024223,149.78442464053109L164.31290754721542,139.83007788142965L164.33454984516237,138.68938214854094L164.41895421615422,138.95775953230915L164.52500134704968,148.35186126974264L164.63104893991516,158.6891361368096L164.73709699475063,166.48760073490388L164.84314551156055,169.60660705534107L164.94063170324586,169.98093105835795L165.04668099420397,170L165.1527308969416,170L165.258781261667,170L165.3648320883801,170L165.4708833770765,170L165.5769351277695,170L165.68298734045027,170L165.78904001513203,170L165.8950933016155,169.9790821610133L165.89509333339234,169.97908215474584L166.0011469002949,169.99119306639736L166.10720097460285,169.99490544022245L166.2132558196056,169.98716051227032L166.31931080430581,169.9932297545675L166.42536639175083,169.99999992030862L166.5314223004797,170L166.63747991960327,170L166.7435367523741,170L166.84959404716375,170L166.95565180398543,170L167.0617100228303,170L167.16776870371172,170L167.27382784662518,170L167.37988745157512,169.99700571439422L167.48594751856598,169.99185863726805L167.5920080475934,169.979889919195L167.69806903867055,169.97532351216867L167.69806926110846,169.9753235025918L167.80413049633708,169.98203393065785L167.91019262940776,169.9927286588443L168.0162550066343,169.99729508758512L168.12231800479933,169.9999996474057L168.22838172377723,170L168.33444548717983,170L168.44050971264545,170L168.54657469978443,170L168.65263984938514,170L168.75870546105782,170L168.86477226113468,170L168.97083879695572,170L169.07690579485757,170L169.1829732548447,170L169.2890411769171,170L169.3951095610703,170L169.50120592606572,170L169.60727523440718,170L169.7133187662519,170L169.81938899878605,170L169.92545969342322,170L170.03153085016336,170L170.1376024690154,169.9961754285098L170.24367454997042,169.99359185666137L170.3497470930373,169.99193395763749L170.45582009822047,169.99237429068066L170.56189356551994,169.99474696695714L170.66797861229907,170L170.77405300383998,170L170.8801278575105,170L170.98620317330617,170L180.00429436484433,170L180.11040943369318,170L180.216524964911,170L180.32264095848453,170L180.42875741442703,169.99610546338727L180.53487433273853,169.98329475642248L180.6409917134234,169.96780262175318L180.74710955648175,169.95644885362233L180.85322786192233,169.96073894933627L180.95934662974082,169.97390005143484L181.06546585994155,169.99228825890407L181.1715995297947,169.99999921929572L181.27771968477774,170L181.38382761863983,170L181.4899486984052,170L181.5960702405617,170L181.7021922451182,170L181.8083147120747,169.9951533903664L181.91443764143565,169.99308963671825L182.02056103320552,169.9927805767243L182.1266848873887,169.9944716760696L182.23280920398074,169.99716987197323L182.33896049848946,170L182.44508573992147,170L182.55121144376676,170L182.65733761003867,170L193.05993161407807,170L193.16610357357402,170L193.27227599575372,170L193.3784488806349,170L193.48462222820865,169.99661670484372L193.59079603847945,169.989404747404L193.69697031146057,169.98357334146817L193.80314504714318,169.98151720029924L193.90932024553615,169.98515399110713L194.01549590663944,169.99167269835965L194.12170003947236,169.99999999976293L194.22787662600075,170L194.33402693277196,170L194.44020444474762,170L194.54638241944693,170L194.65256085686988,170L194.75873975702976,169.99482708448795L194.8649191199177,169.99261498545752L194.97109894553816,169.99224387765966L195.07727923389996,169.99430611501623L195.18345998500314,169.99735085521564L195.2896812830618,170L195.3958629596522,170L195.50204509898833,170L195.60822770107916,170L206.01634053770078,170L206.1225689654885,170L206.22879785629243,170L206.33502721012144,170L206.44125702697113,169.99928811581313L206.5474873068548,169.9931512833162L206.65371804976795,169.98123657680586L206.7599492557195,169.9714698269197L206.8661809247006,169.97298946580196L206.9724130567245,169.98236628996267L207.07864565179122,169.99215781262873L207.1848927007851,169.99862688568882L207.2460455546466,170L207.29112622194194,170L207.35227907580338,170L207.39736020615044,170L207.45851306001188,170L207.50359465341063,170L207.56474750727207,170L219.08592596119843,170L219.19221136068012,170L219.29849722351057,170L219.40478354969414,170L219.5110703392353,169.99352250279756L219.61735759213843,169.98374470830024L219.72364530840363,169.96022518550777L219.82993348803078,169.93499918766344L219.93622213102444,169.9307941616908L219.93622217188036,169.93079416114642L220.04251123738894,169.94976942843226L220.14880080712874,169.9677430060375L220.2550908810998,169.98440894872306L220.31947972494297,169.99212621470835L220.36138145930653,169.99411920867024L220.42276163560368,169.99699896140996L220.52905259547828,169.99946537923225L220.63534401873704,170L220.74163590538,170L220.87237327974285,170L231.73715588711514,170L231.84349644433334,170L231.94983746522388,170L232.05617894978676,170L232.16252089802194,169.99595485586377L232.2688633099428,169.99435570189655L232.37520618554925,169.99280369209063L232.4815495248369,169.99259906228798L232.58789332781464,169.99426418934314L232.69423759448242,169.99675595739495L232.8709604493696,170L232.9773056434308,170L233.08365130118653,170L233.1899974226456,170L241.58356785587395,170L241.68995108220685,170L241.79633477246477,170L241.9027189266388,170L242.00910354473788,170L242.11548862677085,169.8840121540934L242.20111489103138,169.615439496234" style="stroke: #1f77b4;"></path></g><g class="filename"><path class="profile line" d="M1.559777021791947,170L1.6053505458749155,170L1.7106827476104163,170L1.8160154071664865,170L1.921348524547559,170L2.0266820997536343,170L2.1320161327891447,170L2.237350623649658,170L2.3426855723484725,170L2.4480230625339634,170L2.5533583413031797,170L2.6586946635169,170L2.764031443573356,170L2.86936868147698,170L2.974706377227772,169.99465642368284L3.0800445308301656,169.97329778150558L3.185383142288593,169.93963802456892L3.290722211607489,169.89522927994716L3.3960617387824192,169.86587599980172L3.4278439791559707,169.85764229457027L3.501401723817817,169.85891883640906L3.6067421667181154,169.89517499565946L3.712083339865097,169.93257058825114L3.817425011732917,169.96589449417186L3.9227668282500834,169.98688037605007L4.028109102636584,169.99740997340618L4.133451966552627,169.99999992868288L4.23879584671135,170L4.34413949474575,170L4.449483600662785,170L4.554828164471319,170L4.660176291218161,170L4.765521770814128,170L4.870867708301595,170L4.976214103693859,170L5.608301197779328,170L5.7136507985406535,170L5.819000857224511,170L5.9243513738264655,170L6.0297023483598196,170L6.1350537808157055,170L6.240405671207422,170L6.34575801953497,170L6.451110825793916,170L6.55646408999756,170L6.661818297868734,170L6.767172477957341,170L6.872527524554451,170L6.977882620541317,170L7.083238174477316,170L7.188594290780928,170L7.293951795650001,170L7.399308723459989,170L7.504666109232409,170L7.610023952976124,170L7.715382254686703,170L7.8207410143641445,170L7.926100232017317,170L8.031459907650651,170L8.134032340785732,169.87731411966644L8.136820431665328,169.8739793109401L8.239392932370526,169.99427796776033L8.337021798326733,170L8.442383305889583,170L8.547745271441466,169.54838662564333L8.653107694991242,168.3737914493105L8.758470576530046,167.37017928528022L8.863833916066747,166.4786110345751L8.96919771361021,159.38858906570937L9.074561969147135,134.82800624838453L9.179926682699689,88.48078112870574L9.285291854250136,37.392793271741795L9.390657483820647,16.051245518025468L9.398389667442698,15.454545454545467L9.496023571402352,54.536306119566234L9.601390116999683,103.4539407599855L9.706757120612643,145.78425508087395L9.8121245822501,164.09956210070513L9.917492501912049,169.64496696991452L10.03338459054286,170L10.138753426262664,170L10.244122720011395,170L10.34949247179792,170L10.454862681617806,170L10.560233349484351,170L10.665604475393124,170L10.770976059344125,170L10.876348101341785,170L10.98172060139497,170L11.08709355949925,170L11.192466975659055,170L11.29784132652699,170L11.403215658811149,170L11.508590449155266,170L11.613965806512944,170L11.719341917014539,169.94019430648456L11.719341953330925,169.94019428587032L11.824718081569566,169.9645964630972L11.93009470419342,169.99858161784059L12.035472316026585,169.99999999853358L12.14084985481469,170L12.246227851680487,170L12.351606306637276,170L12.456985796203295,170L12.5623651673332,170L12.66774499655853,170L12.773125283879287,170L12.878506083774482,170L12.983887704933423,169.99021232230308L12.983887723091618,169.99021232061668L13.089269366558186,169.99274498260556L13.194651486291672,169.9988351841872L13.300034636117005,169.99999997681908L13.405417672067939,170L13.510801166136465,170L13.616185118318146,170L13.721575452732775,170L13.826960321158506,170L13.932345647715124,170L14.03772718337628,170L14.143113426190245,170L14.248500127130669,170L14.353887286210847,170L14.459274903430785,170L14.564662978786043,170L14.670051512289925,170L14.775440503937997,170L14.88082995373469,170L14.986219861688872,170L15.091610227791678,169.99149474497153L15.197001474229992,169.9805365525582L15.302392756656642,169.96983238007792L15.407784497236346,169.95490265703276L15.513176854871041,169.9415802054684L15.513177363300484,169.94158017180905L15.618569697904947,169.9426914998974L15.6185700202129,169.94269146454778L15.723963135300535,169.95944086874545L15.829356708563395,169.975164202523L15.93475073999704,169.99858382121397L16.040148584336755,170L16.145543532129714,170L16.25093893810676,170L16.356334802272322,170L17.515719353929374,170L17.62112071653895,170L17.72652253736808,170L17.831924816416763,170L17.937327553693866,169.9894698706821L18.042730749199382,169.97280854338658L18.148134402937757,169.95182807397705L18.253538514908982,169.9446214970442L18.25353871010957,169.94462149406752L18.358943085117495,169.94868162720945L18.464348113563293,169.96742516622746L18.56975379545583,169.99019991359629L18.6751597403895,169.99490216026348L18.780566829041156,169.99217565548884L18.885973690471562,169.99078435288695L18.99138101015255,169.99230457953144L19.096788788097427,169.99571875096103L19.202208082633273,170L19.30761677709262,170L19.41302592981141,170L19.518435540798528,170L24.578632722330656,170L24.68406479160401,170L24.789497319274243,170L24.894930305350222,170L25.000363749827514,169.9968588115425L25.105797652710553,169.99218001164664L25.211232014003766,169.9884508979144L25.316666833711594,169.98858008452157L25.4221021118296,169.9922867184997L25.527537848366652,169.99660695958752L25.633006028982173,170L25.73844268236618,170L25.843879794169233,170L25.949317364400198,170L27.109132026995788,170L27.214575098570045,170L27.320018628607677,170L27.42546261711312,170L27.53090706408637,169.99722380046683L27.636351969531866,169.9936013806103L27.7417973334496,169.9910799354271L27.847243155839582,169.99195250395616L27.95268943671067,169.99539698680783L28.05815264554962,170L28.163599843382926,170L28.269047499706208,170L28.374495614519468,170L40.398586773268455,170L40.504087632063964,170L40.609588949659766,170L40.71509072605587,170L40.82059296125226,169.99419366838063L40.92609565526226,169.99119026023916L41.03159880806811,169.99055308780663L41.13710241969199,169.99234603455685L41.242606490129475,169.99540373984837L41.34811194999244,170L41.45361693806598,170L41.55912238495754,169.99519185294022L41.664628290676006,169.99210897494766L41.770134655221355,169.99116506429965L41.87564147859361,169.99282041151105L41.98114876080162,169.99559390481815L42.08670591482746,170L42.192214114711426,170L42.29772277342672,170L42.403231890986646,170L50.21214193429679,170L50.31768547265591,170L50.42322947005915,170L50.528773926510944,170L50.63431884201129,169.9937626369169L50.73986421656906,169.98257203752416L50.84541005017538,169.97560043667778L50.95095634284799,169.97453272728347L51.056503094578005,169.9811874172319L51.16205044609589,169.99203153978556L51.267629148312714,169.99999993661277L51.37317727724159,170L51.47872586524562,170L51.584274912320375,170L75.23883518776098,170L75.3444875942972,170L75.4501404605115,170L75.55579378640385,170L75.66144757197871,169.99653229949718L75.76710181723604,169.99340180375626L75.87275652218032,169.9919801366158L75.97841168681595,169.99360847106144L76.08406731114738,169.99683771643936L76.189726836148,170L76.295383379871,170L76.40104038328981,170L76.5066978464177,170L76.71801252208951,170L76.82367136434024,170L76.92933066630451,170L77.03499042798673,170L77.14065064938691,169.9947435383887L77.24631133050505,169.99291061361433L77.35197247135444,169.99262093545767L77.45763407192624,169.99341633595185L77.56329613223372,169.99510096032225L77.66896015031905,170L77.77462299844657,170L77.88028643795671,170L77.98595033720696,170L78.09161469619731,170L78.19727951493668,169.9837164921764L78.30294479342503,169.97053580927204L78.40861053166238,169.94033404893202L78.40861053620192,169.94033404852146L78.51427672965313,169.9502414335815L78.6199433874062,169.9678018794634L78.65954648819428,169.978381749932L78.72561063655958,169.9876298933521L78.76521406546749,169.99024128827614L78.8312783454797,169.99459734432907L78.87088210249856,169.99662220753274L78.93694719962951,169.99999993547763L78.93694846162403,169.99999994325395L78.97655059930521,169.99821921448665L79.04261569643617,169.99524856628813L79.14828465300954,169.9918280670519L79.25395406935407,169.98944270517245L79.35962394547418,169.98995719958165L79.4652942813699,169.99287492716314L79.57096507705006,169.99611647323943L79.67663666389731,169.99999989506523L79.78230837914195,170L79.88798148478737,170L79.99365411961423,169.99668145519774L80.09932721423884,169.98746580023794L80.20500076865235,169.9782161712309L80.31067478287247,169.97474999269733L80.41634925689036,169.97894142412414L80.52202419071486,169.99129520338252L80.62769958434154,169.99517057917245L80.73337768940426,170L80.83905319007829,170L80.94472996314259,170L81.05040719602678,170L81.0900170905774,170L81.15608488873978,170L81.19569524310589,169.9985455001805L81.26176304126827,169.9961194673779L81.30137385546317,169.9914748243327L81.36744165362555,169.98372789301277L81.40705292764478,169.97762338994127L81.47312072580716,169.96538140606103L81.51273245965963,169.95641755531503L81.57880025782202,169.93023825534553L81.61841245151213,169.9196212072814L81.68448024967452,169.90095814984292L81.72409290319344,169.89281876751141L81.79016087385865,169.88235951666937L81.82977381472125,169.88092406093213L81.89584178538647,169.89729691758043L81.9354551860867,169.90879551360254L82.00152346090167,169.93301197303737L82.04113701730311,169.94475000602444L82.1072052921181,169.96230717508791L82.14681930836163,169.97191632452927L82.21288758317661,169.98270738955702L82.25250205927108,169.98862984744514L82.31857067001265,169.99599138324345L82.35818527003148,169.99773490371854L82.42425388077305,169.99860622282668L82.52993837759114,170L82.63562250806233,170L82.74130709839775,170L82.84699214860187,170L82.9526776586658,170L83.05836579396312,170L83.16405222376443,170L83.26973911344773,170L83.37542646300415,170L83.90387010902045,170L84.00956021789094,170L84.11525078665672,170L84.22094181532222,170L84.32663330388745,170L84.43232525235237,170L84.53801766073032,170L84.64371052901242,170L84.74940385720312,170L84.85509764531125,170L84.96079189333685,170L85.06648753642689,170L85.1721827042918,170L85.27787833207861,170L85.3835744198006,170L85.4892709674489,170L85.59496911899421,170L85.70066658650845,170L85.80636451396231,170L85.91206290135578,170L86.0177617486933,170L86.12346105597487,170L86.22916082320936,170L86.33486105039233,170L86.44056174661176,170L86.54562785624701,170L86.65132946330202,170L86.7516816813737,170L86.85738420835227,170L86.96308719530151,169.81913269622126L87.06879064221694,168.53281264461944L87.17449454910748,167.75525578756702L87.28019891597307,164.72744107361484L87.38590374281377,152.45382974273699L87.49160902963841,117.18743754712403L87.59731477644256,73.03549597664048L87.70302098323953,31.314982076513758L87.71396373764088,29.03140774877687L87.80872765002044,41.88442145572037L87.91443477679417,87.07577737894731L88.02014236356072,131.14320050154583L88.1258504103245,158.27593273616677L88.23155891708997,168.43353074470906L88.33726788385269,169.95782772012348L88.44896601024546,170L88.55467589702042,170L88.6603862438059,170L88.76609705060636,170L88.87180831742182,170L88.97752004425669,170L89.08323223111097,170L89.18894487798909,170L89.29465798489107,170L89.40037155182576,170L89.50608559240736,170L89.61180056059519,170L89.71751550763244,170L89.82323091470242,170L89.9289468362974,170L90.03466352661884,169.94925835566204L90.03466355839569,169.94925834934372L90.14038031382685,169.96464369715102L90.2460975610853,169.99999999221336L90.35181541366418,170L90.4575340985365,170L90.56325272595959,170L90.6689718134464,170L90.77469136099256,170L90.88041189519451,170L90.986132362877,170L91.09185329063655,170L91.19757467846426,170L91.30329665801594,169.98220291660763L91.30329695762613,169.98220287203586L91.40901896600218,169.9855257026159L91.51474197920108,169.995012204789L91.62046533446207,169.9999999164801L91.69174519656985,170L91.79746934489972,170L91.90319395331994,170L92.00891902183939,170L92.11464455045359,170L92.22037053917145,170L92.3104640953978,169.99030496048547L92.3605425028368,169.98117562251326L92.41619100432295,169.96776029860354L92.46626941176191,169.9441739729035L92.52191837335617,169.90809923667945L92.57199678079515,169.87303458060177L92.6276462025019,169.8319228912127L92.67772460994087,169.80324750947938L92.73337449176013,169.77275033777101L92.74900738435527,169.77020467616205L92.7834528991991,169.7757813959998L92.83910324113974,169.79840141245052L92.8891816485787,169.8259340310215L92.94483245064072,169.8672679185521L92.9949108580797,169.9007449222898L93.05056212025865,169.93597285772762L93.10064052769762,169.95768025636417L93.1562922500024,169.9770990750446L93.20637073007414,169.98734167050657L93.27765573246707,169.99554581079713L93.31210610916746,169.9984249184838L93.41783324154123,169.9981098290113L93.5235647516757,169.98919474621084L93.6292967219404,169.9788625563101L93.73502915234866,169.9740969012494L93.73502982420185,169.9740969026343L93.84076217454735,169.96318915248352L93.94649572043883,169.9551800153624L93.94649606544453,169.95517996536674L94.05222953127772,169.95833294807795L94.15796414726582,169.97513954585546L94.2636988784095,169.9969811403851L94.3694373971903,170L94.4751730486388,170L94.58090916024857,170L94.68664573201961,170L95.95552040519037,170L96.06126295931068,170L96.16700597363659,170L96.27274944815922,170L96.37849338288748,169.98873410761138L96.48423777782578,169.96258136726237L96.58998263297411,169.94429864224944L96.69572794833248,169.93870903039513L96.69572798464885,169.93870902921572L96.80147372390975,169.95467780955957L96.90721995970593,169.9759235266354L97.01296673742844,169.9923644913633L97.01298035607425,169.9923652714607L97.1187144111754,169.9857910920044L97.11871471078562,169.98579108331327L97.22446202764604,169.98711153077906L97.33021010434,169.9904104920962L97.43595894087638,169.99364037745744L97.54170793803475,169.99581440776825L97.64746549398889,170L97.75321541162054,170L97.85896578950212,170L97.9647166276248,170L103.14707152872599,170L103.2528453825019,170L103.35861969666519,170L103.46439447120696,170L103.5701697061361,169.99301470630635L103.67594540145704,169.9791628908264L103.78172155716535,169.96997639723594L103.88749817327432,169.96919168002975L103.99327524977508,169.97645635912622L104.09905278668096,169.98584052087784L104.20483084299718,169.99501102022975L104.31061304583642,169.99999995183134L104.41639196395757,170L104.52217134248826,170L104.62795220282247,170L106.21470401697624,170L106.32049122289898,170L106.42627888927555,170L106.53206701611045,170L106.63785560341692,169.99616787825562L106.74364465118613,169.99206859432445L106.8494341594225,169.98944976363293L106.95522412813489,169.98996457010168L107.06101455731888,169.99276669562465L107.16680544698333,169.99608256588968L107.16680627318118,169.99608258801217L107.27259762332166,169.9928211978625L107.27259771865218,169.99282119920937L107.3131080284338,169.99093332216998L107.37838943394702,169.98614305828696L107.41889983905916,169.98215450546937L107.48418170505728,169.9757270075256L107.52469211016944,169.97145807233372L107.58997443665689,169.9645786974211L107.63048484176903,169.96293762545596L107.69576762875025,169.96029303934455L107.69576782395083,169.9602930350515L107.80156128133292,169.96921287311469L107.90735548974432,169.98602041759128L108.01315016318902,169.99791927543174L108.11894614603638,170L108.2247416406207,169.99508799023508L108.33053759571209,169.98617612642957L108.43633401131495,169.96845547545502L108.43633411118503,169.96845547001942L108.5421308874249,169.96936571902768L108.64792822405076,169.9806319254735L108.75372602119698,169.99038869927762L108.84520935028787,169.99742059024288L108.92279461878337,170L109.02859333697475,170L109.13439251568647,170L109.24019215492301,170L110.44655664930751,170L110.55236227565892,170L110.65816836257947,170L110.76397491006027,170L110.86978191811463,169.99623978715192L110.97558938674696,169.99284472861368L111.08139731595287,169.99151657490833L111.18720570573677,169.99308241415272L111.29301455610752,169.99605684964973L111.39882495654791,169.99999975962172L111.50463472808352,170L111.61044496021483,170L111.71625565292858,169.99592551816147L111.82206680624692,169.99204492125958L111.92787842015655,169.98979662775378L112.03369049467075,169.99084272008994L112.13950302978513,169.99406146801485L112.24532241265341,170L112.35113586898137,170L112.45694978592282,170L112.56276416347771,170L116.26655744913175,170L116.37238841056204,170L116.47821983270332,170L116.58405171556001,170L116.68988405913655,169.99611298354475L116.79571686343294,169.98922345961608L116.90155012845362,169.97998561851676L117.00738385419858,169.96979704469177L117.11321804067227,169.9675578219617L117.11321817685872,169.96755781929244L117.21905268787467,169.97207465417327L117.32488779581465,169.9807581984519L117.43072336449221,169.99673307609322L117.53637565113826,169.9993473892868L117.64221214129985,170L117.74804909220347,170L117.85388650384911,170L118.05142094191197,170L118.10016492378894,170L118.15725973582356,170L118.20600371770053,170L118.26309899049045,170L118.31184297236744,170L118.36893870592154,170L118.41768268779852,169.99810000424887L118.47477888210793,169.99119264569305L118.52352286398492,169.97575086881102L118.58061951906295,169.94488960687673L118.62936350093993,169.90720252261897L118.68646061679101,169.85144026537657L118.735204598668,169.80133523177366L118.79230217529214,169.73923789657053L118.84104615716912,169.690244103113L118.89814419456187,169.6389931779523L118.94688817643883,169.62241304847194L119.00398667460907,169.64204827349658L119.05273065648606,169.67626379121663L119.1098296154382,169.7401956621031L119.15857359731518,169.7976334976042L119.21567301704481,169.86306342365867L119.26441699892179,169.9100270025224L119.3215168794422,169.9512092562618L119.3702608613192,169.9777844113055L119.42736120262151,169.99572626297854L119.54753575041211,169.99999996479266L119.65338099517741,170L119.75922670073794,170L119.86507286709809,170L119.97091949425791,170L120.07676658222181,170L120.18261413098978,169.99401427580221L120.2884621405707,169.99075208882937L120.3943106109646,169.98955091075626L120.50015954216697,169.9908619555115L120.60600893419117,169.99354601388677L120.71187094394391,170L120.81772125760286,170L120.92357203209251,170L121.02942326741282,170L122.72309722280535,170L122.82895629259745,170L122.93481582327342,170L123.04067581481999,170L123.14653626725486,169.99127438153954L123.25239718056918,169.98111482077198L123.35825855477181,169.97255455042676L123.46412038986274,169.968879709953L123.46412054874695,169.9688797051427L123.56998268584643,169.97451927020688L123.67584560160705,169.98732314523616L123.78170881938065,169.99605874947054L123.88758007002293,169.9999999788762L123.99344420959976,170L124.0993093775262,170L124.20517443891511,170L128.8636929121075,170L128.96957871712334,170L129.07546498317376,170L129.18135171025438,170L129.287238898374,169.9962205520322L129.39312654752828,169.99304534969014L129.4990146577304,169.99050124789898L129.6049032289672,169.99035833731227L129.60490379641075,169.99035835086787L129.71079226125627,169.98722065865852L129.81668175459774,169.98150502438534L129.9225722764351,169.96731580453744L130.02846269188117,169.95076529697565L130.13435356838406,169.9446289078054L130.13435375450555,169.94462889986758L130.24024490594815,169.9561737069888L130.3461367045823,169.97581347339886L130.4520291503947,169.99147190466593L130.5579218711557,170L130.66383089601587,170L130.76971023026422,170L130.87560433424875,170L130.9814988993122,170L131.08739392545903,170L131.19328941268918,169.99677062484878L131.29918536100718,169.9929916923526L131.40508177041295,169.99160054668587L131.510978640911,169.99342856844376L131.61687597250568,169.996556060989L131.72278442406162,170L131.8286826778541,170L131.93458139275208,170L132.04048056875118,170L137.44194785967147,170L137.54787101687344,170L137.65379463532275,170L137.75971871502392,170L137.86564325598135,169.9974118775954L137.97156825818618,169.99235206629925L138.07749372165614,169.98454928588592L138.18341964638677,169.9781290480747L138.28934603237815,169.98053649254157L138.39527287963904,169.98726348788338L138.50120018816952,169.99523911426468L138.60712877054877,169.99616781757527L138.60712889311654,169.99616781945275L138.7130570016228,169.9888233198699L138.81898569397524,169.98413928826895L138.92491484761055,169.9832297938458L139.03084446252873,169.98632503109334L139.13677466129758,169.99268852448918L139.13678214701324,169.99268894460587L139.2427055120148,169.9923998343432L139.34863651079928,169.9932040932234L139.45456797087107,169.995623290021L139.56050081831137,169.99999984189654L139.6664332009755,170L139.77236604494465,169.99376760391465L139.87829935022322,169.98932613735911L139.98423311680244,169.98628942395567L140.09016734469552,169.9933843290265L140.19610203389365,170L140.30204332188424,170L140.40797893371456,170L140.5139150068721,170L140.6198515413524,170L142.2089524314108,170L142.3148963474188,170L142.42084072479827,170L142.52678556354488,170L142.6327308636674,169.99566287570724L142.73867662516594,169.99092258982392L142.84462284804036,169.98194343013745L142.95056953229968,169.97665272714676L143.0565166779438,169.97437528647595L143.056517168215,169.97437528687985L143.1624642849727,169.97114499562858L143.16246465267616,169.97114499316203L143.26841253043773,169.97695130500696L143.37436125091065,169.98556654994337L143.48031036468848,169.99329125239444L143.58625981729216,169.99626569171403L143.58626056177815,169.9962657179537L143.69221047577994,169.9933033413345L143.69221172869538,169.99330336827842L143.79816085119322,169.99184759038906L143.904111688009,169.99109519737118L144.01006298623182,169.99239771813293L144.11601474587047,169.99560245174828L144.22196821983152,169.99927546820214L144.32792090229742,170L144.43387404618366,170L144.53982765149016,169.99566675089955L144.6457817182258,169.97841139178524L144.7517362463862,169.93324495154172L144.85769123597132,169.89037820727478L144.96364668699442,169.86315058767636L144.96432656610907,169.86309599812367L145.06960259945117,169.8814286026806L145.17555897334591,169.9192363971178L145.28151594033,169.96597473810135L145.38747950622627,169.9924914990811L145.49343726445284,169.99947999920892L145.59939548412626,170L145.70535416525098,170L145.81131910029552,170L149.4141987399053,170L149.52017403506417,170L149.6261497917808,170L149.73212601004624,170L149.8381026898694,169.99613164404036L149.94407983125473,169.99326966314655L150.05005743419778,169.9924518879241L150.15603549870295,169.99378751113935L150.26201402477918,169.99589418273752L150.36799866415996,170L150.47397811337376,170L150.579958024163,170L150.68593839653215,170L153.44158949224243,170L153.54758232821266,170L153.6535756258382,170L153.75956938511888,170L153.86556360605044,169.99577376458046L153.97155828864612,169.99316915704298L154.0775534329103,169.99168275656447L154.18354903883863,169.99281979222079L154.28954510643106,169.99624033763217L154.2895457147306,169.9962403580096L154.39554224399598,169.9873207218902L154.5015392349388,169.96440066324337L154.60753668755018,169.93843880501345L154.60753682827618,169.93843878435513L154.7135346018478,169.94135306515201L154.8195329778229,169.9648091526953L154.92553187450278,169.98823795545403L155.0315312555667,169.99599892726732L155.13753304578327,170L155.24353326851673,170L155.34953395294534,170L155.45553509906912,170L155.66753877642867,170L155.77354130766003,170L155.8795443006087,170L155.9855477552614,170L156.0915516716358,170L156.19755604972312,169.99170319012558L156.30356088953218,169.98534533659364L156.3035611619051,169.98534534558084L156.40956619105413,169.98259346790098L156.409566463427,169.98259346691364L156.51557195431107,169.9849766144113L156.62157845166712,169.9910490059149L156.7275851383809,169.99425270919764L156.84066447228136,169.99939917572752L156.94667208246076,170L157.06588160204697,170L157.17189013570533,170L157.78767987076176,170L157.89369163668513,170L157.9997038643657,170L158.1057165538168,170L158.21172970503395,169.99659712005496L158.31774331801716,169.9918034596192L158.42375739277978,169.98099249540684L158.52977192931732,169.97654346216234L158.6357869276298,169.98174148293182L158.74180238772612,169.9923497865143L158.84781830960623,169.99618979757014L158.96617281412438,170L159.07218965958094,170L159.1782069668258,170L159.28422473586772,170L159.48392550866163,170L159.58994466310378,170L159.69596427935187,170L159.8019843574015,170L159.90800489727042,169.99550003435556L160.01402589894974,169.99210345928046L160.12004736244833,169.9907154118759L160.2260692877618,169.99278161834732L160.33209167489449,169.99655346431575L160.44149948820342,170L160.54752279898796,170L160.6535465716051,170L160.75957080605477,170L164.7888339591998,170L164.89487620719012,170L165.00091891712384,170L165.10696208900094,170L165.21300572282146,170L165.31904981858983,169.8154012682448L165.42509437631045,169.42886319870686L165.5311393959789,168.60435586202874L165.63718487760406,165.87330456589405L165.74323082119037,158.18336718336857L165.8492772267378,148.0390234299099L165.95532409424635,137.9264370529453L165.97104725207697,137.50108768507914L166.06137142372046,139.23024526714465L166.16741921516902,149.7422577659003L166.2734674685787,160.0958476449828L166.37951618397173,167.0506693716253L166.48556536133916,169.69207682660257L166.58823925162102,169.9921720362095L166.69428935295065,170L166.80033991626794,170L166.906390941573,170L167.01244242886136,170L167.11849437814632,170L167.22454678943234,170L167.33059966271048,170L167.43665299799412,170L167.54270679527878,170L167.64876105457333,170L167.75481577587334,170L167.86087150847308,170L167.96692715379731,170L168.07298326114477,170L168.17903983050655,170L168.28509694814298,170L168.39115444156002,170L168.49721239700025,170L168.603271272967,170L168.70933122380484,170L168.81539056534126,170L168.92145036892305,170L169.0275106345458,170L169.13357136220944,170L169.23963255192294,170L169.34569420368172,170L169.45175631749922,170L169.55781896145973,170L169.66388211287884,170L169.76994587615283,170L169.87600983820496,170L169.98207485699666,170L170.08813974318386,170L170.19420509143856,170L170.3002709017653,170L170.40633717416836,170L170.51240390865226,170L170.61847227642056,170L170.72453993506613,169.9964536840426L170.83060805580587,169.98855565778123L170.93667663863081,169.9753865933696L171.0427456835499,169.96673051389462L171.04274571078722,169.96673051167193L171.1488151905587,169.970034802247L171.2548851596705,169.98087730455362L171.36095561812257,169.99156069199927L171.46702767356038,169.99999961610288L171.57309902898112,170L171.67917084650932,170L171.7852431261494,169.99514922241013L171.89131586790577,169.99261172577832L171.99738907177397,169.99156300779623L172.10346273776736,169.9930458518826L172.20953686587703,169.99602345173565L172.31561172394964,169.99999956523968L172.42168677630966,170L172.52777388935033,170L172.63384986597842,170L172.73993179305475,170L172.84600869395527,170L180.9092000942327,170L181.01531258783197,170L181.1214255437692,170L181.2275389620621,170L181.33365284270187,169.99506898568933L181.4397671857017,169.99114312114307L181.54588199106166,169.9873313102211L181.5458823860024,169.9873313190073L181.65199725877733,169.98584337025773L181.65199765371807,169.98584337072575L181.758112988862,169.9831347944835L181.8642295762519,169.97139772641992L181.97034623106563,169.96576144872347L182.07646334825725,169.94409698319788L182.18258137269802,169.93054547056926L182.19536551009378,169.93025966159567L182.28869941463643,169.93777113267103L182.39481791895716,169.9469774485035L182.50093704000037,169.96249716471635L182.60705646909008,169.972605266691L182.71317667379535,169.99159683658704L182.81929702766294,169.99753071855412L182.92542216103237,170L183.0315434396867,170L183.13766518074104,170L183.24378738419537,170L184.9418050016423,170L185.04793506632697,170L185.15406559346482,170L185.26019658305586,170L185.36632803510017,169.99572059494915L185.47245994960207,169.99182655323122L185.57859232656165,169.9890530617349L185.57859271696285,169.98905306337565L185.68472516598774,169.98354614840008L185.79085846787592,169.97605952102842L185.89699262263176,169.9685448782364L186.00312684946627,169.95504880349094L186.00312698565273,169.9550487892286L186.10926153876727,169.95652107311855L186.21539682673455,169.97203940405004L186.32153244099518,169.9844088483641L186.4276685177356,169.9946152851443L186.53381655109737,169.99999999880254L186.63995355281074,170L186.74609101701282,170L186.85222894370796,170L194.38920381933062,170L194.49537505255643,170L194.60154674846598,170L194.70771890707255,170L194.81389152837176,169.99721189512434L194.92006461236352,169.99158386447866L195.0262381590568,169.98507188734865L195.13241216845597,169.97185088366163L195.2385866405566,169.96286535850354L195.34476157536315,169.96019513004777L195.4509371907828,169.95887717152485L195.45093728611332,169.95887717112842L195.55711305101445,169.97304236855652L195.66328959639873,169.97944426473245L195.76946638206437,169.96914863368386L195.87564409348758,169.96680647407067L195.98182180460046,169.9834870331375L196.087999978437,169.99410246479303L196.08800006468843,169.99410247022908L196.19417921422647,169.9934937935288L196.1941874489676,169.9934938700134L196.30035831352356,169.99201843724455L196.4065378755576,169.9930677811565L196.51271790032416,169.99554652971574L196.61891352268708,170L196.72509447294078,170L196.83127588594033,170L196.93745776168564,170L202.247134711906,170L202.35334019136673,170L202.45954613370628,170L202.56575253894678,170L202.67195940707052,169.9944389079331L202.7781667380952,169.99085949162952L202.88437453201644,169.98825703953605L202.99058278884308,169.9885868604988L203.0967915085662,169.99223547313485L203.20300069120364,169.99687364463105L203.3092171233716,170L203.41542723182422,170L203.52163780319557,170L203.6278488374856,170L207.66421118875934,170L207.77044027892217,170L207.87666983211452,170L207.98289984833193,170L208.08913032757889,169.98747296156762L208.1953612698554,169.94856669203267L208.30159267517027,169.9060586498717L208.40782454352353,169.86471443160323L208.51405687491962,169.85975838465123L208.5140569657106,169.85975838238548L208.62028966935853,169.89060323990174L208.72652292684472,169.93544923084823L208.83275676086686,169.97379685609408L208.93899118050848,169.99122295362557L209.04522582715416,169.99770373383097L209.12953067944846,170L209.23576625220198,169.99429710933936L209.34200228802487,169.99039651522182L209.3639334215608,169.98976774685605L209.44823878691278,169.99203792232203L209.57640688240159,169.99689647930006L209.74967926777308,170L209.85591715586924,170L209.9621555070437,170L210.06839432129644,170L220.499363527292,170L220.6056486630233,170L220.71193426210772,170L220.81822032454085,170L220.92450685033157,169.99840216212974L221.0307938394843,169.98942533848648L221.1370812919946,169.96959561572362L221.24336920786692,169.94894878154798L221.34965758711013,169.94700007212975L221.45594642971975,169.96025085453329L221.5622357357047,169.97644485787987L221.66852550506493,169.9879946346655L221.74861368545749,169.99383820083776L221.79676191086094,169.99608190960205L221.8425325769266,169.99823340550947L221.90306806867878,170L221.9488232730419,170L222.00935922817828,170L222.0551144325414,170L222.11565085106636,170L222.1614060554295,170L222.22194293734307,170L233.1725102371872,170L233.2788505305707,170L233.3851912876266,170L233.4915325083548,170L233.59787419275978,169.99457705734855L233.70421634084596,169.98691216197528L233.81055895261773,169.97961932364439L233.91690202806632,169.97841190317362L234.0232455672094,169.98459982624976L234.12958957003806,169.99429930807463L234.12959031452405,169.99429933453078L234.23593478105164,169.99338151482232L234.29000858111556,169.99120787226244L234.34227971126933,169.98724916716844L234.39635351133325,169.98363531185865L234.4486251051904,169.98014190020035L234.5026989052543,169.97913509142762L234.55497096280152,169.97816183097953L234.60904476286544,169.98023319407588L234.6613172841293,169.9822355616466L234.76766424165882,169.9896275975539L234.81838354228532,169.99365160944174L234.87401149039778,169.9956002890611L234.92473079102425,169.9969016839195L235.03107850347098,169.9996304353902L235.13742667963882,170L235.2581783720773,170L235.3645274756829,170L243.21628008868402,170L243.32266397896132,170L243.42904833316368,170L243.5354331512999,170L243.64181843336118,170L243.74820417935632,169.90014042085573L243.76089191282333,169.8784102814867" style="stroke: #ff7f0e;"></path></g><g class="filename"><path class="profile line" d="M3.1195540435883276,170L4.026353173740839,170L4.131688842587614,170L4.237024969272692,170L4.3423615538005045,170L4.44769859617992,170L4.553036096397635,170L4.658374054471386,170L4.763712470387871,170L4.8690513441648235,170L4.9743908119931355,170L5.079730674119368,170L5.185070921482158,170L5.290411835520216,170L5.395753407172182,170L5.501095028142973,170L5.606437106978665,170L5.711779643692557,170L5.817126941781154,170L5.92247039425588,170L6.02781430461324,170L6.1331586728576655,170L6.34384614554328,170L6.449191887466638,170L6.554538087285929,170L6.659884745010019,170L6.765231860630042,170L6.870579434159297,170L6.975927465597785,170L7.0812759549499384,170L7.1866249022113236,170L7.291976976645385,170L7.397326839742967,170L7.502677160758648,170L7.608027939701296,170L8.345495692348612,170L8.450850134777909,170L8.556205035156335,170L8.661560393488326,170L8.766916209769448,170L8.872272484008567,170L8.977629216205683,170L9.08298640636523,170L9.188344054491639,170L9.29370257821895,170L9.399061142274652,170L9.504420164306083,170L9.609779680629634,170L9.715139913678751,170L9.82050030964624,170L9.925861272538624,170L10.031223210924143,169.95096145166897L10.136584980840986,169.61830011082372L10.241947208746858,168.8709972567015L10.347309894650625,167.94596961053256L10.452673038547854,167.40765944789442L10.549928373377673,161.34233141672075L10.655292433275125,142.03180542119048L10.760656951174909,98.0330001640701L10.866021927081452,48.666146605586704L10.971387360994756,16.382066883602874L10.98022682223204,15.454545454545467L11.07675325292369,43.97449012438045L11.182119602868251,93.7610575743564L11.287486410824005,138.85206575447626L11.392853676804256,161.74151307246947L11.498221400804567,169.3616824096476L11.606472386850943,170L11.717068714327224,170L11.822437812409886,170L11.92780736853034,170L12.033177382684155,170L12.13854785487133,170L12.243918785100732,170L12.349290173376795,170L12.454662019699517,170L12.560034324073333,170L12.665407086493811,170L12.770780338742219,170L12.876154394060716,169.9340908997008L12.876154421298006,169.9340908826655L12.981528530652204,169.9594096728312L13.086903152545377,169.97859376085748L13.192278268814897,169.99999990686058L13.19227832782903,169.99999991884914L13.297654138223901,169.94312687420418L13.297654165461195,169.94312685950172L13.403030107081827,169.96017596892318L13.508406561250304,169.9976156915422L13.613783518887526,169.9999999904476L13.719160907365145,169.93429403409496L13.719161243291744,169.93429382463444L13.824538708529408,169.9625880053103L13.929916967775794,169.99278336154336L14.035296166300888,169.99999997886084L14.14067552330677,169.97978904899605L14.140675595939548,169.97978903506566L14.246055156817265,169.99473884342802L14.351435375534978,169.9999999732568L14.456816379195615,170L14.562197386996818,170L14.66757885290231,170L14.772960776912093,170L14.83716435858062,170L14.878343240738044,170L14.93523447529267,170L14.983726566696976,170L15.040617773633059,170L15.089109865037369,170L15.146001530091041,170L15.194493621495349,170L15.251385744662178,170L15.299877836066486,170L15.405262508759646,170L15.51064804813864,170L15.616033637080282,170L15.721419684148382,170L15.82680749220225,170L15.932194455540998,170L16.037581877010634,170L16.101788677321075,170L16.142969756620023,170L16.19986429156391,170L16.248358094378037,170L16.30525308746168,170L16.353746890275808,170L16.410642341508073,170L16.459136144322198,169.9981526288009L16.516032053698652,169.99560029491073L16.564525856512784,169.9892771350797L16.621422224046725,169.981493595456L16.669916026860854,169.97217131011672L16.726812852552285,169.96098314331428L16.775306655366414,169.95176674023912L16.8322039392109,169.9410444982141L16.88069774202503,169.93700397135305L16.93759548403144,169.93341872658434L16.986089291385117,169.93815394557777L17.042987487009466,169.9445101468558L17.091481911741752,169.95453011075145L17.148379948162713,169.9662554400488L17.196874372895,169.975143185346L17.25377286748232,169.98518699765168L17.302267292214605,169.9910944632444L17.35916624496828,169.99746763178217L17.407660669700565,169.99855016110243L17.51305450536618,169.99999902407274L17.618449103352336,170L17.723843855372824,170L17.829239065568537,170L17.934637339653666,170L18.040033593329344,170L18.14543017809062,170L18.25082722104485,170L19.304822724619793,170L19.410224807864978,170L19.515627349329712,170L19.621030349022867,170L19.726433806944442,169.99692303089748L19.83183772309887,169.9917479360317L19.937242097490586,169.97928232839473L20.042646930119584,169.96846834422902L20.148052220985868,169.96057377322137L20.14805234809323,169.96057376502247L20.253457970098307,169.9764821711249L20.358864304559823,169.98315916287478L20.46427125615169,169.99023752661262L20.569678380007016,169.99358998306627L20.675097351844798,169.99999901086844L20.780505392205725,170L20.88593016057272,170L20.991339117452547,170L30.374555669720728,170L30.4800058809986,170L30.58545655078862,170L30.690907679081914,170L30.796359265882916,169.99642431463437L30.901811311191622,169.9928976312965L31.007263815016906,169.99030450839535L31.11271677735433,169.99088276338207L31.218170198221628,169.99435223640432L31.32364401075897,170L31.429098348663842,170L31.5345531450986,170L31.64000840006323,170L45.66964067134936,170L45.77515739334919,170L45.88067457423355,170L45.9861922140113,170L46.09171031268688,169.9934718358288L46.197228870251415,169.99038256905388L46.302747886722635,169.98983128715022L46.408267362091685,169.9925862061971L46.513787296371866,169.99667681156862L46.619344042255044,170L46.724864894348606,170L46.83038620535329,170L46.93590797527797,170L49.046407060725755,170L49.151938468484495,170L49.257470335216425,170L49.36300266092597,170L49.468535445613135,169.99607274990822L49.57406868928236,169.99261032411192L49.679602391938076,169.99097431015431L49.78513655358028,169.99215745952318L49.8906711742134,169.9950077918407L49.99622778945601,170L50.10176332807097,170L50.20729932569016,170L50.31283578230914,170L69.21125860357019,170L69.31687772366239,170L69.4224973032376,170L69.52811734230025,170L69.63373784085032,169.99497111914286L69.73935879889225,169.99008286965207L69.84498021642165,169.98766114454415L69.95060209345176,169.99012425547372L70.0562244299826,169.99536800720463L70.16185871106771,170L70.26748196660003,170L70.37310568164195,170L70.47872985618902,170L79.669792014843,170L79.7754566366484,170L79.8811217182028,170L79.98678725950619,170L80.09245326055414,169.9933563059002L80.19811972136436,169.98981250139252L80.30378664193246,169.9882720468745L80.30378697331952,169.98827205151414L80.409454022254,169.9808670053154L80.51512186234666,169.97196036728423L80.62079049358424,169.97091619904347L80.72645925320593,169.98088124447025L80.83212847259435,169.9862196218081L80.93779815176279,169.99249056640065L81.04347101443153,169.99999998855498L81.14914161315114,170L81.25481267165078,170L81.36048418993931,170L82.41722466148391,170L82.52290123756991,170L82.6285782734714,170L82.73425576918838,170L82.83993372472528,169.99535322569844L82.94561214009099,169.98922566207776L83.05129101528102,169.9695704573061L83.15697035029986,169.96537065116183L83.2626501451519,169.97399085492793L83.36833039983716,169.9868032713058L83.47401111436011,169.99939551090927L83.5796925520145,169.99999997567102L83.68537455392504,170L83.79105664797866,170L83.89673920187879,170L84.00242221562546,170L84.10810960232283,170L84.21379353578027,170L84.31947792909752,170L84.4251627822746,170L84.6365316211538,170L84.74221785393249,170L84.8479045465843,170L84.9535916991048,170L85.05927931151173,170L85.16496738379178,170L85.2706559159538,170L85.3763449080111,170L85.48203435994597,170L85.58772472573098,170L85.69341509745198,170L85.79910592906825,170L85.90479722058869,170L86.01048897200442,170L86.11618341224708,170L86.22187608347109,170L86.32756921460815,170L86.43326280566264,170L86.6446509044767,170L86.75034587527911,170L86.8560413060034,170L86.96173719665401,170L87.06743354723093,170L87.17313035773861,170L87.27882762818149,170L87.38452535855951,170L87.49022354887717,170L87.59592219913445,170L87.70162176329063,170L87.80732133344046,170L87.91302136353873,170L88.0187218535855,170L88.1204196298991,169.91576143973222L88.12442314859975,169.91244523377458L88.22612103986056,169.9966837987883L88.33182290978382,170L88.43530593380078,170L88.54100872364761,169.5163530113438L88.64671197346951,168.16767340356543L88.75241568325762,167.20070117535482L88.85811985302081,165.43446028384645L88.96382448275465,156.21599371188884L89.06952957247243,127.15629776018432L89.17523512216975,83.60212123127448L89.28094113185544,38.090133734903304L89.38664760152508,33.44308916381766L89.4923545311831,76.08097873273209L89.5980619208295,120.71867352707838L89.70376977047758,154.03320427281182L89.80947808011847,167.1418721199266L89.91518684976103,169.9064624848615L90.02712183198287,170L90.13283152163767,170L90.23854167129416,170L90.34425228096119,170L90.44996335064764,170L90.55567488034461,170L90.66138687006102,170L90.76709931980126,170L90.87281222956535,170L90.97852559935329,170L91.08423942917395,170L91.18995416389865,170L91.29566891378916,170L91.40138412371238,170L91.50709979367275,170L91.61281600085145,170L91.71853289051406,169.9604651193893L91.71853297676547,169.9604650871335L91.82424994061688,169.97693743498584L91.92996753247762,169.97752264922275L92.03568592485937,169.99999999131188L92.14140435511797,170L92.2471232454359,170L92.35284259581755,170L92.45856258330535,169.98857940895013L92.45856277850595,169.9885793878632L92.56428285381452,169.99074597911283L92.67000377959687,170L92.77572512005192,170L92.88144677078333,170L92.98716929014674,169.99352199977406L93.09289186103224,169.9959832009837L93.19861489653877,169.99999994170471L93.3043389459606,170L93.41006289709938,170L93.51578730833297,170L93.62151217965689,170L93.72723751108003,170L93.83296415603309,170L93.93869040765463,169.99781887973916L94.04441711937983,169.98330809130923L94.15014429121754,169.9661470279356L94.25587192315889,169.9470254017058L94.36160001521276,169.93667240728087L94.37804945088425,169.93532293951733L94.46732856738356,169.95009615999055L94.5730575796713,169.97102845568102L94.67878705208042,169.98957207393866L94.78451703000198,169.99999760877256L94.78454502085863,170L94.89024820346063,169.99660275021094L94.99597905624718,169.9862820836677L95.10171036915955,169.97152184231416L95.207442142211,169.95461912922622L95.22228122724768,169.9523411482201L95.3131743753927,169.95237387723589L95.41890706871796,169.95823934962516L95.52464066705807,169.96893995899165L95.63037428066596,169.9792228499716L95.73610835442184,169.99456090150605L95.84184288832569,169.99842141475224L95.94757807304298,169.9999997835605L96.0533164053299,170L96.15905231970426,170L96.26478869423104,170L96.37052552892796,170L97.11069563464328,170L97.21643615073678,170L97.32217712701373,170L97.42791856348298,170L97.53366046014453,169.99602361312196L97.63940281700283,169.99251715596006L97.74514563405786,169.99054078319128L97.85088891130964,169.99165332939222L97.95663264876701,169.99467737692078L98.06237746834816,169.99999999245952L98.06237761815328,169.9999999933523L98.16812212621676,169.99530754600153L98.27386724429982,169.98675457217036L98.37961282259292,169.9776420658866L98.48535886110493,169.9699503296373L98.48535901091003,169.96995032022122L98.59110535983584,169.9824961740711L98.6968524685952,169.99002544503603L98.80259988777277,169.99486683534283L98.90835909334747,169.999999974221L99.0141074329806,170L99.11985676397312,170L99.22560602407508,170L108.42755320457881,170L108.53334297582528,170L108.63913320753889,170L108.74492389972411,170L108.85071505239422,169.99674902477932L108.95650666554037,169.9902700632245L109.06229873916698,169.9845141568767L109.16809127328733,169.98244318617756L109.16809141855289,169.9824431859313L109.2738842678926,169.98529363069764L109.37967786825274,169.98767398187258L109.37968260300194,169.987674122197L109.48547178384551,169.98609575539783L109.48547216970715,169.98609575371168L109.59126654579369,169.98835713767846L109.69706138238286,169.99146260894648L109.80285667947464,169.99575721873978L109.90865550580392,170L110.0144517239054,170L110.12024840251837,170L110.22604554164283,170L111.8130578918795,170L111.91886239957354,170L112.0246673678234,170L112.13047279663796,170L112.2362786860172,169.9955728567545L112.34208503596113,169.99306918609406L112.4478918464742,169.9918434329437L112.55369911755639,169.99295355777036L112.65950684921657,169.99591250455435L112.76532174636358,170L112.87113039917973,170L112.97693408781774,170L113.08274366179874,170L113.1885536963666,170L113.29436419153019,170L113.40017514728507,169.99633388357663L113.50598656363123,169.9935070300338L113.61179844057754,169.99174202869676L113.71761077812846,169.99208584331387L113.82342357627952,169.9942790249115L113.9292368350396,169.99711250258147L114.03505579758291,170L114.14086997756547,170L114.24668461815706,170L114.35249971936655,170L117.84465648302688,170L117.95048724680947,170L118.05631847130306,170L118.16215015650762,170L118.26798230243205,169.99753079135687L118.3738149090763,169.99437977803976L118.47964797644043,169.9827680313774L118.58548150452441,169.9666821662638L118.6913154933371,169.95777705397967L118.79714994288294,169.957484178423L118.79715008360894,169.95748417775073L118.90298499388794,169.9759405354676L119.00882046476573,169.99293016501886L119.11465629651545,169.9975730019859L119.2204944365946,169.99999999979173L119.32633119890747,170L119.43216841288324,170L119.53800608760548,170L119.74968281022792,170L119.8555218672161,170L119.96136138495959,170L120.06720136346284,170L120.17304180273027,169.9864309002559L120.27888270277073,169.9464815708899L120.38472406357097,169.89642482318553L120.49056588514867,169.8512066900356L120.50866421651833,169.8511644579044L120.59640816750387,169.8602493978234L120.7022509106321,169.91295774514398L120.80809411454226,169.96246164092315L120.91394886481201,169.9941494716453L121.01978656229404,170L121.12563114855881,170L121.2314761956188,170L121.33732170346956,170L124.19532460520364,170L124.30118301636222,170L124.40704188839136,170L124.51290122129552,170L124.6187610150747,169.99642726905324L124.72462126973332,169.99155082825416L124.83048198527139,169.988126738888L124.93634316169776,169.98889006729914L125.04220479901242,169.99286494616578L125.148066897211,169.9968884538007L125.25394626625521,170L125.35980928624369,170L125.4656727671338,170L125.57153670892107,170L130.22999609785805,170L130.3358807829442,170L130.44176592905606,170L130.54765153618482,170L130.65353760434817,169.99534126171363L130.75942413354613,169.9906777037801L130.8653111237787,169.98827568763232L130.97119857504146,169.989818251087L131.0770864873521,169.99375641490315L131.18297555071314,169.99628085229205L131.28886438510628,169.9847143071985L131.39475368054735,169.96794293738682L131.50064343703633,169.9539536556776L131.60653365458205,169.9563657277438L131.71242433318457,169.9695511304135L131.8183154728438,169.97696442598237L131.92420707355987,169.98200973568464L132.03009934870477,169.98574169248502L132.13599216209207,169.99199852163997L132.24188514600502,169.99513311507334L132.3477873023951,170L132.45368120846152,170L132.55957557560683,170L132.66547040382667,170L139.54962338298716,170L139.65554864840158,170L139.7614743750767,170L139.8674005630169,170L139.97332721221787,169.994125530315L140.0792543226839,169.9870798591698L140.1851818944284,169.98400820773074L140.29110992744248,169.97762113309759L140.3970384217305,169.96910717591567L140.50296760880954,169.96357143813228L140.60889702565447,169.94929327977218L140.60889727079007,169.94929325257567L140.7148271307641,169.9656917557243L140.82075747017473,169.97572811202934L140.92668834805383,169.98589510050658L141.03262008670055,169.98787033986983L141.03262355491566,169.98787047470574L141.13855180999076,169.98761567489933L141.24448399457717,169.9896938968319L141.35041664046418,169.9932356619948L141.45635043766316,169.99999967536144L141.4563555219576,169.99999979112437L141.5622840061558,169.99564798224534L141.6682180359579,169.9921841802015L141.77415252706498,169.99145712962454L141.88008747949044,169.99428155280916L141.98602289322977,169.9980711199642L142.0919759277767,170L142.1979122641571,170L142.3038490618603,170L142.40978632088624,170L143.6810550323552,170L143.7869982888652,170L143.89294200674223,170L143.9988861859864,170L144.10483082659763,169.99513221540016L144.21077592858487,169.99113762971237L144.31672149193918,169.9886615597244L144.42266751667384,169.989669038815L144.52861400278894,169.99349320681L144.63456095028442,169.99744354915498L144.7405107333575,170L144.84645860362704,170L144.9524069352859,170L145.0583557283384,170L145.80001013086655,170L145.90596261516168,170L146.01191556087264,170L146.11786896800834,170L146.2238228365688,169.9931456651942L146.3297771665495,169.97819522044975L146.43573195795938,169.9518927183993L146.54168721079841,169.9336716331265L146.54168731974755,169.93367162064706L146.647642925071,169.937844499043L146.7535991007861,169.96721029162765L146.85955580602356,169.98654487775917L146.96551934623855,169.99999959414228L147.07147690627212,170L147.17743492775259,170L147.28339631145593,170L151.9460235353033,170L152.05200278623107,170L152.15798249873424,170L152.26396267281288,170L152.36994330847585,169.99488757274534L152.47592440570983,169.99181121497566L152.58190596453255,169.99053543221075L152.6878879849396,169.99160168738194L152.79387046693537,169.99428873094334L152.89985898055048,170L153.00584238573705,170L153.1118262525124,170L153.2178105808898,170L154.70163697839274,170L154.80762823108898,170L154.9136199454272,170L155.01961212140296,170L155.12560475903393,169.990410078604L155.2315978583157,169.984631463684L155.3375914192483,169.98278883890478L155.44358544183615,169.9900430187935L155.5495799260837,169.99927253086966L155.65557562101642,169.99999999965726L155.76157102858772,169.98596255127708L155.8675668978276,169.96860765994276L155.97356322873603,169.95219548658508L156.07956002131297,169.94807859765194L156.079560071248,169.9480785958466L156.1855572755718,169.96141240269702L156.29155499150357,169.97687660911353L156.39755321905224,169.9945003470081L156.5035529796118,169.99999999767152L156.60955208059355,170L156.7155516432616,170L156.82155166762033,169.99757207258028L156.9275521536698,169.9848495704621L157.03355310142325,169.97447057687523L157.13955451087185,169.970507370757L157.1395545608069,169.97050737052157L157.24555638201562,169.97614685472408L157.35155871487228,169.9865874587045L157.45488245169693,169.9923213466464L157.45756225391443,169.99237775493566L157.560885707966,169.98573941153938L157.66688942594354,169.97175147540906L157.77289360564285,169.95387769682833L157.77557341239992,169.9534240251343L157.88157804927692,169.96130275070212L157.98758315240642,169.97690176215602L158.0935887172665,169.99327048585633L158.20776211810173,169.9999970341816L158.31376860641416,170L158.4197755564572,170L158.52578296823086,170L166.360765762414,170L166.46680781185225,170L166.5728503232295,170L166.6788932965457,170L166.7849367318053,169.9977715861065L166.89098062901272,169.7559103288831L166.99702498816356,169.37762969733404L167.1030698092711,168.81797027966724L167.2091150923309,166.79176181084074L167.31516083734297,160.69690706178497L167.4212070443162,150.90640120501493L167.52725371325494,140.3031660204106L167.63330084415043,137.9091437413877L167.7393484370159,147.0928271501534L167.84539649185137,157.47541080972616L167.9514450086613,165.77234716475868L168.05749398744564,169.29974937105146L168.16354342820887,169.9767914625971L168.2722852265215,170L168.37833559124687,170L168.48438641796,170L168.5904377066564,170L168.69648945734937,170L168.80254167003014,170L168.90859434471193,170L169.01464748139028,170L169.1207010800697,170L169.226755140759,170L169.33280966345376,170L169.4388650975693,170L169.54492054428832,170L169.65097645301722,170L169.75703282376486,170L169.86308975186626,170L169.969147477913,170L170.0752052347347,170L170.1812634535796,170L170.287322134461,170L170.3933818720553,170L170.49944147700523,170L170.60550154399616,170L170.71156207302352,170L170.8176230641007,169.99861448595635L170.92368478960057,169.9909946841422L171.02974670477292,169.9820466617579L171.1358090819995,169.96590138906868L171.24187229352327,169.95674393067804L171.24187249780294,169.95674392861045L171.34793559486272,169.9567722560683L171.4539993582653,169.972984734186L171.56006367452193,169.99316693999756L171.66612847553938,169.99735764448434L171.77219409725316,169.9999996718497L171.87825970892584,170L171.98432578267492,170L172.09039231849593,170L172.19649948686336,170L172.3025669468505,170L172.4086348689229,170L172.5147032530761,170L180.6833266568522,170L180.7894310921232,170L180.89553598970113,170L181.0016413495771,170L181.1077471717556,169.99258077735612L181.2138534562454,169.9885540584056L181.31996020304658,169.9875306461587L181.42606741216355,169.98970509590197L181.53217508358745,169.99312967852688L181.63831397731727,170L181.74442257338603,170L181.85053163177943,170L181.95664115250193,170L183.44219526990622,170L183.54831172584875,170L183.65442864416022,170L183.76054602484513,170L183.86666386790344,169.99520160830872L183.97278217334403,169.98850831303818L184.0789009411625,169.98171603381297L184.18502017136322,169.97777919261296L184.18502032570788,169.97777919140213L184.29113986394626,169.97939626238485L184.39726001892927,169.98489158546542L184.50338079063482,169.99174894268538L184.60950187040018,169.99448115961306L184.71562341255668,169.997117822974L184.82174883993284,170L184.9393944286457,170L185.04551782041557,170L186.2013763341056,170L186.30750481253276,170L186.4136337533998,170L186.5197631567068,170L186.62589302246255,169.99737728050377L186.7320233506671,169.99377241950285L186.83815414131598,169.99097770692322L186.94428539442254,169.99110679440895L187.0504171099823,169.99394594776322L187.15654928800413,169.9971031518414L187.15654993262004,169.99710316943424L187.2626825730995,169.99535491334515L187.26269270083242,169.99535496680372L187.36881567604107,169.99301883904843L187.47494924145357,169.99190877582564L187.58108326933262,169.9925677250363L187.6872177596826,169.994816985834L187.79337685382737,170L187.89951226913698,170L188.00564814691754,170L188.11178448717789,170L196.0848758267385,170L196.17948576207604,170L196.28565772157197,170L196.39183014375166,170L196.4980030286328,170L196.6041763762066,169.9945053357064L196.7103501864774,169.9772669107033L196.81652445945855,169.95652163969683L196.92269919514115,169.93821471212075L196.93426445819657,169.9374238295964L197.0288743935341,169.94256098983809L197.1350500546374,169.961227741124L197.24122617845543,169.9747375136483L197.3474030782127,169.98442021158678L197.45358012746473,169.99104704036756L197.55975763944036,169.99570561865437L197.66593703955792,170L197.77211547698087,170L197.87829437714075,170L197.9844737400287,170L198.09065356564915,170L198.19683385401098,170L198.30301460511416,169.99816115637216L198.4091958189587,169.99325667105327L198.51537749554907,169.9884773051181L198.62155963488522,169.98742785496907L198.72774223697604,169.99082523563544L198.83392530182152,169.99555131379586L198.94013507709613,170L199.0463190674554,170L199.1525035205782,170L199.25868843646012,170L202.33823089891177,170L202.44442969898978,170L202.55062896191998,170L202.65682868769792,170L202.76302887633696,169.9977570253638L202.86922952782373,169.99432170826464L202.97543064217157,169.98781933044643L203.08163221938494,169.9824967270462L203.18783425945932,169.9840359698812L203.29403676239923,169.99233500187458L203.4002397282091,169.995916926771L203.50644994351845,170L203.61265383507703,170L203.71885818951438,170L203.82506300683053,170L208.7109849555547,170L208.81721153128635,170L208.9234385700254,170L209.02966607177623,170L209.13589403654328,169.99482960564333L209.242122464331,169.98686566465392L209.34835135513492,169.98012324792037L209.45458070896393,169.97852209515108L209.56081052581362,169.98602953879964L209.6670408056973,169.99628651698083L209.6670415274855,169.99628654160506L209.77327227039868,169.99067859135778L209.87950347635024,169.97830289476602L209.98573514533132,169.963554284935L210.09196727735522,169.9475462469602L210.19819987242195,169.95647472131955L210.30443293052707,169.97239362189478L210.41066645168385,169.9931663308633L210.5169013256439,169.99999920069297L210.62313577290405,170L210.72937068321596,169.99151728836975L210.83560605658838,169.98754017165697L210.94184189302138,169.98652160301427L211.04807819251937,169.98969835370073L211.15431495508233,169.9949566080092L211.260578310352,170L211.3668159990538,170L211.47305415082948,170L211.57929276568345,170L221.78034246380656,170L221.88662600990673,170L221.99291001934677,170L222.0991944921355,170L222.20547942826408,169.99451883594062L222.31176482774578,169.9919326567367L222.41805069057622,169.99058915506282L222.5243370167598,169.99181140406532L222.63062380630095,169.99483521245105L222.63062443275865,169.9948352415426L222.7369116311872,169.99471906294775L222.84319934745238,169.9879931168704L222.94948752707958,169.96436690521656L223.05577617007322,169.9506556922539L223.05577629718056,169.95065567974967L223.1620652764377,169.95714398888109L223.2683549006521,169.9695725214524L223.3326393711939,169.97958078753865L223.37464500640002,169.9853257037695L223.438929404309,169.99226065450023L223.4809363744882,169.9967920844069L223.5345526062115,169.99983482828617L223.5872273343628,170L223.6408435660861,169.9980285678794L223.69351875762158,169.99609173716192L223.7471349893449,169.99438510895317L223.79981064426454,169.99270841971773L223.85342687598785,169.99205301689614L223.9061029942961,169.99140910598595L224.01239580772517,169.99331986378905L224.11868908454727,169.99667126144502L224.2672345235449,170L224.37352872716193,170L224.47982339418087,170L224.58611852460618,170L234.6440299303671,170L234.7503695602451,170L234.856709653791,170L234.96305021100918,170L235.06939123189974,169.99655335056963L235.17573271646262,169.9847126135667L235.2820746646978,169.97863996013126L235.2820747282515,169.97863995861232L235.38841707661865,169.97923589783142L235.4947599522251,169.98540885464365L235.60110335506644,169.99254103767723L235.66219333164025,169.99609332555568L235.76853713461801,169.9994608315932L235.8748814012858,170L235.98122613164807,170L236.10459793774788,170L244.8019694569622,170L244.8969886142793,170L245.00337276845335,170L245.10975738655245,170L245.2161424685854,170L245.3206689346197,169.95156987112654" style="stroke: #2ca02c;"></path></g></g></svg>
