<svg width="300" height="220"><g transform="translate(40,10)"><g class="x axis" transform="translate(0,170)"><g class="tick" transform="translate(69.52741517536299,0)" style="opacity: 1;"><line y2="6" x2="0"></line><text y="9" x="0" dy=".71em" style="text-anchor: middle;">467</text></g><g class="tick" transform="translate(147.51626626503125,0)" style="opacity: 1;"><line y2="6" x2="0"></line><text y="9" x="0" dy=".71em" style="text-anchor: middle;">468</text></g><g class="tick" transform="translate(225.50511735469956,0)" style="opacity: 1;"><line y2="6" x2="0"></line><text y="9" x="0" dy=".71em" style="text-anchor: middle;">469</text></g><path class="domain" d="M0,-170V0H250V-170"></path><text y="20" x="125" dy=".71em" style="text-anchor: middle;">m/z</text></g><g class="y axis" transform="translate(0,0)"><g class="tick" transform="translate(0,170)" style="opacity: 1;"><line x2="-6" y2="0"></line><text x="-9" y="0" dy=".32em" style="text-anchor: end;">0.0</text></g><g class="tick" transform="translate(0,139.0909090909091)" style="opacity: 1;"><line x2="-6" y2="0"></line><text x="-9" y="0" dy=".32em" style="text-anchor: end;">0.2</text></g><g class="tick" transform="translate(0,108.18181818181819)" style="opacity: 1;"><line x2="-6" y2="0"></line><text x="-9" y="0" dy=".32em" style="text-anchor: end;">0.4</text></g><g class="tick" transform="translate(0,77.27272727272728)" style="opacity: 1;"><line x2="-6" y2="0"></line><text x="-9" y="0" dy=".32em" style="text-anchor: end;">0.6</text></g><g class="tick" transform="translate(0,46.36363636363636)" style="opacity: 1;"><line x2="-6" y2="0"></line><text x="-9" y="0" dy=".32em" style="text-anchor: end;">0.8</text></g><g class="tick" transform="translate(0,15.454545454545467)" style="opacity: 1;"><line x2="-6" y2="0"></line><text x="-9" y="0" dy=".32em" style="text-anchor: end;">1.0</text></g><path class="domain" d="M250,0H0V170H250"></path><text transform="rotate(-90)" x="-85" y="-30" style="text-anchor: middle;">Normalized Intensity</text></g><g class="filename"><path class="profile line" d="M0,170L0.06412845906379311,170L0.1694604652928167,170L0.2747937963917589,170L0.38012671826192096,170L0.4854600979526524,170L0.5907939354728193,170L0.6961282308179888,170L0.8014629839970271,170L0.9067981950055007,170L1.012134680971024,170L1.117470807656102,170L1.2228073921839144,170L1.3281444345633284,170L1.4334819347810441,169.99951964176282L1.5388198928547945,169.992258955559L1.6441583087712799,169.98289233436003L1.7494974004465658,169.97334852259533L1.8548367320884196,169.9706148406455L1.8622066029878919,169.97045944842736L1.9601767213220131,169.97766671503746L2.0655169686848023,169.98665271322633L2.1708579598951876,169.9955375247475L2.2761991229877783,169.999999824483L2.381540743958569,170L2.486882904506136,170L2.59222572721159,170L2.6975687218081155,170L2.8029126917913816,170L2.908256602148741,170L3.013600970393167,170L3.118945796529092,170L3.224293418424046,170L3.3296391603474045,170L3.4349853601666953,170L3.5403320178907856,170L4.488472543327486,170L4.593823780197098,170L4.699175474998107,170L4.804527627721647,170L4.90988023839432,170L5.015233306993957,170L5.120586833538291,170L5.22594081802289,170L5.331295260452187,170L5.436650542152696,170L5.542005900484687,170L5.6473617167658094,170L5.752718426801594,170L5.85807515899871,170L5.963432349158255,170L6.068789997284665,170L6.1741485210119755,170L6.279507085067679,170L6.382528384836048,170L6.48788786484321,170L6.593247802821669,170L6.698608198789156,169.85840638161642L6.700946397704822,169.85519277323456L6.803969052732374,169.99678639563507L6.80630725164804,169.99889566574956L6.907706645298559,169.89807713588706L7.013068415215401,169.01678728341412L7.118430643121273,167.73240296631445L7.223793329025039,167.0089669017253L7.329156472922268,165.87546707611446L7.434520074817393,157.2214428470308L7.539884134714846,129.41482124341766L7.645248652614628,81.49457351373151L7.750613628521171,31.233303953915765L7.855979062434475,15.461483557335356L7.856072711052304,15.454545454545467L7.961344954363408,55.56618931693927L8.06671130430797,106.47214939622488L8.172078112263726,146.9243921250369L8.277445378243975,164.87181531494434L8.382813102244286,169.75897855154855L8.488181284269093,170L8.597514638962057,170L8.702883737044719,170L8.808253293165173,170L8.913623307318987,170L9.018993779506163,170L9.124364709735564,170L9.229736098011626,170L9.33510794433435,170L9.440480248708166,170L9.545853011128644,170L9.651226313312087,170L9.756600350472388,170L9.861974487063875,170L9.967349113496597,170L10.07272425700341,170L10.178100022002798,170L10.283475990860724,170L10.38885250404333,170L10.494229448061906,170L10.59960714976838,169.94262986687224L10.599607199703415,169.9426298419856L10.704984950932642,169.97080774329305L10.810363255574515,169.99805034089405L10.915742077317075,169.9999999839586L11.021121561430316,170L11.126501194940813,170L11.231881327407102,170L11.337261990601593,170L11.442642998402796,170L11.548024464308288,170L11.653406388318073,170L11.758789174451975,170L11.864172364224448,170L11.96955566256484,170L12.07493941902282,170L12.180324033074234,170L12.285708705767394,170L12.391093836587014,170L12.496479425528657,170L12.601865626941407,170L12.707252186619414,170L12.812639149958157,170L12.918026821102966,170L13.023415349867808,170L13.069386014826112,170L13.128803687625823,170L13.174774352584125,170L13.234192483523591,170L13.280163148481897,170L13.339581737569986,169.99911039065955L13.385552402528289,169.99811182365508L13.444971449760567,169.9939218740035L13.49094211471887,169.98661847685636L13.550361797151036,169.97536639264248L13.596332285066943,169.9630912174878L13.655752566382601,169.94685206530474L13.701722913572501,169.92636034916384L13.761143653041216,169.90112077037338L13.807114000231119,169.8870715467556L13.866535656356163,169.87718677060266L13.872732335035655,169.87649843003985L13.912505545051657,169.87727614821077L13.97192765933419,169.88116418917178L14.017897548029683,169.89606200509573L14.077320120487439,169.91496433722958L14.123290009182933,169.93101746034318L14.182713039807043,169.9477688932969L14.228682928502536,169.96175355011746L14.288106417293003,169.97695332564797L14.393500398224171,169.99251583504054L14.498894855484322,169.99557540070367L14.604289607504812,169.99843000339663L14.70968557126559,169.99999998052516L14.815081239649821,170L14.920477366218142,170L15.025873950979417,170L15.131270993933644,170L15.236668495080828,170L15.342067657405776,170L15.447466074952166,170L15.552864950695943,170L15.65826428465484,170L15.763664076815557,169.9983548110713L15.869064327186964,169.99405846913947L15.974465035773488,169.9853081533636L16.079866202575133,169.97097445994427L16.185267827596327,169.9677771775833L16.185268009178273,169.96777717069568L16.290669910841512,169.968817343973L16.29067001525113,169.96881734383936L16.39607245230625,169.97700132730876L16.50147563358135,169.98694323344506L16.606879091502925,169.99170380024725L16.712283320886204,169.989358892466L16.817687695277918,169.9776249121525L16.923092959164034,169.96793489672334L16.92309300001997,169.96793489544598L17.028498250030317,169.96875287841286L17.133903999142756,169.98512238205024L17.23931020649691,169.9920762521491L17.344724925256433,169.99999818483477L17.450132049111758,170L17.555539631222103,170L17.66094767158303,170L23.880833261789544,170L23.98626880237237,170L24.091704801378672,170L24.197141258804017,170L24.302578174652847,169.99745146940225L24.408015548929583,169.99558197292305L24.513453381629798,169.99514230492977L24.61889167276679,169.9966607155526L24.724330422336127,169.99868190552763L24.82980436696369,170L24.935244033411017,170L25.04068415829512,170L25.146124741624863,170L45.82132196394227,170L45.92685291272781,170L46.03238432048655,170L46.13791618721847,170L46.24344851292802,169.99737620623588L46.3489812976152,169.99567696674436L46.45451454128442,169.9946639565919L46.56004824394013,169.99517957131033L46.665582405582335,169.9970858234291L46.77113467144087,170L46.87666975106492,170L46.982205289679875,170L47.08774128729907,170L56.376700411682485,170L56.48227727077165,170L56.587854589099976,170L56.69343236666749,170L56.79901060347862,169.99765551584704L56.90458929953779,169.9957007141999L57.010168454845,169.99515818588893L57.115748069400254,169.9965285750378L57.221328143208,169.9985023272316L57.326929512805144,170L57.4325105051267,170L57.53809195671404,170L57.64367386756272,170L62.289718180286656,170L62.39532076077736,170L62.50092380066241,170L62.606527299928494,170L62.71213125858892,169.9959344538685L62.81773567664811,169.99161481666962L62.92334055410165,169.9888673661542L62.923340608576225,169.98886736580613L63.02894589095839,169.98960185178979L63.134551687209466,169.99282869067383L63.2401579973472,169.9967548097741L63.34577932976891,170L63.45138650424734,170L63.55699413814225,170L63.66260223144926,170L74.12007596156016,170L74.22573000992789,170L74.33138451798696,170L74.43703948572853,170L74.5426949131659,169.99659354026082L74.6483508002902,169.99465854468002L74.75400714711472,169.9940210216908L74.85966395363947,169.99521737556853L74.96532121986444,169.9974644684455L75.07098079792546,170L75.17663898355976,170L75.28229762890314,170L75.3879567339556,170L75.8105977513451,170L75.91625915500067,170L76.02192101838307,170L76.12758334149672,170L76.23324612434607,169.99615450343805L76.33890936692667,169.98934823150708L76.44457306924738,169.98350807245592L76.55023723130824,169.98145362954256L76.55023744012749,169.98145363058097L76.65590185311365,169.9794143816018L76.65590206193289,169.9794143778193L76.7615669482867,169.98611480963714L76.86723268479068,169.99174655547515L76.86723616208491,169.99174665320643L76.9728990399234,169.99149384012415L76.97289942578504,169.99149384852115L77.07856550073365,169.9897318289776L77.07856588659529,169.989731830919L77.18423242130174,169.98672681104077L77.28989998774476,169.98564956579352L77.28990317450787,169.985649622235L77.39556782783744,169.98463188228823L77.39556802757758,169.98463188160278L77.50123632742812,169.99019941518645L77.6069050870498,169.99222208408764L77.71257467868121,169.9882262609081L77.81824435784964,169.9938287808464L77.92391449678922,169.99897702275751L78.02958804167588,169.99999999907715L78.13525919550604,170L78.24093071379457,170L78.34660269186311,170L79.29767050894642,170L79.40334708503242,170L79.50902412093392,170L79.61470161665089,170L79.7203795721878,169.99787074660503L79.82605798755348,169.98572972731495L79.93173686274353,169.97634946834742L80.03741619776237,169.9752733147523L80.1430959926144,169.97524850499985L80.14309630584326,169.97524849353638L80.24877649697486,169.9772897014357L80.35445721149779,169.98411350200462L80.46013838585836,169.99179113742412L80.56582008361913,169.99814095999952L80.671502386492,169.99999992941127L80.77718499940627,170L80.88287196709976,170L80.98855544070624,170L81.09423983719763,170L81.19992432130584,170L81.41129164577126,170L81.51697741868128,170L81.62266365145997,170L81.72835034411179,170L81.83403749663229,170L81.9397251090392,170L82.04541318131925,170L82.15110171348127,170L82.25679070553858,170L82.36248304462634,170L82.46817295645648,170L82.5738633281775,170L82.67955415979378,170L83.5250967700974,170L83.63079174089981,170L83.7364871716241,170L83.84218306227471,170L83.94787941285165,170L84.05357622335933,170L84.15927349380217,170L84.26497122418023,170L84.37066941449788,170L84.47636852778912,170L84.58206763799043,170L84.68776720814024,170L84.79346723823853,170L84.89916781907628,170L85.0048690641555,169.95519226184902L85.00486910501142,169.95519224452931L85.11057047411697,169.99999998268027L85.21352832990775,170L85.31635913881925,169.99821600750917L85.42206192866607,169.69162945962893L85.52776517848797,168.57891593340355L85.63346888827608,167.8077374184781L85.73917305803928,164.09367058800663L85.84487768777313,150.76972565854527L85.95058277749092,117.7854348658918L86.05628832718823,78.72238833980823L86.1619943368739,48.710414588718166L86.16887045469089,47.34200318098327L86.26770080654354,65.55017933297945L86.37340773620157,104.59512180832608L86.47911512584797,141.7076478411838L86.58482297549604,162.14809408196413L86.69053128513694,169.18211655347423L86.79624005477952,169.9942461258012L86.90756774299905,170L87.01327743265385,170L87.11898758231035,170L87.22469819197737,170L87.33040926166382,170L87.4361207913608,170L87.5418327810772,170L87.64754523081744,170L87.75325814058155,170L87.85897151036947,170L87.96468534019014,170L88.07040006583573,170L88.17611481572624,170L88.28183002564946,170L88.38754572738668,170L88.49326222055696,169.98973146253542L88.59897881060934,169.99488918536142L88.7046959560427,169.99999993569878L88.81041346619155,170L88.89167512447645,170L88.99739355473504,170L89.10311244505297,170L89.20883179543463,170L89.33900842622832,170L89.44472869673747,170L89.55044942731924,170L89.65617061796918,170L89.76189267725997,170L89.867614788064,170L89.97333777204842,170L90.07906085748999,170L90.18478434854732,170L90.29050869008731,170L90.37177501443855,170L90.47749988576248,170L90.58322521718561,170L90.68895100870353,170L90.79467726032509,169.99917372015963L90.90040397205028,169.9868286585591L91.00613114388798,169.9708102891342L91.11185877582933,169.95251749493536L91.2175868678832,169.9461603010527L91.323315420054,169.96627463378277L91.42904443234174,169.9834459151383L91.53477390475088,169.99775078518354L91.5973184123617,169.99931279383486L91.66496301365093,169.99871847704077L91.77069458658987,169.99413947115178L91.87642543937642,169.9852285762273L91.98215675228879,169.96917184819574L92.08788852534023,169.94508436271624L92.19362075852194,169.92804482773192L92.2993534518472,169.91850190636896L92.40508660531155,169.9259747517449L92.51082021891945,169.94281280668937L92.61655429267532,169.98151364471218L92.72228884019782,169.9928354787698L92.82802402037555,169.99891819917727L92.93376167173018,169.9999999140467L93.03949758610455,170L93.14523396063132,170L93.2509791980327,170L93.88540146705165,170L93.99114152296171,170L94.09688203905523,170L94.20262301533216,170L94.30836445180142,169.9962418176921L94.41410634846298,169.98995524020646L94.51984870532128,169.9837776110823L94.6255915223763,169.98310279886059L94.62559191731704,169.98310282197784L94.73133479962809,169.98293059608142L94.73133516733152,169.98293059356885L94.83707853708546,169.98394385625343L94.8370789047889,169.9839438555396L94.94282273474845,169.9841384228855L94.94282353824855,169.984138406765L95.04856776032048,169.98469319050076L95.04856816887985,169.98469320206976L95.15431287840353,169.98023468527444L95.15431331420021,169.98023467317492L95.25576833586496,169.9807051016859L95.36151437437695,169.9797501212873L95.36580490376802,169.97971325810408L95.46726087310786,169.98534593516516L95.57300783206212,169.9946707361907L95.68304580786807,169.99913480879877L95.78880428711497,170L95.89455262674811,170L96.00030142661343,170L101.535956757331,170L101.60134532553421,170L101.64173041371191,170L101.70711898191513,170L101.7475045304669,170L101.8128930986701,170L101.85327910760924,170L101.91866767581246,169.99863603103395L101.95905414513008,169.9969417498182L102.0244427133333,169.99125753904735L102.06482964304273,169.9867375353105L102.13021821124593,169.97888004507706L102.1706056013383,169.96991397926524L102.23599416954151,169.95565547150397L102.27638202003455,169.94669270921597L102.34177058823775,169.9362571322392L102.38215889911814,169.93212785221576L102.44754746732134,169.92940114810204L102.48793623860685,169.9341469786546L102.55332480681005,169.94255839939942L102.59371403849177,169.95116727657722L102.65910260669499,169.965474191498L102.69949229878624,169.9745804816405L102.76488086698944,169.98769925294488L102.80527101947692,169.9925357363258L102.85632156869494,169.99666752890968L102.96210074980402,169.99956820412436L103.06788039131821,170L103.17366049324636,170L103.29808021289426,170L104.56748287452122,170L104.67326942252859,170L104.77905643098983,170L104.88484389990047,170L104.9906318292783,169.99506313020711L105.09642021911884,169.98668520601717L105.20220906942211,169.982070272947L105.2022091148176,169.98207027221454L105.30799838018811,169.9822251432069L105.41378815143459,169.98416463330386L105.51957838314821,169.98734794344475L105.62536951566965,169.9926246800746L105.73116066833975,169.99397766012524L105.73116108143869,169.99397766945347L105.8369522814859,169.9909093086638L105.85261808653098,169.99345950512063L105.94274476821143,169.9872271798817L106.04853730233178,169.9840537967538L106.04853731595043,169.9840537965909L106.15433029693705,169.9851339224459L106.26012375203163,169.98909788456055L106.31303543097458,169.9928827089759L106.36591787644365,169.9946613979155L106.4188298070611,169.99584485548584L106.47171225253018,169.99702754982687L106.52462464365027,169.99851402688876L106.57751122464813,169.9999997788624L106.63041994074207,170L106.68330652173992,170L106.78911015091161,170L106.8949063690131,170L109.43414589108681,170L109.53995362274699,170L109.64576181498072,170L109.75157046779688,170L109.85737958119546,169.99618161167226L109.96318915517645,169.99449959054996L110.06899918974432,169.9935163056362L110.17480968490791,169.99386138371628L110.28062064066279,169.99557978085022L110.38643205700895,169.99774914997764L110.49224970372153,170L110.59806204127244,170L110.7038748394235,170L110.80968809818359,170L114.619271950241,170L114.6722101522281,170L114.72510225331706,170L114.77804091601071,170L114.83093301709965,170L114.88387214050428,170L114.93676424159322,170L114.98970382570886,169.99763335727954L115.0425959267978,169.99384192625647L115.09553597163327,169.9844242040387L115.14842807272223,169.96856406442095L115.20136857827755,169.9429461523271L115.2542606793665,169.9140768419073L115.30720164564167,169.88555395029138L115.36009374673061,169.85671392391436L115.41303517372565,169.83445807295837L115.46592727481459,169.8210399701185L115.46592752448977,169.82103992417515L115.51886916253834,169.8262820623538L115.5717614996838,169.84220983526032L115.62470361208418,169.86756239855978L115.67759594922964,169.8955329084199L115.73053852236318,169.9239371595795L115.78343085950864,169.9507384710185L115.83637389337089,169.9692617918373L115.88926623051634,169.98443654315608L115.9422097251206,169.99417280331573L115.99510401427197,169.9996315045238L116.10094029767576,169.9999328956401L116.20677705090952,170L116.3126142648853,170L116.41845193960752,170L116.52429007508508,170L116.63012867130908,170L116.73596772829725,170L116.84180724604074,170L116.94764722454399,169.99419094987556L117.05348766381142,169.96389176621534L117.15932856385189,169.9250121413021L117.26516992465213,169.88389799671648L117.37101174622983,169.85282601633816L117.37101182340214,169.85282600471024L117.47685402858501,169.88166713151773L117.58269677171326,169.93366817070572L117.68853997562341,169.97481241595023L117.79438378558105,169.9966161311569L117.90023173790335,169.99999994831236L118.00607632416812,170L118.1119213712281,170L118.21776764172304,170L120.3347738068752,170L120.44062899201066,170L120.54648463799897,170L120.65234074484012,170L120.75819731254298,169.99815672741306L120.8640543411031,169.99301836926733L120.96991183052495,169.9880800875403L121.07576978081296,169.98553595753032L121.07576992153895,169.98553595650782L121.18162819197153,169.9860110263883L121.28748706400069,169.99045202360531L121.28748782664483,169.99045204850142L121.39334653763085,169.98853313824415L121.49920683076036,169.97629894752217L121.605067085419,169.96351553668143L121.71092780095705,169.9600786943118L121.7109278145757,169.96007869418966L121.81678897738342,169.96838431642146L121.9226506146981,169.97745415237404L122.02851283546448,169.984269495633L122.02851314415379,169.9842694906429L122.13437570324953,169.9873903967365L122.24023872323801,169.99747373597867L122.24023930883979,169.99747375265068L122.34610278972988,169.9957075334083L122.45196673151716,169.99307882228888L122.55783113420604,169.9918177074274L122.66369599780539,169.99282614262046L122.7695613223108,169.9953397737279L122.85277832603181,170L122.9586445723626,170L123.06451127961273,170L123.17037844778223,170L126.79279040197083,170L126.89867370399749,170L127.00455746704544,170L127.11044169110583,170L127.21632637619199,169.99744936788025L127.32221152230386,169.99555005104114L127.42809712943259,169.994780757453L127.53398319759596,169.99573868499164L127.63986972679392,169.99762239852276L127.72310274662757,169.9994913113995L127.74575746151245,170L127.82899019789029,169.99828321580821L127.93487811020093,169.99363464965242L128.0407664835506,169.98920662007941L128.14665531794378,169.97903115562698L128.25254461338483,169.95226064879557L128.3584343698738,169.91623265695563L128.46432458741953,169.88171970794534L128.50055615247825,169.876401467069L128.57021526602202,169.88163293323498L128.6761064056813,169.91722665126042L128.78199800639734,169.95605469815388L128.88789006818345,169.98751667223615L129.01644492328708,169.99999989268122L129.12233790720003,170L129.22823135219636,170L129.33412525826276,170L134.62940849079263,170L134.73532591520967,170L134.84124380084307,170L134.9471621476884,170L135.05308095575896,169.99548094218918L135.15900022504587,169.99293353476452L135.26491995556248,169.99227444182443L135.37084014729987,169.993601333153L135.47676080027134,169.99575192198077L135.5827014481501,170L135.68862302358977,170L135.79454506026798,170L135.90046755818472,170L136.32414455339887,170L136.43006935755702,170L136.53599462297146,170L136.64192034964657,170L136.74784653758678,169.99808567257517L136.85377318678775,169.9943870913316L136.9597002972538,169.98763999193295L137.0656278689983,169.98093438297633L137.17155590201233,169.97392710638482L137.2774843963004,169.96697951349205L137.3834134426534,169.96653459494917L137.48934295936837,169.96537088090915L137.4893432589786,169.9653708759718L137.59527298276615,169.96578033256768L137.7012034765214,169.9697247461143L137.80713427722822,169.97465422136003L137.91306553922232,169.9827811732019L138.01899758028097,169.98849744830713L138.12492976486737,169.99058799956103L138.12493041402283,169.9905880137389L138.23086291918383,169.98839196706442L138.2308683439444,169.9883920508369L138.33679602637142,169.98626189533272L138.3367961670974,169.9862618950843L138.44272959486403,169.98798378313617L138.54866362466612,169.9917298651356L138.65459825649924,169.99574153414366L138.76053662266523,170L138.86647203640456,170L138.9724079114578,170L139.0783442478382,170L140.77338828546186,170L140.879332464706,170L140.98527710531727,170L141.0912222073045,170L141.1971677706588,169.9977509421414L141.30311379539347,169.9896129657282L141.40906028150857,169.97780671817117L141.51500722900403,169.9675933887468L141.6209546378932,169.95910959588517L141.62095472414464,169.95910959000383L141.72690250816277,169.97344518863645L141.8328508398216,169.98619912978862L141.9387997463628,169.99770105980795L142.04475093466556,169.99999973560548L142.15070065051432,170L142.2566508277656,170L142.3626136551075,170L142.68045606004094,170L142.78640854433604,170L142.89236149004702,170L142.99831489718272,170L143.10426876574317,169.99677966878124L143.21022309572388,169.98619364619523L143.31617788713373,169.9763593733175L143.4221331399728,169.97231174438275L143.42213323076376,169.9723117425959L143.5280888542454,169.97682763855147L143.63404502996048,169.98627533546062L143.74000175789567,169.99499709435554L143.8459681580263,169.99999991205294L143.95192571805987,170L144.05788373954033,170L144.16384353894122,170L146.60100943022155,170L146.70697898874758,170L146.8129490087825,170L146.91891949033973,170L147.0248904334192,169.99676520321444L147.13086183802974,169.9944487603975L147.23683370415813,169.99385982407105L147.3428060318221,169.99502326971978L147.4487788210083,169.99680140355173L147.55475826368763,170L147.66073197595378,170L147.7667012606661,170L147.87267589601666,170L147.9786509929161,170L148.08462655135992,170L148.19060257135706,169.99771500617254L148.29657905290748,169.99523436570396L148.40255599601556,169.99363899201572L148.50853340067698,169.99413031226018L148.61451126691387,169.99621670711804L148.72049036642724,170L148.8264691557884,170L148.93244840671616,169.9963654552838L149.03842811921933,169.99426155155138L149.14440829329797,169.99327621339037L149.25038892896092,169.99396234246652L149.3563700261949,169.9958323434024L149.46235158501764,169.9979216827334L149.56833768647886,170L149.67432016847465,170L149.78030311206362,170L149.8862865172502,170L151.47609209835457,170L151.58208288940892,170L151.68807414210517,170L151.79406585644338,170L151.90005803241914,169.9975036398213L152.00605067005012,169.99556740595074L152.11204376933188,169.99435384998577L152.21803733026448,169.9947427558111L152.32403135285236,169.9964768827957L152.4300266996141,169.99933970634183L152.53602164552132,170L152.64201705309264,169.99933197940516L152.7480129223325,169.98637687314306L152.85400925324095,169.97111765421516L152.9600060458179,169.95897643943937L152.9600061093716,169.9589764367229L153.0660033000767,169.96453001360626L153.17200101600847,169.97611739288843L153.2779992208594,169.98411981145674L153.38399786015046,169.9858770854065L153.38399975768178,169.9858771310386L153.48999738784977,169.98586492179155L153.59599695051782,169.98842005283447L153.70199713376076,169.99474658186702L153.80799830528204,169.99886693046565L153.83714809508382,169.99918449186325L153.91399925303554,169.99703446796755L154.02000066248414,169.99429818550436L154.1260025336279,169.99236878607923L154.12600285593584,169.99236878739953L154.23200486648452,169.98995182822514L154.33800766104076,169.98617245289475L154.44401091730984,169.9830745366372L154.55001495759532,169.9818370349557L154.55971761172898,169.98191462624752L154.6560191372946,169.98111965576825L154.76202385134397,169.9842540786523L154.8680291859904,169.98740372949277L154.9740347508505,169.988965617349L155.08004077742788,169.9911482121752L155.18450940967068,169.99528818960425L155.29051635971373,169.99585319970012L155.29205511007444,169.99586124800615L155.39652377148735,169.99395242506637L155.3980625218481,169.9939243151243L155.5025316450005,169.99445682683475L155.5142331327454,169.99465360036913L155.6100787306094,169.99403412728122L155.71608752760147,169.99568052450653L155.82209678633745,169.9982909350291L155.934815582869,170L156.04082576509722,170L156.14683640908711,170L156.24613993228965,170L156.3521514997895,170L156.4581635290466,170L156.56417602006974,170L156.67018897285456,169.99839318591398L156.77620238740985,169.99598772263133L156.8822162637357,169.99372683946254L156.98823060184085,169.99287566792688L157.09424540171656,169.99378320721257L157.20026066337607,169.99574274121187L157.3062763868105,169.9977400703286L157.42225667692892,170L157.52827332393986,170L157.63429043274343,170L157.74030800333526,170L163.24235374214587,170L163.34839579158415,170L163.4544383029614,170L163.56048127627756,170L163.66652471153716,170L163.77256860874462,169.80782458340053L163.87861296789544,169.43236802838865L163.98465778900297,168.57488796299282L164.09070307206278,166.06137327585088L164.19674881707485,159.55560590329063L164.30279502404807,151.08750715278143L164.40884169298684,143.60732779826048L164.43132114497942,142.90482299153152L164.51488882388233,145.3386925713806L164.6209364167478,153.6721394766309L164.72698447158328,162.26896689584356L164.83303298839317,167.76216925775466L164.93908196717751,169.7209721268685L165.04513140794072,169.9963515931311L165.15273115115633,170L165.25878151588168,170L165.3648323425948,170L165.47088363129123,170L165.57693538198424,170L165.68298759466495,170L165.78904026934674,170L165.89509340602513,170L166.00114700470453,170L166.10720106539384,170L166.21325560170723,170L166.31931093595273,170L166.4253663826717,170L166.53142229140062,170L166.63747877109745,170L166.74353588985988,169.9955358251419L166.74353594433447,169.9955358228489L166.8495931846495,169.99654689349455L166.95565099594577,169.99900248232362L167.06170933735848,169.99999982309862L167.16776853574842,170L167.27382767866186,170L167.37988728361182,170L167.48594735060271,170L167.59200787963007,170L167.69806917031747,170L167.80413062344442,170L167.91019253861677,170L168.01625491584335,170L168.12231775512416,170L168.2283816375258,170L168.3344454009284,170L168.4405100031766,170L168.54657469070534,170L168.65263984030605,170L168.75870545197873,170L168.86477168007244,170L168.97083870616473,170L169.0769057040666,170L169.18297316405372,170L169.28904108612613,170L169.39510947027932,170L169.57327224516098,170L169.67934155350244,170L169.78541132393806,170L169.89148155647223,170L178.30651414483802,170L178.41262181626192,170L178.51872995001045,170L178.6248385460792,170L178.73094760447262,169.9953425885162L178.8370571251951,169.99310599953574L178.94316710824225,169.9927621514616L179.04927755362291,169.99457811040415L179.1553884613371,169.99721248490445L179.26150132037006,170L179.36761315276013,170L179.47372544749703,170L179.57983816372484,170L179.68595138315538,170L179.79206506493273,170L179.89817920907024,170L180.00429381555892,169.99605622934877L180.07637581879462,169.99127045325818L180.1824908876435,169.97987872754732L180.2886064188613,169.9737760854639L180.32264045005508,169.97293050414976L180.39472241243482,169.97930486706028L180.50083886837734,169.98413017350353L180.53487382430907,169.98472922618097L180.60695578668881,169.9821226208671L180.71307316737372,169.97112654676096L180.81919101043204,169.95991218062352L180.92530931587265,169.95814609624568L181.0314280836911,169.9722554798026L181.13754731389184,169.98696888790866L181.24366700647488,169.99776972329803L181.3838398981188,170L181.48996097788415,170L181.59608252004065,170L183.82473206808288,170L183.93086378364265,170L184.03699596166447,170L184.14312860214397,170L184.2492617050855,169.99761035740448L184.35539527049804,169.99559857029067L184.46152929837706,169.9949593951058L184.56766378872703,169.9963773777148L184.6737987415524,169.998525207313L184.7799436218208,170L184.88607949960135,170L184.9922158398617,170L185.09835264261517,170L192.63524791725754,170L192.74141802600528,170L192.8475885974367,170L192.95375963154746,170L193.0599311283464,169.9972893728441L193.16610308784232,169.99261680107597L193.272275510022,169.98142511775643L193.3784483949032,169.97845448097968L193.37844858556423,169.97845447865544L193.48462174247695,169.9793942509215L193.59079555274775,169.9876630475714L193.5907962472987,169.98766307297635L193.69697001638994,169.9777447327352L193.80314475207254,169.9590807352853L193.9093204361972,169.93625397502691L194.01549609730048,169.93524997746528L194.0154961154587,169.9352499773722L194.12167222111853,169.95477573679287L194.22784880764692,169.9767435959455L194.33402587505716,169.99274972861096L194.40423976325326,169.99777181222552L194.51041727522895,170L194.61659524992822,170L194.72277368735115,169.9975469566621L194.8649191380759,169.99411914051558L194.97109896369633,169.9934209741774L195.07727925205813,169.9948421503457L195.18346000316134,169.99738130793259L195.28965425912904,170L195.3958359357194,170L195.50201807505553,170L195.60820067714636,170L199.3248756780992,170L199.43107494102938,170L199.53727466680735,170L199.64347485544636,170L199.74967550693316,169.99811303892184L199.855876621281,169.99618852495692L199.96207819849434,169.99189129980488L200.06828023856878,169.98885946553207L200.06828040653204,169.98885946381944L200.17448274150865,169.98929400257768L200.2806857073185,169.99321746177793L200.386889303966,169.99688110178113L200.45676344780537,169.99911424866147L200.56296733936395,170L200.66917169380133,170L200.77537651111749,170L205.5914308711104,170L205.6976574468421,170L205.80388448558114,170L205.91011198733196,170L206.016339952099,169.99840751736846L206.1225683798867,169.99643244633177L206.22879727069065,169.99555325488382L206.33502662451968,169.9961031343798L206.44125644136938,169.9973958163468L206.44125716769716,169.99739583415217L206.54748744758078,169.99708277083593L206.65371819049398,169.98783581825825L206.7599493964455,169.97043318696637L206.8661810654266,169.9495715467397L206.9724131974505,169.93565682088095L206.97241323830642,169.93565681930596L207.07864579251722,169.94834993276498L207.18487885062234,169.97058458847198L207.29111237177915,169.98376852930596L207.3371331261167,169.9884467636554L207.39734646493682,169.9934906797196L207.44336711032517,169.99610260247778L207.48712352874233,169.99858601891694L207.5496015575854,169.99984148082194L207.59335797600252,170L207.65583646789725,170L207.6995928863144,170L207.77441445627258,170L207.8222883669416,170L207.88065029270558,170L207.92852466643959,170L208.03476142900254,169.99849487292715L208.1409986546305,169.99608003220607L208.2472363433323,169.99451224595708L208.35347449510797,169.99515592811676L208.4597131099619,169.99714254624124L208.62568711829465,170L208.7319266593096,170L208.8381666634073,170L208.94440713059657,170L219.1922114151547,170L219.29849727798515,170L219.4047836041687,170L219.51107039370987,170L219.61735764661302,169.99773539924823L219.7236453628782,169.99477164066954L219.8299335425054,169.9921976495773L219.93622218549902,169.99186104842622L220.0425112918635,169.99402354911592L220.14880086160332,169.99714624568549L220.14880150167969,169.9971462564267L220.25509153479481,169.993939915209L220.31885866022,169.99384838433147L220.36138203128965,169.9930737582979L220.42514915671487,169.99242928226457L220.46767299116428,169.99199950607553L220.5314401165895,169.99223138316597L220.57396441442307,169.99238601473184L220.63773153984826,169.9935865820744L220.68025630106604,169.99438721154024L220.7865486510976,169.99714108028897L220.89285474724582,170L220.99914802406792,170L221.10544176428303,170L221.2117359679001,170L232.16252141553048,170L232.26886382745133,170L232.37520670305778,170L232.48155004234545,170L232.58789384532315,169.99766744941837L232.69423811199096,169.99471238729015L232.80058284235324,169.9910251854085L232.90692803641446,169.98388993067698L233.01327369417015,169.9884231921142L233.11961981562925,169.99276799241872L233.2259664007917,169.99732150382133L233.40150435512075,170L233.5078518677032,170L233.61419984399788,170L233.72054828400482,170L241.68714774752306,170L241.78118882277803,170L241.8249452411952,170L241.8875729769521,170L241.93132939536923,170L241.99395759505117,170L242.03771401346833,170L242.10034267708414,170L242.14409909550128,169.97730795985464L242.20111489103138,169.90779019805257" style="stroke: #1f77b4;"></path></g><g class="filename"><path class="profile line" d="M1.559777021791947,169.98924662819348L1.6239054127625112,169.98778502452979L1.729237845709103,169.98424051833027L1.8345703097542627,169.98742936914107L1.939903231624425,169.99282848975562L2.0452366113151563,169.9980702435808L2.150571447536015,169.99999999243198L2.255905742881185,170L2.361240496060223,170L2.4665757070686967,170L2.571911375915472,170L2.67724750260055,169.99887001494733L2.7825840871283627,169.99107829811987L2.8879211295077765,169.97913464993817L2.993258784070145,169.9625530421202L3.098596819316221,169.9496228072814L3.098597150703269,169.9496227835915L3.203935294246838,169.95179146484594L3.3092742905916035,169.97041809136246L3.4146136222334573,169.98737569611527L3.5199535615320166,169.99900244681078L3.625293990476749,169.99999995456304L3.730634840961128,170L3.8359760040537187,170L3.94131788377878,170L4.046659962614472,170L4.152002839794509,170L4.257346074987111,170L4.362689527461836,170L4.468033437819195,170L4.573378346269904,170L4.67872317240583,170L4.784068456433255,170L4.889414198356613,170L4.994760398175905,170L5.100107954730617,170L5.205455070350641,170L5.310802643879896,170L5.4161506753183835,170L5.521499164670537,170L5.626848111931922,170L5.732197517111406,170L5.8375473802089894,170L5.942898096165399,170L6.048248875108046,170L6.153600111977656,170L6.258953223117829,170L6.364305870652168,170L6.4696584813248394,170L6.5750115499244774,170L6.680364558960272,170L6.785718543444871,170L6.891072985874167,170L6.996427886252595,170L7.101783244584585,170L7.207139060865707,170L7.312495335104826,170L7.417852067301942,170L7.523209257461487,170L7.6285673731614025,170L7.733925479250242,170L7.839284043305946,170L7.944643065337377,170L8.046216745664477,170L8.151576683642935,170L8.256937079610424,170L8.359170407006632,169.97465822352055L8.464531718934445,169.29876252522854L8.569893488851289,168.2158875363467L8.67525571675716,167.1829311115532L8.780618402660926,166.77156980118065L8.885981546558156,161.82038709780903L8.99134514845328,143.48243652472786L9.096709208350735,101.06096314732908L9.202073726250514,50.61831089210442L9.307438702157057,16.35969387596765L9.313299461408613,15.454545454545467L9.412804136070363,40.61594332476932L9.518170027999297,89.95893910779169L9.623536377943857,135.9205701325322L9.728903185899613,160.50407812168146L9.834270451879863,169.02440252803817L9.941798864826964,169.99538672565583L10.051922970765236,170L10.15729161081897,170L10.26266070890163,170L10.368030265022085,170L10.4734002791759,170L10.578770751363075,170L10.684141681592479,170L10.78951306986854,170L10.894884916191263,170L11.000257220565079,170L11.105629987525104,170L11.211003584779206,170L11.31637726331517,170L11.42175145892079,170L11.527126103511705,170L11.632501533010078,170L11.737877043794745,170L11.84325301265267,170L11.948629507677083,170L12.054006755845414,169.99368186969957L12.15938409892755,169.99586004618968L12.26476190009181,169.99869244007152L12.370140259208267,169.99999999171987L12.47551897654121,170L12.580898151965147,169.99589310935522L12.580898587761814,169.99589309237123L12.686278157718627,169.99741293587624L12.79165824932898,169.99999998651526L12.897039094105414,170L13.002420101906617,170L13.10780156781211,170L13.213183668864291,170L13.318566128150692,170L13.423949286146327,170L13.529332584486717,170L13.63471646351251,170L13.740101585993369,170L13.84548625868653,170L13.950871389506148,170L14.05625697844779,170L14.161643025515888,170L14.267029530719311,170L14.372416494058056,170L14.47780391552769,170L14.5831922263942,170L14.688580564152215,170L14.793969360049983,169.99887117214632L14.899358614096377,169.99514935569522L15.004748339905605,169.96702152818798L15.110138641900585,169.94730236297113L15.21552961087229,169.93139430502845L15.23698781227568,169.92846851356936L15.320920697530907,169.93029365236268L15.342379357096219,169.93027313831803L15.426312242351445,169.93905678453356L15.531704635730652,169.9510594648656L15.637097096883899,169.96928766747803L15.742490016203504,169.99103211812798L15.84788343000585,169.99721615688728L15.953278191739379,169.99999996762855L16.05867248557578,170L16.16406723759627,170L16.269462447791984,170L16.374858116176213,170L16.480254242744532,170L16.58565082750581,170L16.69104874205337,170L16.79644624320055,170L16.901844202545117,170L17.00724262009151,170L17.112641495835287,169.9976345918873L17.218040829794184,169.99381209289498L17.3234406219549,169.9866755283522L17.428840872326305,169.98404748516592L17.42884107660599,169.98404748007246L17.534241785192517,169.98456807877807L17.639642951994162,169.9814805113734L17.745044758597306,169.98060573548779L17.850447032503528,169.98782042129983L17.85045767774499,169.98782075282398L17.955849573968266,169.98735978822307L18.061252977681246,169.98579091462398L18.16665643560282,169.9858110364964L18.272060351757247,169.99394121985935L18.377464726148965,169.9966465272774L18.482935046306054,170L18.58834033717234,170L18.693746086284776,170L18.799152293638933,170L26.91675123935454,170L27.02219319803452,170L27.127635615169005,170L27.233078490766868,170L27.338521824819246,169.99031976611772L27.44396561733943,169.97887511765626L27.54940986832299,169.9671299561241L27.65485457777436,169.95882768342548L27.654854691263075,169.95882767710324L27.76029974569797,169.96100077568101L27.86574537209383,169.96973640442147L27.971191552301317,169.98495418918714L28.076638113813146,169.9947413437033L28.1820851156479,169.99734341484498L28.287533860660442,169.99999863677704L28.392981779470713,170L28.49843015676652,170L28.603878992552307,170L28.709328286841366,169.9974369309214L28.814778039624834,169.99575535088667L28.92022825090271,169.99503360229147L29.02567892069273,169.9958296782018L29.131130048986023,169.99747220063136L29.23660510979283,170L29.342057155101536,170L29.44750965892682,170L29.552962621264243,170L35.880964221859614,170L35.9864451587264,170L36.09192655427822,170L36.1974084085195,170L36.30289072143696,169.99597168434667L36.40837349304831,169.99198583849824L36.51385672335357,169.98953811797546L36.61934041235272,169.99064035453384L36.724824560045775,169.99461166877262L36.83036216567593,170L36.93584723077009,170L37.041332754575876,170L37.146818737088864,170L40.20606339728412,170L40.31156314226769,170L40.41706334604268,170L40.52256400860911,170L40.62806512997583,169.9972980753153L40.73356671013842,169.9946130265806L40.83906874909687,169.99297904967807L40.94457124686004,169.99381613121193L41.050074203436814,169.99648290729323L41.155621411843654,170L41.26112528603432,170L41.36662961904301,170L41.4721344108653,170L50.23059874663761,170L50.336142088585895,170L50.44168588957387,170L50.54723014960596,170L50.652774868691026,169.99775040452036L50.75832004682466,169.9957426971655L50.86386568401127,169.99463586533474L50.96941178025531,169.9954016392618L51.074958335561185,169.99729415452697L51.18052249126,170L51.28606996468959,170L51.391617897185455,170L51.497166288752055,170L61.63194481468795,170L61.73753774867335,170L61.84313114199102,170L61.94872499464984,170L62.05431930663649,169.99691151434388L62.15991407796429,169.9948240944095L62.26550930863323,169.99318604997637L62.371104998643304,169.99295175325926L62.47670114800783,169.99441300921046L62.58229775671348,169.99677067241328L62.687897961601664,170L62.79349548901621,170L62.89909347579405,170L63.00469192192633,170L64.58872373894818,170L64.69432953519926,170L64.7999357908624,170L64.90554250593762,170L65.01114968041605,169.99726016218193L65.11675731431097,169.99565693485613L65.22236540761799,169.99474040888623L65.32797396034591,169.99484221324875L65.43358297249922,169.9959845687891L65.53919244406904,169.9977183232134L65.64481602549573,170L65.75042641592515,170L65.8560372657888,170L65.96164857508225,170L66.27847337053018,170L66.38408651759163,170L66.48970012410503,170L66.59531419006156,170L66.70092871547446,169.99820056058442L66.80654370034821,169.99665131378617L66.91215914467394,169.9959198168488L67.0177750484605,169.9966283430229L67.12339141171677,169.99813035339727L67.22900908332944,170L67.33462636552068,170L67.44024410718603,170L67.5458623083211,169.99677316673714L67.65148096893475,169.99537045594087L67.75710008902695,169.99529947128488L67.86271966860217,169.99666129815353L67.96833970766481,169.9983652294222L68.07397158232368,170L68.1795925403656,170L68.285213957895,170L68.3908358349251,170L77.37037478675569,170L77.47603619041126,170L77.58169805379366,170L77.68736037690731,170L77.79302315975666,169.99693558390618L77.89868640233726,169.99379690856438L78.00435010465799,169.98884489218727L78.00435044058459,169.98884489572532L78.11001426671884,169.9879700180216L78.21567888852425,169.99080540964755L78.32134397007864,169.99272044628142L78.42700984730863,169.99534533275613L78.53267584835658,169.996805595894L78.63834333056525,170L78.74401025113335,170L78.84967763145487,170L78.95534547154755,170L79.06101377139807,169.99788945328953L79.16668253101976,169.9960766097102L79.27235175040818,169.9940849250989L79.37802142957662,169.99180488236132L79.4836915685162,169.98692591071878L79.48369184542867,169.98692590020775L79.5893622489477,169.98812586165738L79.69503330744733,169.99208625989175L79.80070502093645,169.99736083691602L79.90637753467173,169.99999996236068L80.01204997253362,170L80.11772287018437,170L80.22339622763289,170L80.32907004487916,170L80.43474584266754,170L80.54042057951818,170L80.6460955446496,170L80.75177120110908,170L80.85744731737958,170L80.96312389346559,170L81.06880092936709,169.99750776761513L81.17447842508406,169.98730400983328L81.28015638062095,169.97553545302847L81.38583479598664,169.96325350692246L81.49151367117669,169.96242323112088L81.4915137937445,169.96242323015775L81.59719312876334,169.97596906090934L81.70287292361539,169.99135512594046L81.80855328724982,170L81.91423436493663,170L82.01991553929722,170L82.12559717350432,170L82.2312795263122,170L82.33696208021234,170L82.442645093959,170L82.54832894888757,170L82.654012882345,170L82.75969727566225,170L82.86538609186525,170L82.97719285001065,170L83.08287862292066,170L83.18856485569937,170L85.0848737964289,170L85.19056876723131,170L85.29626419795561,170L85.4019600886062,170L85.50765643918314,170L85.61335324969082,170L85.71905052013368,170L85.82474825051172,170L85.93044644082939,170L86.03614550872513,170L86.14184461892644,170L86.24754418907625,170L86.35324421917456,170L86.45894503606881,169.8069211367465L86.45894505876656,169.80692112439598L86.56464598607737,169.99315055212804L86.66816547562325,169.9998586099527L86.77148693336842,169.9734504909827L86.87718926325346,169.39966667052585L86.98289205310027,168.29959952385283L87.08859530292216,167.6401211640295L87.19429901271027,166.0669657091302L87.30000318247347,157.80880709342335L87.40570781220732,132.12805830966752L87.51141290192511,95.16904214130656L87.61711845162243,57.49181562389566L87.62780192970554,55.481280922865736L87.72282446130811,56.623646828250145L87.82853093097773,93.47758802219307L87.93423786063578,130.90305972977347L88.03994525028216,157.7056227403413L88.14565309993023,167.98718566014776L88.25136140957113,169.9623411947069L88.36163547159308,170L88.46734470123732,170L88.57305439089212,170L88.67876454054861,170L88.78447515021563,170L88.89018621990208,170L88.99589774959907,170L89.10160973931546,170L89.20732218905572,170L89.31303509881981,170L89.41874846860775,170L89.52446273876461,170L89.63017702861355,170L89.73589177850407,170L89.84160698842727,170L89.94732310780296,170L90.05303923780934,170L90.15875582786173,170L90.26447287796458,170L90.3701907875937,170L90.47590875779743,170L90.58162718805605,170L90.68734613284855,170L90.79306555586298,170L90.89878574309093,169.9953764237604L90.89878575670957,169.99537642316503L91.00450601360008,169.99733452077382L91.11022674418184,169.99999998786802L91.21594802108321,170L91.32167006675536,170L91.42739217755938,170L91.53311474844489,170L91.63883832869725,170L91.74456181975458,170L91.8502857708934,170L91.95601018212697,170L92.0617350534509,170L92.16746038487403,170L92.27318705706438,169.99783621225953L92.37891330868594,169.99396385121665L92.48464002041112,169.98338223622477L92.59036719224883,169.96947679666997L92.69609482419018,169.9565490379895L92.69609490590206,169.95654902799856L92.80182291624405,169.95956927145212L92.90755146841485,169.97245521022506L93.0132804988608,169.9841345338542L93.11900997126992,169.99100318450752L93.11901008929817,169.99100318892766L93.22473996734965,169.98368751281248L93.23531163409872,169.98396147088297L93.33047077310488,169.98016844893502L93.4362020253717,169.96483350612377L93.54193333828407,169.95067393318604L93.5525055728491,169.94990473132594L93.64766511133553,169.95026951811238L93.65823780603078,169.95013245047934L93.75339734451723,169.95833206852043L93.85913007869841,169.96690413450793L93.96486364980123,169.97236799470966L94.07059726340913,169.9894636302595L94.17633133716501,169.9946458316524L94.28206624785139,169.99999879212723L94.38780124190764,170L94.49353669612073,170L94.59927412216479,170L94.70501049669157,170L94.81074707263421,170L94.9164843674924,170L95.02222212251631,170L95.12796033771477,170L95.23369901308783,170L95.339438148631,170L95.44517774435764,170L95.5509178002677,170L95.6566583163612,170L95.76239955139242,170L95.86814098786166,169.99888116894206L95.97388288452323,169.99349884229275L96.07962566355954,169.98864240907562L96.18536848061458,169.98989849286457L96.29111175786635,169.99160253937026L96.39685586756671,169.993234013912L96.5026000652297,169.99356315461685L96.60834472309828,169.99497679594398L96.71408984118135,169.99663138600962L96.81984824369925,170L96.92559428221126,170L97.03134078094216,170L97.13708773989642,170L103.16542039420972,170L103.27119405059062,170L103.37696816734561,170L103.48274274448795,170L103.5885177820088,169.99372535337227L103.69429327992144,169.97389910718994L103.800069238217,169.94516760690993L103.90584565691324,169.9173989342243L103.90584571138784,169.91739892781627L104.01162253599685,169.9268857133312L104.11739987548555,169.95898249122587L104.22317767537048,169.9846042368924L104.32895600375818,169.9985502408935L104.4347375662063,169.99999977163466L104.54051674731538,170L104.64629638882957,170L104.75209317359882,170L105.91568800006921,170L106.02147362717773,170L106.12725971473124,170L106.2330462627386,170L106.33883327119982,169.99828442865152L106.44462074011048,169.99540488821805L106.55040866948829,169.99246473453607L106.65619705932885,169.99139443475235L106.76198590963212,169.99563934110665L106.86777522039812,170L106.97356615830859,170L107.0793563900222,170L107.18514708220742,170L107.29093823487753,170L107.39672984802368,169.9961804932876L107.50252192165028,169.99558925396377L107.60831445577064,169.9947710585721L107.7141074503759,169.9943037280643L107.81990090547049,169.994763310109L107.92569482106326,169.9961158023426L108.03148995979397,169.99999966386298L108.0314991160635,169.99999981848632L108.13728479638314,169.99790272461337L108.24308009347493,169.99606022739255L108.34887585106935,169.99447633940088L108.45467206917084,169.9940586107257L108.5604687477838,169.99518553711235L108.66626588690826,169.99721132411628L108.77207464475912,170L108.87787270491545,170L108.98367122560099,170L109.08947020679801,170L116.17904910367986,170L116.28487940675592,170L116.39071017053851,170L116.49654139503208,170L116.60237308023666,169.99335125835177L116.70820522616108,169.98411532924297L116.81403783280535,169.9727065126196L116.91987090016947,169.9627784072244L117.02570442825345,169.96213184490804L117.13153841706614,169.97232673325576L117.23737286661198,169.98387812841355L117.34320783136555,169.9973987944713L117.4490451952351,170L117.55488102698483,170L117.6607173194677,170L117.76655407270147,170L118.18990568402192,170L118.2957447410101,170L118.40158425875359,170L118.50742423725684,170L118.61326467652427,169.98876126399617L118.71910557656474,169.97866544037905L118.82494693736497,169.96640283936665L118.82494695552316,169.96640283783074L118.93078875894268,169.96780522652253L119.03663104129787,169.97982867344922L119.1424738025843,169.99267424915544L119.24831700649446,169.99823601303174L119.35416359465583,170L119.46000772013868,170L119.56585230640344,170L119.67169735346343,170L120.94187386081732,170L121.0477248984013,170L121.15357639681152,170L121.25942835605684,170L121.36528077613286,169.9980776851522L121.47113365704398,169.99605961154649L121.57698699879909,169.99484957452444L121.68284080138929,169.99531019024758L121.78869506482792,169.99703780698508L121.89455046096373,169.99999997129106L121.8945514869017,169.99999997978995L122.00040564609918,169.99791474554536L122.10626129208747,169.99045740318607L122.21211739892863,169.98235897217245L122.31797396663148,169.9844931368799L122.42383099519162,169.99096271907703L122.5296885436276,169.99999979582358L122.63554716122924,170L122.7414055723878,169.99541254179962L122.84726444441696,169.9932347672301L122.95312377732112,169.99027562869503L123.0589835711003,169.9892736657675L123.0589838707105,169.98927366361784L123.16484382575892,169.9895077914197L123.27070484090719,169.99362333032997L123.37656601733356,169.995737970768L123.48242765464825,169.9979151608731L123.5882906017424,169.9999998721648L123.5882970932969,169.99999988927132L123.69415316083816,169.99819426687347L123.80001618082663,169.99541612343063L123.90587966171672,169.9928028522905L124.011743603504,169.99215926781983L124.11760800619288,169.99363707677014L124.22347286979225,169.9959356720855L124.32935858594996,170L124.43522437136583,170L124.54109061769664,170L124.64695732494677,170L128.5643347793685,170L128.6702190034289,170L128.77610368851504,170L128.8819888346269,170L128.98787444175565,169.99788755240596L129.09376050991904,169.99617983795667L129.199647039117,169.99501588242617L129.30553402934956,169.99500770493344L129.41142148061226,169.99616979229936L129.51730939292293,169.99797310874578L129.6231986287868,169.9999999867921L129.72908746317998,170L129.83497675862105,169.99667862582214L129.94086651511,169.99404716541827L130.04675673265572,169.99262052649803L130.15264741125824,169.9936366518658L130.2585385509175,169.99639131271542L130.36443084164495,169.99999999984533L130.3644308461845,169.99999999989282L130.47032290343105,169.99570199379627L130.57621542628726,169.9914765100338L130.6821084102002,169.98858482606502L130.68210841473976,169.98858482601798L130.78800185519654,169.98969877303293L130.8938957612629,169.99398732747864L130.99979012840825,169.99863596330366L131.10568611421297,169.99999990172947L131.21158140352063,170L131.31747715391163,170L131.4233733653949,170L131.5292700379615,169.99747075530843L131.63516717162477,169.99125437132187L131.74106476638474,169.98604522890273L131.84696282224138,169.98646030325193L131.9528613392035,169.9924985730669L132.05876031726234,169.99805878781282L132.16468050670778,170L132.270580406991,170L132.37648076838414,170L132.4823815908873,170L137.56614953074265,170L137.67207295114972,170L137.77799683280423,170L137.88392117571055,170L137.98984597986868,169.99533565828133L138.09577124528312,169.99257534579186L138.20169697195823,169.99113758333638L138.30762315989847,169.9915566220841L138.30762361839288,169.99155662937528L138.4135498090994,169.98968557810855L138.51947691956545,169.98368233261382L138.62540494980436,169.97952152862345L138.62540535836374,169.97952152898023L138.73133298281843,169.97135052003858L138.83726147710647,169.9687085117772L138.9431904326685,169.96775591057485L138.94319066872504,169.96775590943042L139.04912008556994,169.9752772697884L139.15504996370214,169.9844541064214L139.26098047561564,169.9885215265162L139.2609867401927,169.98852168944603L139.36691167126313,169.98831361721213L139.47284293325723,169.9885263306391L139.57877465654747,169.99173073797093L139.6847068411339,169.9954347912274L139.80631338167015,170L139.91224648885776,170L140.01818005735038,170L140.12411408715244,170L142.0153350610624,170L142.12127785621416,170L142.22722111272415,170L142.33316483060122,170L142.43910900984537,169.99805940174357L142.54505365045662,169.99603393577516L142.65099875244383,169.99340432655922L142.75694431579814,169.992634002238L142.75694477429255,169.9926340036093L142.86289034053283,169.99010412293327L142.8628907990272,169.99010411482342L142.96883708086264,169.9905907107473L143.0747840283581,169.9918276843773L143.18073164152696,169.99488400271548L143.28667951179654,169.99662793845033L143.3926299044104,169.99999971742218L143.4985786974629,170L143.60453683127503,170L143.7104865471238,170L144.24023307275377,170L144.3461855570489,170L144.4521385027599,170L144.55809190989558,170L144.664045778456,169.9963010620964L144.77000010843673,169.98952342194002L144.87595489984662,169.98536369588365L144.98191015268563,169.98518833861536L145.08786586695823,169.98905200623275L145.1938220426733,169.994235679209L145.29978454945388,169.99999999286348L145.40574164804943,170L145.51169920808303,170L145.61765722956346,170L149.7503800244061,170L149.8563565059565,170L149.96233344906466,170L150.06831085372605,170L150.1742887199629,169.99760183711038L150.28026704775306,169.99586832887715L150.38624583711422,169.99500579021208L150.38624618665943,169.9950057923617L150.49222508804195,169.99177716581977L150.59820480054515,169.99082739129125L150.59820515009037,169.9908273906966L150.704185324169,169.991921053764L150.81016595983198,169.99270811512986L150.91614705706596,169.99356505436674L151.02212912885764,169.9959135472168L151.02213268786377,169.9959136329649L151.1281111492647,169.9937790213304L151.2340936312605,169.99331705958582L151.34007657484946,169.99481447365648L151.44605998003604,169.99716615225L151.55204731048696,170L151.65803163886434,170L151.7640164288482,170L151.87000168043414,170L152.71789909007776,170L152.82388849623285,170L152.92987836401215,170L153.03586869342897,170L153.1418594844833,169.9960768814611L153.24785073717956,169.99450865098711L153.35384245151775,169.99447441466097L153.45983462749348,169.99581757196484L153.56582726512445,170L153.67182129501373,170L153.77781485594633,170L153.8838088785342,169.9983864878977L153.98980336278174,169.99339721209748L154.09579830868896,169.9917263192018L154.20179371626025,169.986193360263L154.30778958550013,169.973375307589L154.41378591640853,169.96331941360805L154.5197827089855,169.9578340600136L154.51978309484713,169.9578340411248L154.62578025377542,169.96846256418266L154.7317780650377,169.98292907332032L154.83777624265136,169.9937104738336L154.94377488194237,169.99614658950378L155.04977461392141,169.99559950121767L155.0497757351899,169.99559951105442L155.15577417658943,169.99525249666922L155.2617742009482,169.99631144867902L155.36777468699765,169.99788794578132L155.47377675601962,169.99993898348635L155.5797781654682,170L155.685780036612,170L155.79178236946865,169.996104484035L155.89778516402484,169.99009573182516L156.00378842029394,169.9838079013841L156.10979213827147,169.96808772370602L156.21579631797076,169.95946506648576L156.21579638152443,169.95946506268896L156.32180095938733,169.96343697353453L156.4278060625168,169.9763039417185L156.53381169093055,169.99126005583398L156.63981784461532,169.9982157160182L156.7509224048889,170L156.85692935493196,170L156.9629367667056,170L157.06894464021875,170L164.59473922718783,170L164.70078035276148,170L164.80682194026963,170L164.9128639897079,170L165.0189065010851,170L165.12494947440132,169.9913948425662L165.23099290966093,169.8553543787836L165.33703680686835,169.49654076882794L165.4430811660192,168.99427901409103L165.54912598712673,167.35884569653132L165.65517127018654,162.51780606949092L165.7612170151986,154.51314195168985L165.8672632221718,145.89557294415576L165.97330989111057,143.7239331151707L166.07935702200604,151.21508863806397L166.18540461487152,159.70698876055914L166.291452669707,166.603419488765L166.3975011865169,169.48241143220855L166.50040872957737,169.97705291753846L166.60645817034057,170L166.7125080730782,170L166.81855843780357,170L166.92460926451668,170L167.0306605532131,170L167.1367123039061,170L167.24276451658685,170L167.34881719126864,170L167.454870327947,170L167.5609239266264,170L167.6669779873157,170L167.77303295488625,170L167.87908793958647,170L167.98514338630545,170L168.09119932227168,170L168.19725605618322,170L168.30331288895408,170L168.4093701837437,170L168.5154280631332,170L168.6214862819781,170L168.72754569826637,170L168.8336048411798,170L168.93966444612977,169.99999652819966L169.04572451312066,169.98847519069054L169.15178504214802,169.97742110398357L169.2578460332252,169.96892212234653L169.2578463101377,169.96892210015702L169.3639074863522,169.97427130972045L169.469969678437,169.99318874673384L169.57603205566355,169.99864675681727L169.6820952444896,169.9999998251061L169.78815854582908,170L169.8942226633164,170L169.97373210800689,170L170.07979633347256,170L170.1858610210013,170L170.291926170602,170L170.42454944181083,170L170.53061597763187,170L170.63668297553372,170L170.74275043552083,170L170.84881835759325,170L170.95488674174646,170L171.06095558799825,170L171.1670373256238,170L171.2731070960594,170L171.37917732859356,170L171.48524802323072,170L177.3198431352366,170L177.42593971182637,170L177.5320367506699,170L177.6381342517671,170L177.7442322151225,169.99743697541555L177.85033064074045,169.99219805138827L177.95642952862988,169.98680885915508L178.0625288787819,169.98538676158387L178.16862869120536,169.99293706547812L178.2747289659003,169.99636417541473L178.38086216064357,170L178.48696335989473,170L178.59306502142175,170L178.69916714524237,170L181.56407125498936,170L181.6701863238382,170L181.77630185505606,170L181.8824178486296,170L181.98853430457206,169.99834712796806L182.09465122288353,169.98960833347593L182.20076860356846,169.9772854063686L182.30688644662678,169.9665231433383L182.41300475206737,169.96541375874568L182.41300498358436,169.96541374367902L182.5191236923887,169.9690761387867L182.62524292258942,169.97429264384036L182.73136267418658,169.98307944863328L182.83748282916963,169.99119708328456L182.89702583199045,169.9935753807006L182.94360382331303,169.99479735431476L183.0031464493513,169.99575496703002L183.04972540242872,169.99650407459436L183.04972543874513,169.99650407567142L183.10926752911666,169.9916763712418L183.15584694458522,169.98789950060115L183.21538907127317,169.9853478475117L183.2619689491417,169.98335168693245L183.2619689854581,169.9833516860235L183.36809141609825,169.98668392771262L183.47421434545922,169.99326723614777L183.5803510335669,169.99999999484857L183.68647488775008,170L183.79259920434214,170L183.8987239833475,170L187.18881311619697,170L187.29495269391796,170L187.4010927341365,170L187.50723323687035,170L187.61337420210617,169.99642451182717L187.71951562985726,169.99286729336114L187.82565752012366,169.99112443133978L187.9317998729053,169.9924222158171L188.03794268821107,169.99549199036093L188.14410783757728,170L188.25025157792695,170L188.3563957808096,170L188.46254044622086,170L195.04439965402042,170L195.1505734642912,170L195.25674773727235,170L195.36292247295498,170L195.46909767134792,169.9965750567218L195.5752733324512,169.99144720272204L195.68144945626926,169.98650405177938L195.78762604279765,169.98488384089327L195.78762618352366,169.9848838403173L195.89380309204967,169.98782135935298L195.99998074475135,169.99497090352742L196.1061721746727,169.99999933777613L196.21235061209566,170L196.31852951225554,170L196.4247228614927,170L207.68234593280584,170L207.7885748236098,170L207.89480417743883,170L208.00103399428852,170L208.10726427417214,169.99564690775452L208.2134950170853,169.98696417310575L208.31972622303687,169.98074259676596L208.3197263365256,169.98074259361027L208.42595789201795,169.98134636785022L208.53219002404185,169.98773837589158L208.63842271897863,169.99422214951454L208.70925423545944,169.99791094508433L208.7990610277491,170L208.85090310754742,170L208.9052945489059,170L208.95713709175592,170L209.01152853311442,170L209.06337153901612,170L209.1177629803746,170L220.11428218674703,170L220.22056526950735,170L220.32684881560752,170L220.43313282504752,170L220.53941729783628,169.9964266572698L220.64570223396484,169.9944627183005L220.75198763344656,169.9943379944461L220.85827349627698,169.99610953367798L220.9645598224606,169.99837367137513L220.96456047615555,169.99837368137733L221.0708472656967,169.9961765355959L221.17713451859987,169.99240046083412L221.28342223486504,169.98405942123588L221.38971041449224,169.98315798350765L221.49599905748585,169.98766443733481L221.60228816385035,169.9919505625753L221.70857792425122,169.9958020265329L221.77197283392857,169.99863262576136L221.81486904231846,169.9999995917666L221.87826286704367,170L221.9211595388133,170L221.98455336353857,170L222.0274504986879,170L222.09084432341317,170L222.13374192194672,170L222.24003380858966,169.99792101214732L222.34632615862122,169.99587336467098L222.4526189720503,169.99447283703427L222.55891224887236,169.994427634523L222.66520598908753,169.9956882445875L222.77150019270454,169.99756613660284L222.93515450763135,170L223.04144963805663,170L223.14774523188828,170L223.25404128913513,170L233.82864086286193,170L233.9349837384684,170L234.04132707775605,170L234.14767088073376,170L234.25401514740153,169.99657444175975L234.3603598777638,169.99356299549873L234.46670507182503,169.99162346465968L234.57305072958076,169.99234875923165L234.67939685103983,169.9953261100155L234.8587700196314,170L234.96511706850163,170L235.07146458108411,170L235.1778125573788,170L243.1530095947919,170L243.24296655530935,170L243.34935024556725,170L243.45573439974132,170L243.5621190178404,170L243.66850409987336,169.96123796689696L243.76089191282333,169.75354660529004" style="stroke: #ff7f0e;"></path></g><g class="filename"><path class="profile line" d="M3.1195540435883276,170L3.229333798804803,170L3.334665115252964,170L3.439997960855163,170L3.545331264277931,170L3.650665025525702,170L3.7559992446029087,170L3.8613339215095506,170L3.966669056254495,170L4.072004648833307,170L4.177340699254855,170L4.281929226344694,169.99640508480462L4.387266650298881,169.98689342872686L4.492604532100234,169.98194727809525L4.597942871757623,169.96546246295293L4.703281669266613,169.93860857212835L4.808620924636071,169.88698314468277L4.913960637865996,169.86608138207677L4.914706943242135,169.8659542276866L5.019282804787458,169.8757050457941L5.12462297587785,169.91826752459053L5.229963604837577,169.95509220366733L5.3353046916666385,169.97511226600767L5.440666072011301,169.9974695978467L5.546756117196972,169.9987392788649L5.652097506309433,170L5.757440424637995,170L5.862783800849191,170L5.968127634938587,170L6.600200255223058,170L6.705547294579551,170L6.810894791845277,170L6.916242747020235,170L7.021591160104425,170L7.12694003110228,170L7.232289360013802,170L7.337639146847855,170L7.442989391604439,170L7.547405528329897,170L7.652756688935978,170L7.7581083074690245,170L7.863460383933469,170L7.969748555620875,170L8.075101547961415,170L8.18045499824222,170L8.285808906458854,170L8.391164343962524,170L8.496519168077423,170L8.601874450145884,170L8.707230190167909,170L8.812586388143497,170L8.917943044077083,170L9.0233001579731,170L9.12865772983598,170L9.234015795977678,170L9.33937477858508,170L9.444733724352984,170L9.550093128096616,170L9.649680295537474,170L9.755040615236998,170L9.86040139292112,170L9.965762628589836,170L10.071124322243147,170L10.176486473889923,169.29867769465005L10.281849083534594,167.7646434792449L10.387212151168294,167.31203784974065L10.492575676799888,164.2652090397061L10.597939660438243,150.3565314558197L10.703304102074496,110.08489968766881L10.808669001726376,60.94667087261499L10.914034359380583,16.183606097642013L10.918869813915736,15.454545454545467L11.019400175045988,31.14194948561635L11.12476644872702,81.94987791635695L11.230133180423678,129.99315491959538L11.33550037014483,158.26829709796306L11.440868017886045,168.45227332461477L11.546236123651754,169.97376735154162L11.65738121764346,170L11.762750239467024,170L11.86811971932395,170L11.973489657214234,170L12.078860053146746,170L12.184230907121487,170L12.28960221913845,170L12.394973989197645,170L12.50034621730793,170L12.60571890346931,170L12.711092047690649,170L12.816466185634248,170L12.92184024596664,170L13.027214764363423,170L13.132589763522345,170L13.237965756416823,170L13.34334164901122,170L13.448717999683309,170L13.554094808433089,170L13.659472075260561,169.97473507168687L13.659472424805802,169.97473498787977L13.764850149710966,169.99750546971086L13.870228391712388,169.99999998495556L13.975607105423446,170L14.080986731175924,170L14.18636628842732,170L14.291746303783011,170L14.39712677722969,170L14.502507745092617,170L14.607889207371793,170L14.713271055126913,170L14.818653787703893,170L14.924036982933579,170L15.029420205019305,170L15.134803885218188,170L15.240188127944283,170L15.336290271291002,170L15.441675325851525,170L15.547060838542937,170L15.65244680935637,170L15.767116631079034,170L15.872503518158682,170L15.977890863373656,170L16.083278839235664,170L16.18866710073458,170L16.294056796380637,169.97970930958988L16.399445974172366,169.97656010700308L16.504835610112718,169.95673623761962L16.610225704206123,169.92043322854784L16.715616256452588,169.8971724426464L16.821007266860974,169.9185162881008L16.926398735426847,169.9429676626534L17.031790662154645,169.9511833321668L17.137183201393448,169.94259141906406L17.13718362357147,169.9425913536123L17.242576466636407,169.9547889302779L17.34796976787214,169.98954775085136L17.453363527283088,169.99923332190116L17.558766656003158,170L17.664161331768984,170L17.769556465714466,170L17.874952057844034,170L19.341244429584815,170L19.446646894803756,170L19.55204981824225,170L19.657453199913594,170L19.762857039822222,169.999877761898L19.86826133795927,169.99119581552006L19.97366609433361,169.97332274723064L20.079071308949665,169.94704850611703L20.184476981811873,169.917947082988L20.289883112915795,169.91102437669744L20.395289702274738,169.92280206544447L20.5006967498754,169.95355305403584L20.606104255731083,169.9793709121547L20.720801346069997,169.9914007022143L20.826209768440147,169.9977363081024L20.93165271839085,169.9999994798947L21.03706205728877,170L21.142496086561,170L21.247906341995552,170L23.672415306741733,170L23.777836561440484,170L23.883258274474045,170L23.988680445846853,170L24.094103075558913,169.9955740849552L24.199526163614653,169.99079997811938L24.30494971001407,169.9883313654681L24.410373714770476,169.98986563044969L24.515798177870558,169.99390945462602L24.621291873493334,170L24.726717253302944,170L24.832143091482834,170L24.937569388019707,170L39.701727386142046,170L39.807218338387926,170L39.91270974937204,170L40.018201619098825,170L40.12369394756827,169.99596170445142L40.229186734789245,169.99258474035332L40.33467998076175,169.9904419800478L40.44017368548579,169.99075171518234L40.545667848965785,169.99310315058534L40.65116247120176,169.99619787970894L40.75669063189319,170L40.86218617165883,170L40.96768217018486,170L41.07317862748015,170L47.08721123377826,170L47.19273430423928,170L47.29825783362916,170L47.403781821943454,170L47.50930626919548,169.99488360962184L47.614831175371926,169.9916189501433L47.72035654049497,169.98943568322875L47.825882364555724,169.9898268700966L47.931408647554214,169.99286033941345L48.03694070077115,170L48.142467901667246,170L48.24799556150994,170L48.35352368030365,170L51.30849735221359,170L51.4140387817928,170L51.519580670411685,170L51.6251230180614,170L51.730665824750794,169.99532911455668L51.83620909047988,169.99191034710734L51.94175281525309,169.98823749410167L52.04729699907041,169.9862209694365L52.15284164194072,169.99031632412746L52.25838674385515,169.99888023211426L52.258387420247885,169.9988802392903L52.36393298122417,169.99591601321407L52.469479001249,169.99151644896608L52.575025480340116,169.98966899323582L52.575025861662205,169.98966900065548L52.68057241849309,169.98553389437825L52.786119815703486,169.98256337167143L52.78612019702556,169.98256336231432L52.89166805331111,169.98578794746302L52.99721636866293,169.98751089411923L53.10276514308548,169.99143172184992L53.20831437658761,169.99556953872943L53.31386513141482,170L53.41941528307169,170L53.524965893817004,169.9926403537434L53.63051696364191,169.9881771294196L53.7360684925597,169.98631272131232L53.841620480565936,169.98852522896627L53.94717292766506,169.99328942450484L54.05275802380505,170L54.158311389094365,170L54.263865213494306,170L54.369419496995995,170L66.29999555269505,170L66.40560219156437,170L66.51120928984577,170L66.61681684753923,170L66.7224248646492,169.99582728070862L66.8280333411801,169.99097443341293L66.93364227713194,169.98796487950003L66.93364261759808,169.98796488345377L67.03925167250915,169.98394256375173L67.03925201297531,169.98394256042732L67.14486152730731,169.98428911199053L67.25047184153969,169.9867784799857L67.35608295566803,169.9919303995419L67.46169418876889,169.99638622806123L67.56732208295296,169.99999999704912L67.67293423492671,170L67.77854693259944,170L67.88416000346385,170L78.87042754715476,170L78.97608887462216,170L79.0817506618164,170L79.18741290874631,170L79.29307561540749,169.99010275085305L79.39873878179992,169.97781408981868L79.50440240793692,169.9663914659586L79.61006649381405,169.95398723065674L79.71573103943571,169.976144251223L79.82139604480194,169.9971476522273L79.82139687099979,169.9971476754776L79.92706233611501,169.9966416798231L80.0327282609881,169.9901831288039L80.13839464561016,169.9655318517771L80.2440614899901,169.94259354479513L80.3497287941323,169.94221384542817L80.45539655803682,169.96198405552445L80.56106478170805,169.98678613979564L80.6667370877058,169.99999958318313L80.77240623091491,170L80.87807583389518,170L80.98374589665104,170L82.25182251324141,170L82.35749855332818,170L82.46317505323046,170L82.56885201295265,170L82.6745294324859,169.99813499035332L82.78020731184348,169.98757163629344L82.88588565102545,169.97801411871797L82.99156445003176,169.95935953456498L83.09724370887572,169.9393982471973L83.20292342754404,169.9300518729013L83.30860360605001,169.93665562359044L83.41428424439364,169.94262201852098L83.51996534257492,169.95716321761552L83.5199657511343,169.95716320301665L83.62127773034149,169.96881808308217L83.72695974821137,169.99108449956253L83.83264222592777,169.99966980408223L83.93832516349514,170L84.04838343739614,170L84.15406729466984,170L86.26783995187843,170L86.37353346675361,170L86.47922744153738,170L86.58492187624304,170L86.69061677086614,170L86.79631212541557,170L86.90200793989132,170L87.00770421428894,170L87.11340094862176,170L87.21909867401693,170L87.32479632821567,170L87.43049444235847,170L87.53619301643644,170L87.64189257251542,170L87.74759206648592,170L87.85329202040936,170L87.95461756689096,170L88.05740948662452,170L88.16311082041112,170L88.2688126141595,170L88.37451486786968,170L88.48021758154606,169.92736517504366L88.58592075518867,169.16234379073921L88.6916243888019,168.4750828235142L88.79732848239023,167.5532867508056L88.9030330359492,161.32164008755547L89.00873804949657,140.6850966601585L89.114443523019,104.85511292379023L89.2201494565254,65.97212613171402L89.32585585002018,53.6871772670888L89.32876480411144,53.651869063339305L89.43156270350775,86.69277389015814L89.53727001698373,123.56563878000438L89.64297779045249,154.13695016577137L89.74868602391852,166.2817367602081L89.85439471739066,169.89141730784425L89.96739153280417,170L90.0731011462841,170L90.17881121977014,170L90.28452175326673,170L90.39023274677831,170L90.49594420030044,170L90.6016561138464,170L90.70736848741178,170L90.81308132100101,170L90.91879461461852,170L91.02450836826874,170L91.13022261372407,170L91.23593777770652,170L91.34165291145932,170L91.44736850524926,170L91.55308461809935,170L91.65880155869444,170L91.76451853262684,170L91.87023596660526,170L91.97595395596906,170L92.05799400413554,170L92.16371281828303,170L92.26943209249426,170L92.37515182676924,170L92.49000118952752,170L92.59572184393441,170L92.70144295841835,170L92.79118639210411,170L92.8969084267377,170L93.00263092145278,170L93.10835387625376,170L93.23746973827797,170L93.43237447361898,170L93.53125029632567,170L93.63697555157836,170L93.74270126693028,170L93.84842744238584,169.98629842968774L93.9541540779406,169.9454974854369L94.05988117360343,169.84487474074177L94.16560872937879,169.67672423544178L94.2713367452622,169.49564893154945L94.37706522126702,169.44037765841088L94.48279415738433,169.5709607009507L94.58852355362302,169.7391015206139L94.69425340998308,169.8860780277076L94.79998372647339,169.95709581434548L94.93624512710976,169.97055600254038L94.9362459533076,169.97055601184942L95.04197719005396,169.9601042033028L95.14770888693056,169.96600988161586L95.2534410439507,169.9894864211518L95.2534416431711,169.98948648073574L95.35917366110552,169.98094401270745L95.46490690636716,169.96047510730912L95.57064087506618,169.95423704009642L95.67637487265604,169.96787820939713L95.7821093303939,169.99512771114982L95.88785669118685,170L95.99359206923396,170L96.09932790743788,170L96.20506420579866,170L97.79115522269292,170L97.89689888398874,170L98.0026430054813,170L98.10838758719274,170L98.21413262910538,169.99605458419143L98.3198781312369,169.9854621307743L98.42562409358734,169.97231017708836L98.53137051615226,169.94852456434705L98.63711739894052,169.9396854506918L98.74286474195209,169.94550463693236L98.84861254519589,169.96235659826817L98.95436080866303,169.98991605660333L99.06010977750242,169.99640516830368L99.16586710084903,169.99999943410774L99.27161674502608,170L99.37736684943532,170L99.4831340651632,170L104.348140548843,170L104.45391274794017,170L104.55968540741138,170L104.66545852725666,170L104.77123210747158,169.99495427373685L104.87700614807386,169.99027444520684L104.98278064905463,169.98787972380256L104.982781057614,169.98787973332253L105.08855561042279,169.98019983730177L105.19433103217385,169.97149441658243L105.30010732288054,169.951462215085L105.4058836654152,169.91101515652926L105.51166046834611,169.8809459946804L105.5269469125224,169.8786890244705L105.61743773167767,169.88641824308485L105.72321575047611,169.9270816545302L105.82899393461345,169.96526154372376L105.93477257915588,169.9907911587355L105.97599751443538,169.9979646217767L106.0405560874611,170L106.08177707979685,170L106.1463356528226,170L106.1875571055723,170L106.25211567859805,170L106.29333759176171,170L106.35789616478745,170L108.36781288515783,170L108.47360258024271,170L108.57939273580365,170L108.6851833518406,170L108.79097442835801,169.99698827692646L108.89676596535146,169.9918156639909L109.00255796282978,169.97611735272287L109.10835042079302,169.9746595802781L109.21414333924558,169.9780360728658L109.3199367181919,169.98633646783819L109.42573055763198,169.9946652346795L109.53152854822326,170L109.6373233086553,170L109.74311852959438,170L109.8489142110361,170L111.43590469509616,170L111.54170774498331,170L111.64751125542188,170L111.75331522640738,170L111.85911965795316,169.99479720153036L111.96492455005918,169.99202974247672L112.07072990272104,169.99111862121686L112.17653571595203,169.99278495451804L112.28234198974769,169.9958715689799L112.38815693161635,170L112.49396412654585,170L112.59977178205776,170L112.70557989814765,170L117.57325092765508,170L117.67908069388073,170L117.7203406902264,170L117.78491092081295,170L117.8261713778696,170L117.89074160845614,170L117.93200252621935,169.99894469783152L117.99657275680589,169.9972932293705L118.03783413528451,169.99525572843598L118.10240436587107,169.99090269301402L118.14366620506954,169.98147648029868L118.20823643565608,169.95812607046213L118.24949873556554,169.93959550020713L118.31406896615208,169.90536992140764L118.35533172679025,169.88138093966154L118.4199019573768,169.8433000208446L118.4611651787304,169.82851276166625L118.52573540931695,169.81549253057574L118.5375051584226,169.81460481811476L118.56699909140369,169.8208933609063L118.63156932199023,169.8434549750032L118.6728334648057,169.86024045837138L118.73740369539223,169.8917621739088L118.77866829894084,169.9125485693144L118.8432385295274,169.9435958428134L118.88450359380916,169.95804989183844L118.94907406499178,169.9773504433317L118.9903393494195,169.9876720459624L119.05376959040359,169.99477359426362L119.10118769497231,169.99765043932973L119.15960580674708,169.99947457984828L119.20217314034366,170L119.26544248384143,170L119.30800981743802,170L119.37127962167338,170L119.41384695526997,170L119.5196845538528,170L119.61435884178249,170L119.66390637136918,170L119.72019736187153,170L119.76974535221352,170L119.82603634271587,170L119.87558479381762,170L119.93187578431997,170L119.98142469618146,169.9994523631598L120.03771568668381,169.9969854202517L120.0872650593139,169.9875509636016L120.14355604981625,169.96795110625357L120.19310588320613,169.93881477608835L120.24939687370848,169.89657387556312L120.29894716787139,169.84920380763808L120.35523815837374,169.7925710028972L120.40478891330969,169.7400373955743L120.46107990381203,169.6874003200908L120.51063111952105,169.65969568323578L120.5355185478308,169.6523655549762L120.5669221100234,169.65438693554572L120.61647378651433,169.68979958570506L120.67276477701668,169.74238324428177L120.72231691428507,169.79613412798614L120.77860790478742,169.85547291971776L120.82816050284218,169.90392818565564L120.88445149334453,169.9500827597365L120.95889198048653,169.9867158243483L121.00145931408312,169.99632424091453L121.06588485568592,169.99999997124814L121.17172982660651,170L121.27757525831343,170L121.38342115082446,170L124.55901220968136,170L124.66487238820501,170L124.77073302761254,170L124.87659412789951,170L124.98245568907923,169.99420400279791L125.08831771114725,169.98982209751748L125.19418019410803,169.98798357387554L125.30004313796154,169.9905746366023L125.40590654271666,169.9914288650225L125.40590715101618,169.9914288669094L125.51177101666849,169.99055153790601L125.61763534323129,169.98256296705657L125.72350013069122,169.9823369102912L125.82936537906167,169.9903212868718L125.93523108834701,169.99540594449482L126.04110476696064,170L126.14697139807137,170L126.2528384901059,170L126.35870604306417,170L126.67630597009722,170L126.78217536676833,170L126.88804522438096,170L126.9939155429218,170L127.09978632240859,169.99283057501015L127.20565756283689,169.99019234989203L127.31152926421558,169.9894232962359L127.41740142653573,169.9910513360822L127.52327404981517,169.99414998665367L127.62915259512192,170L127.73502614031096,170L127.8409001464548,170L127.94677461356673,170L131.01733469033857,170L131.1232229875577,170L131.22911174582921,170L131.33500096514416,170L131.440890645507,169.9899064664576L131.54678078692663,169.96304924572053L131.65267138939862,169.9319359412137L131.7585624529318,169.9215908991219L131.75856248924816,169.9215908966058L131.86445397752172,169.94440288875322L131.97034599949814,169.9614910140601L132.0762385324752,169.97661601117204L132.1821314402665,169.99224222087838L132.28802480913228,169.99518937931506L132.39392956576606,170L132.4998238567853,170L132.60571860888345,170L132.71161382206498,170L139.8076435917736,170L139.91357011946627,170L140.01949715381954,170L140.12542464944235,170L140.2313526063303,169.99768228621056L140.3372810245011,169.97749684484594L140.44320990395036,169.9375676567372L140.54913924468246,169.92326298881207L140.54913929007796,169.92326298431246L140.655069046693,169.93236750193225L140.76099930999084,169.95907990216878L140.86693007997144,169.9898198955655L140.97286649087314,169.99999989055826L141.07879813804615,170L141.1847302465198,170L141.29066281628954,170L143.3034682709944,170L143.40941006731688,170L143.51535232499762,170L143.6212950440321,170L143.72723822443373,169.99565052888633L143.833181866198,169.99198140503464L143.93912596932492,169.99045072977617L144.04507053382338,169.9921639437688L144.15101555969338,170L144.25696201840267,170L144.3629079670246,169.99865574527627L144.4688543770313,169.98304602101175L144.57480124841396,169.96359578907723L144.6807485811859,169.94389965336953L144.78669637534264,169.9433741148757L144.8926446308931,169.96873388346327L144.99859334783724,169.9877860915216L145.10454257611008,169.9978226856861L145.16515767611733,170L145.21049450831367,170L145.27110777725582,170L145.31644460945216,170L145.37705833980132,170L145.42239517199764,170L145.48300936374937,170L145.69491279587976,170L145.7402494510337,170L145.80086520406653,170L145.84620185922046,170L145.90681807366468,170L145.9521547288186,170L146.01277140469202,170L146.05810805984595,169.99935026088988L146.11872519713523,169.99470304962915L146.16406185228914,169.98671014989074L146.22467945100757,169.97065217316504L146.2700161061615,169.95610184645082L146.33063416630907,169.92604124806846L146.375970821463,169.90340395736547L146.4365893430397,169.87780237809272L146.48192599819365,169.86414490057857L146.54254498120397,169.8627747792074L146.5878816363579,169.870303147558L146.64850108080182,169.89243891694437L146.69383773595573,169.9099997787754L146.75445764184212,169.93753807943077L146.79979429699603,169.95746501177194L146.86041466432485,169.9798499477462L146.9057634536922,169.99373921245626L146.96637214824563,169.99951148220464L147.01172093761295,169.99965789615072L147.11767888298505,169.9999999939469L147.22363728980847,170L147.32959803291234,170L147.43555736264284,170L155.48981496824496,170L155.59580983805265,170L155.70180516952448,170L155.80780096266926,170L155.91379721747376,169.99024156309662L156.01979393395564,169.97161127092363L156.12579111211053,169.94462967519314L156.2317887519428,169.91756024315515L156.231788770101,169.91756024156345L156.33778685345695,169.94470298365593L156.4437854166529,169.97116934424307L156.54978445968894,169.99135718616924L156.6557847906135,169.99762620591537L156.6651538333206,169.99764285227783L156.76178473887273,169.99287370845352L156.86778514882712,169.99012460353578L156.97378602047667,169.99096852977655L157.07978735383023,169.99456338843694L157.1857898797462,169.99999997601938L157.2917921364989,170L157.39779485496007,169.98533072726136L157.50379803512965,169.9793382732689L157.60980167701211,169.96226687841943L157.7158057806119,169.95793279184954L157.7158060620639,169.95793278507196L157.82181062737658,169.9646110154124L157.92781565441538,169.97378352111303L158.0338211431715,169.98851407629903L158.13982727977978,169.9963908533623L158.25989767204763,169.99985709921793L158.3659045459956,170L158.47191188166974,170L158.58376329472964,170L158.66986572406597,170L158.77587444496297,170L158.88188362760388,170L158.98789327198872,170L159.0939033781219,169.99353098399226L159.1999139460123,169.9904790182704L159.30592497565547,169.989736506143L159.41193646706026,169.99132993875924L159.5179484202267,169.99425771240718L159.6239634817072,170L159.72997635839693,170L159.83598969685713,170L159.9420034970879,170L160.79013052303125,170L160.89614847932512,170L161.00216689741612,170L161.10818577730865,170L161.2142051190027,169.99479613894675L161.3202249225072,169.9911412111409L161.42624518781767,169.99006310495815L161.53226591493853,169.9920406429169L161.63828710387864,169.99545880510158L161.75112831875416,170L161.857150431324,170L161.9631730057219,170L162.06919604193914,170L166.41653819133376,170L166.52258062662477,170L166.62862352385034,170L166.73466688302375,170L166.84071070414495,170L166.9467549872096,169.85020799918425L167.0527997322265,169.39009816318028L167.15884493919566,168.0785328160948L167.26489060812597,164.41673211551185L167.37093673901296,156.96223040062534L167.47698333185667,148.750647637247L167.58303038667484,144.3935884921474L167.5855742543793,144.35736441410538L167.6890779034541,150.3560841059098L167.7951258821989,158.40890625018764L167.90117432292263,165.82491952823693L168.00722322562075,169.12458216984368L168.11327259029775,169.96631504797915L168.21251243582023,170L168.31856272445495,170L168.42461347508186,170L168.53066468769651,170L168.63671636229887,170L168.74276849889782,170L168.8488210974934,170L168.95487415809,170L169.0609276806832,170L169.16698166528187,170L169.27303611189046,170L169.37909150624063,170L169.48514687687342,170L169.59120270952056,170L169.697259004182,170L169.80331576086667,170L169.9093735061666,170L170.01543118689767,170L170.1214893296652,170L170.22754888776558,170L170.33360795459285,169.99355504107322L170.43966748346102,169.9912371535184L170.5457274743657,169.98738774141623L170.65178792731575,169.97040687614526L170.75784884230671,169.96602984553465L170.7578488967813,169.9660298432864L170.8639102193475,169.97684440695315L170.96997205843806,169.9893742406581L171.07603441405743,170L171.18209800345429,170L171.288161228712,170L171.39422491603278,170L171.50028906541667,170L171.60635367685921,170L171.7124190545279,170L171.81848459011883,170L171.92455058778614,170L172.03061729266102,170L172.13668524041913,170L172.24275262432445,170L172.34882047031508,170L172.45488877839097,169.99466219877706L172.560957548561,169.98989115871007L172.66702678081626,169.9879633794655L172.77309647517453,169.99008222294796L172.87916663163136,169.99428084763707L172.98523812631518,170L173.09130920697802,169.99722840964264L173.19738074974384,169.99306588459024L173.3034527546215,169.98969014060063L173.40952522161103,169.989279474571L173.51559815071687,169.99201301929133L173.62167154193457,169.99573520810642L173.7028816565976,170L173.8089559720656,170L173.91503074965436,170L174.02110598936827,170L183.03919072820852,170L183.102681234471,170L183.14530572098445,170L183.2087966896159,170L183.25142117612938,170L183.3149126071254,170L183.35753709363885,170L183.4210289869994,170L183.4636534735129,169.99954368000243L183.52714582924241,169.99419549881725L183.5697703157559,169.98600426870706L183.63326313385886,169.9694744136731L183.67588762037235,169.95717631750858L183.73938090085315,169.93930656718777L183.7820053873666,169.92766691823897L183.84549913022084,169.91200726858008L183.8881236167343,169.90662096047498L183.95161782197084,169.90276877297487L183.9942423084843,169.9049943560065L184.05773697610312,169.91527550395443L184.10036146261658,169.9225911101477L184.1638565926221,169.93678477596228L184.20648107913556,169.94681629263016L184.26997667153222,169.95927938179966L184.31260115804568,169.96239418560575L184.33747832016627,169.962198944308L184.44359907936146,169.98745955521252L184.50503659923652,169.99185730338743L184.54972008305393,169.9937472564737L184.61115760292896,169.9973666526661L184.65584264771712,169.99999913004018L184.7172790690214,170L184.76196457620517,170L184.82340099750942,170L184.8680869670932,170L184.97420982039458,169.9952096592285L185.08033313609596,169.99124582400344L185.18645691420622,169.9891320014502L185.29258115473425,169.99006889364392L185.39870585767557,169.99340310569343L185.50483102303463,169.99708938273096L185.61096389593544,170L185.71708998613892,170L185.82321653876895,170L185.92934355383005,170L190.38709579520986,170L190.49324269725756,170L190.59939006184274,170L190.7055378889875,170L190.81168617867857,169.99646971662003L190.91783493092927,169.99352695788255L191.02398414573514,169.99207445471706L191.13013382310507,169.99317546090668L191.23628396303457,169.99595482834704L191.34245743123444,170L191.44860849630535,170L191.55476002394028,170L191.6609120141526,170L196.11969780859084,170L196.22586969202717,170L196.33204203815615,170L196.39346388296988,170L196.43821484698213,170L196.49963669179584,169.9973954923759L196.54438811850073,169.9954978705705L196.60580996331444,169.99225773419934L196.65056185272078,169.98989697435957L196.71198369753452,169.9796076391068L196.75673604964234,169.97100199404528L196.81815789445605,169.94938119043283L196.8629107092742,169.93219408499863L196.92433255408793,169.91455371832353L196.96908583161198,169.89958193667027L197.0305076764257,169.88997216431363L197.07526141666455,169.88264069385497L197.0752616073256,169.88264067614114L197.13668326147825,169.8930254460409L197.18143746442743,169.9024885948579L197.24285930924114,169.91275568300733L197.28761397490507,169.92652922980878L197.3490358197188,169.9443128931269L197.3937911387674,169.95957828898958L197.4552127929201,169.97111404267872L197.49996866547443,169.97936015293698L197.56139022883616,169.98511484160076L197.60614735400443,169.98639738761528L197.60619466064043,169.98639799688823L197.66381977681084,169.98510834526553L197.71232571537664,169.98138342192541L197.769998138183,169.97965637237172L197.81850453948135,169.97820380709638L197.8761769622877,169.9835110652574L197.92468382631412,169.9879748702693L197.9823562491205,169.9909126516005L198.03086357588828,169.99338357118506L198.13705896390587,170L198.24323963895833,170L198.3494207767477,170L198.45560237728733,170L208.7574167707037,170L208.8636437334009,170L208.9698711591143,170L209.0760990478439,170L209.18232739958532,169.9923529259931L209.28855621435181,169.9767417006127L209.39478549214337,169.96079371031786L209.50101523295564,169.95626537202676L209.50101533736526,169.95626537166677L209.6072454367974,169.97237309102726L209.71347620808277,169.98168340700224L209.819707337988,169.9887780220707L209.92593953923557,169.97664576414704L210.03217159521762,169.9576669265922L210.1384041142425,169.94935491425514L210.13840431852216,169.94935490007603L210.2446370963146,169.95977136242922L210.35087074571365,169.9835332392094L210.4571046538847,169.99230193902076L210.5633400691992,169.99948159916946L210.56337065213813,169.99948260149986L210.62043927412483,169.99801246779484L210.66957490347363,169.99630213494737L210.72667410839927,169.99378292395525L210.77581020080862,169.99161504466076L210.83290940573426,169.98888953194296L210.88204596120417,169.98654409986528L210.9391451661298,169.9820666237655L210.98828218466474,169.9782135083604L211.09451887119025,169.98724799923048L211.20075602078074,169.99240602550097L211.30699363344513,169.99686460993556L211.4983393932997,170L211.60457793212063,170L211.710816934011,170L211.81705639899297,170L234.90324161459617,170L235.00958255947143,170L235.11592396802348,170L235.22226584026112,170L235.32860817616668,169.99392265549758L235.43495097576232,169.9886552090164L235.54129423904357,169.9804408716043L235.64763796600602,169.9779754468571L235.7539821566674,169.98024804061208L235.86032711063348,169.98476438423558L235.9512937222935,169.99074843731475L236.05763884033945,169.9943433967241L236.16398442208433,169.99785531571456L236.22970343234223,170L236.27033046753698,170L236.33604994149826,170L236.4423969143621,170L236.5487443509293,170L244.84527331540212,170L244.88590035059687,170L244.95165739358308,170L244.99228442877782,170L245.05804193568463,170L245.09866897087937,170L245.16442694171562,170L245.20505397691036,169.99990406180518L245.2708124116805,169.9944271556285L245.31143944687526,169.9553477251452L245.3206689346197,169.93739744911852" style="stroke: #2ca02c;"></path></g></g></svg>
