<?xml version="1.0" encoding="UTF-8" standalone="yes"?>
<!DOCTYPE svg PUBLIC "-//W3C//DTD SVG 1.0//EN" "http://www.w3.org/TR/2001/REC-SVG-20010904/DTD/svg10.dtd">
<svg height="300" width="264" xmlns="http://www.w3.org/2000/svg" xmlns:svg="http://www.w3.org/2000/svg" xmlns:xlink="http://www.w3.org/1999/xlink">
	<rect height="300" style="fill: #fff" width="264" x="0" y="0" />
	<line style="stroke: #999" x1="40" x2="40" y1="0" y2="5" />
	<line style="stroke: #999" x1="40" x2="40" y1="255" y2="260" />
	<line style="stroke: #999" x1="40" x2="40" y1="270" y2="275" />
	<line style="stroke: #999" x1="40" x2="40" y1="285" y2="290" />
	<rect height="15" style="fill: #ffffff" width="32" x="41" y="255" />
	<text style="text-anchor: middle; fill: #666666; font-family: Arial; font-size: 10px" x="56" y="266">1.00</text>
	<rect height="15" style="fill: #ffffff" width="32" x="41" y="270" />
	<text style="text-anchor: middle; fill: #666666; font-family: Arial; font-size: 10px" x="56" y="281">0.00</text>
	<line style="stroke: #ffffff" x1="72" x2="72" y1="285" y2="5" />
	<rect height="15" style="fill: #ffffff" width="32" x="41" y="285" />
	<text style="text-anchor: middle; fill: #666666; font-family: Arial; font-size: 10px" x="56" y="296">1.9</text>
	<text style="text-anchor: middle; fill: #006600; font-family: Arial; font-weight: bold; font-size: 85px" transform="matrix(0.457142857142857, 0, 0, 1.80922570016474, 56, 216.644975288303)" x="0" y="0">Y</text>
	<text style="text-anchor: middle; fill: #00FF00; font-family: Arial; font-weight: bold; font-size: 85px" transform="matrix(0.457142857142857, 0, 0, 0.489415156507413, 56, 246.009884678748)" x="0" y="0">F</text>
	<text style="text-anchor: middle; fill: #FF9933; font-family: Arial; font-weight: bold; font-size: 85px" transform="matrix(0.457142857142857, 0, 0, 0.0329077429983526, 56, 247.984349258649)" x="0" y="0">L</text>
	<text style="text-anchor: middle; fill: #660033; font-family: Arial; font-weight: bold; font-size: 85px" transform="matrix(0.457142857142857, 0, 0, 0.0252059308072488, 56, 249.496705107084)" x="0" y="0">H</text>
	<text style="text-anchor: middle; fill: #66CC66; font-family: Arial; font-weight: bold; font-size: 85px" transform="matrix(0.457142857142857, 0, 0, 0.0238056013179572, 56, 250.925041186161)" x="0" y="0">W</text>
	<text style="text-anchor: middle; fill: #FFCC33; font-family: Arial; font-weight: bold; font-size: 85px" transform="matrix(0.457142857142857, 0, 0, 0.0126029654036244, 56, 251.681219110379)" x="0" y="0">V</text>
	<text style="text-anchor: middle; fill: #CC9933; font-family: Arial; font-weight: bold; font-size: 85px" transform="matrix(0.457142857142857, 0, 0, 0.0126029654036244, 56, 252.437397034596)" x="0" y="0">I</text>
	<text style="text-anchor: middle; fill: #0000FF; font-family: Arial; font-weight: bold; font-size: 85px" transform="matrix(0.457142857142857, 0, 0, 0.00980230642504118, 56, 253.025535420099)" x="0" y="0">S</text>
	<text style="text-anchor: middle; fill: #336666; font-family: Arial; font-weight: bold; font-size: 85px" transform="matrix(0.457142857142857, 0, 0, 0.00980230642504118, 56, 253.613673805601)" x="0" y="0">N</text>
	<text style="text-anchor: middle; fill: #CC99CC; font-family: Arial; font-weight: bold; font-size: 85px" transform="matrix(0.457142857142857, 0, 0, 0.00770181219110379, 56, 254.075782537068)" x="0" y="0">M</text>
	<text style="text-anchor: middle; fill: #6666CC; font-family: Arial; font-weight: bold; font-size: 85px" transform="matrix(0.457142857142857, 0, 0, 0.00770181219110379, 56, 254.537891268534)" x="0" y="0">Q</text>
	<text style="text-anchor: middle; fill: #FF9966; font-family: Arial; font-weight: bold; font-size: 85px" transform="matrix(0.457142857142857, 0, 0, 0.00770181219110379, 56, 255)" x="0" y="0">A</text>
	<text style="text-anchor: middle; fill: #999; font-family: Arial; font-size: 10px" x="56" y="10">1</text>
	<line style="stroke: #999" x1="72" x2="72" y1="0" y2="5" />
	<line style="stroke: #999" x1="72" x2="72" y1="255" y2="260" />
	<line style="stroke: #999" x1="72" x2="72" y1="270" y2="275" />
	<line style="stroke: #999" x1="72" x2="72" y1="285" y2="290" />
	<rect height="15" style="fill: #bdd7e7" width="32" x="73" y="255" />
	<text style="text-anchor: middle; fill: #666666; font-family: Arial; font-size: 10px" x="88" y="266">0.90</text>
	<rect height="15" style="fill: #ffffff" width="32" x="73" y="270" />
	<text style="text-anchor: middle; fill: #666666; font-family: Arial; font-size: 10px" x="88" y="281">0.00</text>
	<line style="stroke: #ffffff" x1="104" x2="104" y1="285" y2="5" />
	<rect height="15" style="fill: #ffffff" width="32" x="73" y="285" />
	<text style="text-anchor: middle; fill: #666666; font-family: Arial; font-size: 10px" x="88" y="296">1.9</text>
	<text style="text-anchor: middle; fill: #660033; font-family: Arial; font-weight: bold; font-size: 85px" transform="matrix(0.457142857142857, 0, 0, 3.28097199341021, 88, 246.766062602965)" x="0" y="0">H</text>
	<text style="text-anchor: middle; fill: #f2f20c; font-family: Arial; font-weight: bold; font-size: 80px" transform="matrix(0.457142857142857, 0, 0, 0.014003294892916, 88, 247.589456342669)" x="0" y="0">G</text>
	<text style="text-anchor: middle; fill: #006600; font-family: Arial; font-weight: bold; font-size: 85px" transform="matrix(0.457142857142857, 0, 0, 0.014003294892916, 88, 248.446457990115)" x="0" y="0">Y</text>
	<text style="text-anchor: middle; fill: #00FF00; font-family: Arial; font-weight: bold; font-size: 85px" transform="matrix(0.457142857142857, 0, 0, 0.0133031301482702, 88, 249.244645799012)" x="0" y="0">F</text>
	<text style="text-anchor: middle; fill: #663300; font-family: Arial; font-weight: bold; font-size: 85px" transform="matrix(0.457142857142857, 0, 0, 0.0112026359143328, 88, 249.916803953871)" x="0" y="0">K</text>
	<text style="text-anchor: middle; fill: #FF9966; font-family: Arial; font-weight: bold; font-size: 85px" transform="matrix(0.457142857142857, 0, 0, 0.0112026359143328, 88, 250.588962108731)" x="0" y="0">A</text>
	<text style="text-anchor: middle; fill: #FF0000; font-family: Arial; font-weight: bold; font-size: 85px" transform="matrix(0.457142857142857, 0, 0, 0.010502471169687, 88, 251.219110378913)" x="0" y="0">D</text>
	<text style="text-anchor: middle; fill: #CC0033; font-family: Arial; font-weight: bold; font-size: 85px" transform="matrix(0.457142857142857, 0, 0, 0.010502471169687, 88, 251.849258649094)" x="0" y="0">E</text>
	<text style="text-anchor: middle; fill: #990000; font-family: Arial; font-weight: bold; font-size: 85px" transform="matrix(0.457142857142857, 0, 0, 0.010502471169687, 88, 252.479406919275)" x="0" y="0">R</text>
	<text style="text-anchor: middle; fill: #0000FF; font-family: Arial; font-weight: bold; font-size: 85px" transform="matrix(0.457142857142857, 0, 0, 0.00980230642504118, 88, 253.067545304778)" x="0" y="0">S</text>
	<text style="text-anchor: middle; fill: #FF9933; font-family: Arial; font-weight: bold; font-size: 85px" transform="matrix(0.457142857142857, 0, 0, 0.00910214168039539, 88, 253.613673805601)" x="0" y="0">L</text>
	<text style="text-anchor: middle; fill: #336666; font-family: Arial; font-weight: bold; font-size: 85px" transform="matrix(0.457142857142857, 0, 0, 0.00770181219110379, 88, 254.075782537068)" x="0" y="0">N</text>
	<text style="text-anchor: middle; fill: #0099FF; font-family: Arial; font-weight: bold; font-size: 85px" transform="matrix(0.457142857142857, 0, 0, 0.00770181219110379, 88, 254.537891268534)" x="0" y="0">P</text>
	<text style="text-anchor: middle; fill: #00FFFF; font-family: Arial; font-weight: bold; font-size: 85px" transform="matrix(0.457142857142857, 0, 0, 0.00770181219110379, 88, 255)" x="0" y="0">T</text>
	<text style="text-anchor: middle; fill: #999; font-family: Arial; font-size: 10px" x="88" y="10">2</text>
	<line style="stroke: #999" x1="104" x2="104" y1="0" y2="5" />
	<line style="stroke: #999" x1="104" x2="104" y1="255" y2="260" />
	<line style="stroke: #999" x1="104" x2="104" y1="270" y2="275" />
	<line style="stroke: #999" x1="104" x2="104" y1="285" y2="290" />
	<rect height="15" style="fill: #ffffff" width="32" x="105" y="255" />
	<text style="text-anchor: middle; fill: #666666; font-family: Arial; font-size: 10px" x="120" y="266">0.97</text>
	<rect height="15" style="fill: #ffffff" width="32" x="105" y="270" />
	<text style="text-anchor: middle; fill: #666666; font-family: Arial; font-size: 10px" x="120" y="281">0.00</text>
	<line style="stroke: #ffffff" x1="136" x2="136" y1="285" y2="5" />
	<rect height="15" style="fill: #ffffff" width="32" x="105" y="285" />
	<text style="text-anchor: middle; fill: #666666; font-family: Arial; font-size: 10px" x="120" y="296">1.9</text>
	<text style="text-anchor: middle; fill: #00FF00; font-family: Arial; font-weight: bold; font-size: 85px" transform="matrix(0.457142857142857, 0, 0, 1.76091433278418, 120, 218.829489291598)" x="0" y="0">F</text>
	<text style="text-anchor: middle; fill: #66CC66; font-family: Arial; font-weight: bold; font-size: 85px" transform="matrix(0.457142857142857, 0, 0, 0.359884678747941, 120, 240.422570016474)" x="0" y="0">W</text>
	<text style="text-anchor: middle; fill: #006600; font-family: Arial; font-weight: bold; font-size: 85px" transform="matrix(0.457142857142857, 0, 0, 0.124629324546952, 120, 247.900329489292)" x="0" y="0">Y</text>
	<text style="text-anchor: middle; fill: #FF9933; font-family: Arial; font-weight: bold; font-size: 85px" transform="matrix(0.457142857142857, 0, 0, 0.0343080724876441, 120, 249.95881383855)" x="0" y="0">L</text>
	<text style="text-anchor: middle; fill: #660033; font-family: Arial; font-weight: bold; font-size: 85px" transform="matrix(0.457142857142857, 0, 0, 0.0231054365733114, 120, 251.345140032949)" x="0" y="0">H</text>
	<text style="text-anchor: middle; fill: #CC9933; font-family: Arial; font-weight: bold; font-size: 85px" transform="matrix(0.457142857142857, 0, 0, 0.0133031301482702, 120, 252.143327841845)" x="0" y="0">I</text>
	<text style="text-anchor: middle; fill: #FFCC33; font-family: Arial; font-weight: bold; font-size: 85px" transform="matrix(0.457142857142857, 0, 0, 0.0126029654036244, 120, 252.899505766063)" x="0" y="0">V</text>
	<text style="text-anchor: middle; fill: #0000FF; font-family: Arial; font-weight: bold; font-size: 85px" transform="matrix(0.457142857142857, 0, 0, 0.00980230642504118, 120, 253.487644151565)" x="0" y="0">S</text>
	<text style="text-anchor: middle; fill: #336666; font-family: Arial; font-weight: bold; font-size: 85px" transform="matrix(0.457142857142857, 0, 0, 0.00910214168039539, 120, 254.033772652389)" x="0" y="0">N</text>
	<text style="text-anchor: middle; fill: #CC99CC; font-family: Arial; font-weight: bold; font-size: 85px" transform="matrix(0.457142857142857, 0, 0, 0.00840197693574959, 120, 254.537891268534)" x="0" y="0">M</text>
	<text style="text-anchor: middle; fill: #FF9966; font-family: Arial; font-weight: bold; font-size: 85px" transform="matrix(0.457142857142857, 0, 0, 0.00770181219110379, 120, 255)" x="0" y="0">A</text>
	<text style="text-anchor: middle; fill: #999; font-family: Arial; font-size: 10px" x="120" y="10">3</text>
	<line style="stroke: #999" x1="136" x2="136" y1="0" y2="5" />
	<line style="stroke: #999" x1="136" x2="136" y1="255" y2="260" />
	<line style="stroke: #999" x1="136" x2="136" y1="270" y2="275" />
	<line style="stroke: #999" x1="136" x2="136" y1="285" y2="290" />
	<rect height="15" style="fill: #ffffff" width="32" x="137" y="255" />
	<text style="text-anchor: middle; fill: #666666; font-family: Arial; font-size: 10px" x="152" y="266">0.99</text>
	<rect height="15" style="fill: #ffffff" width="32" x="137" y="270" />
	<text style="text-anchor: middle; fill: #666666; font-family: Arial; font-size: 10px" x="152" y="281">0.00</text>
	<line style="stroke: #ffffff" x1="168" x2="168" y1="285" y2="5" />
	<rect height="15" style="fill: #ffffff" width="32" x="137" y="285" />
	<text style="text-anchor: middle; fill: #666666; font-family: Arial; font-size: 10px" x="152" y="296">1.9</text>
	<text style="text-anchor: middle; fill: #66CC66; font-family: Arial; font-weight: bold; font-size: 85px" transform="matrix(0.457142857142857, 0, 0, 4.12116968698517, 152, 251.6392092257)" x="0" y="0">W</text>
	<text style="text-anchor: middle; fill: #006600; font-family: Arial; font-weight: bold; font-size: 85px" transform="matrix(0.457142857142857, 0, 0, 0.0168039538714992, 152, 252.64744645799)" x="0" y="0">Y</text>
	<text style="text-anchor: middle; fill: #00FF00; font-family: Arial; font-weight: bold; font-size: 85px" transform="matrix(0.457142857142857, 0, 0, 0.0168039538714992, 152, 253.65568369028)" x="0" y="0">F</text>
	<text style="text-anchor: middle; fill: #f2f20c; font-family: Arial; font-weight: bold; font-size: 80px" transform="matrix(0.457142857142857, 0, 0, 0.0126029654036244, 152, 254.396738056013)" x="0" y="0">G</text>
	<text style="text-anchor: middle; fill: #FF9933; font-family: Arial; font-weight: bold; font-size: 85px" transform="matrix(0.457142857142857, 0, 0, 0.00980230642504118, 152, 255)" x="0" y="0">L</text>
	<text style="text-anchor: middle; fill: #999; font-family: Arial; font-size: 10px" x="152" y="10">4</text>
	<line style="stroke: #999" x1="168" x2="168" y1="0" y2="5" />
	<line style="stroke: #999" x1="168" x2="168" y1="255" y2="260" />
	<line style="stroke: #999" x1="168" x2="168" y1="270" y2="275" />
	<line style="stroke: #999" x1="168" x2="168" y1="285" y2="290" />
	<rect height="15" style="fill: #ffffff" width="32" x="169" y="255" />
	<text style="text-anchor: middle; fill: #666666; font-family: Arial; font-size: 10px" x="184" y="266">0.99</text>
	<rect height="15" style="fill: #d7301f" width="32" x="169" y="270" />
	<text style="text-anchor: middle; fill: #ffffff; font-family: Arial; font-size: 10px" x="184" y="281">0.20</text>
	<line style="stroke: #d7301f" x1="200" x2="200" y1="285" y2="5" />
	<rect height="15" style="fill: #ffffff" width="32" x="169" y="285" />
	<text style="text-anchor: middle; fill: #666666; font-family: Arial; font-size: 10px" x="184" y="296">1.1</text>
	<text style="text-anchor: middle; fill: #660033; font-family: Arial; font-weight: bold; font-size: 85px" transform="matrix(0.457142857142857, 0, 0, 0.891309719934102, 184, 192.195222405272)" x="0" y="0">H</text>
	<text style="text-anchor: middle; fill: #FF0000; font-family: Arial; font-weight: bold; font-size: 85px" transform="matrix(0.457142857142857, 0, 0, 0.793986820428336, 184, 239.834431630972)" x="0" y="0">D</text>
	<text style="text-anchor: middle; fill: #CC0033; font-family: Arial; font-weight: bold; font-size: 85px" transform="matrix(0.457142857142857, 0, 0, 0.0630148270181219, 184, 243.615321252059)" x="0" y="0">E</text>
	<text style="text-anchor: middle; fill: #336666; font-family: Arial; font-weight: bold; font-size: 85px" transform="matrix(0.457142857142857, 0, 0, 0.0350082372322899, 184, 245.715815485997)" x="0" y="0">N</text>
	<text style="text-anchor: middle; fill: #0000FF; font-family: Arial; font-weight: bold; font-size: 85px" transform="matrix(0.457142857142857, 0, 0, 0.024505766062603, 184, 247.186161449753)" x="0" y="0">S</text>
	<text style="text-anchor: middle; fill: #6666CC; font-family: Arial; font-weight: bold; font-size: 85px" transform="matrix(0.457142857142857, 0, 0, 0.0217051070840198, 184, 248.488467874794)" x="0" y="0">Q</text>
	<text style="text-anchor: middle; fill: #663300; font-family: Arial; font-weight: bold; font-size: 85px" transform="matrix(0.457142857142857, 0, 0, 0.0217051070840198, 184, 249.790774299835)" x="0" y="0">K</text>
	<text style="text-anchor: middle; fill: #f2f20c; font-family: Arial; font-weight: bold; font-size: 80px" transform="matrix(0.457142857142857, 0, 0, 0.0217051070840198, 184, 251.067034596376)" x="0" y="0">G</text>
	<text style="text-anchor: middle; fill: #FF9966; font-family: Arial; font-weight: bold; font-size: 85px" transform="matrix(0.457142857142857, 0, 0, 0.021004942339374, 184, 252.353377265239)" x="0" y="0">A</text>
	<text style="text-anchor: middle; fill: #00FFFF; font-family: Arial; font-weight: bold; font-size: 85px" transform="matrix(0.457142857142857, 0, 0, 0.0147034596375618, 184, 253.235584843493)" x="0" y="0">T</text>
	<text style="text-anchor: middle; fill: #990000; font-family: Arial; font-weight: bold; font-size: 85px" transform="matrix(0.457142857142857, 0, 0, 0.0112026359143328, 184, 253.907742998353)" x="0" y="0">R</text>
	<text style="text-anchor: middle; fill: #0099FF; font-family: Arial; font-weight: bold; font-size: 85px" transform="matrix(0.457142857142857, 0, 0, 0.010502471169687, 184, 254.537891268534)" x="0" y="0">P</text>
	<text style="text-anchor: middle; fill: #FF9933; font-family: Arial; font-weight: bold; font-size: 85px" transform="matrix(0.457142857142857, 0, 0, 0.00770181219110379, 184, 255)" x="0" y="0">L</text>
	<text style="text-anchor: middle; fill: #999; font-family: Arial; font-size: 10px" x="184" y="10">5</text>
	<line style="stroke: #999" x1="200" x2="200" y1="0" y2="5" />
	<line style="stroke: #999" x1="200" x2="200" y1="255" y2="260" />
	<line style="stroke: #999" x1="200" x2="200" y1="270" y2="275" />
	<line style="stroke: #999" x1="200" x2="200" y1="285" y2="290" />
	<rect height="15" style="fill: #ffffff" width="32" x="201" y="255" />
	<text style="text-anchor: middle; fill: #666666; font-family: Arial; font-size: 10px" x="216" y="266">1.00</text>
	<rect height="15" style="fill: #ffffff" width="32" x="201" y="270" />
	<text style="text-anchor: middle; fill: #666666; font-family: Arial; font-size: 10px" x="216" y="281">0.00</text>
	<line style="stroke: #ffffff" x1="232" x2="232" y1="285" y2="5" />
	<rect height="15" style="fill: #ffffff" width="32" x="201" y="285" />
	<text style="text-anchor: middle; fill: #666666; font-family: Arial; font-size: 10px" x="216" y="296">1.9</text>
	<text style="text-anchor: middle; fill: #990000; font-family: Arial; font-weight: bold; font-size: 85px" transform="matrix(0.457142857142857, 0, 0, 0.459308072487644, 216, 211.897858319605)" x="0" y="0">R</text>
	<text style="text-anchor: middle; fill: #663300; font-family: Arial; font-weight: bold; font-size: 85px" transform="matrix(0.457142857142857, 0, 0, 0.426400329489292, 216, 237.481878088962)" x="0" y="0">K</text>
	<text style="text-anchor: middle; fill: #FF9966; font-family: Arial; font-weight: bold; font-size: 85px" transform="matrix(0.457142857142857, 0, 0, 0.144233937397035, 216, 246.135914332784)" x="0" y="0">A</text>
	<text style="text-anchor: middle; fill: #6666CC; font-family: Arial; font-weight: bold; font-size: 85px" transform="matrix(0.457142857142857, 0, 0, 0.0294069192751236, 216, 247.900329489292)" x="0" y="0">Q</text>
	<text style="text-anchor: middle; fill: #CC0033; font-family: Arial; font-weight: bold; font-size: 85px" transform="matrix(0.457142857142857, 0, 0, 0.021004942339374, 216, 249.160626029654)" x="0" y="0">E</text>
	<text style="text-anchor: middle; fill: #0000FF; font-family: Arial; font-weight: bold; font-size: 85px" transform="matrix(0.457142857142857, 0, 0, 0.0168039538714992, 216, 250.168863261944)" x="0" y="0">S</text>
	<text style="text-anchor: middle; fill: #336666; font-family: Arial; font-weight: bold; font-size: 85px" transform="matrix(0.457142857142857, 0, 0, 0.0154036243822076, 216, 251.093080724876)" x="0" y="0">N</text>
	<text style="text-anchor: middle; fill: #00FFFF; font-family: Arial; font-weight: bold; font-size: 85px" transform="matrix(0.457142857142857, 0, 0, 0.0147034596375618, 216, 251.97528830313)" x="0" y="0">T</text>
	<text style="text-anchor: middle; fill: #FF9933; font-family: Arial; font-weight: bold; font-size: 85px" transform="matrix(0.457142857142857, 0, 0, 0.0126029654036244, 216, 252.731466227348)" x="0" y="0">L</text>
	<text style="text-anchor: middle; fill: #660033; font-family: Arial; font-weight: bold; font-size: 85px" transform="matrix(0.457142857142857, 0, 0, 0.0119028006589786, 216, 253.445634266886)" x="0" y="0">H</text>
	<text style="text-anchor: middle; fill: #f2f20c; font-family: Arial; font-weight: bold; font-size: 80px" transform="matrix(0.457142857142857, 0, 0, 0.00980230642504118, 216, 254.022009884679)" x="0" y="0">G</text>
	<text style="text-anchor: middle; fill: #FFCC33; font-family: Arial; font-weight: bold; font-size: 85px" transform="matrix(0.457142857142857, 0, 0, 0.00840197693574959, 216, 254.537891268534)" x="0" y="0">V</text>
	<text style="text-anchor: middle; fill: #FF0000; font-family: Arial; font-weight: bold; font-size: 85px" transform="matrix(0.457142857142857, 0, 0, 0.00770181219110379, 216, 255)" x="0" y="0">D</text>
	<text style="text-anchor: middle; fill: #999; font-family: Arial; font-size: 10px" x="216" y="10">6</text>
	<line style="stroke: #999" x1="232" x2="232" y1="0" y2="5" />
	<line style="stroke: #999" x1="232" x2="232" y1="255" y2="260" />
	<line style="stroke: #999" x1="232" x2="232" y1="270" y2="275" />
	<line style="stroke: #999" x1="232" x2="232" y1="285" y2="290" />
	<rect height="15" style="fill: #ffffff" width="32" x="233" y="255" />
	<text style="text-anchor: middle; fill: #666666; font-family: Arial; font-size: 10px" x="248" y="266">1.00</text>
	<rect height="15" style="fill: #ffffff" width="32" x="233" y="270" />
	<text style="text-anchor: middle; fill: #666666; font-family: Arial; font-size: 10px" x="248" y="281">0.00</text>
	<line style="stroke: #ffffff" x1="264" x2="264" y1="285" y2="5" />
	<rect height="15" style="fill: #ffffff" width="32" x="233" y="285" />
	<text style="text-anchor: middle; fill: #666666; font-family: Arial; font-size: 10px" x="248" y="296">0</text>
	<text style="text-anchor: middle; fill: #f2f20c; font-family: Arial; font-weight: bold; font-size: 80px" transform="matrix(0.457142857142857, 0, 0, 1.45774299835255, 248, 229.221054365733)" x="0" y="0">G</text>
	<text style="text-anchor: middle; fill: #0099FF; font-family: Arial; font-weight: bold; font-size: 85px" transform="matrix(0.457142857142857, 0, 0, 0.303871499176277, 248, 249.202635914333)" x="0" y="0">P</text>
	<text style="text-anchor: middle; fill: #FF9966; font-family: Arial; font-weight: bold; font-size: 85px" transform="matrix(0.457142857142857, 0, 0, 0.028006589785832, 248, 250.883031301483)" x="0" y="0">A</text>
	<text style="text-anchor: middle; fill: #0000FF; font-family: Arial; font-weight: bold; font-size: 85px" transform="matrix(0.457142857142857, 0, 0, 0.0224052718286656, 248, 252.227347611203)" x="0" y="0">S</text>
	<text style="text-anchor: middle; fill: #00FFFF; font-family: Arial; font-weight: bold; font-size: 85px" transform="matrix(0.457142857142857, 0, 0, 0.0154036243822076, 248, 253.151565074135)" x="0" y="0">T</text>
	<text style="text-anchor: middle; fill: #336666; font-family: Arial; font-weight: bold; font-size: 85px" transform="matrix(0.457142857142857, 0, 0, 0.00770181219110379, 248, 253.613673805601)" x="0" y="0">N</text>
	<text style="text-anchor: middle; fill: #FF0000; font-family: Arial; font-weight: bold; font-size: 85px" transform="matrix(0.457142857142857, 0, 0, 0.00770181219110379, 248, 254.075782537068)" x="0" y="0">D</text>
	<text style="text-anchor: middle; fill: #CC0033; font-family: Arial; font-weight: bold; font-size: 85px" transform="matrix(0.457142857142857, 0, 0, 0.00770181219110379, 248, 254.537891268534)" x="0" y="0">E</text>
	<text style="text-anchor: middle; fill: #FFCC33; font-family: Arial; font-weight: bold; font-size: 85px" transform="matrix(0.457142857142857, 0, 0, 0.00770181219110379, 248, 255)" x="0" y="0">V</text>
	<text style="text-anchor: middle; fill: #999; font-family: Arial; font-size: 10px" x="248" y="10">7</text>
	<line style="stroke: #999" x1="35" x2="264" y1="0" y2="0" />
	<text style="text-anchor: end; fill: #666; font-family: Arial; font-size: 10px" x="35" y="8">6.07</text>
	<line style="stroke: #999" x1="40" x2="264" y1="285" y2="285" />
	<line style="stroke: #999" x1="40" x2="264" y1="270" y2="270" />
	<line style="stroke: #999" x1="35" x2="264" y1="255" y2="255" />
	<text style="text-anchor: end; fill: #666; font-family: Arial; font-size: 10px" x="35" y="255">0</text>
	<line style="stroke: #999" x1="35" x2="40" y1="127.5" y2="127.5" />
	<text style="text-anchor: end; fill: #666; font-family: Arial; font-size: 10px" x="35" y="130.5">3.04</text>
	<line style="stroke: #999" x1="40" x2="40" y1="0" y2="300" />
	<!-- 
	Generated using the Perl SVG Module V2.59
	by Ronan Oger
	Info: http://www.roitsystems.com/
 -->
</svg>